<svg version="1.1" xmlns="http://www.w3.org/2000/svg" xmlns:xlink="http://www.w3.org/1999/xlink" width="61.20434" height="77.68" viewBox="0,0,61.20434,77.68"><g transform="translate(-209.99966,-142)"><g data-paper-data="{&quot;isPaintingLayer&quot;:true}" fill-rule="nonzero" stroke="none" stroke-width="1" stroke-linecap="butt" stroke-linejoin="miter" stroke-miterlimit="10" stroke-dasharray="" stroke-dashoffset="0" style="mix-blend-mode: normal"><path d="M271.204,185.46v5.45c0,2.29 -0.56,4.97 -2,9.55c-0.13,0.4 -0.28,0.79 -0.45,1.17c-0.69,1.56 -1.77,3.14 -4.27,6.27c-0.07,0.08 -0.14,0.17 -0.21,0.25c-6.42,7.54 -14.67,11.53 -23.86,11.53c-4.41,0 -8.61,-0.98 -12.49,-2.92c-1.06,-0.53 -2.02,-1.23 -2.86,-2.07c-0.27,-0.27 -1.13,-1.06 -3.22,-2.61c-1.72,-1.26 -3.01,-2.98 -3.76,-4.93c-0.53,-0.72 -1.08,-1.44 -1.66,-2.16c-1.17,-1.47 -1.95,-3.21 -2.26,-5.05c-0.07,-0.25 -0.25,-0.79 -0.63,-1.77c-1.17,-2.95 -1.8,-4.98 -1.8,-7.26c0,-2.68 0.83,-5.26 2.36,-7.46c-0.46,-0.7 -0.88,-1.45 -1.25,-2.25c-0.82,-1.75 -1.15,-3.68 -0.98,-5.61c0,-0.04 0.03,-0.34 0.04,-1.11c-0.18,-1.3 -0.39,-3 -0.63,-5.09c-0.23,-2.04 -0.61,-5.27 -1.12,-9.71c-0.55,-3.98 0.38,-7.82 2.63,-10.81c2.95,-4.01 7.83,-6.08 14.43,-6.08c1.07,0 2.37,0.05 3.97,0.16c0.77,0.05 1.35,0.08 1.72,0.1c2.42,-0.12 5.54,-0.2 9.49,-0.26c0.16,-0.01 0.62,-0.07 1.6,-0.23c2.21,-0.39 3.82,-0.56 5.21,-0.56c7.24,0 12.85,4.6 13.94,11.46c0.12,0.74 0.16,1.49 0.13,2.24c-0.02,0.38 -0.04,1.56 0.14,4.43c0.29,2.09 0.46,4.69 -0.16,7.33c3.1,3.05 5.35,6.8 6.62,11.11c1.01,3.54 1.33,5.19 1.33,6.89z" fill="#00cccc"></path><path d="M260.202,190.909c0,0.998 -0.499,3.079 -1.495,6.245c-0.235,0.528 -1.174,1.819 -2.815,3.871c-4.34,5.102 -9.5,7.652 -15.481,7.652c-2.697,0 -5.22,-0.587 -7.564,-1.759c-0.997,-0.998 -2.493,-2.229 -4.485,-3.695c-0.06,-0.585 -0.499,-1.407 -1.319,-2.463c-0.646,-0.879 -1.32,-1.759 -2.023,-2.639c-0.06,-0.645 -0.47,-1.964 -1.231,-3.958c-0.704,-1.76 -1.056,-2.844 -1.056,-3.255c0,-0.703 0.365,-1.333 1.1,-1.891c0.732,-0.557 1.509,-0.836 2.331,-0.836c1.113,0 1.876,0.527 2.287,1.583c0,0.587 0.028,1.496 0.088,2.728c0.352,1.701 1.172,3.577 2.463,5.629c1.465,2.287 2.96,3.842 4.485,4.662c1.76,0.88 3.576,1.319 5.454,1.319c3.283,0 6.215,-1.265 8.796,-3.793c1.407,-1.353 2.229,-2.178 2.463,-2.472c0.645,-0.705 1.201,-1.704 1.672,-2.999c-0.118,-0.47 -0.06,-0.823 0.176,-1.06c0.527,-0.411 0.732,-1.44 0.615,-3.088c0,-0.233 0.044,-0.616 0.132,-1.146c0.088,-0.529 0.133,-0.941 0.133,-1.235c0,-0.058 -0.207,-1.322 -0.616,-3.793c-0.176,-0.177 -0.352,-0.383 -0.527,-0.619c-0.353,-3.175 -2.376,-5.557 -6.07,-7.146c-2.873,-1.234 -5.835,-1.765 -8.884,-1.589c-0.938,0.061 -2.186,0.211 -3.738,0.45c-1.555,0.24 -2.683,0.601 -3.387,1.08c-2.581,1.562 -4.457,2.341 -5.629,2.341c-1.407,0 -2.493,-0.821 -3.255,-2.463c0.058,-0.646 0.088,-1.584 0.088,-2.815c-0.176,-1.231 -0.411,-3.107 -0.703,-5.629c-0.235,-2.053 -0.616,-5.336 -1.144,-9.852c-0.176,-1.173 0,-2.111 0.527,-2.815c0.82,-1.113 2.696,-1.671 5.63,-1.671c0.82,0 1.904,0.044 3.254,0.132c1.349,0.088 2.199,0.132 2.551,0.132c2.345,-0.116 5.542,-0.204 9.588,-0.264c0.645,0 1.729,-0.132 3.255,-0.396c1.524,-0.265 2.639,-0.396 3.343,-0.396c1.817,0 2.844,0.734 3.078,2.199c-0.059,1.291 0,3.313 0.177,6.069c0.352,2.287 0.264,3.782 -0.265,4.486c-1.173,0.527 -2.142,0.791 -2.902,0.791c-1.35,0 -2.259,-0.615 -2.728,-1.847c-0.294,-0.762 -0.439,-1.76 -0.439,-2.991c0.058,-1.583 0.029,-2.608 -0.088,-3.078c-1.759,-0.058 -4.398,0.03 -7.916,0.264c-1.408,0.118 -4.722,0.47 -9.94,1.056c-0.176,0.118 -0.382,0.264 -0.615,0.439c-0.118,0.88 0,2.815 0.352,5.806c0.41,3.167 0.616,5.132 0.616,5.894c0.058,0 0.879,-0.264 2.463,-0.792c0.761,-0.116 1.876,-0.293 3.342,-0.527c1.936,-0.469 3.987,-0.704 6.158,-0.704c4.339,0 8.121,0.851 11.347,2.551c3.812,2.054 6.303,5.073 7.477,9.061c0.586,2.053 0.88,3.313 0.88,3.782v5.454z" fill="#ffffff"></path></g></g></svg>