<svg version="1.1" xmlns="http://www.w3.org/2000/svg" xmlns:xlink="http://www.w3.org/1999/xlink" width="132.5896" height="134.03813" viewBox="0,0,132.5896,134.03813"><g transform="translate(-176.09229,-117.02373)"><g data-paper-data="{&quot;isPaintingLayer&quot;:true}" fill-rule="nonzero" stroke="none" stroke-width="1" stroke-linecap="butt" stroke-linejoin="miter" stroke-miterlimit="10" stroke-dasharray="" stroke-dashoffset="0" style="mix-blend-mode: normal"><path d="M247.80203,177.65815c-3.47884,-3.9427 -0.34788,-11.94405 -0.34788,-11.94405c18.43789,0.81174 39.54291,32.58522 39.54291,32.58522c0,0 -7.65347,6.37789 -7.76943,6.26193c0,0 -10.08866,18.55386 -13.79943,21.68482c0,0 -28.29463,-18.09002 -35.36829,-30.38195z" data-paper-data="{&quot;index&quot;:null}" fill="#4a3369"></path><g data-paper-data="{&quot;index&quot;:null}"><g fill="#a3b339"><path d="M210.81027,207.6922c5.91405,-0.46384 8.58116,11.59616 9.74078,19.13367c1.15962,7.5375 -8.11731,15.42289 -11.71212,7.30558c-3.59481,-8.11731 -2.78308,-26.09137 1.97135,-26.43925z"></path><path d="M220.4351,226.82588c-0.23193,3.59481 0.46384,8.34923 3.015,8.11731c2.55116,-0.23192 8.34924,0.69577 6.84174,2.66712c-1.5075,1.97135 -9.9727,-0.69577 -9.9727,-0.69577c0,0 9.27693,4.29058 7.76943,6.26193c-1.5075,1.97134 -10.55251,-4.75443 -10.55251,-4.75443c0,0 6.60981,6.26192 4.29058,6.72577c-2.31924,0.46385 -6.49385,-6.95769 -8.34924,-6.60981c-1.85538,0.34789 1.39154,7.42154 -1.62346,6.37789c-3.01501,-1.04366 -4.87039,-14.14732 -4.05866,-16.35059"></path></g><path d="M231.56742,212.09873c10.08866,8.58116 16.58251,17.51021 9.50885,21.22098c-4.05866,2.20327 -29.80214,-3.71077 -32.58522,-18.09001c-2.78308,-14.37924 12.9877,-11.59616 23.07636,-3.13096z" fill="#a3b339"></path><path d="M220.66703,199.11104c3.24692,-7.76943 15.07501,-17.85809 24.58386,1.39154c6.03,12.29193 8.00135,30.96175 -4.17462,32.9331c-12.17597,1.97135 -23.65618,-26.55521 -20.40925,-34.32464z" fill="#a3b339"></path><path d="M246.1786,202.47391c0,0 0.11596,0.23192 0.23192,0.69577c0.23192,0.34789 0.57981,1.04366 0.92769,1.85539c0.69577,1.62346 1.62346,4.05866 2.43519,7.07366c0.34788,1.39154 0.69577,3.13097 0.92769,4.87039c0.23192,1.73942 0.34788,3.71077 0.23192,5.68212c-0.11596,1.97134 -0.57981,4.05865 -1.62346,6.03c-0.92769,1.97135 -2.78308,3.59481 -4.98635,4.29058l-1.5075,0.46385l-1.5075,0.46385l-1.5075,0.34788l-1.39154,0.23192c-2.08731,0.11597 -4.17462,0 -6.14597,-0.34788c-3.82674,-0.81173 -7.30558,-2.31924 -9.85674,-4.05866c-1.27558,-0.81174 -2.4352,-1.73943 -3.36289,-2.55116c-1.04365,-0.81173 -1.85538,-1.5075 -2.43519,-2.20327c-1.27558,-1.27558 -1.85539,-2.08731 -1.85539,-2.08731c0,0 0.69577,0.69577 2.08731,1.85539c1.27557,1.15962 3.36288,2.66712 6.03,4.17462c2.66711,1.5075 5.91404,2.89904 9.62481,3.36289c1.85539,0.23192 3.71077,0.34788 5.68212,0.11596l1.39154,-0.23192l1.39154,-0.34788l1.39154,-0.34788l1.39154,-0.46385c1.73943,-0.69577 3.13097,-1.85539 4.05866,-3.47885c0.92769,-1.62346 1.27558,-3.47884 1.5075,-5.33423c0.23192,-3.71077 -0.23192,-7.18962 -0.69577,-10.20462c-0.46384,-3.015 -1.15961,-5.4502 -1.62346,-7.18962c-0.23193,-0.81173 -0.46385,-1.5075 -0.57981,-1.97135c-0.11596,-0.46385 -0.23192,-0.69577 -0.23192,-0.69577z" fill="#687a27"></path><path d="M216.26049,205.0251c0,0 -0.46385,0 -1.27558,-0.23192c-0.34788,0 -0.92769,0.23192 -1.5075,0.34788c-0.57981,0.23192 -1.27558,0.46384 -1.85539,0.92769c-0.34788,0.23192 -0.57981,0.46385 -0.92769,0.69577c-0.23192,0.34788 -0.57981,0.57981 -0.81173,0.92769c-0.23192,0.34788 -0.46385,0.69577 -0.69577,1.04365c-0.23193,0.34789 -0.46385,0.69577 -0.57981,1.15962c-0.34789,0.92769 -0.46385,1.85539 -0.69577,2.78308c-0.11596,1.04365 -0.23192,1.97135 -0.34788,3.015c-0.11596,0.92769 -0.23192,1.97135 -0.23192,3.015c0,1.04365 0,2.08731 0,3.015c0,1.97134 0,3.82673 0.11596,5.33423c0.11596,1.5075 0.23192,2.78308 0.34788,3.71077c0,0.46384 0,0.81173 0.11596,1.04365c0,0.11596 0.11596,0.23192 0.11596,0.23192c0.11596,0 0.11596,0 0.11596,0c-0.11596,0 0,0.11596 -0.11596,0.11596c-0.11596,0 -0.11596,-0.11596 -0.23192,-0.23192c-0.11597,-0.23192 -0.34789,-0.5798 -0.46385,-1.04365c-0.34788,-0.92769 -0.69577,-2.20327 -1.04365,-3.71077c-0.23192,-1.5075 -0.57981,-3.36288 -0.69577,-5.33423c0,-0.92769 -0.11596,-1.97135 -0.11596,-3.015c0,-1.04365 0,-2.08731 0.11596,-3.13096c0.11597,-1.04365 0.23193,-2.08731 0.46385,-3.13096c0.11597,-0.46385 0.23193,-1.04365 0.46385,-1.5075c0.23193,-0.57981 0.34789,-1.04365 0.57981,-1.5075c0.11596,-0.46385 0.34789,-0.92769 0.69577,-1.39154c0.23192,-0.46385 0.57981,-0.81174 0.92769,-1.15962c0.34788,-0.34788 0.69577,-0.57981 1.04365,-0.92769c0.46385,-0.23192 0.81174,-0.57981 1.15962,-0.69577c0.81173,-0.46385 1.5075,-0.57981 2.20327,-0.69577c0.69577,0 1.27557,0 1.73942,0c0.46384,0.11596 0.81173,0.23192 1.04365,0.23192c0.23192,0.11596 0.34788,0.11596 0.34788,0.11596z" fill="#687a27"></path><path d="M213.59336,238.53798c0,0 0.11597,-0.11596 0.46385,0.23192c0.34789,0 0.81173,0.23193 1.27558,0.46385c0.46385,0.23192 1.04365,0.5798 1.5075,1.04365c0.46385,0.46385 0.92769,0.92769 1.39154,1.39154c0.92769,1.04366 1.62346,2.08731 2.31923,2.78308c0.23192,0.34789 0.57981,0.57981 0.81173,0.69577c0.11596,0.11596 0.23192,0.11596 0.34788,0.11596c0.11596,0 0.11596,0 0.11596,0c0,0 -0.11597,0.11596 -0.46385,0.23192c-0.34789,0 -0.81173,0 -1.39154,-0.23192c-1.04365,-0.46384 -2.20327,-1.39154 -3.13096,-2.43519c-0.46385,-0.57981 -0.9277,-1.15961 -1.27558,-1.62346c-0.34788,-0.46385 -0.69577,-0.92769 -0.92769,-1.39154c-0.23192,-0.34788 -0.46385,-0.69577 -0.69577,-0.92769c-0.23192,-0.23192 -0.34788,-0.34788 -0.34788,-0.34788z" fill="#687a27"></path><path d="M217.53606,238.42204c0,0 0.81173,0.23192 1.5075,0.81173c1.04365,0.46385 2.31923,1.15962 3.59481,1.85539c0.69577,0.34788 1.27558,0.69577 1.85539,1.04365c0.23192,0.11597 0.57981,0.34789 0.81173,0.46385c0.34788,0.11596 0.57981,0.23192 0.81173,0.34788c0.23192,0.11596 0.46385,0.23192 0.69577,0.23192c0.23193,0 0.46385,0.11596 0.57981,0.11596c0.34789,0 0.57981,0 0.57981,0c0,0 -0.11597,0.11596 -0.46385,0.34788c-0.11596,0.11596 -0.34789,0.11596 -0.57981,0.23192c-0.23192,0.11596 -0.46385,0.11596 -0.81173,0.11596c-0.34788,0 -0.69577,-0.11596 -1.04365,-0.11596c-0.34788,0 -0.69577,-0.11596 -1.04365,-0.23192c-0.69577,-0.23192 -1.39154,-0.57981 -2.08731,-0.92769c-0.69577,-0.34789 -1.27558,-0.81173 -1.85539,-1.27558c-0.57981,-0.46385 -1.04366,-0.92769 -1.39154,-1.39154c-0.81174,-0.92769 -1.15962,-1.62346 -1.15962,-1.62346z" fill="#687a27"></path><path d="M230.29185,237.61031c0,0 0,0.23192 -0.11596,0.34788c-0.23193,0.23192 -0.69577,0.57981 -1.15962,0.69577c-0.46384,0.23192 -1.15961,0.34788 -1.73942,0.34788c-0.69577,0 -1.27558,0 -1.97135,-0.11596c-1.39154,-0.11596 -2.55116,-0.5798 -3.47885,-1.04365c-0.81173,-0.46384 -1.39154,-0.92769 -1.39154,-0.92769c0,0 0.69577,-0.11596 1.62346,-0.11596c1.04366,0 2.20327,0 3.47885,0.23192c0.5798,0.11596 1.15961,0.23192 1.73942,0.34788c0.57981,0.11596 1.04365,0.11596 1.5075,0.23192c0.34788,0.11596 0.81173,0.11596 1.04365,0.11596c0.34789,0 0.46385,-0.11596 0.46385,-0.11596z" fill="#687a27"></path><path d="M220.66703,228.21742c0,0 0.23193,0.46385 0.57981,1.15962c0.23193,0.57981 0.46385,1.39154 0.57981,2.20327c0.11596,0.81173 0.23192,1.5075 0.34788,2.08731c0,0.11596 0.11596,0.23192 0.11596,0.34788c0,0.11596 0.11596,0.23192 0.11596,0.34788c0.11596,0.23192 0.11596,0.34788 0.11596,0.34788c0,0 -0.11596,0 -0.34788,0c-0.23193,0 -0.34789,0 -0.46385,-0.11596c-0.11597,0 -0.34789,-0.11596 -0.46385,-0.23192c-0.23192,-0.23192 -0.57981,-0.5798 -0.81173,-1.04365c-0.23193,-0.46385 -0.34789,-0.92769 -0.46385,-1.39154c-0.23192,-0.9277 -0.11596,-1.85539 0.11596,-2.55116c0.23193,-0.69577 0.57981,-1.15962 0.57981,-1.15962z" fill="#687a27"></path></g><g data-paper-data="{&quot;index&quot;:null}"><path d="M291.98342,167.10564c-5.05947,0 -9.16097,-4.10151 -9.16097,-9.16097c0,-5.05947 4.10151,-9.16097 9.16097,-9.16097c5.05947,0 9.16097,4.10151 9.16097,9.16097c0,5.05947 -4.10151,9.16097 -9.16097,9.16097z" fill="#a3b339"></path><path d="M300.21671,153.88601c0,0 -0.23193,-0.23192 -0.46385,-0.69577c-0.34789,-0.46384 -1.04366,-1.15961 -1.85539,-1.73942c-0.34789,-0.23192 -0.81173,-0.57981 -1.39154,-0.81173c-0.5798,-0.23193 -1.15961,-0.46385 -1.73942,-0.57981c-0.69577,-0.11596 -1.27558,-0.23192 -1.97135,-0.23192c-0.57981,0 -1.39154,0 -1.97135,0.11596c-0.34788,0.11596 -0.69577,0.11596 -1.04365,0.23192l-0.92769,0.34788c-0.34788,0.23193 -0.69577,0.34789 -0.92769,0.46385c-0.23192,0.11597 -0.57981,0.23193 -0.81173,0.46385c-0.46385,0.34789 -1.04366,0.69577 -1.39154,1.15962c-0.34788,0.34789 -0.69577,0.81173 -1.04365,1.27558c-0.57981,0.92769 -1.04366,1.73942 -1.27558,2.31923c-0.34789,0.57981 -0.46385,0.92769 -0.46385,0.92769c0,0 -0.11596,-0.34788 0,-1.04365c0,-0.57981 0.23192,-1.62347 0.69577,-2.66712c0.46384,-1.15962 1.15961,-2.31924 2.31923,-3.36289c0.23192,-0.23192 0.57981,-0.46385 0.92769,-0.69577c0.34788,-0.23193 0.69577,-0.34789 1.04365,-0.57981c0.34789,-0.23193 0.69577,-0.34789 1.15962,-0.46385c0.34788,-0.11596 0.69577,-0.11596 1.04365,-0.23192c0.92769,-0.11596 1.62346,-0.11596 2.43519,-0.11596c0.81173,0.11597 1.62346,0.23193 2.31923,0.46385c0.69577,0.23192 1.39154,0.57981 1.97135,0.92769c0.57981,0.34789 1.15962,0.81173 1.5075,1.27558c0.81173,0.81173 1.27558,1.73942 1.5075,2.31923c0.23192,0.57981 0.34788,0.92769 0.34788,0.92769z" fill="#687a27"></path></g><path d="M304.73924,164.09062c0,0 -0.57981,-0.57981 -1.27558,-1.27558c-0.57981,-0.46385 -1.15962,-0.92769 -1.97135,-1.5075c-0.81173,-0.5798 -1.73943,-1.15961 -2.78308,-1.73942c-1.04366,-0.46385 -2.20327,-1.04365 -3.47885,-1.5075c-1.27558,-0.46385 -2.66712,-0.81174 -4.05866,-1.15962c-1.39154,-0.23193 -2.89904,-0.46385 -4.40654,-0.46385c-1.5075,-0.11596 -3.015,-0.11596 -4.63846,0c-1.62347,0 -3.13097,0.11596 -4.75443,0.11596c-1.5075,0.11596 -3.015,0.11596 -4.5225,0.23192c-1.5075,0.11596 -2.89904,0.34789 -4.17462,0.57981c-1.27558,0.23192 -2.55116,0.69577 -3.59481,1.04365c-1.15962,0.46385 -2.08731,0.92769 -2.89904,1.39154c-0.46385,0.23192 -0.81174,0.46385 -1.15962,0.69577c-0.34788,0.23192 -0.69577,0.46385 -0.92769,0.69577c-0.57981,0.46384 -0.9277,0.81173 -1.27558,1.04365c-0.34789,0.23192 -0.46385,0.34788 -0.46385,0.34788c0,0 0.11596,-0.11597 0.34788,-0.46385c0.23192,-0.34789 0.5798,-0.81173 1.04365,-1.27558c0.23192,-0.23192 0.46385,-0.46385 0.81173,-0.81173c0.34788,-0.34788 0.69577,-0.57981 1.04365,-0.92769c0.34789,-0.34788 0.81173,-0.57981 1.27558,-0.92769c0.46385,-0.34788 0.92769,-0.57981 1.5075,-0.92769c1.04365,-0.57981 2.31923,-1.04366 3.71077,-1.39154c1.27558,-0.34788 2.78308,-0.69577 4.29058,-0.81173c3.015,-0.34789 6.26193,-0.46385 9.39289,-0.57981c1.62346,0 3.24693,-0.11596 4.87039,0c1.62346,0.11596 3.13096,0.34789 4.63846,0.69577c1.5075,0.34789 2.89904,0.81173 4.17462,1.39154c1.27558,0.46385 2.4352,1.15962 3.47885,1.85539c1.04366,0.69577 1.97135,1.39154 2.66712,2.08731c0.69577,0.69577 1.27557,1.27558 1.73942,1.85539c0.46384,0.57981 0.81173,0.9277 1.04365,1.27558c0.23192,0.34789 0.34788,0.46385 0.34788,0.46385z" data-paper-data="{&quot;index&quot;:null}" fill="#687a27"></path><g data-paper-data="{&quot;index&quot;:null}"><path d="M308.68188,173.2516c0,3.94269 -4.5225,13.33558 -20.75713,20.98905c-7.76943,3.59481 -7.42154,2.78308 -25.16367,25.9754c-17.74213,23.19233 -60.99581,19.9454 -66.44601,7.07366c-5.45019,-12.87174 0.23192,-39.19503 12.06001,-44.06542c11.82809,-4.87038 40.12272,-8.46519 47.66023,-18.20597c7.42154,-9.62481 18.78578,-9.9727 32.23733,-9.39289c13.45155,0.57981 20.40925,12.75578 20.40925,17.62617z" fill="#a3b339"></path><path d="M307.52226,178.46985c0,0 -2.20327,0.9277 -5.68212,1.97135c-3.24693,1.15962 -7.53751,2.66712 -11.82809,4.29058c-1.04365,0.46385 -2.08731,0.9277 -3.13096,1.27558c-1.04365,0.34789 -2.08731,0.81174 -3.13096,1.15962c-2.08731,0.69577 -4.05866,1.15962 -5.79808,1.39154c-1.73942,0.23192 -3.24693,0.23192 -4.29058,0.11596c-1.04365,-0.11596 -1.62346,-0.34788 -1.62346,-0.34788c0,0 0.57981,0.11596 1.62346,0c1.04366,0 2.4352,-0.23192 4.05866,-0.69577c0.81173,-0.23192 1.73943,-0.46385 2.66712,-0.81173c0.92769,-0.23192 1.97135,-0.5798 2.89904,-1.04365c0.92769,-0.34789 1.97135,-0.81173 3.015,-1.27558c1.04366,-0.46385 2.20328,-0.92769 3.24693,-1.39154c1.04366,-0.34789 2.20328,-0.81174 3.24693,-1.15962c1.15962,-0.34788 2.20328,-0.69577 3.24693,-1.04365c2.08731,-0.69577 4.05866,-1.15962 5.79808,-1.5075c3.36289,-0.69577 5.68212,-0.92769 5.68212,-0.92769z" fill="#687a27"></path><path d="M296.27398,170.35256c0,0 -0.11596,-0.11596 0,-0.23192c0,-0.11596 -0.11596,-0.11596 -0.23192,-0.23192c-0.11596,-0.11596 -0.23192,-0.11596 -0.34788,-0.23192c-0.46384,-0.23192 -1.04365,-0.57981 -1.73942,-0.81173c-0.5798,-0.23193 -1.27557,-0.57981 -1.73942,-0.57981h-0.11596h-0.11596c0,0 -0.11596,0 -0.11596,0.11596c0,0.11596 0,0.23192 0,0.23192c0,0 -0.11596,0 -0.23192,-0.23192c0,-0.11597 0,-0.34789 0,-0.46385c0,0 0,-0.11596 0.11596,-0.23192c0,0 0.11596,-0.11596 0.23192,-0.11596c0.23193,0 0.34789,-0.11596 0.57981,-0.11596c0.11596,0 0.34789,0 0.57981,0c0.34789,0.11596 0.81174,0.23192 1.15962,0.34788c0.34788,0.23192 0.69577,0.46385 1.04365,0.69577c0.23192,0.23192 0.57981,0.46385 0.69577,0.81173c0.11596,0.34788 0.23192,0.69577 0.23192,0.81173c0,0.11596 0,0.23192 0,0.23192z" fill="#687a27"></path><path d="M303.34768,183.80412c0,0 -0.23192,0.34788 -0.81173,0.81173c-0.57981,0.57981 -1.39154,1.27558 -2.55116,2.20327c-1.15962,0.92769 -2.55116,1.97134 -4.17462,3.13096c-1.62346,1.15962 -3.47885,2.43519 -5.68212,3.59481c-2.20327,1.04365 -4.63847,2.08731 -6.9577,3.59481c-2.31923,1.5075 -4.40654,3.59481 -6.37789,5.79808c-1.97135,2.20327 -3.71077,4.75442 -5.56616,7.42154c-1.85538,2.66712 -3.71077,5.33423 -5.79808,7.88539c-2.08731,2.55116 -4.40655,4.98635 -6.84174,7.18962c-2.4352,2.20327 -5.10231,4.05866 -7.76943,5.56616c-5.33423,3.015 -11.01635,4.75443 -15.88674,5.56616c-2.43519,0.34789 -4.75442,0.57981 -6.72577,0.69577c-0.92769,0.11596 -1.97135,0.11596 -2.78308,0.11596c-0.81173,0 -1.62346,0 -2.31923,0c-1.5075,0 -2.55116,-0.11596 -3.36289,-0.11596c-0.69577,-0.11596 -1.15962,-0.11596 -1.15962,-0.11596c0,0 0.34789,0 1.15962,0c0.81173,0 1.97135,0 3.36289,-0.11596c0.69577,0 1.5075,0 2.31923,-0.11596c0.92769,0 1.85539,-0.11596 2.78308,-0.23192c1.97135,-0.23192 4.05866,-0.5798 6.49385,-1.04365c4.75442,-1.04365 10.08866,-2.89904 15.30693,-6.03c2.55115,-1.62346 5.10231,-3.47885 7.42154,-5.56616c2.43519,-2.08731 4.5225,-4.40654 6.60981,-6.9577c2.08731,-2.4352 3.94269,-5.10231 5.79808,-7.76943c1.73942,-2.66712 3.71077,-5.21828 5.79808,-7.53751c2.08731,-2.31923 4.40655,-4.29058 6.84174,-5.79808c2.43519,-1.39154 4.98635,-2.4352 7.18962,-3.36289c2.20327,-1.04366 4.05866,-2.20328 5.79808,-3.24693c1.62346,-1.04366 3.13096,-1.97135 4.29058,-2.78308c1.15962,-0.81173 2.08731,-1.5075 2.66712,-1.97135c0.69577,-0.46385 0.92769,-0.81173 0.92769,-0.81173z" fill="#687a27"></path></g><g data-paper-data="{&quot;index&quot;:null}"><g fill="#a3b339"><path d="M190.05315,232.62395c-0.34788,7.65347 -10.90039,13.56751 -12.87174,4.98635c-1.97134,-8.58116 2.31924,-25.97541 6.9577,-25.51156c6.03,0.69577 6.26192,12.87174 5.91404,20.52521z"></path><path d="M190.16912,232.73992c-0.92769,3.47885 -1.15962,8.34924 1.39154,8.58116c2.55116,0.23193 8.11732,2.31924 6.26193,3.9427c-1.85539,1.62346 -9.74078,-2.55116 -9.74078,-2.55116c0,0 8.34924,6.03001 6.49385,7.65347c-1.85538,1.62347 -9.50885,-6.72577 -9.50885,-6.72577c0,0 5.33423,7.42154 3.015,7.42154c-2.31924,0 -5.10231,-8.11731 -6.9577,-8.11731c-1.85539,0 0,7.65346 -2.78308,6.03c-2.78308,-1.62347 -2.08731,-14.72713 -0.92769,-16.81444"></path></g><path d="M203.73664,220.33201c8.23327,10.20463 12.9877,20.29329 5.33423,22.61252c-4.40654,1.39154 -28.52656,-9.27693 -28.52656,-23.88809c0,-14.61116 14.95904,-8.92904 23.19232,1.27558z" fill="#a3b339"></path><path d="M195.50335,205.37298c4.63846,-6.84174 18.20597,-14.49521 23.88809,6.03c3.59481,13.21962 1.97135,31.88944 -10.32058,31.54156c-12.29193,-0.34789 -18.20597,-30.49791 -13.56751,-37.57157z" fill="#a3b339"></path><path d="M219.85529,213.60624c0,0 0.11596,0.23192 0.23192,0.81173c0.11597,0.46385 0.23193,1.04366 0.46385,1.97135c0.34788,1.73942 0.81173,4.29058 1.04365,7.42154c0.11596,1.5075 0.11596,3.24693 0,4.98635c-0.11596,1.73943 -0.34788,3.59481 -0.81173,5.56616c-0.46385,1.97135 -1.27558,3.9427 -2.66712,5.68212c-1.39154,1.73943 -3.59481,3.01501 -5.79808,3.24693l-1.5075,0.23192l-1.62346,0.11596h-1.62346l-1.62346,-0.11596c-2.08731,-0.11596 -4.05865,-0.69577 -5.91404,-1.39154c-3.71077,-1.39154 -6.72577,-3.59481 -8.92904,-5.79808c-1.15962,-1.04365 -2.08731,-2.20327 -2.89904,-3.13096c-0.81173,-1.04366 -1.5075,-1.97135 -1.97135,-2.66712c-0.92769,-1.5075 -1.39154,-2.43519 -1.39154,-2.43519c0,0 0.5798,0.81173 1.73942,2.20327c1.15961,1.39154 2.89904,3.24692 5.21827,5.21827c2.31923,1.97135 5.33423,3.94269 8.81308,5.10231c1.73943,0.57981 3.59481,1.04366 5.56616,1.15962l1.5075,0.11596h1.5075l1.39154,-0.11596l1.5075,-0.23192c1.85538,-0.34789 3.47884,-1.27558 4.63846,-2.66712c1.15961,-1.39154 1.85538,-3.13097 2.43519,-4.87039c1.04366,-3.59481 1.15962,-7.18962 1.27558,-10.20462c0.11596,-3.13096 0,-5.68212 -0.23192,-7.42154c-0.11596,-0.92769 -0.11596,-1.62346 -0.23192,-2.08731c0,-0.46385 -0.11596,-0.69577 -0.11596,-0.69577z" fill="#687a27"></path><path d="M190.16912,210.59125c0,0 -0.57981,-0.23192 -1.62346,-0.11596c-0.46384,-0.11596 -1.04365,0 -1.62346,0c-0.57981,0 -1.27558,0.11597 -1.97135,0.46385c-0.34788,0.11597 -0.69577,0.34789 -1.04365,0.46385c-0.23192,0.23192 -0.69577,0.34789 -0.92769,0.69577c-0.23192,0.23192 -0.57981,0.57981 -0.81173,0.92769c-0.34788,0.23192 -0.57981,0.69577 -0.81173,1.04365c-0.57981,0.69577 -0.9277,1.62347 -1.27558,2.55116c-0.34788,0.92769 -0.69577,1.97135 -0.92769,2.89904c-0.23192,1.04365 -0.46385,1.97135 -0.69577,3.015c-0.23193,0.92769 -0.46385,1.97135 -0.57981,2.89904c-0.34788,1.85538 -0.57981,3.71077 -0.81173,5.21827c-0.23193,1.5075 -0.34789,2.78308 -0.46385,3.71077c0,0.46384 0,0.81173 0,1.04365c0,0.11596 0.11596,0.23192 0.11596,0.23192c0.11596,0 0.11596,0 0.11596,0c0,0 0,0.11596 -0.11596,0.11596c0,0 -0.11596,-0.11596 -0.11596,-0.23192c-0.11596,-0.23192 -0.11596,-0.5798 -0.23192,-1.04365c-0.11596,-0.92769 -0.23192,-2.20327 -0.23192,-3.82673c-0.11596,-1.62347 0,-3.47885 0.23192,-5.4502c0.11597,-0.92769 0.23193,-1.97135 0.46385,-3.015c0.23192,-1.04365 0.46385,-2.08731 0.69577,-3.13096c0.34788,-1.04365 0.69577,-1.97135 1.04365,-3.015c0.23192,-0.46385 0.46385,-0.92769 0.69577,-1.39154c0.23192,-0.46385 0.46385,-0.92769 0.81173,-1.39154c0.34788,-0.34789 0.69577,-0.81174 1.04365,-1.15962c0.34789,-0.34788 0.81174,-0.69577 1.15962,-0.92769c0.46385,-0.23192 0.9277,-0.46385 1.27558,-0.69577c0.46385,-0.23193 0.81173,-0.34789 1.27558,-0.46385c0.81173,-0.23192 1.5075,-0.23192 2.20327,-0.23192c0.69577,0.11596 1.27557,0.23192 1.73942,0.34788c0.46384,0.11596 0.81173,0.23192 1.04365,0.34788c0.23192,0 0.34788,0.11596 0.34788,0.11596z" fill="#687a27"></path><path d="M181.58796,242.82857c0.34789,0.11596 0.69577,0.34789 1.15962,0.69577c0.46385,0.34789 0.81173,0.81173 1.27558,1.39154c0.46385,0.46384 0.81174,1.04365 1.15962,1.62346c0.69577,1.15961 1.27557,2.31923 1.73942,3.13096c0.23192,0.46384 0.46385,0.81173 0.69577,0.92769c0.11596,0 0.23192,0.11596 0.34788,0.11596c0.11596,0 0.11596,0 0.11596,0c0,-0.11596 -0.11597,0.11596 -0.46385,0.11596c-0.34789,0 -0.92769,-0.11597 -1.39154,-0.46385c-1.04366,-0.57981 -1.97135,-1.73942 -2.66712,-2.89904c-0.34788,-0.5798 -0.69577,-1.15961 -0.92769,-1.73942c-0.23192,-0.57981 -0.46385,-1.04365 -0.69577,-1.5075c-0.23193,-0.34788 -0.46385,-0.81173 -0.57981,-1.04365c-0.11596,-0.23192 -0.23192,-0.34788 -0.23192,-0.34788c0,0 0.23193,0 0.46385,0z" fill="#687a27"></path><path d="M186.80622,244.45203c0.92769,0.69577 2.08731,1.62347 3.13096,2.55116c0.57981,0.46385 1.15961,0.92769 1.62346,1.39154c0.23192,0.23193 0.46385,0.46385 0.69577,0.57981c0.23192,0.11597 0.46385,0.34789 0.69577,0.46385c0.23193,0.11596 0.34789,0.23192 0.57981,0.34788c0.23193,0.11596 0.46385,0.23192 0.57981,0.23192c0.23193,0 0.46385,0.11596 0.46385,0.11596c0,0 -0.11597,0.11596 -0.46385,0.23192c-0.23192,0.11596 -0.46385,0.11596 -0.69577,0.11596c-0.23192,0.11596 -0.46385,0.11596 -0.81173,0c-0.23192,0 -0.57981,-0.11596 -0.92769,-0.23192c-0.34788,-0.11597 -0.69577,-0.34789 -1.04365,-0.46385c-0.69577,-0.34789 -1.39154,-0.81173 -1.97135,-1.27558c-0.57981,-0.46384 -1.15961,-1.04365 -1.62346,-1.62346c-0.46385,-0.57981 -0.9277,-1.15961 -1.15962,-1.62346c-0.57981,-0.92769 -0.81173,-1.73942 -0.81173,-1.73942c0,0 0.69577,0.34788 1.73942,0.92769z" fill="#687a27"></path><path d="M197.70663,245.14782c0,0 0,0.23192 -0.34788,0.34788c-0.34789,0.23193 -0.69577,0.34789 -1.27558,0.46385c-0.46384,0.11596 -1.15961,0.11596 -1.73942,0c-0.57981,-0.11597 -1.27558,-0.23193 -1.85539,-0.46385c-1.27558,-0.46384 -2.4352,-1.15961 -3.24693,-1.73942c-0.81173,-0.57981 -1.27558,-1.15962 -1.27558,-1.15962c0,0 0.69577,-0.11596 1.62346,0.11596c0.9277,0.23192 2.20327,0.57981 3.36289,0.92769c0.5798,0.11596 1.15961,0.34789 1.73942,0.57981c0.57981,0.23193 1.04365,0.46385 1.5075,0.57981c0.46384,0.23192 0.81173,0.34788 1.04365,0.34788c0.34789,0.11596 0.46385,0 0.46385,0z" fill="#687a27"></path><path d="M190.40103,235.29107c0.11596,0.69577 0.23192,1.5075 0.23192,2.31923c0,0.81173 0,1.62346 0,2.20327c0,0.23193 0,0.34789 0,0.46385c0.11596,0.11596 0.11596,0.23192 0.11596,0.34788c0.11596,0.23192 0.11596,0.34788 0.11596,0.34788c0,0 -0.11596,0 -0.34788,-0.11596c-0.11596,-0.11596 -0.23192,-0.11596 -0.34788,-0.23192c-0.23193,-0.11596 -0.34789,-0.23192 -0.46385,-0.34788c-0.34789,-0.34789 -0.57981,-0.69577 -0.69577,-1.15962c-0.11596,-0.46385 -0.23192,-0.92769 -0.23192,-1.39154c0,-1.04366 0.23193,-1.97135 0.57981,-2.55116c0.23192,-0.69577 0.69577,-1.04365 0.69577,-1.04365c0,0 0.11596,0.46385 0.34788,1.15962z" fill="#687a27"></path><path d="M217.18816,180.44121c0,0 -1.15962,0.11596 -2.78308,0.69577c-1.73943,0.46384 -4.29058,1.39154 -6.84174,3.13096c-1.39154,0.9277 -2.66711,1.97135 -3.82673,3.24693c-1.15961,1.39153 -2.20327,2.89904 -3.015,4.63846c-1.62346,3.59481 -3.13096,7.42154 -4.29058,11.4802c-0.57981,1.97134 -1.04366,4.05865 -1.27558,6.03c-0.34788,1.97134 -0.34788,3.94269 -0.34788,5.91404c0,1.97135 0.23193,3.82674 0.57981,5.56616c0.34789,1.73943 0.81173,3.36289 1.27558,4.87039c0.46385,1.5075 1.04365,2.89904 1.5075,4.05866c0.46385,1.15961 0.92769,2.20327 1.39154,3.015c0.92769,1.62347 1.39154,2.55116 1.39154,2.55116c0,0 -0.11597,-0.23193 -0.46385,-0.57981c-0.34789,-0.34788 -0.81173,-0.92769 -1.27558,-1.73942c-0.46384,-0.81173 -1.15961,-1.73942 -1.73942,-2.89904c-0.57981,-1.15962 -1.27558,-2.4352 -1.85539,-3.9427c-1.15961,-3.015 -2.20327,-6.72577 -2.43519,-10.78443c-0.11596,-2.08731 0,-4.17462 0.23192,-6.26193c0.23193,-2.20327 0.69577,-4.29058 1.27558,-6.37789c1.15961,-4.17461 2.89904,-8.11731 4.63846,-11.71212c0.92769,-1.85539 2.20327,-3.47885 3.47885,-4.87039c1.27558,-1.27557 2.78308,-2.31923 4.17462,-3.13096c1.39154,-0.81173 2.78308,-1.27557 4.05866,-1.73942c1.27558,-0.34788 2.31924,-0.57981 3.24693,-0.81173c1.85539,-0.34788 2.89904,-0.34788 2.89904,-0.34788z" fill="#687a27"></path></g><g data-paper-data="{&quot;index&quot;:null}" fill="#969330"><path d="M201.41739,197.02373c3.47885,2.89904 1.85538,9.27693 -1.27558,6.9577c-3.015,-2.31924 -1.73942,-9.62482 1.27558,-6.9577z"></path><path d="M213.70932,199.69085c5.4502,2.55115 3.47885,10.66847 -1.5075,9.39289c-4.98635,-1.27558 -4.17462,-12.06001 1.5075,-9.39289z"></path><path d="M207.67932,187.86276c5.45019,-2.55115 6.95769,4.98635 3.13096,7.76943c-9.85673,7.07366 -8.58116,-5.10231 -3.13096,-7.76943z"></path></g><path d="M279.22764,204.56125c0,0 -0.92769,0 -2.31923,-0.11596c-1.39154,-0.11596 -3.47884,-0.34788 -6.03,-0.92769c-1.15961,-0.23192 -2.43519,-0.5798 -3.82673,-1.04365c-1.27558,-0.46384 -2.78308,-0.92769 -4.17462,-1.62346c-1.5075,-0.57981 -2.89904,-1.39154 -4.29058,-2.20327c-1.39154,-0.92769 -2.78308,-1.85538 -4.05866,-3.015c-1.27558,-1.04365 -2.4352,-2.31923 -3.47885,-3.59481c-1.04366,-1.27558 -1.85539,-2.66712 -2.66712,-4.05866c-0.81174,-1.39154 -1.39154,-2.78308 -1.85539,-4.17462c-0.23192,-0.69577 -0.57981,-1.27558 -0.69577,-1.97135c-0.11597,-0.57981 -0.34789,-1.27558 -0.46385,-1.85539c-0.23193,-1.27558 -0.46385,-2.31924 -0.46385,-3.36289c0,-0.9277 -0.11596,-1.85539 -0.11596,-2.55116c0,-1.39154 0,-2.20327 0,-2.20327c0,0 0.11596,0.81173 0.34788,2.20327c0.11597,0.69577 0.23193,1.62347 0.46385,2.55116c0,0.46385 0.23192,0.92769 0.34788,1.5075c0.11597,0.46384 0.34789,1.04365 0.46385,1.62346c0.46385,1.04365 0.81173,2.31923 1.39154,3.59481c0.57981,1.27557 1.15962,2.55115 1.97135,3.82673c0.69577,1.27558 1.73943,2.55115 2.66712,3.71077c1.04366,1.15962 2.08731,2.31924 3.36289,3.36289c1.27557,1.15962 2.55115,1.97135 3.82673,2.89904c1.39154,0.81173 2.66712,1.62346 4.05866,2.31923c2.66712,1.39154 5.33424,2.43519 7.65347,3.13096c2.31923,0.69577 4.29058,1.27558 5.68212,1.5075c1.39154,0.34789 2.20327,0.46385 2.20327,0.46385z" data-paper-data="{&quot;index&quot;:null}" fill="#4a3369"></path><path d="M243.16358,172.09198c0,0 -3.24693,0.11596 -7.76943,1.04365c-1.27557,0.11596 -2.43519,0.46385 -3.82673,0.69577c-1.39154,0.23192 -2.78308,0.57981 -4.17462,0.92769c-1.39154,0.46385 -2.89904,0.81173 -4.40654,1.27558c-1.5075,0.46385 -3.015,0.92769 -4.5225,1.5075c-1.5075,0.46384 -3.015,1.15961 -4.40654,1.73942c-1.5075,0.57981 -2.78308,1.27558 -4.17462,1.85539c-1.39154,0.57981 -2.55115,1.39154 -3.82673,1.97135c-1.27558,0.57981 -2.31924,1.27558 -3.36289,1.85539c-1.04366,0.57981 -1.97135,1.04365 -2.78308,1.62346c-0.81173,0.57981 -1.5075,1.04366 -2.08731,1.39154c-1.15962,0.69577 -1.85539,1.15962 -1.85539,1.15962c0,0 0.57981,-0.57981 1.62346,-1.5075c0.46385,-0.46384 1.15962,-0.92769 1.85539,-1.62346c0.81173,-0.57981 1.73943,-1.27558 2.66712,-1.97135c1.04366,-0.69577 2.08731,-1.5075 3.24693,-2.20327c1.15961,-0.69577 2.31923,-1.5075 3.71077,-2.20327c0.69577,-0.34788 1.39154,-0.69577 2.08731,-1.04365c0.69577,-0.34788 1.39154,-0.81173 2.08731,-1.04365c1.5075,-0.69577 3.015,-1.39154 4.5225,-1.85539c1.62346,-0.57981 3.13096,-1.04365 4.63846,-1.5075c1.5075,-0.57981 3.015,-0.81174 4.5225,-1.15962c1.5075,-0.34789 2.89904,-0.46385 4.29058,-0.69577c1.39154,-0.11596 2.78308,-0.34788 3.9427,-0.34788c4.75442,-0.34789 8.00135,0.11596 8.00135,0.11596z" data-paper-data="{&quot;index&quot;:null}" fill="#4a3369"></path><path d="M239.91667,229.02912c0,0 -0.9277,0.11597 -2.66712,-0.34788c-1.73943,-0.11597 -4.17462,-0.46385 -6.9577,-1.15962c-1.39154,-0.34789 -2.89904,-0.81173 -4.5225,-1.39154c-1.62346,-0.69577 -3.24693,-1.39154 -4.87039,-2.20327c-1.62346,-0.81173 -3.24693,-1.85539 -4.87039,-2.89904c-1.62346,-1.04365 -3.13096,-2.31923 -4.63846,-3.59481c-1.5075,-1.27558 -2.89904,-2.78308 -4.17462,-4.17462c-1.27558,-1.5075 -2.4352,-3.015 -3.47885,-4.5225c-0.9277,-1.5075 -1.85539,-3.015 -2.66712,-4.5225c-0.81173,-1.5075 -1.39154,-2.89904 -1.97135,-4.29058c-0.57981,-1.27558 -1.04366,-2.55115 -1.39154,-3.71077c-0.34788,-1.04365 -0.69577,-2.08731 -0.92769,-2.89904c-0.46385,-1.62347 -0.69577,-2.55116 -0.69577,-2.55116c0,0 0.46384,0.81173 1.04365,2.43519c0.23193,0.81173 0.69577,1.73943 1.15962,2.78308c0.46384,1.15962 1.15961,2.31923 1.73942,3.59481c0.23192,0.69577 0.69577,1.27558 1.04365,1.97135c0.34789,0.69577 0.69577,1.39154 1.15962,2.08731c0.92769,1.39154 1.85539,2.78308 2.89904,4.29058c0.46384,0.81173 1.04365,1.5075 1.62346,2.20327c0.69577,0.69577 1.27558,1.39154 1.85539,2.08731c1.27558,1.39154 2.66712,2.66712 4.05866,3.9427c1.39154,1.39154 2.89904,2.55116 4.40654,3.59481c1.5075,1.04365 3.015,2.08731 4.63846,2.89904c3.13096,1.85539 6.26192,3.13097 8.92904,4.05866c1.27558,0.46385 2.55115,0.81174 3.71077,1.15962c1.04365,0.34789 2.08731,0.57981 2.89904,0.69577c1.73943,0.34789 2.66712,0.46385 2.66712,0.46385z" data-paper-data="{&quot;index&quot;:null}" fill="#4a3369"></path><path d="M277.48822,205.72085c0,0 -2.08731,1.62346 -5.21827,3.82673c-1.62347,1.15961 -3.47885,2.43519 -5.4502,3.71077c-1.97135,1.39154 -4.05866,2.66712 -6.26193,4.05866c-1.04366,0.69577 -2.20328,1.27558 -3.24693,1.97135c-1.04365,0.69577 -2.08731,1.27558 -3.13096,1.85539c-2.08731,1.27558 -3.9427,2.31924 -5.68212,3.24693c-3.36289,1.85539 -5.68212,2.89904 -5.68212,2.89904c0,0 1.97135,-1.62346 5.10231,-3.82673c1.62347,-1.15961 3.47885,-2.43519 5.4502,-3.71077c1.04365,-0.57981 2.08731,-1.27558 3.13096,-1.97135c1.04366,-0.69577 2.20328,-1.39154 3.24693,-2.08731c2.08731,-1.27557 4.29058,-2.66711 6.37789,-3.82673c2.08731,-1.27558 3.9427,-2.31924 5.68212,-3.24693c3.36289,-1.85539 5.68212,-2.89904 5.68212,-2.89904z" data-paper-data="{&quot;index&quot;:null}" fill="#4a3369"></path><g data-paper-data="{&quot;index&quot;:null}"><path d="M258.58341,146.91569c-2.42937,-2.35304 -7.59129,-18.18737 -9.39033,-21.44019c-1.79903,-3.25285 -2.36249,-11.66492 2.65995,0.73039c0,0 -1.16131,-11.27764 0.75301,-8.8361c1.91432,2.44152 2.10773,9.03731 2.10773,9.03731c0,0 3.07265,-11.01546 4.21437,-8.44124c1.14172,2.57421 -0.72605,10.4145 -0.72605,10.4145c0,0 3.15541,-8.06144 3.86668,-4.22602c0.39887,1.61348 -2.38096,6.14751 0.24461,12.42449" fill="#a3b339"></path><path d="M269.79626,204.15617c-7.70361,7.3586 -13.92265,-9.87721 -10.85553,-15.54892c3.09593,-5.87457 4.07026,-7.42709 5.27886,-14.16476c1.20859,-6.73769 -6.43941,-25.41001 -8.89023,-34.6852c-2.42198,-9.47805 3.07449,-12.79672 7.87191,-4.12247c4.11221,7.30786 14.766,24.27658 16.49816,36.84132c1.73216,12.56474 -2.34273,24.44495 -9.90318,31.67999z" fill="#a3b339"></path><path d="M262.03812,126.13848c0,0 -0.05763,0.40566 0.0279,0.68777c-0.20082,0.52922 -0.3161,1.34054 -0.34584,2.43399c-0.02975,1.09345 0.02605,2.46905 0.65455,3.35047c0.31425,0.44074 0.74284,0.96075 1.17145,1.48077c0.42861,0.52003 0.94275,1.3222 1.34254,2.04505c1.74231,2.7679 3.77006,6.17932 5.85452,10.07572c1.085,2.08928 2.05565,4.09925 3.14065,6.18851c0.94182,2.21279 2.0268,4.30205 2.93982,6.71768c0.91302,2.41563 1.82602,4.83129 2.59584,7.37044c0.31332,1.33133 0.65546,2.45986 0.93998,3.99404c0.14226,0.7671 0.2845,1.53419 0.3124,2.22196c0.14226,0.76708 0.19896,1.25206 0.22686,1.93984c0.22596,2.83047 -0.00553,5.34373 -0.2082,7.65417c-0.31702,2.23115 -0.74839,4.38302 -1.23648,6.04988c-1.00501,3.5366 -2.20898,5.82113 -3.06896,7.45298c-0.48716,0.77629 -0.83118,1.42902 -1.11752,1.67607c-0.31517,0.44991 -0.45835,0.57345 -0.45835,0.57345c0,0 0.48717,-0.77625 1.2328,-2.48736c0.63126,-1.79043 1.63535,-4.4364 2.38282,-7.92877c0.37373,-1.74619 0.66194,-3.77448 0.83578,-5.88212c0.17384,-2.10762 0.1478,-4.57665 -0.05026,-6.71933c-0.0279,-0.68777 -0.19896,-1.25205 -0.22686,-1.93984c-0.05671,-0.48497 -0.08462,-1.17278 -0.25569,-1.73701c-0.19898,-1.25206 -0.54112,-2.38058 -0.88327,-3.50909c-0.79865,-2.33635 -1.59729,-4.67267 -2.53911,-6.88547c-0.94182,-2.21281 -1.88365,-4.42562 -2.8543,-6.43559c-1.085,-2.08926 -2.05564,-4.09923 -3.02628,-6.1092c-1.9701,-3.8171 -3.85466,-7.35209 -5.56817,-10.32281c-0.51414,-0.80215 -0.79956,-1.44572 -1.22818,-1.96574c-0.3998,-0.72283 -0.82839,-1.24287 -1.19936,-2.16854c-0.39978,-0.72287 -0.62757,-1.77209 -0.62664,-2.66272c0.00092,-0.89063 0.08739,-1.49915 0.17385,-2.10762c0.28728,-1.1377 0.5169,-1.86972 0.71772,-2.39892c0.20082,-0.52922 0.34399,-0.65273 0.34399,-0.65273z" fill="#687a27"></path><path d="M256.07035,142.49932c0,0 1.28489,2.45069 2.93982,6.71767c0.48531,1.00499 0.94182,2.21279 1.39832,3.42063c0.42769,1.41066 0.99854,2.69774 1.42622,4.1084c0.96972,2.9006 1.91062,6.00403 2.56517,9.3545c0.39886,1.6135 0.65456,3.35049 0.76706,5.21104c-0.00093,0.89061 0.11252,1.86053 -0.00277,2.67187c-0.05764,0.40568 -0.05765,0.40568 -0.11528,0.81133l-0.08646,0.60848c-0.05763,0.40566 -0.11528,0.81131 -0.17291,1.21699c-0.37374,1.74619 -0.77537,2.8046 -1.20583,4.06582c-0.43045,1.26122 -0.83208,2.31961 -1.31924,3.09588c-1.74878,3.46648 -3.32373,4.82535 -3.32373,4.82535c0,0 0.344,-0.65273 0.74563,-1.71113c0.51599,-0.97909 1.11843,-2.56666 1.77852,-4.55994c0.25846,-0.93484 0.66009,-1.99324 0.94737,-3.13094c0.28728,-1.13768 0.60339,-2.4782 0.7763,-3.69521c0.34492,-1.54333 0.37465,-2.63678 0.20451,-4.09168c-0.0558,-1.3756 -0.3403,-2.90979 -0.6248,-4.44397c-0.56901,-3.06837 -1.36674,-6.29534 -2.10774,-9.03733c-0.85536,-2.8213 -1.59637,-5.56329 -2.28066,-7.82033c-1.36857,-4.51404 -2.30947,-7.61749 -2.30947,-7.61749z" fill="#687a27"></path><path d="M247.99744,119.74449c0,0 -0.08553,-0.28213 0.08646,-0.60848c0.14317,-0.12357 0.42952,-0.37062 0.80141,-0.33557c0.3719,0.03506 0.71496,0.27296 1.0292,0.71368c0.34306,0.2379 0.65731,0.6786 0.94275,1.32216c0.48531,1.00499 0.79866,2.33635 0.91209,3.30626c0.22779,1.04922 0.1125,1.86053 0.1125,1.86053c0,0 -0.45742,-0.31719 -0.88603,-0.83719c-0.57179,-0.39649 -1.08592,-1.19866 -1.45688,-2.12433c-0.37097,-0.92569 -0.74195,-1.8514 -0.91301,-2.41563c-0.1999,-0.36143 -0.28544,-0.64356 -0.39979,-0.72287c-0.11436,-0.07929 -0.2287,-0.15859 -0.2287,-0.15859z" fill="#687a27"></path><path d="M252.60603,117.36985c0,0 0.37189,0.03504 0.88602,0.83719c0.54295,0.59931 1.14265,1.6836 1.45597,3.01495c0.17107,0.56426 0.31332,1.33135 0.34122,2.01912c0.0279,0.68781 -0.02975,1.09349 -0.11621,1.70196c-0.05764,0.40564 -0.14409,1.01413 -0.28728,1.13766c-0.14318,0.12353 -0.172,0.32636 -0.172,0.32636c0,0 -0.11435,-0.07929 -0.19989,-0.36141c-0.08554,-0.28215 -0.14225,-0.76711 -0.34214,-1.12855c-0.37096,-0.92569 -0.62758,-1.77205 -0.85536,-2.82128c-0.22779,-1.04922 -0.45559,-2.09845 -0.56901,-3.06837c-0.14225,-0.76706 -0.14132,-1.65769 -0.14132,-1.65769z" fill="#687a27"></path><path d="M258.95698,117.76297c0,0 0.11436,0.07932 0.28544,0.64356c0.19989,0.36143 0.39979,0.72287 0.57085,1.2871c0.17108,0.56426 0.31333,1.33137 0.34122,2.01914c0.0279,0.68781 0.02698,1.57844 -0.05949,2.18691c-0.20175,1.41983 -0.48903,2.55751 -0.97619,3.3338c-0.45835,0.57345 -0.88788,0.94403 -0.88788,0.94403c0,0 -0.14226,-0.76708 -0.11251,-1.86053c-0.0279,-0.68777 0.02975,-1.09345 0.00184,-1.78124c0.05765,-0.40566 0.02975,-1.09349 0.1162,-1.70196c0.05856,-1.29629 0.31702,-2.23112 0.46112,-3.2453c0.05763,-0.40566 0.11528,-0.81134 0.17291,-1.21701c0.05765,-0.40564 0.08646,-0.60847 0.08646,-0.60847z" fill="#687a27"></path></g><g data-paper-data="{&quot;index&quot;:null}"><path d="M258.00667,163.2789c-1.5075,-6.49385 0.92769,-43.71753 0.92769,-43.71753c16.0027,14.14732 29.33829,35.9481 29.33829,35.9481c-18.66982,-2.66712 -30.26598,7.76943 -30.26598,7.76943z" fill="#6d4b9b"></path><path d="M258.00666,163.27892c0,0 -0.34788,-2.66712 -0.81173,-6.26193c-0.11596,-1.85538 -0.23192,-4.17462 -0.23192,-6.60981c0,-2.4352 0,-5.10231 0,-7.65347c0.11596,-2.66712 0.23192,-5.21828 0.34788,-7.65347c0.23193,-2.43519 0.34789,-4.63846 0.57981,-6.60981c0.46384,-3.94269 0.92769,-6.49385 0.92769,-6.49385c0,0 0.11596,0.5798 0.11596,1.73942c0,1.15962 0.11596,2.78308 0.11596,4.75443c0,1.97135 0,4.17462 0,6.60981c0,1.15961 0,2.43519 0,3.71077c0,1.27557 0,2.55115 0,3.82673c0,1.27557 -0.11596,2.55115 -0.11596,3.82673c0,1.27558 -0.11596,2.55115 -0.11596,3.71077c-0.11596,2.43519 -0.23192,4.63846 -0.34788,6.60981c-0.23193,3.94269 -0.46385,6.49385 -0.46385,6.49385z" fill="#4a3369"></path><path d="M281.08303,146.69636c-4.29058,-0.92769 -6.37789,-2.20327 -6.37789,-2.20327c-0.46384,1.5075 -4.40654,5.4502 -4.40654,5.4502c-0.92769,-1.62347 -0.34788,-6.14597 -0.34788,-6.14597c-2.20327,0.69577 -7.76943,-2.43519 -7.76943,-2.43519c1.85538,-1.5075 7.42154,-2.66712 7.42154,-2.66712c-0.81173,-1.27557 0.46385,-6.72577 0.46385,-6.72577c1.27558,1.27558 4.40654,4.87039 4.40654,4.87039c0.11596,-0.11596 0.23192,-0.23192 0.34788,-0.23192c1.15962,1.5075 2.31924,2.89904 3.36289,4.29058c-0.23192,0.34789 -0.23192,0.46385 -0.23192,0.46385c1.39154,1.39153 3.13096,5.33423 3.13096,5.33423z" fill="#e0c448"></path><path d="M288.27264,155.50946c0,0 -1.85538,-2.20327 -4.63846,-5.79808c-1.27557,-1.73942 -2.89904,-3.71077 -4.5225,-5.91404c-1.62346,-2.08731 -3.47885,-4.40654 -5.21827,-6.72577c-0.9277,-1.04366 -1.73943,-2.20327 -2.66712,-3.36289c-0.81174,-1.04366 -1.73943,-2.20328 -2.55116,-3.24693c-1.73943,-2.08731 -3.36289,-4.05866 -4.75443,-5.68212c-0.69577,-0.81173 -1.39154,-1.62346 -1.97135,-2.20327c-0.69577,-0.57981 -1.15961,-1.15961 -1.62346,-1.62346c-0.81173,-0.92769 -1.39154,-1.39154 -1.39154,-1.39154c0,0 0.57981,0.46385 1.62346,1.15962c0.57981,0.34789 1.15962,0.81173 1.85539,1.39154c0.81173,0.57981 1.5075,1.15962 2.31923,1.97135c0.81174,0.69577 1.73943,1.5075 2.55116,2.43519c0.81173,0.92769 1.73943,1.85539 2.66712,2.89904c1.85539,2.08731 3.59481,4.29058 5.4502,6.60981c0.9277,1.15962 1.85539,2.31923 2.66712,3.47885c0.81173,1.15962 1.62346,2.31923 2.43519,3.47885c1.5075,2.31923 2.89904,4.40654 4.05866,6.26193c2.31923,3.71077 3.71077,6.26193 3.71077,6.26193z" fill="#4a3369"></path></g><g data-paper-data="{&quot;index&quot;:null}"><path d="M234.64528,204.22772c-31.92767,-17.48621 -23.56945,-54.558 -23.56945,-54.558c26.72037,-8.15587 51.6609,4.51764 51.6609,4.51764l4.75052,-4.59735c-5.75893,22.59397 12.19178,38.34358 12.19178,38.34358c-2.03358,5.06191 0.91364,10.08461 0.91364,10.08461z" fill="#6d4b9b"></path><path d="M222.57067,162.2466c0.47337,1.48656 0.45174,4.91275 0.49951,4.80709c-2.62436,-2.07707 -3.82725,-3.63888 -3.82725,-3.63888c-0.79465,0.91339 -4.93731,2.47679 -4.93731,2.47679c-0.21427,-1.49669 1.79477,-4.53357 1.79477,-4.53357c-1.88174,-0.34157 -4.89408,-4.37563 -4.89408,-4.37563c1.95699,-0.38798 6.24881,0.53395 6.24881,0.53395c-0.09847,-1.18983 2.51415,-4.71742 2.51415,-4.71742c0.52113,1.38089 1.65172,5.0734 1.65172,5.0734c1.22745,-0.46323 5.05898,0.63242 5.05898,0.63242c-1.07109,1.8065 -4.10931,3.74186 -4.10931,3.74186z" fill="#e0c448"></path><path d="M241.80136,193.464c-3.3683,0.13182 -5.30794,-0.36317 -5.30794,-0.36317c-0.05498,1.24774 -2.18702,5.11982 -2.18702,5.11982c-1.13486,-1.14927 -1.58368,-4.66087 -1.58368,-4.66087c-1.61971,1.04948 -6.54554,-0.15904 -6.54554,-0.15904c1.18689,-1.49964 5.09794,-3.67676 5.09794,-3.67676c-0.80772,-0.74687 -1.08575,-5.19934 -1.08575,-5.19934c1.22025,0.67883 4.46846,2.78339 4.46846,2.78339c0.67883,-1.22025 4.3033,-2.76337 4.3033,-2.76337c0.23454,2.01489 -0.82347,5.48165 -0.82347,5.48165c1.27815,0.83227 3.51026,3.49558 3.66368,3.43767z" fill="#e0c448"></path><path d="M246.55992,165.20025c0.828,1.26508 1.27682,4.77667 1.43025,4.71877c-2.92107,-1.70216 -4.32518,-3.10039 -4.32518,-3.10039c-0.73674,1.06682 -4.54212,3.29171 -4.54212,3.29171c-0.47337,-1.48656 1.00733,-4.76226 1.00733,-4.76226c-1.91936,0.02321 -5.53529,-3.52013 -5.53529,-3.52013c1.73552,-0.7426 6.20826,-0.50244 6.20826,-0.50244c-0.35756,-1.17969 1.77447,-5.05177 1.77447,-5.05177c0.61667,1.16956 2.31322,4.73612 2.31322,4.73612c1.16955,-0.61666 5.13422,-0.09713 5.13422,-0.09713c-0.75409,1.94977 -3.46516,4.28754 -3.46516,4.28754z" fill="#e0c448"></path><path d="M259.9701,189.58715c0.07952,-3.27276 0.68018,-5.16465 0.68018,-5.16465c-1.35341,-0.10273 -5.0243,-2.39835 -5.0243,-2.39835c1.10151,-1.02919 4.671,-1.32458 4.671,-1.32458c-0.89603,-1.67762 0.52382,-6.50791 0.52382,-6.50791c1.49962,1.1869 3.36988,5.21375 3.36988,5.21375c0.85254,-0.75995 5.31515,-0.77889 5.31515,-0.77889c-0.78451,1.17248 -3.10039,4.32517 -3.10039,4.32517c1.17248,0.7845 2.56218,4.46687 2.56218,4.46687c-2.0149,0.23456 -5.38613,-1.0348 -5.38613,-1.0348c-0.7266,1.32592 -3.60125,3.46248 -3.61139,3.20338z" fill="#e0c448"></path><path d="M260.11825,154.9126c-2.0149,0.23456 -5.38612,-1.0348 -5.38612,-1.0348c-0.83228,1.27815 -3.65915,3.30904 -3.65915,3.30904c0.12729,-3.37843 0.68018,-5.16465 0.68018,-5.16465c-1.24774,-0.05497 -5.02429,-2.39835 -5.02429,-2.39835c0.24895,-0.26924 0.6036,-0.49071 1.01612,-0.55875c4.71448,1.11299 8.55615,2.46772 11.18771,3.40273c0.61667,1.16956 1.18556,2.44477 1.18556,2.44477z" fill="#e0c448"></path><path d="M245.74601,202.75532c1.41852,-0.8859 4.16295,-1.0452 4.16295,-1.0452c-0.89604,-1.67762 0.52381,-6.50791 0.52381,-6.50791c1.49962,1.1869 3.36989,5.21376 3.36989,5.21376c0.85254,-0.75995 5.31515,-0.7789 5.31515,-0.7789c-0.14329,0.317 -0.48778,0.79757 -0.88003,1.38382l-12.49176,1.73443z" fill="#e0c448"></path><path d="M280.59266,198.0182c0,0 -0.84534,-0.38212 -2.06559,-1.06095c-1.22025,-0.67883 -3.02673,-1.74992 -5.11261,-3.32907c-0.96114,-0.68897 -1.98021,-1.53137 -3.05716,-2.52722c-0.97129,-0.94807 -2.15392,-1.99168 -3.13535,-3.19886c-1.13486,-1.14927 -2.06852,-2.46211 -3.00219,-3.77496c-0.8859,-1.41851 -1.7718,-2.83702 -2.4565,-4.41911c-0.73247,-1.47642 -1.26375,-3.1164 -1.68935,-4.70862c-0.42561,-1.59223 -0.59211,-3.19459 -0.75861,-4.79695c-0.16651,-1.60236 -0.12167,-3.1092 0.02882,-4.56827c0.07525,-0.72953 -0.00293,-1.40117 0.17799,-2.08294c0.13315,-0.57611 0.2084,-1.30564 0.34155,-1.88174c0.31407,-1.25788 0.53261,-2.30442 0.96249,-3.25543c0.38211,-0.84535 0.65857,-1.73845 0.94515,-2.37246c0.57317,-1.26801 0.90751,-2.00769 0.90751,-2.00769c0,0 -0.22868,0.78744 -0.59052,2.15098c-0.18091,0.68177 -0.45736,1.57489 -0.62813,2.51575c-0.19106,0.42267 -0.17078,0.94087 -0.30393,1.51697c-0.08538,0.47044 -0.11287,1.0943 -0.24603,1.6704c-0.0072,1.14207 -0.21561,2.4477 -0.21267,3.84887c0.00294,1.40116 0.00588,2.80233 0.22014,4.29903c0.1086,1.44894 0.53421,3.04115 0.90191,4.47994c0.47337,1.48656 0.94674,2.97312 1.67921,4.44953c0.68469,1.58209 1.51269,2.84716 2.29293,4.21791c0.93367,1.31285 1.76167,2.57793 2.7431,3.78511c1.85719,2.36659 3.85767,4.41617 5.68444,6.00546c1.82677,1.58929 3.3843,2.92962 4.55679,3.71412c1.12472,0.89018 1.81663,1.3302 1.81663,1.3302z" fill="#4a3369"></path><path d="M261.10395,153.57655c0,0 -3.00646,-1.23173 -7.50961,-2.24919c-1.2101,-0.41974 -2.41008,-0.58037 -3.77362,-0.94221c-1.36354,-0.36184 -2.77485,-0.618 -4.18616,-0.87417c-1.45907,-0.1505 -2.97604,-0.45443 -4.54078,-0.65269c-1.56474,-0.19826 -3.12947,-0.39652 -4.74197,-0.48912c-1.56474,-0.19827 -3.225,-0.1852 -4.73184,-0.23003c-1.6125,-0.09259 -3.06143,0.01601 -4.56827,-0.02882c-1.50683,-0.04483 -2.89786,0.2172 -4.29903,0.22014c-1.40117,0.00294 -2.63877,0.20706 -3.8286,0.30552c-1.18983,0.09846 -2.22623,0.13902 -3.20472,0.33301c-0.9785,0.19399 -1.80356,0.33008 -2.47519,0.40825c-1.34327,0.15636 -2.16833,0.29246 -2.16833,0.29246c0,0 0.76716,-0.28952 2.10028,-0.70498c0.61373,-0.23161 1.43879,-0.3677 2.35939,-0.71512c0.9785,-0.19399 2.11043,-0.44589 3.24235,-0.69778c1.2376,-0.20413 2.52296,-0.51393 3.86622,-0.67029c1.34325,-0.15637 2.73429,-0.4184 4.28888,-0.47923c0.7773,-0.03042 1.5546,-0.06083 2.3319,-0.09125c0.7773,-0.03042 1.60236,-0.1665 2.3319,-0.09125c1.66027,-0.01307 3.32053,-0.02615 4.88527,0.17211c1.71817,0.14035 3.2829,0.33863 4.84765,0.53689c1.6125,0.09259 3.08171,0.50218 4.59868,0.80612c1.51698,0.30392 2.83276,0.77142 4.1963,1.13326c1.31578,0.4675 2.67932,0.82934 3.736,1.30698c4.47567,1.64132 7.24331,3.40139 7.24331,3.40139z" fill="#4a3369"></path><path d="M234.69307,204.12203c0,0 -0.89311,-0.27644 -2.28707,-1.41557c-1.53725,-0.82214 -3.61299,-2.14219 -5.86243,-3.92254c-1.12472,-0.89018 -2.30734,-1.93377 -3.54787,-3.13081c-1.19276,-1.30271 -2.38553,-2.60541 -3.53053,-4.01378c-1.145,-1.40837 -2.19447,-3.02809 -3.24394,-4.64779c-1.04947,-1.61971 -1.89775,-3.40299 -2.74602,-5.18627c-0.84828,-1.78328 -1.49535,-3.73013 -2.08453,-5.52355c-0.54142,-1.89909 -0.97716,-3.75041 -1.30723,-5.55397c-0.22441,-1.7558 -0.44882,-3.51159 -0.56756,-5.21962c-0.11874,-1.70803 -0.07391,-3.21487 -0.02908,-4.7217c-0.00294,-1.40117 0.0998,-2.75457 0.26044,-3.95454c0.11288,-1.09429 0.22575,-2.1886 0.34876,-3.0238c0.24603,-1.67041 0.41681,-2.61128 0.41681,-2.61128c0,0 0.08831,0.93072 -0.05204,2.64889c-0.12301,0.83521 -0.08246,1.87161 -0.08966,3.01367c-0.05498,1.24774 0.10139,2.59099 0.10433,3.99217c-0.07525,0.72953 0.1086,1.44893 0.13902,2.22623c0.03043,0.7773 0.06083,1.5546 0.19692,2.37966c0.27217,1.65013 0.54435,3.30026 0.87442,5.10381c0.08831,0.93072 0.33007,1.80356 0.57183,2.67639c0.34742,0.92059 0.58918,1.79342 0.83093,2.66625c0.58918,1.79342 1.33179,3.52893 2.07439,5.26445c0.69484,1.84118 1.59088,3.5188 2.53468,5.09074c0.9438,1.57194 1.88761,3.14389 3.03261,4.55226c2.0888,2.98032 4.41642,5.4323 6.46466,7.37622c0.97129,0.94808 1.99034,1.79049 2.90373,2.58513c0.80771,0.74688 1.6632,1.3881 2.35511,1.82811c1.44172,1.03348 2.23931,1.52125 2.23931,1.52125z" fill="#4a3369"></path><path d="M278.53001,198.3584c0,0 -2.57072,0.6196 -6.33127,1.33765c-1.957,0.38797 -4.17308,0.78609 -6.49484,1.13645c-2.36953,0.45602 -4.79695,0.75861 -7.37781,1.11911c-1.2376,0.20413 -2.53311,0.25483 -3.7707,0.45896c-1.23759,0.20413 -2.42742,0.30259 -3.61725,0.40106c-2.42743,0.30259 -4.54799,0.48938 -6.51512,0.61826c-3.8286,0.30552 -6.37183,0.30125 -6.37183,0.30125c0,0 2.46505,-0.66736 6.22559,-1.38541c1.957,-0.38797 4.17308,-0.78609 6.49484,-1.13645c1.18983,-0.09847 2.42742,-0.3026 3.66502,-0.50673c1.2376,-0.20413 2.58087,-0.36049 3.81846,-0.56462c2.42743,-0.30258 5.00828,-0.66308 7.38795,-0.86001c2.42743,-0.30259 4.548,-0.48937 6.51512,-0.61826c3.8286,-0.30552 6.37183,-0.30125 6.37183,-0.30125z" fill="#4a3369"></path><path d="M274.52279,201.24215c-0.8682,-0.94178 -0.08328,-3.07769 1.7532,-4.77068c1.83647,-1.69299 4.02903,-2.30198 4.89724,-1.3602c0.8682,0.94178 0.08328,3.07768 -1.7532,4.77067c-1.83647,1.69299 -4.02903,2.30198 -4.89724,1.3602z" fill="#bdabd6"></path></g><g data-paper-data="{&quot;index&quot;:null}"><g><path d="M273.77745,170.8164c-5.31563,0 -9.62481,-4.30918 -9.62481,-9.62481c0,-5.31563 4.30918,-9.62481 9.62481,-9.62481c5.31563,0 9.62481,4.30918 9.62481,9.62481c0,5.31563 -4.30918,9.62481 -9.62481,9.62481z" fill="#a3b339"></path><path d="M273.77745,168.49717c-4.03475,0 -7.30558,-3.27082 -7.30558,-7.30558c0,-4.03475 3.27082,-7.30558 7.30558,-7.30558c4.03475,0 7.30558,3.27082 7.30558,7.30558c0,4.03475 -3.27082,7.30558 -7.30558,7.30558z" fill="#e7ffbd"></path><path d="M279.22764,161.30756c0,3.36288 -10.20462,3.59481 -11.4802,0.34788c-1.27558,-3.13096 11.4802,-5.10231 11.4802,-0.34788z" fill="#2b3021"></path><path d="M283.28632,159.56812c0,0 -0.11596,-0.46385 -0.34788,-1.27558c-0.34789,-0.81173 -0.9277,-1.85539 -1.85539,-2.89904c-0.81173,-1.04366 -2.08731,-2.20327 -3.71077,-2.78308c-0.46385,-0.11596 -0.81173,-0.23192 -1.27558,-0.34788c-0.34789,0 -0.81173,-0.11596 -1.27558,-0.11596c-0.46385,0 -0.92769,-0.11596 -1.39154,0h-0.69577l-0.69577,0.11596c-0.81174,0.11596 -1.73943,0.46385 -2.55116,0.81173c-0.92769,0.34788 -1.62346,0.92769 -2.20327,1.5075c-0.57981,0.69577 -1.15962,1.27558 -1.5075,1.97135c-0.34788,0.69577 -0.69577,1.39154 -0.92769,2.08731c-0.23193,0.69577 -0.34789,1.27558 -0.46385,1.85539c-0.11596,0.57981 -0.11596,1.04365 -0.23192,1.5075c-0.11596,0.81173 -0.11596,1.27558 -0.11596,1.27558c0,0 -0.11596,-0.46385 -0.11596,-1.27558c0,-0.34788 -0.11596,-0.92769 0,-1.5075c0,-0.57981 0.11596,-1.27558 0.34788,-1.97135c0.11596,-0.69577 0.46385,-1.39154 0.81173,-2.20327c0.34788,-0.81173 0.92769,-1.5075 1.5075,-2.20327c0.69577,-0.69577 1.39154,-1.27557 2.31923,-1.73942c0.81173,-0.46384 1.73943,-0.81173 2.78308,-0.92769l0.69577,-0.11596h0.69577c0.46385,-0.11596 1.04365,0 1.5075,0c0.57981,0 1.04365,0.11596 1.5075,0.23192c0.46385,0.11597 0.92769,0.23193 1.39154,0.46385c0.92769,0.23192 1.62346,0.81173 2.31923,1.39154c0.69577,0.5798 1.15961,1.15961 1.62346,1.73942c0.81173,1.15961 1.27558,2.31923 1.5075,3.13096c0.23192,0.81173 0.34788,1.27558 0.34788,1.27558z" fill="#687a27"></path></g><path d="M281.19899,162.5831c0,0 -0.11596,-0.34789 -0.11596,-1.27558c-0.11596,-0.69577 -0.34788,-1.62346 -0.81173,-2.78308c-0.46384,-1.04365 -1.15961,-2.31923 -2.31923,-3.13096c-0.57981,-0.46384 -1.27558,-0.69577 -1.97135,-0.92769c-0.69577,-0.23192 -1.5075,-0.23192 -2.20327,-0.23192c-0.81173,0 -1.62346,0.11596 -2.31923,0.34788c-0.69577,0.23192 -1.39154,0.57981 -1.97135,0.92769c-1.15961,0.81173 -1.97134,1.97135 -2.43519,3.015c-0.34789,1.04366 -0.57981,2.08731 -0.57981,2.78308c-0.11596,0.81174 0,1.15962 0,1.15962c0,0 -0.11596,-0.46385 -0.23192,-1.15962c0,-0.69577 0,-1.85538 0.34788,-3.015c0.34788,-1.27558 1.15961,-2.66712 2.43519,-3.59481c0.57981,-0.46384 1.39154,-0.81173 2.20327,-1.04365c0.69577,-0.23192 1.62346,-0.34788 2.43519,-0.34788c0.9277,0 1.73943,0.11596 2.55116,0.34788c0.81173,0.23193 1.62346,0.57981 2.20327,1.15962c1.27558,1.15961 1.97135,2.55115 2.31923,3.71077c0.34789,1.15962 0.46385,2.20327 0.46385,2.89904c0,0.81174 0,1.15962 0,1.15962z" fill="#687a27"></path></g><g data-paper-data="{&quot;index&quot;:null}"><path d="M248.00267,150.60594c-2.13065,-6.04778 -5.67187,-2.61516 -6.53138,-4.99295c-1.3825,-3.7632 2.95059,-2.97934 2.95059,-2.97934c-3.0867,-4.24196 -7.26471,-3.00074 -7.75634,-6.01826c-0.79435,-4.92932 6.81434,1.20227 6.81434,1.20227c-1.93681,-3.51643 -9.61314,-7.8093 -7.95761,-10.68804c1.50788,-2.7654 12.01933,7.92799 12.01933,7.92799c0,0 -4.66798,-11.96215 -2.32944,-10.0048c2.33854,1.95735 4.59045,10.94958 8.90951,18.35527" fill="#a3b339"></path><path d="M258.18168,214.80032c-7.97082,6.83242 -13.58576,-11.37131 -10.27469,-17.1288c3.31107,-5.75749 4.34217,-7.26359 5.79891,-14.09934c1.45674,-6.83576 -5.49699,-26.87077 -7.60372,-36.68917c-2.07045,-10.02492 3.54535,-12.9057 8.01949,-3.47493c3.83983,7.95217 13.86043,26.52669 15.12744,39.66973c1.267,13.14303 -3.24428,25.00334 -11.06744,31.72246z" fill="#a3b339"></path><path d="M247.51929,128.64219c0,0 0.44791,1.08567 2.0094,3.10337c1.04348,2.05797 2.45979,4.90183 4.17389,8.23182c0.40914,0.57935 0.85704,1.665 1.37754,2.33755c0.48422,0.8791 1.07978,1.85143 1.56399,2.73054c0.93211,1.96473 2.12323,3.90936 3.13041,6.17385c1.11854,2.35769 2.16201,4.41566 3.24426,6.97988c1.08224,2.56422 2.20078,4.92191 3.13537,7.59948c1.04595,2.77075 1.98052,5.44833 2.76746,8.23919c0.78694,2.79087 1.4262,5.6951 1.73388,9.03248c0.00248,0.71281 0.11632,1.51884 0.11879,2.23163c-0.03382,0.91936 -0.03135,1.63218 -0.02888,2.34497c-0.10642,1.33242 -0.21283,2.66484 -0.31924,3.99724c-0.32418,2.57162 -0.75973,5.05004 -1.34539,6.92896c-1.20763,3.96439 -2.56784,6.61648 -3.59895,8.12257c-0.55185,0.95956 -0.99481,1.29955 -1.32641,1.73275c-0.3316,0.43321 -0.47925,0.54653 -0.47925,0.54653c0,0 0.14766,-0.11333 0.3679,-0.63973c0.18394,-0.31984 0.58814,-1.16611 0.99234,-2.01236c0.84469,-1.89901 1.87084,-4.83073 2.78316,-8.56846c0.36295,-2.06534 0.72591,-4.13068 0.90244,-6.58897c0.07011,-1.12589 0.17652,-2.45832 0.13527,-3.6774c-0.00248,-0.71279 -0.04125,-1.21909 -0.04371,-1.93188c-0.03879,-0.50627 -0.15261,-1.31231 -0.15508,-2.0251c-0.3052,-2.62457 -0.98078,-5.32226 -1.69265,-7.8134c-0.82323,-2.58435 -1.64646,-5.16868 -2.61734,-7.63971c-0.82322,-2.58433 -1.94176,-4.94202 -2.91264,-7.41305c-1.08224,-2.5642 -2.08942,-4.82869 -3.09659,-7.09318c-1.04348,-2.05797 -2.05064,-4.32243 -2.98277,-6.2872c-0.4479,-1.08562 -0.93211,-1.96474 -1.41632,-2.84384c-0.59556,-0.9723 -1.04346,-2.05793 -1.41631,-2.84383c-1.64151,-3.74307 -2.87389,-6.9068 -3.7334,-9.28459c-0.85951,-2.3778 -1.27114,-3.66998 -1.27114,-3.66998z" fill="#687a27"></path><path d="M247.15553,151.79213c0,0 1.19361,2.65741 3.02153,6.79346c0.78447,2.07808 1.71906,4.75561 2.46969,7.75305c0.75064,2.99743 1.46498,6.20138 1.99537,9.72518c0.19137,1.81859 0.38274,3.63715 0.3151,5.47584c-0.03382,0.91935 -0.06765,1.83868 -0.24912,2.87134l-0.18147,1.03268l-0.32913,1.146c-0.36542,1.35253 -0.84221,2.61186 -1.28269,3.66464c-0.44047,1.05278 -0.88098,2.10558 -1.39652,2.85863c-1.95083,3.10541 -3.46367,4.44521 -3.46367,4.44521c0,0 0.3679,-0.63974 0.80838,-1.69252c0.44048,-1.0528 1.10122,-2.63198 1.79824,-4.41769c0.32914,-1.14598 0.73333,-1.99225 1.06246,-3.13825c0.44047,-1.05278 0.76962,-2.19878 0.98738,-3.43798l0.14519,-0.82614l0.18148,-1.03268c0.0726,-0.41306 0.07012,-1.12589 0.06764,-1.83868c-0.00494,-1.42562 -0.12125,-2.94443 -0.34892,-4.55648c-0.49162,-3.01754 -1.09462,-6.12828 -1.73389,-9.03249c-0.63929,-2.90419 -1.31485,-5.60185 -1.91536,-7.99979c-1.20103,-4.79585 -1.95166,-7.79329 -1.95166,-7.79329z" fill="#687a27"></path><path d="M247.5416,135.05763c0,0 -0.8521,-0.23935 -1.70421,-0.47875c-1.18618,-0.51904 -2.67013,-1.52419 -4.11779,-2.73588c-0.66816,-0.55926 -1.44767,-1.21172 -2.11582,-1.77095c-0.33408,-0.27962 -0.66816,-0.55925 -1.00223,-0.83888c-0.33407,-0.27961 -0.66814,-0.55923 -0.89087,-0.74565c-0.37036,-0.0731 -0.59309,-0.25951 -0.8158,-0.44592c-0.25903,0.02011 -0.48173,-0.16629 -0.59309,-0.25951c-0.33408,-0.27963 -0.5931,-0.2595 -0.5931,-0.2595c0,0 0.14766,-0.11333 0.47925,-0.54653c0.18396,-0.31986 0.33162,-0.43319 0.59062,-0.4533c0.18395,-0.31985 0.55433,-0.24679 0.81333,-0.26691c0.66569,-0.15357 1.40642,-0.00737 2.11087,0.34534c0.70444,0.35271 1.52025,0.79862 2.29976,1.45108c1.48396,1.00517 2.97039,2.72316 3.9751,4.27482c1.0047,1.55169 1.56397,2.73051 1.56397,2.73051z" fill="#687a27"></path><path d="M236.51788,136.72871c0.14765,-0.1133 -0.07506,-0.29972 0.22024,-0.52637c-0.07506,-0.29975 -0.00247,-0.71282 0.07012,-1.12589c0.0726,-0.41306 0.25654,-0.73293 0.44048,-1.05278c0.14767,-0.11332 0.33162,-0.43319 0.59062,-0.4533c0.25901,-0.02011 0.51802,-0.04022 0.77703,-0.06034c0.40667,-0.13346 0.99976,0.12605 1.48149,0.29233c0.48173,0.16629 0.92717,0.53914 1.3726,0.91197c0.40914,0.57937 0.85458,0.9522 1.15236,1.43835c0.59555,0.97233 0.96841,1.75822 0.96841,1.75822c0,0 -0.55432,0.24679 -1.29506,0.1006c-0.37038,-0.07309 -0.74075,-0.1462 -1.22248,-0.31248c-0.22271,-0.18641 -0.48172,-0.16628 -0.70444,-0.35271c-0.22272,-0.18639 -0.48173,-0.16629 -0.70444,-0.35271c-0.48174,-0.16631 -0.96347,-0.33261 -1.29755,-0.61223c-0.25903,0.02011 -0.48173,-0.16629 -0.59309,-0.25951c-0.25902,0.02012 -0.37038,-0.07308 -0.48174,-0.16631c-0.11136,-0.09321 -0.259,0.02014 -0.37036,-0.07309c-0.14766,0.11333 -0.25902,0.02011 -0.29531,0.22664c-0.07259,0.41308 -0.10888,0.61961 -0.10888,0.61961z" fill="#687a27"></path><path d="M241.32363,145.72632c0,0 -0.11136,-0.09321 -0.25901,0.02011c-0.22272,-0.18639 -0.44545,-0.37283 -0.55928,-1.17883c-0.07506,-0.29975 -0.11381,-0.80603 -0.04124,-1.21909c0.07259,-0.41307 0.14517,-0.82616 0.32913,-1.146c0.14765,-0.11334 0.3316,-0.43321 0.47925,-0.54652c0.25903,-0.02011 0.40668,-0.13344 0.55432,-0.24676c0.70198,-0.36011 1.37013,0.19916 1.81557,0.57198c0.44544,0.37282 0.70692,1.0655 0.70692,1.0655c0,0 -0.22025,0.52641 -0.66321,0.86639c-0.44296,0.33998 -0.88593,0.67996 -1.2926,0.8134l-0.25901,0.02011c-0.14765,0.11331 -0.14765,0.11334 -0.25901,0.02011l-0.11135,-0.0932c0.03629,-0.20653 -0.11135,-0.0932 -0.11135,-0.0932c-0.14765,0.11334 -0.22026,0.52638 -0.25654,0.73292c-0.03629,0.20653 -0.07259,0.41307 -0.07259,0.41307z" fill="#687a27"></path></g></g></g></svg>