<svg version="1.1" xmlns="http://www.w3.org/2000/svg" xmlns:xlink="http://www.w3.org/1999/xlink" width="195.73131" height="128.99188" viewBox="0,0,195.73131,128.99188"><g transform="translate(-133.37151,-131.92142)"><g data-paper-data="{&quot;isPaintingLayer&quot;:true}" fill-rule="nonzero" stroke="none" stroke-width="1" stroke-linecap="butt" stroke-linejoin="miter" stroke-miterlimit="10" stroke-dasharray="" stroke-dashoffset="0" style="mix-blend-mode: normal"><g data-paper-data="{&quot;index&quot;:null}"><path d="M152.62739,230.21092c-5.65834,0.24709 -7.36844,4.44733 -8.68259,4.74823c-3.00348,0.91901 0.94547,-5.01202 0.94547,-5.01202c0,0 -4.45114,4.73538 -6.80466,4.78083c-2.35353,0.04547 3.67227,-6.99333 3.67227,-6.99333c0,0 -4.64164,2.46602 -7.2965,1.79408c-2.65486,-0.67193 5.70373,-4.17408 5.70373,-4.17408c-11.09116,0.62755 -5.01032,-2.2451 -1.85522,-1.99611c3.1551,0.249 16.686,-1.63109 19.54171,-0.48088" fill="#a3b339"></path><path d="M202.97969,209.67631c-1.14055,9.38963 -7.25255,17.63551 -16.7879,21.16039c-9.53535,3.52487 -26.63926,1.1346 -33.76336,0.51457c-8.41362,-0.664 -8.92161,-6.71556 -1.16179,-8.41528c7.63474,-1.59398 24.38423,-2.46862 28.41094,-6.19704c4.02672,-3.72842 4.60085,-5.18597 7.07365,-10.19306c2.34774,-4.90136 17.38135,-6.43166 16.22847,3.13041z" fill="#a3b339"></path><path d="M145.29589,234.14095c0,0 0.0123,-0.17242 0.27475,-0.55635c0.26245,-0.3839 0.64995,-0.87354 1.28761,-1.57467c0.37518,-0.3172 0.75039,-0.63442 1.3634,-0.99066c0.61302,-0.35625 1.45152,-0.57909 2.15266,-0.52376c0.82619,-0.05039 1.40227,0.11066 2.1034,0.16601c0.57608,0.16107 1.16445,0.14971 1.97835,0.27173c2.9173,0.28804 6.31022,0.498 9.94097,0.66892c1.87791,0.0326 3.75579,0.06519 5.74645,0.16449c1.87791,0.0326 3.88087,-0.04054 5.88384,-0.11367c2.00296,-0.07314 4.01824,-0.31871 6.03353,-0.5643c0.95126,-0.15614 1.90252,-0.31228 2.86611,-0.64084c0.47562,-0.07806 0.96357,-0.32858 1.32646,-0.47335c0.48793,-0.2505 0.96357,-0.32858 1.45152,-0.57909c1.57659,-0.68482 3.29055,-1.6478 4.65396,-2.63846c1.36342,-0.99066 2.61403,-2.04801 3.62689,-3.06634c2.02568,-2.03665 3.33787,-3.95618 4.25028,-5.21364c0.79964,-1.32416 1.08669,-2.05293 1.08669,-2.05293c0,0 -0.01232,0.17244 -0.16202,0.62305c-0.02464,0.34486 -0.29936,0.90123 -0.58645,1.63001c-0.68689,1.39086 -1.64854,3.33807 -3.57376,5.61384c-0.90008,1.08501 -2.16306,2.31481 -3.53876,3.4779c-1.48846,1.0964 -3.10199,2.29852 -5.16653,3.23384c-0.48793,0.2505 -0.85082,0.39529 -1.45152,0.57909c-0.48793,0.2505 -1.08863,0.43432 -1.68933,0.61811c-1.20139,0.36761 -2.15266,0.52375 -3.22897,0.78562c-2.14033,0.35131 -4.26838,0.53019 -6.39642,0.70906c-2.12804,0.17887 -4.11869,0.07959 -6.12165,0.15271c-1.99065,-0.09931 -3.86855,-0.1319 -5.85922,-0.2312c-3.7435,-0.23763 -7.12409,-0.62004 -9.91632,-1.0138c-0.70113,-0.05534 -1.51503,-0.17736 -2.09109,-0.33844c-0.57608,-0.16107 -1.15213,-0.32214 -1.61546,-0.4165c-0.92663,-0.18874 -1.90252,0.31228 -2.64059,0.77426c-0.73807,0.46198 -1.23833,0.88491 -1.50079,1.26883c-0.2378,0.03904 -0.48793,0.2505 -0.48793,0.2505z" fill="#687a27"></path><path d="M153.53204,222.47895c0,0 2.61599,-0.42939 6.42103,-1.05393c1.90252,-0.31228 4.16794,-0.76932 6.5461,-1.15967c2.26541,-0.45705 4.8937,-1.05886 7.2965,-1.79408c1.20139,-0.36761 2.40279,-0.73523 3.37869,-1.23624c1.08864,-0.43432 1.82672,-0.89629 2.71449,-1.80887c0.75039,-0.63441 1.51309,-1.44127 2.15072,-2.14239c0.63764,-0.70111 1.16253,-1.46893 1.67509,-2.06431c1.03748,-1.3632 1.8248,-2.51491 2.23693,-3.34943c0.5249,-0.76781 0.79964,-1.32416 0.79964,-1.32416c0,0 -0.13545,1.89681 -1.6343,4.78426c-0.28707,0.72878 -0.81196,1.4966 -1.46192,2.37014c-0.64995,0.87354 -1.17485,1.64137 -2.18769,2.65969c-0.25013,0.21146 -0.50024,0.42294 -0.75038,0.6344l-0.37518,0.3172c-0.25013,0.21146 -0.25013,0.21147 -0.50026,0.42295c-0.50026,0.42295 -1.22601,0.71248 -1.83903,1.06872c-1.33877,0.64579 -2.66523,1.11912 -3.97938,1.42004c-2.6406,0.77425 -5.25658,1.20364 -7.74748,1.52728c-1.18909,0.19518 -2.36584,0.2179 -3.55493,0.41307c-1.06404,0.08944 -2.12803,0.17888 -3.06699,0.16258c-3.78043,0.27967 -6.12164,0.15271 -6.12164,0.15271z" fill="#687a27"></path><path d="M133.75445,224.61749c0,0 0.11276,0.06669 0.2255,0.1334c0.11276,0.06669 0.35056,0.02766 0.70114,0.05533c0.47562,-0.07806 1.30185,-0.12847 2.12804,-0.17887c0.82619,-0.05039 1.64008,0.07162 2.20384,0.40513c0.57608,0.16107 1.02706,0.42788 1.02706,0.42788c0,0 -0.50024,0.42294 -1.33876,0.64579c-0.72575,0.28955 -1.80208,0.5514 -2.74104,0.53511c-0.58838,0.01137 -1.0517,-0.083 -1.38996,-0.2831c-0.46331,-0.09436 -0.80157,-0.29447 -1.01476,-0.6003c-0.21319,-0.30583 -0.18857,-0.65071 -0.17624,-0.82315c0.13738,-0.27816 0.37518,-0.3172 0.37518,-0.3172z" fill="#687a27"></path><path d="M134.46138,229.52872c0,0 0.61302,-0.35625 1.21369,-0.54004c0.72575,-0.28955 1.56428,-0.51238 2.40279,-0.73522c0.83851,-0.22285 1.55196,-0.33993 2.37816,-0.39035c0.35056,0.02766 0.71345,-0.1171 0.95127,-0.15614c0.2378,-0.03904 0.35056,0.02766 0.35056,0.02766c0,0 -0.12507,0.10574 -0.13738,0.27816c-0.01231,0.17244 -0.3875,0.48964 -0.63763,0.70111c-0.37518,0.3172 -0.62531,0.52867 -1.11327,0.77919c-0.48793,0.2505 -1.08863,0.43431 -1.56426,0.51237c-1.07633,0.26188 -2.12804,0.17887 -2.81685,-0.0489c-0.81389,-0.12203 -1.02706,-0.42788 -1.02706,-0.42788z" fill="#687a27"></path><path d="M137.96053,234.8337c0,0 0.12505,-0.10574 0.37518,-0.3172c0.25013,-0.21146 0.50026,-0.42295 0.75039,-0.63441c0.62533,-0.52868 1.13789,-1.12405 2.00104,-1.69176c0.37518,-0.3172 0.86315,-0.56771 1.11327,-0.77919c0.48793,-0.2505 0.73807,-0.46198 1.226,-0.71248c0.73807,-0.46198 1.33876,-0.64578 1.33876,-0.64578c0,0 -0.03694,0.5173 -0.19895,1.14035c-0.28707,0.72878 -0.9247,1.42989 -1.80016,2.17005c-0.37518,0.3172 -0.9882,0.67345 -1.47614,0.92395c-0.48793,0.2505 -1.08864,0.43432 -1.56428,0.51238c-0.47562,0.07806 -0.82619,0.05039 -1.17678,0.02273c-0.47562,0.07806 -0.58838,0.01137 -0.58838,0.01137z" fill="#687a27"></path></g><g data-paper-data="{&quot;index&quot;:null}"><path d="M204.15647,248.46621c-5.22526,1.95605 -8.84162,5.56762 -11.42736,5.60229c-2.58576,0.03466 3.84695,-4.10028 3.84695,-4.10028c0,0 -11.6526,1.01448 -12.69157,-1.08912c-1.11365,-2.1986 7.01044,-1.05392 9.20905,-2.16755c0,0 -8.24597,-0.12664 -6.60419,-2.3396c0.93619,-1.35082 4.68995,1.0778 8.32064,0.22165c0,0 -4.30998,-1.37651 -2.33542,-2.77513c1.2146,-0.80118 4.01843,2.37426 7.03793,0.15413" fill="#a3b339"></path><path d="M207.35812,218.12847c-2.1526,-4.30222 5.90812,-11.25413 12.32353,-4.46236c6.34073,6.69679 8.65048,14.7181 5.33346,20.86105c-3.31701,6.14296 -15.91179,11.43337 -20.85865,13.93907c-5.76117,2.83849 -10.63515,-1.01505 -6.95788,-5.13564c3.67727,-4.1206 13.49572,-11.3784 13.30452,-15.53186c-0.19119,-4.15345 -0.99236,-5.36804 -3.14498,-9.67026z" fill="#a3b339"></path><path d="M197.68966,252.16685c-1.62865,0.66556 -2.27329,1.01865 -2.27329,1.01865c0,0 0.66497,-0.52276 1.8049,-1.41895c1.21461,-0.80121 2.90418,-1.97577 5.02811,-3.18441c0.54965,-0.2784 1.09932,-0.55682 1.74396,-0.90991c0.54965,-0.27841 1.0993,-0.55682 1.81863,-0.81492c1.1943,-0.63151 2.48358,-1.33768 3.84756,-1.94888c1.28927,-0.70618 2.67356,-1.48705 4.05785,-2.26791c1.38428,-0.78087 2.69389,-1.65673 4.00349,-2.53258c1.3096,-0.87586 2.54453,-1.84672 3.77945,-2.81756c1.06525,-0.99116 2.15082,-2.152 2.87671,-3.1838c0.21031,-0.31904 0.34592,-0.73308 0.46123,-0.97743c0.1153,-0.24436 0.25092,-0.6584 0.36623,-0.90275c0.25094,-0.6584 0.40685,-1.2421 0.48811,-1.92079c0.23719,-1.26241 0.30469,-2.54512 0.18222,-3.67848c-0.14997,-2.3414 -0.7749,-4.30939 -1.3114,-5.57837c-0.2581,-0.71932 -0.46182,-1.17397 -0.68588,-1.45896c-0.12905,-0.35966 -0.27841,-0.54964 -0.27841,-0.54964c0,0 0.14934,0.18999 0.3734,0.47498c0.22406,0.28499 0.59745,0.75996 0.95054,1.4046c0.70617,1.28929 1.59579,3.20291 2.0851,5.58494c0.19715,1.22835 0.374,2.62637 0.1165,4.05846c-0.08124,0.6787 -0.25751,1.43207 -0.43374,2.18546c-0.13563,0.41403 -0.27125,0.82807 -0.31187,1.16742c-0.21031,0.31904 -0.25093,0.65838 -0.46123,0.97742c-0.78683,1.54081 -1.96738,2.77634 -3.12762,3.84219c-1.25523,1.14052 -2.49015,2.11138 -3.89475,3.06192c-1.40458,0.95055 -2.78887,1.73142 -4.17316,2.51227c-1.38428,0.78087 -2.84323,1.46674 -4.13253,2.17292c-1.36397,0.6112 -2.72794,1.22239 -3.99692,1.75889c-0.62433,0.18342 -1.26897,0.53653 -1.89331,0.71993c-0.62432,0.1834 -1.17399,0.46183 -1.72364,0.74023c-2.17829,0.94395 -4.0919,1.83356 -5.28621,2.46507z" fill="#687a27"></path><path d="M202.80321,238.92441c-2.33421,1.52768 -3.96286,2.19323 -3.96286,2.19323c0,0 1.27555,-1.3102 3.04638,-3.16348c0.97026,-0.91649 1.96082,-2.00264 3.14137,-3.23817c1.08556,-1.16083 2.19143,-2.49138 3.05295,-3.93718c0.42061,-0.63807 0.86152,-1.44582 1.11245,-2.10421c0.1356,-0.41402 0.17624,-0.75339 0.29155,-0.99774l0.08125,-0.6787l-0.01375,-0.60403c-0.08841,-0.69901 -0.15655,-1.5677 -0.33995,-2.19204c-0.08842,-0.699 -0.34654,-1.41833 -0.52994,-2.04266c-0.36683,-1.24866 -0.75398,-2.32764 -1.01208,-3.04697c-0.25808,-0.71932 -0.46182,-1.17398 -0.46182,-1.17398c0,0 1.21522,1.35024 2.47821,3.73883c0.35309,0.64463 0.70619,1.28929 0.8693,2.0833c0.25809,0.71934 0.49589,1.60834 0.56399,2.47702l0.08842,0.69903l-0.00659,0.77369c0.01374,0.60403 -0.12188,1.01805 -0.18282,1.52707c-0.29154,0.99774 -0.73246,1.8055 -1.17336,2.61324c-1.05151,1.59518 -2.25237,3.00037 -3.5076,4.14091c-1.25524,1.14052 -2.49016,2.11138 -3.5351,2.93287z" fill="#687a27"></path><path d="M194.39056,249.53449c1.2624,0.23719 2.09046,0.50842 2.09046,0.50842c0,0 -0.73963,0.42777 -1.9883,0.79461c-1.24867,0.36684 -2.81637,0.52336 -4.53343,0.4899c-0.77368,-0.00656 -1.62207,-0.10814 -2.47044,-0.2097c-0.75339,-0.17623 -1.50676,-0.35251 -2.07015,-0.6781c-0.31902,-0.21029 -0.5634,-0.32559 -0.80775,-0.4409c-0.24435,-0.11531 -0.39373,-0.3053 -0.54309,-0.49528c-0.22404,-0.28499 -0.3734,-0.47498 -0.3734,-0.47498c0,0 0.24436,0.11533 0.58371,0.15594c0.16967,0.02031 0.33936,0.04064 0.67871,0.08126c0.16967,0.02033 0.50901,0.06094 0.77369,0.00658c0.33934,0.04064 0.60402,-0.01372 0.94337,0.02689c0.33934,0.04062 0.67869,0.08124 1.03836,-0.0478c0.77369,0.00657 1.54739,0.01313 2.32108,0.01971c1.5474,0.01315 3.16947,0.12127 4.35719,0.26346z" fill="#687a27"></path><path d="M186.39436,244.44665c-0.095,0.07469 0,0 0,0c0,0 -0.02033,0.16968 0.05436,0.26468c0.07467,0.09499 0.14936,0.18999 0.14936,0.18999c0.07467,0.09498 0.24435,0.11531 0.33935,0.04062c0.16968,0.02033 0.33934,0.04064 0.50903,0.06095c0.16968,0.02033 0.33934,0.04064 0.50903,0.06095c0.33936,0.04062 0.84837,0.10155 1.3574,0.16249c0.16967,0.02031 0.50902,0.06095 0.67871,0.08125c0.16967,0.02031 0.41402,0.13562 0.6787,0.08126c0.41402,0.13564 0.82804,0.27125 1.24208,0.40686c0.65839,0.25095 1.22178,0.57654 1.22178,0.57654c0,0 -0.54964,0.2784 -1.26898,0.53651c-0.35966,0.12905 -0.79399,0.16311 -1.32333,0.27184c-0.43436,0.03405 -0.94338,-0.02688 -1.4524,-0.08782c-0.50903,-0.06095 -0.99773,-0.29156 -1.48646,-0.52218c-0.24436,-0.1153 -0.48872,-0.2306 -0.63808,-0.42059c-0.24435,-0.11531 -0.39373,-0.3053 -0.54309,-0.49528c-0.14936,-0.18999 -0.20373,-0.45465 -0.2581,-0.71933c-0.05437,-0.26467 -0.03406,-0.43436 0.23062,-0.48872z" fill="#687a27"></path><path d="M192.11483,241.94757c0.18999,-0.14936 0.26468,-0.05436 0.26468,-0.05436c0,0 -0.02031,0.16966 -0.04062,0.33935c-0.02031,0.16967 -0.04062,0.33935 0.10874,0.52934c0.07469,0.095 0.07469,0.095 0.16969,0.02031c0,0 0.095,-0.07469 0.16969,0.02031c0.07466,0.095 0.07466,0.095 0.24435,0.11531l0.24435,0.11531c0.31905,0.21031 0.78744,0.61059 1.08617,0.99057c0.29874,0.37996 0.42777,0.73963 0.42777,0.73963c0,0 -0.45466,0.20374 -0.88901,0.23778c-0.52934,0.10873 -1.20803,0.02748 -1.75111,-0.4678c-0.07467,-0.09499 -0.31904,-0.2103 -0.4684,-0.40029c-0.07466,-0.095 -0.2987,-0.37998 -0.37339,-0.47498c-0.05437,-0.26467 -0.20373,-0.45467 -0.08842,-0.69902c-0.05437,-0.26467 0.06093,-0.50903 0.25092,-0.65839c0.21028,-0.31905 0.47495,-0.3734 0.64464,-0.3531z" fill="#687a27"></path></g><g data-paper-data="{&quot;index&quot;:null}"><path d="M171.77058,182.9883c-5.19399,0.84849 -10.1372,-2.41675 -11.04095,-7.29315c-0.90375,-4.87639 2.57416,-9.51733 7.76816,-10.36581c5.19399,-0.84849 10.1372,2.41675 11.04095,7.29315c0.90375,4.87639 -2.57416,9.51733 -7.76816,10.36581z" fill="#a3b339"></path><path d="M161.34079,170.97882c-0.10215,0.39762 -0.35934,0.72779 -0.35934,0.72779c0,0 0.10215,-0.39763 0.23459,-1.04735c0.13243,-0.64972 0.4086,-1.59054 1.06672,-2.54198c0.32904,-0.47573 0.77157,-0.99048 1.21408,-1.50524c0.59756,-0.44728 1.19511,-0.89457 1.83425,-1.23534c0.75261,-0.37982 1.43333,-0.61407 2.26909,-0.78085c0.83577,-0.16679 1.55807,-0.29453 2.47701,-0.24827c0.38195,-0.01061 0.76389,-0.02123 1.18743,0.07469c0.42353,0.0959 0.96051,0.15276 1.38405,0.24867c0.42354,0.0959 0.84706,0.19181 1.19873,0.43327c0.35167,0.24145 0.77519,0.33738 1.08527,0.47232c1.32348,0.75283 2.38978,1.8358 3.03254,2.82288c0.64276,0.98708 0.97544,1.83921 1.22495,2.47831c0.24951,0.63909 0.26081,0.99769 0.26081,0.99769c0,0 -0.23821,-0.2805 -0.60118,-0.88056c-0.32138,-0.49354 -0.99442,-1.22853 -1.78092,-1.9245c-0.39325,-0.34798 -0.82808,-0.80246 -1.33479,-1.11141c-0.5067,-0.30895 -1.0134,-0.61788 -1.63356,-0.88778c-0.31007,-0.13494 -0.62015,-0.2699 -0.93023,-0.40484c-0.31007,-0.13494 -0.69202,-0.12434 -1.0021,-0.25928l-0.96052,-0.15277c-0.38195,0.01061 -0.76389,0.02122 -1.14584,0.03183c-0.65043,-0.01782 -1.37276,0.10991 -2.09506,0.23765c-0.72232,0.12773 -1.28959,0.32295 -1.97031,0.5572c-0.56726,0.19521 -1.20641,0.53598 -1.73209,0.83771c-0.52568,0.30172 -0.89632,0.67091 -1.26697,1.04013c-0.74129,0.73842 -1.21409,1.50525 -1.6566,2.02001z" fill="#687a27"></path></g><g data-paper-data="{&quot;index&quot;:null}"><path d="M206.85624,174.16475c0,0 -13.31034,-8.71053 -32.27206,-3.87687c0,0 11.05644,-22.77465 25.81804,-38.36645c0,0 7.1695,35.83492 6.45401,42.24332z" fill="#6d4b9b"></path><path d="M206.58091,167.85564c0.30964,3.75991 0.2753,6.30909 0.2753,6.30909c0,0 -0.57451,-2.46049 -1.26611,-6.20978c-0.36658,-1.92789 -0.81634,-4.06883 -1.08078,-6.39438c-0.18896,-1.14326 -0.41948,-2.39301 -0.65001,-3.64278c-0.23053,-1.24976 -0.34761,-2.53856 -0.57814,-3.78833c-0.23053,-1.24976 -0.34761,-2.53856 -0.57814,-3.78833c-0.23053,-1.24975 -0.30602,-2.43204 -0.49497,-3.5753c-0.26444,-2.32554 -0.60075,-4.50552 -0.85388,-6.47247c-0.21155,-1.86043 -0.33993,-3.50782 -0.48729,-4.54456c-0.0339,-1.07578 -0.16996,-1.75392 -0.16996,-1.75392c0,0 0.84302,2.4889 1.76152,6.16012c0.48005,1.88887 0.92981,4.0298 1.34928,6.42281c0.53294,2.35396 0.88054,4.89254 1.22815,7.43111c0.34761,2.53856 0.69521,5.07713 0.95965,7.40268c0.26445,2.32554 0.48729,4.54456 0.58539,6.44403z" fill="#4a3369"></path><path d="M187.26926,157.94799c0,0 -2.13301,1.45898 -6.25894,2.758c0,0 1.36188,-4.09346 2.57596,-5.5987c0,0 -0.15505,-0.06748 -0.39326,-0.34799c0.87373,-1.38811 1.81932,-2.92179 2.87837,-4.49451c0.15505,0.06748 0.19662,0.17399 0.35167,0.24146c0,0 2.85939,-3.88383 4.0016,-5.24351c0,0 1.9961,5.11279 1.34928,6.42281c0,0 5.86526,0.51897 8.00553,1.71569c0,0 -5.38927,3.66699 -7.73384,3.26555c0,0 1.28147,4.27126 0.41905,6.01797c0,0 -4.49976,-3.28459 -5.19541,-4.73677z" fill="#e0c448"></path><path d="M178.52158,164.22068c-2.29211,3.68863 -3.93741,6.06722 -3.93741,6.06722c0,0 1.02513,-2.64848 2.96559,-6.57858c0.93428,-1.89226 2.08418,-4.2212 3.50257,-6.52171c0.68841,-1.20351 1.37681,-2.40703 2.06521,-3.61054c0.80185,-1.24256 1.49025,-2.44607 2.29211,-3.68863c1.60371,-2.48511 3.249,-4.86369 4.82244,-7.09673c0.84344,-1.13604 1.61501,-2.12654 2.38659,-3.11701c0.77158,-0.99048 1.58474,-1.87445 2.28444,-2.71936c0.69971,-0.84493 1.44101,-1.58333 2.11042,-2.17617c0.66942,-0.59285 1.2254,-1.14665 1.70949,-1.5549c1.08165,-0.85553 1.6792,-1.30283 1.6792,-1.30283c0,0 -0.4425,0.51476 -1.32754,1.54428c-0.44251,0.51476 -0.84345,1.13603 -1.47128,1.8354c-0.51438,0.6603 -1.10063,1.46619 -1.75875,2.41763c-1.24437,1.7573 -2.74593,3.84479 -4.20591,6.03879c-0.72999,1.097 -1.53185,2.33955 -2.26184,3.43654c-0.80184,1.24256 -1.49024,2.44606 -2.33369,3.5821c-1.60371,2.48511 -3.09396,4.93118 -4.55394,7.12517c-1.41839,2.30051 -2.76491,4.45546 -3.96769,6.3193z" fill="#4a3369"></path></g><path d="M240.28645,201.44597c-5.71558,12.72048 -32.69628,33.60463 -32.69628,33.60463c-4.3637,-2.60645 -17.01505,-19.51833 -17.01505,-19.51833c-0.18531,0.1846 -8.79927,-5.06735 -8.79927,-5.06735c0,0 17.87222,-33.33635 36.89045,-36.37706c0,0 4.28372,7.34622 1.16715,11.56022z" data-paper-data="{&quot;index&quot;:null}" fill="#4a3369"></path><g data-paper-data="{&quot;index&quot;:null}"><g fill="#a3b339"><path d="M309.64615,229.48962c-6.15415,-4.32902 -16.6984,-5.43129 -13.18192,-12.7809c3.66998,-7.94329 17.24215,-0.60141 22.78232,6.10238c5.52303,6.59147 -3.46341,10.89525 -9.6004,6.67852z"></path><path d="M316.61302,219.15429c2.23876,0.27174 12.85448,7.43847 12.48014,10.58322c-0.37433,3.14472 -5.17926,-2.74115 -6.3064,-1.32878c-1.12713,1.41237 3.47327,8.35721 2.15837,10.13867c-1.31492,1.78146 -3.95091,-6.68844 -3.95091,-6.68844c0,0 2.00489,10.73233 -0.35308,11.27889c-2.37509,0.43426 -2.07262,-9.57716 -2.07262,-9.57716c0,0 -1.37979,8.55191 -3.73775,9.09847c-2.37511,0.43426 -0.65196,-5.06952 0.61151,-7.18786c1.26347,-2.11834 -2.56575,-4.81196 -5.81327,-6.09399"></path></g><path d="M295.43669,212.37736c12.62748,-2.04324 19.68789,3.42447 7.3364,10.47325c-15.05072,8.5581 -29.8839,8.14764 -33.3735,1.28251c-2.80539,-5.58194 13.27288,-9.8087 26.0371,-11.75575z" fill="#a3b339"></path><path d="M253.31434,214.72274c-11.33874,-17.49858 4.35943,-29.8112 12.46001,-28.72389c8.10058,1.08731 26.8435,27.90394 21.92759,38.88007c-5.05226,11.68211 -27.06793,1.00693 -34.38759,-10.1562z" fill="#a3b339"></path><path d="M249.91178,210.82566c-0.29067,-0.3047 -0.29067,-0.3047 -0.29067,-0.3047c0.03429,0.22459 0.17105,0.32079 0.20534,0.54539c0.29067,0.30468 0.61561,0.834 1.1798,1.33109c1.0259,1.12259 2.73558,2.7262 4.71879,4.5222c1.98319,1.796 4.47914,3.7522 7.33393,5.66012c1.36759,0.96198 2.85478,1.90791 4.44445,2.72542c1.58964,0.8175 3.17931,1.63503 4.85431,2.21184c1.67497,0.57682 3.33281,1.04134 5.05883,1.15287c0.87159,0.11191 1.58926,0.01533 2.54615,-0.11345c0.83729,-0.11267 1.79419,-0.24146 2.63148,-0.35414c1.67456,-0.22537 3.34915,-0.45075 4.90411,-0.66001c1.55495,-0.20928 2.97314,-0.51473 4.39135,-0.82021c1.29859,-0.28937 2.59718,-0.57875 3.65655,-0.83593c1.05937,-0.25718 1.98198,-0.61056 2.80212,-0.83554c0.68338,-0.32118 1.3839,-0.53008 1.7256,-0.69067c0.34168,-0.1606 0.56376,-0.30509 0.56376,-0.30509c0,0 -0.63194,0.65809 -2.10118,1.42885c-0.66623,0.43348 -1.58885,0.78685 -2.61392,1.26863c-1.04223,0.36949 -2.30651,0.88345 -3.58796,1.28513c-2.68249,0.81945 -5.87774,1.47867 -9.32935,2.0578c-0.83729,0.11267 -1.79419,0.24146 -2.63148,0.35414c-0.95691,0.12878 -1.93096,0.14527 -2.905,0.16175c-1.98237,-0.19163 -3.87945,-0.62395 -5.57157,-1.31307c-1.81173,-0.67303 -3.41854,-1.60284 -5.02537,-2.53266c-1.60682,-0.92981 -3.11115,-1.988 -4.47875,-2.95001c-2.75231,-2.0363 -5.16294,-4.23321 -7.04368,-6.1576c-1.88073,-1.92438 -3.36835,-3.67249 -4.29178,-4.92349c-0.46171,-0.6255 -0.78667,-1.15479 -0.95772,-1.47559c-0.15391,-0.20849 -0.17106,-0.3208 -0.18821,-0.4331z" fill="#687a27"></path><path d="M293.76213,212.60272c-3.69084,0.61133 -6.1684,1.17399 -6.1684,1.17399c0,0 0.58092,-0.19278 1.62313,-0.56226c1.04221,-0.36948 2.56288,-0.80334 4.45952,-1.1732c1.89666,-0.36987 4.03253,-0.77193 6.57868,-0.88538c2.42654,-0.09736 5.14373,0.10998 7.62213,1.15171c0.6495,0.25641 1.19653,0.64121 1.72642,0.91371c0.54703,0.38481 1.07691,0.65731 1.50434,1.05822c1.07692,0.65731 2.03423,1.33071 2.99154,2.00412c1.89747,1.2345 3.67533,2.4851 5.29929,3.52722c1.50435,1.05822 2.75233,2.03632 3.57287,2.61353c0.41027,0.2886 0.82056,0.57721 0.97446,0.7857c0.13675,0.09619 0.27352,0.1924 0.27352,0.1924l-0.01715,-0.11231c0,0 0.11962,-0.0161 0.01715,0.11231c-0.11961,0.0161 -0.25636,-0.0801 -0.37599,-0.064c-0.25637,-0.0801 -0.64949,-0.2564 -1.17938,-0.52891c-1.04262,-0.43269 -2.49553,-1.15401 -4.0852,-1.97152c-1.60682,-0.92981 -3.58961,-1.92362 -5.50423,-3.27043c-0.9573,-0.6734 -2.01708,-1.21841 -2.99154,-2.00411c-0.54703,-0.38481 -0.95731,-0.6734 -1.50434,-1.05822c-0.54704,-0.3848 -0.95731,-0.67339 -1.47006,-0.83361c-2.10241,-0.97771 -4.5975,-1.32955 -6.9216,-1.36059c-2.32408,-0.03103 -4.49424,0.14642 -6.42518,0.29169z" fill="#687a27"></path><path d="M322.8382,228.74566c-0.15392,-0.2085 -0.06859,-0.44919 -0.06859,-0.44919c0,0 0.0343,0.2246 0.1882,0.4331c0.15391,0.20849 0.34211,0.64159 0.53031,1.07468c0.18819,0.4331 0.51314,0.96241 0.8381,1.49169c0.32495,0.5293 0.54744,1.18699 0.88955,1.82858c0.56461,1.2993 0.77035,2.64686 0.70258,3.80205c-0.03386,0.5776 -0.20452,1.05898 -0.40945,1.31577c-0.20493,0.2568 -0.44416,0.289 -0.44416,0.289c0,0 0,0 0.10247,-0.12841c-0.01715,-0.1123 0.08532,-0.24069 0.06817,-0.353c-0.03428,-0.2246 -0.10287,-0.67379 -0.29107,-1.1069c-0.3764,-0.8662 -0.92384,-2.05317 -1.35168,-3.25628c-0.2225,-0.65768 -0.42784,-1.20309 -0.65033,-1.86078c-0.22249,-0.65768 -0.30821,-1.21918 -0.27433,-1.79677c-0.08573,-0.56149 -0.03469,-1.02678 0.17023,-1.28358z" fill="#687a27"></path><path d="M321.01219,233.57559c-0.03471,-1.02678 0.10165,-1.73276 0.10165,-1.73276c0,0 0.46171,0.6255 0.87239,1.71629c0.20535,0.5454 0.42784,1.20309 0.65033,1.86078c0.10289,0.6738 0.2229,1.4599 0.32578,2.13368c0.00042,0.80217 -0.01632,1.49207 -0.15267,2.19806c-0.13634,0.70599 -0.27269,1.41197 -0.68256,1.92555c-0.08531,0.24069 -0.29026,0.49749 -0.49518,0.75427c-0.22209,0.1445 -0.30741,0.38519 -0.42702,0.40129c-0.3417,0.16059 -0.44416,0.289 -0.44416,0.289c0,0 0.08531,-0.24069 0.17064,-0.48139c0.10248,-0.1284 0.06817,-0.35299 0.1535,-0.59368c0.08533,-0.24068 0.05102,-0.46529 0.13635,-0.70599c0.08531,-0.24069 0.03388,-0.57759 -0.00042,-0.80218c0.08533,-0.24068 0.03389,-0.57757 -0.01755,-0.91448c0.01673,-0.68988 -0.08614,-1.36369 -0.06941,-2.05357c-0.08614,-1.36366 -0.18942,-2.83963 -0.12167,-3.99482z" fill="#687a27"></path><path d="M315.56558,242.67489c-0.34169,0.16059 -0.59807,0.08048 -0.59807,0.08048c0,0 0.10248,-0.1284 0.30741,-0.38519c0.08533,-0.24068 0.27311,-0.60978 0.34129,-0.96277c0.23882,-0.83437 0.4262,-2.00566 0.8528,-3.20913c0.30697,-1.18737 0.75073,-2.27856 1.22877,-3.14512c0.35843,-0.8505 0.87076,-1.49246 0.87076,-1.49246c0,0 0.22249,0.65769 0.24004,1.57217c0.01755,0.91448 -0.03307,2.18196 -0.44251,3.49773c-0.1535,0.59368 -0.4266,1.20347 -0.69971,1.81325c-0.29026,0.4975 -0.58049,0.99498 -1.00751,1.39627c-0.30743,0.38518 -0.75157,0.67417 -1.09327,0.83476z" fill="#687a27"></path><path d="M302.29631,226.12371c-1.07693,-0.65731 -2.05138,-1.44301 -2.05138,-1.44301c0,0 1.24756,0.17592 2.80294,0.76883c0.88871,0.2242 1.81173,0.67301 2.85437,1.10572c1.04264,0.43271 2.10242,0.97772 3.04258,1.53882c0.5299,0.27251 1.05977,0.545 1.47005,0.83361c0.5299,0.27251 0.95731,0.67341 1.36759,0.96201c0.95731,0.6734 1.65827,1.26671 2.35919,1.86002c0.58133,0.60941 1.04305,1.23491 1.24839,1.7803c0.03429,0.22459 0.06859,0.44917 -0.03388,0.57758c-0.10247,0.12841 -0.10247,0.12841 -0.10247,0.12841c0,0 -0.01714,-0.1123 -0.03429,-0.2246c-0.01715,-0.1123 -0.05143,-0.33689 -0.1882,-0.43309c-0.29067,-0.3047 -0.95732,-0.67341 -1.64112,-1.15441c-1.47006,-0.83362 -3.46999,-1.9397 -5.58955,-3.02973c-0.94017,-0.56111 -1.99994,-1.10614 -2.9401,-1.66723c-0.94017,-0.5611 -1.76073,-1.1383 -2.56413,-1.60321z" fill="#687a27"></path></g><g data-paper-data="{&quot;index&quot;:null}"><path d="M180.98575,208.44112c-18.26478,-4.58903 -24.49213,-12.95798 -25.22532,-16.81379c-0.83895,-4.78602 4.18459,-17.63083 17.7837,-20.37742c13.5991,-2.74658 25.47742,-4.29687 34.79064,3.73512c9.50984,8.20597 39.09378,6.84572 52.25356,9.56671c13.15979,2.72099 28.74515,24.18123 25.30227,37.44871c-3.32942,13.22844 -52.29947,26.57633 -74.50674,7.27404c-22.20726,-19.3023 -21.73086,-18.74128 -30.39812,-20.83338z" fill="#a3b339"></path><path d="M159.53955,180.53979c-0.88502,1.02952 -1.3994,1.68985 -1.3994,1.68985c0,0 0.07188,-0.14556 0.32907,-0.47573c0.14373,-0.29113 0.4728,-0.76684 0.87372,-1.38812c0.40094,-0.62127 0.91531,-1.2816 1.50156,-2.08747c0.58625,-0.80587 1.44099,-1.58332 2.29574,-2.36077c0.96821,-0.81649 1.9364,-1.63298 3.17309,-2.42104c1.2367,-0.78804 2.62843,-1.50864 4.06174,-2.12271c1.43332,-0.61407 3.02168,-1.16067 4.6932,-1.49423c1.62994,-0.44007 3.38464,-0.56062 4.94271,-0.85512c3.31275,-0.41503 6.62552,-0.83009 9.75297,-1.06054c1.64125,-0.08149 3.16903,-0.12392 4.62495,-0.02081c1.4559,0.1031 2.83997,0.35179 4.11056,0.6395c0.57858,0.16338 1.15715,0.32675 1.77731,0.59665c0.46513,0.20243 1.08528,0.47232 1.5504,0.67474c0.46513,0.20242 0.81678,0.44388 1.2819,0.64631c0.35166,0.24147 0.70333,0.48294 1.01341,0.61788c0.66174,0.37643 0.94153,0.76345 1.2932,1.00491c0.35167,0.24146 0.39326,0.34799 0.39326,0.34799c0,0 -0.15504,-0.06748 -0.50671,-0.30895c-0.31009,-0.13494 -0.81678,-0.44389 -1.47853,-0.82029c-0.31008,-0.13495 -0.66173,-0.3764 -1.08527,-0.47232c-0.42355,-0.09589 -0.7752,-0.33736 -1.24032,-0.53978c-0.88865,-0.29833 -2.04579,-0.62509 -3.16135,-0.84533c-1.229,-0.1812 -2.45801,-0.36239 -3.87235,-0.35899c-1.41434,0.00341 -2.82868,0.00681 -4.42833,0.19481c-1.4862,0.14895 -3.08586,0.33695 -4.68551,0.52496c-1.59965,0.188 -3.31277,0.41505 -4.91242,0.60305c-1.71311,0.22704 -3.19931,0.37601 -4.87083,0.70957c-1.55808,0.29452 -3.07456,0.69555 -4.43601,1.16406c-1.36145,0.46852 -2.79475,1.08258 -3.95958,1.72508c-1.33884,1.18569 -2.34863,1.89566 -3.35841,2.60564c-1.00979,0.70998 -1.75108,1.44838 -2.53395,2.08027c-0.78287,0.63189 -1.29726,1.29222 -1.73977,1.80698z" fill="#687a27"></path><path d="M163.70493,197.47208c-3.37696,-0.40865 -5.76312,-0.91661 -5.76312,-0.91661c0,0 2.36354,-0.20923 6.03928,-0.02422c1.83785,0.09251 3.94422,0.21344 6.09216,0.44088c1.07397,0.11372 2.30298,0.29492 3.41854,0.51517c1.22901,0.1812 2.34457,0.40144 3.57358,0.58264c1.11556,0.22025 2.38616,0.50796 3.50172,0.7282c1.11556,0.22024 2.2727,0.54699 3.38826,0.76724c1.11556,0.22024 2.11766,0.47951 3.15005,0.48673c0.96052,0.15277 1.92103,0.30554 2.83997,0.3518c1.72442,0.13156 3.25221,0.08911 4.24301,-0.0102c0.9908,-0.0993 1.55807,-0.29451 1.55807,-0.29451c0,0 -0.52568,0.30173 -1.58835,0.54659c-1.06267,0.24486 -2.50729,0.50035 -4.37544,0.65992c-1.79628,0.01402 -4.01609,-0.06787 -6.20562,-0.40184c-1.18743,-0.07468 -2.23112,-0.44048 -3.46013,-0.62168c-1.11556,-0.22024 -2.34457,-0.40143 -3.46013,-0.62168c-4.68912,-0.80287 -9.37827,-1.60576 -12.95185,-2.1884z" fill="#687a27"></path><path d="M168.03239,186.80006c0,0 -0.04158,-0.10651 -0.08317,-0.21303c-0.04158,-0.10651 -0.12476,-0.31954 -0.09447,-0.57162c0.03028,-0.25207 0.17403,-0.54319 0.31776,-0.83431c0.14374,-0.29111 0.44251,-0.51476 0.74129,-0.73841c0.29878,-0.22364 0.63913,-0.34077 1.02108,-0.35138c0.2269,-0.07808 0.38194,-0.01061 0.65044,0.01783c0.15504,0.06747 0.35167,0.24145 0.43484,0.45449c0.08318,0.21303 0.0113,0.35858 0.05289,0.46511c0.04159,0.10652 -0.07186,0.14555 -0.14373,0.29112c-0.07186,0.14555 -0.18532,0.1846 -0.18532,0.1846c0,0 -0.04158,-0.10651 -0.08317,-0.21303c-0.04159,-0.10652 -0.12475,-0.31956 -0.23821,-0.28051c0,0 0,0 -0.11346,0.03905c0,0 -0.11345,0.03904 -0.22691,0.07808c-0.11345,0.03904 -0.22691,0.07808 -0.22691,0.07808c-0.11346,0.03905 -0.22691,0.07807 -0.29878,0.22364c-0.2269,0.07808 -0.41223,0.2627 -0.59755,0.4473c-0.18531,0.18461 -0.29877,0.22365 -0.48409,0.40825c-0.07186,0.14555 -0.29878,0.22364 -0.44251,0.51476z" fill="#687a27"></path><path d="M163.95405,201.73612c-0.43483,-0.4545 -0.7865,-0.69596 -0.7865,-0.69596c0,0 0.35166,0.24147 1.01341,0.61788c0.66175,0.37642 1.74702,0.84874 2.98734,1.38852c1.39535,0.60726 2.94575,1.28199 4.87808,1.94613c1.93236,0.66413 4.06131,1.50225 6.3756,2.15577c2.38615,0.50795 5.15425,1.00531 7.86179,2.0068c2.821,0.96245 5.46797,2.46811 8.01278,4.37139c2.50323,1.79676 5.01777,3.95212 7.30539,6.18557c2.28763,2.23345 4.68871,4.42785 7.16166,6.47669c2.47294,2.04884 5.13122,3.91308 7.93322,5.4862c2.802,1.57312 5.63428,2.89417 8.61032,3.9241c5.79702,1.99237 11.632,2.76342 16.56702,2.87755c2.44671,0.00381 4.77997,0.04666 6.76158,-0.15195c2.02319,-0.09209 3.73629,-0.31914 5.2225,-0.4681c1.4862,-0.14897 2.59046,-0.28731 3.42622,-0.45409c0.72232,-0.12774 1.21772,-0.1774 1.21772,-0.1774c0,0 -0.34037,0.11712 -1.17613,0.28391c-0.72232,0.12775 -1.89843,0.41166 -3.34306,0.66713c-1.44462,0.25549 -3.22959,0.62809 -5.2112,0.82671c-2.05348,0.34418 -4.34515,0.40784 -6.90533,0.44308c-5.12035,0.07047 -11.09906,-0.40946 -17.16457,-2.43027c-2.97604,-1.02992 -6.03523,-2.27288 -8.99228,-3.91348c-2.84359,-1.67964 -5.61532,-3.50484 -8.2433,-5.62115c-2.62799,-2.11631 -4.91562,-4.34975 -7.20324,-6.58319c-2.28764,-2.23344 -4.64714,-4.32133 -7.03691,-6.15713c-1.25162,-0.89837 -2.46165,-1.69023 -3.67168,-2.48211c-1.32349,-0.75283 -2.56379,-1.29263 -3.80411,-1.83241c-2.59407,-1.04054 -5.24873,-1.57694 -7.71805,-2.29792c-2.46933,-0.72098 -4.52641,-1.70466 -6.38689,-2.51435c-1.86047,-0.80967 -3.45245,-1.59094 -4.73435,-2.23725c-1.2819,-0.64631 -2.2953,-1.26419 -2.95705,-1.6406z" fill="#687a27"></path></g><g data-paper-data="{&quot;index&quot;:null}"><g fill="#a3b339"><path d="M302.72298,244.55365c-5.13518,-5.7835 -15.59023,-9.74229 -9.89553,-15.87255c6.11538,-6.53739 17.96206,4.22094 21.74768,12.15773c3.78561,7.93679 -6.71698,9.49835 -11.85216,3.71484z"></path><path d="M312.86431,236.4988c2.23682,0.93088 10.99235,10.77052 9.7751,13.70813c-1.21724,2.93761 -4.4747,-4.04395 -6.01326,-3.01118c-1.51968,1.14483 1.29225,9.11154 -0.6859,10.43939c-1.8399,1.42215 -2.12068,-7.49518 -2.12068,-7.49518c0,0 -1.08766,10.95856 -3.68847,10.77096c-2.6008,-0.1876 0.56059,-9.73159 0.56059,-9.73159c0,0 -3.80294,7.91648 -6.40376,7.72888c-2.60082,-0.1876 0.73878,-5.04881 2.66023,-6.71283c2.02191,-1.79381 -1.26528,-5.32517 -4.20629,-7.52966"></path></g><path d="M262.81232,228.43459c-1.27824,-6.12725 16.39926,-5.76922 30.11343,-4.24763c13.71415,1.5216 19.47198,8.82057 4.62318,12.17693c-18.0145,4.17162 -33.21267,-0.34541 -34.73662,-7.92931z" fill="#a3b339"></path><path d="M248.9038,214.8816c-6.66232,-19.91393 13.14726,-27.22396 21.14569,-24.04852c7.99846,3.17545 19.59123,34.18691 11.36647,43.44998c-8.64546,9.6702 -28.15252,-6.61104 -32.51217,-19.40146z" fill="#a3b339"></path><path d="M246.47692,210.64801c-0.21385,-0.5425 -0.1323,-0.78435 -0.1323,-0.78435c0,0 -0.08155,0.24184 0.11341,0.6723c0.19493,0.43045 0.4088,0.97297 0.89915,1.70407c0.72308,1.38567 2.03699,3.37266 3.64628,5.66029c1.6093,2.28764 3.63332,4.8582 5.91496,7.50533c1.20049,1.3147 2.40098,2.62939 3.82127,3.79654c1.31984,1.29695 2.85948,2.44634 4.38021,3.48369c1.52072,1.03735 3.14191,1.94491 4.94507,2.48084c0.39583,0.17084 0.89213,0.21191 1.28798,0.38279l0.63453,0.13538l0.75389,0.11764c0.87324,0.09988 1.88472,0.29407 2.75796,0.39395c1.74647,0.19976 3.51184,0.51157 5.25832,0.71136c1.62712,0.21753 3.23534,0.32297 4.72422,0.44619c1.48888,0.12321 2.83949,0.15211 3.95143,0.21652c1.23129,0.04665 2.20497,0.01675 3.0593,0.00457c0.85433,-0.01215 1.57042,-0.11862 1.90956,-0.28391c0.4774,-0.07099 0.69719,-0.21853 0.69719,-0.21853c0,0 -0.89808,0.47812 -2.55005,0.83859c-0.83542,0.12423 -1.90956,0.28392 -3.10303,0.46137c-1.19349,0.17746 -2.54411,0.14855 -4.01409,0.13738c-1.46998,-0.01116 -3.0593,-0.00456 -4.78687,-0.09229c-1.72758,-0.08771 -3.47404,-0.28749 -5.33986,-0.46951c-0.87324,-0.09988 -1.86581,-0.18202 -2.75795,-0.39395l-0.75389,-0.11764l-0.75389,-0.11763c-0.51518,-0.1531 -1.01148,-0.19418 -1.52667,-0.3473c-1.94142,-0.63022 -3.70083,-1.63208 -5.35983,-2.76373c-1.65896,-1.13166 -3.09816,-2.41086 -4.53735,-3.69005c-1.31984,-1.29693 -2.65858,-2.70593 -3.75862,-4.15042c-2.30055,-2.75916 -4.10479,-5.47727 -5.61364,-7.89472c-1.3895,-2.43518 -2.48359,-4.56973 -3.10625,-6.08518c-0.37099,-0.74887 -0.48441,-1.42116 -0.66046,-1.73956z" fill="#687a27"></path><path d="M291.11666,224.34108c-3.90769,-0.68245 -6.62784,-0.85232 -6.62784,-0.85232c0,0 0.71608,-0.10648 1.82801,-0.04207c1.21237,-0.06539 2.92104,-0.08972 4.90621,0.07455c1.98516,0.16427 4.34726,0.38737 6.88543,0.92886c2.41881,0.55925 5.15193,1.53119 7.50216,3.13438c0.553,0.3772 1.1249,0.86648 1.57744,1.37349c0.45257,0.507 0.88621,0.90197 1.33875,1.40898c0.8862,0.90198 1.77238,1.80397 2.53923,2.72369c1.65303,1.82171 3.14892,3.43705 4.38721,4.97584c1.21938,1.42674 2.30055,2.75917 3.04849,3.56684c0.31429,0.4127 0.6286,0.82543 0.78574,1.03178c0.13824,0.0943 0.15714,0.20634 0.2765,0.1886l-0.0189,-0.11205c0,0 0.11935,-0.01775 0.0189,0.11205c-0.11935,0.01774 -0.13824,-0.09429 -0.2765,-0.1886c-0.27651,-0.18862 -0.69125,-0.47151 -1.106,-0.75443c-0.96774,-0.66013 -2.24977,-1.73297 -3.68896,-3.01217c-1.43919,-1.27919 -3.17378,-2.85904 -4.82681,-4.68075c-0.8862,-0.90198 -1.77239,-1.80397 -2.53924,-2.72369c-0.45257,-0.507 -0.8862,-0.90196 -1.33874,-1.40898c-0.45256,-0.50701 -0.76685,-0.91972 -1.30095,-1.1849c-1.97328,-1.54436 -4.32944,-2.45752 -6.76716,-3.12881c-2.31837,-0.68903 -4.59893,-1.15398 -6.603,-1.43031z" fill="#687a27"></path><path d="M316.46304,247.67948c-0.05668,-0.33616 0.1631,-0.4837 0.1631,-0.4837c0,0 0.03781,0.22411 0.07561,0.44822c0.0567,0.33615 0.11341,0.67228 0.2079,1.23254c0.07562,0.44819 0.28945,0.9907 0.40286,1.663c0.0945,0.56024 0.2079,1.23255 0.32131,1.90485c0.10746,1.36236 0.09557,2.74243 -0.33105,3.8396c-0.16311,0.48371 -0.5649,1.00287 -0.78469,1.15041c-0.33914,0.16528 -0.57783,0.20077 -0.57783,0.20077c0,0 0,0 0.10044,-0.12981c0.11933,-0.01773 0.10044,-0.12979 0.20089,-0.25959c0.08154,-0.24186 0.02484,-0.57799 0.04969,-1.15599c-0.1512,-0.89641 -0.37802,-2.241 -0.46657,-3.49129c-0.1134,-0.67229 -0.10746,-1.36235 -0.08261,-1.94034c0.00593,-0.69005 0.03078,-1.26804 0.19388,-1.75173c0.16308,-0.4837 0.32619,-0.96737 0.52708,-1.22697z" fill="#687a27"></path><path d="M313.14826,251.96269c0.28837,-1.19148 0.65236,-1.93476 0.65236,-1.93476c0,0 0.25165,0.7666 0.44066,1.8871c0.09451,0.56024 0.08855,1.25031 0.08261,1.94034c-0.00596,0.69005 -0.11233,1.50988 -0.35697,2.23541c-0.24464,0.72554 -0.48928,1.45106 -0.73392,2.17661c-0.18197,0.37163 -0.38289,0.63123 -0.58377,0.89082c-0.20089,0.25959 -0.4018,0.51918 -0.60268,0.77877c-0.20088,0.25959 -0.42069,0.40714 -0.64048,0.55468c-0.21979,0.14754 -0.43957,0.29508 -0.55893,0.31283c-0.35805,0.05322 -0.59674,0.08872 -0.59674,0.08872c0,0 0.10047,-0.1298 0.30135,-0.38939c0.10043,-0.1298 0.20089,-0.25959 0.28244,-0.50144c0.10045,-0.1298 0.182,-0.37163 0.26355,-0.61348c0.08154,-0.24185 0.16309,-0.4837 0.24464,-0.72554c0.08154,-0.24186 0.1442,-0.59575 0.22575,-0.83759c0.1442,-0.59575 0.26947,-1.30352 0.51412,-2.02906c0.25059,-1.41559 0.63942,-2.73686 1.06605,-3.83403z" fill="#687a27"></path><path d="M305.06073,259.1379c-0.49627,-0.04108 -0.75389,-0.11764 -0.63454,-0.13538c0,0 0.2387,-0.03549 0.32024,-0.27734c0.21979,-0.14754 0.40178,-0.51918 0.70313,-0.90856c0.30135,-0.3894 0.46441,-0.87308 0.88512,-1.28021c0.28245,-0.50144 0.68422,-1.02062 0.96667,-1.52206c0.68421,-1.02063 1.4878,-2.05899 2.10938,-2.72569c0.60269,-0.77875 1.28098,-1.10933 1.28098,-1.10933c0,0 -0.00594,0.69005 -0.21279,1.63969c-0.20685,0.94962 -0.73392,2.1766 -1.5375,3.21497c-0.40178,0.51918 -0.80356,1.03837 -1.20536,1.55755c-0.42068,0.40712 -0.9607,0.83198 -1.40031,1.12707c-0.4396,0.29509 -0.91699,0.36606 -1.27504,0.4193z" fill="#687a27"></path><path d="M296.32569,239.99157c-1.21939,-1.42673 -1.88579,-2.47625 -1.88579,-2.47625c0,0 1.18755,0.51258 2.70828,1.54995c0.81061,0.45378 1.65899,1.13166 2.62673,1.7918c0.96774,0.66012 1.83504,1.45005 2.84057,2.33429c0.8862,0.90197 1.75349,1.6919 2.52034,2.61162c0.76685,0.91972 1.39544,1.74515 1.88579,2.47625c0.50926,0.84316 0.86136,1.47998 0.83651,2.05797c0.05671,0.33615 -0.02486,0.57799 -0.1253,0.70779c-0.10044,0.12979 -0.21979,0.14754 -0.21979,0.14754c0,0 -0.01891,-0.11206 0.10045,-0.12981c-0.0189,-0.11204 -0.0189,-0.11204 -0.0378,-0.2241c-0.0189,-0.11206 -0.03779,-0.22409 -0.17605,-0.3184c-0.19495,-0.43044 -0.76683,-0.91973 -1.35764,-1.52104c-0.71013,-0.58357 -1.43918,-1.2792 -2.30647,-2.06913c-0.43365,-0.39497 -0.8673,-0.78991 -1.30095,-1.18489c-0.43365,-0.39497 -0.86729,-0.78992 -1.30094,-1.1849c-0.43365,-0.39497 -0.86729,-0.78991 -1.30094,-1.1849c-0.43365,-0.39497 -0.8673,-0.78991 -1.30095,-1.18489c-0.86728,-0.78994 -1.61522,-1.59761 -2.20603,-2.19892z" fill="#687a27"></path><path d="M272.1421,192.3597c-0.64749,-0.93747 -1.10004,-1.44449 -1.10004,-1.44449c0,0 0.45256,0.50701 1.31985,1.29693c0.74793,0.80768 1.92953,2.01032 3.16782,3.5491c0.62859,0.82541 1.25718,1.65083 1.90468,2.5883c0.64751,0.93746 1.295,1.87493 1.84205,2.9422c0.6664,1.04951 1.21344,2.11676 1.7794,3.29608c0.56594,1.17932 1.13191,2.35863 1.45916,3.57343c0.4466,1.19707 0.77384,2.41185 1.23936,3.72097c0.23276,0.65456 0.32726,1.21481 0.44066,1.8871c0.0945,0.56025 0.32725,1.2148 0.30241,1.79279c0.09451,0.56025 0.2079,1.23254 0.18306,1.81054c0.0945,0.56023 0.06966,1.13824 0.04482,1.71623c0.06966,1.13824 0.00109,2.18218 -0.08641,3.11407c0.03186,0.91414 -0.17496,1.86377 -0.30026,2.57156c-0.06264,0.3539 -0.1253,0.70778 -0.18794,1.06168c-0.06265,0.35391 -0.1442,0.59575 -0.22575,0.83759c-0.30728,1.07942 -0.57083,1.69291 -0.57083,1.69291c0,0 0.02485,-0.578 0.19389,-1.75173c0.08156,-0.24185 0.02485,-0.57799 0.08749,-0.93189c-0.05671,-0.33616 0.00595,-0.69004 0.06859,-1.04394c-0.01295,-0.8021 0.09344,-1.62194 -0.05777,-2.51834c-0.03185,-0.91414 -0.08261,-1.94034 -0.27162,-3.06084c-0.05076,-1.02619 -0.35911,-2.12895 -0.56701,-3.36148c-0.18902,-1.12051 -0.63563,-2.31756 -0.84354,-3.55011c-0.32725,-1.2148 -0.77384,-2.41186 -1.20155,-3.49687c-0.4466,-1.19705 -0.89319,-2.39411 -1.44025,-3.46138c-0.54706,-1.06728 -0.99365,-2.26432 -1.5407,-3.33159c-0.54707,-1.06726 -1.0752,-2.02248 -1.60336,-2.97769c-0.52815,-0.95522 -1.0374,-1.79837 -1.54665,-2.64153c-0.50925,-0.84316 -0.99958,-1.57427 -1.35169,-2.21108c-0.47145,-0.61905 -0.82353,-1.25585 -1.13785,-1.66857z" fill="#687a27"></path></g><g data-paper-data="{&quot;index&quot;:null}"><g><path d="M191.12121,183.41714c-5.45698,0.89145 -10.65047,-2.53913 -11.59998,-7.66242c-0.94951,-5.12329 2.70451,-9.99921 8.16148,-10.89066c5.45698,-0.89145 10.65047,2.53913 11.59998,7.66242c0.94951,5.12329 -2.70451,9.99921 -8.16148,10.89066z" fill="#a3b339"></path><path d="M190.70693,181.18181c-4.14204,0.67665 -8.08408,-1.92728 -8.8048,-5.81605c-0.72072,-3.88876 2.05281,-7.58975 6.19486,-8.2664c4.14204,-0.67665 8.08408,1.92728 8.8048,5.81605c0.72072,3.88876 -2.05281,7.58975 -6.19486,8.2664z" fill="#e7ffbd"></path><path d="M195.71558,173.64875c-0.77563,3.28759 -11.28118,4.72795 -11.87831,1.55028c-0.86924,-4.53395 12.54048,-4.79883 11.87831,-1.55028z" fill="#2b3021"></path><path d="M179.71181,172.87309c-0.31775,0.83431 -0.37832,1.33846 -0.37832,1.33846c0,0 -0.0529,-0.46511 0.15141,-1.26037c0.20431,-0.79526 0.3973,-1.94913 1.04412,-3.25916c0.28748,-0.58224 0.76028,-1.34906 1.27466,-2.0094c0.51438,-0.66033 1.18381,-1.25317 2.12172,-1.81759c0.41223,-0.26269 0.86605,-0.41886 1.27828,-0.68155c0.45381,-0.15616 0.90762,-0.31234 1.47489,-0.50754c0.4954,-0.04965 1.06267,-0.24485 1.55807,-0.29451l0.7223,-0.12774l0.76389,-0.02122c1.03238,0.00721 2.10636,0.12094 3.10846,0.38023c1.00211,0.25928 1.86049,0.80968 2.67726,1.25357c0.74491,0.58944 1.48983,1.17889 2.00783,1.84641c0.51801,0.66753 0.92256,1.3741 1.28553,1.97416c0.24951,0.6391 0.49903,1.2782 0.70695,1.81078c0.20792,0.53258 0.2608,0.99769 0.31369,1.4628c0.06418,0.8237 0.11707,1.28881 0.11707,1.28881c0,0 -0.16633,-0.42607 -0.34398,-1.21072c-0.16633,-0.42606 -0.21922,-0.89117 -0.5406,-1.3847c-0.20793,-0.53258 -0.5709,-1.13264 -0.82041,-1.77173c-0.36296,-0.60008 -0.72593,-1.20013 -1.35739,-1.82861c-0.51802,-0.66752 -1.22133,-1.15046 -1.92467,-1.63339c-0.81677,-0.44389 -1.63356,-0.88777 -2.48062,-1.07959c-0.88865,-0.29834 -1.80758,-0.34458 -2.83997,-0.3518l-0.63914,0.34077l-0.76389,0.02122c-0.49541,0.04965 -0.83577,0.16678 -1.33117,0.21643c-0.4954,0.04966 -0.90763,0.31234 -1.28958,0.32295c-0.45383,0.15617 -0.90764,0.31234 -1.20642,0.53598c-1.46361,0.86615 -2.64741,2.11931 -3.33581,3.32282c-0.6884,1.20351 -1.14989,2.32894 -1.3542,3.12421z" fill="#687a27"></path></g><path d="M181.93888,175.6107c0.06419,0.8237 0.18895,1.14326 0.18895,1.14326c0,0 -0.16634,-0.42608 -0.3024,-1.10421c-0.13606,-0.67814 -0.28342,-1.71488 -0.09042,-2.86874c0.193,-1.15385 0.48816,-2.70535 1.67196,-3.95852c0.51438,-0.66032 1.22538,-1.14665 2.09143,-1.56551c0.7526,-0.37981 1.70181,-0.58563 2.53757,-0.75241c0.83576,-0.16679 1.75468,-0.12054 2.67362,-0.07428c0.91892,0.04624 1.69413,0.38361 2.46932,0.72098c1.5504,0.67474 2.54482,1.90327 3.11571,3.03592c0.57089,1.13265 0.83171,2.13034 0.85431,2.84752c0.02261,0.71718 -0.07955,1.11482 -0.07955,1.11482c0,0 -0.0113,-0.3586 -0.14736,-1.03674c-0.13606,-0.67815 -0.51033,-1.63679 -1.15309,-2.62387c-0.64276,-0.98707 -1.66747,-1.96354 -3.02124,-2.4643c-0.62015,-0.2699 -1.46722,-0.46171 -2.2727,-0.547c-0.80549,-0.08529 -1.56938,-0.06408 -2.40514,0.10271c-0.72232,0.12775 -1.55807,0.29452 -2.19721,0.63529c-0.63915,0.34076 -1.27828,0.68153 -1.83425,1.23534c-0.99849,1.06857 -1.53184,2.33955 -1.76643,3.3869c-0.19301,1.15386 -0.31413,2.16216 -0.33312,2.77282z" fill="#687a27"></path></g><g data-paper-data="{&quot;index&quot;:null}" fill="#969330"><path d="M260.25029,196.87158c-4.49614,-1.95674 -4.23809,-9.53681 1.77454,-7.9811c6.01263,1.5557 9.58491,13.01321 -1.77454,7.9811z"></path><path d="M272.56257,203.02573c-2.77983,2.76902 -5.60401,-3.14623 -2.5367,-6.49749c2.69666,-2.98205 5.35812,3.83499 2.5367,6.49749z"></path><path d="M261.12228,209.9833c-4.82561,2.14392 -8.31516,-5.47559 -3.18308,-8.81243c5.35898,-3.41492 8.16374,6.73596 3.18308,8.81243z"></path></g><g data-paper-data="{&quot;index&quot;:null}"><path d="M192.26931,220.26875c0,0 3.16458,-4.9243 0.98823,-9.91544c0,0 18.87044,-15.13813 13.18534,-37.37225l4.93125,4.46862c0,0 26.1697,-12.05407 53.81897,-3.73354c0,0 8.2022,36.34627 -25.24053,53.09869z" fill="#6d4b9b"></path><path d="M252.4374,190.64529c0.07252,0.09075 0.07162,-3.31264 0.69963,-4.60607c0,0 -3.06973,-1.95056 -4.27853,-3.65197c0,0 3.9631,-1.09002 5.26825,-0.59115c0,0 1.15904,-3.65324 1.6904,-4.87858c0,0 2.75594,3.44812 2.58707,4.55993c0,0 4.61568,-0.84058 6.45248,-0.43259c0,0 -3.18901,3.94867 -5.1223,4.17601c0,0 1.95833,3.01722 1.7412,4.44669c0,0 -4.25381,-1.54188 -5.05159,-2.54002c0,0 -1.18377,1.54313 -3.98662,3.51775z" fill="#e0c448"></path><path d="M236.51722,213.06595c0,0 -1.04006,-3.38047 -0.65392,-5.35451c0,0 3.72215,1.63276 4.4958,2.78973c0,0 3.50368,-2.04284 4.63936,-2.70109c0,0 -0.31303,4.33372 -1.20701,5.10536c0,0 4.08478,2.08647 5.14853,3.6064c0,0 -5.17146,1.09028 -6.74257,0.06963c0,0 -0.53077,3.49426 -1.71469,4.47017c0,0 -2.20017,-3.69784 -2.17635,-4.99112c0,0 -1.95743,0.38617 -5.48583,0.31892c0,0 2.29518,-2.6098 3.69669,-3.31349z" fill="#e0c448"></path><path d="M226.60348,193.10173c0.07253,0.09074 0.57915,-3.2447 1.37633,-4.51549c0,0 -2.75565,-2.31366 -3.57785,-4.28743c0,0 4.03578,-0.43203 5.3168,0.22566c0,0 1.81162,-3.40381 2.51215,-4.6065c0,0 2.17606,3.85666 1.83801,4.94583c0,0 4.68836,-0.1826 6.47691,0.54304c0,0 -3.79333,3.38158 -5.77503,3.35936c0,0 1.49919,3.19884 1.01624,4.67374c0,0 -3.98813,-2.15454 -4.68925,-3.22078c0,0 -1.49799,1.339 -4.4943,2.88257z" fill="#e0c448"></path><path d="M213.72759,212.52672c0,0 -2.87643,-2.08675 -3.7226,-3.33446c0,0 -3.55223,1.22605 -5.67898,1.02233c0,0 1.4974,-3.60793 2.72973,-4.33427c0,0 -2.3692,-3.15325 -3.07032,-4.21948c0,0 4.66423,-0.02378 5.48613,0.81554c0,0 1.98066,-3.9484 3.52706,-5.03783c0,0 1.42711,4.80978 0.50916,6.3075c0,0 3.74597,0.33946 4.8821,1.3829c0,0 -3.89028,2.31521 -5.2678,2.29283c0,0 0.5805,1.86038 0.60552,5.10494z" fill="#e0c448"></path><path d="M214.0811,178.37932c0,0 0.53133,-1.22534 1.23186,-2.42804c2.82727,-0.99898 6.8145,-2.24781 11.72013,-3.29266c0.48339,0.22679 0.89427,0.36282 1.11185,0.63504c0,0 -3.96281,2.22446 -5.2678,2.29283c0,0 0.5805,1.86038 0.60552,5.10494c0,0 -2.87643,-2.08675 -3.7226,-3.33446c0,0 -3.55223,1.22605 -5.67898,1.02233z" fill="#e0c448"></path><path d="M224.02584,224.27735c0,0 2.90011,0.22623 4.42283,0.9973l-13.02649,-1.74405c-0.43516,-0.54445 -0.70112,-1.06623 -0.9187,-1.33845c0,0 4.66423,-0.02378 5.48613,0.81554c0,0 2.05319,-3.85766 3.52706,-5.03783c0,0 1.52376,4.7417 0.50916,6.3075z" fill="#e0c448"></path><path d="M194.37167,219.49687c-1.44991,0.45412 -2.10233,0.77192 -2.10233,0.77192c0,0 0.74907,-0.38589 1.90888,-1.20298c1.1598,-0.81709 2.89951,-2.04272 4.85664,-3.56335c1.8846,-1.61137 3.98662,-3.51775 5.96773,-5.76445c1.03887,-1.15739 1.90858,-2.33743 2.87492,-3.58557c0.89382,-1.33888 1.69098,-2.60966 2.34312,-4.06192c0.72466,-1.36152 1.30426,-2.90452 1.85974,-4.28869c0.48294,-1.47492 0.79672,-2.97249 1.01385,-4.40196c0.21712,-1.42948 0.26507,-2.8816 0.2889,-4.17489c0.02382,-1.29329 -0.12153,-2.60925 -0.19435,-3.83445c-0.07269,-0.65798 -0.16948,-1.15711 -0.26628,-1.65626c-0.09681,-0.49914 -0.1936,-0.99828 -0.2904,-1.49742c-0.29026,-0.9302 -0.33881,-1.747 -0.58066,-2.42762c-0.4837,-1.36124 -0.6289,-2.10996 -0.6289,-2.10996c0,0 0.41103,0.70326 0.99138,1.99642c0.3385,0.61253 0.55623,1.45197 1.01565,2.40481c0.38689,0.86209 0.65302,1.95113 0.89502,3.19898c0.16933,0.58988 0.242,1.24785 0.31467,1.90582c0.07267,0.65798 0.14535,1.31594 0.21802,1.97392c0.0487,1.38403 0.07327,2.92688 -0.07132,4.4471c-0.1446,1.52021 -0.38585,3.10851 -0.89293,4.74225c-0.5796,1.54299 -1.08669,3.17674 -1.90798,4.60635c-0.74877,1.52035 -1.6426,2.85923 -2.63308,4.26619c-1.06299,1.31623 -2.02935,2.56436 -3.06822,3.72175c-1.03887,1.15738 -2.2228,2.13329 -3.31007,3.04111c-1.08728,0.90783 -2.24708,1.72491 -3.31023,2.4739c-2.02966,1.42989 -3.98692,2.38329 -5.29179,3.0189z" fill="#4a3369"></path><path d="M221.35442,174.81543c-5.17146,1.09028 -8.28869,2.29354 -8.28869,2.29354c0,0 2.85126,-1.72505 7.66009,-3.26903c1.18408,-0.40867 2.53732,-0.79471 3.89058,-1.18074c1.42576,-0.2953 2.87567,-0.74941 4.47062,-1.02205c1.59496,-0.27266 3.11738,-0.63602 4.78486,-0.81793c1.59495,-0.27264 3.33494,-0.3638 5.00243,-0.54571c1.66747,-0.1819 3.38336,-0.11423 5.0267,-0.13731c0.87,-0.04558 1.64336,-0.02308 2.48922,0.09018c0.77334,0.0225 1.61922,0.13574 2.39257,0.15826c1.5467,0.04502 3.14181,0.33962 4.49521,0.52081c1.45005,0.1131 2.77932,0.45314 4.03607,0.70243c1.25675,0.24929 2.34434,0.47593 3.33525,0.77066c0.99092,0.29473 1.81266,0.56682 2.5619,0.74815c1.4018,0.43077 2.22356,0.70284 2.22356,0.70284c0,0 -0.84587,-0.11325 -2.2718,-0.38519c-0.67669,-0.0906 -1.5951,-0.29459 -2.61015,-0.43049c-1.01506,-0.1359 -2.12676,-0.20371 -3.38351,-0.453c-1.18422,-0.15854 -2.53763,-0.33974 -3.91515,-0.36212c-1.37752,-0.02237 -2.90011,-0.22622 -4.44681,-0.27123c-1.5467,-0.04501 -3.0934,-0.09004 -4.73674,-0.06696c-1.64336,0.02308 -3.2867,0.04614 -4.95418,0.22805c-1.57083,0.11382 -3.31083,0.20498 -4.90578,0.47762c-1.66748,0.18189 -3.16577,0.38644 -4.66408,0.591c-1.4983,0.20456 -3.02073,0.56793 -4.34985,0.79514c-1.42577,0.29529 -2.7549,0.5225 -3.84232,0.86309z" fill="#4a3369"></path><path d="M242.41733,225.92941c-1.64319,0.59031 -2.56144,0.95354 -2.56144,0.95354c0,0 0.84572,-0.45398 2.29547,-1.47533c0.67654,-0.47664 1.5464,-1.08943 2.5129,-1.77035c0.9665,-0.68091 1.95713,-1.52064 3.14105,-2.49655c2.19868,-1.97448 4.61479,-4.24397 6.86157,-7.10333c1.15965,-1.3843 2.17425,-2.95011 3.26138,-4.42515c1.01463,-1.5658 1.95669,-3.22233 2.7296,-4.90151c0.7729,-1.67918 1.5458,-3.35838 2.17365,-5.21904c0.31393,-0.93034 0.53122,-1.79257 0.82101,-2.56408c0.21727,-0.86225 0.43454,-1.7245 0.65183,-2.58673c0.33791,-1.6564 0.77245,-3.38088 0.91705,-4.9011c0.12063,-0.79415 0.24123,-1.5883 0.26522,-2.31436c0.02397,-0.72606 0.14459,-1.52021 0.2411,-2.15553c0.04795,-1.45213 0.14431,-2.65469 0.144,-3.78914c-0.0003,-1.13446 0.07192,-2.17818 0.02338,-2.99498c-0.0971,-1.6336 -0.12152,-2.60923 -0.12152,-2.60923c0,0 0.12106,0.90755 0.38734,2.5638c0.21774,0.83946 0.24216,1.81508 0.41163,2.9722c0.16947,1.15712 0.14564,2.4504 0.26687,3.92518c0.0487,1.38404 -0.02339,2.99499 -0.09546,4.60594c-0.07207,1.61096 -0.33744,3.35808 -0.69947,5.17331c-0.36203,1.81519 -0.79657,3.5397 -1.42442,5.40036c-0.62785,1.86066 -1.32822,3.6306 -2.19778,5.37786c-0.86955,1.74727 -1.81163,3.4038 -2.92288,5.03768c-1.11126,1.63387 -2.19838,3.10892 -3.45468,4.56133c-1.15964,1.38432 -2.48848,2.74596 -3.69653,3.88071c-1.20805,1.13473 -2.48863,2.17876 -3.74508,3.06391c-2.34373,1.79299 -4.59097,2.95067 -6.18576,3.79054z" fill="#4a3369"></path><path d="M200.89742,221.9911c-4.03608,-0.70242 -6.52546,-1.35984 -6.52546,-1.35984c0,0 2.65842,0.11284 6.67021,0.40686c1.95758,0.18105 4.35016,0.33933 6.81526,0.58833c2.4651,0.249 5.17189,0.61141 7.70952,0.95115c1.3534,0.18121 2.61015,0.4305 3.89103,0.52095c1.3534,0.1812 2.61015,0.43049 3.79437,0.58904c2.44097,0.40785 4.71277,0.79304 6.71876,1.22367c3.93944,0.77052 6.52546,1.35984 6.52546,1.35984c0,0 -2.65842,-0.11284 -6.67021,-0.40686c-1.95758,-0.18105 -4.35016,-0.33933 -6.81526,-0.58833c-1.18422,-0.15855 -2.4651,-0.24901 -3.81851,-0.43021c-1.3534,-0.18121 -2.63428,-0.27167 -3.89103,-0.52095c-2.61016,-0.43048 -5.24443,-0.70215 -7.68541,-1.10999c-2.44097,-0.40785 -4.71277,-0.79304 -6.71876,-1.22367z" fill="#4a3369"></path><path d="M193.33808,222.11972c-1.89322,-1.6766 -2.68558,-3.77469 -1.76978,-4.6862c0.9158,-0.91152 3.19295,-0.29129 5.08616,1.38531c1.89322,1.6766 2.68558,3.77469 1.76978,4.6862c-0.9158,0.91152 -3.19295,0.29129 -5.08616,-1.38531z" fill="#bdabd6"></path></g></g></g></svg>