<svg version="1.1" xmlns="http://www.w3.org/2000/svg" xmlns:xlink="http://www.w3.org/1999/xlink" width="107.79305" height="128.7012" viewBox="0,0,107.79305,128.7012"><g transform="translate(-186.10348,-115.6494)"><g data-paper-data="{&quot;isPaintingLayer&quot;:true}" fill-rule="evenodd" stroke-miterlimit="10" stroke-dasharray="" stroke-dashoffset="0" style="mix-blend-mode: normal"><g data-paper-data="{&quot;index&quot;:null}"><path d="M280.30222,199.55519c3.64289,-9.16598 1.64518,-17.39185 6.69822,-16.9218c5.17054,0.47004 11.16369,14.21901 -0.11752,24.32509c-10.45862,9.2835 -21.15226,5.87563 -25.38271,3.40787c-4.11294,-2.58528 -0.94009,-3.99543 -0.23502,-4.93553c0.70507,-0.9401 13.86647,7.40329 19.03703,-5.87563z" fill="#ffab19" stroke="#001026" stroke-width="1.2" stroke-linecap="round" stroke-linejoin="round"></path><path d="M283.71011,188.74404c0.47004,-3.17284 0.35253,-5.05304 2.70278,-5.52309c2.93782,-0.47005 5.52308,3.7604 6.11065,7.87334c0.23502,4.23046 -0.47005,6.69822 -1.29264,8.69593c-0.11752,-0.82258 -1.17512,-3.64288 -4.58299,-4.23045c-2.82031,-0.47005 -4.70051,1.8802 -4.70051,1.8802c0,0 1.17512,-3.52537 1.76269,-8.69593z" fill="#ffffff" stroke="none" stroke-width="1" stroke-linecap="butt" stroke-linejoin="miter"></path></g><path d="M255.74211,217.65211c-2.23273,-3.17283 -4.46547,-8.10837 -0.23502,-10.81115c4.93552,-3.05533 7.99085,1.29264 10.3411,3.64289c3.29036,3.29035 4.81802,6.34568 6.22817,6.34568c4.81802,0 10.2236,-2.35025 14.21902,-0.9401c2.58527,0.94011 2.8203,13.0439 1.52766,15.8642c-1.64518,3.52538 -10.45861,3.7604 -9.401,-7.05075c0,0 -9.98857,4.11294 -13.86649,1.64518c-5.64061,-3.52537 -7.99085,-7.63832 -8.81344,-8.69593z" data-paper-data="{&quot;index&quot;:null}" fill="#ffab19" stroke="#001026" stroke-width="1.2" stroke-linecap="round" stroke-linejoin="round"></path><path d="M234.10143,173.30323c-0.18808,-6.61849 2.79366,-12.88641 2.97249,-15.69889c0.00742,-0.8423 -4.13194,-13.51314 -6.59079,-21.12764c-3.5101,-10.66943 -0.09769,-23.85575 4.2174,-17.14105c4.00944,6.44352 10.2797,28.98458 11.2177,34.40084c2.23239,12.33716 -3.55512,29.92668 -7.30536,41.89061" data-paper-data="{&quot;index&quot;:null}" fill="#ffab19" stroke="#001026" stroke-width="1.2" stroke-linecap="round" stroke-linejoin="round"></path><g data-paper-data="{&quot;index&quot;:null}"><path d="M238.46773,219.76739c0.82259,-3.7604 6.34568,-7.87334 6.34568,-7.87334c-1.41016,-1.05762 -3.52538,-3.87792 -5.40558,-6.69822c-1.52765,-2.23273 -3.17283,-6.5807 -3.17283,-6.5807c-1.0576,-2.93782 -1.76269,-8.57843 2.11523,-8.46091c2.58528,0.11751 4.93554,-0.23502 8.93096,-0.82259c7.05076,-1.41016 8.46091,-2.8203 11.28121,2.46776c5.28806,9.75353 12.33881,16.68678 2.70278,22.32738c-2.35025,1.41014 -6.11065,3.7604 -9.401,6.11065c-2.35025,2.23273 1.17513,7.05075 3.64289,9.87105c1.05762,1.29264 1.05762,3.17283 -0.23502,4.46547c-8.57841,8.34339 -11.16369,11.28121 -14.45404,7.63832c-4.46547,-4.93554 2.58528,-9.75355 2.58528,-9.75355c0,0 -5.6406,-8.81343 -4.93553,-12.69135z" fill="#ffab19" stroke="#001026" stroke-width="1.2" stroke-linecap="round" stroke-linejoin="round"></path><path d="M245.72018,211.77992c0,0 -3.64289,-2.46776 -6.22817,-7.75582c0,0 -2.23274,-2.93782 2.8203,-6.11065c5.28806,-3.40787 7.28577,0.35253 9.401,3.17283c2.35026,3.64288 0,5.40557 -2.35025,7.5208c-1.8802,1.76268 -3.64289,3.17283 -3.64289,3.17283z" fill="#ffffff" stroke="none" stroke-width="1" stroke-linecap="butt" stroke-linejoin="miter"></path></g><g data-paper-data="{&quot;index&quot;:null}"><path d="M235.8237,131.04538c2.70279,-0.47005 5.52309,-0.70507 8.81344,-0.47005c5.52309,0.23503 10.81115,2.23274 10.81115,2.23274l14.21902,-9.2835c0.47005,-0.23502 1.05762,0.11752 0.9401,0.58757l-2.46776,21.03474c-0.70507,-0.94009 12.45633,15.04161 4.11294,28.43804c-8.3434,13.39643 -26.08779,19.38958 -48.18015,15.04161c-22.09236,-4.34797 -27.26291,-17.03932 -25.85276,-23.73754c1.41016,-6.69822 9.75355,-9.16598 9.75355,-9.16598c0,0 0.11752,-5.28807 3.87792,-11.75126c2.23275,-3.87791 9.75355,-9.401 9.75355,-9.401l3.05533,-12.57385c0.11751,-0.47006 0.70507,-0.58756 1.05761,-0.35254z" fill="#ffab19" stroke="#001026" stroke-width="1.2" stroke-linecap="butt" stroke-linejoin="miter"></path><path d="M208.32578,156.19307c9.98857,-2.23275 10.92866,5.17054 19.38957,5.75811c9.87105,0.70508 23.385,-9.98857 31.25834,2.58528c7.87334,12.45633 -5.6406,29.37814 -34.07864,23.50251c-21.85733,-4.23045 -27.49793,-16.33424 -26.08778,-23.03246c1.41016,-6.69821 9.51852,-8.81344 9.51852,-8.81344z" fill="#ffffff" stroke="none" stroke-width="1" stroke-linecap="butt" stroke-linejoin="miter"></path><path d="M245.34225,168.7669c0.35254,5.75811 -0.70508,13.27892 -11.39872,14.45404c-12.33882,0.70507 -16.8043,-8.10838 -17.86191,-11.28121c-0.23502,-0.58756 0.23502,-1.17513 0.82259,-1.05761c1.76268,0.35254 5.52308,0.70508 11.86876,0.35254c7.05076,-0.47005 13.39643,-2.35024 15.62917,-3.17283c0.47005,-0.11752 0.9401,0.23502 0.9401,0.70507z" fill="#ffffff" stroke="#001026" stroke-width="1.2" stroke-linecap="round" stroke-linejoin="round"></path><path d="M200.68747,162.06867c0,0 -8.4609,-0.11752 -13.98399,-4.58299" fill="none" stroke="#001026" stroke-width="1.2" stroke-linecap="round" stroke-linejoin="round"></path><path d="M200.21743,169.00193c0,0 -4.58299,2.23275 -11.98628,1.64518" fill="none" stroke="#001026" stroke-width="1.2" stroke-linecap="round" stroke-linejoin="round"></path><path d="M228.18541,158.89585c2.35025,0 5.5231,0.11751 5.40558,1.52766c0,1.88021 -4.93552,4.81801 -7.05075,4.58299c-1.8802,-0.11751 -3.6429,-3.40786 -3.52538,-5.05304c0.11752,-0.82259 2.7028,-1.05761 5.17056,-1.05761z" fill="#001026" stroke="#001026" stroke-width="1.2" stroke-linecap="round" stroke-linejoin="round"></path><path d="M266.84704,164.0664c4.11294,-3.64289 14.21902,-6.93324 14.21902,-6.93324" fill="none" stroke="#001026" stroke-width="1.2" stroke-linecap="round" stroke-linejoin="round"></path><path d="M280.24347,168.88441c0,0 -8.69593,1.29264 -13.74897,-0.70507" fill="none" stroke="#001026" stroke-width="1.2" stroke-linecap="round" stroke-linejoin="round"></path><g><path d="M226.54024,139.50627c3.29036,2.11522 3.17285,8.10837 -0.23502,13.39643c-3.52538,5.28806 -8.93096,7.75583 -12.22131,5.6406c-3.29036,-2.11522 -3.17285,-8.10837 0.23502,-13.39643c3.40787,-5.28806 8.93096,-7.87334 12.22131,-5.6406z" fill="#ffffff" stroke="#001026" stroke-width="1.2" stroke-linecap="round" stroke-linejoin="round"></path><path d="M214.78898,151.8451c0,-1.29264 0.94011,-2.35025 2.11523,-2.35025c1.17513,0 2.11523,1.05761 2.11523,2.35025c0,1.29264 -0.94011,2.35025 -2.11523,2.35025c-1.17513,0 -2.11523,-1.05761 -2.11523,-2.35025" fill="#001026" stroke="none" stroke-width="1" stroke-linecap="butt" stroke-linejoin="miter"></path></g><g><path d="M256.1534,143.14917c3.6429,2.58528 3.40787,9.28348 -0.23502,14.45404c-3.52539,5.17056 -8.69593,6.81573 -12.57385,4.58299c-3.17283,-2.23274 -3.40786,-8.57841 0.11752,-13.74897c3.52537,-5.17054 9.04846,-7.99084 12.69135,-5.28806z" fill="#ffffff" stroke="#001026" stroke-width="1.2" stroke-linecap="round" stroke-linejoin="round"></path><path d="M244.16712,155.25296c0,-1.29264 0.94011,-2.23273 2.11523,-2.35025c1.17513,0 2.11523,1.05761 2.11523,2.35025c0,1.29264 -0.94011,2.35025 -2.11523,2.35025c-1.17513,0 -2.11523,-1.05761 -2.11523,-2.35025" fill="#001026" stroke="none" stroke-width="1" stroke-linecap="butt" stroke-linejoin="miter"></path></g></g><path d="M250.73964,194.54853c-3.00066,3.30586 -6.3022,-2.03498 -5.02832,-8.53715c1.206,-6.24266 6.71767,-28.39928 5.29799,-36.03508c-1.39164,-7.19867 -9.46487,-14.43796 -6.52153,-27.86579c2.87543,-13.1683 9.17892,-1.88557 13.34076,11.5965c5.42514,17.36141 1.22976,50.81469 -7.08887,60.84151z" data-paper-data="{&quot;index&quot;:null}" fill="#ffab19" stroke="#001026" stroke-width="1.2" stroke-linecap="round" stroke-linejoin="round"></path></g></g></svg>