<svg version="1.1" xmlns="http://www.w3.org/2000/svg" xmlns:xlink="http://www.w3.org/1999/xlink" width="134.06591" height="115.41657" viewBox="0,0,134.06591,115.41657"><g transform="translate(-170.87151,-128.87366)"><g data-paper-data="{&quot;isPaintingLayer&quot;:true}" fill-rule="nonzero" stroke-miterlimit="10" stroke-dasharray="" stroke-dashoffset="0" style="mix-blend-mode: normal"><g data-paper-data="{&quot;index&quot;:null}" stroke="none" stroke-width="0.77185" stroke-linecap="butt" stroke-linejoin="miter"><path d="M235.29858,242.77103c-1.6,-0.91501 -1.5784,-2.3782 -1.1191,-3.73197c-1.8231,0.82871 -3.9997,1.52498 -5.9186,1.52498c-1.5344,0 -2.73,-0.44231 -3.5528,-1.31417c-1.6069,-1.7056 -1.5051,-3.28882 -1.1361,-4.31604c0.2037,-0.57046 0.538,-1.09842 0.9532,-1.57102c-3.0094,-0.31939 -4.2428,-1.72712 -4.3625,-2.95359c-0.1582,-1.60988 1.3785,-3.61967 6.0999,-4.56133c0.1907,-0.12516 0.423,-0.19776 0.6677,-0.19776c0.2284,0 0.5055,0.09711 0.6954,0.21435c0.873,0.54091 4.0314,2.44213 8.0102,4.21529c2.2569,1.00708 10.5219,2.38817 13.5158,2.83486c0.3883,0.05834 0.7186,0.29637 0.8769,0.63234c0.1582,0.33588 0.1219,0.72367 -0.095,1.02936c-0.8189,1.15312 -5.4654,5.87196 -6.6471,6.65677c-0.0263,0.0165 -0.0533,0.03308 -0.0803,0.04818c-0.142,0.07912 -3.5103,1.92992 -6.0652,1.92992c-0.7371,0 -1.3638,-0.15247 -1.8424,-0.44017z" fill="#f7941e"></path><path d="M226.93028,226.72906c-0.0008,0 0.0363,0.02377 0.1127,0.07484c-7.5904,1.30485 -7.2893,5.54754 -1.1879,5.54754c0.8822,0 1.8848,-0.08854 3.0033,-0.28705c-2.3102,0.44669 -6.269,3.30252 -3.2804,6.47401c0.6399,0.67763 1.5916,0.94744 2.6829,0.94744c3.0048,0 7.0663,-2.04437 8.5807,-3.24567c-0.6121,1.4329 -3.0411,4.40877 -0.9378,5.61082c0.3311,0.19851 0.7572,0.28192 1.238,0.28192c1.8223,0 4.4181,-1.19264 5.4739,-1.7782c1.0413,-0.69124 5.606,-5.32089 6.3531,-6.37327c0,0 -10.9293,-1.63216 -13.833,-2.92769c-4.6982,-2.09479 -8.1978,-4.32471 -8.2055,-4.32471M228.26628,224.96596c0.8568,0.5302 3.9581,2.39758 7.8675,4.1398c1.8964,0.84669 9.1031,2.13281 13.2009,2.74427c0.7772,0.11584 1.4379,0.59133 1.7536,1.26384c0.3165,0.67186 0.2447,1.44735 -0.1899,2.05807c-0.8011,1.12722 -5.5812,6.03738 -6.9404,6.93944c-0.0517,0.03448 -0.1058,0.06692 -0.1606,0.09786c-0.3843,0.21286 -3.8376,2.08099 -6.6571,2.08099c-0.9517,0 -1.7822,-0.20569 -2.4692,-0.61212c-1.3492,-0.77838 -1.8563,-1.81855 -1.9188,-2.8946c-1.4927,0.51286 -3.0611,0.85955 -4.4929,0.85955c-2.3433,0 -3.6979,-0.91426 -4.4219,-1.68034c-1.5375,-1.6329 -2.0222,-3.5399 -1.3654,-5.37205c0.0587,-0.16393 0.1266,-0.32507 0.2014,-0.48267c-2.4621,-0.70923 -3.5319,-2.23924 -3.6655,-3.60094c-0.2014,-2.04875 1.5082,-4.56133 6.8162,-5.67485c0.3327,-0.16692 0.7101,-0.26114 1.1061,-0.26114c0.7,0 1.1624,0.2863 1.336,0.39487z" fill="#000000"></path></g><path d="M230.13012,189.90379c0,0 -15.32457,13.70375 -33.68062,17.37889c-18.35606,3.67511 -31.37825,3.40913 -20.38589,-8.48938c14.12598,-15.29115 46.41409,-20.50804 66.435,-21.82432" data-paper-data="{&quot;index&quot;:null}" fill="#8a8fc6" stroke="#000000" stroke-width="2.31554" stroke-linecap="round" stroke-linejoin="round"></path><g data-paper-data="{&quot;index&quot;:null}" stroke="none" stroke-width="0.77185" stroke-linecap="butt" stroke-linejoin="miter"><g><path d="M257.48624,233.66065c-0.1176,0.02962 -0.34285,0.08456 -0.67163,0.1488c0,0 0,0 -0.00078,0.00015c-2.20589,0.43102 -10.25227,1.49976 -21.19764,-2.82906c-5.73447,-2.2686 -10.05501,-5.02896 -12.84069,-8.20506c-4.28443,-4.88567 -4.91657,-10.61249 -1.87799,-17.02132c17.75626,-37.44788 11.89274,-40.1354 5.10471,-43.24774c-2.17253,-0.99599 -4.63602,-2.12487 -6.52739,-4.30231c-2.01687,-2.3207 -0.83295,-6.96356 0.64285,-11.28019c0.00965,-0.05905 0.02393,-0.119 0.04459,-0.17803c0.18511,-0.54193 0.41356,-1.1113 0.69844,-1.74233l0.14405,-0.31768c0.0196,-0.04048 0.04027,-0.07966 0.06359,-0.12087c0.26436,-0.55086 0.51435,-1.02626 0.76558,-1.45501c0.33652,-0.57218 4.7628,-6.40351 10.04077,-9.2319c0.56339,-0.30067 4.4565,-2.0061 6.61207,-2.67429c0.27436,-0.08513 0.73978,-0.18273 1.08212,-0.24962c1.16133,-0.22692 28.53986,-5.38223 36.36072,10.00366c1.3571,2.67098 2.52426,5.08592 3.05101,7.59295c1.32678,6.31525 -0.11188,13.00734 -4.3985,20.43481c4.68723,4.04101 7.58988,10.08207 10.40219,15.93405c2.43339,5.06408 4.73266,9.84801 7.98758,13.15149c0.9375,0.86564 1.91451,1.63203 2.86022,2.37442c2.54977,2.00112 5.1868,4.07017 6.95656,8.04435c0.39413,0.88607 0.67351,1.78866 0.83197,2.68411c1.10031,6.2429 -3.59085,11.49936 -11.67516,13.07898c-0.45755,0.0894 -0.92753,0.16727 -1.46029,0.24203l-0.12281,0.01962c-0.50718,0.07271 -1.01969,0.15822 -1.53873,0.25517l-0.69291,0.14051c-0.35606,0.07327 -0.71222,0.14649 -1.07207,0.22856c-0.27242,0.06273 -0.54599,0.12796 -0.82424,0.19695c-0.32363,0.07862 -0.64896,0.16051 -0.97374,0.24524c-0.30044,0.07998 -0.60191,0.1594 -0.90628,0.24375c-0.29865,0.08182 -0.59863,0.16835 -0.90083,0.25597c0,0 -0.72875,0.21058 -0.99468,0.29035l-0.70981,0.21931c-1.37201,0.42419 -2.84853,0.90547 -4.64684,1.51485c-0.75232,0.25469 -1.50615,0.51413 -2.26252,0.77265c-4.8936,1.67663 -9.95432,3.41157 -14.79645,4.35769c-0.87868,0.17168 -1.73805,0.31397 -2.55708,0.42491z" fill="#8a8fc6"></path><path d="M239.77585,132.01324c-0.47266,0.09235 -0.79974,0.16946 -0.95317,0.21702c-2.12747,0.65974 -5.92755,2.3339 -6.3961,2.58441c-5.07169,2.71706 -9.35183,8.40256 -9.58379,8.79752c-0.25937,0.44353 -0.49713,0.90477 -0.72308,1.37481c-0.01947,0.04113 -0.04348,0.07886 -0.06318,0.11936c-0.04613,0.09771 -0.08967,0.1971 -0.13405,0.29588c-0.24077,0.53447 -0.46672,1.08066 -0.66158,1.64937c0,0 0.01001,-0.00927 0.02477,-0.0224c-0.80168,2.32466 -2.85494,8.23834 -0.90795,10.47887c7.62362,8.77378 25.15423,-1.06705 1.57332,48.66316c-6.50906,13.72669 6.39522,20.74818 14.13857,23.8109c10.6009,4.19235 18.28346,3.20505 20.51811,2.76841c0.43782,-0.08555 0.66747,-0.15026 0.66747,-0.15026c0.84608,-0.11328 1.69978,-0.25587 2.56109,-0.42417c5.49361,-1.07342 11.273,-3.17896 16.89821,-5.08799c1.57548,-0.5343 3.13736,-1.04906 4.6793,-1.52556c0.23956,-0.07396 0.48031,-0.15025 0.71949,-0.22196c0.33714,-0.10177 0.67165,-0.19715 1.00658,-0.2941c0.30658,-0.08925 0.61197,-0.17674 0.91646,-0.26046c0.30818,-0.08519 0.61394,-0.1661 0.91909,-0.24701c0.33367,-0.08723 0.66565,-0.17108 0.99682,-0.25127c0.28138,-0.0696 0.56228,-0.13693 0.84078,-0.20084c0.36882,-0.08459 0.7348,-0.15971 1.09921,-0.23462c0.19735,-0.04074 0.39657,-0.08338 0.59355,-0.12186c0.04092,-0.008 0.08122,-0.01511 0.12135,-0.02296c0.53561,-0.10029 1.06506,-0.18826 1.58983,-0.26373c0.059,-0.00783 0.1194,-0.02039 0.1785,-0.02824c0.46024,-0.06361 0.90732,-0.13778 1.34287,-0.22289c7.81463,-1.52692 11.6891,-6.44709 10.74221,-11.81624c-0.14245,-0.80989 -0.39535,-1.62908 -0.76005,-2.44902c-2.29907,-5.16144 -6.05345,-6.83118 -9.57089,-10.07758c-7.52097,-7.62839 -10.03579,-22.51121 -19.02401,-29.60734c0,0 -0.00014,-0.00073 0.00054,-0.00087c3.75612,-6.26691 6.24364,-13.20572 4.72055,-20.45738c-0.50773,-2.41702 -1.65578,-4.77113 -2.9628,-7.34278c-6.79377,-13.36501 -29.89097,-10.44755 -35.10802,-9.42817M276.97483,140.47069c1.39035,2.73636 2.58642,5.21526 3.13833,7.84271c1.33695,6.36312 -0.00602,13.06215 -4.10375,20.43363c4.48051,4.15843 7.29706,10.02059 10.02958,15.70564c2.38674,4.96617 4.64132,9.65847 7.7913,12.87183c0.89434,0.82204 1.84097,1.56492 2.75685,2.2839c2.65199,2.08152 5.39406,4.23346 7.26863,8.44213c0.42761,0.9609 0.73129,1.94308 0.90391,2.91934c1.21152,6.86842 -3.85553,12.63208 -12.60723,14.34212c-0.48179,0.09414 -0.97919,0.17671 -1.47921,0.24583c-0.0685,0.01187 -0.12799,0.02131 -0.18697,0.02922c-0.46583,0.0668 -0.96558,0.14983 -1.46412,0.24277l-0.10239,0.01934c-0.11963,0.02338 -0.24057,0.04843 -0.36069,0.07408l-0.21168,0.04354c-0.34546,0.0712 -0.6925,0.14262 -1.04346,0.22221c-0.26407,0.06119 -0.53225,0.12528 -0.79932,0.19142c-0.32432,0.07875 -0.64224,0.15844 -0.96171,0.24213c-0.29169,0.07675 -0.58841,0.15599 -0.88628,0.23765c-0.29537,0.08192 -0.58964,0.16582 -0.88428,0.25199l-0.20626,0.05929c-0.2592,0.0741 -0.51748,0.14878 -0.77743,0.22739c-0.15369,0.04617 -0.30483,0.09403 -0.45691,0.14065l-0.24686,0.07681c-1.36102,0.42052 -2.82774,0.89922 -4.6151,1.50418c-0.75015,0.25435 -1.50412,0.51307 -2.2588,0.77191c-4.93342,1.6903 -10.03474,3.43906 -14.96088,4.4016c-0.8772,0.1714 -1.73777,0.31543 -2.55971,0.42761c-0.14688,0.03677 -0.37201,0.08808 -0.669,0.1461c-2.28842,0.44714 -10.62829,1.56004 -21.87863,-2.88877c-5.90321,-2.33535 -10.36776,-5.1966 -13.26785,-8.50352c-4.51496,-5.14771 -5.21753,-11.42 -2.0311,-18.13918c8.07136,-17.0208 11.88616,-28.30372 11.66251,-34.49143c-0.16924,-4.67388 -2.50255,-5.74395 -6.03474,-7.36328c-2.27607,-1.04309 -4.85543,-2.22567 -6.90173,-4.58022c-2.34699,-2.70186 -1.12948,-7.65987 0.4221,-12.20821c0.0182,-0.08417 0.04105,-0.1685 0.06961,-0.25176c0.19627,-0.57344 0.43682,-1.17378 0.73528,-1.83536l0.03497,-0.07862c0.03717,-0.08352 0.07569,-0.16796 0.11459,-0.25106c0.03017,-0.06306 0.05884,-0.11709 0.0872,-0.16954c0.27043,-0.56363 0.52958,-1.05259 0.78903,-1.49614c0.41107,-0.70116 4.9439,-6.69176 10.49601,-9.66688c0.6053,-0.32348 4.5633,-2.06287 6.82935,-2.76583c0.26395,-0.08158 0.67169,-0.17663 1.21404,-0.28261c1.19696,-0.23389 29.41871,-5.54523 37.6128,10.57538z" fill="#000000"></path></g><path d="M257.27439,232.60043c0,0 -8.50568,2.39714 -21.18558,-2.61814c-7.74323,-3.06272 -20.64685,-10.08437 -14.13857,-23.8109c23.581,-49.73023 6.05026,-39.89013 -1.57332,-48.66316c-1.947,-2.24054 0.10612,-8.15494 0.90795,-10.47887c-0.01475,0.01314 -0.02467,0.02238 -0.02467,0.02238c0.19476,-0.56868 0.42071,-1.11489 0.66149,-1.64936c0.04447,-0.09881 0.08792,-0.19817 0.13415,-0.2959c0.01946,-0.04122 0.04358,-0.07889 0.06318,-0.11936c8.33151,-5.07134 22.30598,-6.62837 30.43829,4.86925c6.95894,9.8352 -12.77218,32.01616 3.04902,36.01093c6.09608,1.53904 19.29788,7.24535 20.9193,15.54351c1.62141,8.29818 -1.82015,18.85941 -0.21202,24.40873c0.13645,0.46883 0.27681,0.88117 0.42024,1.26945c-6.50746,2.20744 -13.21897,4.67837 -19.45944,5.51143z" fill="#ffffff"></path></g><g data-paper-data="{&quot;index&quot;:null}" stroke="none" stroke-width="0.77185" stroke-linecap="butt" stroke-linejoin="miter"><path d="M227.2674,180.64131c-0.65531,0.12804 -1.30405,0.19688 -1.92871,0.20384c-3.45593,0.25972 -5.98851,-0.36537 -7.52887,-1.85714c-0.41706,-0.40375 -0.42057,-1.04954 -0.00705,-1.47695c0.11044,-0.11474 0.25076,-0.20958 0.40047,-0.27254c0.25138,-0.10628 5.4166,-2.34099 7.38211,-7.08091c-3.54965,1.82891 -8.425,3.7637 -12.46334,4.55276c-1.18558,0.23165 -2.27245,0.36047 -3.2284,0.3823c-3.92324,0.09009 -6.13051,-1.18856 -7.29097,-2.27747c-1.35391,-1.27019 -2.10191,-3.03338 -2.05239,-4.83654c0.08191,-3.09439 2.27147,-3.89894 4.80671,-4.83034c1.28834,-0.47385 2.74852,-1.01052 4.39711,-1.93515c1.44181,-0.80799 2.47989,-1.68141 3.57871,-2.60633c1.84171,-1.55017 3.92955,-3.30598 8.17609,-4.86501c0.36697,-0.14207 0.75958,-0.25401 1.16709,-0.33363c5.7852,-1.13039 14.14612,4.1351 17.47878,9.41859c1.27341,2.01739 1.19529,4.73281 -0.21983,7.64492c-2.35482,4.84533 -7.80163,9.21666 -12.66779,10.16813c-0.00078,0.00015 -0.00157,0.00031 0.00028,0.00147z" fill="#f7941e"></path><path d="M222.88287,154.46721c-0.33329,0.06513 -0.65449,0.15572 -0.95873,0.27308c-6.53385,2.39881 -7.52155,5.11164 -11.59711,7.39656c-5.04588,2.82929 -8.528,2.24681 -8.62369,5.83864c-0.07127,2.60555 1.90021,6.179 8.19105,6.03451c0.92383,-0.02145 1.94398,-0.14965 3.01963,-0.35984c5.00269,-0.97749 11.21158,-3.73063 14.46568,-5.74442c-1.02425,7.16311 -8.72884,10.31543 -8.73147,10.31813c1.25226,1.21247 3.4553,1.78535 6.66761,1.53808c0.57254,-0.00409 1.15555,-0.06674 1.74421,-0.18175c7.33804,-1.43381 15.36454,-11.00872 12.09691,-16.18471c-3.30631,-5.24096 -11.29643,-9.90089 -16.27409,-8.92829M241.1534,162.25857c1.46806,2.32528 1.40785,5.39417 -0.17003,8.6408c-2.53867,5.22426 -8.22114,9.76621 -13.50934,10.79949c-0.71587,0.13988 -1.42608,0.21634 -2.11294,0.22673c-3.79143,0.27761 -6.61465,-0.45412 -8.39263,-2.17588c-0.83411,-0.80741 -0.84033,-2.09906 -0.01348,-2.95478c0.22196,-0.22873 0.49609,-0.41571 0.79618,-0.54177c0.16847,-0.07176 2.76187,-1.19202 4.83721,-3.48267c-2.98247,1.2827 -6.30222,2.4203 -9.26039,2.99831c-1.25448,0.24512 -2.41149,0.38098 -3.43864,0.40506c-4.32421,0.09882 -6.80087,-1.35081 -8.11617,-2.58457c-1.56954,-1.47219 -2.43719,-3.51757 -2.37924,-5.61194c0.10136,-3.82815 3.00402,-4.89518 5.56491,-5.83607c1.24444,-0.4571 2.65617,-0.97633 4.2205,-1.85298c1.34249,-0.7526 2.29287,-1.55182 3.39382,-2.47789c1.91474,-1.61126 4.0855,-3.43758 8.5407,-5.07548c0.42883,-0.1644 0.88477,-0.29385 1.35517,-0.38576c6.33598,-1.23801 15.09047,4.21077 18.68437,9.90937z" fill="#000000"></path></g><path d="M238.53628,149.43187c0.64096,0.51972 1.13073,1.31532 1.31584,2.26272c0.18511,0.94742 0.03086,1.86885 -0.36733,2.59161c-0.39814,0.72352 -1.04108,1.24863 -1.83349,1.40347c-0.79232,0.15481 -1.58572,-0.08966 -2.22682,-0.61011c-0.64106,-0.5197 -1.13082,-1.31529 -1.31594,-2.26271c-0.18511,-0.94742 -0.03086,-1.86885 0.36743,-2.59163c0.39804,-0.7235 1.04109,-1.24853 1.83341,-1.40336c0.79242,-0.15483 1.58571,0.08957 2.22691,0.60999z" data-paper-data="{&quot;index&quot;:null}" fill="#000000" stroke="none" stroke-width="0.77185" stroke-linecap="butt" stroke-linejoin="miter"></path><path d="M261.50831,184.38923c0,0 12.95627,7.13405 15.46924,18.43887c2.51287,11.30488 1.36225,19.94713 -10.04334,15.27796c-14.65786,-5.99999 -17.8044,-26.15537 -17.79676,-39.06872" data-paper-data="{&quot;index&quot;:null}" fill="#8a8fc6" stroke="#000000" stroke-width="2.32134" stroke-linecap="round" stroke-linejoin="round"></path></g></g></svg>