<svg version="1.1" xmlns="http://www.w3.org/2000/svg" xmlns:xlink="http://www.w3.org/1999/xlink" width="108.50944" height="27.11021" viewBox="0,0,108.50944,27.11021"><defs><linearGradient x1="220.218" y1="167.44999" x2="220.218" y2="193.55511" gradientUnits="userSpaceOnUse" id="color-1"><stop offset="0" stop-color="#bf5d00"></stop><stop offset="1" stop-color="#ff7b00"></stop></linearGradient><linearGradient x1="261" y1="166.44489" x2="261" y2="191.04896" gradientUnits="userSpaceOnUse" id="color-2"><stop offset="0" stop-color="#bf5d00"></stop><stop offset="1" stop-color="#ff7b00"></stop></linearGradient></defs><g transform="translate(-185.74528,-166.44489)"><g data-paper-data="{&quot;isPaintingLayer&quot;:true}" fill-rule="nonzero" stroke="#ffffff" stroke-width="0" stroke-linecap="butt" stroke-linejoin="miter" stroke-miterlimit="10" stroke-dasharray="" stroke-dashoffset="0" style="mix-blend-mode: normal"><path d="M254.69074,180.50255c0,7.20873 -15.43397,13.05256 -34.47273,13.05256c-19.03876,0 -34.47273,-5.84383 -34.47273,-13.05256c0,-7.20873 15.43397,-13.05256 34.47273,-13.05256c19.03876,0 34.47273,5.84383 34.47273,13.05256z" fill="url(#color-1)"></path><path d="M261,166.44489c18.36607,0 33.25472,5.5078 33.25472,12.30203c0,6.79423 -14.88865,12.30203 -33.25472,12.30203c-18.36607,0 -33.25472,-5.5078 -33.25472,-12.30203c0,-6.79423 14.88865,-12.30203 33.25472,-12.30203z" fill="url(#color-2)"></path></g></g></svg>