<svg version="1.1" xmlns="http://www.w3.org/2000/svg" xmlns:xlink="http://www.w3.org/1999/xlink" width="111.88114" height="128.16169" viewBox="0,0,111.88114,128.16169"><g transform="translate(-184.88634,-115.00279)"><g data-paper-data="{&quot;isPaintingLayer&quot;:true}" fill-rule="evenodd" stroke-miterlimit="10" stroke-dasharray="" stroke-dashoffset="0" style="mix-blend-mode: normal"><path d="M260.75149,118.69308c0.38185,-0.19772 0.96191,-0.01422 1.02855,0.47237l1.69338,13.0065c0,0 6.98047,6.39774 8.80527,10.55208c3.08085,6.92824 2.61465,12.26891 2.61465,12.26891c0,0 8.14866,3.41068 8.83127,10.3153c0.68258,6.90461 -5.93999,19.11809 -28.72026,21.05076c-22.78026,1.93268 -40.02814,-6.07141 -46.96817,-20.49259c-6.94004,-14.42117 8.11219,-29.06425 7.29653,-28.19524l-0.16459,-21.46566c-0.06663,-0.48659 0.56542,-0.77668 1.01389,-0.48779l13.32559,10.92846c0,0 5.55857,-1.42676 11.15939,-1.05157c3.34717,0.12779 6.16792,0.67705 8.84406,1.45009z" fill="#ffab19" stroke="#001026" stroke-width="1.2" stroke-linecap="butt" stroke-linejoin="miter"></path><path d="M274.48549,155.42746c0,0 7.95044,3.02947 8.63302,9.93406c0.68258,6.90461 -6.34947,18.47403 -28.8795,20.31438c-29.35435,2.76868 -41.1235,-15.77718 -31.79879,-27.45438c9.33769,-11.7956 21.79567,0.47543 31.8372,0.8588c8.60518,0.34551 10.37284,-7.00905 20.2081,-3.65287z" fill="#ffffff" stroke="none" stroke-width="1" stroke-linecap="butt" stroke-linejoin="miter"></path><path d="M235.73155,163.99401c0.05198,-0.47356 0.56542,-0.77668 1.02689,-0.60619c2.16268,1.07614 8.3599,3.67352 15.42474,4.92831c6.36616,1.05828 10.20079,1.11975 12.01899,0.95988c0.60606,-0.05329 1.01555,0.59075 0.71334,1.15668c-1.41844,3.07941 -6.90045,11.46406 -19.27692,9.38656c-10.6639,-2.36879 -10.89966,-10.06307 -9.90703,-15.82524z" fill="#ffffff" stroke="#001026" stroke-width="1.2" stroke-linecap="round" stroke-linejoin="round"></path><path d="M296.16749,159.12552c-6.06869,3.88695 -14.62189,3.06787 -14.62189,3.06787" fill="none" stroke="#001026" stroke-width="1.2" stroke-linecap="round" stroke-linejoin="round"></path><path d="M293.16995,172.2162c-7.53765,-0.22833 -11.91666,-2.98557 -11.91666,-2.98557" fill="none" stroke="#001026" stroke-width="1.2" stroke-linecap="round" stroke-linejoin="round"></path><path d="M254.14085,155.95003c2.49089,0.27343 5.0744,0.79666 5.10206,1.63842c-0.06332,1.67052 -2.20643,4.79019 -4.11725,4.70027c-2.16104,0.00242 -6.81792,-3.50426 -6.60998,-5.39853c0.03734,-1.43371 3.2529,-1.20058 5.62519,-0.94017z" fill="#001026" stroke="#001026" stroke-width="1.2" stroke-linecap="round" stroke-linejoin="round"></path><path d="M200.95955,148.31497c0,0 9.83689,4.43473 13.5855,8.56061" fill="none" stroke="#001026" stroke-width="1.2" stroke-linecap="round" stroke-linejoin="round"></path><path d="M214.44605,161.05836c-5.32133,1.45279 -13.9558,-0.81303 -13.9558,-0.81303" fill="none" stroke="#001026" stroke-width="1.2" stroke-linecap="round" stroke-linejoin="round"></path><g><path d="M269.65783,143.63454c2.85497,5.70526 2.31079,11.75626 -1.24432,13.52276c-3.55511,1.76649 -8.73844,-1.31868 -11.71202,-7.03696c-2.85497,-5.70526 -2.31079,-11.75626 1.24432,-13.52276c3.5681,-1.88487 8.85705,1.33171 11.71202,7.03696z" fill="#ffffff" stroke="#001026" stroke-width="1.2" stroke-linecap="round" stroke-linejoin="round"></path><path d="M268.44259,150.33081c-0.14296,1.30232 -1.20883,2.26368 -2.39497,2.13348c-1.18613,-0.1302 -2.01808,-1.2999 -1.87512,-2.60222c0.14296,-1.30232 1.20883,-2.26368 2.39497,-2.13348c1.18613,0.1302 2.01808,1.2999 1.87512,2.60222" fill="#001026" stroke="none" stroke-width="1" stroke-linecap="butt" stroke-linejoin="miter"></path></g><g><path d="M239.87768,143.72046c2.98658,5.59988 2.04757,11.96701 -1.40193,13.86492c-4.16118,1.81978 -9.19825,-0.41061 -12.18483,-6.01048c-3.1052,-5.6129 -2.60166,-12.38729 1.36128,-14.5883c3.97594,-2.3194 9.23888,1.13398 12.22548,6.73387z" fill="#ffffff" stroke="#001026" stroke-width="1.2" stroke-linecap="round" stroke-linejoin="round"></path><path d="M238.41224,150.5091c-0.14296,1.30232 -1.20883,2.26368 -2.39497,2.13348c-1.18613,-0.1302 -2.01808,-1.2999 -1.87512,-2.60222c0.14296,-1.30232 1.20883,-2.26368 2.39497,-2.13348c1.17314,0.2486 2.01808,1.2999 1.87512,2.60222" fill="#001026" stroke="none" stroke-width="1" stroke-linecap="butt" stroke-linejoin="miter"></path></g><path d="M216.56727,200.5779c0.60393,1.05978 3.64487,2.88381 -0.80296,5.12763c-4.55296,2.1081 -15.73743,4.48174 -25.22996,-6.37089c-10.22852,-11.8027 -2.60329,-25.49533 2.66959,-25.41326c5.15427,0.06906 2.19497,8.43714 4.82137,18.41189c3.69695,14.43874 17.93803,7.18485 18.54196,8.24463z" fill="#ffab19" stroke="#001026" stroke-width="1.2" stroke-linecap="round" stroke-linejoin="round"></path><path d="M195.82472,180.66669c0.0004,5.46419 0.78246,9.27559 0.78246,9.27559c0,0 -1.62842,-2.66246 -4.52904,-2.4841c-3.50715,0.23593 -4.89795,3.0637 -5.11085,3.90964c-0.60132,-2.17715 -1.03014,-4.83213 -0.308,-9.22349c1.0645,-4.22962 4.15893,-8.36061 7.07038,-7.54427c2.3184,0.75123 1.98427,2.70153 2.09505,6.06667z" fill="#ffffff" stroke="none" stroke-width="1" stroke-linecap="butt" stroke-linejoin="miter"></path><path d="M220.7413,213.95135c-0.95153,1.01322 -3.79525,5.04754 -9.8928,8.10375c-4.19712,2.14717 -13.80787,-3.2543 -13.80787,-3.2543c-0.17166,11.40619 -9.04079,10.18422 -10.29729,6.32076c-0.98148,-3.08818 0.64311,-15.70091 3.36039,-16.3961c4.1945,-1.02978 9.38135,2.02328 14.24452,2.55712c1.42336,0.15625 3.31555,-2.86485 7.0139,-5.93606c2.64167,-2.19373 6.22401,-6.39533 10.85558,-2.65811c3.9603,3.29097 1.1409,8.19725 -1.47644,11.26296z" data-paper-data="{&quot;index&quot;:null}" fill="#ffab19" stroke="#001026" stroke-width="1.2" stroke-linecap="round" stroke-linejoin="round"></path><path d="M244.51774,191.7833c0.11588,0.8772 -0.34972,14.0317 2.86788,13.9459c3.8125,-0.03952 10.03685,-1.37573 10.53093,5.38408c0.49409,6.75981 -10.02448,6.50173 -13.79085,5.45264c-8.58149,-2.99199 -8.72904,-14.31778 -8.48872,-17.09966c0.24031,-2.78188 0.57986,-7.54445 2.68595,-10.29325c2.35606,-2.86937 5.91427,-0.52017 6.19485,2.61029z" fill="#ffab19" stroke="#001026" stroke-width="1.2" stroke-linecap="round" stroke-linejoin="round"></path><path d="M237.93506,218.07405c0.26719,4.12742 -6.4365,12.70544 -6.4365,12.70544c0,0 6.56457,5.81219 1.49151,10.47108c-3.73874,3.43933 -6.01152,0.08523 -13.71398,-9.57742c-1.15658,-1.49298 -0.94108,-3.45628 0.27461,-4.6889c2.81417,-2.67153 6.92483,-7.31186 4.80848,-9.90372c-3.05179,-2.81871 -6.57804,-5.68948 -8.78869,-7.42238c-9.07978,-6.95759 -1.16824,-13.41606 5.28736,-23.01476c3.45287,-5.20931 4.7146,-3.58056 11.66978,-1.32688c3.96551,1.05622 6.29739,1.68475 8.92037,1.8485c3.92773,0.30697 2.56951,6.11876 1.16524,9.06922c0,0 -2.15897,4.35786 -3.95688,6.52002c-2.22109,2.73663 -4.67941,5.44723 -6.22401,6.39533c0,0 5.1034,4.90668 5.50267,8.92444z" fill="#ffab19" stroke="#001026" stroke-width="1.2" stroke-linecap="round" stroke-linejoin="round"></path><path d="M231.53023,208.93c0,0 -1.61758,-1.66778 -3.31335,-3.71669c-2.12983,-2.46912 -4.30006,-4.57011 -1.51023,-8.11363c2.45831,-2.71059 4.90578,-6.41584 9.85279,-2.27142c4.73672,3.87293 2.1463,6.69324 2.1463,6.69324c-3.21564,5.23536 -7.17552,7.40853 -7.17552,7.40853z" fill="#ffffff" stroke="none" stroke-width="1" stroke-linecap="butt" stroke-linejoin="miter"></path><path d="M223.27121,188.80419c-2.10053,-3.83165 2.38939,-7.26192 7.14342,-5.18913c4.5666,1.96994 20.60885,10.41534 26.584,9.40751c5.64025,-1.01301 12.2102,-9.91029 21.98588,-5.26067c9.58821,4.54678 0.19343,11.00102 -10.57923,14.73453c-13.88124,4.88548 -38.65785,-2.99448 -45.13408,-13.69223z" data-paper-data="{&quot;index&quot;:null}" fill="#ffab19" stroke="#001026" stroke-width="1.2" stroke-linecap="round" stroke-linejoin="round"></path></g></g></svg>