<svg version="1.1" xmlns="http://www.w3.org/2000/svg" xmlns:xlink="http://www.w3.org/1999/xlink" width="183.85897" height="128.9919" viewBox="0,0,183.85897,128.9919"><g transform="translate(-156.21283,-129.62333)"><g data-paper-data="{&quot;isPaintingLayer&quot;:true}" fill-rule="nonzero" stroke="none" stroke-width="1" stroke-linecap="butt" stroke-linejoin="miter" stroke-miterlimit="10" stroke-dasharray="" stroke-dashoffset="0" style="mix-blend-mode: normal"><g><path d="M304.94892,225.54733c2.58543,-0.05289 10.76601,5.34246 12.97501,6.21216c2.28042,0.77222 4.62045,4.73402 -2.42917,1.06624c0,0 3.49031,5.25413 1.28802,4.98858c-2.20229,-0.26555 -3.83399,-3.55851 -3.83399,-3.55851c0,0 -0.25723,7.30175 -1.93351,6.52281c-1.67628,-0.77894 -1.65856,-5.70951 -1.65856,-5.70951c0,0 -1.02435,5.69098 -2.53845,4.28187c-0.70832,-0.66886 0.79747,-4.35919 -2.94497,-6.20276" fill="#a3b339"></path><path d="M295.31412,204.55529c-1.54443,4.56083 -2.10911,5.94472 -1.65292,10.02413c0.45618,4.07941 11.44319,9.73361 15.61495,13.24004c4.17176,3.50642 -0.05558,8.04873 -6.14314,6.13455c-5.19102,-1.70663 -18.54168,-4.74852 -22.78567,-10.40515c-4.14653,-5.58519 -3.17508,-13.86161 1.96063,-21.48342c5.27855,-7.81675 14.52455,-2.23988 13.00616,2.48986z" fill="#a3b339"></path><path d="M306.29144,237.61668c0.01933,-0.43526 -0.0588,-0.94192 -0.26045,-1.68891c-0.17561,-0.5781 -0.52009,-1.13014 -1.24774,-1.36374c-0.26636,-0.04537 -0.70161,-0.0647 -1.23432,-0.15547c-0.53272,-0.09075 -1.1629,-0.25293 -1.69561,-0.34369c-2.22833,-0.43445 -4.84653,-1.15457 -7.49078,-2.04361c-1.35784,-0.39578 -2.74171,-0.96043 -4.12559,-1.52511c-1.38388,-0.56467 -2.76775,-1.12934 -4.17767,-1.86289c-1.31247,-0.66213 -2.65096,-1.49315 -3.91804,-2.42166c-0.58481,-0.42853 -1.19565,-1.02595 -1.70904,-1.55196c-0.31844,-0.38317 -0.53942,-0.69489 -0.7604,-1.00664c-0.22099,-0.31174 -0.34448,-0.55205 -0.56547,-0.86379c-0.74108,-1.44188 -1.28721,-2.7409 -1.49557,-4.09203c-0.20835,-1.35113 -0.31925,-2.63083 -0.23521,-3.76768c0.07061,-2.34513 0.65461,-4.16426 1.14786,-5.45067c0.16217,-0.63018 0.35039,-1.09147 0.56467,-1.38388c0.04537,-0.26636 0.18822,-0.46129 0.18822,-0.46129c0,0 -0.2336,0.72765 -0.55796,1.98803c-0.32435,1.26037 -0.64199,3.12488 -0.4723,5.34648c0.08485,1.1108 0.26716,2.29303 0.61836,3.44923c0.27978,1.25365 0.79987,2.3838 1.48886,3.48789c0.12351,0.24031 0.34448,0.55205 0.56547,0.86379c0.22099,0.31174 0.34448,0.55205 0.6369,0.76631c0.41591,0.45458 1.00074,0.88312 1.58552,1.31165c1.16961,0.85708 2.41064,1.61668 3.72311,2.27881c1.31247,0.66213 2.62492,1.32426 4.0088,1.88894c1.28642,0.49324 2.67029,1.05791 3.95671,1.55116c2.57281,0.98649 5.11959,1.8041 7.20508,2.43346c0.63018,0.16217 1.09147,0.35039 1.52672,0.36974c0.43526,0.01933 1.06543,0.1815 1.52672,0.36974c0.55876,0.25964 0.97468,0.71423 1.12424,1.12343c0.31844,0.38317 0.29912,0.81841 0.35121,1.15619c0.10418,0.67556 0.01342,1.20827 -0.10339,1.5721c-0.1168,0.36383 -0.09075,0.53272 -0.09075,0.53272c0,0 -0.02604,-0.1689 -0.07814,-0.50668z" fill="#687a27"></path><path d="M303.92215,224.49532c-0.55876,-0.25964 -1.215,-0.59072 -1.96869,-0.9932c-0.75369,-0.40249 -1.50739,-0.80498 -2.18967,-1.30494c-1.53344,-0.97387 -2.99545,-2.0452 -4.34067,-3.48038c-0.53942,-0.69489 -1.17632,-1.46121 -1.7418,-2.32498c-0.31844,-0.38317 -0.56547,-0.86379 -0.64361,-1.37046c-0.09748,-0.07143 -0.12351,-0.24031 -0.14956,-0.40921l-0.12351,-0.24031c-0.02604,-0.1689 -0.14956,-0.40921 -0.10418,-0.67556c-0.08485,-1.1108 0.05127,-1.90988 0.18742,-2.70896c0.13613,-0.79908 0.36974,-1.52672 0.60334,-2.25438c0.88904,-2.64424 1.93432,-4.27515 1.93432,-4.27515c0,0 -0.18822,0.46129 -0.32435,1.26037c-0.13613,0.79908 -0.31764,1.86451 -0.54451,3.1963c-0.0647,0.70161 -0.22689,1.33178 -0.19412,2.10482c0.03278,0.77302 -0.00591,1.64352 0.09827,2.31908c0.13022,0.84444 0.4033,1.49397 0.77383,2.21491c0.44196,0.62348 0.98138,1.31836 1.59225,1.9158c1.22169,1.19486 2.61229,2.36364 3.90541,3.46105c1.29311,1.09738 2.65767,2.09729 3.72982,2.88294c2.24175,1.64272 3.70376,2.71407 3.70376,2.71407c0,0 -1.72164,-0.51258 -4.20372,-2.03178z" fill="#687a27"></path><path d="M320.32194,234.41553c-0.14284,0.19494 -0.35711,0.48734 -0.72095,0.37054c-0.31174,0.22099 -0.64952,0.27307 -1.08477,0.25374c-0.33778,0.05208 -0.70161,-0.0647 -1.06543,-0.1815c-0.72765,-0.2336 -1.24104,-0.7596 -1.55948,-1.14276c-0.31844,-0.38317 -0.39657,-0.88983 -0.39657,-0.88983c0,0 0.40921,-0.14956 0.8705,0.03865c0.60414,-0.00671 1.23432,0.15547 1.79307,0.4151c0.63018,0.16217 1.11753,0.5193 1.40993,0.73355c0.19494,0.14284 0.29241,0.21427 0.46129,0.18822c0.1689,-0.02604 0.24031,-0.12351 0.24031,-0.12351c0,0 0.09748,0.07143 0.05208,0.33778z" fill="#687a27"></path><path d="M315.5745,237.8277c-0.60414,0.00671 -1.42925,-0.29832 -1.94264,-0.8243c-0.22099,-0.31174 -0.44196,-0.62348 -0.66293,-0.93522c-0.22099,-0.31174 -0.27307,-0.64952 -0.32516,-0.98729c0.04537,-0.26636 0.09075,-0.53272 0.0647,-0.70161c-0.02604,-0.1689 0.04537,-0.26636 0.04537,-0.26636c0,0 0.09748,0.07143 0.19494,0.14284c0.26636,0.04537 0.46129,0.18822 0.65622,0.33107c0.48734,0.35711 0.8772,0.6428 1.36455,0.99991c0.41591,0.45458 0.83183,0.90916 1.15027,1.29232c0.41591,0.45458 0.56547,0.86379 0.56547,0.86379c0,0 -0.40921,0.14956 -1.1108,0.08485z" fill="#687a27"></path><path d="M310.58002,240.75926c-0.26636,-0.04537 -0.46129,-0.18822 -0.75369,-0.40249c-0.29241,-0.21427 -0.51339,-0.52601 -0.73435,-0.83774c-0.14956,-0.40921 -0.29912,-0.81841 -0.44869,-1.2276c-0.13022,-0.84444 -0.09156,-1.71495 0.16808,-2.27371c0.25964,-0.55876 0.54533,-0.94863 0.54533,-0.94863c0,0 0.31844,0.38317 0.32516,0.98729c0.12351,0.24031 0.34448,0.55205 0.39657,0.88983c0.22099,0.31174 0.27307,0.64952 0.32516,0.98729c0.10418,0.67556 0.20835,1.35113 0.2865,1.8578c0.12351,0.24031 0.07814,0.50668 0.10418,0.67556c0.02604,0.1689 0.05208,0.33778 0.05208,0.33778c0,0 0,0 -0.26636,-0.04537z" fill="#687a27"></path></g><g data-paper-data="{&quot;index&quot;:null}"><path d="M317.36597,227.68048c5.29595,0.53996 4.62319,-3.90464 6.71611,-3.71134c3.32324,0.2866 0.64433,3.75054 0.64433,3.75054c4.49662,-1.00824 5.67643,-5.13939 8.03817,-4.37219c3.85375,1.2609 -4.19152,5.45958 -4.19152,5.45958c3.42208,-0.29403 10.20858,-5.28007 11.41828,-2.69749c1.20256,2.40906 -11.47373,7.32904 -11.47373,7.32904c0,0 10.6979,0.67283 8.17403,1.93445c-2.52387,1.26162 -9.94834,-0.33921 -17.27324,0.48916" fill="#a3b339"></path><path d="M267.25997,211.11543c-0.88614,-9.65007 14.66254,-7.32941 17.08193,-2.16424c2.41938,5.16517 2.97126,6.66002 7.05901,10.63708c4.08776,3.97707 21.58073,5.85703 29.5144,7.91163c8.06097,2.16803 7.32709,8.20114 -1.49692,8.36232c-7.47352,0.19441 -25.44652,1.56457 -35.30386,-2.53863c-9.85733,-4.1032 -15.97546,-12.73161 -16.85452,-22.20816z" fill="#a3b339"></path><path d="M333.03641,235.96076c0,0 -0.98284,-0.03994 -3.16749,0.5209c-1.95853,0.09366 -4.65239,0.20073 -7.83409,0.37462c-0.60802,0.12688 -1.59084,0.08693 -2.31905,0.27389c-0.85552,0.07352 -1.83124,0.2071 -2.68676,0.28061c-1.83832,0.03358 -3.78973,0.30075 -5.87556,0.28097c-2.206,0.04029 -4.16454,0.13395 -6.49783,0.06081c-2.3333,-0.07314 -4.53929,-0.03285 -6.87971,-0.27951c-2.46059,-0.18658 -4.80101,-0.43325 -7.14853,-0.85341c-2.34751,-0.42017 -4.70217,-1.01387 -7.19833,-2.06803c-0.50209,-0.28024 -1.12435,-0.5004 -1.62642,-0.78063c-0.62939,-0.39368 -1.13147,-0.67393 -1.63353,-0.95416c-0.88397,-0.62056 -1.76794,-1.24112 -2.6519,-1.86166c-1.64776,-1.30119 -3.17534,-2.66245 -4.20794,-3.91699c-2.19252,-2.62251 -3.38798,-4.85807 -3.93984,-6.35292c-0.40322,-0.86085 -0.42457,-1.38141 -0.5661,-1.84187c-0.14154,-0.46048 -0.14864,-0.63398 -0.14864,-0.63398c0,0 0.00711,0.17352 0.26882,0.57391c0.1344,0.28695 0.53052,0.9743 0.92664,1.66165c0.91951,1.48812 2.47554,3.54345 4.65382,5.81893c1.27297,1.13439 2.54594,2.26878 4.18658,3.39645c0.75669,0.50711 1.64066,1.12768 2.51752,1.57471c0.50207,0.28023 0.87685,0.44704 1.37892,0.72728c0.37478,0.16679 0.99706,0.38697 1.49912,0.66719c1.99407,0.77392 4.22143,1.25417 6.32147,1.62098c2.22023,0.30674 4.44045,0.61347 6.65357,0.74669c2.22021,0.30674 4.42621,0.26644 6.63933,0.39966c2.33328,0.07314 4.4191,0.09292 6.50492,0.11271c1.95853,-0.09366 4.04433,-0.07386 5.88269,-0.10744c0.9828,0.03993 1.83833,-0.03358 2.69385,-0.1071c0.97569,-0.13359 1.9585,-0.09365 2.69384,-0.10709c3.4363,0.05299 6.26457,0.23286 8.35749,0.42616c2.09292,0.19331 3.20304,0.34667 3.20304,0.34667z" fill="#687a27"></path><path d="M316.94854,226.47262c0,0 -2.45348,-0.01306 -6.25745,-0.05935c-1.84546,-0.13993 -4.18586,-0.38658 -6.66069,-0.92021c-2.47483,-0.53362 -5.07695,-1.18067 -7.81347,-2.11468c-1.37183,-0.55377 -2.74366,-1.10753 -4.0024,-1.89488c-0.62937,-0.39368 -1.25875,-0.78735 -1.89523,-1.35453l-0.63649,-0.5672l-0.6436,-0.7407c-0.7709,-0.85414 -1.42161,-1.76837 -1.94502,-2.56915c-0.52342,-0.80077 -1.04683,-1.60157 -1.32277,-2.349c-1.22393,-2.92962 -1.42235,-4.77821 -1.42235,-4.77821c0,0 0.26883,0.57391 0.79224,1.3747c0.52343,0.80078 1.30854,2.00197 2.22096,3.31658c0.64358,0.7407 1.03971,1.42806 1.68331,2.16877c0.52342,0.80077 1.16701,1.54149 1.9308,2.22211l0.50919,0.45376l0.63649,0.5672c0.25459,0.22688 0.75668,0.50712 1.25874,0.78735c1.00415,0.56048 2.12848,1.06088 3.37301,1.5012c2.36176,0.76721 4.8437,1.47433 7.19833,2.06803c2.35463,0.59368 4.58196,1.07393 6.56182,1.50082c3.95971,0.85377 6.43454,1.3874 6.43454,1.3874z" fill="#687a27"></path><path d="M328.51758,233.43861c0,0 0.58668,-0.64743 1.17339,-1.29484c0.94727,-0.82763 2.38237,-1.72208 3.94477,-2.50308c0.72112,-0.36046 1.56241,-0.781 2.28351,-1.14146c0.36055,-0.18024 0.72112,-0.36047 1.08168,-0.54069c0.36055,-0.18023 0.7211,-0.36046 0.96148,-0.48062c0.23326,-0.29366 0.47363,-0.41382 0.714,-0.53397c0.11309,-0.23361 0.35344,-0.35375 0.47363,-0.41383c0.36057,-0.18024 0.47363,-0.41383 0.47363,-0.41383c0,0 0.00711,0.17352 0.14864,0.63398c0.13441,0.28697 0.14152,0.46049 0.02845,0.69407c0.13441,0.28696 -0.09884,0.58064 -0.21191,0.81422c-0.21904,0.64071 -0.68555,1.22804 -1.27936,1.70194c-0.5938,0.47389 -1.3078,1.00787 -2.1491,1.4284c-1.43511,0.89444 -3.3723,1.50863 -4.95603,1.76909c-1.58375,0.26045 -2.68673,0.28062 -2.68673,0.28062z" fill="#687a27"></path><path d="M332.75747,223.17398c0.00709,0.17351 0.24746,0.05335 0.26169,0.40038c0.24749,0.05336 0.50208,0.28025 0.75668,0.50712c0.25459,0.22688 0.389,0.51384 0.52341,0.80078c0.0071,0.17353 0.14152,0.46049 0.02844,0.69407c-0.11307,0.23359 -0.22616,0.46717 -0.33923,0.70076c-0.10595,0.40712 -0.57958,0.82093 -0.93301,1.17469c-0.35343,0.35375 -0.83419,0.59405 -1.31493,0.83436c-0.60805,0.12687 -1.08879,0.36718 -1.57664,0.43397c-0.97571,0.13357 -1.71104,0.14702 -1.71104,0.14702c0,0 0.09884,-0.58062 0.56536,-1.16797c0.23327,-0.29368 0.46653,-0.58733 0.81996,-0.94109c0.24036,-0.12015 0.35343,-0.35375 0.59381,-0.47389c0.24036,-0.12016 0.35343,-0.35375 0.5938,-0.4739c0.35345,-0.35376 0.70691,-0.70748 1.06746,-0.88772c0.11309,-0.23361 0.35344,-0.35376 0.47363,-0.41383c0.11307,-0.2336 0.23325,-0.29367 0.35345,-0.35375c0.12019,-0.06008 0.11305,-0.23358 0.23325,-0.29366c-0.00711,-0.17352 0.11307,-0.23359 -0.01422,-0.34703c-0.25461,-0.22688 -0.38189,-0.34032 -0.38189,-0.34032z" fill="#687a27"></path><path d="M324.07497,223.79562c0,0 0.12018,-0.06008 0.11307,-0.23359c0.24036,-0.12016 0.48075,-0.24032 1.103,-0.02016c0.24749,0.05336 0.62226,0.22018 0.87685,0.44703c0.25459,0.22687 0.50921,0.45376 0.64361,0.74071c0.00712,0.17351 0.14154,0.46048 0.14864,0.63398c-0.11309,0.23361 -0.10597,0.40712 -0.09886,0.58061c-0.09172,0.75414 -0.81285,1.11461 -1.29359,1.35492c-0.48073,0.24031 -1.09587,0.19368 -1.09587,0.19368c0,0 -0.26171,-0.40042 -0.28305,-0.92096c-0.02134,-0.52054 -0.04267,-1.0411 0.06329,-1.44821l0.11307,-0.23359c-0.00711,-0.17351 -0.00713,-0.17351 0.11307,-0.23358l0.12018,-0.06008c0.1273,0.11344 0.12018,-0.06008 0.12018,-0.06008c-0.00712,-0.17351 -0.2617,-0.4004 -0.389,-0.51382c-0.1273,-0.11344 -0.25459,-0.22687 -0.25459,-0.22687z" fill="#687a27"></path></g><g><path d="M305.77691,170.32441c0.90375,-4.87639 5.84696,-8.14164 11.04095,-7.29315c5.194,0.84849 8.67191,5.48943 7.76816,10.36581c-0.90375,4.87639 -5.84696,8.14164 -11.04095,7.29315c-5.194,-0.84849 -8.67191,-5.48943 -7.76816,-10.36581z" fill="#a3b339"></path><path d="M323.97485,168.68071c-0.44251,-0.51476 -0.91531,-1.2816 -1.6566,-2.02001c-0.37065,-0.36921 -0.74129,-0.73841 -1.26697,-1.04013c-0.52568,-0.30173 -1.16483,-0.6425 -1.73209,-0.83771c-0.68072,-0.23425 -1.24799,-0.42947 -1.97031,-0.5572c-0.7223,-0.12774 -1.44463,-0.25547 -2.09506,-0.23765c-0.38195,-0.01061 -0.76389,-0.02122 -1.14584,-0.03183l-0.96052,0.15277c-0.31008,0.13494 -0.69203,0.12434 -1.0021,0.25928c-0.31008,0.13494 -0.62016,0.2699 -0.93023,0.40484c-0.62016,0.2699 -1.12686,0.57883 -1.63356,0.88778c-0.50671,0.30895 -0.94154,0.76344 -1.33479,1.11141c-0.7865,0.69596 -1.45954,1.43096 -1.78092,1.9245c-0.36297,0.60006 -0.60118,0.88056 -0.60118,0.88056c0,0 0.0113,-0.35859 0.26081,-0.99769c0.24951,-0.6391 0.58219,-1.49122 1.22495,-2.47831c0.64276,-0.98708 1.70906,-2.07005 3.03254,-2.82288c0.31008,-0.13494 0.7336,-0.23086 1.08527,-0.47232c0.35167,-0.24146 0.77519,-0.33737 1.19873,-0.43327c0.42354,-0.09591 0.96052,-0.15277 1.38405,-0.24867c0.42354,-0.09591 0.80548,-0.08529 1.18743,-0.07469c0.91894,-0.04626 1.64124,0.08148 2.47701,0.24827c0.83576,0.16679 1.51648,0.40103 2.26909,0.78085c0.63914,0.34077 1.23669,0.78806 1.83425,1.23534c0.44251,0.51476 0.88504,1.02952 1.21408,1.50524c0.65812,0.95144 0.93429,1.89226 1.06672,2.54198c0.13244,0.64971 0.23459,1.04735 0.23459,1.04735c0,0 -0.25719,-0.33017 -0.35934,-0.72779z" fill="#687a27"></path></g><g><path d="M278.45942,171.86665c-0.71549,-6.4084 6.45401,-42.24332 6.45401,-42.24332c14.7616,15.5918 25.81804,38.36645 25.81804,38.36645c-18.96172,-4.83366 -32.27206,3.87687 -32.27206,3.87687z" fill="#6d4b9b"></path><path d="M278.73473,165.55756c0.0981,-1.89947 0.32094,-4.1185 0.58539,-6.44403c0.26444,-2.32554 0.61204,-4.86411 0.95965,-7.40268c0.34761,-2.53857 0.69521,-5.07715 1.22815,-7.43111c0.41947,-2.39301 0.86923,-4.53395 1.34928,-6.42281c0.9185,-3.67122 1.76152,-6.16012 1.76152,-6.16012c0,0 -0.13606,0.67813 -0.16996,1.75392c-0.14736,1.03674 -0.27574,2.68413 -0.48729,4.54456c-0.25313,1.96695 -0.58944,4.14694 -0.85388,6.47247c-0.18895,1.14326 -0.26444,2.32554 -0.49497,3.5753c-0.23053,1.24977 -0.34761,2.53857 -0.57814,3.78833c-0.23053,1.24977 -0.34761,2.53857 -0.57814,3.78833c-0.23053,1.24977 -0.46105,2.49952 -0.65001,3.64278c-0.26444,2.32554 -0.7142,4.46648 -1.08078,6.39438c-0.6916,3.74929 -1.26611,6.20978 -1.26611,6.20978c0,0 -0.03434,-2.54918 0.2753,-6.30909z" fill="#4a3369"></path><path d="M298.04638,155.64992c-0.69565,1.45218 -5.19541,4.73677 -5.19541,4.73677c-0.86242,-1.74671 0.41905,-6.01797 0.41905,-6.01797c-2.34457,0.40144 -7.73384,-3.26555 -7.73384,-3.26555c2.14027,-1.19672 8.00553,-1.71569 8.00553,-1.71569c-0.64682,-1.31003 1.34928,-6.42281 1.34928,-6.42281c1.14221,1.35968 4.0016,5.24351 4.0016,5.24351c0.15505,-0.06748 0.19662,-0.17399 0.35167,-0.24146c1.05905,1.57272 2.00464,3.1064 2.87837,4.49451c-0.23821,0.28051 -0.39326,0.34799 -0.39326,0.34799c1.21408,1.50524 2.57596,5.5987 2.57596,5.5987c-4.12593,-1.29901 -6.25894,-2.758 -6.25894,-2.758z" fill="#e0c448"></path><path d="M306.79406,161.92257c-1.20278,-1.86384 -2.5493,-4.01878 -3.96769,-6.3193c-1.45998,-2.19399 -2.95023,-4.64006 -4.55394,-7.12517c-0.84345,-1.13604 -1.53185,-2.33954 -2.33369,-3.5821c-0.72999,-1.09699 -1.53185,-2.33954 -2.26184,-3.43654c-1.45998,-2.19399 -2.96154,-4.28148 -4.20591,-6.03879c-0.65812,-0.95144 -1.24437,-1.75732 -1.75875,-2.41763c-0.62783,-0.69937 -1.02877,-1.32064 -1.47128,-1.8354c-0.88504,-1.02952 -1.32754,-1.54428 -1.32754,-1.54428c0,0 0.59755,0.4473 1.6792,1.30283c0.48409,0.40825 1.04007,0.96205 1.70949,1.5549c0.66941,0.59285 1.41071,1.33124 2.11042,2.17617c0.6997,0.84492 1.51286,1.72889 2.28444,2.71936c0.77158,0.99047 1.54315,1.98097 2.38659,3.11701c1.57344,2.23304 3.21873,4.61162 4.82244,7.09673c0.80186,1.24255 1.49026,2.44606 2.29211,3.68863c0.6884,1.20351 1.3768,2.40703 2.06521,3.61054c1.41839,2.30051 2.56829,4.62945 3.50257,6.52171c1.94046,3.9301 2.96559,6.57858 2.96559,6.57858c0,0 -1.6453,-2.37859 -3.93741,-6.06722z" fill="#4a3369"></path></g><path d="M265.4822,183.35001c-3.11657,-4.214 1.16715,-11.56022 1.16715,-11.56022c19.01823,3.04071 36.89045,36.37706 36.89045,36.37706c0,0 -8.61396,5.25194 -8.79927,5.06735c0,0 -12.65135,16.91188 -17.01505,19.51833c0,0 -26.9807,-20.88415 -32.69628,-33.60463z" fill="#4a3369"></path><g><g fill="#a3b339"><path d="M175.6695,227.19154c-6.13699,4.21674 -15.12343,-0.08705 -9.6004,-6.67852c5.54016,-6.70378 19.11233,-14.04566 22.78231,-6.10237c3.51649,7.3496 -7.02776,8.45188 -13.18191,12.7809z"></path><path d="M175.68665,227.07923c-3.24751,1.28203 -7.07674,3.97565 -5.81327,6.09399c1.26347,2.11834 2.98662,7.62211 0.61151,7.18786c-2.35796,-0.54655 -3.73776,-9.09848 -3.73776,-9.09848c0,0 0.30247,10.01141 -2.07262,9.57716c-2.35796,-0.54655 -0.35308,-11.27889 -0.35308,-11.27889c0,0 -2.636,8.46991 -3.95091,6.68844c-1.31491,-1.78144 3.28549,-8.7263 2.15837,-10.13867c-1.12714,-1.41235 -5.93207,4.47351 -6.3064,1.32879c-0.37434,-3.14475 10.24138,-10.31148 12.48014,-10.58322"></path></g><path d="M215.91607,221.83504c-3.48961,6.86514 -18.32279,7.27558 -33.37351,-1.28252c-12.35149,-7.04878 -5.29108,-12.51648 7.3364,-10.47324c12.76423,1.94705 28.8425,6.17381 26.03711,11.75575z" fill="#a3b339"></path><path d="M232.00131,212.42465c-7.31967,11.16312 -29.33532,21.83831 -34.38759,10.1562c-4.91591,-10.97613 13.827,-37.79275 21.92758,-38.88007c8.10058,-1.08731 23.79876,11.22531 12.46001,28.72389z" fill="#a3b339"></path><path d="M235.40395,208.52756c-0.01715,0.11231 -0.03429,0.2246 -0.1882,0.43309c-0.17105,0.32081 -0.49601,0.85009 -0.95772,1.47559c-0.92343,1.251 -2.41104,2.9991 -4.29177,4.92348c-1.88074,1.9244 -4.29137,4.1213 -7.04369,6.1576c-1.36759,0.96201 -2.87193,2.02021 -4.47875,2.95001c-1.60682,0.92981 -3.21363,1.85963 -5.02536,2.53265c-1.69213,0.68912 -3.58921,1.12144 -5.57158,1.31307c-0.97404,-0.01648 -1.94809,-0.03297 -2.905,-0.16175c-0.83729,-0.11268 -1.79419,-0.24146 -2.63148,-0.35414c-3.45161,-0.57913 -6.64686,-1.23836 -9.32935,-2.0578c-1.28145,-0.40168 -2.54574,-0.91563 -3.58797,-1.28513c-1.02507,-0.48178 -1.94768,-0.83516 -2.61391,-1.26863c-1.46923,-0.77075 -2.10118,-1.42885 -2.10118,-1.42885c0,0 0.22208,0.14449 0.56376,0.30509c0.3417,0.16059 1.04222,0.36948 1.7256,0.69067c0.82014,0.22498 1.74275,0.57836 2.80212,0.83554c1.05937,0.25719 2.35796,0.54655 3.65655,0.83593c1.4182,0.30547 2.83641,0.61094 4.39135,0.82022c1.55495,0.20926 3.22955,0.43464 4.90411,0.66c0.83729,0.11268 1.79419,0.24146 2.63148,0.35414c0.9569,0.12878 1.67457,0.22536 2.54615,0.11345c1.72601,-0.11154 3.38386,-0.57605 5.05883,-1.15287c1.67499,-0.57681 3.26466,-1.39434 4.8543,-2.21184c1.58967,-0.81751 3.07686,-1.76344 4.44445,-2.72542c2.85479,-1.90792 5.35073,-3.86412 7.33393,-5.66012c1.98321,-1.79601 3.69289,-3.39961 4.71879,-4.5222c0.56419,-0.49709 0.88913,-1.02641 1.1798,-1.33109c0.03429,-0.2246 0.17105,-0.32081 0.20534,-0.54539c0,0 0,0 -0.29067,0.3047z" fill="#687a27"></path><path d="M191.55353,210.30467c-1.93095,-0.14526 -4.10111,-0.32272 -6.42519,-0.29169c-2.32409,0.03104 -4.81919,0.38288 -6.92159,1.36059c-0.51275,0.16021 -0.92302,0.44881 -1.47005,0.83361c-0.54704,0.38481 -0.95731,0.6734 -1.50434,1.05822c-0.97446,0.7857 -2.03423,1.33071 -2.99154,2.00411c-1.91461,1.34681 -3.89741,2.34062 -5.50422,3.27043c-1.58967,0.81751 -3.04257,1.53882 -4.0852,1.97152c-0.5299,0.2725 -0.92302,0.44881 -1.17938,0.5289c-0.11962,-0.0161 -0.25638,0.08011 -0.37599,0.06401c-0.10247,-0.12841 0.01715,-0.11231 0.01715,-0.11231l-0.01715,0.11231c0,0 0.13677,-0.0962 0.27352,-0.1924c0.1539,-0.2085 0.56419,-0.49709 0.97446,-0.7857c0.82055,-0.57721 2.06852,-1.55531 3.57288,-2.61353c1.62396,-1.04212 3.40183,-2.29272 5.29929,-3.52722c0.95731,-0.6734 1.91461,-1.34681 2.99154,-2.00411c0.42743,-0.40091 0.95731,-0.6734 1.50434,-1.05822c0.5299,-0.2725 1.07693,-0.6573 1.72642,-0.91372c2.4784,-1.04173 5.19559,-1.24906 7.62213,-1.15171c2.54615,0.11345 4.68202,0.5155 6.57868,0.88537c1.89665,0.36986 3.41731,0.80372 4.45953,1.1732c1.04222,0.36948 1.62313,0.56227 1.62313,0.56227c0,0 -2.47756,-0.56264 -6.1684,-1.17399z" fill="#687a27"></path><path d="M162.47744,226.44757c0.20493,0.25679 0.25596,0.72208 0.17024,1.28358c0.03388,0.57758 -0.05185,1.13909 -0.27433,1.79677c-0.22249,0.65769 -0.42784,1.20309 -0.65033,1.86078c-0.42784,1.20309 -0.97527,2.39007 -1.35167,3.25628c-0.1882,0.43309 -0.25678,0.8823 -0.29107,1.1069c-0.01715,0.11231 0.08533,0.2407 0.06818,0.353c0.10247,0.12841 0.10247,0.12841 0.10247,0.12841c0,0 -0.23923,-0.03219 -0.44416,-0.289c-0.20493,-0.25679 -0.37558,-0.73817 -0.40945,-1.31577c-0.06776,-1.15519 0.13798,-2.50275 0.70259,-3.80205c0.34211,-0.64159 0.5646,-1.29929 0.88955,-1.82858c0.32496,-0.52929 0.64991,-1.05859 0.8381,-1.49169c0.1882,-0.43309 0.37639,-0.86619 0.5303,-1.07469c0.1539,-0.2085 0.1882,-0.43309 0.1882,-0.43309c0,0 0.08533,0.2407 -0.06859,0.4492z" fill="#687a27"></path><path d="M164.30346,231.27755c0.06776,1.15519 -0.03552,2.63116 -0.12166,3.99483c0.01673,0.68988 -0.08614,1.36369 -0.06941,2.05357c-0.05144,0.33691 -0.10288,0.67379 -0.01755,0.91448c-0.03429,0.2246 -0.08572,0.56149 -0.00042,0.80218c0.08533,0.2407 0.05103,0.46529 0.13635,0.70598c0.08533,0.2407 0.05103,0.46529 0.1535,0.59368c0.08533,0.2407 0.17064,0.4814 0.17064,0.4814c0,0 -0.10247,-0.12841 -0.44416,-0.289c-0.11962,-0.0161 -0.20493,-0.25679 -0.42702,-0.40129c-0.20493,-0.25679 -0.40987,-0.51359 -0.49519,-0.75428c-0.40987,-0.51359 -0.54621,-1.21957 -0.68256,-1.92556c-0.13635,-0.70598 -0.15309,-1.39588 -0.15267,-2.19806c0.10288,-0.67379 0.22289,-1.45987 0.32577,-2.13368c0.22249,-0.65769 0.44499,-1.31539 0.65033,-1.86078c0.41068,-1.0908 0.8724,-1.71629 0.8724,-1.71629c0,0 0.13635,0.70598 0.10164,1.73276z" fill="#687a27"></path><path d="M169.75009,240.3768c-0.3417,-0.16059 -0.78584,-0.44958 -1.09326,-0.83476c-0.42702,-0.40129 -0.71726,-0.89877 -1.00752,-1.39626c-0.27311,-0.60979 -0.54621,-1.21957 -0.69971,-1.81326c-0.40945,-1.31577 -0.46006,-2.58325 -0.44252,-3.49773c0.01755,-0.91448 0.24004,-1.57217 0.24004,-1.57217c0,0 0.51233,0.64198 0.87076,1.49246c0.47804,0.86658 0.92179,1.95775 1.22877,3.14512c0.4266,1.20347 0.61398,2.37476 0.85279,3.20913c0.06818,0.353 0.25596,0.72208 0.34129,0.96277c0.20493,0.25679 0.3074,0.38519 0.3074,0.38519c0,0 -0.25638,0.08011 -0.59806,-0.08048z" fill="#687a27"></path><path d="M183.01936,223.82566c-0.80341,0.46491 -1.62396,1.04212 -2.56413,1.60321c-0.94016,0.5611 -1.99994,1.10612 -2.9401,1.66723c-2.11956,1.09003 -4.11949,2.19611 -5.58955,3.02973c-0.68379,0.481 -1.35044,0.84971 -1.64111,1.15441c-0.13677,0.0962 -0.17105,0.32081 -0.1882,0.43309c-0.01715,0.11231 -0.03429,0.2246 -0.03429,0.2246c0,0 0,0 -0.10247,-0.12841c-0.10247,-0.12841 -0.06818,-0.353 -0.03388,-0.57758c0.20534,-0.54539 0.66706,-1.17089 1.24839,-1.7803c0.70093,-0.59331 1.40188,-1.18661 2.35919,-1.86002c0.41028,-0.2886 0.8377,-0.68951 1.36759,-0.96201c0.41028,-0.2886 0.94016,-0.5611 1.47005,-0.83361c0.94016,-0.5611 1.99994,-1.10612 3.04257,-1.53882c1.04263,-0.43272 1.96566,-0.88153 2.85437,-1.10573c1.55538,-0.59291 2.80294,-0.76883 2.80294,-0.76883c0,0 -0.97446,0.7857 -2.05138,1.44301z" fill="#687a27"></path></g><g><path d="M304.32991,206.14304c-8.66726,2.0921 -8.19086,1.53108 -30.39812,20.83338c-22.20727,19.30229 -71.17732,5.95439 -74.50674,-7.27404c-3.44288,-13.26748 12.14248,-34.72772 25.30227,-37.44871c13.15978,-2.72099 42.74372,-1.36074 52.25356,-9.56671c9.31322,-8.03199 21.19154,-6.4817 34.79064,-3.73512c13.59911,2.74658 18.62265,15.59139 17.7837,20.37742c-0.73319,3.85581 -6.96054,12.22476 -25.22532,16.81379z" fill="#a3b339"></path><path d="M325.77605,178.24175c-0.44251,-0.51476 -0.9569,-1.17509 -1.73977,-1.80698c-0.78287,-0.63189 -1.52416,-1.37029 -2.53395,-2.08027c-1.00978,-0.70998 -2.01957,-1.41995 -3.35841,-2.60564c-1.16483,-0.6425 -2.59813,-1.25657 -3.95958,-1.72508c-1.36145,-0.46852 -2.87793,-0.86955 -4.43601,-1.16406c-1.67152,-0.33356 -3.15772,-0.48252 -4.87083,-0.70957c-1.59965,-0.18801 -3.31277,-0.41506 -4.91242,-0.60305c-1.59965,-0.18801 -3.19931,-0.37601 -4.68551,-0.52496c-1.59965,-0.18801 -3.01399,-0.1914 -4.42833,-0.19481c-1.41434,-0.0034 -2.64335,0.17779 -3.87235,0.35899c-1.11556,0.22025 -2.2727,0.547 -3.16135,0.84533c-0.46512,0.20243 -0.81677,0.44389 -1.24032,0.53978c-0.42354,0.09591 -0.77519,0.33737 -1.08527,0.47232c-0.66175,0.3764 -1.16844,0.68535 -1.47853,0.82029c-0.35167,0.24146 -0.50671,0.30895 -0.50671,0.30895c0,0 0.04159,-0.10652 0.39326,-0.34799c0.35167,-0.24146 0.63146,-0.62848 1.2932,-1.00491c0.31008,-0.13494 0.66175,-0.3764 1.01341,-0.61788c0.46512,-0.20243 0.81677,-0.44389 1.2819,-0.64631c0.46512,-0.20243 1.08527,-0.47232 1.5504,-0.67474c0.62016,-0.2699 1.19873,-0.43327 1.77731,-0.59665c1.27059,-0.28771 2.65466,-0.53639 4.11056,-0.6395c1.45592,-0.1031 2.9837,-0.06068 4.62495,0.02081c3.12745,0.23045 6.44022,0.64551 9.75297,1.06054c1.55807,0.29451 3.31277,0.41506 4.94271,0.85512c1.67152,0.33356 3.25988,0.88015 4.6932,1.49423c1.43331,0.61407 2.82504,1.33466 4.06174,2.12271c1.23669,0.78806 2.20488,1.60455 3.17309,2.42104c0.85475,0.77745 1.70949,1.5549 2.29574,2.36077c0.58625,0.80587 1.10062,1.4662 1.50156,2.08747c0.40092,0.62128 0.72999,1.09699 0.87372,1.38812c0.25719,0.33017 0.32907,0.47573 0.32907,0.47573c0,0 -0.51438,-0.66033 -1.3994,-1.68985z" fill="#687a27"></path><path d="M321.61072,195.17404c-3.57358,0.58264 -8.26273,1.38553 -12.95185,2.1884c-1.11556,0.22025 -2.34457,0.40144 -3.46013,0.62168c-1.22901,0.1812 -2.2727,0.547 -3.46013,0.62168c-2.18953,0.33397 -4.40934,0.41585 -6.20562,0.40184c-1.86815,-0.15957 -3.31277,-0.41506 -4.37544,-0.65992c-1.06267,-0.24486 -1.58835,-0.54659 -1.58835,-0.54659c0,0 0.56727,0.19521 1.55807,0.29451c0.9908,0.0993 2.51859,0.14176 4.24301,0.0102c0.91894,-0.04626 1.87945,-0.19903 2.83997,-0.3518c1.03239,-0.00722 2.03449,-0.26649 3.15005,-0.48673c1.11556,-0.22025 2.2727,-0.547 3.38826,-0.76724c1.11556,-0.22025 2.38616,-0.50796 3.50172,-0.7282c1.22901,-0.1812 2.34457,-0.40144 3.57358,-0.58264c1.11556,-0.22025 2.34457,-0.40144 3.41854,-0.51517c2.14794,-0.22745 4.25431,-0.34838 6.09216,-0.44088c3.67574,-0.18501 6.03928,0.02422 6.03928,0.02422c0,0 -2.38616,0.50796 -5.76312,0.91661z" fill="#687a27"></path><path d="M317.28324,184.502c-0.14373,-0.29112 -0.37065,-0.36921 -0.44251,-0.51476c-0.18532,-0.1846 -0.29878,-0.22364 -0.48409,-0.40825c-0.18532,-0.1846 -0.37065,-0.36921 -0.59755,-0.4473c-0.07187,-0.14557 -0.18532,-0.1846 -0.29878,-0.22364c0,0 -0.11346,-0.03905 -0.22691,-0.07808c-0.11346,-0.03905 -0.22691,-0.07808 -0.22691,-0.07808c-0.11346,-0.03905 -0.11346,-0.03905 -0.11346,-0.03905c-0.11346,-0.03905 -0.19662,0.17399 -0.23821,0.28051c-0.04159,0.10652 -0.08317,0.21303 -0.08317,0.21303c0,0 -0.11346,-0.03905 -0.18532,-0.1846c-0.07187,-0.14557 -0.18532,-0.1846 -0.14373,-0.29112c0.04159,-0.10652 -0.03029,-0.25208 0.05289,-0.46511c0.08317,-0.21303 0.2798,-0.38702 0.43484,-0.45449c0.2685,-0.02844 0.42354,-0.09591 0.65044,-0.01783c0.38195,0.01061 0.7223,0.12774 1.02108,0.35138c0.29878,0.22364 0.59755,0.4473 0.74129,0.73841c0.14373,0.29112 0.28748,0.58224 0.31776,0.83431c0.03029,0.25208 -0.05289,0.46511 -0.09447,0.57162c-0.04159,0.10652 -0.08317,0.21303 -0.08317,0.21303z" fill="#687a27"></path><path d="M321.36162,199.4381c-0.66175,0.3764 -1.67515,0.99429 -2.95705,1.6406c-1.2819,0.64631 -2.87388,1.42757 -4.73435,2.23725c-1.86048,0.80968 -3.91756,1.79337 -6.38689,2.51435c-2.46932,0.72098 -5.12398,1.25739 -7.71805,2.29792c-1.24032,0.53978 -2.48062,1.07959 -3.80411,1.83241c-1.21003,0.79187 -2.42006,1.58374 -3.67168,2.48211c-2.38977,1.8358 -4.74927,3.92369 -7.03691,6.15713c-2.28762,2.23344 -4.57525,4.46688 -7.20324,6.58319c-2.62798,2.11631 -5.39971,3.94151 -8.2433,5.62115c-2.95705,1.6406 -6.01624,2.88356 -8.99228,3.91348c-6.06551,2.02081 -12.04422,2.50074 -17.16457,2.43027c-2.56018,-0.03524 -4.85185,-0.0989 -6.90533,-0.44308c-1.98161,-0.19861 -3.76658,-0.57122 -5.2112,-0.82671c-1.44463,-0.25547 -2.62074,-0.53938 -3.34306,-0.66713c-0.83576,-0.16679 -1.17613,-0.28391 -1.17613,-0.28391c0,0 0.4954,0.04966 1.21772,0.1774c0.83576,0.16679 1.94002,0.30513 3.42622,0.45409c1.48621,0.14896 3.19931,0.37601 5.2225,0.4681c1.98161,0.19861 4.31487,0.15576 6.76158,0.15195c4.93502,-0.11413 10.77,-0.88518 16.56702,-2.87755c2.97604,-1.02993 5.80832,-2.35098 8.61032,-3.9241c2.802,-1.57312 5.46028,-3.43736 7.93322,-5.4862c2.47295,-2.04884 4.87403,-4.24323 7.16166,-6.47669c2.28762,-2.23344 4.80216,-4.3888 7.30539,-6.18557c2.54481,-1.90328 5.19178,-3.40893 8.01278,-4.37139c2.70754,-1.00149 5.47564,-1.49886 7.86179,-2.0068c2.31429,-0.65353 4.44324,-1.49164 6.3756,-2.15577c1.93233,-0.66413 3.48273,-1.33887 4.87808,-1.94613c1.24032,-0.53978 2.32559,-1.0121 2.98734,-1.38852c0.66175,-0.3764 1.01341,-0.61788 1.01341,-0.61788c0,0 -0.35167,0.24146 -0.7865,0.69596z" fill="#687a27"></path></g><g><g fill="#a3b339"><path d="M182.59269,242.2556c-5.13517,5.7835 -15.63777,4.22195 -11.85216,-3.71484c3.78562,-7.93679 15.6323,-18.69512 21.74768,-12.15774c5.6947,6.13026 -4.76036,10.08905 -9.89553,15.87255z"></path><path d="M182.57379,242.36765c-2.94101,2.2045 -6.2282,5.73585 -4.20629,7.52966c1.92146,1.66402 5.26106,6.52522 2.66023,6.71283c-2.60081,0.1876 -6.40376,-7.72888 -6.40376,-7.72888c0,0 3.16139,9.54399 0.5606,9.73159c-2.60081,0.1876 -3.68848,-10.77096 -3.68848,-10.77096c0,0 -0.28078,8.91733 -2.12068,7.49517c-1.97815,-1.32786 0.83378,-9.29455 -0.6859,-10.43939c-1.53856,-1.03277 -4.79602,5.94879 -6.01326,3.01118c-1.21725,-2.93761 7.53829,-12.77725 9.7751,-13.70813"></path></g><path d="M222.50335,226.13651c-1.52395,7.58389 -16.72212,12.10092 -34.73662,7.9293c-14.8488,-3.35637 -9.09098,-10.65534 4.62318,-12.17693c13.71417,-1.5216 31.39167,-1.87961 30.11343,4.24764z" fill="#a3b339"></path><path d="M236.41186,212.58352c-4.35965,12.79042 -23.86671,29.07166 -32.51217,19.40146c-8.22476,-9.26308 3.36801,-40.27452 11.36647,-43.44998c7.99843,-3.17544 27.80801,4.13459 21.1457,24.04852z" fill="#a3b339"></path><path d="M238.83877,208.34996c-0.17605,0.3184 -0.28947,0.9907 -0.66046,1.73956c-0.62266,1.51546 -1.71675,3.64999 -3.10625,6.08518c-1.50885,2.41745 -3.31309,5.13556 -5.61364,7.89472c-1.10004,1.44448 -2.43879,2.85349 -3.75863,4.15042c-1.43919,1.27919 -2.87838,2.5584 -4.53735,3.69006c-1.65899,1.13165 -3.41841,2.13351 -5.35983,2.76373c-0.51519,0.15313 -1.01149,0.1942 -1.52667,0.3473l-0.75389,0.11764l-0.75389,0.11764c-0.89214,0.21195 -1.88472,0.29407 -2.75796,0.39395c-1.86582,0.18202 -3.61228,0.3818 -5.33986,0.46951c-1.72757,0.08773 -3.31689,0.08113 -4.78687,0.09229c-1.46998,0.01116 -2.8206,0.04007 -4.01409,-0.13738c-1.19348,-0.17745 -2.26762,-0.33715 -3.10304,-0.46137c-1.65196,-0.36048 -2.55004,-0.83859 -2.55004,-0.83859c0,0 0.21979,0.14753 0.69719,0.21853c0.33914,0.16528 1.05523,0.27177 1.90956,0.28391c0.85433,0.01218 1.82801,0.04207 3.0593,-0.00457c1.11193,-0.0644 2.46255,-0.09331 3.95143,-0.21652c1.48888,-0.12321 3.0971,-0.22867 4.72423,-0.44619c1.74648,-0.19978 3.51184,-0.51159 5.25831,-0.71135c0.87324,-0.09988 1.88472,-0.29407 2.75796,-0.39395l0.75389,-0.11764l0.63453,-0.13538c0.39585,-0.17088 0.89214,-0.21195 1.28798,-0.38279c1.80317,-0.53592 3.42436,-1.44348 4.94508,-2.48083c1.52073,-1.03736 3.06036,-2.18675 4.3802,-3.4837c1.42029,-1.16715 2.62078,-2.48184 3.82127,-3.79653c2.28164,-2.64713 4.30567,-5.21768 5.91497,-7.50533c1.60929,-2.28764 2.92319,-4.27463 3.64628,-5.6603c0.49035,-0.7311 0.70421,-1.27362 0.89915,-1.70407c0.19496,-0.43045 0.11341,-0.6723 0.11341,-0.6723c0,0 0.08155,0.24185 -0.1323,0.78435z" fill="#687a27"></path><path d="M194.19903,222.04301c-2.00407,0.27633 -4.28464,0.74127 -6.60301,1.43031c-2.43772,0.67129 -4.79388,1.58444 -6.76716,3.12881c-0.5341,0.26517 -0.84839,0.67788 -1.30094,1.1849c-0.45255,0.50701 -0.88618,0.90198 -1.33875,1.40898c-0.76685,0.91972 -1.65303,1.82171 -2.53923,2.72369c-1.65303,1.82171 -3.38762,3.40156 -4.82681,4.68075c-1.43919,1.27919 -2.72122,2.35204 -3.68896,3.01216c-0.41474,0.28292 -0.82949,0.56583 -1.106,0.75443c-0.13826,0.09431 -0.15714,0.20635 -0.2765,0.1886c-0.10045,-0.12981 0.01891,-0.11205 0.01891,-0.11205l-0.01891,0.11205c0.11935,0.01775 0.13826,-0.09431 0.2765,-0.1886c0.15714,-0.20635 0.47145,-0.61907 0.78574,-1.03178c0.74794,-0.80767 1.8291,-2.1401 3.04849,-3.56684c1.23829,-1.53879 2.73419,-3.15413 4.38721,-4.97584c0.76685,-0.91972 1.65303,-1.82171 2.53923,-2.72369c0.45255,-0.50701 0.88618,-0.90198 1.33875,-1.40898c0.45255,-0.50701 1.02444,-0.99629 1.57744,-1.37349c2.35022,-1.60318 5.08334,-2.57514 7.50215,-3.13438c2.53817,-0.54149 4.90028,-0.76459 6.88543,-0.92887c1.98517,-0.16428 3.69384,-0.13995 4.90621,-0.07455c1.11193,-0.0644 1.82801,0.04207 1.82801,0.04207c0,0 -2.72016,0.16986 -6.62784,0.85232z" fill="#687a27"></path><path d="M168.85261,245.38139c0.20088,0.25959 0.36399,0.74328 0.52708,1.22697c0.1631,0.48369 0.18794,1.06168 0.19388,1.75173c0.02484,0.57799 0.03079,1.26804 -0.08262,1.94033c-0.08855,1.25029 -0.31537,2.59488 -0.46657,3.49129c0.02484,0.57799 -0.03186,0.91414 0.04969,1.156c0.10045,0.12981 0.08155,0.24185 0.20088,0.25959c0.10045,0.12981 0.10045,0.12981 0.10045,0.12981c0,0 -0.2387,-0.03549 -0.57784,-0.20077c-0.21979,-0.14753 -0.62158,-0.66671 -0.78469,-1.15041c-0.42663,-1.09717 -0.43851,-2.47725 -0.33106,-3.8396c0.11341,-0.6723 0.22681,-1.3446 0.32131,-1.90485c0.11341,-0.6723 0.32725,-1.21481 0.40286,-1.663c0.0945,-0.56025 0.15121,-0.8964 0.20791,-1.23254c0.0378,-0.2241 0.07561,-0.44821 0.07561,-0.44821c0,0 0.21979,0.14753 0.1631,0.48369z" fill="#687a27"></path><path d="M172.16736,249.66461c0.42663,1.09717 0.81546,2.41844 1.06605,3.83403c0.24464,0.72554 0.36992,1.43332 0.51412,2.02906c0.08155,0.24185 0.1442,0.59573 0.22575,0.83759c0.08155,0.24185 0.1631,0.48369 0.24464,0.72554c0.08155,0.24185 0.1631,0.48369 0.26355,0.61348c0.08155,0.24185 0.18201,0.37164 0.28244,0.50144c0.20088,0.25959 0.30135,0.38938 0.30135,0.38938c0,0 -0.2387,-0.03549 -0.59674,-0.08872c-0.11935,-0.01775 -0.33914,-0.16528 -0.55893,-0.31283c-0.21979,-0.14753 -0.4396,-0.29509 -0.64048,-0.55468c-0.20088,-0.25959 -0.4018,-0.51918 -0.60268,-0.77877c-0.20088,-0.25959 -0.4018,-0.51918 -0.58377,-0.89081c-0.24464,-0.72554 -0.48927,-1.45107 -0.73392,-2.17661c-0.24464,-0.72554 -0.35102,-1.54537 -0.35697,-2.23541c-0.00594,-0.69004 -0.01189,-1.38009 0.08262,-1.94033c0.18901,-1.1205 0.44066,-1.8871 0.44066,-1.8871c0,0 0.36399,0.74328 0.65237,1.93476z" fill="#687a27"></path><path d="M180.25494,256.83983c-0.35805,-0.05324 -0.83544,-0.12421 -1.27504,-0.4193c-0.4396,-0.29509 -0.97962,-0.71996 -1.40031,-1.12708c-0.4018,-0.51918 -0.80357,-1.03837 -1.20536,-1.55755c-0.80357,-1.03837 -1.33065,-2.26534 -1.5375,-3.21497c-0.20685,-0.94964 -0.21279,-1.63969 -0.21279,-1.63969c0,0 0.67828,0.33058 1.28097,1.10933c0.62158,0.66671 1.42517,1.70507 2.10938,2.72569c0.28244,0.50144 0.68422,1.02062 0.96667,1.52206c0.4207,0.40713 0.58377,0.89081 0.88512,1.28021c0.30135,0.38938 0.48334,0.76102 0.70313,0.90856c0.08155,0.24185 0.32025,0.27734 0.32025,0.27734c0.11935,0.01775 -0.13826,0.09431 -0.63453,0.13538z" fill="#687a27"></path><path d="M188.98993,237.69347c-0.59081,0.60132 -1.33875,1.40898 -2.20603,2.19892c-0.43365,0.39497 -0.86729,0.78992 -1.30094,1.1849c-0.43365,0.39497 -0.86729,0.78992 -1.30094,1.1849c-0.43365,0.39497 -0.86729,0.78992 -1.30094,1.1849c-0.43365,0.39497 -0.86729,0.78992 -1.30094,1.1849c-0.86729,0.78992 -1.59635,1.48555 -2.30647,2.06913c-0.59081,0.60132 -1.16269,1.09059 -1.35763,1.52103c-0.13826,0.09431 -0.15714,0.20635 -0.17605,0.3184c-0.01891,0.11205 -0.01891,0.11205 -0.0378,0.2241c0.11935,0.01775 0.10045,0.12981 0.10045,0.12981c0,0 -0.11935,-0.01775 -0.21979,-0.14753c-0.10045,-0.12981 -0.18201,-0.37164 -0.1253,-0.70779c-0.02484,-0.57799 0.32725,-1.21481 0.83651,-2.05797c0.49035,-0.7311 1.11894,-1.55653 1.88579,-2.47625c0.76685,-0.91972 1.63414,-1.70966 2.52034,-2.61163c1.00553,-0.88424 1.87283,-1.67417 2.84057,-2.33429c0.96774,-0.66013 1.81612,-1.33802 2.62673,-1.7918c1.52073,-1.03736 2.70828,-1.54995 2.70828,-1.54995c0,0 -0.6664,1.04952 -1.88579,2.47625z" fill="#687a27"></path><path d="M213.17355,190.06161c-0.31431,0.41272 -0.6664,1.04952 -1.13784,1.66857c-0.35211,0.6368 -0.84244,1.36792 -1.3517,2.21108c-0.50926,0.84315 -1.0185,1.68633 -1.54665,2.64153c-0.52816,0.95521 -1.05629,1.91043 -1.60336,2.97769c-0.54706,1.06727 -0.99365,2.26431 -1.5407,3.33159c-0.54706,1.06727 -0.99365,2.26431 -1.44025,3.46138c-0.4277,1.085 -0.8743,2.28207 -1.20155,3.49687c-0.20791,1.23254 -0.65452,2.4296 -0.84353,3.55011c-0.20791,1.23254 -0.51626,2.3353 -0.56702,3.36149c-0.18901,1.1205 -0.23977,2.14669 -0.27162,3.06084c-0.15121,0.8964 -0.04481,1.71623 -0.05776,2.51833c0.06264,0.35389 0.1253,0.70779 0.06859,1.04394c0.06264,0.35389 0.00594,0.69004 0.0875,0.93189c0.16904,1.17372 0.19388,1.75173 0.19388,1.75173c0,0 -0.26355,-0.61348 -0.57083,-1.69291c-0.08155,-0.24185 -0.1631,-0.48369 -0.22575,-0.83759c-0.06264,-0.35389 -0.1253,-0.70779 -0.18794,-1.06168c-0.1253,-0.70779 -0.33212,-1.65742 -0.30026,-2.57156c-0.0875,-0.93189 -0.15608,-1.97583 -0.08641,-3.11407c-0.02484,-0.57799 -0.04969,-1.156 0.04481,-1.71623c-0.02484,-0.57799 0.08855,-1.25029 0.18306,-1.81055c-0.02484,-0.57799 0.20791,-1.23254 0.3024,-1.79279c0.11341,-0.6723 0.20791,-1.23254 0.44066,-1.8871c0.46552,-1.30912 0.79276,-2.52391 1.23936,-3.72098c0.32725,-1.21481 0.89321,-2.39411 1.45915,-3.57343c0.56596,-1.17932 1.113,-2.24658 1.7794,-3.29609c0.54706,-1.06727 1.19455,-2.00474 1.84205,-2.9422c0.6475,-0.93747 1.2761,-1.7629 1.90469,-2.5883c1.23829,-1.53879 2.41989,-2.74143 3.16782,-3.5491c0.86729,-0.78992 1.31985,-1.29693 1.31985,-1.29693c0,0 -0.45255,0.50701 -1.10004,1.44448z" fill="#687a27"></path></g><g><g><path d="M286.03296,170.2284c0.94951,-5.12328 6.143,-8.55387 11.59998,-7.66242c5.45697,0.89145 9.11099,5.76736 8.16148,10.89066c-0.94951,5.12328 -6.143,8.55387 -11.59998,7.66242c-5.45697,-0.89145 -9.11099,-5.76736 -8.16148,-10.89066z" fill="#a3b339"></path><path d="M288.41386,170.61733c0.72072,-3.88877 4.66276,-6.4927 8.8048,-5.81605c4.14205,0.67665 6.91558,4.37764 6.19486,8.2664c-0.72072,3.88877 -4.66276,6.4927 -8.8048,5.81605c-4.14205,-0.67665 -6.91558,-4.37764 -6.19486,-8.2664z" fill="#e7ffbd"></path><path d="M301.47838,172.90096c-0.59713,3.17767 -11.10268,1.73731 -11.87831,-1.55028c-0.66217,-3.24855 12.74755,-2.98367 11.87831,1.55028z" fill="#2b3021"></path><path d="M305.60388,170.57501c-0.20431,-0.79526 -0.6658,-1.92069 -1.3542,-3.12421c-0.6884,-1.20351 -1.8722,-2.45667 -3.33581,-3.32282c-0.29878,-0.22364 -0.75259,-0.37981 -1.20642,-0.53598c-0.38195,-0.01061 -0.79418,-0.27329 -1.28958,-0.32295c-0.4954,-0.04966 -0.83576,-0.16679 -1.33117,-0.21643l-0.76389,-0.02122l-0.63914,-0.34077c-1.03239,0.00722 -1.95132,0.05346 -2.83997,0.3518c-0.84706,0.19182 -1.66385,0.6357 -2.48062,1.07959c-0.70334,0.48293 -1.40665,0.96586 -1.92467,1.63339c-0.63146,0.62848 -0.99443,1.22853 -1.35739,1.82861c-0.24951,0.6391 -0.61248,1.23915 -0.82041,1.77173c-0.32138,0.49354 -0.37427,0.95864 -0.5406,1.3847c-0.17765,0.78465 -0.34398,1.21072 -0.34398,1.21072c0,0 0.05289,-0.46511 0.11707,-1.28881c0.05289,-0.46511 0.10577,-0.93021 0.31369,-1.4628c0.20792,-0.53258 0.45744,-1.17168 0.70695,-1.81078c0.36297,-0.60006 0.76752,-1.30663 1.28553,-1.97416c0.518,-0.66752 1.26292,-1.25697 2.00783,-1.84641c0.81677,-0.44389 1.67515,-0.99429 2.67726,-1.25357c1.0021,-0.25928 2.07608,-0.37302 3.10846,-0.38023l0.76389,0.02122l0.7223,0.12774c0.4954,0.04966 1.06267,0.24486 1.55807,0.29451c0.56727,0.19521 1.02108,0.35138 1.47489,0.50754c0.41223,0.26269 0.86605,0.41886 1.27828,0.68155c0.93791,0.56442 1.60734,1.15726 2.12172,1.81759c0.51438,0.66033 0.98718,1.42716 1.27466,2.0094c0.64682,1.31003 0.83981,2.46389 1.04412,3.25916c0.20431,0.79526 0.15141,1.26037 0.15141,1.26037c0,0 -0.06057,-0.50415 -0.37832,-1.33846z" fill="#687a27"></path></g><path d="M303.37681,173.31259c-0.01899,-0.61067 -0.14011,-1.61896 -0.33312,-2.77282c-0.23459,-1.04735 -0.76794,-2.31832 -1.76643,-3.3869c-0.55597,-0.55381 -1.1951,-0.89458 -1.83425,-1.23534c-0.63914,-0.34077 -1.47489,-0.50754 -2.19721,-0.63529c-0.83576,-0.16679 -1.59965,-0.18801 -2.40514,-0.10271c-0.80548,0.08529 -1.65255,0.2771 -2.2727,0.547c-1.35377,0.50076 -2.37848,1.47723 -3.02124,2.4643c-0.64276,0.98708 -1.01703,1.94572 -1.15309,2.62387c-0.13606,0.67813 -0.14736,1.03674 -0.14736,1.03674c0,0 -0.10216,-0.39764 -0.07955,-1.11482c0.0226,-0.71718 0.28342,-1.71487 0.85431,-2.84752c0.57089,-1.13265 1.56531,-2.36117 3.11571,-3.03592c0.77519,-0.33737 1.5504,-0.67474 2.46932,-0.72098c0.91894,-0.04626 1.83786,-0.09251 2.67362,0.07428c0.83576,0.16679 1.78497,0.3726 2.53757,0.75241c0.86605,0.41886 1.57705,0.90518 2.09143,1.56551c1.1838,1.25317 1.47896,2.80467 1.67196,3.95852c0.193,1.15386 0.04564,2.19059 -0.09042,2.86874c-0.13606,0.67813 -0.3024,1.10421 -0.3024,1.10421c0,0 0.12476,-0.31956 0.18895,-1.14326z" fill="#687a27"></path></g><g fill="#969330"><path d="M223.29082,186.5924c6.01263,-1.55571 6.27068,6.02437 1.77454,7.9811c-11.35945,5.03211 -7.78717,-6.42541 -1.77454,-7.9811z"></path><path d="M215.28978,194.23016c3.06731,3.35126 0.24313,9.26651 -2.5367,6.49749c-2.82142,-2.6625 -0.15996,-9.47954 2.5367,-6.49749z"></path><path d="M227.37645,198.8728c5.13208,3.33684 1.64253,10.95635 -3.18308,8.81243c-4.98066,-2.07647 -2.1759,-12.22735 3.18308,-8.81243z"></path></g><g><path d="M245.52236,223.01525c-33.00535,-17.50033 -23.87739,-53.65154 -23.87739,-53.65154c27.85379,-7.69582 53.70816,4.94381 53.70816,4.94381l5.04394,-4.35635c-6.25122,22.09978 12.22724,37.65829 12.22724,37.65829c-2.30317,4.94071 0.73476,9.93482 0.73476,9.93482z" fill="#6d4b9b"></path><path d="M233.96473,186.57509c-2.75162,-2.03714 -3.89565,-3.60648 -3.89565,-3.60648c-0.82303,0.9799 -5.115,2.42559 -5.115,2.42559c-0.18057,-1.43395 1.85425,-4.40622 1.85425,-4.40622c-1.92693,-0.27079 -5.01419,-4.2901 -5.01419,-4.2901c1.84669,-0.36653 6.43958,0.5777 6.43958,0.5777c-0.14044,-1.11529 2.70276,-4.50038 2.70276,-4.50038c0.49992,1.23695 1.56534,4.91523 1.56534,4.91523c1.31751,-0.46935 5.25164,0.70956 5.25164,0.70956c-1.25189,1.67371 -4.37055,3.55462 -4.37055,3.55462c0.59479,1.30719 0.50699,4.70958 0.58181,4.62049z" fill="#e0c448"></path><path d="M252.91881,212.74338c-3.5291,-0.01219 -5.47611,-0.4423 -5.47611,-0.4423c-0.0092,1.29346 -2.30317,4.94071 -2.30317,4.94071c-1.15866,-1.00227 -1.60005,-4.50748 -1.60005,-4.50748c-1.59673,0.985 -6.73886,-0.22137 -6.73886,-0.22137c1.10225,-1.49555 5.23914,-3.48948 5.23914,-3.48948c-0.87402,-0.79154 -1.0763,-5.13106 -1.0763,-5.13106c1.11855,0.68362 4.56905,2.80473 4.56905,2.80473c0.80297,-1.13923 4.56574,-2.68773 4.56574,-2.68773c0.33563,1.98217 -0.79046,5.33825 -0.79046,5.33825c1.38313,0.73503 3.61101,3.39574 3.61101,3.39574z" fill="#e0c448"></path><path d="M259.72846,189.6123c-2.95604,-1.61057 -4.4194,-2.9829 -4.4194,-2.9829c-0.72815,1.05015 -4.77015,3.11431 -4.77015,3.11431c-0.44515,-1.48536 1.1353,-4.64953 1.1353,-4.64953c-1.9817,-0.02238 -5.68758,-3.48838 -5.68758,-3.48838c1.80656,-0.68517 6.48891,-0.39711 6.48891,-0.39711c-0.31014,-1.09647 1.96377,-4.90304 1.96377,-4.90304c0.66962,1.21811 2.3938,4.66173 2.3938,4.66173c1.29745,-0.62867 5.32104,-0.10593 5.32104,-0.10593c-0.87237,1.9547 -3.6863,4.20567 -3.6863,4.20567c0.76451,1.28837 1.18581,4.63425 1.26063,4.54517z" fill="#e0c448"></path><path d="M272.10465,209.3215c0.10787,-3.24306 0.7357,-5.08984 0.7357,-5.08984c-1.3777,-0.00864 -5.20774,-2.41075 -5.20774,-2.41075c1.16245,-1.01756 4.91601,-1.27262 4.91601,-1.27262c-0.87944,-1.51794 0.67008,-6.29422 0.67008,-6.29422c1.51814,1.12393 3.3974,5.11577 3.3974,5.11577c0.84309,-0.82057 5.50538,-0.69183 5.50538,-0.69183c-0.72815,1.05015 -3.17718,4.14916 -3.17718,4.14916c1.21343,0.75387 2.61827,4.39447 2.61827,4.39447c-2.13134,0.15578 -5.65124,-1.14987 -5.65124,-1.14987c-0.87778,1.22831 -3.80668,3.24971 -3.80668,3.24971z" fill="#e0c448"></path><path d="M272.62321,175.17596c-2.13134,0.15578 -5.65124,-1.14987 -5.65124,-1.14987c-0.87778,1.22831 -3.80668,3.24971 -3.80668,3.24971c0.10787,-3.24306 0.7357,-5.08984 0.7357,-5.08984c-1.30287,-0.09773 -5.20774,-2.41075 -5.20774,-2.41075c0.22447,-0.26725 0.6387,-0.39399 1.12775,-0.60983c4.87754,1.15497 8.83174,2.49318 11.63269,3.55551c0.66962,1.21811 1.16951,2.45507 1.16951,2.45507z" fill="#e0c448"></path><path d="M261.50931,220.83697c-0.97432,-1.58817 0.67008,-6.29422 0.67008,-6.29422c1.44331,1.21301 3.3974,5.11577 3.3974,5.11577c0.84309,-0.82057 5.50538,-0.69183 5.50538,-0.69183c-0.22447,0.26725 -0.50368,0.7829 -0.95261,1.31739l-13.06729,1.45035c1.54197,-0.73658 4.44702,-0.89746 4.44702,-0.89746z" fill="#e0c448"></path><path d="M291.27706,216.72525c-1.28826,-0.66478 -3.22061,-1.66198 -5.21318,-3.13713c-1.04372,-0.7727 -2.18232,-1.61565 -3.2461,-2.5477c-1.06378,-0.93204 -2.22245,-1.93432 -3.23147,-3.11474c-1.00902,-1.18044 -1.94324,-2.44996 -2.97231,-3.78974c-0.95427,-1.42885 -1.81365,-2.78747 -2.52338,-4.32423c-0.78455,-1.44768 -1.24978,-3.09237 -1.78981,-4.64797c-0.46521,-1.64469 -0.66583,-3.23796 -0.77158,-4.76098c-0.10574,-1.52303 -0.04177,-3.06489 0.04225,-4.44742c0.08945,-0.65615 0.17891,-1.31229 0.26836,-1.96844c0.08945,-0.65615 0.17891,-1.31229 0.36325,-1.89819c0.2738,-1.24204 0.56766,-2.32477 0.97645,-3.17791c0.48362,-0.94223 0.72272,-1.77653 1.07677,-2.38127c0.6132,-1.27973 1.04207,-1.97353 1.04207,-1.97353c0,0 -0.16428,0.74523 -0.6826,2.0952c-0.25915,0.67498 -0.32855,1.49045 -0.64248,2.41385c-0.10952,0.49682 -0.21903,0.99363 -0.32855,1.49045c-0.10952,0.49682 -0.21903,0.99363 -0.3085,1.64979c-0.10409,1.2232 -0.283,2.53552 -0.29221,3.82897c-0.0092,1.29346 0.00166,2.74624 0.18221,4.18019c0.18057,1.43395 0.45601,2.93815 0.90115,4.42351c0.51998,1.39628 1.06001,2.95188 1.74969,4.32932c0.61487,1.46652 1.37934,2.75488 2.23872,4.11349c0.93419,1.26952 1.77352,2.4688 2.78254,3.64925c1.92317,2.29065 3.97591,4.24379 5.81882,5.89712c1.91773,1.56424 3.62565,2.82868 4.76425,3.67163c1.13861,0.84296 1.87761,1.24559 1.87761,1.24559c0,0 -0.64411,-0.33239 -2.08201,-0.81903z" fill="#4a3369"></path><path d="M265.44297,171.44938c-1.07842,-0.36496 -2.40136,-0.62202 -3.81918,-0.94932c-1.32294,-0.25706 -2.83565,-0.6546 -4.3283,-0.89282c-1.49265,-0.23822 -2.98529,-0.47643 -4.64765,-0.6958c-1.58753,-0.30846 -3.3247,-0.43875 -4.89217,-0.5879c-1.66236,-0.21938 -3.30464,-0.27944 -4.94694,-0.33949c-1.64228,-0.06005 -3.18969,-0.04985 -4.73709,-0.03967c-1.54741,0.0102 -3.07475,0.17971 -4.45245,0.17107c-1.3777,-0.00864 -2.73534,0.14205 -3.92327,0.27389c-1.26275,0.22093 -2.37586,0.2637 -3.3941,0.37671c-1.01822,0.11302 -1.94158,0.29627 -2.62039,0.37162c-1.43246,0.23976 -2.28098,0.33395 -2.28098,0.33395c0,0 0.82847,-0.2535 2.24087,-0.6526c0.75365,-0.16441 1.5821,-0.41793 2.58026,-0.69027c0.99816,-0.27234 2.09122,-0.47443 3.35398,-0.69537c1.26275,-0.22093 2.60033,-0.53095 4.05285,-0.61138c1.35764,-0.15068 2.95981,-0.40928 4.50722,-0.41948c0.7737,-0.00511 1.62223,-0.09927 2.39592,-0.10436c0.84852,-0.09418 1.62223,-0.09927 2.49081,-0.03412c1.64228,0.06005 3.35941,0.03102 5.02175,0.2504c1.66236,0.21938 3.39952,0.34968 4.98705,0.65814c1.66236,0.21938 3.17506,0.61691 4.7626,0.9254c1.58753,0.30846 3.02543,0.79508 4.44324,1.12239c1.34301,0.41638 2.68601,0.83276 3.85931,1.26797c4.76803,1.65179 7.57441,3.44051 7.57441,3.44051c0,0 -3.08561,-1.27307 -8.22774,-2.47944z" fill="#4a3369"></path><path d="M243.08088,222.07458c-1.57289,-0.87553 -3.78992,-2.08345 -6.08719,-3.92868c-1.23348,-0.91318 -2.48703,-1.98574 -3.66576,-3.14733c-1.17872,-1.16161 -2.47241,-2.55278 -3.59637,-3.9628c-1.21885,-1.48027 -2.268,-2.97936 -3.33722,-4.63778c-1.06921,-1.65842 -1.96872,-3.33568 -2.7934,-5.10202c-0.82469,-1.76635 -1.47966,-3.55153 -2.05982,-5.42579c-0.58016,-1.87426 -0.97054,-3.60804 -1.28612,-5.43086c-0.31557,-1.82286 -0.53626,-3.57545 -0.56717,-5.18757c-0.03091,-1.61211 -0.06185,-3.22422 0.02218,-4.60677c0.15886,-1.47163 0.16806,-2.76509 0.36703,-3.91805c0.19897,-1.15297 0.24829,-2.12777 0.48741,-2.96208c0.3085,-1.64979 0.4527,-2.55434 0.4527,-2.55434c0,0 -0.04933,0.9748 -0.18811,2.60574c-0.06938,0.81547 -0.02384,1.86052 -0.0531,2.99465c-0.02928,1.13412 0.03634,2.3385 0.0472,3.7913c0.08025,0.63731 0.18057,1.43395 0.18599,2.16033c0.00544,0.72639 0.10574,1.52303 0.20605,2.31967c0.10574,1.52303 0.49612,3.25679 0.79164,4.92032c0.1952,0.86688 0.3904,1.73377 0.58559,2.60066c0.27001,0.77781 0.46521,1.64469 0.7553,2.58182c0.58016,1.87426 1.30996,3.57036 2.03976,5.26646c0.7298,1.69609 1.6293,3.37335 2.60365,4.96154c1.04915,1.49909 2.02348,3.08728 3.14745,4.49729c2.17311,2.90912 4.53058,5.23233 6.67821,7.25573c1.15866,1.00227 2.12757,1.86406 3.0764,2.56653c0.94884,0.70247 1.8028,1.33467 2.46697,1.82639c1.42326,1.05369 2.25714,1.52657 2.25714,1.52657c0,0 -0.90871,-0.3838 -2.53636,-1.01093z" fill="#4a3369"></path><path d="M284.68948,219.07195c-2.0164,0.38535 -4.29738,0.7193 -6.74807,1.07209c-2.45068,0.35278 -5.09114,0.56508 -7.71154,0.93669c-1.26275,0.22093 -2.54557,0.28253 -3.90321,0.43322c-1.35764,0.15068 -2.64046,0.21228 -3.82839,0.34414c-2.47075,0.19345 -4.86668,0.29783 -6.82832,0.43477c-4.01815,0.20364 -6.67868,0.25662 -6.67868,0.25662c0,0 2.60033,-0.53095 6.55831,-1.21257c2.0164,-0.38535 4.29738,-0.7193 6.74807,-1.07209c1.18793,-0.13185 2.45068,-0.35278 3.80832,-0.50347c1.28282,-0.0616 2.54557,-0.28253 3.90321,-0.43322c2.54557,-0.28253 5.26084,-0.5839 7.73159,-0.77735c2.47075,-0.19345 4.86668,-0.29783 6.82832,-0.43477c4.01815,-0.20364 6.67868,-0.25662 6.67868,-0.25662c0,0 -2.50545,0.60119 -6.55831,1.21257z" fill="#4a3369"></path><path d="M287.12326,220.64111c-0.89226,-0.93186 -0.04655,-3.01151 1.88894,-4.64501c1.93548,-1.63351 4.22781,-2.2023 5.12008,-1.27044c0.89226,0.93186 0.04655,3.01151 -1.88894,4.64501c-1.93548,1.63351 -4.22781,2.2023 -5.12008,1.27044z" fill="#bdabd6"></path></g></g></g></svg>