<svg version="1.1" xmlns="http://www.w3.org/2000/svg" xmlns:xlink="http://www.w3.org/1999/xlink" width="121.93005" height="153.2249" viewBox="0,0,121.93005,153.2249"><g transform="translate(-179.02744,-103.38755)"><g data-paper-data="{&quot;isPaintingLayer&quot;:true}" fill-rule="nonzero" stroke="#000000" stroke-width="1" stroke-linecap="butt" stroke-linejoin="miter" stroke-miterlimit="10" stroke-dasharray="" stroke-dashoffset="0" style="mix-blend-mode: normal"><g data-paper-data="{&quot;index&quot;:null}"><path d="M222.69862,208.13306c0.03322,-10.38613 -11.70572,-28.88808 -19.80485,-36.70329c-1.87844,-1.81112 -3.3566,-5.89272 -2.83098,-13.44962c0.23507,-3.36237 0.90684,-6.88259 2.47888,-10.62617c0,0 0.69257,-3.42713 4.49174,-9.58891c6.59859,-10.69679 27.55449,-18.75518 24.21198,4.03003c-0.99984,6.82202 -4.56981,13.79674 -6.69492,16.67667c1.36689,-0.67098 8.15237,-4.50425 10.85371,-1.13349c3.45545,4.31324 -9.64626,14.11807 -9.64626,14.11807c3.42888,-1.35105 8.06268,-2.2737 9.44862,0.46094c1.9432,3.83903 -4.74752,9.58481 -4.74752,9.58481c1.99713,0.17186 5.5373,0.05892 6.19001,2.00134c0.65272,1.94232 -2.22809,6.01064 -3.52434,7.13084c3.72442,0.41688 5.59621,2.06698 5.61702,3.69296c0.18103,1.72895 -2.38665,5.17436 -6.34701,7.71879c2.25466,4.28501 -0.17683,8.98777 -2.14495,9.98927c-1.88428,0.95997 -3.71201,0.77806 -5.52156,-0.29817c-0.85368,-0.49992 -2.03701,-1.52047 -2.02957,-3.60406z" fill="#279afa"></path><path d="M222.69861,208.13308c0.03322,-10.38613 -11.70572,-28.88808 -19.80485,-36.70329c-1.87844,-1.81112 -3.3566,-5.89272 -2.83098,-13.44962c0.23507,-3.36237 0.90684,-6.88259 2.47888,-10.62617c2.2961,-5.56719 11.86097,-16.23155 18.15982,-14.70523c11.21324,2.71803 -4.17129,30.67691 -4.17129,30.67691c22.34351,-6.50889 2.39661,11.32373 2.39661,11.32373c20.26911,-3.77346 5.31562,9.16706 5.31562,9.16706c13.98189,-0.3778 2.74872,9.27178 2.74872,9.27178c11.85433,0.5049 5.40356,8.95866 5.40356,8.95866c2.25466,4.285 -0.17683,8.98768 -2.14495,9.98918c-1.88428,0.95996 -3.71201,0.77814 -5.52156,-0.29809c-0.85368,-0.50079 -2.03701,-1.52134 -2.02957,-3.60493z" fill="#0043a5"></path></g><path d="M237.6114,235.9831c0.03007,-1.39612 0.69861,-3.43287 0.66341,-4.83205c1.7925,2.37779 6.05735,8.23093 6.69752,8.22887c1.77904,-0.00422 2.58715,-1.25122 4.37274,-1.51862c1.00727,-0.14298 1.88467,0.81621 1.85214,1.80708c-0.03413,0.9053 -0.76114,1.29367 -1.44499,1.92577c-2.66559,2.46772 -0.31916,5.87113 1.10472,9.17972c0.62599,1.45342 0.40314,3.79758 -1.16972,3.90025c-2.01791,0.11667 -3.27832,-2.33213 -5.05254,-7.10824c0.42972,4.7717 -1.239,6.73189 -2.26842,5.92027c-1.13645,-0.88945 -1.44445,-1.87376 -1.6598,-3.30963c-0.47491,-3.35169 0.18588,-5.81372 2.57242,-8.20622c-2.50024,-1.67471 -5.69083,-5.0418 -5.6675,-5.98719z" data-paper-data="{&quot;index&quot;:null}" fill="#ffa600"></path><g data-paper-data="{&quot;index&quot;:null}"><path d="M214.2789,206.7355c-0.13042,-0.77562 -0.34711,-1.58866 -0.65193,-2.45143c-1.7696,-5.01413 -5.42681,-7.99292 -10.49994,-9.67371c-0.78724,-0.26076 -1.60937,-0.50237 -2.45055,-0.71749c-3.7253,-0.95167 -7.84842,-1.31374 -11.25895,0.1528c0.55473,-0.67509 1.21741,-1.35272 2.02957,-2.03035c10.86944,-9.0716 24.24433,-4.48266 36.33703,3.0676c9.26095,5.78057 32.7995,21.70907 39.16967,20.52898c20.8969,-15.41276 28.31351,-12.97873 29.9644,-9.67528c1.53376,3.12652 -2.00553,6.60689 -4.83729,8.73025c5.08887,0.86949 8.03855,0.51573 8.37658,4.01184c0.31058,3.20459 -4.24681,3.65721 -7.43234,4.48266c2.83177,1.17921 5.23748,3.04602 4.14463,5.35207c-1.06207,2.24216 -6.48896,2.71384 -9.79241,1.76969c1.76969,3.30345 4.24681,10.97162 -3.4371,8.21539c-7.13504,-2.56017 -11.20747,-6.4881 -17.22475,-11.32539c-9.31994,9.67371 -23.12333,14.03923 -29.84814,11.44331c-11.77049,-4.54244 -18.776,-15.33383 -22.84754,-27.6059c0.41933,-1.3445 0.5182,-2.73464 0.2591,-4.27504z" fill="#ff0600"></path><path d="M203.12707,194.60956c-0.78724,-0.26076 -1.60937,-0.50245 -2.45055,-0.71749c4.87873,-4.01762 11.50809,-3.32923 17.61506,-0.58628c3.85231,1.73394 6.4964,5.89683 4.09401,9.10649c-2.89488,3.86815 -6.54963,4.63214 -8.10752,4.32322c-0.13033,-0.77562 -0.34711,-1.58866 -0.65184,-2.45143c-1.76882,-5.015 -5.42603,-7.9937 -10.49916,-9.67449z" fill="#0043a5"></path><path d="M187.90786,194.84541c0.48409,-0.3139 0.989,-0.57719 1.50972,-0.80141c3.41053,-1.46654 7.53364,-1.10448 11.25895,-0.1528c0.84039,0.21512 1.66331,0.45673 2.45055,0.71749c5.07313,1.68079 8.73034,4.65959 10.49994,9.67371c0.30394,0.86278 0.52072,1.67581 0.65193,2.45143c0.2591,1.54041 0.16024,2.93055 -0.2583,4.27418c-0.49495,1.58778 -1.44329,3.10833 -2.87163,4.71849c-3.21542,3.62818 -8.95037,5.61789 -12.8442,2.52118c3.24444,-1.06206 4.88039,-4.31988 4.46771,-7.71214c-9.89461,-3.37819 -17.0911,12.07688 -19.23029,21.94325c-11.11115,-24.35814 4.3656,-37.63337 4.3656,-37.63337z" fill="#ffa600"></path></g><path d="M228.90932,242.75073c1.86905,-3.87918 5.84228,-9.23456 7.29779,-10.21026c1.83538,0.99685 5.04511,1.26968 7.02015,0.93704c-3.74725,3.3472 -9.94644,7.22443 -10.30681,11.14916c-0.23254,2.53492 2.29503,3.41342 3.03385,5.88802c0.40616,1.39801 -0.7761,2.83484 -2.18555,2.98866c-1.28914,0.13542 -1.98624,-0.81739 -3.02011,-1.65856c-4.03359,-3.27754 -8.38085,0.73247 -12.78165,3.41813c-1.93315,1.18027 -5.29809,1.33712 -5.76224,-0.8702c-0.57194,-2.83446 4.40825,-7.89932 10.90124,-8.68694c-2.14911,-1.2824 -10.13362,2.80338 -10.33208,-0.91943c-0.10968,-2.06216 2.00004,-3.42831 3.99095,-4.02361c4.6517,-1.3495 8.27266,-0.90988 12.14446,1.98801z" data-paper-data="{&quot;index&quot;:null}" fill="#ffa600"></path><g data-paper-data="{&quot;index&quot;:null}"><path d="M214.79209,195.83221c1.59988,3.10129 -0.44762,7.34106 -3.42107,8.44114c-1.81874,0.67343 -4.99699,-0.14913 -5.75799,-2.87051c-1.94846,-6.9711 6.48454,-10.79739 9.17906,-5.57062z" fill="#ffffff"></path><path d="M211.09975,197.35904c-0.40701,0.20751 -0.87617,0.2525 -1.31105,0.08555c-0.43497,-0.16698 -0.75348,-0.51436 -0.91707,-0.94093c-0.16355,-0.42665 -0.17217,-0.93249 0.01355,-1.41625c0.18571,-0.48376 0.53064,-0.85396 0.93765,-1.06149c0.40704,-0.2076 0.87616,-0.25251 1.31112,-0.08552c0.43489,0.16695 0.75345,0.51424 0.91699,0.9409c0.16358,0.42657 0.17217,0.93249 -0.01355,1.41625c-0.18571,0.48376 -0.53061,0.85389 -0.93765,1.06149z" fill="#272525"></path></g><g data-paper-data="{&quot;index&quot;:null}"><path d="M228.61354,207.05191c5.18016,-13.13922 -0.53553,-42.38094 -6.92804,-56.28575c-1.48163,-3.22354 -1.33669,-9.12408 3.06911,-18.43459c1.96067,-4.14382 4.55267,-8.2692 8.39668,-12.23248c0,0 2.57225,-3.99923 10.43362,-9.9231c13.64849,-10.28382 44.17732,-10.12401 28.67241,17.08258c-4.64146,8.14538 -12.61429,15.21369 -16.73067,17.81049c2.06331,-0.17333 12.55478,-1.67148 14.30811,3.93397c2.24396,7.17368 -19.20175,13.10924 -19.20175,13.10924c5.01202,-0.01559 11.33708,1.10884 11.73899,5.25859c0.56322,5.82307 -10.75402,9.79207 -10.75402,9.79207c2.4448,1.20553 6.98425,2.81331 6.85027,5.59676c-0.13446,2.78272 -5.79581,6.50992 -7.99208,7.28938c4.51124,2.37103 6.06583,5.38581 5.2874,7.4547c-0.62589,2.28018 -5.58367,5.37431 -11.85622,6.63814c0.73567,6.54359 -4.67124,11.29553 -7.65939,11.59051c-2.86113,0.28488 -5.08629,-0.85144 -6.84716,-3.10844c-0.8339,-1.05759 -1.82619,-2.9353 -0.78723,-5.57205z" fill="#279afa"></path><path d="M228.61355,207.05192c5.18016,-13.13922 -0.53553,-42.38094 -6.92804,-56.28575c-1.48163,-3.22354 -1.33669,-9.12408 3.06911,-18.43459c1.96067,-4.14382 4.55267,-8.2692 8.39668,-12.23248c5.66154,-5.91569 23.05297,-14.69173 30.27567,-9.64197c12.85688,8.99042 -20.46101,36.79167 -20.46101,36.79167c31.52063,2.80902 -2.56617,15.52884 -2.56617,15.52884c27.54065,5.248 2.19795,14.23923 2.19795,14.23923c17.89757,6.43926 -1.10423,13.10396 -1.10423,13.10396c14.76332,6.50344 2.41275,14.01981 2.41275,14.01981c0.73567,6.54359 -4.67124,11.29553 -7.65939,11.59051c-2.86113,0.28488 -5.08629,-0.85144 -6.84716,-3.10844c-0.83285,-1.05631 -1.82513,-2.93403 -0.78616,-5.57078z" fill="#0043a5"></path></g></g></g></svg>