<svg version="1.1" xmlns="http://www.w3.org/2000/svg" xmlns:xlink="http://www.w3.org/1999/xlink" width="173.80198" height="119.50849" viewBox="0,0,173.80198,119.50849"><g transform="translate(-153.09106,-151.98195)"><g data-paper-data="{&quot;isPaintingLayer&quot;:true}" fill-rule="nonzero" stroke="#000000" stroke-width="1" stroke-linecap="butt" stroke-linejoin="miter" stroke-miterlimit="10" stroke-dasharray="" stroke-dashoffset="0" style="mix-blend-mode: normal"><g data-paper-data="{&quot;index&quot;:null}"><path d="M247.67081,185.64607c0.06917,-2.19571 1.35532,-3.22799 2.27545,-3.72089c1.94281,-1.06546 3.87679,-1.18982 5.82832,-0.10943c2.03555,1.12677 4.42566,6.17057 1.8911,10.60244c4.07981,2.82869 6.65649,6.5549 6.40164,8.36811c-0.08227,1.71162 -2.11432,3.37941 -6.05406,3.68324c1.32369,1.22832 4.20854,5.61897 3.45032,7.64229c-0.75822,2.02071 -4.48435,1.77295 -6.59517,1.87975c0,0 6.83944,6.30016 4.65072,10.27405c-1.56282,2.82966 -6.41135,1.68709 -9.97469,0.13659c0,0 13.44434,10.81081 9.6437,15.23035c-2.96973,3.45391 -9.97818,-0.83787 -11.39383,-1.59435c2.13099,3.1142 5.63653,10.59545 6.4385,17.82012c2.68163,24.12902 -19.1019,14.86618 -25.65943,3.35323c-3.77783,-6.63456 -4.38104,-10.26882 -4.38104,-10.26882c-1.51723,-4.00464 -2.09336,-7.73512 -2.21948,-11.29061c-0.27395,-7.9794 1.43234,-12.2221 3.47759,-14.06324c8.82077,-7.93741 21.87366,-26.99895 22.22037,-37.94285z" fill="#279afa"></path><path d="M249.94102,181.9217c1.94281,-1.06731 3.87679,-1.1907 5.82832,-0.11118c2.03555,1.1259 4.42565,6.17057 1.89013,10.60244c0,0 6.48497,9.1473 -6.02525,9.24178c0,0 11.48405,10.58149 -3.23497,9.66834c0,0 15.27759,14.1876 -5.93765,9.46422c0,0 20.35992,19.52031 -2.9417,11.84037c0,0 15.17778,30.02552 3.26475,32.47782c-6.69238,1.37636 -16.37818,-10.21188 -18.59231,-16.16272c-1.51723,-4.00464 -2.09336,-7.73512 -2.21948,-11.29061c-0.27395,-7.9794 1.43234,-12.2221 3.47759,-14.06324c8.82077,-7.93741 21.87366,-26.99895 22.22037,-37.94285c0.06915,-2.1957 1.3553,-3.22798 2.2702,-3.72437z" fill="#0043a5"></path></g><path d="M242.05532,195.15414c2.39012,-2.08375 6.69238,-4.41168 7.65277,-4.13065c1.41139,0.41239 3.30161,1.65207 4.7357,1.99878c-2.91105,1.17314 -10.03948,3.91266 -10.21197,4.56399c-0.48417,1.81408 0.56382,2.9776 0.34671,4.8687c-0.13222,1.06381 -1.34746,1.69679 -2.34898,1.39034c-0.9114,-0.28192 -1.10843,-1.13025 -1.56456,-1.99791c-1.78254,-3.38999 -5.89039,-1.93398 -9.64892,-1.39296c-1.65118,0.24077 -3.97659,-0.6295 -3.65006,-2.25789c0.43431,-2.0855 3.27531,-2.69831 8.6212,-3.1948c-4.9755,-0.87017 -6.51377,-3.10711 -5.40545,-3.93276c1.21612,-0.91315 2.30348,-0.95603 3.8242,-0.78267c3.54239,0.43596 5.8677,1.78517 7.64938,4.86783z" data-paper-data="{&quot;index&quot;:null}" fill="#ffa600"></path><g data-paper-data="{&quot;index&quot;:null}"><path d="M235.5372,173.28735c-0.13746,-0.81855 -0.36602,-1.67476 -0.68644,-2.58442c-1.86655,-5.28632 -5.72141,-8.42681 -11.07079,-10.19887c-0.83001,-0.27308 -1.69669,-0.52879 -2.58365,-0.7555c-3.92751,-1.00337 -8.27439,-1.3851 -11.87189,0.16103c0.58487,-0.71175 1.28527,-1.42613 2.13973,-2.1406c11.45873,-9.56403 25.5596,-4.72425 38.30876,3.2342c9.76369,6.09443 34.58088,22.88661 41.29596,21.64345c22.03138,-16.2503 29.85226,-13.68335 31.59106,-10.19974c1.61879,3.29638 -2.11442,6.96557 -5.099,9.20512c5.36597,0.91664 8.47579,0.54286 8.83211,4.22873c0.32742,3.3768 -4.47736,3.85573 -7.83582,4.72426c2.98557,1.24405 5.52187,3.2114 4.36969,5.64177c-1.11978,2.36478 -6.84119,2.86381 -10.32402,1.86567c1.86579,3.48369 4.47563,11.56903 -3.62542,8.66409c-7.52239,-2.69919 -11.81591,-6.83955 -18.15897,-11.94107c-9.82665,10.19704 -24.37853,14.8004 -31.46748,12.06271c-12.40953,-4.78818 -19.79524,-16.1662 -24.08876,-29.10452c0.44478,-1.41654 0.54722,-2.88215 0.27492,-4.50628z" fill="#ff0600"></path><path d="M223.78085,160.50319c-0.83001,-0.27395 -1.69669,-0.52879 -2.58365,-0.7555c5.14362,-4.2366 12.1311,-3.51077 18.57135,-0.61815c4.06235,1.82805 6.84904,6.21704 4.3171,9.60082c-3.05027,4.07818 -6.906,4.88364 -8.54846,4.55789c-0.13658,-0.81855 -0.36601,-1.67476 -0.6873,-2.58442c-1.86569,-5.28807 -5.72142,-8.42856 -11.06905,-10.20062z" fill="#0043a5"></path><path d="M207.73454,160.75187c0.51036,-0.3309 1.041,-0.60845 1.58988,-0.84485c3.59486,-1.54613 7.94175,-1.16441 11.87189,-0.16191c0.88608,0.22759 1.75364,0.48243 2.58365,0.75638c5.34676,1.77206 9.20424,4.91255 11.07079,10.19887c0.31956,0.90966 0.54899,1.76674 0.68644,2.58442c0.27318,1.62325 0.169,3.08888 -0.27318,4.5054c-0.52269,1.67486 -1.51984,3.27706 -3.02572,4.9755c-3.38999,3.8242 -9.43628,5.92368 -13.54327,2.65631c3.41977,-1.11803 5.14624,-4.55265 4.71018,-8.12909c-10.43073,-3.56159 -18.01792,12.73247 -20.27241,23.13438c-11.71426,-25.67952 4.60173,-39.67543 4.60173,-39.67543z" fill="#ffa600"></path></g><path d="M246.91098,208.03205c2.91106,-3.48195 8.35492,-7.9304 10.09372,-8.55466c1.62053,1.49278 4.83106,2.6012 6.93577,2.7701c-4.69447,2.45404 -12.03215,4.81707 -13.41366,8.73674c-0.89131,2.53194 1.46475,4.08419 1.58203,6.80355c0.05344,1.53391 -1.52693,2.69656 -3.00652,2.49081c-1.3526,-0.1943 -1.81931,-1.34735 -2.65893,-2.47412c-3.27696,-4.38988 -8.75597,-1.41402 -13.9477,0.19517c-2.28331,0.70564 -5.76089,-0.00176 -5.66806,-2.37702c0.14706,-3.04678 6.54617,-6.93753 13.38562,-6.06726c-1.86569,-1.86567 -11.08127,0.24951 -10.32305,-3.60622c0.42198,-2.13798 2.93025,-2.9907 5.11907,-3.08266c5.10238,-0.17859 8.69202,1.20553 11.90167,5.16555z" data-paper-data="{&quot;index&quot;:null}" fill="#ffa600"></path><g data-paper-data="{&quot;index&quot;:null}"><path d="M226.61662,161.75695c2.45054,-2.74643 7.39627,-2.33317 9.60255,0.17685c1.35008,1.53653 1.73966,4.97552 -0.64958,6.75282c-6.12594,4.55088 -13.08016,-2.3035 -8.95299,-6.92967z" fill="#ffffff"></path><path d="M229.51717,164.8142c0.35893,0.32227 0.5804,0.76696 0.5804,1.25812c0,0.49116 -0.22146,0.93595 -0.5804,1.25812c-0.35805,0.32226 -0.85357,0.52181 -1.39993,0.52181c-0.54634,0 -1.04187,-0.19955 -1.39993,-0.52181c-0.35894,-0.32216 -0.5805,-0.76696 -0.5805,-1.25812c0,-0.49116 0.22156,-0.93586 0.5805,-1.25812c0.35805,-0.32217 0.85357,-0.52172 1.39993,-0.52172c0.54634,0 1.04187,0.19955 1.39993,0.52172z" fill="#272525"></path></g><g data-paper-data="{&quot;index&quot;:null}"><path d="M253.5785,174.34267c2.50481,-1.62754 4.65364,-0.99799 5.92291,-0.3556c2.70205,1.34441 4.34515,3.40204 4.65359,6.41923c0.32487,3.14883 -3.44591,9.73506 -10.35952,10.35345c0.01596,6.74669 -2.13328,12.51855 -4.35865,13.6459c-1.97198,1.24029 -5.41581,0.27174 -8.81494,-3.89055c-0.34301,2.43337 -2.99823,9.06588 -5.84558,9.7903c-2.84825,0.72528 -5.46567,-3.62618 -7.22605,-5.89733c0,0 -1.71657,12.52486 -7.84968,13.1711c-4.37151,0.45748 -6.86553,-5.83899 -7.90499,-11.0197c0,0 -1.61637,23.40228 -9.49826,22.59734c-6.16033,-0.63206 -6.8213,-11.78411 -7.07676,-13.95242c-1.81695,4.79986 -7.44048,14.52392 -14.87619,21.03609c-24.83744,21.746 -31.43559,-9.75586 -23.68778,-26.02208c4.46362,-9.37034 8.05438,-12.86995 8.05438,-12.86995c3.28478,-4.80646 6.99916,-8.35246 10.86885,-11.24982c8.6906,-6.51203 14.75278,-7.90672 18.39702,-7.05472c15.70862,3.67375 47.11855,3.41802 59.60164,-4.70124z" fill="#279afa"></path><path d="M253.57851,174.34265c2.5048,-1.62754 4.65363,-0.99801 5.92216,-0.36174c2.70292,1.34442 4.34602,3.40205 4.65446,6.41924c0.32312,3.1488 -3.44587,9.73322 -10.36039,10.35334c0,0 -5.15972,14.34274 -14.99036,0.46177c0,0 -2.88426,21.03212 -13.30387,3.90028c0,0 -3.95079,28.07391 -15.1755,0.72837c0,0 -5.95879,37.89185 -15.50254,5.9231c0,0 -21.69659,40.27658 -33.69381,28.88757c-6.73909,-6.39665 -1.33495,-26.21084 3.58232,-33.30613c3.28478,-4.80646 6.99916,-8.35246 10.86885,-11.24982c8.6906,-6.51203 14.75278,-7.90672 18.39702,-7.05472c15.70862,3.67375 47.11855,3.41802 59.60164,-4.70124z" fill="#0043a5"></path></g></g></g></svg>