<svg version="1.1" xmlns="http://www.w3.org/2000/svg" xmlns:xlink="http://www.w3.org/1999/xlink" width="57.32365" height="72.85392" viewBox="0,0,57.32365,72.85392"><g transform="translate(-212.00035,-144.00008)"><g data-paper-data="{&quot;isPaintingLayer&quot;:true}" fill-rule="nonzero" stroke="none" stroke-width="1" stroke-linecap="butt" stroke-linejoin="miter" stroke-miterlimit="10" stroke-dasharray="" stroke-dashoffset="0" style="mix-blend-mode: normal"><path d="M269.324,174.354c0,3.86 -0.09,7.5 -0.28,10.82c-0.01,0.08 -0.01,0.15 -0.02,0.22c-0.39,5.08 -1.36,9.37 -2.97,13.11c-1.98,4.5 -5.12,8.59 -9.34,12.24c-0.69,0.59 -1.44,1.09 -2.25,1.49l-2.36,1.18c-3.8,2.01 -8.3,3.16 -13.37,3.41c-0.04,0.01 -0.07,0.01 -0.1,0.01c-0.35,0.01 -0.69,0.02 -1.02,0.02c-4.86,0 -9.41,-1.4 -13.54,-4.15c-0.6,-0.4 -1.16,-0.86 -1.68,-1.37c-1.2,-1.21 -1.9,-2.46 -2.38,-3.41c-0.91,-1.84 -1.36,-3.65 -1.36,-5.51c0,-1.06 0.15,-2.1 0.44,-3.1c0.34,-1.87 1.06,-3.62 2.16,-5.16c-2.59,-2.08 -4.62,-4.52 -6.04,-7.3c-1.9,-3.67 -2.95,-7.52 -3.15,-11.43c-0.37,-6.8 0.87,-12.19 3.8,-16.41c2.67,-3.87 6.45,-7.32 11.2,-10.21c5.16,-3.13 9.96,-4.7 14.66,-4.8c0.35,-0.01 0.7,0 1.04,0.02c1.88,0.14 3.03,0.22 3.43,0.25c0.46,0.02 0.92,0.06 1.37,0.14c4.64,0.78 7.72,2.82 9.61,4.61c0.32,0.27 0.7,0.61 1.15,1c0.49,0.43 0.93,0.91 1.34,1.42l2.62,3.33c1.63,2.03 2.79,3.88 3.59,5.72c0.43,0.77 0.93,1.7 1.5,2.79c0.14,0.27 0.27,0.54 0.39,0.82c1.08,2.57 1.56,5.73 1.56,10.25z" fill="#00cccc"></path><path d="M258.325,174.351c0,3.694 -0.09,7.096 -0.266,10.203c-0.293,3.812 -0.996,7.008 -2.109,9.588c-1.291,2.934 -3.432,5.688 -6.422,8.268c-0.587,0.295 -1.407,0.705 -2.463,1.232c-2.405,1.291 -5.365,2.023 -8.884,2.199c-2.874,0.117 -5.542,-0.645 -8.005,-2.287c-0.059,-0.059 -0.162,-0.234 -0.308,-0.527c-0.146,-0.293 -0.22,-0.498 -0.22,-0.617c0.058,-0.057 0.147,-0.115 0.266,-0.176c-0.237,-1.758 0.734,-2.639 2.913,-2.639c0.765,0 1.441,0.147 2.031,0.44c0.176,0.235 0.501,0.499 0.972,0.792c1.059,0.352 2.118,0.527 3.18,0.527c3.531,0 6.651,-1.584 9.359,-4.75c2.588,-2.932 3.885,-6.01 3.885,-9.236c0,-0.585 -0.059,-1.113 -0.176,-1.582c-2.883,2.756 -6.617,4.133 -11.205,4.133c-3.354,0 -6.544,-0.775 -9.572,-2.33c-3.029,-1.553 -5.133,-3.475 -6.309,-5.762c-1.177,-2.287 -1.824,-4.603 -1.94,-6.949c-0.235,-4.279 0.38,-7.477 1.847,-9.588c1.817,-2.639 4.442,-4.998 7.872,-7.08c3.431,-2.081 6.494,-3.152 9.192,-3.211c2.403,0.176 3.664,0.264 3.782,0.264c1.759,0.295 3.107,0.939 4.046,1.936c0.293,0.234 0.704,0.587 1.232,1.056c0.879,1.114 1.758,2.229 2.639,3.343c1.172,1.467 1.934,2.697 2.287,3.693c0.408,0.704 0.967,1.73 1.67,3.079c0.469,1.114 0.706,3.108 0.706,5.981zM251.727,167.841c-0.119,-0.057 -0.309,-0.424 -0.572,-1.099c-0.264,-0.674 -0.602,-1.012 -1.011,-1.012c-0.353,-1.876 -1.056,-3.136 -2.111,-3.782c-0.646,-0.41 -1.144,-0.732 -1.495,-0.968l0.088,-0.088c-0.176,-0.292 -0.528,-0.469 -1.056,-0.528c-0.352,0 -0.704,0 -1.056,0c-1.936,-0.409 -3.313,-0.527 -4.134,-0.352c-1.818,0.352 -3.842,1.379 -6.069,3.079c-2.405,1.759 -3.959,3.548 -4.662,5.365c-0.47,1.114 -0.734,2.347 -0.792,3.694c-0.118,1.525 0.104,3.299 0.663,5.322c0.558,2.022 2.015,3.855 4.369,5.497c2.354,1.643 4.59,2.405 6.709,2.287c2.884,0.411 5.71,-0.88 8.477,-3.87c2.588,-2.873 3.883,-5.894 3.883,-9.061c0,-1.583 -0.439,-2.932 -1.318,-4.046c0.056,-0.114 0.087,-0.261 0.087,-0.438z" fill="#ffffff"></path></g></g></svg>