<svg version="1.1" xmlns="http://www.w3.org/2000/svg" xmlns:xlink="http://www.w3.org/1999/xlink" width="112.71178" height="127.44069" viewBox="0,0,112.71178,127.44069"><g transform="translate(-183.6441,-116.27967)"><g data-paper-data="{&quot;isPaintingLayer&quot;:true}" fill-rule="evenodd" stroke-miterlimit="10" stroke-dasharray="" stroke-dashoffset="0" style="mix-blend-mode: normal"><path d="M232.61802,173.82202c-0.19195,-6.75476 2.85119,-13.15175 3.0337,-16.02214c0.00758,-0.85965 -4.21701,-13.79139 -6.7265,-21.56268c-3.58237,-10.88912 -0.09969,-24.34697 4.30424,-17.494c4.09199,6.5762 10.49137,29.58139 11.44868,35.10918c2.27834,12.59118 -3.62834,30.54289 -7.4558,42.75317" data-paper-data="{&quot;index&quot;:null}" fill="#ffab19" stroke="#001026" stroke-width="1.2" stroke-linecap="round" stroke-linejoin="round"></path><g data-paper-data="{&quot;index&quot;:null}"><path d="M234.37579,130.694c2.75844,-0.47973 5.63681,-0.7196 8.99492,-0.47973c5.63681,0.23986 11.03376,2.27871 11.03376,2.27871l14.5118,-9.47465c0.47973,-0.23986 1.07939,0.11993 0.95946,0.59966l-2.51858,21.46787c-0.71959,-0.95945 12.71282,15.35133 4.19763,29.02361c-8.51519,13.67228 -26.62496,19.78883 -49.17222,15.35133c-22.54726,-4.43749 -27.82428,-17.39018 -26.38509,-24.22631c1.43918,-6.83614 9.95437,-9.35472 9.95437,-9.35472c0,0 0.11993,-5.39694 3.95776,-11.99322c2.27871,-3.95777 9.95437,-9.59458 9.95437,-9.59458l3.11824,-12.83274c0.11993,-0.47973 0.71959,-0.59967 1.07939,-0.3598z" fill="#ffab19" stroke="#001026" stroke-width="1.2" stroke-linecap="butt" stroke-linejoin="miter"></path><path d="M206.31161,156.35951c10.19424,-2.27871 11.15369,5.27702 19.78882,5.87668c10.07431,0.7196 23.86652,-10.19423 31.90198,2.63851c8.03546,12.71282 -5.75674,29.98306 -34.78035,23.98645c-22.3074,-4.31756 -28.06415,-16.67059 -26.62496,-23.50672c1.43919,-6.83614 9.71452,-8.99492 9.71452,-8.99492z" fill="#ffffff" stroke="none" stroke-width="1" stroke-linecap="butt" stroke-linejoin="miter"></path><path d="M244.0903,169.19228c0.35979,5.87669 -0.7196,13.55235 -11.63343,14.75167c-12.59289,0.71959 -17.15031,-8.27533 -18.2297,-11.5135c-0.23987,-0.59966 0.23986,-1.19932 0.83952,-1.07939c1.79898,0.3598 5.63681,0.7196 12.11315,0.3598c7.19593,-0.47973 13.67227,-2.39865 15.95098,-3.23817c0.47973,-0.11993 0.95946,0.23986 0.95946,0.71959z" fill="#ffffff" stroke="#001026" stroke-width="1.2" stroke-linecap="round" stroke-linejoin="round"></path><path d="M198.51604,162.35612c0,0 -8.63513,-0.11992 -14.27194,-4.67735" fill="none" stroke="#001026" stroke-width="1.2" stroke-linecap="round" stroke-linejoin="round"></path><path d="M198.0363,169.43214c0,0 -4.67736,2.27871 -12.23309,1.67905" fill="none" stroke="#001026" stroke-width="1.2" stroke-linecap="round" stroke-linejoin="round"></path><path d="M226.58015,159.11797c2.39865,0 5.63682,0.11992 5.51689,1.55911c0,1.91891 -5.03715,4.91722 -7.19593,4.67735c-1.91891,-0.11994 -3.71789,-3.47804 -3.59796,-5.15709c0.11993,-0.83952 2.75844,-1.07939 5.27702,-1.07939z" fill="#001026" stroke="#001026" stroke-width="1.2" stroke-linecap="round" stroke-linejoin="round"></path><path d="M266.03787,164.39498c4.19763,-3.71789 14.5118,-7.076 14.5118,-7.076" fill="none" stroke="#001026" stroke-width="1.2" stroke-linecap="round" stroke-linejoin="round"></path><path d="M279.71015,169.3122c0,0 -8.87498,1.31926 -14.03207,-0.71959" fill="none" stroke="#001026" stroke-width="1.2" stroke-linecap="round" stroke-linejoin="round"></path><g><path d="M224.90112,139.32913c3.35809,2.15878 3.23817,8.27533 -0.23987,13.67228c-3.59797,5.39694 -9.11484,7.91552 -12.47295,5.75674c-3.35809,-2.15878 -3.23817,-8.27533 0.23987,-13.67228c3.47803,-5.39694 9.11484,-8.03545 12.47295,-5.75674z" fill="#ffffff" stroke="#001026" stroke-width="1.2" stroke-linecap="round" stroke-linejoin="round"></path><path d="M212.9079,151.92204c0,-1.31926 0.95946,-2.39865 2.15878,-2.39865c1.19932,0 2.15878,1.07939 2.15878,2.39865c0,1.31926 -0.95946,2.39865 -2.15878,2.39865c-1.19932,0 -2.15878,-1.07939 -2.15878,-2.39865" fill="#001026" stroke="none" stroke-width="1" stroke-linecap="butt" stroke-linejoin="miter"></path></g><g><path d="M255.12404,143.04705c3.71789,2.63852 3.47803,9.47465 -0.23987,14.75167c-3.59796,5.27701 -8.87498,6.95606 -12.83274,4.67735c-3.23818,-2.27872 -3.47803,-8.75505 0.11993,-14.03207c3.59796,-5.27702 9.23478,-8.15539 12.95268,-5.39695z" fill="#ffffff" stroke="#001026" stroke-width="1.2" stroke-linecap="round" stroke-linejoin="round"></path><path d="M242.89095,155.40006c0,-1.31926 0.95946,-2.27872 2.15878,-2.39865c1.19932,0 2.15878,1.07939 2.15878,2.39865c0,1.31926 -0.95946,2.39865 -2.15878,2.39865c-1.19932,0 -2.15878,-1.07939 -2.15878,-2.39865" fill="#001026" stroke="none" stroke-width="1" stroke-linecap="butt" stroke-linejoin="miter"></path></g></g><g data-paper-data="{&quot;index&quot;:null}"><path d="M270.59531,210.01593c2.87837,-0.63807 6.35641,-1.65895 9.23478,-4.46641c6.59627,-6.25296 8.63512,-16.58949 13.19255,-13.90965c4.67736,2.67985 4.55743,19.39696 -10.07431,24.50142c-5.03715,1.78655 -9.59458,1.78655 -13.31248,1.65895c-0.95945,0 -9.23478,-0.89329 -12.11315,-5.23208c-2.87838,-4.33879 -0.83953,-5.4873 0.11993,-5.99774c1.07939,-0.63806 8.87498,4.21118 12.95268,3.44551z" fill="#ffab19" stroke="#001026" stroke-width="1.2" stroke-linecap="round" stroke-linejoin="round"></path><path d="M292.30305,191.8951c2.39865,0.76566 3.59797,6.12535 2.39865,10.59176c-1.19931,4.46641 -3.11824,6.76341 -4.67735,8.42236c0.23985,-0.89328 0.71959,-3.70074 -1.31926,-5.35969c-2.51857,-2.16939 -6.95607,-1.02089 -6.95607,-1.02089c0,0 3.7179,-4.84924 5.63681,-8.29475c1.91891,-2.93507 2.51857,-4.84923 4.91722,-4.33879z" fill="#ffffff" stroke="none" stroke-width="1" stroke-linecap="butt" stroke-linejoin="miter"></path></g><path d="M251.64603,219.84202c-2.03885,-1.53135 -4.19763,-5.35969 -0.3598,-8.8052c4.43749,-4.08357 9.95437,0.63805 12.35302,2.55223c2.39864,1.91418 3.59796,3.06267 8.75505,5.87013c2.03884,1.1485 4.67735,2.1694 6.11654,2.67984c0.59966,0.12763 1.19932,0.12763 1.79898,-0.1276c1.07939,-0.51045 3.11824,-1.40373 5.39695,0.38283c5.03715,4.72162 -6.83614,22.71485 -13.19255,20.54546c-6.59626,-2.16939 -2.87837,-8.29476 -0.83952,-11.35743c0.23986,-0.51045 0,-1.14852 -0.47973,-1.27612l-0.47973,-0.1276c-9.47464,-3.19029 -16.91044,-8.8052 -19.06922,-10.33654z" data-paper-data="{&quot;index&quot;:null}" fill="#ffab19" stroke="#001026" stroke-width="1.2" stroke-linecap="round" stroke-linejoin="round"></path><g data-paper-data="{&quot;index&quot;:null}"><path d="M241.45178,213.71667c-1.43918,-1.1485 -2.87838,-3.06267 -4.79729,-5.99774c-1.55912,-2.42462 -3.23817,-7.14625 -3.23817,-7.14625c-1.07939,-3.1903 -1.79898,-9.31564 2.15878,-9.18804c2.63851,0.12761 5.03715,-0.25522 9.11485,-0.89328c7.19594,-1.53134 8.51519,-2.55224 11.5135,2.67984c3.23817,6.12536 11.5135,10.59177 1.31926,21.18353c0,0 -5.87668,4.84923 -12.95268,12.25071c-4.79729,4.97685 -12.35302,12.1231 -14.99153,14.54772c-0.59966,0.51045 -1.31926,0.76568 -2.03885,0.89328c-11.63342,1.14851 -20.26855,-0.1276 -20.26855,-5.6149c0,-9.18803 17.15031,-5.99774 17.15031,-5.99774c0,0 5.51688,-4.97686 8.03546,-7.40148z" fill="#ffab19" stroke="#001026" stroke-width="1.2" stroke-linecap="round" stroke-linejoin="round"></path><path d="M242.53118,213.58904c0,0 -3.7179,-2.67983 -6.35641,-8.42236c0,0 -2.27872,-3.19029 2.87837,-6.6358c5.39695,-3.70074 7.4358,0.38284 9.59458,3.44551c2.39864,3.95597 0,5.87013 -2.39865,8.16715c-1.91892,1.91417 -3.7179,3.44551 -3.7179,3.44551z" fill="#ffffff" stroke="none" stroke-width="1" stroke-linecap="butt" stroke-linejoin="miter"></path></g><path d="M249.59883,195.76099c-3.06244,2.53366 -6.43197,-1.55963 -5.13186,-6.54296c1.23083,-4.78443 6.85598,-21.76551 5.40707,-27.61767c-1.4203,-5.51713 -9.65976,-11.06541 -6.65582,-21.35664c2.93463,-10.09232 9.36791,-1.44513 13.61545,8.88768c5.53686,13.30597 1.25509,38.94494 -7.23483,46.62959z" data-paper-data="{&quot;index&quot;:null}" fill="#ffab19" stroke="#001026" stroke-width="1.2" stroke-linecap="round" stroke-linejoin="round"></path></g></g></svg>