<svg version="1.1" xmlns="http://www.w3.org/2000/svg" xmlns:xlink="http://www.w3.org/1999/xlink" width="110.43115" height="79.97" viewBox="0,0,110.43115,79.97"><g transform="translate(-166.12087,-141)"><g data-paper-data="{&quot;isPaintingLayer&quot;:true}" fill-rule="nonzero" stroke="none" stroke-width="1" stroke-linecap="butt" stroke-linejoin="miter" stroke-miterlimit="10" stroke-dasharray="" stroke-dashoffset="0" style="mix-blend-mode: normal"><path d="M214.53776,208.38c-0.22,2.13 -1.06,4.14 -2.41,5.8c-1.98,2.44 -4.29,4.18 -6.86,5.17c-2.36,0.91 -4.99,1.22 -8.23,0.97c-0.38,-0.03 -0.67,-0.04 -0.88,-0.05c-0.04,0.01 -0.08,0.02 -0.13,0.03c-1.74,0.46 -3.19,0.67 -4.57,0.67c-1.24,0 -2.34,-0.21 -3.29,-0.49c-1.38,0.09 -2.49,0.13 -3.39,0.13h-4.21c-1.91,-0.08 -7.61,-0.3 -11.11,-5.14c-0.47,-0.62 -1.34,-1.84 -2.01,-3.52c-0.29,-0.59 -0.55,-1.2 -0.76,-1.85c-0.6,-1.8 -0.73,-3.72 -0.36,-5.58c1.38,-7.08 6.74,-10.48 12.02,-11.54c-0.06,-5.2 -0.23,-11.55 -0.52,-19.01c-0.01,-0.27 -0.01,-0.55 0,-0.83c-1.92,-0.89 -3.6,-2.22 -4.91,-3.93c-1.78,-2.27 -2.75,-5.08 -2.75,-7.97c0,-5.05 2.77,-9.38 8.24,-12.88c0.05,-0.03 0.09,-0.06 0.14,-0.08c0.36,-0.23 0.62,-0.41 0.81,-0.54c0.65,-1.06 1.48,-2.01 2.46,-2.8c3.19,-2.58 6.92,-3.94 10.78,-3.94c6.98,0 12.58,4.61 13.96,11.48c0.37,1.87 0.25,3.8 -0.34,5.6c-0.11,1.3 -0.26,3.72 -0.42,8.15c-0.01,0.51 -0.04,1.18 -0.1,2.33c-0.04,0.59 -0.06,1 -0.07,1.23v8.97c0.01,0.3 0.05,0.86 0.1,1.67c0.15,2.17 0.16,2.44 0.16,2.88v9.9c2.8,1.22 5.23,3.36 7.03,6.25c2.19,3.48 1.82,7.01 1.62,8.92z" fill="#00cccc"></path><path d="M203.59776,207.239c-0.763,0.938 -1.525,1.554 -2.287,1.848c-0.763,0.293 -1.906,0.381 -3.431,0.264c-1.701,-0.118 -2.814,-0.118 -3.343,0c-0.059,0 -0.483,0.102 -1.275,0.308c-0.791,0.205 -1.394,0.309 -1.803,0.309c-0.118,0 -0.338,-0.104 -0.66,-0.309c-0.323,-0.206 -0.571,-0.308 -0.747,-0.308c-0.295,0 -1.071,0.044 -2.331,0.132c-1.262,0.088 -2.243,0.132 -2.947,0.132c-1.231,0 -2.493,0 -3.782,0c-1.525,-0.059 -2.405,-0.264 -2.639,-0.615c-0.527,-0.704 -0.792,-1.231 -0.792,-1.583c-0.176,-0.177 -0.322,-0.44 -0.439,-0.792c0.469,-2.404 2.756,-3.371 6.861,-2.902c2.99,0.294 4.75,0.264 5.277,-0.089c0.233,-6.273 0.088,-16.302 -0.439,-30.082c0.233,-2.58 0.468,-6.802 0.703,-12.667c-0.411,-0.058 -0.998,0.207 -1.759,0.792c-0.88,0.763 -1.438,1.203 -1.672,1.319c-0.763,0.294 -1.525,0.44 -2.287,0.44c-0.997,0 -1.729,-0.322 -2.198,-0.968c-0.294,-0.353 -0.44,-0.762 -0.44,-1.231c0,-1.056 1.056,-2.257 3.167,-3.606c2.463,-1.524 3.928,-2.903 4.398,-4.135c1.231,-0.997 2.52,-1.496 3.87,-1.496c1.759,0 2.814,0.88 3.166,2.639c-0.118,0.235 -0.234,0.559 -0.352,0.968c-0.235,1.818 -0.439,5.277 -0.616,10.38c0,0.294 -0.03,0.938 -0.088,1.935c-0.059,0.998 -0.088,1.555 -0.088,1.672v9.411c0,0.118 0.044,0.836 0.132,2.155c0.088,1.319 0.133,2.038 0.133,2.155v20.055c1.583,0.294 2.667,0.323 3.254,0.088c0.762,-0.292 1.437,-0.439 2.023,-0.439c1.349,0 2.492,0.763 3.431,2.287c0.116,0.174 0.116,0.819 0,1.933z" fill="#ffffff"></path><path d="M276.55201,206.77792c0,5.14 -2.75,9.66 -7.35,12.09c-2.23,1.18 -4.83,1.76 -7.95,1.76c-1.31,0 -2.73,-0.1 -4.34,-0.3c-0.12,-0.01 -0.24,-0.03 -0.36,-0.05c-2.49,-0.39 -3.64,-0.43 -4.02,-0.43h-0.12c-0.16,0.02 -0.32,0.03 -0.48,0.03c-0.25,0.02 -0.61,0.06 -1.1,0.11c-1.3,0.17 -2.44,0.25 -3.49,0.25c-0.57,0 -1.76,0.03 -4.14,0.16h-0.12c-0.65,0.03 -1.22,0.04 -1.73,0.04c-1.35,0 -2.48,-0.09 -3.51,-0.28c-3.38,-0.58 -6.38,-2.33 -8.48,-4.98c-2.52,-3.16 -3.05,-6.32 -3.05,-8.42c0,-2.73 0.85,-5.33 2.39,-7.52c-1,-0.08 -1.98,-0.2 -2.94,-0.38c-5.91,-1.06 -8.98,-6.08 -10.14,-7.98c-1.49,-2.43 -1.98,-5.35 -1.36,-8.13c0.2,-0.92 0.52,-1.93 1.02,-3.24c0.59,-2.37 1.94,-4.44 3.78,-5.93c2.51,-3.43 6.46,-9.03 11.76,-16.69c1.28,-1.84 1.99,-2.98 2.37,-3.63c0.98,-1.77 2.36,-3.4 4.32,-5.13c2,-1.77 3.77,-2.92 5.58,-3.64c0.34,-0.14 0.69,-0.26 1.05,-0.36c2.54,-0.73 5.28,-0.65 7.91,0.23c0.24,0.07 0.47,0.16 0.7,0.25c0.42,0.07 0.85,0.16 1.26,0.27c2.76,0.75 5.16,2.24 6.94,4.31c2.6,3.04 3.15,6.67 3.35,10.14c0.02,0.33 0.03,0.67 0.02,1c-0.04,1.09 -0.05,3.24 0.08,7.32c0.02,0.37 0.04,0.78 0.06,1.22c7.03,1.48 10.68,7.32 10.68,13.1c0,1.27 -0.16,2.54 -0.5,3.9c-0.4,1.57 -1.13,3.04 -2.16,4.3c-1.14,1.39 -2.47,2.55 -3.95,3.47c4.36,1.91 8.02,6.25 8.02,13.14z" fill="#00cccc"></path><path d="M264.05501,209.14792c-0.998,0.528 -2.933,0.616 -5.805,0.264c-2.991,-0.468 -5.221,-0.645 -6.686,-0.527c-0.235,0 -0.91,0.06 -2.023,0.176c-0.88,0.118 -1.613,0.176 -2.199,0.176c-1.055,0 -2.639,0.06 -4.749,0.176c-1.351,0.06 -2.287,0.032 -2.815,-0.082c-0.763,-0.11 -1.363,-0.442 -1.803,-0.995c-0.44,-0.553 -0.66,-1.076 -0.66,-1.573c0,-0.884 0.498,-1.616 1.495,-2.197c0.997,-0.579 2.023,-0.869 3.079,-0.869c0.469,0 0.88,0 1.231,0h5.365c0.353,0 0.85,-0.088 1.496,-0.267c0.116,-2.132 -0.119,-6.13 -0.704,-11.993c0,-0.948 -0.016,-1.94 -0.044,-2.978c-0.03,-1.036 -0.279,-1.88 -0.748,-2.531c-3.284,0.294 -6.948,0.792 -10.995,1.495c-3.226,0.587 -5.513,0.88 -6.86,0.88c-0.998,0 -1.966,-0.088 -2.903,-0.264c-0.703,-0.117 -1.613,-1.085 -2.727,-2.903c0.117,-0.527 0.44,-1.436 0.968,-2.727c0,-0.116 0,-0.204 0,-0.264c0.176,0 0.409,-0.117 0.704,-0.352c2.463,-3.283 6.86,-9.5 13.193,-18.647c1.231,-1.76 2.199,-3.255 2.903,-4.486c0.352,-0.645 1.025,-1.407 2.022,-2.287c0.997,-0.88 1.788,-1.437 2.375,-1.671c0.41,-0.117 0.88,-0.088 1.407,0.088c0.353,0.176 0.704,0.322 1.056,0.439c0.938,0.176 1.437,0.264 1.495,0.264c0.646,0.176 1.144,0.471 1.496,0.88c0.352,0.411 0.585,1.613 0.703,3.606c-0.059,1.818 -0.03,4.517 0.088,8.093c0.117,2.639 0.353,6.627 0.704,11.962c0.645,0.06 1.729,0 3.255,-0.176c1.759,-0.233 2.932,-0.352 3.519,-0.352c2.168,0 3.254,0.821 3.254,2.463c0,0.352 -0.059,0.763 -0.176,1.231c-1.056,1.29 -2.551,1.935 -4.485,1.935c-0.295,0 -0.748,0 -1.364,0c-0.615,0 -1.07,0 -1.363,0c-0.703,0 -1.319,0.089 -1.847,0.265c0,2.053 0.116,5.132 0.352,9.235c0.352,4.75 0.704,7.683 1.056,8.796c1.583,-0.058 3.928,-0.028 7.037,0.088c1.465,0.118 2.198,1.203 2.198,3.255c0,1.055 -0.498,1.847 -1.495,2.374zM248.39801,180.56192c-0.527,-4.867 -0.851,-10.145 -0.968,-15.833c-0.118,0 -0.206,-0.029 -0.264,-0.088c0.176,-0.176 0.264,-0.322 0.264,-0.44c0,-0.058 -0.088,-0.233 -0.264,-0.527c-0.118,-0.233 -0.118,-0.439 0,-0.616c0.176,-0.233 0.264,-0.527 0.264,-0.879c-0.821,0.821 -1.642,1.906 -2.463,3.254c-1.35,2.171 -2.141,3.431 -2.374,3.783c-2.229,2.933 -5.045,7.066 -8.444,12.402c-0.06,0.234 0,0.439 0.176,0.615c1.759,0 4.104,-0.205 7.037,-0.615c3.752,-0.587 6.098,-0.938 7.036,-1.056z" fill="#ffffff"></path></g></g></svg>