<svg version="1.1" xmlns="http://www.w3.org/2000/svg" xmlns:xlink="http://www.w3.org/1999/xlink" width="122.3267" height="150.87589" viewBox="0,0,122.3267,150.87589"><g transform="translate(-178.82909,-104.43127)"><g data-paper-data="{&quot;isPaintingLayer&quot;:true}" fill-rule="nonzero" stroke="#000000" stroke-width="1" stroke-linecap="butt" stroke-linejoin="miter" stroke-miterlimit="10" stroke-dasharray="" stroke-dashoffset="0" style="mix-blend-mode: normal"><g data-paper-data="{&quot;index&quot;:null}"><path d="M222.64187,209.51875c0.03333,-10.4202 -11.74412,-28.98284 -19.86981,-36.82368c-1.88459,-1.81707 -3.3676,-5.91205 -2.84026,-13.49374c0.23584,-3.37339 0.90981,-6.90516 2.48701,-10.66102c0,0 0.69485,-3.43838 4.50648,-9.62037c6.62022,-10.73189 27.64487,-18.81671 24.29139,4.04324c-1.00312,6.84438 -4.5848,13.84198 -6.71688,16.73136c1.37138,-0.67318 8.17911,-4.51902 10.88931,-1.13721c3.46679,4.32739 -9.6779,14.16438 -9.6779,14.16438c3.44013,-1.35548 8.08912,-2.28116 9.47961,0.46245c1.94957,3.85162 -4.76309,9.61625 -4.76309,9.61625c2.00368,0.17242 5.55546,0.05911 6.21031,2.0079c0.65486,1.94869 -2.2354,6.03035 -3.5359,7.15423c3.73665,0.41824 5.61457,2.07376 5.63545,3.70507c0.18162,1.73461 -2.39448,5.19133 -6.36783,7.7441c2.26205,4.29907 -0.17741,9.01726 -2.15199,10.02204c-1.89046,0.96312 -3.72419,0.78061 -5.53967,-0.29915c-0.85649,-0.50157 -2.04369,-1.52546 -2.03623,-3.61589z" fill="#279afa"></path><path d="M222.64187,209.51874c0.03333,-10.4202 -11.74412,-28.98284 -19.86981,-36.82368c-1.88459,-1.81707 -3.3676,-5.91205 -2.84026,-13.49374c0.23584,-3.37339 0.90981,-6.90516 2.48701,-10.66102c2.30363,-5.58546 11.89987,-16.2848 18.21938,-14.75347c11.25002,2.72695 -4.18497,30.77753 -4.18497,30.77753c22.4168,-6.53024 2.40447,11.36087 2.40447,11.36087c20.33558,-3.78585 5.33305,9.19712 5.33305,9.19712c14.02776,-0.37904 2.75774,9.30219 2.75774,9.30219c11.89321,0.50655 5.42128,8.98804 5.42128,8.98804c2.26205,4.29906 -0.17741,9.01717 -2.15199,10.02195c-1.89046,0.96312 -3.72419,0.7807 -5.53967,-0.29906c-0.85649,-0.50244 -2.04369,-1.52633 -2.03623,-3.61676z" fill="#0043a5"></path></g><path d="M225.21102,239.0393c2.27451,-1.98545 6.36862,-4.1983 7.27842,-3.92915c1.34471,0.39325 3.14353,1.57211 4.50823,1.90292c-2.77107,1.11642 -9.55381,3.72165 -9.71877,4.34239c-0.4599,1.72463 0.53743,2.83272 0.33081,4.63233c-0.12419,1.01312 -1.28226,1.61299 -2.23373,1.32305c-0.86814,-0.26916 -1.05478,-1.07478 -1.4888,-1.90214c-1.6955,-3.22598 -5.60466,-1.8404 -9.18134,-1.32384c-1.57131,0.2274 -3.78418,-0.59987 -3.47345,-2.15041c0.41324,-1.98536 3.11433,-2.56778 8.2041,-3.04101c-4.73485,-0.82815 -6.19865,-2.95602 -5.14388,-3.74164c1.15808,-0.86902 2.19198,-0.91068 3.63921,-0.74484c3.37094,0.41404 5.58379,1.6963 7.27921,4.63233z" data-paper-data="{&quot;index&quot;:null}" fill="#ffa600"></path><g data-paper-data="{&quot;index&quot;:null}"><path d="M214.19455,208.11656c-0.13085,-0.77816 -0.34825,-1.59387 -0.65407,-2.45947c-1.77541,-5.03057 -5.44461,-8.01913 -10.53438,-9.70544c-0.78983,-0.26161 -1.61465,-0.50401 -2.45859,-0.71984c-3.73752,-0.9548 -7.87416,-1.31805 -11.29588,0.1533c0.55655,-0.67731 1.2214,-1.35715 2.03623,-2.03701c10.90508,-9.10135 24.32384,-4.49736 36.45621,3.07767c9.29132,5.79953 32.90707,21.78028 39.29814,20.59632c20.96545,-15.46332 28.40639,-13.0213 30.06269,-9.70702c1.53879,3.13677 -2.01211,6.62855 -4.85316,8.75888c5.10556,0.87235 8.06491,0.51743 8.40405,4.025c0.31159,3.2151 -4.26075,3.6692 -7.45672,4.49736c2.84105,1.18307 5.25465,3.056 4.15822,5.36962c-1.06556,2.24952 -6.51025,2.72275 -9.82453,1.7755c1.7755,3.31429 4.26074,11.00761 -3.44837,8.24234c-7.15845,-2.56857 -11.24423,-6.50938 -17.28125,-11.36254c-9.35051,9.70544 -23.19917,14.08529 -29.94604,11.48085c-11.8091,-4.55734 -18.83758,-15.38412 -22.92248,-27.69645c0.42071,-1.34891 0.5199,-2.74362 0.25995,-4.28907z" fill="#ff0600"></path><path d="M203.00613,195.95085c-0.78983,-0.26161 -1.61465,-0.5041 -2.45859,-0.71984c4.89472,-4.0308 11.54583,-3.34015 17.67283,-0.58821c3.86495,1.73963 6.51771,5.91618 4.10744,9.13636c-2.90437,3.88083 -6.57111,4.64733 -8.13411,4.3374c-0.13076,-0.77816 -0.34825,-1.59387 -0.65398,-2.45947c-1.77463,-5.03145 -5.44383,-8.01991 -10.5336,-9.70622z" fill="#0043a5"></path><path d="M187.73699,196.18748c0.48568,-0.31493 0.99224,-0.57908 1.51467,-0.80404c3.42172,-1.47135 7.55835,-1.1081 11.29588,-0.1533c0.84315,0.21583 1.66877,0.45823 2.45859,0.71984c5.08977,1.68631 8.75897,4.67487 10.53438,9.70544c0.30493,0.86561 0.52243,1.68131 0.65407,2.45947c0.25995,1.54545 0.16076,2.94015 -0.25915,4.28819c-0.49656,1.59299 -1.44802,3.11853 -2.88104,4.73397c-3.22596,3.64008 -8.97972,5.63632 -12.88633,2.52945c3.25508,-1.06555 4.89639,-4.33405 4.48236,-7.73744c-9.92706,-3.38926 -17.14716,12.1165 -19.29336,22.01523c-11.14759,-24.43803 4.37992,-37.75681 4.37992,-37.75681z" fill="#ffa600"></path></g><path d="M254.84438,240.54172c-4.31022,-0.29206 -10.78074,-1.99238 -12.23279,-2.98345c0.24298,-2.08133 -0.70142,-5.17215 -1.74861,-6.88712c4.5161,2.2397 10.4413,6.56477 14.23061,5.43493c2.44737,-0.72995 2.32168,-3.41166 4.3502,-5.02364c1.15019,-0.90022 2.92962,-0.33577 3.59913,0.91929c0.60745,1.14991 -0.01954,2.15482 -0.41683,3.43165c-1.54602,4.9799 3.81134,7.53086 7.95545,10.62616c1.82089,1.35948 3.22335,4.43439 1.34118,5.69078c-2.42594,1.59094 -9.00191,-1.15554 -12.1597,-6.90782c-0.39174,2.48011 6.39426,8.38981 3.00163,9.96466c-1.87936,0.87211 -3.93925,-0.58239 -5.23698,-2.21407c-2.99354,-3.82783 -3.93616,-7.36387 -2.68327,-12.05136z" data-paper-data="{&quot;index&quot;:null}" fill="#ffa600"></path><g data-paper-data="{&quot;index&quot;:null}"><path d="M214.70941,197.17749c1.60513,3.11147 -0.44909,7.36514 -3.43229,8.46883c-1.82471,0.67564 -5.01339,-0.14962 -5.77688,-2.87992c-1.95485,-6.99396 6.50581,-10.83281 9.20917,-5.58889z" fill="#ffffff"></path><path d="M211.00497,198.70934c-0.40835,0.2082 -0.87904,0.25334 -1.31535,0.08584c-0.4364,-0.16754 -0.75596,-0.51605 -0.92008,-0.94402c-0.16409,-0.42804 -0.17274,-0.93554 0.01359,-1.42089c0.18632,-0.48535 0.53238,-0.85676 0.94073,-1.06497c0.40838,-0.20828 0.87903,-0.25333 1.31542,-0.0858c0.43631,0.1675 0.75591,0.51592 0.91999,0.94398c0.16413,0.42797 0.17274,0.93554 -0.01359,1.42089c-0.18632,0.48535 -0.53235,0.85669 -0.94073,1.06497z" fill="#272525"></path></g><g data-paper-data="{&quot;index&quot;:null}"><path d="M228.57619,208.43402c5.19716,-13.18232 -0.53728,-42.51995 -6.95076,-56.47037c-1.48648,-3.23412 -1.34107,-9.15401 3.07918,-18.49506c1.9671,-4.15741 4.5676,-8.29632 8.42422,-12.2726c0,0 2.58068,-4.01235 10.46784,-9.95565c13.69325,-10.31755 44.32222,-10.15721 28.76645,17.13861c-4.65668,8.1721 -12.65565,15.26359 -16.78554,17.86891c2.07008,-0.17389 12.59596,-1.67696 14.35504,3.94688c2.25132,7.1972 -19.26473,13.15223 -19.26473,13.15223c5.02846,-0.01564 11.37426,1.11248 11.77749,5.27584c0.56506,5.84216 -10.7893,9.82418 -10.7893,9.82418c2.45282,1.20949 7.00716,2.82254 6.87274,5.61512c-0.1349,2.79185 -5.81481,6.53127 -8.01829,7.31329c4.52603,2.37881 6.08572,5.40347 5.30474,7.47915c-0.62795,2.28766 -5.60199,5.39194 -11.89511,6.65991c0.73809,6.56506 -4.68656,11.33258 -7.68451,11.62853c-2.87051,0.28582 -5.10298,-0.85422 -6.86962,-3.11863c-0.83664,-1.06106 -1.83218,-2.94494 -0.78981,-5.59033z" fill="#279afa"></path><path d="M228.57619,208.43404c5.19716,-13.18232 -0.53728,-42.51995 -6.95076,-56.47037c-1.48648,-3.23412 -1.34107,-9.15401 3.07918,-18.49506c1.9671,-4.15741 4.5676,-8.29632 8.42422,-12.2726c5.68011,-5.93509 23.12857,-14.73992 30.37497,-9.6736c12.89905,9.01991 -20.52812,36.91235 -20.52812,36.91235c31.62401,2.81823 -2.57459,15.57977 -2.57459,15.57977c27.63098,5.2652 2.20516,14.28593 2.20516,14.28593c17.95628,6.46038 -1.10785,13.14694 -1.10785,13.14694c14.81175,6.52476 2.42067,14.06579 2.42067,14.06579c0.73809,6.56506 -4.68656,11.33258 -7.68451,11.62853c-2.87051,0.28582 -5.10298,-0.85422 -6.86962,-3.11863c-0.83558,-1.05978 -1.83112,-2.94367 -0.78874,-5.58906z" fill="#0043a5"></path></g></g></g></svg>