<svg version="1.1" xmlns="http://www.w3.org/2000/svg" xmlns:xlink="http://www.w3.org/1999/xlink" width="212.08678" height="115.53974" viewBox="0,0,212.08678,115.53974"><g transform="translate(-133.95661,-114.21933)"><g data-paper-data="{&quot;isPaintingLayer&quot;:true}" fill-rule="nonzero" stroke="#000000" stroke-width="1" stroke-linecap="butt" stroke-linejoin="miter" stroke-miterlimit="10" stroke-dasharray="" stroke-dashoffset="0" style="mix-blend-mode: normal"><path d="M245.16165,204.95141c1.72382,-2.9852 3.97373,-4.28894 7.40112,-4.70991c1.47146,-0.16862 2.52268,-0.12626 3.70016,0.75731c1.07243,0.79878 -0.41588,2.96228 -5.23003,3.80431c5.17501,0.48115 7.92133,1.07333 8.3415,3.09194c0.31593,1.57651 -1.93399,2.41764 -3.53163,2.18642c-3.63658,-0.52521 -7.61121,-1.93399 -9.33511,1.34601c-0.44129,0.84122 -0.63105,1.66033 -1.51374,1.93399c-0.9674,0.29479 -2.14487,-0.31512 -2.27114,-1.3452c-0.21008,-1.82975 0.80395,-2.9564 0.33635,-4.70991c-0.16773,-0.63114 -7.06406,-3.27999 -9.88154,-4.41512c1.38756,-0.33635 3.2165,-1.53495 4.58373,-1.93479c0.92504,-0.27366 5.08772,1.97626 7.40032,3.99495z" data-paper-data="{&quot;index&quot;:null}" fill="#ffa600"></path><g data-paper-data="{&quot;index&quot;:null}"><path d="M235.19201,180.57508c2.54132,1.3782 2.99796,3.49596 3.04031,4.86917c0.10504,2.91823 -0.88777,5.26561 -3.30969,6.91996c-2.52776,1.72979 -9.86878,1.56465 -13.58669,-4.02964c-5.72902,3.12751 -11.63166,3.96277 -13.61639,2.59214c-1.96528,-1.10552 -2.72857,-4.48039 -0.7599,-9.29195c-2.22699,0.83186 -9.09453,1.63412 -11.02504,-0.45147c-1.9306,-2.08647 0.56079,-6.3203 1.67977,-8.86582c0,0 -11.4444,4.32363 -14.82436,-0.59467c-2.40828,-3.50533 1.79507,-8.53294 5.72055,-11.80865c0,0 -20.64655,9.43167 -23.59957,2.35575c-2.30752,-5.52902 6.87092,-11.2411 8.59643,-12.45924c-4.9191,0.6718 -15.78408,0.38039 -24.75324,-2.93777c-29.95955,-11.08185 -6.21607,-31.2336 11.19196,-32.15356c10.02715,-0.52948 14.66002,0.90721 14.66002,0.90721c5.60276,0.57434 10.3338,2.09664 14.58378,4.04747c9.54938,4.38292 13.53336,8.89719 14.4906,12.38728c4.1279,15.05557 18.84552,41.64792 31.51146,48.51376z" fill="#279afa"></path><path d="M235.19201,180.57508c2.54132,1.3782 2.99796,3.49596 3.04031,4.86747c0.10504,2.91823 -0.88777,5.26561 -3.30969,6.91996c-2.52776,1.72979 -9.86878,1.56465 -13.58669,-4.02964c0,0 -14.57869,2.23038 -7.31222,-12.53467c0,0 -19.21575,7.25889 -9.45879,-9.5121c0,0 -25.69531,9.6011 -7.62395,-12.56517c0,0 -34.97192,12.42455 -12.19155,-10.44732c0,0 -44.26468,0.13893 -40.11894,-15.31827c2.32955,-8.68283 21.67236,-13.23599 29.9757,-12.32878c5.60276,0.57434 10.3338,2.09664 14.58378,4.04747c9.54938,4.38292 13.53336,8.89719 14.4906,12.38728c4.1279,15.05557 18.84552,41.64792 31.51146,48.51376z" fill="#0043a5"></path></g><g data-paper-data="{&quot;index&quot;:null}"><path d="M251.46662,183.7924c-0.2643,1.57134 -0.16345,2.9894 0.2643,4.3609c-4.15331,12.51853 -11.29951,23.52663 -23.30638,28.1603c-6.85986,2.64806 -20.94046,-1.80514 -30.44757,-11.67313c-6.13813,4.93444 -10.29233,8.94125 -17.57067,11.55283c-7.83822,2.81158 -5.31136,-5.01059 -3.50613,-8.38038c-3.36979,0.96312 -8.90566,0.48196 -9.98907,-1.80523c-1.1148,-2.35237 1.33922,-4.25666 4.22786,-5.45955c-3.2495,-0.84203 -7.89841,-1.30374 -7.5816,-4.57268c0.34482,-3.56632 3.35374,-3.20545 8.5448,-4.09241c-2.88863,-2.166 -6.499,-5.71627 -4.93444,-8.90558c1.68404,-3.36979 9.2496,-5.8527 30.56617,9.86959c6.4981,1.20379 30.50937,-15.0446 39.9563,-20.94126c12.33556,-7.70189 25.97905,-12.38299 37.06677,-3.12921c0.82847,0.69124 1.50446,1.38247 2.07033,2.07113c-3.47902,-1.49599 -7.68495,-1.12666 -11.48506,-0.15587c-0.85807,0.21945 -1.69671,0.46591 -2.49976,0.7319c-5.17501,1.71455 -8.90566,4.75316 -10.71081,9.86798c-0.31094,0.88009 -0.53199,1.70947 -0.66502,2.50066z" fill="#ff0600"></path><path d="M262.84245,171.42296c-5.17501,1.71455 -8.90566,4.75306 -10.71001,9.86878c-0.31085,0.88009 -0.53199,1.70947 -0.66493,2.50066c-1.58917,0.31512 -5.31733,-0.46421 -8.27034,-4.41004c-2.45063,-3.27411 0.24655,-7.52061 4.17623,-9.28937c6.22962,-2.79803 12.99211,-3.50025 17.96881,0.59806c-0.85807,0.21936 -1.69671,0.46591 -2.49976,0.7319z" fill="#0043a5"></path><path d="M278.36732,171.66353c0,0 15.78756,13.54184 4.45328,38.38915c-2.18215,-10.06451 -9.52316,-25.82996 -19.61648,-22.38393c-0.42096,3.46039 1.24783,6.78363 4.55743,7.86702c-3.97203,3.15891 -9.82215,1.12924 -13.10215,-2.57181c-1.45702,-1.6425 -2.42441,-3.19358 -2.9293,-4.81325c-0.42694,-1.37062 -0.52779,-2.78868 -0.26349,-4.36001c0.13384,-0.79119 0.35498,-1.62055 0.66502,-2.50066c1.80514,-5.11482 5.5358,-8.15344 10.71081,-9.86798c0.80305,-0.26599 1.6425,-0.51246 2.49976,-0.7319c3.80012,-0.97079 8.00604,-1.34012 11.48506,0.15587c0.53118,0.22872 1.04623,0.4973 1.54003,0.8175z" fill="#ffa600"></path></g><path d="M240.4636,217.41064c3.10549,-3.8332 6.57693,-5.17243 11.51467,-4.99962c2.11776,0.09149 4.54558,0.91568 4.95218,2.98262c0.73359,3.73155 -8.18385,1.68494 -9.98907,3.49007c6.61848,-0.84282 12.80914,2.92252 12.95145,5.86874c0.09229,2.29904 -3.27491,2.9844 -5.48166,2.29994c-5.02334,-1.55698 -10.32452,-4.43714 -13.4952,-0.18805c-0.81242,1.09018 -1.26389,2.20666 -2.57271,2.39473c-1.43241,0.19991 -2.96059,-0.92585 -2.90807,-2.40998c0.11262,-2.632 2.39303,-4.13219 1.52987,-6.58121c-1.33673,-3.79165 -8.43637,-6.07794 -12.97856,-8.45242c2.03645,-0.16434 5.14282,-1.23589 6.70908,-2.68024c1.68325,0.60144 6.95055,4.90564 9.76802,8.27542z" data-paper-data="{&quot;index&quot;:null}" fill="#ffa600"></path><g data-paper-data="{&quot;index&quot;:null}"><path d="M260.09694,172.63601c3.99245,4.47692 -2.73445,11.10895 -8.66081,6.7048c-2.3134,-1.71963 -1.93479,-5.04706 -0.62855,-6.53288c2.1347,-2.4295 6.92086,-2.82933 9.28937,-0.17192z" fill="#ffffff"></path><path d="M258.64669,175.08922c0.5286,0 1.00725,0.19314 1.35367,0.50487c0.34651,0.31173 0.56079,0.74206 0.56079,1.21725c0,0.47527 -0.21427,0.90561 -0.56079,1.21734c-0.34642,0.31173 -0.82509,0.50487 -1.35367,0.50487c-0.5286,0 -1.00716,-0.19314 -1.35367,-0.50487c-0.34642,-0.31173 -0.56079,-0.74206 -0.56079,-1.21734c0,-0.47519 0.21436,-0.90552 0.56079,-1.21725c0.34651,-0.31173 0.82509,-0.50487 1.35367,-0.50487z" fill="#272525"></path></g><g data-paper-data="{&quot;index&quot;:null}"><path d="M234.5299,186.02398c14.20578,4.06985 44.07913,-4.82882 57.91285,-12.88584c3.20936,-1.86889 9.36651,-2.31002 19.50658,1.33876c4.51444,1.62256 9.0703,3.90566 13.58544,7.50963c0,0 4.42508,2.27509 11.38684,9.86577c12.0844,13.17705 14.99271,44.98345 -14.89957,31.58129c-8.94958,-4.01413 -17.11468,-11.60282 -20.23536,-15.6277c0.38869,2.13144 3.00722,12.90386 -2.6532,15.29635c-7.24337,3.05754 -15.58763,-18.67403 -15.58763,-18.67403c0.52161,5.21751 -0.01202,11.91686 -4.29246,12.75509c-6.00662,1.17183 -11.28027,-10.21104 -11.28027,-10.21104c-1.00911,2.66699 -2.22587,7.55701 -5.13911,7.69786c-2.91214,0.14141 -7.36143,-5.37817 -8.39505,-7.5869c-2.01344,4.93805 -4.99875,6.8592 -7.23055,6.25642c-2.43932,-0.42187 -6.15812,-5.27219 -8.10649,-11.67749c-6.73898,1.4254 -12.23316,-3.7256 -12.84136,-6.80747c-0.58548,-2.9522 0.37451,-5.38249 2.54671,-7.44433c1.01722,-0.97884 2.8726,-2.20148 5.72261,-1.38639z" fill="#279afa"></path><path d="M234.5299,186.02398c14.20578,4.06985 44.07913,-4.82882 57.91285,-12.88584c3.20936,-1.86889 9.36651,-2.31002 19.50658,1.33876c4.51444,1.62256 9.0703,3.90566 13.58544,7.50963c6.73002,5.30028 17.62352,22.52543 13.09172,30.55527c-8.06731,14.29643 -40.37283,-17.59996 -40.37283,-17.59996c0.24967,33.10659 -16.43121,-1.10757 -16.43121,-1.10757c-2.69057,29.20973 -14.60912,3.72554 -14.60912,3.72554c-4.89927,19.28558 -13.75661,0.17161 -13.75661,0.17161c-5.28662,16.03003 -14.35588,3.92459 -14.35588,3.92459c-6.74035,1.42403 -12.2323,-3.72578 -12.84216,-6.80711c-0.58548,-2.9522 0.37451,-5.38249 2.54753,-7.44459c1.01829,-0.97281 2.8737,-2.19545 5.72368,-1.38035z" fill="#0043a5"></path></g></g></g></svg>