<svg version="1.1" xmlns="http://www.w3.org/2000/svg" xmlns:xlink="http://www.w3.org/1999/xlink" width="138.69249" height="115.37685" viewBox="0,0,138.69249,115.37685"><g transform="translate(-170.65376,-126.47226)"><g data-paper-data="{&quot;isPaintingLayer&quot;:true}" fill-rule="nonzero" stroke="#000000" stroke-width="1" stroke-linecap="butt" stroke-linejoin="miter" stroke-miterlimit="10" stroke-dasharray="" stroke-dashoffset="0" style="mix-blend-mode: normal"><g data-paper-data="{&quot;index&quot;:null}"><path d="M210.92646,201.553c0.03061,-9.56853 -10.78424,-26.614 -18.2458,-33.81399c-1.73056,-1.66855 -3.09236,-5.42884 -2.60812,-12.39086c0.21656,-3.09768 0.83545,-6.34079 2.28374,-9.78967c0,0 0.63805,-3.15735 4.13815,-8.83407c6.07914,-9.85474 25.38539,-17.27877 22.306,3.71278c-0.92113,6.28498 -4.21007,12.71065 -6.16789,15.36387c1.25929,-0.61816 7.51061,-4.14967 9.9993,-1.04426c3.18344,3.9737 -8.8869,13.00669 -8.8869,13.00669c3.15896,-1.2447 7.42798,-2.09472 8.70482,0.42465c1.79023,3.53682 -4.37379,8.83029 -4.37379,8.83029c1.83992,0.15833 5.1014,0.05428 5.70273,1.84379c0.60134,1.78942 -2.05269,5.53748 -3.2469,6.5695c3.43124,0.38406 5.15568,1.90427 5.17485,3.40225c0.16678,1.59284 -2.19877,4.76703 -5.84737,7.11116c2.07717,3.94769 -0.16291,8.28025 -1.9761,9.20291c-1.73595,0.8844 -3.4198,0.71681 -5.0869,-0.2747c-0.78648,-0.46057 -1.87665,-1.40078 -1.8698,-3.32035z" fill="#279afa"></path><path d="M210.92646,201.553c0.03061,-9.56853 -10.78424,-26.614 -18.2458,-33.81399c-1.73056,-1.66855 -3.09236,-5.42884 -2.60812,-12.39086c0.21656,-3.09768 0.83545,-6.34079 2.28374,-9.78967c2.11535,-5.12894 10.92727,-14.9538 16.73027,-13.54763c10.33053,2.50407 -3.84292,28.26201 -3.84292,28.26201c20.58462,-5.99651 2.20795,10.43232 2.20795,10.43232c18.67351,-3.47642 4.89717,8.44542 4.89717,8.44542c12.88123,-0.34806 2.53234,8.5419 2.53234,8.5419c10.92115,0.46515 4.97819,8.25343 4.97819,8.25343c2.07717,3.94769 -0.16291,8.28017 -1.9761,9.20283c-1.73595,0.8844 -3.4198,0.71689 -5.0869,-0.27462c-0.78648,-0.46137 -1.87665,-1.40158 -1.8698,-3.32115z" fill="#0043a5"></path></g><path d="M215.54742,215.76702c1.2348,0.36111 2.8866,1.44362 4.13976,1.74739c-2.54458,1.02518 -8.77295,3.41747 -8.92443,3.98748c-0.42231,1.58367 0.4935,2.6012 0.30377,4.25372c-0.11404,0.93031 -1.17746,1.48115 -2.05116,1.21491c-0.79719,-0.24716 -0.96857,-0.98693 -1.36712,-1.74667c-1.55693,-2.96231 -5.14658,-1.68998 -8.43093,-1.21564c-1.44289,0.20882 -3.47489,-0.55084 -3.18956,-1.97465c0.37947,-1.82309 2.85979,-2.35791 7.53356,-2.79246c-4.34786,-0.76047 -5.69202,-2.71442 -4.72346,-3.43583c1.06343,-0.79799 2.01283,-0.83625 3.34177,-0.68396c3.09542,0.3802 5.12741,1.55766 6.68426,4.25372c2.08861,-1.82317 5.8481,-3.85516 6.68354,-3.60801z" data-paper-data="{&quot;index&quot;:null}" fill="#ffa600"></path><g data-paper-data="{&quot;index&quot;:null}"><path d="M203.16958,200.26544c-0.12015,-0.71456 -0.31979,-1.4636 -0.60061,-2.25845c-1.6303,-4.61941 -4.99961,-7.36371 -9.67338,-8.91219c-0.72527,-0.24023 -1.48268,-0.46282 -2.25764,-0.66101c-3.43204,-0.87676 -7.23059,-1.21032 -10.37264,0.14077c0.51106,-0.62195 1.12157,-1.24623 1.8698,-1.87052c10.01379,-8.35748 22.3358,-4.12978 33.47656,2.82612c8.53192,5.32552 30.2175,20.00012 36.08621,18.91293c19.25189,-14.19946 26.08466,-11.95704 27.60559,-8.91364c1.41302,2.8804 -1.84766,6.08679 -4.4565,8.043c4.68827,0.80105 7.40575,0.47514 7.71717,3.69603c0.28613,2.95232 -3.9125,3.36931 -6.84726,4.12978c2.60885,1.08638 4.82518,2.80623 3.81836,4.93075c-0.97847,2.06566 -5.97815,2.50021 -9.02155,1.63038c1.63038,3.0434 3.9125,10.10793 -3.16653,7.56867c-6.57337,-2.35863 -10.32521,-5.97735 -15.86881,-10.43385c-8.58627,8.91219 -21.30305,12.93406 -27.49848,10.54249c-10.84391,-4.18486 -17.29794,-14.12674 -21.04897,-25.43275c0.38632,-1.23866 0.4774,-2.51937 0.2387,-3.93851z" fill="#ff0600"></path><path d="M192.89561,189.09407c-0.72527,-0.24023 -1.48268,-0.4629 -2.25764,-0.66101c4.49467,-3.70135 10.60216,-3.06715 16.22839,-0.54013c3.54906,1.59744 5.985,5.43263 3.77173,8.38962c-2.66699,3.56364 -6.03404,4.26749 -7.46929,3.98289c-0.12007,-0.71456 -0.31979,-1.4636 -0.60053,-2.25845c-1.62958,-4.62022 -4.99889,-7.36443 -9.67266,-8.91291z" fill="#0043a5"></path><path d="M178.87447,189.31134c0.44598,-0.28919 0.91114,-0.53175 1.39087,-0.73832c3.14205,-1.35109 6.94059,-1.01753 10.37264,-0.14077c0.77423,0.19819 1.53237,0.42078 2.25764,0.66101c4.67377,1.54848 8.04308,4.29278 9.67338,8.91219c0.28001,0.79486 0.47973,1.54389 0.60061,2.25845c0.2387,1.41914 0.14762,2.69985 -0.23797,3.93771c-0.45598,1.46279 -1.32967,2.86364 -2.64557,4.34705c-2.9623,3.34257 -8.24579,5.17565 -11.8331,2.32271c2.98904,-0.97846 4.4962,-3.97982 4.11601,-7.10504c-9.1157,-3.11225 -15.74568,11.12619 -17.71647,20.21587c-10.23647,-22.44065 4.02194,-34.67085 4.02194,-34.67085z" fill="#ffa600"></path></g><path d="M213.10689,230.62748c2.54458,-3.04339 7.3017,-6.93069 8.82191,-7.47388c1.41455,1.30446 4.22005,2.27222 6.05925,2.42064c-4.10224,2.1445 -10.51422,4.20934 -11.72148,7.63374c-0.77956,2.21182 1.27998,3.5667 1.38169,5.94377c0.04743,1.34038 -1.33273,2.3571 -2.6264,2.17655c-1.18205,-0.16985 -1.58979,-1.17819 -2.32352,-2.16278c-2.86357,-3.83753 -7.65129,-1.23633 -12.18808,0.16984c-1.99301,0.61817 -5.03407,-0.00081 -4.95072,-2.07717c0.12853,-2.66086 5.71957,-6.0615 11.697,-5.30031c-1.63037,-1.63029 -9.68409,0.21809 -9.02155,-3.15203c0.36722,-1.86674 2.55988,-2.6111 4.47252,-2.69373c4.45948,-0.15607 7.59468,1.05345 10.39938,4.51537z" data-paper-data="{&quot;index&quot;:null}" fill="#ffa600"></path><g data-paper-data="{&quot;index&quot;:null}"><path d="M195.37519,190.18964c2.1391,-2.40002 6.46168,-2.03891 8.38962,0.15527c1.17972,1.34191 1.52166,4.34705 -0.56767,5.90012c-5.35234,3.97757 -11.42769,-2.0121 -7.82194,-6.05539z" fill="#ffffff"></path><path d="M197.90754,192.86121c0.31287,0.28154 0.50647,0.67019 0.50647,1.09935c0,0.42924 -0.1936,0.81789 -0.50647,1.09943c-0.31295,0.28154 -0.74516,0.45597 -1.22256,0.45597c-0.47739,0 -0.90969,-0.17443 -1.22256,-0.45597c-0.31295,-0.28154 -0.50647,-0.67019 -0.50647,-1.09943c0,-0.42916 0.19352,-0.81781 0.50647,-1.09935c0.31287,-0.28154 0.74516,-0.45597 1.22256,-0.45597c0.47739,0 0.90961,0.17443 1.22256,0.45597z" fill="#272525"></path></g><g data-paper-data="{&quot;index&quot;:null}"><path d="M217.86788,197.35973c11.43914,-6.20082 24.73124,-30.21749 28.45932,-43.81481c0.86452,-3.15204 4.46262,-7.22907 13.08707,-11.18747c3.83833,-1.76188 8.11113,-3.13673 13.17122,-3.65544c0,0 4.18414,-1.29754 13.24008,-0.81934c15.72192,0.83085 37.16566,19.03075 10.10793,29.03923c-8.10042,2.99677 -17.91304,3.25995 -22.35569,2.65322c1.55838,1.10015 9.84782,6.25897 7.7638,11.25246c-2.66699,6.39056 -21.31376,-2.12758 -21.31376,-2.12758c3.54527,2.95843 7.34149,7.49908 5.16647,10.66489c-3.05258,4.44192 -13.3885,0.53707 -13.3885,0.53707c1.0106,2.29896 3.26068,6.12271 1.51707,8.00709c-1.74353,1.88358 -7.94589,1.15903 -9.95718,0.40774c1.77799,4.34552 1.08863,7.39351 -0.6863,8.39195c-1.79249,1.23787 -7.12341,0.48352 -12.29753,-2.34107c-3.3578,5.05244 -9.98778,5.20159 -12.27071,3.63934c-2.18734,-1.49412 -3.08399,-3.61413 -2.98912,-6.24971c0.03825,-1.2402 0.45066,-3.15284 2.74583,-4.39755z" fill="#279afa"></path><path d="M217.86787,197.35974c11.43914,-6.20082 24.73124,-30.21749 28.45932,-43.81481c0.86452,-3.15204 4.46262,-7.22907 13.08707,-11.18747c3.83833,-1.76188 8.11113,-3.13673 13.17122,-3.65544c7.49909,-0.81934 24.9684,3.29281 27.07231,11.13464c3.74419,13.96004 -36.2331,13.83457 -36.2331,13.83457c20.57391,20.65654 -11.0107,9.43541 -11.0107,9.43541c16.321,20.01929 -6.88551,11.34813 -6.88551,11.34813c8.81192,15.14659 -8.54263,8.59078 -8.54263,8.59078c6.56266,13.33494 -6.60397,11.32059 -6.60397,11.32059c-3.3578,5.05244 -9.98778,5.20159 -12.27071,3.63934c-2.18734,-1.49412 -3.08399,-3.61413 -2.98912,-6.24971c0.03825,-1.23867 0.45066,-3.15131 2.74583,-4.39602z" fill="#0043a5"></path></g></g></g></svg>