<svg version="1.1" xmlns="http://www.w3.org/2000/svg" xmlns:xlink="http://www.w3.org/1999/xlink" width="507.00093" height="434.07502" viewBox="0,0,507.00093,434.07502"><defs><linearGradient x1="239.508" y1="-74.03751" x2="239.508" y2="215.96249" gradientUnits="userSpaceOnUse" id="color-1"><stop offset="0" stop-color="#005fff"></stop><stop offset="1" stop-color="#ccffff"></stop></linearGradient><linearGradient x1="427.3604" y1="173.34851" x2="427.3604" y2="278.59541" gradientUnits="userSpaceOnUse" id="color-2"><stop offset="0" stop-color="#00ff55"></stop><stop offset="1" stop-color="#002a0f"></stop></linearGradient><linearGradient x1="79.00469" y1="163.53895" x2="79.00469" y2="232.24483" gradientUnits="userSpaceOnUse" id="color-3"><stop offset="0" stop-color="#00ff55"></stop><stop offset="1" stop-color="#009532"></stop></linearGradient><linearGradient x1="192.47824" y1="155.83895" x2="192.47824" y2="261.04484" gradientUnits="userSpaceOnUse" id="color-4"><stop offset="0" stop-color="#00ff55"></stop><stop offset="1" stop-color="#007427"></stop></linearGradient><linearGradient x1="320.47824" y1="163.83895" x2="320.47824" y2="269.04484" gradientUnits="userSpaceOnUse" id="color-5"><stop offset="0" stop-color="#00ff55"></stop><stop offset="1" stop-color="#005c1f"></stop></linearGradient><linearGradient x1="13.42395" y1="172.47629" x2="13.42395" y2="240.72706" gradientUnits="userSpaceOnUse" id="color-6"><stop offset="0" stop-color="#00ff55"></stop><stop offset="1" stop-color="#007c29"></stop></linearGradient><linearGradient x1="243.98705" y1="205.96249" x2="243.98705" y2="270.96249" gradientUnits="userSpaceOnUse" id="color-7"><stop offset="0" stop-color="#00be3f"></stop><stop offset="1" stop-color="#004d1a"></stop></linearGradient><linearGradient x1="237.48704" y1="261.57918" x2="237.48704" y2="288.51252" gradientUnits="userSpaceOnUse" id="color-8"><stop offset="0" stop-color="#663b00"></stop><stop offset="1" stop-color="#ff9700"></stop></linearGradient><linearGradient x1="238.50046" y1="287.03751" x2="238.50046" y2="360.03751" gradientUnits="userSpaceOnUse" id="color-9"><stop offset="0" stop-color="#e6b100"></stop><stop offset="1" stop-color="#4c3b00"></stop></linearGradient><linearGradient x1="20.14197" y1="82.33751" x2="20.14197" y2="113.32589" gradientUnits="userSpaceOnUse" id="color-10"><stop offset="0" stop-color="#ffffff"></stop><stop offset="1" stop-color="#e5e5e5"></stop></linearGradient><linearGradient x1="39.66713" y1="86.33752" x2="39.66713" y2="116.61024" gradientUnits="userSpaceOnUse" id="color-11"><stop offset="0" stop-color="#ffffff"></stop><stop offset="1" stop-color="#e4e4e4"></stop></linearGradient><linearGradient x1="474.32479" y1="20.33751" x2="474.32479" y2="52.33751" gradientUnits="userSpaceOnUse" id="color-12"><stop offset="0" stop-color="#ffffff"></stop><stop offset="1" stop-color="#e5e5e5"></stop></linearGradient><linearGradient x1="445.45501" y1="22.33751" x2="445.45501" y2="49.33751" gradientUnits="userSpaceOnUse" id="color-13"><stop offset="0" stop-color="#ffffff"></stop><stop offset="1" stop-color="#e5e5e5"></stop></linearGradient><linearGradient x1="171.00046" y1="12.33751" x2="171.00046" y2="43.64521" gradientUnits="userSpaceOnUse" id="color-14"><stop offset="0" stop-color="#ffffff"></stop><stop offset="1" stop-color="#e5e5e5"></stop></linearGradient><linearGradient x1="190.8199" y1="14.33751" x2="190.8199" y2="45.33751" gradientUnits="userSpaceOnUse" id="color-15"><stop offset="0" stop-color="#ffffff"></stop><stop offset="1" stop-color="#e5e5e5"></stop></linearGradient><linearGradient x1="283.10048" y1="96.33751" x2="283.10048" y2="126.33751" gradientUnits="userSpaceOnUse" id="color-16"><stop offset="0" stop-color="#ffffff"></stop><stop offset="1" stop-color="#e5e5e5"></stop></linearGradient><linearGradient x1="311.10048" y1="94.33751" x2="311.10048" y2="120.33751" gradientUnits="userSpaceOnUse" id="color-17"><stop offset="0" stop-color="#ffffff"></stop><stop offset="1" stop-color="#e5e5e5"></stop></linearGradient></defs><g transform="translate(5.00047,74.03751)"><g data-paper-data="{&quot;isPaintingLayer&quot;:true}" fill-rule="nonzero" stroke-width="0" stroke-linecap="butt" stroke-linejoin="miter" stroke-miterlimit="10" stroke-dasharray="" stroke-dashoffset="0" style="mix-blend-mode: normal"><path d="M-0.96295,-74.03751h480.9419v290l-479.98805,-15z" fill="url(#color-1)" stroke="#ccffff"></path><path d="M443.97824,173.38895c12.05256,-0.53467 25.61835,4.24571 33.00294,13.54706c7.86306,9.85909 5.70849,24.56341 5.04411,37.03823c0.32427,12.83656 1.65303,27.53943 -6.05294,37.97499c-7.11941,9.66597 -20.08712,16.72053 -31.99412,16.64559c-17.7135,-0.11097 -37.89573,-5.89441 -50.93982,-15.41627c-13.04409,-9.5233 -21.119,-22.67403 -21.119,-37.18667c0,-14.51265 8.07491,-27.66338 21.119,-37.18668c13.04409,-9.52185 33.23929,-14.64523 50.93982,-15.41626z" fill="url(#color-2)" stroke="#00cc44"></path><path d="M79.00469,163.53895c15.41794,0 29.38853,3.84941 39.50435,10.06776c10.11582,6.21929 16.37799,14.80753 16.37799,24.28518c0,9.47764 -6.26217,18.06588 -16.37799,24.28517c-10.11582,6.21835 -24.08641,10.06777 -39.50435,10.06777c-15.41794,0 -29.38853,-3.84942 -39.50435,-10.06777c-10.11582,-6.21929 -16.37799,-14.80753 -16.37799,-24.28517c0,-9.47764 6.26217,-18.06588 16.37799,-24.28518c10.11582,-6.21836 24.08641,-10.06776 39.50435,-10.06776z" fill="url(#color-3)" stroke="#00cc44"></path><path d="M192.47824,155.83895c19.88103,0 37.89573,5.89441 50.93982,15.41627c13.04409,9.52329 21.119,22.67403 21.119,37.18668c0,14.51265 -8.07491,27.66338 -21.119,37.18667c-13.04409,9.52185 -31.05879,15.41627 -50.93982,15.41627c-19.88103,0 -37.89573,-5.89442 -50.93982,-15.41627c-13.04409,-9.5233 -21.119,-22.67403 -21.119,-37.18667c0,-14.51265 8.07491,-27.66338 21.119,-37.18668c13.04409,-9.52185 31.05879,-15.41627 50.93982,-15.41627z" fill="url(#color-4)" stroke="#00cc44"></path><path d="M320.47824,163.83895c19.88103,0 37.89573,5.89441 50.93982,15.41627c13.04409,9.52329 21.119,22.67403 21.119,37.18668c0,14.51265 -8.07491,27.66338 -21.119,37.18667c-13.04409,9.52185 -31.05879,15.41627 -50.93982,15.41627c-19.88103,0 -37.89573,-5.89442 -50.93982,-15.41627c-13.04409,-9.5233 -21.119,-22.67403 -21.119,-37.18667c0,-14.51265 8.07491,-27.66338 21.119,-37.18668c13.04409,-9.52185 31.05879,-15.41627 50.93982,-15.41627z" fill="url(#color-5)" stroke="#00cc44"></path><path d="M-2.01483,172.95954c5.94523,-3.21318 16.1986,10.32094 22.58866,19.19717c4.81531,6.67388 10.26528,14.98541 10.26528,24.28518c0,9.29976 -4.03214,20.24658 -10.26528,24.28517l-20.5922,-3.76753l-0.98071,-34.96471c-0.32154,-11.6433 -5.85696,-27.32893 -1.01574,-29.03529z" fill="url(#color-6)" stroke="#00cc44"></path><path d="M0.03705,208.96249l481.75,-3l8.2,60l-492,5z" fill="url(#color-7)" stroke="#00cc44"></path><path d="M-5.00047,261.57918h484.97502v26.93334h-484.97501z" fill="url(#color-8)" stroke="#663b00"></path><path d="M-3.99954,360.03751v-73h485v73z" fill="url(#color-9)" stroke="#bf9100"></path><path d="M45.28348,97.8317c0,8.55721 -11.25624,15.49419 -25.14151,15.49419c-13.88527,0 -25.14151,-6.93698 -25.14151,-15.49419c0,-8.5572 11.25623,-15.49419 25.14151,-15.49419c13.88528,0 25.14151,6.93699 25.14151,15.49419z" fill="url(#color-10)" stroke="#ffffff"></path><path d="M39.66713,86.33752c13.62302,0 24.66667,6.77678 24.66667,15.13636c0,8.35959 -11.04364,15.13636 -24.66667,15.13636c-13.62302,0 -24.66667,-6.77678 -24.66667,-15.13636c0,-8.35959 11.04364,-15.13636 24.66667,-15.13636z" fill="url(#color-11)" stroke="#ffffff"></path><path d="M474.32479,20.33751c15.28485,0 27.67568,7.16344 27.67568,16c0,8.83656 -12.39082,16 -27.67568,16c-15.28485,0 -27.67568,-7.16344 -27.67568,-16c0,-8.83656 12.39082,-16 27.67568,-16z" fill="url(#color-12)" stroke="#ffffff"></path><path d="M420.90956,35.83751c0,-7.45585 10.98938,-13.5 24.54545,-13.5c13.55608,0 24.54545,6.04415 24.54545,13.5c0,7.45585 -10.98938,13.5 -24.54545,13.5c-13.55608,0 -24.54545,-6.04415 -24.54545,-13.5z" fill="url(#color-13)" stroke="#ffffff"></path><path d="M193.00046,27.99136c0,8.64538 -9.84974,15.65385 -22,15.65385c-12.15026,0 -22,-7.00846 -22,-15.65385c0,-8.64538 9.84974,-15.65385 22,-15.65385c12.15026,0 22,7.00846 22,15.65385z" fill="url(#color-14)" stroke="#ffffff"></path><path d="M190.8199,14.33751c12.60283,0 22.81944,6.93958 22.81944,15.5c0,8.56042 -10.21661,15.5 -22.81944,15.5c-12.60283,0 -22.81944,-6.93958 -22.81944,-15.5c0,-8.56042 10.21661,-15.5 22.81944,-15.5z" fill="url(#color-15)" stroke="#ffffff"></path><path d="M310.60048,111.33751c0,8.28427 -12.31217,15 -27.5,15c-15.18783,0 -27.5,-6.71573 -27.5,-15c0,-8.28427 12.31217,-15 27.5,-15c15.18783,0 27.5,6.71573 27.5,15z" fill="url(#color-16)" stroke="#ffffff"></path><path d="M311.10048,94.33751c13.53098,0 24.5,5.8203 24.5,13c0,7.1797 -10.96902,13 -24.5,13c-13.53098,0 -24.5,-5.8203 -24.5,-13c0,-7.1797 10.96902,-13 24.5,-13z" fill="url(#color-17)" stroke="#ffffff"></path></g></g></svg>