<svg version="1.1" xmlns="http://www.w3.org/2000/svg" xmlns:xlink="http://www.w3.org/1999/xlink" width="79.38202" height="21.75488" viewBox="0,0,79.38202,21.75488"><defs><linearGradient x1="226.34714" y1="169.12256" x2="226.34714" y2="190.04154" gradientUnits="userSpaceOnUse" id="color-1"><stop offset="0" stop-color="#bf5d00"></stop><stop offset="1" stop-color="#ff7b00"></stop></linearGradient><linearGradient x1="253.24933" y1="170.12243" x2="253.24933" y2="190.87744" gradientUnits="userSpaceOnUse" id="color-2"><stop offset="0" stop-color="#bf5d00"></stop><stop offset="1" stop-color="#ff7b00"></stop></linearGradient></defs><g transform="translate(-200.30899,-169.12256)"><g data-paper-data="{&quot;isPaintingLayer&quot;:true}" fill-rule="nonzero" stroke="#ffffff" stroke-width="0" stroke-linecap="butt" stroke-linejoin="miter" stroke-miterlimit="10" stroke-dasharray="" stroke-dashoffset="0" style="mix-blend-mode: normal"><path d="M252.38533,179.58205c0,5.77662 -11.65769,10.45949 -26.03817,10.45949c-14.38048,0 -26.03817,-4.68287 -26.03817,-10.45949c0,-5.77662 11.65769,-10.45949 26.03817,-10.45949c14.38048,0 26.03817,4.68287 26.03817,10.45949z" fill="url(#color-1)"></path><path d="M253.24931,170.12243c14.60334,0 26.4417,4.64617 26.4417,10.37751c0,5.73134 -11.83835,10.37751 -26.4417,10.37751c-14.60334,0 -26.4417,-4.64617 -26.4417,-10.37751c0,-5.73134 11.83835,-10.37751 26.4417,-10.37751z" fill="url(#color-2)"></path></g></g></svg>