<svg version="1.1" xmlns="http://www.w3.org/2000/svg" xmlns:xlink="http://www.w3.org/1999/xlink" width="123.88901" height="83.21175" viewBox="0,0,123.88901,83.21175"><defs><linearGradient x1="219.55555" y1="221.43651" x2="219.55555" y2="138.4365" gradientUnits="userSpaceOnUse" id="color-1"><stop offset="0" stop-color="#4a3380"></stop><stop offset="1" stop-color="#66ebff"></stop></linearGradient><linearGradient x1="260.44453" y1="221.51815" x2="260.44453" y2="138.51814" gradientUnits="userSpaceOnUse" id="color-2"><stop offset="0" stop-color="#4a3380"></stop><stop offset="1" stop-color="#66ebff"></stop></linearGradient><linearGradient x1="239.59624" y1="221.6059" x2="239.59624" y2="138.39415" gradientUnits="userSpaceOnUse" id="color-3"><stop offset="0" stop-color="#4a3380"></stop><stop offset="1" stop-color="#66ebff"></stop></linearGradient><linearGradient x1="221.33014" y1="216.13856" x2="221.33014" y2="142.76537" gradientUnits="userSpaceOnUse" id="color-4"><stop offset="0" stop-color="#66ebff"></stop><stop offset="1" stop-color="#4a3380"></stop></linearGradient><linearGradient x1="257.47659" y1="216.21072" x2="257.47659" y2="142.83754" gradientUnits="userSpaceOnUse" id="color-5"><stop offset="0" stop-color="#66ebff"></stop><stop offset="1" stop-color="#4a3380"></stop></linearGradient><linearGradient x1="239.04639" y1="216.2883" x2="239.04639" y2="142.72794" gradientUnits="userSpaceOnUse" id="color-6"><stop offset="0" stop-color="#66ebff"></stop><stop offset="1" stop-color="#4a3380"></stop></linearGradient><linearGradient x1="239.89786" y1="182.71155" x2="239.89786" y2="208.65588" gradientUnits="userSpaceOnUse" id="color-7"><stop offset="0" stop-color="#66ebff"></stop><stop offset="1" stop-color="#4c337f"></stop></linearGradient><linearGradient x1="239.89786" y1="182.71155" x2="239.89786" y2="208.65588" gradientUnits="userSpaceOnUse" id="color-8"><stop offset="0" stop-color="#4c337f"></stop><stop offset="1" stop-color="#66ebff"></stop></linearGradient><linearGradient x1="240.10216" y1="151.34412" x2="240.10216" y2="177.28845" gradientUnits="userSpaceOnUse" id="color-9"><stop offset="0" stop-color="#66ebff"></stop><stop offset="1" stop-color="#4c337f"></stop></linearGradient><linearGradient x1="240.10216" y1="151.34412" x2="240.10216" y2="177.28845" gradientUnits="userSpaceOnUse" id="color-10"><stop offset="0" stop-color="#4c337f"></stop><stop offset="1" stop-color="#66ebff"></stop></linearGradient></defs><g transform="translate(-178.05552,-138.39414)"><g data-paper-data="{&quot;isPaintingLayer&quot;:true}" fill-rule="nonzero" stroke-linejoin="miter" stroke-miterlimit="10" stroke-dasharray="" stroke-dashoffset="0" style="mix-blend-mode: normal"><g data-paper-data="{&quot;index&quot;:null}" stroke="none" stroke-linecap="butt"><path d="M219.55553,221.43651c-22.884,0 -41.5,-18.617 -41.5,-41.5c0,-22.882 18.617,-41.50001 41.5,-41.50001c22.884,0 41.5,18.61801 41.5,41.50001c0,22.882 -18.616,41.5 -41.5,41.5z" fill="url(#color-1)" stroke-width="1"></path><path d="M260.44453,221.51815c-22.884,0 -41.5,-18.617 -41.5,-41.5c0,-22.882 18.617,-41.50001 41.5,-41.50001c22.884,0 41.5,18.61801 41.5,41.50001c0,22.882 -18.616,41.5 -41.5,41.5z" fill="url(#color-2)" stroke-width="1"></path><path d="M260.71675,138.39414v83.21175h-42.24107v-83.21173z" fill="url(#color-3)" stroke-width="0"></path></g><g data-paper-data="{&quot;index&quot;:null}" stroke="none" stroke-linecap="butt"><path d="M221.33013,216.13856c-20.22978,0 -36.68659,-16.45769 -36.68659,-36.68659c0,-20.22801 16.45769,-36.68659 36.68659,-36.68659c20.22978,0 36.68659,16.45858 36.68659,36.68659c0,20.22801 -16.45681,36.68659 -36.68659,36.68659z" fill="url(#color-4)" stroke-width="1"></path><path d="M257.47659,216.21073c-20.22978,0 -36.68659,-16.45769 -36.68659,-36.68659c0,-20.22801 16.45769,-36.68659 36.68659,-36.68659c20.22978,0 36.68659,16.45858 36.68659,36.68659c0,20.22801 -16.45681,36.68659 -36.68659,36.68659z" fill="url(#color-5)" stroke-width="1"></path><path d="M257.71724,142.72794v73.56036h-37.3417v-73.56036z" fill="url(#color-6)" stroke-width="0"></path></g><path d="M207.54517,182.71155l64.70539,0.02199l-32.07364,25.92234z" data-paper-data="{&quot;index&quot;:null}" fill="url(#color-7)" stroke="url(#color-8)" stroke-width="0.5" stroke-linecap="round"></path><path d="M240.38122,151.34412l32.07364,25.92234l-64.70539,0.02199z" data-paper-data="{&quot;index&quot;:null}" fill="url(#color-9)" stroke="url(#color-10)" stroke-width="0.5" stroke-linecap="round"></path></g></g></svg>