<svg version="1.1" xmlns="http://www.w3.org/2000/svg" xmlns:xlink="http://www.w3.org/1999/xlink" width="108.50944" height="53.94519" viewBox="0,0,108.50944,53.94519"><defs><linearGradient x1="220.218" y1="155.02739" x2="220.218" y2="206.9726" gradientUnits="userSpaceOnUse" id="color-1"><stop offset="0" stop-color="#bf5d00"></stop><stop offset="1" stop-color="#ff7b00"></stop></linearGradient><linearGradient x1="261" y1="153.0274" x2="261" y2="201.98574" gradientUnits="userSpaceOnUse" id="color-2"><stop offset="0" stop-color="#bf5d00"></stop><stop offset="1" stop-color="#ff7b00"></stop></linearGradient></defs><g transform="translate(-185.74528,-153.0274)"><g data-paper-data="{&quot;isPaintingLayer&quot;:true}" fill-rule="nonzero" stroke="#ffffff" stroke-width="0" stroke-linecap="butt" stroke-linejoin="miter" stroke-miterlimit="10" stroke-dasharray="" stroke-dashoffset="0" style="mix-blend-mode: normal"><path d="M254.69074,181c0,14.34427 -15.43397,25.9726 -34.47273,25.9726c-19.03876,0 -34.47273,-11.62833 -34.47273,-25.9726c0,-14.34427 15.43397,-25.9726 34.47273,-25.9726c19.03876,0 34.47273,11.62833 34.47273,25.9726z" fill="url(#color-1)"></path><path d="M261,153.0274c18.36607,0 33.25472,10.95969 33.25472,24.47917c0,13.51948 -14.88865,24.47917 -33.25472,24.47917c-18.36607,0 -33.25472,-10.95969 -33.25472,-24.47917c0,-13.51948 14.88865,-24.47917 33.25472,-24.47917z" fill="url(#color-2)"></path></g></g></svg>