<svg version="1.1" xmlns="http://www.w3.org/2000/svg" xmlns:xlink="http://www.w3.org/1999/xlink" width="173.43146" height="137.39329" viewBox="0,0,173.43146,137.39329"><g transform="translate(-151.67978,-121.22193)"><g data-paper-data="{&quot;isPaintingLayer&quot;:true}" fill-rule="nonzero" stroke="none" stroke-width="1" stroke-linecap="butt" stroke-linejoin="miter" stroke-miterlimit="10" stroke-dasharray="" stroke-dashoffset="0" style="mix-blend-mode: normal"><g><path d="M301.24386,164.5739c0.90375,-5.194 5.84696,-8.67191 11.04095,-7.76816c5.194,0.90375 8.67191,5.84696 7.76816,11.04095c-0.90375,5.194 -5.84696,8.67191 -11.04095,7.76816c-5.194,-0.90375 -8.67191,-5.84696 -7.76816,-11.04095z" fill="#a3b339"></path><path d="M319.4418,162.82315c-0.44251,-0.54829 -0.91531,-1.36507 -1.6566,-2.15158c-0.37065,-0.39326 -0.74129,-0.7865 -1.26697,-1.10787c-0.52568,-0.32138 -1.16483,-0.68435 -1.73209,-0.89227c-0.68072,-0.24951 -1.24799,-0.45744 -1.97031,-0.59349c-0.7223,-0.13606 -1.44463,-0.27211 -2.09506,-0.25313c-0.38195,-0.0113 -0.76389,-0.0226 -1.14584,-0.0339l-0.96052,0.16272c-0.31008,0.14373 -0.69203,0.13244 -1.0021,0.27617c-0.31008,0.14373 -0.62016,0.28748 -0.93023,0.43121c-0.62016,0.28748 -1.12686,0.61653 -1.63356,0.9456c-0.50671,0.32907 -0.94154,0.81316 -1.33479,1.1838c-0.7865,0.74129 -1.45954,1.52416 -1.78092,2.04984c-0.36297,0.63914 -0.60118,0.93791 -0.60118,0.93791c0,0 0.0113,-0.38195 0.26081,-1.06267c0.24951,-0.68072 0.58219,-1.58835 1.22495,-2.63972c0.64276,-1.05137 1.70906,-2.20488 3.03254,-3.00674c0.31008,-0.14373 0.7336,-0.2459 1.08527,-0.50308c0.35167,-0.25719 0.77519,-0.35934 1.19873,-0.46149c0.42354,-0.10216 0.96052,-0.16272 1.38405,-0.26487c0.42354,-0.10216 0.80548,-0.09085 1.18743,-0.07955c0.91894,-0.04927 1.64124,0.08679 2.47701,0.26444c0.83576,0.17765 1.51648,0.42715 2.26909,0.83171c0.63914,0.36297 1.23669,0.83939 1.83425,1.3158c0.44251,0.54829 0.88504,1.09657 1.21408,1.60328c0.65812,1.01341 0.93429,2.0155 1.06672,2.70754c0.13244,0.69203 0.23459,1.11556 0.23459,1.11556c0,0 -0.25719,-0.35167 -0.35934,-0.77519z" fill="#687a27"></path></g><g><path d="M273.92637,166.21661c-0.71549,-6.82579 6.45401,-44.99468 6.45401,-44.99468c14.7616,16.60731 25.81804,40.8653 25.81804,40.8653c-18.96172,-5.14848 -32.27206,4.12938 -32.27206,4.12938z" fill="#6d4b9b"></path><path d="M274.20168,159.49659c0.0981,-2.02319 0.32094,-4.38674 0.58539,-6.86374c0.26444,-2.47701 0.61204,-5.18092 0.95965,-7.88482c0.34761,-2.70391 0.69521,-5.40783 1.22815,-7.91511c0.41947,-2.54887 0.86923,-4.82925 1.34928,-6.84114c0.9185,-3.91033 1.76152,-6.56134 1.76152,-6.56134c0,0 -0.13606,0.7223 -0.16996,1.86815c-0.14736,1.10426 -0.27574,2.85895 -0.48729,4.84055c-0.25313,2.09506 -0.58944,4.41703 -0.85388,6.89403c-0.18895,1.21772 -0.26444,2.47701 -0.49497,3.80816c-0.23053,1.33117 -0.34761,2.70391 -0.57814,4.03507c-0.23053,1.33117 -0.34761,2.70391 -0.57814,4.03507c-0.23053,1.33117 -0.46105,2.66232 -0.65001,3.88004c-0.26444,2.47701 -0.7142,4.75739 -1.08078,6.81085c-0.6916,3.99349 -1.26611,6.61423 -1.26611,6.61423c0,0 -0.03434,-2.71521 0.2753,-6.72001z" fill="#4a3369"></path><path d="M293.51333,148.94365c-0.69565,1.54676 -5.19541,5.04528 -5.19541,5.04528c-0.86242,-1.86048 0.41905,-6.40993 0.41905,-6.40993c-2.34457,0.42759 -7.73384,-3.47824 -7.73384,-3.47824c2.14027,-1.27466 8.00553,-1.82743 8.00553,-1.82743c-0.64682,-1.39535 1.34928,-6.84114 1.34928,-6.84114c1.14221,1.44824 4.0016,5.58503 4.0016,5.58503c0.15505,-0.07187 0.19662,-0.18532 0.35167,-0.25719c1.05905,1.67515 2.00464,3.30872 2.87837,4.78724c-0.23821,0.29878 -0.39326,0.37065 -0.39326,0.37065c1.21408,1.60328 2.57596,5.96335 2.57596,5.96335c-4.12593,-1.38362 -6.25894,-2.93763 -6.25894,-2.93763z" fill="#e0c448"></path><path d="M302.26101,155.62484c-1.20278,-1.98523 -2.5493,-4.28053 -3.96769,-6.73088c-1.45998,-2.33689 -2.95023,-4.94227 -4.55394,-7.58924c-0.84345,-1.21003 -1.53185,-2.49192 -2.33369,-3.81541c-0.72999,-1.16844 -1.53185,-2.49192 -2.26184,-3.66037c-1.45998,-2.33689 -2.96154,-4.56034 -4.20591,-6.4321c-0.65812,-1.01341 -1.24437,-1.87178 -1.75875,-2.57509c-0.62783,-0.74492 -1.02877,-1.40665 -1.47128,-1.95494c-0.88504,-1.09657 -1.32754,-1.64486 -1.32754,-1.64486c0,0 0.59755,0.47643 1.6792,1.38768c0.48409,0.43484 1.04007,1.02471 1.70949,1.65617c0.66941,0.63146 1.41071,1.41795 2.11042,2.31791c0.6997,0.89995 1.51286,1.84149 2.28444,2.89648c0.77158,1.05498 1.54315,2.10999 2.38659,3.32002c1.57344,2.37848 3.21873,4.91198 4.82244,7.55895c0.80186,1.32348 1.49026,2.60538 2.29211,3.92887c0.6884,1.2819 1.3768,2.5638 2.06521,3.8457c1.41839,2.45035 2.56829,4.93097 3.50257,6.94648c1.94046,4.18607 2.96559,7.00705 2.96559,7.00705c0,0 -1.6453,-2.53351 -3.93741,-6.46238z" fill="#4a3369"></path></g><path d="M260.94915,178.44787c-3.11657,-4.48846 1.16715,-12.31315 1.16715,-12.31315c19.01823,3.23875 36.89045,38.74634 36.89045,38.74634c0,0 -8.61396,5.59401 -8.79927,5.39739c0,0 -12.65135,18.01337 -17.01505,20.78958c0,0 -26.9807,-22.24436 -32.69628,-35.79334z" fill="#4a3369"></path><g><g fill="#a3b339"><path d="M171.13645,225.14485c-6.13699,4.49138 -15.12343,-0.09272 -9.6004,-7.1135c5.54016,-7.14041 19.11233,-14.96047 22.78231,-6.49982c3.51649,7.82829 -7.02776,9.00236 -13.18191,13.61333z"></path><path d="M171.1536,225.02523c-3.24751,1.36553 -7.07674,4.23459 -5.81327,6.4909c1.26347,2.25631 2.98662,8.11855 0.61151,7.65601c-2.35796,-0.58215 -3.73776,-9.69107 -3.73776,-9.69107c0,0 0.30247,10.66347 -2.07262,10.20093c-2.35796,-0.58215 -0.35308,-12.0135 -0.35308,-12.0135c0,0 -2.636,9.02156 -3.95091,7.12407c-1.31491,-1.89747 3.28549,-9.29465 2.15837,-10.79901c-1.12714,-1.50434 -5.93207,4.76488 -6.3064,1.41534c-0.37434,-3.34957 10.24138,-10.98308 12.48014,-11.27252"></path></g><path d="M211.38302,219.43948c-3.48961,7.31227 -18.32279,7.74945 -33.37351,-1.36605c-12.35149,-7.50787 -5.29108,-13.33169 7.3364,-11.15537c12.76423,2.07386 28.8425,6.57592 26.03711,12.52142z" fill="#a3b339"></path><path d="M227.46826,209.41618c-7.31967,11.89019 -29.33532,23.26066 -34.38759,10.81768c-4.91591,-11.69102 13.827,-40.25424 21.92758,-41.41237c8.10058,-1.15813 23.79876,11.95643 12.46001,30.59471z" fill="#a3b339"></path><path d="M230.8709,205.26527c-0.01715,0.11962 -0.03429,0.23923 -0.1882,0.4613c-0.17105,0.3417 -0.49601,0.90546 -0.95772,1.5717c-0.92343,1.33248 -2.41104,3.19443 -4.29177,5.24415c-1.88074,2.04974 -4.29137,4.38972 -7.04369,6.55865c-1.36759,1.02467 -2.87193,2.15179 -4.47875,3.14215c-1.60682,0.99037 -3.21363,1.98075 -5.02536,2.6976c-1.69213,0.734 -3.58921,1.19448 -5.57158,1.39859c-0.97404,-0.01755 -1.94809,-0.03512 -2.905,-0.17228c-0.83729,-0.12002 -1.79419,-0.25719 -2.63148,-0.37721c-3.45161,-0.61685 -6.64686,-1.31902 -9.32935,-2.19183c-1.28145,-0.42784 -2.54574,-0.97527 -3.58797,-1.36883c-1.02507,-0.51316 -1.94768,-0.88955 -2.61391,-1.35126c-1.46923,-0.82095 -2.10118,-1.52191 -2.10118,-1.52191c0,0 0.22208,0.1539 0.56376,0.32496c0.3417,0.17105 1.04222,0.39354 1.7256,0.73565c0.82014,0.23963 1.74275,0.61603 2.80212,0.88996c1.05937,0.27394 2.35796,0.58215 3.65655,0.89037c1.4182,0.32537 2.83641,0.65073 4.39135,0.87364c1.55495,0.22289 3.22955,0.46295 4.90411,0.70299c0.83729,0.12002 1.79419,0.25719 2.63148,0.37721c0.9569,0.13717 1.67457,0.24004 2.54615,0.12084c1.72601,-0.1188 3.38386,-0.61357 5.05883,-1.22796c1.67499,-0.61438 3.26466,-1.48515 4.8543,-2.3559c1.58967,-0.87076 3.07686,-1.87829 4.44445,-2.90293c2.85479,-2.03219 5.35073,-4.11579 7.33393,-6.02877c1.98321,-1.91299 3.69289,-3.62103 4.71879,-4.81674c0.56419,-0.52947 0.88913,-1.09326 1.1798,-1.41779c0.03429,-0.23923 0.17105,-0.3417 0.20534,-0.58091c0,0 0,0 -0.29067,0.32455z" fill="#687a27"></path><path d="M187.02048,207.15812c-1.93095,-0.15472 -4.10111,-0.34374 -6.42519,-0.31069c-2.32409,0.03306 -4.81919,0.40782 -6.92159,1.44921c-0.51275,0.17064 -0.92302,0.47804 -1.47005,0.8879c-0.54704,0.40987 -0.95731,0.71726 -1.50434,1.12714c-0.97446,0.83687 -2.03423,1.41738 -2.99154,2.13464c-1.91461,1.43453 -3.89741,2.49307 -5.50422,3.48344c-1.58967,0.87076 -3.04257,1.63905 -4.0852,2.09993c-0.5299,0.29025 -0.92302,0.47804 -1.17938,0.56335c-0.11962,-0.01715 -0.25638,0.08533 -0.37599,0.06818c-0.10247,-0.13677 0.01715,-0.11962 0.01715,-0.11962l-0.01715,0.11962c0,0 0.13677,-0.10247 0.27352,-0.20493c0.1539,-0.22208 0.56419,-0.52947 0.97446,-0.83687c0.82055,-0.6148 2.06852,-1.65661 3.57288,-2.78375c1.62396,-1.10999 3.40183,-2.44205 5.29929,-3.75695c0.95731,-0.71726 1.91461,-1.43453 2.99154,-2.13464c0.42743,-0.42702 0.95731,-0.71726 1.50434,-1.12714c0.5299,-0.29025 1.07693,-0.70011 1.72642,-0.97323c2.4784,-1.10958 5.19559,-1.33041 7.62213,-1.22672c2.54615,0.12084 4.68202,0.54908 6.57868,0.94304c1.89665,0.39395 3.41731,0.85607 4.45953,1.24961c1.04222,0.39354 1.62313,0.59889 1.62313,0.59889c0,0 -2.47756,-0.59929 -6.1684,-1.25045z" fill="#687a27"></path><path d="M157.94439,224.35243c0.20493,0.27352 0.25596,0.76911 0.17024,1.36718c0.03388,0.6152 -0.05185,1.21328 -0.27433,1.9138c-0.22249,0.70053 -0.42784,1.28145 -0.65033,1.98198c-0.42784,1.28145 -0.97527,2.54574 -1.35167,3.46836c-0.1882,0.4613 -0.25678,0.93976 -0.29107,1.17899c-0.01715,0.11962 0.08533,0.25638 0.06818,0.37599c0.10247,0.13677 0.10247,0.13677 0.10247,0.13677c0,0 -0.23923,-0.03429 -0.44416,-0.30782c-0.20493,-0.27352 -0.37558,-0.78625 -0.40945,-1.40147c-0.06776,-1.23043 0.13798,-2.66576 0.70259,-4.04968c0.34211,-0.68338 0.5646,-1.38391 0.88955,-1.94768c0.32496,-0.56376 0.64991,-1.12754 0.8381,-1.58885c0.1882,-0.4613 0.37639,-0.92261 0.5303,-1.14469c0.1539,-0.22208 0.1882,-0.4613 0.1882,-0.4613c0,0 0.08533,0.25638 -0.06859,0.47846z" fill="#687a27"></path><path d="M159.77041,229.49699c0.06776,1.23043 -0.03552,2.80253 -0.12166,4.25502c0.01673,0.73481 -0.08614,1.45251 -0.06941,2.18732c-0.05144,0.35885 -0.10288,0.71767 -0.01755,0.97404c-0.03429,0.23923 -0.08572,0.59806 -0.00042,0.85443c0.08533,0.25638 0.05103,0.4956 0.13635,0.75196c0.08533,0.25638 0.05103,0.4956 0.1535,0.63235c0.08533,0.25638 0.17064,0.51275 0.17064,0.51275c0,0 -0.10247,-0.13677 -0.44416,-0.30782c-0.11962,-0.01715 -0.20493,-0.27352 -0.42702,-0.42743c-0.20493,-0.27352 -0.40987,-0.54704 -0.49519,-0.80341c-0.40987,-0.54704 -0.54621,-1.299 -0.68256,-2.05097c-0.13635,-0.75196 -0.15309,-1.4868 -0.15267,-2.34122c0.10288,-0.71767 0.22289,-1.55495 0.32577,-2.27265c0.22249,-0.70053 0.44499,-1.40106 0.65033,-1.98198c0.41068,-1.16184 0.8724,-1.82807 0.8724,-1.82807c0,0 0.13635,0.75196 0.10164,1.84562z" fill="#687a27"></path><path d="M165.21704,239.18888c-0.3417,-0.17105 -0.78584,-0.47886 -1.09326,-0.88913c-0.42702,-0.42743 -0.71726,-0.95731 -1.00752,-1.4872c-0.27311,-0.64951 -0.54621,-1.299 -0.69971,-1.93136c-0.40945,-1.40147 -0.46006,-2.7515 -0.44252,-3.72554c0.01755,-0.97404 0.24004,-1.67457 0.24004,-1.67457c0,0 0.51233,0.68379 0.87076,1.58967c0.47804,0.92302 0.92179,2.08526 1.22877,3.34997c0.4266,1.28185 0.61398,2.52943 0.85279,3.41814c0.06818,0.37599 0.25596,0.76911 0.34129,1.02548c0.20493,0.27352 0.3074,0.41028 0.3074,0.41028c0,0 -0.25638,0.08533 -0.59806,-0.08572z" fill="#687a27"></path><path d="M178.48631,221.55975c-0.80341,0.49519 -1.62396,1.10999 -2.56413,1.70763c-0.94016,0.59765 -1.99994,1.17816 -2.9401,1.77582c-2.11956,1.16102 -4.11949,2.33915 -5.58955,3.22706c-0.68379,0.51233 -1.35044,0.90505 -1.64111,1.2296c-0.13677,0.10247 -0.17105,0.3417 -0.1882,0.4613c-0.01715,0.11962 -0.03429,0.23923 -0.03429,0.23923c0,0 0,0 -0.10247,-0.13677c-0.10247,-0.13677 -0.06818,-0.37599 -0.03388,-0.6152c0.20534,-0.58091 0.66706,-1.24715 1.24839,-1.89625c0.70093,-0.63195 1.40188,-1.2639 2.35919,-1.98116c0.41028,-0.3074 0.8377,-0.73442 1.36759,-1.02467c0.41028,-0.3074 0.94016,-0.59765 1.47005,-0.8879c0.94016,-0.59765 1.99994,-1.17816 3.04257,-1.63905c1.04263,-0.4609 1.96566,-0.93895 2.85437,-1.17775c1.55538,-0.63153 2.80294,-0.81891 2.80294,-0.81891c0,0 -0.97446,0.83687 -2.05138,1.53699z" fill="#687a27"></path></g><g><path d="M300.41587,225.5473c2.58543,-0.05289 10.76601,5.34246 12.97501,6.21216c2.28042,0.77222 4.62045,4.73402 -2.42917,1.06624c0,0 3.49031,5.25413 1.28802,4.98858c-2.20229,-0.26555 -3.83399,-3.55851 -3.83399,-3.55851c0,0 -0.25723,7.30175 -1.93351,6.52281c-1.67628,-0.77894 -1.65856,-5.70951 -1.65856,-5.70951c0,0 -1.02435,5.69098 -2.53845,4.28187c-0.70832,-0.66886 0.79747,-4.35919 -2.94497,-6.20276" fill="#a3b339"></path><path d="M290.78107,204.55526c-1.54443,4.56083 -2.10911,5.94472 -1.65292,10.02413c0.45618,4.07941 11.44319,9.73361 15.61495,13.24004c4.17176,3.50642 -0.05558,8.04873 -6.14314,6.13455c-5.19102,-1.70663 -18.54168,-4.74852 -22.78567,-10.40515c-4.14653,-5.58519 -3.17508,-13.86161 1.96063,-21.48342c5.27855,-7.81675 14.52455,-2.23988 13.00616,2.48986z" fill="#a3b339"></path><path d="M301.75839,237.61665c0.01933,-0.43526 -0.0588,-0.94192 -0.26045,-1.68891c-0.17561,-0.5781 -0.52009,-1.13014 -1.24774,-1.36374c-0.26636,-0.04537 -0.70161,-0.0647 -1.23432,-0.15547c-0.53272,-0.09075 -1.1629,-0.25293 -1.69561,-0.34369c-2.22833,-0.43445 -4.84653,-1.15457 -7.49078,-2.04361c-1.35784,-0.39578 -2.74171,-0.96043 -4.12559,-1.52511c-1.38388,-0.56467 -2.76775,-1.12934 -4.17767,-1.86289c-1.31247,-0.66213 -2.65096,-1.49315 -3.91804,-2.42166c-0.58481,-0.42853 -1.19565,-1.02595 -1.70904,-1.55196c-0.31844,-0.38317 -0.53942,-0.69489 -0.7604,-1.00664c-0.22099,-0.31174 -0.34448,-0.55205 -0.56547,-0.86379c-0.74108,-1.44188 -1.28721,-2.7409 -1.49557,-4.09203c-0.20835,-1.35113 -0.31925,-2.63083 -0.23521,-3.76768c0.07061,-2.34513 0.65461,-4.16426 1.14786,-5.45067c0.16217,-0.63018 0.35039,-1.09147 0.56467,-1.38388c0.04537,-0.26636 0.18822,-0.46129 0.18822,-0.46129c0,0 -0.2336,0.72765 -0.55796,1.98803c-0.32435,1.26037 -0.64199,3.12488 -0.4723,5.34648c0.08485,1.1108 0.26716,2.29303 0.61836,3.44923c0.27978,1.25365 0.79987,2.3838 1.48886,3.48789c0.12351,0.24031 0.34448,0.55205 0.56547,0.86379c0.22099,0.31174 0.34448,0.55205 0.6369,0.76631c0.41591,0.45458 1.00074,0.88312 1.58552,1.31165c1.16961,0.85708 2.41064,1.61668 3.72311,2.27881c1.31247,0.66213 2.62492,1.32426 4.0088,1.88894c1.28642,0.49324 2.67029,1.05791 3.95671,1.55116c2.57281,0.98649 5.11959,1.8041 7.20508,2.43346c0.63018,0.16217 1.09147,0.35039 1.52672,0.36974c0.43526,0.01933 1.06543,0.1815 1.52672,0.36974c0.55876,0.25964 0.97468,0.71423 1.12424,1.12343c0.31844,0.38317 0.29912,0.81841 0.35121,1.15619c0.10418,0.67556 0.01342,1.20827 -0.10339,1.5721c-0.1168,0.36383 -0.09075,0.53272 -0.09075,0.53272c0,0 -0.02604,-0.1689 -0.07814,-0.50668z" fill="#687a27"></path><path d="M299.3891,224.4953c-0.55876,-0.25964 -1.215,-0.59072 -1.96869,-0.9932c-0.75369,-0.40249 -1.50739,-0.80498 -2.18967,-1.30494c-1.53344,-0.97387 -2.99545,-2.0452 -4.34067,-3.48038c-0.53942,-0.69489 -1.17632,-1.46121 -1.7418,-2.32498c-0.31844,-0.38317 -0.56547,-0.86379 -0.64361,-1.37046c-0.09748,-0.07143 -0.12351,-0.24031 -0.14956,-0.40921l-0.12351,-0.24031c-0.02604,-0.1689 -0.14956,-0.40921 -0.10418,-0.67556c-0.08485,-1.1108 0.05127,-1.90988 0.18742,-2.70896c0.13613,-0.79908 0.36974,-1.52672 0.60334,-2.25438c0.88904,-2.64424 1.93432,-4.27515 1.93432,-4.27515c0,0 -0.18822,0.46129 -0.32435,1.26037c-0.13613,0.79908 -0.31764,1.86451 -0.54451,3.1963c-0.0647,0.70161 -0.22689,1.33178 -0.19412,2.10482c0.03278,0.77302 -0.00591,1.64352 0.09827,2.31908c0.13022,0.84444 0.4033,1.49397 0.77383,2.21491c0.44196,0.62348 0.98138,1.31836 1.59225,1.9158c1.22169,1.19486 2.61229,2.36364 3.90541,3.46105c1.29311,1.09738 2.65767,2.09729 3.72982,2.88294c2.24175,1.64272 3.70376,2.71407 3.70376,2.71407c0,0 -1.72164,-0.51258 -4.20372,-2.03178z" fill="#687a27"></path><path d="M315.78889,234.41552c-0.14284,0.19494 -0.35711,0.48734 -0.72095,0.37054c-0.31174,0.22099 -0.64952,0.27307 -1.08477,0.25374c-0.33778,0.05208 -0.70161,-0.0647 -1.06543,-0.1815c-0.72765,-0.2336 -1.24104,-0.7596 -1.55948,-1.14276c-0.31844,-0.38317 -0.39657,-0.88983 -0.39657,-0.88983c0,0 0.40921,-0.14956 0.8705,0.03865c0.60414,-0.00671 1.23432,0.15547 1.79307,0.4151c0.63018,0.16217 1.11753,0.5193 1.40993,0.73355c0.19494,0.14284 0.29241,0.21427 0.46129,0.18822c0.1689,-0.02604 0.24031,-0.12351 0.24031,-0.12351c0,0 0.09748,0.07143 0.05208,0.33778z" fill="#687a27"></path><path d="M311.04145,237.82769c-0.60414,0.00671 -1.42925,-0.29832 -1.94264,-0.8243c-0.22099,-0.31174 -0.44196,-0.62348 -0.66293,-0.93522c-0.22099,-0.31174 -0.27307,-0.64952 -0.32516,-0.98729c0.04537,-0.26636 0.09075,-0.53272 0.0647,-0.70161c-0.02604,-0.1689 0.04537,-0.26636 0.04537,-0.26636c0,0 0.09748,0.07143 0.19494,0.14284c0.26636,0.04537 0.46129,0.18822 0.65622,0.33107c0.48734,0.35711 0.8772,0.6428 1.36455,0.99991c0.41591,0.45458 0.83183,0.90916 1.15027,1.29232c0.41591,0.45458 0.56547,0.86379 0.56547,0.86379c0,0 -0.40921,0.14956 -1.1108,0.08485z" fill="#687a27"></path><path d="M306.04697,240.75923c-0.26636,-0.04537 -0.46129,-0.18822 -0.75369,-0.40249c-0.29241,-0.21427 -0.51339,-0.52601 -0.73435,-0.83774c-0.14956,-0.40921 -0.29912,-0.81841 -0.44869,-1.2276c-0.13022,-0.84444 -0.09156,-1.71495 0.16808,-2.27371c0.25964,-0.55876 0.54533,-0.94863 0.54533,-0.94863c0,0 0.31844,0.38317 0.32516,0.98729c0.12351,0.24031 0.34448,0.55205 0.39657,0.88983c0.22099,0.31174 0.27307,0.64952 0.32516,0.98729c0.10418,0.67556 0.20835,1.35113 0.2865,1.8578c0.12351,0.24031 0.07814,0.50668 0.10418,0.67556c0.02604,0.1689 0.05208,0.33778 0.05208,0.33778c0,0 0,0 -0.26636,-0.04537z" fill="#687a27"></path></g><g><path d="M299.79686,202.72544c-8.66726,2.22836 -8.19086,1.6308 -30.39812,22.19028c-22.20727,20.55947 -71.17732,6.34221 -74.50674,-7.74781c-3.44288,-14.13161 12.14248,-36.98958 25.30227,-39.88779c13.15978,-2.89821 42.74372,-1.44937 52.25356,-10.1898c9.31322,-8.55512 21.19154,-6.90386 34.79064,-3.97839c13.59911,2.92547 18.62265,16.60688 17.7837,21.70462c-0.73319,4.10694 -6.96054,13.02097 -25.22532,17.90889z" fill="#a3b339"></path><path d="M321.243,173.00691c-0.44251,-0.54829 -0.9569,-1.25162 -1.73977,-1.92467c-0.78287,-0.67305 -1.52416,-1.45954 -2.53395,-2.21576c-1.00978,-0.75622 -2.01957,-1.51243 -3.35841,-2.77535c-1.16483,-0.68435 -2.59813,-1.33841 -3.95958,-1.83744c-1.36145,-0.49903 -2.87793,-0.92618 -4.43601,-1.23988c-1.67152,-0.35528 -3.15772,-0.51395 -4.87083,-0.75578c-1.59965,-0.20025 -3.31277,-0.44209 -4.91242,-0.64233c-1.59965,-0.20025 -3.19931,-0.4005 -4.68551,-0.55915c-1.59965,-0.20025 -3.01399,-0.20387 -4.42833,-0.2075c-1.41434,-0.00362 -2.64335,0.18937 -3.87235,0.38237c-1.11556,0.23459 -2.2727,0.58263 -3.16135,0.90039c-0.46512,0.21561 -0.81677,0.4728 -1.24032,0.57494c-0.42354,0.10216 -0.77519,0.35934 -1.08527,0.50308c-0.66175,0.40092 -1.16844,0.72999 -1.47853,0.87372c-0.35167,0.25719 -0.50671,0.32907 -0.50671,0.32907c0,0 0.04159,-0.11346 0.39326,-0.37065c0.35167,-0.25719 0.63146,-0.66941 1.2932,-1.07036c0.31008,-0.14373 0.66175,-0.40092 1.01341,-0.65812c0.46512,-0.21561 0.81677,-0.4728 1.2819,-0.6884c0.46512,-0.21561 1.08527,-0.50308 1.5504,-0.71869c0.62016,-0.28748 1.19873,-0.46149 1.77731,-0.63551c1.27059,-0.30645 2.65466,-0.57133 4.11056,-0.68115c1.45592,-0.10982 2.9837,-0.06463 4.62495,0.02217c3.12745,0.24546 6.44022,0.68755 9.75297,1.12961c1.55807,0.31369 3.31277,0.44209 4.94271,0.91082c1.67152,0.35528 3.25988,0.93748 4.6932,1.59155c1.43331,0.65406 2.82504,1.42159 4.06174,2.26096c1.23669,0.83939 2.20488,1.70906 3.17309,2.57873c0.85475,0.82809 1.70949,1.65617 2.29574,2.51453c0.58625,0.85836 1.10062,1.5617 1.50156,2.22343c0.40092,0.66175 0.72999,1.16844 0.87372,1.47853c0.25719,0.35167 0.32907,0.50671 0.32907,0.50671c0,0 -0.51438,-0.70334 -1.3994,-1.79991z" fill="#687a27"></path><path d="M317.07767,191.04202c-3.57358,0.62059 -8.26273,1.47577 -12.95185,2.33093c-1.11556,0.23459 -2.34457,0.42759 -3.46013,0.66217c-1.22901,0.193 -2.2727,0.58263 -3.46013,0.66217c-2.18953,0.35572 -4.40934,0.44294 -6.20562,0.42801c-1.86815,-0.16996 -3.31277,-0.44209 -4.37544,-0.7029c-1.06267,-0.26081 -1.58835,-0.58219 -1.58835,-0.58219c0,0 0.56727,0.20792 1.55807,0.31369c0.9908,0.10577 2.51859,0.15099 4.24301,0.01086c0.91894,-0.04927 1.87945,-0.21199 2.83997,-0.37471c1.03239,-0.00769 2.03449,-0.28385 3.15005,-0.51843c1.11556,-0.23459 2.2727,-0.58263 3.38826,-0.81721c1.11556,-0.23459 2.38616,-0.54104 3.50172,-0.77563c1.22901,-0.193 2.34457,-0.42759 3.57358,-0.62059c1.11556,-0.23459 2.34457,-0.42759 3.41854,-0.54872c2.14794,-0.24226 4.25431,-0.37107 6.09216,-0.4696c3.67574,-0.19706 6.03928,0.0258 6.03928,0.0258c0,0 -2.38616,0.54104 -5.76312,0.97631z" fill="#687a27"></path><path d="M312.75019,179.67489c-0.14373,-0.31008 -0.37065,-0.39326 -0.44251,-0.54829c-0.18532,-0.19662 -0.29878,-0.23821 -0.48409,-0.43484c-0.18532,-0.19662 -0.37065,-0.39326 -0.59755,-0.47643c-0.07187,-0.15505 -0.18532,-0.19662 -0.29878,-0.23821c0,0 -0.11346,-0.04159 -0.22691,-0.08317c-0.11346,-0.04159 -0.22691,-0.08317 -0.22691,-0.08317c-0.11346,-0.04159 -0.11346,-0.04159 -0.11346,-0.04159c-0.11346,-0.04159 -0.19662,0.18532 -0.23821,0.29878c-0.04159,0.11346 -0.08317,0.22691 -0.08317,0.22691c0,0 -0.11346,-0.04159 -0.18532,-0.19662c-0.07187,-0.15505 -0.18532,-0.19662 -0.14373,-0.31008c0.04159,-0.11346 -0.03029,-0.2685 0.05289,-0.4954c0.08317,-0.22691 0.2798,-0.41223 0.43484,-0.48409c0.2685,-0.03029 0.42354,-0.10216 0.65044,-0.01899c0.38195,0.0113 0.7223,0.13606 1.02108,0.37427c0.29878,0.23821 0.59755,0.47643 0.74129,0.7865c0.14373,0.31008 0.28748,0.62016 0.31776,0.88865c0.03029,0.2685 -0.05289,0.4954 -0.09447,0.60885c-0.04159,0.11346 -0.08317,0.22691 -0.08317,0.22691z" fill="#687a27"></path><path d="M316.82857,195.5838c-0.66175,0.40092 -1.67515,1.05905 -2.95705,1.74745c-1.2819,0.6884 -2.87388,1.52055 -4.73435,2.38296c-1.86048,0.86242 -3.91756,1.91017 -6.38689,2.67811c-2.46932,0.76794 -5.12398,1.33928 -7.71805,2.44759c-1.24032,0.57494 -2.48062,1.1499 -3.80411,1.95176c-1.21003,0.84345 -2.42006,1.68689 -3.67168,2.64377c-2.38977,1.95537 -4.74927,4.17924 -7.03691,6.55815c-2.28762,2.37891 -4.57525,4.75781 -7.20324,7.01196c-2.62798,2.25415 -5.39971,4.19822 -8.2433,5.98726c-2.95705,1.74745 -6.01624,3.07137 -8.99228,4.16837c-6.06551,2.15243 -12.04422,2.66362 -17.16457,2.58856c-2.56018,-0.03754 -4.85185,-0.10534 -6.90533,-0.47194c-1.98161,-0.21155 -3.76658,-0.60842 -5.2112,-0.88055c-1.44463,-0.27211 -2.62074,-0.57451 -3.34306,-0.71058c-0.83576,-0.17765 -1.17613,-0.3024 -1.17613,-0.3024c0,0 0.4954,0.05289 1.21772,0.18895c0.83576,0.17765 1.94002,0.325 3.42622,0.48367c1.48621,0.15866 3.19931,0.4005 5.2225,0.49859c1.98161,0.21155 4.31487,0.16591 6.76158,0.16185c4.93502,-0.12156 10.77,-0.94283 16.56702,-3.06497c2.97604,-1.09701 5.80832,-2.5041 8.61032,-4.17968c2.802,-1.67558 5.46028,-3.66124 7.93322,-5.84352c2.47295,-2.18228 4.87403,-4.5196 7.16166,-6.89852c2.28762,-2.37891 4.80216,-4.67465 7.30539,-6.58844c2.54481,-2.02724 5.19178,-3.63096 8.01278,-4.6561c2.70754,-1.06672 5.47564,-1.59648 7.86179,-2.13751c2.31429,-0.69609 4.44324,-1.58879 6.3756,-2.29618c1.93233,-0.70739 3.48273,-1.42607 4.87808,-2.07288c1.24032,-0.57494 2.32559,-1.07802 2.98734,-1.47896c0.66175,-0.40092 1.01341,-0.65812 1.01341,-0.65812c0,0 -0.35167,0.25719 -0.7865,0.74129z" fill="#687a27"></path></g><g><path d="M281.27012,239.6745c3.0195,2.22012 5.82332,-0.95531 7.03793,-0.15413c1.97456,1.39862 -2.33542,2.77513 -2.33542,2.77513c3.63068,0.85615 7.38445,-1.57247 8.32064,-0.22165c1.64178,2.21295 -6.60419,2.33959 -6.60419,2.33959c2.19861,1.11363 10.3227,-0.03105 9.20904,2.16755c-1.03897,2.1036 -12.69157,1.08912 -12.69157,1.08912c0,0 6.43271,4.13494 3.84695,4.10028c-2.58574,-0.03466 -6.2021,-3.64624 -11.42736,-5.60229" fill="#a3b339"></path><path d="M273.42448,215.83037c-2.15262,4.30222 -2.95379,5.51681 -3.14498,9.67026c-0.19119,4.15346 9.62725,11.41127 13.30452,15.53186c3.67728,4.12059 -1.1967,7.97413 -6.95788,5.13564c-4.94686,-2.5057 -17.54163,-7.79611 -20.85864,-13.93907c-3.31702,-6.14296 -1.00727,-14.16427 5.33345,-20.86106c6.4154,-6.79177 14.47614,0.16014 12.32353,4.46236z" fill="#a3b339"></path><path d="M283.09292,249.86876c-1.1943,-0.6315 -3.10792,-1.52111 -5.28621,-2.46507c-0.54965,-0.27841 -1.09931,-0.55683 -1.72363,-0.74024c-0.62434,-0.18341 -1.26898,-0.5365 -1.89331,-0.71993c-1.26898,-0.5365 -2.63295,-1.1477 -3.99691,-1.75889c-1.2893,-0.70619 -2.74825,-1.39206 -4.13253,-2.17292c-1.38428,-0.78085 -2.76858,-1.56173 -4.17316,-2.51227c-1.4046,-0.95055 -2.63952,-1.9214 -3.89475,-3.06192c-1.16024,-1.06584 -2.3408,-2.30138 -3.12762,-3.84218c-0.21031,-0.31904 -0.25092,-0.65839 -0.46123,-0.97743c-0.04062,-0.33935 -0.17623,-0.75339 -0.31187,-1.16741c-0.17623,-0.75339 -0.3525,-1.50676 -0.43374,-2.18546c-0.2575,-1.43208 -0.08065,-2.83011 0.1165,-4.05846c0.48932,-2.38203 1.37893,-4.29565 2.0851,-5.58493c0.3531,-0.64464 0.72649,-1.11961 0.95055,-1.4046c0.22405,-0.28499 0.3734,-0.47498 0.3734,-0.47498c0,0 -0.14936,0.18999 -0.27841,0.54965c-0.22405,0.28499 -0.42778,0.73964 -0.68587,1.45895c-0.5365,1.26898 -1.16144,3.23697 -1.31141,5.57837c-0.12247,1.13336 -0.05497,2.41608 0.18222,3.67849c0.08125,0.6787 0.23718,1.2624 0.48811,1.9208c0.11531,0.24435 0.25092,0.65839 0.36623,0.90275c0.11531,0.24435 0.25092,0.65839 0.46123,0.97743c0.72589,1.0318 1.81146,2.19263 2.87671,3.18379c1.23491,0.97084 2.46984,1.94171 3.77944,2.81756c1.3096,0.87585 2.61921,1.75172 4.00349,2.53258c1.38428,0.78085 2.76858,1.56173 4.05785,2.26791c1.36397,0.61119 2.65325,1.31738 3.84755,1.94888c0.71933,0.2581 1.26898,0.5365 1.81863,0.81492c0.64464,0.3531 1.1943,0.6315 1.74395,0.90991c2.12393,1.20863 3.8135,2.38321 5.02811,3.18441c1.13993,0.89618 1.8049,1.41894 1.8049,1.41894c0,0 -0.64464,-0.3531 -2.27329,-1.01865z" fill="#687a27"></path><path d="M277.97939,236.62634c-1.04493,-0.82149 -2.27985,-1.79234 -3.53509,-2.93287c-1.25523,-1.14053 -2.4561,-2.54573 -3.5076,-4.14091c-0.4409,-0.80774 -0.88182,-1.6155 -1.17336,-2.61324c-0.06094,-0.50903 -0.19656,-0.92304 -0.18282,-1.52707l-0.00658,-0.77369l0.08842,-0.69902c0.0681,-0.86869 0.30591,-1.75769 0.564,-2.47703c0.16311,-0.79401 0.5162,-1.43867 0.86929,-2.0833c1.26299,-2.38859 2.47821,-3.73883 2.47821,-3.73883c0,0 -0.20373,0.45466 -0.46182,1.17398c-0.2581,0.71933 -0.64525,1.79831 -1.01208,3.04697c-0.18341,0.62434 -0.44152,1.34367 -0.52994,2.04267c-0.18341,0.62434 -0.25154,1.49303 -0.33995,2.19204l-0.01375,0.60403l0.08125,0.6787c0.11531,0.24435 0.15594,0.58371 0.29155,0.99773c0.25092,0.65839 0.69185,1.46614 1.11245,2.10421c0.86152,1.44581 1.96739,2.77635 3.05295,3.93718c1.18055,1.23553 2.17111,2.32168 3.14137,3.23817c1.77082,1.85328 3.04638,3.16348 3.04638,3.16348c0,0 -1.62865,-0.66555 -3.96286,-2.19323z" fill="#687a27"></path><path d="M286.39202,247.23642c1.18772,-0.14219 2.80979,-0.25032 4.3572,-0.26346c0.77369,-0.00658 1.54739,-0.01314 2.32108,-0.01972c0.35967,0.12904 0.69902,0.08842 1.03836,0.0478c0.33935,-0.04062 0.60403,0.01375 0.94337,-0.02689c0.26468,0.05436 0.60403,0.01375 0.77369,-0.00658c0.33935,-0.04062 0.50903,-0.06094 0.6787,-0.08125c0.33935,-0.04062 0.58371,-0.15594 0.58371,-0.15594c0,0 -0.14936,0.18999 -0.3734,0.47498c-0.14936,0.18999 -0.29873,0.37998 -0.54309,0.49528c-0.24435,0.11531 -0.48872,0.23061 -0.80774,0.4409c-0.56339,0.32559 -1.31677,0.50187 -2.07016,0.6781c-0.84837,0.10156 -1.69676,0.20313 -2.47044,0.2097c-1.71706,0.03345 -3.28476,-0.12307 -4.53343,-0.48991c-1.24867,-0.36683 -1.9883,-0.79461 -1.9883,-0.79461c0,0 0.82807,-0.27123 2.09047,-0.50842z" fill="#687a27"></path><path d="M294.38827,242.14855c0.26468,0.05436 0.28499,0.22405 0.23061,0.48872c-0.05436,0.26468 -0.10874,0.52934 -0.2581,0.71933c-0.14936,0.18999 -0.29873,0.37998 -0.54309,0.49528c-0.14936,0.18999 -0.39372,0.3053 -0.63808,0.42059c-0.48872,0.23061 -0.97743,0.46123 -1.48646,0.52217c-0.50903,0.06094 -1.01804,0.12188 -1.4524,0.08782c-0.52934,-0.10874 -0.96368,-0.14279 -1.32334,-0.27184c-0.71933,-0.2581 -1.26898,-0.5365 -1.26898,-0.5365c0,0 0.56339,-0.32559 1.22178,-0.57654c0.41404,-0.13561 0.82807,-0.27123 1.24209,-0.40687c0.26468,0.05436 0.50903,-0.06094 0.6787,-0.08125c0.16969,-0.02031 0.50903,-0.06094 0.6787,-0.08125c0.50903,-0.06094 1.01804,-0.12188 1.3574,-0.1625c0.16969,-0.02031 0.33935,-0.04062 0.50903,-0.06094c0.16969,-0.02031 0.33935,-0.04062 0.50903,-0.06094c0.095,0.07469 0.26468,0.05436 0.33935,-0.04062c0,0 0.07469,-0.095 0.14936,-0.18999c0.07469,-0.095 0.05436,-0.26468 0.05436,-0.26468c0,0 0.095,0.07469 0,0z" fill="#687a27"></path><path d="M288.66772,239.64944c0.16969,-0.02031 0.43435,0.03405 0.64464,0.3531c0.18999,0.14936 0.3053,0.39372 0.25092,0.65839c0.11531,0.24435 -0.03405,0.43435 -0.08842,0.69902c-0.07469,0.095 -0.29873,0.37998 -0.3734,0.47498c-0.14936,0.18999 -0.39372,0.3053 -0.46839,0.40029c-0.54309,0.49528 -1.22178,0.57654 -1.75112,0.4678c-0.43435,-0.03405 -0.88901,-0.23778 -0.88901,-0.23778c0,0 0.12904,-0.35967 0.42778,-0.73964c0.29873,-0.37998 0.76713,-0.78026 1.08617,-0.99057l0.24435,-0.11531c0.16969,-0.02031 0.16969,-0.02031 0.24435,-0.11531c0.07469,-0.095 0.16969,-0.02031 0.16969,-0.02031c0.095,0.07469 0.095,0.07469 0.16969,-0.02031c0.14936,-0.18999 0.12904,-0.35967 0.10874,-0.52934c-0.02031,-0.16969 -0.04062,-0.33935 -0.04062,-0.33935c0,0 0.07469,-0.095 0.26468,0.05436z" fill="#687a27"></path></g><g><g fill="#a3b339"><path d="M178.05964,241.19005c-5.13517,6.16019 -15.63777,4.49693 -11.85216,-3.95679c3.78562,-8.45372 15.6323,-19.91276 21.74768,-12.94959c5.6947,6.52953 -4.76036,10.74616 -9.89553,16.90635z"></path><path d="M178.04074,241.30941c-2.94101,2.34808 -6.2282,6.10943 -4.20629,8.02008c1.92146,1.7724 5.26106,6.95022 2.66023,7.15004c-2.60081,0.19982 -6.40376,-8.23227 -6.40376,-8.23227c0,0 3.16139,10.1656 0.5606,10.36542c-2.60081,0.19982 -3.68848,-11.47248 -3.68848,-11.47248c0,0 -0.28078,9.49813 -2.12068,7.98334c-1.97815,-1.41434 0.83378,-9.89992 -0.6859,-11.11932c-1.53856,-1.10004 -4.79602,6.33624 -6.01326,3.2073c-1.21725,-3.12894 7.53829,-13.60945 9.7751,-14.60096"></path></g><path d="M217.9703,224.02111c-1.52395,8.07784 -16.72212,12.88907 -34.73662,8.44574c-14.8488,-3.57497 -9.09098,-11.34933 4.62318,-12.97003c13.71417,-1.6207 31.39167,-2.00203 30.11343,4.52429z" fill="#a3b339"></path><path d="M231.87881,209.5854c-4.35965,13.62347 -23.86671,30.96513 -32.51217,20.6651c-8.22476,-9.86639 3.36801,-42.89765 11.36647,-46.27993c7.99843,-3.38226 27.80801,4.40388 21.1457,25.61483z" fill="#a3b339"></path><path d="M234.30572,205.0761c-0.17605,0.33914 -0.28947,1.05523 -0.66046,1.85286c-0.62266,1.61416 -1.71675,3.88772 -3.10625,6.48151c-1.50885,2.5749 -3.31309,5.47004 -5.61364,8.40891c-1.10004,1.53856 -2.43879,3.03934 -3.75863,4.42074c-1.43919,1.36251 -2.87838,2.72503 -4.53735,3.9304c-1.65899,1.20536 -3.41841,2.27247 -5.35983,2.94374c-0.51519,0.1631 -1.01149,0.20685 -1.52667,0.36992l-0.75389,0.1253l-0.75389,0.1253c-0.89214,0.22575 -1.88472,0.31322 -2.75796,0.41961c-1.86582,0.19388 -3.61228,0.40667 -5.33986,0.50009c-1.72757,0.09344 -3.31689,0.08641 -4.78687,0.0983c-1.46998,0.01189 -2.8206,0.04268 -4.01409,-0.14633c-1.19348,-0.18901 -2.26762,-0.35911 -3.10304,-0.49142c-1.65196,-0.38396 -2.55004,-0.89321 -2.55004,-0.89321c0,0 0.21979,0.15714 0.69719,0.23276c0.33914,0.17605 1.05523,0.28947 1.90956,0.3024c0.85433,0.01297 1.82801,0.04481 3.0593,-0.00487c1.11193,-0.06859 2.46255,-0.09939 3.95143,-0.23062c1.48888,-0.13124 3.0971,-0.24356 4.72423,-0.47525c1.74648,-0.21279 3.51184,-0.54491 5.25831,-0.75768c0.87324,-0.10639 1.88472,-0.31322 2.75796,-0.41961l0.75389,-0.1253l0.63453,-0.1442c0.39585,-0.18201 0.89214,-0.22575 1.28798,-0.40772c1.80317,-0.57083 3.42436,-1.5375 4.94508,-2.64241c1.52073,-1.10492 3.06036,-2.32918 4.3802,-3.7106c1.42029,-1.24317 2.62078,-2.64348 3.82127,-4.0438c2.28164,-2.81954 4.30567,-5.55751 5.91497,-7.99416c1.60929,-2.43664 2.92319,-4.55304 3.64628,-6.02896c0.49035,-0.77872 0.70421,-1.35657 0.89915,-1.81506c0.19496,-0.45849 0.11341,-0.71609 0.11341,-0.71609c0,0 0.08155,0.2576 -0.1323,0.83544z" fill="#687a27"></path><path d="M189.66598,219.66099c-2.00407,0.29433 -4.28464,0.78955 -6.60301,1.52347c-2.43772,0.71501 -4.79388,1.68764 -6.76716,3.33259c-0.5341,0.28244 -0.84839,0.72203 -1.30094,1.26207c-0.45255,0.54003 -0.88618,0.96073 -1.33875,1.50075c-0.76685,0.97962 -1.65303,1.94036 -2.53923,2.90109c-1.65303,1.94036 -3.38762,3.62311 -4.82681,4.98561c-1.43919,1.36251 -2.72122,2.50523 -3.68896,3.20835c-0.41474,0.30135 -0.82949,0.60268 -1.106,0.80357c-0.13826,0.10045 -0.15714,0.21979 -0.2765,0.20088c-0.10045,-0.13826 0.01891,-0.11935 0.01891,-0.11935l-0.01891,0.11935c0.11935,0.01891 0.13826,-0.10045 0.2765,-0.20088c0.15714,-0.21979 0.47145,-0.65939 0.78574,-1.09898c0.74794,-0.86027 1.8291,-2.27949 3.04849,-3.79915c1.23829,-1.63901 2.73419,-3.35956 4.38721,-5.29992c0.76685,-0.97962 1.65303,-1.94036 2.53923,-2.90109c0.45255,-0.54003 0.88618,-0.96073 1.33875,-1.50075c0.45255,-0.54003 1.02444,-1.06118 1.57744,-1.46295c2.35022,-1.7076 5.08334,-2.74286 7.50215,-3.33853c2.53817,-0.57676 4.90028,-0.81439 6.88543,-0.98937c1.98517,-0.17498 3.69384,-0.14906 4.90621,-0.07941c1.11193,-0.06859 1.82801,0.04481 1.82801,0.04481c0,0 -2.72016,0.18092 -6.62784,0.90783z" fill="#687a27"></path><path d="M164.31956,244.51943c0.20088,0.2765 0.36399,0.79169 0.52708,1.30688c0.1631,0.51519 0.18794,1.13083 0.19388,1.86582c0.02484,0.61564 0.03079,1.35063 -0.08262,2.06671c-0.08855,1.33172 -0.31537,2.76389 -0.46657,3.71868c0.02484,0.61564 -0.03186,0.97368 0.04969,1.23129c0.10045,0.13826 0.08155,0.2576 0.20088,0.2765c0.10045,0.13826 0.10045,0.13826 0.10045,0.13826c0,0 -0.2387,-0.0378 -0.57784,-0.21385c-0.21979,-0.15714 -0.62158,-0.71013 -0.78469,-1.22534c-0.42663,-1.16863 -0.43851,-2.6386 -0.33106,-4.08968c0.11341,-0.71609 0.22681,-1.43218 0.32131,-2.02891c0.11341,-0.71609 0.32725,-1.29393 0.40286,-1.77131c0.0945,-0.59674 0.15121,-0.95478 0.20791,-1.31282c0.0378,-0.2387 0.07561,-0.4774 0.07561,-0.4774c0,0 0.21979,0.15714 0.1631,0.51519z" fill="#687a27"></path><path d="M167.63431,249.08163c0.42663,1.16863 0.81546,2.57596 1.06605,4.08374c0.24464,0.77279 0.36992,1.52667 0.51412,2.16121c0.08155,0.2576 0.1442,0.63453 0.22575,0.89214c0.08155,0.2576 0.1631,0.51519 0.24464,0.77279c0.08155,0.2576 0.1631,0.51519 0.26355,0.65344c0.08155,0.2576 0.18201,0.39585 0.28244,0.5341c0.20088,0.2765 0.30135,0.41474 0.30135,0.41474c0,0 -0.2387,-0.0378 -0.59674,-0.0945c-0.11935,-0.01891 -0.33914,-0.17605 -0.55893,-0.33321c-0.21979,-0.15714 -0.4396,-0.31431 -0.64048,-0.59081c-0.20088,-0.2765 -0.4018,-0.55299 -0.60268,-0.82949c-0.20088,-0.2765 -0.4018,-0.55299 -0.58377,-0.94883c-0.24464,-0.77279 -0.48927,-1.54558 -0.73392,-2.31837c-0.24464,-0.77279 -0.35102,-1.64602 -0.35697,-2.38101c-0.00594,-0.73498 -0.01189,-1.46998 0.08262,-2.06671c0.18901,-1.19348 0.44066,-2.01001 0.44066,-2.01001c0,0 0.36399,0.79169 0.65237,2.06077z" fill="#687a27"></path><path d="M175.72189,256.72417c-0.35805,-0.05671 -0.83544,-0.1323 -1.27504,-0.44661c-0.4396,-0.31431 -0.97962,-0.76685 -1.40031,-1.20049c-0.4018,-0.55299 -0.80357,-1.106 -1.20536,-1.65899c-0.80357,-1.106 -1.33065,-2.41288 -1.5375,-3.42436c-0.20685,-1.01149 -0.21279,-1.74648 -0.21279,-1.74648c0,0 0.67828,0.35211 1.28097,1.18158c0.62158,0.71013 1.42517,1.81612 2.10938,2.90322c0.28244,0.5341 0.68422,1.08709 0.96667,1.62119c0.4207,0.43365 0.58377,0.94883 0.88512,1.36359c0.30135,0.41474 0.48334,0.81059 0.70313,0.96774c0.08155,0.2576 0.32025,0.2954 0.32025,0.2954c0.11935,0.01891 -0.13826,0.10045 -0.63453,0.1442z" fill="#687a27"></path><path d="M184.45688,236.33079c-0.59081,0.64048 -1.33875,1.50075 -2.20603,2.34214c-0.43365,0.4207 -0.86729,0.84137 -1.30094,1.26207c-0.43365,0.4207 -0.86729,0.84137 -1.30094,1.26207c-0.43365,0.4207 -0.86729,0.84137 -1.30094,1.26207c-0.43365,0.4207 -0.86729,0.84137 -1.30094,1.26207c-0.86729,0.84137 -1.59635,1.58231 -2.30647,2.20389c-0.59081,0.64048 -1.16269,1.16162 -1.35763,1.6201c-0.13826,0.10045 -0.15714,0.21979 -0.17605,0.33914c-0.01891,0.11935 -0.01891,0.11935 -0.0378,0.2387c0.11935,0.01891 0.10045,0.13826 0.10045,0.13826c0,0 -0.11935,-0.01891 -0.21979,-0.15714c-0.10045,-0.13826 -0.18201,-0.39585 -0.1253,-0.75389c-0.02484,-0.61564 0.32725,-1.29393 0.83651,-2.19201c0.49035,-0.77872 1.11894,-1.65791 1.88579,-2.63753c0.76685,-0.97962 1.63414,-1.82101 2.52034,-2.78173c1.00553,-0.94183 1.87283,-1.78321 2.84057,-2.48632c0.96774,-0.70313 1.81612,-1.42517 2.62673,-1.9085c1.52073,-1.10492 2.70828,-1.6509 2.70828,-1.6509c0,0 -0.6664,1.11788 -1.88579,2.63753z" fill="#687a27"></path><path d="M208.6405,185.59661c-0.31431,0.4396 -0.6664,1.11788 -1.13784,1.77725c-0.35211,0.67828 -0.84244,1.45701 -1.3517,2.35509c-0.50926,0.89807 -1.0185,1.79616 -1.54665,2.81358c-0.52816,1.01742 -1.05629,2.03486 -1.60336,3.17163c-0.54706,1.13678 -0.99365,2.41179 -1.5407,3.54858c-0.54706,1.13678 -0.99365,2.41179 -1.44025,3.68682c-0.4277,1.15567 -0.8743,2.4307 -1.20155,3.72462c-0.20791,1.31282 -0.65452,2.58784 -0.84353,3.78133c-0.20791,1.31282 -0.51626,2.4874 -0.56702,3.58043c-0.18901,1.19348 -0.23977,2.28651 -0.27162,3.2602c-0.15121,0.95478 -0.04481,1.82801 -0.05776,2.68235c0.06264,0.37694 0.1253,0.75389 0.06859,1.11193c0.06264,0.37694 0.00594,0.73498 0.0875,0.99258c0.16904,1.25017 0.19388,1.86582 0.19388,1.86582c0,0 -0.26355,-0.65344 -0.57083,-1.80317c-0.08155,-0.2576 -0.1631,-0.51519 -0.22575,-0.89214c-0.06264,-0.37694 -0.1253,-0.75389 -0.18794,-1.13083c-0.1253,-0.75389 -0.33212,-1.76537 -0.30026,-2.73905c-0.0875,-0.99258 -0.15608,-2.10452 -0.08641,-3.31689c-0.02484,-0.61564 -0.04969,-1.23129 0.04481,-1.82801c-0.02484,-0.61564 0.08855,-1.33172 0.18306,-1.92847c-0.02484,-0.61564 0.20791,-1.31282 0.3024,-1.90956c0.11341,-0.71609 0.20791,-1.31282 0.44066,-2.01001c0.46552,-1.39438 0.79276,-2.68829 1.23936,-3.96333c0.32725,-1.29393 0.89321,-2.55004 1.45915,-3.80617c0.56596,-1.25613 1.113,-2.3929 1.7794,-3.51077c0.54706,-1.13678 1.19455,-2.13531 1.84205,-3.13383c0.6475,-0.99853 1.2761,-1.87772 1.90469,-2.75688c1.23829,-1.63901 2.41989,-2.91998 3.16782,-3.78026c0.86729,-0.84137 1.31985,-1.3814 1.31985,-1.3814c0,0 -0.45255,0.54003 -1.10004,1.53856z" fill="#687a27"></path></g><g><g><path d="M281.49991,164.47164c0.94951,-5.45697 6.143,-9.11099 11.59998,-8.16148c5.45697,0.94951 9.11099,6.143 8.16148,11.59998c-0.94951,5.45697 -6.143,9.11099 -11.59998,8.16148c-5.45697,-0.94951 -9.11099,-6.143 -8.16148,-11.59998z" fill="#a3b339"></path><path d="M283.88081,164.8859c0.72072,-4.14205 4.66276,-6.91558 8.8048,-6.19486c4.14205,0.72072 6.91558,4.66276 6.19486,8.8048c-0.72072,4.14205 -4.66276,6.91558 -8.8048,6.19486c-4.14205,-0.72072 -6.91558,-4.66276 -6.19486,-8.8048z" fill="#e7ffbd"></path><path d="M296.94533,167.31826c-0.59713,3.38464 -11.10268,1.85046 -11.87831,-1.65125c-0.66217,-3.46013 12.74755,-3.178 11.87831,1.65125z" fill="#2b3021"></path><path d="M301.07083,164.84082c-0.20431,-0.84706 -0.6658,-2.04579 -1.3542,-3.32769c-0.6884,-1.2819 -1.8722,-2.61668 -3.33581,-3.53924c-0.29878,-0.23821 -0.75259,-0.40455 -1.20642,-0.57089c-0.38195,-0.0113 -0.79418,-0.29109 -1.28958,-0.34398c-0.4954,-0.05289 -0.83576,-0.17765 -1.33117,-0.23053l-0.76389,-0.0226l-0.63914,-0.36297c-1.03239,0.00769 -1.95132,0.05694 -2.83997,0.37471c-0.84706,0.20431 -1.66385,0.6771 -2.48062,1.1499c-0.70334,0.51438 -1.40665,1.02877 -1.92467,1.73977c-0.63146,0.66941 -0.99443,1.30855 -1.35739,1.94771c-0.24951,0.68072 -0.61248,1.31986 -0.82041,1.88713c-0.32138,0.52568 -0.37427,1.02108 -0.5406,1.47489c-0.17765,0.83576 -0.34398,1.28958 -0.34398,1.28958c0,0 0.05289,-0.4954 0.11707,-1.37275c0.05289,-0.4954 0.10577,-0.9908 0.31369,-1.55807c0.20792,-0.56727 0.45744,-1.24799 0.70695,-1.92872c0.36297,-0.63914 0.76752,-1.39173 1.28553,-2.10274c0.518,-0.711 1.26292,-1.33884 2.00783,-1.96667c0.81677,-0.4728 1.67515,-1.05905 2.67726,-1.33522c1.0021,-0.27617 2.07608,-0.39731 3.10846,-0.40499l0.76389,0.0226l0.7223,0.13606c0.4954,0.05289 1.06267,0.26081 1.55807,0.31369c0.56727,0.20792 1.02108,0.37427 1.47489,0.5406c0.41223,0.2798 0.86605,0.44614 1.27828,0.72594c0.93791,0.60118 1.60734,1.23263 2.12172,1.93597c0.51438,0.70334 0.98718,1.52011 1.27466,2.14027c0.64682,1.39535 0.83981,2.62437 1.04412,3.47143c0.20431,0.84706 0.15141,1.34246 0.15141,1.34246c0,0 -0.06057,-0.53699 -0.37832,-1.42564z" fill="#687a27"></path></g><path d="M298.84376,167.75672c-0.01899,-0.65044 -0.14011,-1.72441 -0.33312,-2.95342c-0.23459,-1.11556 -0.76794,-2.46932 -1.76643,-3.60749c-0.55597,-0.58988 -1.1951,-0.95285 -1.83425,-1.3158c-0.63914,-0.36297 -1.47489,-0.5406 -2.19721,-0.67667c-0.83576,-0.17765 -1.59965,-0.20025 -2.40514,-0.1094c-0.80548,0.09085 -1.65255,0.29515 -2.2727,0.58263c-1.35377,0.53337 -2.37848,1.57344 -3.02124,2.6248c-0.64276,1.05137 -1.01703,2.07245 -1.15309,2.79477c-0.13606,0.7223 -0.14736,1.10426 -0.14736,1.10426c0,0 -0.10216,-0.42354 -0.07955,-1.18743c0.0226,-0.76389 0.28342,-1.82656 0.85431,-3.03298c0.57089,-1.20642 1.56531,-2.51496 3.11571,-3.23365c0.77519,-0.35934 1.5504,-0.71869 2.46932,-0.76794c0.91894,-0.04927 1.83786,-0.09853 2.67362,0.07912c0.83576,0.17765 1.78497,0.39687 2.53757,0.80142c0.86605,0.44614 1.57705,0.96414 2.09143,1.66747c1.1838,1.33479 1.47896,2.98734 1.67196,4.21634c0.193,1.22901 0.04564,2.33327 -0.09042,3.05558c-0.13606,0.7223 -0.3024,1.17613 -0.3024,1.17613c0,0 0.12476,-0.34037 0.18895,-1.21772z" fill="#687a27"></path></g><g fill="#969330"><path d="M218.75777,181.90145c6.01263,-1.65703 6.27068,6.41674 1.77454,8.50092c-11.35945,5.35986 -7.78717,-6.8439 -1.77454,-8.50092z"></path><path d="M210.75673,190.03666c3.06731,3.56953 0.24313,9.87005 -2.5367,6.92068c-2.82142,-2.83591 -0.15996,-10.09695 2.5367,-6.92068z"></path><path d="M222.8434,194.98168c5.13208,3.55417 1.64253,11.66995 -3.18308,9.38639c-4.98066,-2.21171 -2.1759,-13.02373 3.18308,-9.38639z"></path></g><g><path d="M246.5167,230.81386c-37.16679,-7.44567 -40.47257,-46.88025 -40.47257,-46.88025c23.92082,-16.4566 52.68072,-11.70629 52.68072,-11.70629l3.34987,-5.97914c1.38302,24.31578 24.10045,34.3157 24.10045,34.3157c-0.55148,5.7179 3.99073,9.82804 3.99073,9.82804z" fill="#6d4b9b"></path><path d="M223.45632,197.52288c-3.29016,-1.20598 -4.89749,-2.43861 -4.89749,-2.43861c-0.45744,1.24799 -4.05726,4.04681 -4.05726,4.04681c-0.64682,-1.39535 0.30197,-5.03718 0.30197,-5.03718c-1.92103,0.32543 -6.18707,-2.7826 -6.18707,-2.7826c1.63356,-0.9456 6.3114,-1.41882 6.3114,-1.41882c-0.50308,-1.08527 1.07716,-5.39651 1.07716,-5.39651c0.88504,1.09657 3.11657,4.48846 3.11657,4.48846c1.09657,-0.88504 5.22612,-0.91574 5.22612,-0.91574c-0.63508,2.08375 -2.9756,4.95806 -2.9756,4.95806c0.99848,1.13816 2.0426,4.60959 2.08418,4.49613z" fill="#e0c448"></path><path d="M250.14188,218.1147c-3.35797,1.08571 -5.35088,1.25611 -5.35088,1.25611c0.41991,1.31218 -0.55148,5.7179 -0.55148,5.7179c-1.43331,-0.65406 -3.01443,-4.06492 -3.01443,-4.06492c-1.19104,1.49388 -6.47773,1.87264 -6.47773,1.87264c0.55191,-1.85685 3.82266,-5.16237 3.82266,-5.16237c-1.09296,-0.5293 -2.72333,-4.8591 -2.72333,-4.8591c1.28958,0.34398 5.27176,1.41751 5.27176,1.41751c0.38557,-1.40304 3.44839,-4.14128 3.44839,-4.14128c0.97587,1.90205 1.0179,5.64966 1.0179,5.64966c1.55807,0.31369 4.55714,2.31385 4.55714,2.31385z" fill="#e0c448"></path><path d="M248.94779,192.58121c-3.34306,-0.71058 -5.18859,-1.64443 -5.18859,-1.64443c-0.34398,1.28958 -3.50128,4.63668 -3.50128,4.63668c-0.91531,-1.36507 -0.46193,-5.05978 -0.46193,-5.05978c-1.89075,0.59393 -6.56134,-1.76152 -6.56134,-1.76152c1.48982,-1.25567 6.03523,-2.42093 6.03523,-2.42093c-0.65812,-1.01341 0.24141,-5.57417 0.24141,-5.57417c1.04007,1.02471 3.8199,3.97408 3.8199,3.97408c1.02471,-1.04007 5.02182,-1.76281 5.02182,-1.76281c-0.18127,2.2501 -2.10955,5.4042 -2.10955,5.4042c1.15353,1.0663 2.66276,4.32212 2.70435,4.20867z" fill="#e0c448"></path><path d="M267.24139,208.68139c-0.97225,-3.31639 -0.98761,-5.38116 -0.98761,-5.38116c-1.31218,0.41991 -5.74818,-0.81997 -5.74818,-0.81997c0.76752,-1.39173 4.25025,-2.81779 4.25025,-2.81779c-1.33884,-1.26292 -1.44911,-6.57989 -1.44911,-6.57989c1.81526,0.66536 4.92416,4.12144 4.92416,4.12144c0.5293,-1.09296 5.00284,-2.41325 5.00284,-2.41325c-0.34398,1.28958 -1.64443,5.18859 -1.64443,5.18859c1.40304,0.38557 3.94466,3.63371 3.94466,3.63371c-1.97392,0.82084 -5.75181,0.59436 -5.75181,0.59436c-0.42715,1.51648 -2.54076,4.47397 -2.54076,4.47397z" fill="#e0c448"></path><path d="M256.41824,173.95579c-1.97392,0.82084 -5.75181,0.59436 -5.75181,0.59436c-0.42715,1.51648 -2.54076,4.47397 -2.54076,4.47397c-0.97225,-3.31639 -0.98761,-5.38116 -0.98761,-5.38116c-1.27059,0.30645 -5.74818,-0.81997 -5.74818,-0.81997c0.12476,-0.34037 0.47643,-0.59755 0.86967,-0.9682c5.0182,-0.34847 9.21962,-0.22415 12.2336,-0.02028c1.04007,1.02471 1.92508,2.12129 1.92508,2.12129z" fill="#e0c448"></path><path d="M260.98824,223.63469c-1.45229,-1.3045 -1.44911,-6.57989 -1.44911,-6.57989c1.77367,0.77882 4.92416,4.12144 4.92416,4.12144c0.5293,-1.09296 5.00284,-2.41325 5.00284,-2.41325c-0.12476,0.34037 -0.21922,0.94921 -0.46874,1.62994l-11.93803,5.53388c1.22133,-1.22538 3.92887,-2.29211 3.92887,-2.29211z" fill="#e0c448"></path><path d="M287.9158,210.21063c-1.44463,-0.27211 -3.61154,-0.6803 -5.99408,-1.55358c-1.24799,-0.45744 -2.60943,-0.95646 -3.9293,-1.56895c-1.31986,-0.61248 -2.75318,-1.26654 -4.10331,-2.1475c-1.35014,-0.88097 -2.65871,-1.87539 -4.08071,-2.91141c-1.38043,-1.14946 -2.64741,-2.25735 -3.8312,-3.59213c-1.22538,-1.22133 -2.21257,-2.74144 -3.24133,-4.14809c-0.98718,-1.52011 -1.70586,-3.0705 -2.31109,-4.5793c-0.60523,-1.50881 -1.05542,-3.08948 -1.43374,-4.51511c-0.13244,-0.69203 -0.26487,-1.38405 -0.39731,-2.07608c-0.13244,-0.69203 -0.26487,-1.38405 -0.28385,-2.03449c-0.15141,-1.34246 -0.23096,-2.5299 -0.12519,-3.52069c0.14736,-1.10426 0.0981,-2.02319 0.23416,-2.74549c0.15866,-1.48621 0.33631,-2.32196 0.33631,-2.32196c0,0 0.09085,0.80548 0.04564,2.33327c-0.0226,0.76389 0.1817,1.61096 0.18937,2.64335c0.06057,0.53699 0.12114,1.07397 0.1817,1.61096c0.06057,0.53699 0.12114,1.07397 0.25356,1.766c0.30645,1.27059 0.57133,2.65466 0.99123,3.96684c0.41991,1.31218 0.91169,2.7794 1.5585,4.17476c0.64682,1.39535 1.40709,2.83229 2.32239,4.19737c0.9569,1.25162 1.98566,2.65827 3.0976,3.83801c1.07036,1.2932 2.22386,2.3595 3.49083,3.46738c1.30855,0.99443 2.50366,1.94727 3.8538,2.82824c2.58684,1.72036 5.18497,3.05877 7.48433,4.15897c2.34094,0.98674 4.38312,1.73528 5.74457,2.23431c1.36145,0.49903 2.19721,0.67667 2.19721,0.67667c0,0 -0.7223,-0.13606 -2.2501,-0.18127z" fill="#4a3369"></path><path d="M248.35939,172.41756c-1.14584,-0.0339 -2.48831,0.11751 -3.94422,0.22734c-1.34246,0.15141 -2.91184,0.21966 -4.40934,0.44294c-1.49751,0.22328 -2.995,0.44657 -4.64755,0.74173c-1.61096,0.1817 -3.30508,0.59031 -4.84418,0.92704c-1.65255,0.29515 -3.23322,0.74534 -4.8139,1.19553c-1.58067,0.45019 -3.04789,0.94197 -4.51511,1.43374c-1.46722,0.49178 -2.86258,1.13859 -4.17476,1.5585c-1.31218,0.41991 -2.5525,0.99486 -3.63777,1.49793c-1.12686,0.61653 -2.17054,1.00616 -3.10079,1.43737c-0.93023,0.43121 -1.74702,0.90401 -2.36717,1.19148c-1.2819,0.6884 -2.05709,1.04775 -2.05709,1.04775c0,0 0.70334,-0.51438 1.91337,-1.35782c0.66175,-0.40092 1.36507,-0.91531 2.22343,-1.50156c0.85836,-0.58625 1.83019,-1.13091 2.95705,-1.74745c1.12686,-0.61653 2.2953,-1.34652 3.64907,-1.87988c1.24032,-0.57494 2.67726,-1.33522 4.14448,-1.827c0.7336,-0.2459 1.50881,-0.60523 2.24241,-0.85111c0.77519,-0.35934 1.50881,-0.60523 2.35587,-0.80953c1.58067,-0.45019 3.20294,-1.01384 4.85548,-1.30899c1.65255,-0.29515 3.34667,-0.70375 4.95763,-0.88545c1.65255,-0.29515 3.22191,-0.36341 4.83288,-0.54509c1.61096,-0.1817 3.13875,-0.1365 4.59466,-0.24632c1.41434,0.00362 2.82867,0.00725 4.08796,0.08273c5.07877,0.18852 8.33865,1.126 8.33865,1.126c0,0 -3.35436,-0.32863 -8.64105,0.05013z" fill="#4a3369"></path><path d="M243.88466,230.62129c-1.78497,-0.39687 -4.29227,-0.92981 -7.08703,-2.08289c-1.47489,-0.5406 -3.02167,-1.23627 -4.52685,-2.04536c-1.50518,-0.80911 -3.19569,-1.81482 -4.73115,-2.89242c-1.64892,-1.11919 -3.1428,-2.31023 -4.70855,-3.65631c-1.56575,-1.34609 -2.97646,-2.76404 -4.34558,-4.29545c-1.36913,-1.53141 -2.58321,-3.1347 -3.75571,-4.85143c-1.1725,-1.71673 -2.11809,-3.35031 -3.02209,-5.0973c-0.90401,-1.74702 -1.69456,-3.45244 -2.2582,-5.07471c-0.56364,-1.62226 -1.1273,-3.24452 -1.50562,-4.67016c-0.33673,-1.5391 -0.75664,-2.85128 -0.94965,-4.08029c-0.193,-1.22901 -0.46918,-2.23111 -0.51843,-3.15005c-0.25356,-1.766 -0.41629,-2.72652 -0.41629,-2.72652c0,0 0.27617,1.0021 0.68478,2.69623c0.20431,0.84706 0.59393,1.89075 0.94197,3.04789c0.34803,1.15714 0.80953,2.35587 1.30131,3.8231c0.28748,0.62016 0.64682,1.39535 0.8927,2.12896c0.2459,0.7336 0.60523,1.50881 0.96457,2.284c0.60523,1.50881 1.55081,3.14237 2.38296,4.73435c0.4728,0.81677 0.9456,1.63356 1.41839,2.45035c0.51438,0.70334 0.98718,1.52011 1.57344,2.37848c1.1725,1.71673 2.42817,3.20656 3.68384,4.69639c1.25567,1.48982 2.66637,2.90778 4.11869,4.21228c1.49388,1.19104 2.94618,2.49556 4.48164,3.57314c3.02934,2.26865 6.03972,3.88685 8.75131,5.26685c1.43331,0.65406 2.63972,1.22495 3.77426,1.64081c1.13454,0.41586 2.15563,0.79012 2.9498,1.08122c1.70181,0.62378 2.65102,0.84301 2.65102,0.84301c0,0 -0.9908,-0.10577 -2.74549,-0.23416z" fill="#4a3369"></path><path d="M282.4329,214.63576c-1.78861,1.01746 -3.8457,2.06521 -6.05783,3.18483c-2.21213,1.11961 -4.65117,2.15606 -7.01835,3.34754c-1.12686,0.61653 -2.32559,1.07802 -3.5659,1.65298c-1.24032,0.57494 -2.43905,1.03644 -3.52432,1.53952c-2.284,0.96457 -4.52642,1.8157 -6.34531,2.56466c-3.75122,1.45634 -6.26214,2.33776 -6.26214,2.33776c0,0 2.2953,-1.34652 5.83093,-3.26799c1.78861,-1.01746 3.8457,-2.06521 6.05783,-3.18483c1.08527,-0.50308 2.21213,-1.11961 3.45244,-1.69456c1.19873,-0.46149 2.32559,-1.07802 3.5659,-1.65298c2.32559,-1.07802 4.80621,-2.22792 7.09021,-3.19249c2.284,-0.96457 4.52642,-1.8157 6.34531,-2.56466c3.75122,-1.45634 6.26214,-2.33776 6.26214,-2.33776c0,0 -2.18185,1.38811 -5.83093,3.26799z" fill="#4a3369"></path><path d="M285.26591,215.46692c-1.15679,-0.66567 -1.04227,-3.03395 0.2558,-5.2897c1.29806,-2.25574 3.28811,-3.54475 4.44491,-2.87907c1.15679,0.66567 1.04227,3.03395 -0.2558,5.2897c-1.29806,2.25574 -3.28811,3.54475 -4.44491,2.87907z" fill="#bdabd6"></path></g></g></g></svg>