<svg version="1.1" xmlns="http://www.w3.org/2000/svg" xmlns:xlink="http://www.w3.org/1999/xlink" width="113.33857" height="129.55804" viewBox="0,0,113.33857,129.55804"><g transform="translate(-183.33071,-115.33317)"><g data-paper-data="{&quot;isPaintingLayer&quot;:true}" fill-rule="evenodd" stroke-miterlimit="10" stroke-dasharray="" stroke-dashoffset="0" style="mix-blend-mode: normal"><g data-paper-data="{&quot;index&quot;:null}"><path d="M217.62849,203.97787c0.74174,0.98901 4.07967,2.47253 -0.24724,5.1923c-4.45054,2.59615 -15.70052,6.1813 -26.70326,-3.58516c-11.86812,-10.63184 -5.56318,-25.09611 -0.12363,-25.59061c5.31592,-0.4945 3.21427,8.15932 7.04669,17.80216c5.43955,13.96975 19.28568,5.1923 20.02744,6.1813z" fill="#ffab19" stroke="#001026" stroke-width="1.2" stroke-linecap="round" stroke-linejoin="round"></path><path d="M194.0159,186.42295c0.61813,5.43955 1.8544,9.14833 1.8544,9.14833c0,0 -1.97802,-2.47253 -4.94504,-1.97802c-3.58516,0.61813 -4.69779,3.58516 -4.82142,4.45054c-0.86538,-2.10165 -1.60715,-4.69779 -1.35989,-9.14833c0.61813,-4.32691 3.3379,-8.77746 6.42856,-8.28295c2.47253,0.4945 2.34889,2.47253 2.84339,5.81043z" fill="#ffffff" stroke="none" stroke-width="1" stroke-linecap="butt" stroke-linejoin="miter"></path></g><path d="M223.43892,216.83498c-0.86538,1.11263 -3.3379,5.43955 -9.27197,9.14833c-4.07967,2.59615 -14.58789,-1.73076 -14.58789,-1.73076c1.11263,11.37362 -8.15932,11.12635 -9.8901,7.41757c-1.35989,-2.96703 -1.11263,-15.70052 1.60715,-16.68954c4.20329,-1.48352 9.8901,0.98901 14.95876,0.98901c1.48352,0 3.09066,-3.21427 6.55219,-6.67582c2.47253,-2.47253 5.6868,-7.04669 10.87911,-3.83241c4.45054,2.84339 2.10165,8.0357 -0.24724,11.37362z" data-paper-data="{&quot;index&quot;:null}" fill="#ffab19" stroke="#001026" stroke-width="1.2" stroke-linecap="round" stroke-linejoin="round"></path><path d="M244.70262,190.62623c0.37088,2.71977 0.61813,13.10437 3.58516,14.71152c2.84339,1.48352 11.49723,-0.98901 11.99174,5.06868c0.4945,5.93405 -7.5412,6.05769 -14.21701,4.20329c-8.65382,-2.34889 -12.60987,-15.5769 -7.66482,-23.73621c1.8544,-2.84339 5.93405,-3.09066 6.30494,-0.24724z" data-paper-data="{&quot;index&quot;:null}" fill="#ffab19" stroke="#001026" stroke-width="1.2" stroke-linecap="round" stroke-linejoin="round"></path><g data-paper-data="{&quot;index&quot;:null}"><path d="M241.61196,219.06025c0.74174,4.07967 -5.1923,13.35162 -5.1923,13.35162c0,0 7.41757,5.06868 2.71977,10.26097c-3.46153,3.83241 -6.1813,0.74174 -15.20602,-8.0357c-1.35989,-1.35989 -1.35989,-3.3379 -0.24724,-4.69779c2.59615,-2.96703 6.30494,-8.0357 3.83241,-10.3846c-3.46153,-2.47253 -7.41757,-4.94504 -9.8901,-6.42856c-10.13734,-5.93405 -2.71977,-13.228 2.84339,-23.48897c2.96703,-5.56318 4.45054,-4.07967 11.86812,-2.59615c4.20329,0.61813 6.67582,0.98901 9.3956,0.86538c4.07967,-0.12363 3.3379,5.81043 2.22527,8.90109c0,0 -1.73076,4.57418 -3.3379,6.92307c-1.97802,2.96703 -4.20329,5.93405 -5.6868,7.04669c0,0 5.81043,4.32691 6.67582,8.28295z" fill="#ffab19" stroke="#001026" stroke-width="1.2" stroke-linecap="round" stroke-linejoin="round"></path><path d="M233.98226,210.65725c0,0 -1.8544,-1.48352 -3.83241,-3.3379c-2.47253,-2.22527 -4.94504,-4.07967 -2.47253,-7.91208c2.22527,-2.96703 4.32691,-6.92307 9.8901,-3.3379c5.31592,3.3379 2.96703,6.42856 2.96703,6.42856c-2.71977,5.56318 -6.55219,8.15932 -6.55219,8.15932z" fill="#ffffff" stroke="none" stroke-width="1" stroke-linecap="butt" stroke-linejoin="miter"></path></g><path d="M222.69716,194.58227c-2.71977,1.23625 -7.78845,-0.98901 -9.14833,-0.74174c-0.37088,0.12363 -2.59615,6.55219 -3.95605,10.3846c-1.8544,5.43955 -10.26097,3.83241 -10.75547,-1.8544c-0.37088,-5.31592 4.45054,-15.5769 6.05769,-17.43129c3.58516,-4.32691 15.77371,-0.85512 23.91708,1.30611" data-paper-data="{&quot;index&quot;:null}" fill="#ffab19" stroke="#001026" stroke-width="1.2" stroke-linecap="round" stroke-linejoin="round"></path><g data-paper-data="{&quot;index&quot;:null}"><path d="M255.0254,115.83241c0.37088,-0.24724 0.98901,-0.12363 1.11263,0.37088l3.21427,13.228c0,0 7.91208,5.81043 10.26097,9.8901c3.95605,6.79944 4.07967,12.36262 4.07967,12.36262c0,0 8.77746,2.59615 10.26097,9.64284c1.48352,7.04669 -3.95605,20.39832 -27.19776,24.97248c-23.24171,4.57418 -41.90927,-1.73076 -50.68672,-15.82415c-8.77746,-14.09339 5.06868,-30.90654 4.32691,-29.91754l-2.59615,-22.12909c-0.12363,-0.4945 0.4945,-0.86538 0.98901,-0.61813l14.95876,9.76647c0,0 5.56318,-2.10165 11.37362,-2.34889c3.46153,-0.24724 6.42856,0 9.27197,0.4945z" fill="#ffab19" stroke="#001026" stroke-width="1.2" stroke-linecap="butt" stroke-linejoin="miter"></path><path d="M273.32207,152.17849c0,0 8.53019,2.22527 10.01371,9.27197c1.48352,7.04669 -4.45054,19.78018 -27.44501,24.23073c-29.91754,6.1813 -44.13454,-11.62086 -35.85158,-24.72523c8.28295,-13.228 22.49997,-1.97802 32.88455,-2.71977c8.90109,-0.61813 9.8901,-8.40658 20.39832,-6.05769z" fill="#ffffff" stroke="none" stroke-width="1" stroke-linecap="butt" stroke-linejoin="miter"></path><path d="M234.37983,165.4065c0,-0.4945 0.4945,-0.86538 0.98901,-0.74174c2.34889,0.86538 9.02471,2.84339 16.44228,3.3379c6.67582,0.37088 10.63184,0 12.48624,-0.37088c0.61813,-0.12363 1.11263,0.4945 0.86538,1.11263c-1.11263,3.3379 -5.81043,12.60987 -18.79117,11.86812c-11.24997,-1.23625 -12.36262,-9.14833 -11.99174,-15.20602z" fill="#ffffff" stroke="#001026" stroke-width="1.2" stroke-linecap="round" stroke-linejoin="round"></path><path d="M296.06928,153.53839c-5.81043,4.69779 -14.71152,4.82142 -14.71152,4.82142" fill="none" stroke="#001026" stroke-width="1.2" stroke-linecap="round" stroke-linejoin="round"></path><path d="M294.46214,167.38452c-7.78845,0.61813 -12.60987,-1.73076 -12.60987,-1.73076" fill="none" stroke="#001026" stroke-width="1.2" stroke-linecap="round" stroke-linejoin="round"></path><path d="M252.42926,155.02191c2.59615,0 5.31592,0.24724 5.43955,1.11263c0.12363,1.73076 -1.73076,5.1923 -3.70878,5.31592c-2.22527,0.24724 -7.41757,-2.84339 -7.41757,-4.82142c-0.12363,-1.48352 3.21427,-1.60715 5.6868,-1.60715z" fill="#001026" stroke="#001026" stroke-width="1.2" stroke-linecap="round" stroke-linejoin="round"></path><path d="M196.79748,153.1675c0,0 10.63184,3.46153 14.95876,7.29395" fill="none" stroke="#001026" stroke-width="1.2" stroke-linecap="round" stroke-linejoin="round"></path><path d="M212.12712,164.78836c-5.31592,2.10165 -14.46426,0.74174 -14.46426,0.74174" fill="none" stroke="#001026" stroke-width="1.2" stroke-linecap="round" stroke-linejoin="round"></path><g><path d="M267.01714,140.55764c3.58516,5.56318 3.70878,11.86812 0.24724,14.09339c-3.46153,2.22527 -9.14833,-0.37088 -12.85712,-5.93405c-3.58516,-5.56318 -3.70878,-11.86812 -0.24724,-14.09339c3.46153,-2.34889 9.27197,0.37088 12.85712,5.93405z" fill="#ffffff" stroke="#001026" stroke-width="1.2" stroke-linecap="round" stroke-linejoin="round"></path><path d="M266.52263,147.60433c0,1.35989 -0.98901,2.47253 -2.22527,2.47253c-1.23625,0 -2.22527,-1.11263 -2.22527,-2.47253c0,-1.35989 0.98901,-2.47253 2.22527,-2.47253c1.23625,0 2.22527,1.11263 2.22527,2.47253" fill="#001026" stroke="none" stroke-width="1" stroke-linecap="butt" stroke-linejoin="miter"></path></g><g><path d="M236.35786,144.01918c3.70878,5.43955 3.46153,12.11536 0.12363,14.46426c-4.07967,2.34889 -9.51921,0.61813 -13.228,-4.82142c-3.83241,-5.43955 -4.07967,-12.48624 -0.24724,-15.20602c3.83241,-2.84339 9.64284,0.12363 13.35162,5.56318z" fill="#ffffff" stroke="#001026" stroke-width="1.2" stroke-linecap="round" stroke-linejoin="round"></path><path d="M235.61609,151.18949c0,1.35989 -0.98901,2.47253 -2.22527,2.47253c-1.23625,0 -2.22527,-1.11263 -2.22527,-2.47253c0,-1.35989 0.98901,-2.47253 2.22527,-2.47253c1.23625,0.12363 2.22527,1.11263 2.22527,2.47253" fill="#001026" stroke="none" stroke-width="1" stroke-linecap="butt" stroke-linejoin="miter"></path></g></g></g></g></svg>