<svg version="1.1" xmlns="http://www.w3.org/2000/svg" xmlns:xlink="http://www.w3.org/1999/xlink" width="95.34115" height="139.51895" viewBox="0,0,95.34115,139.51895"><g transform="translate(-192.65433,-102.68895)"><g data-paper-data="{&quot;isPaintingLayer&quot;:true}" fill-rule="nonzero" stroke-miterlimit="10" stroke-dasharray="" stroke-dashoffset="0" style="mix-blend-mode: normal"><g stroke="none" stroke-width="0.77185" stroke-linecap="butt" stroke-linejoin="miter"><path d="M253.5997,241.0501c-2.5549,0 -5.9232,-1.9859 -6.0652,-2.0708c-0.027,-0.0162 -0.054,-0.034 -0.0803,-0.0517c-1.1817,-0.8421 -5.8282,-5.9054 -6.6471,-7.1427c-0.2169,-0.328 -0.2532,-0.7441 -0.095,-1.1045c0.1583,-0.3605 0.4886,-0.6159 0.8769,-0.6785c2.9939,-0.4793 11.2589,-1.9612 13.5158,-3.0418c3.9788,-1.9026 7.1372,-3.9426 8.0102,-4.523c0.1899,-0.1258 0.467,-0.23 0.6954,-0.23c0.2447,0 0.477,0.0779 0.6677,0.2122c4.7214,1.0104 6.2581,3.1669 6.0999,4.8943c-0.1197,1.316 -1.3531,2.8265 -4.3625,3.1692c0.4152,0.5071 0.7495,1.0736 0.9532,1.6857c0.369,1.1022 0.4708,2.801 -1.1361,4.6311c-0.8228,0.9355 -2.0184,1.4101 -3.5528,1.4101c-1.9189,0 -4.0955,-0.7471 -5.9186,-1.6363c0.4593,1.4526 0.4809,3.0226 -1.1191,4.0044c-0.4786,0.3087 -1.1053,0.4723 -1.8424,0.4723z" fill="#f7941e"></path><path d="M263.8104,223.3648c-0.0077,0 -3.5073,2.3927 -8.2055,4.6404c-2.9037,1.3901 -13.833,3.1414 -13.833,3.1414c0.7471,1.1292 5.3118,6.0968 6.3531,6.8385c1.0558,0.6283 3.6516,1.908 5.4739,1.908c0.4808,0 0.9069,-0.0895 1.238,-0.3025c2.1033,-1.2898 -0.3257,-4.4829 -0.9378,-6.0204c1.5144,1.289 5.5759,3.4826 8.5807,3.4826c1.0913,0 2.043,-0.2895 2.6829,-1.0166c2.9886,-3.403 -0.9702,-6.4673 -3.2804,-6.9466c1.1185,0.213 2.1211,0.308 3.0033,0.308c6.1014,0 6.4025,-4.5524 -1.1879,-5.9525c0.0764,-0.0548 0.1135,-0.0803 0.1127,-0.0803M263.8104,221.0493c0.396,0 0.7734,0.1011 1.1061,0.2802c5.308,1.1948 7.0176,3.8908 6.8162,6.0891c-0.1336,1.4611 -1.2034,3.1028 -3.6655,3.8638c0.0748,0.1691 0.1427,0.342 0.2014,0.5179c0.6568,1.9659 0.1721,4.0121 -1.3654,5.7642c-0.724,0.822 -2.0786,1.803 -4.4219,1.803c-1.4318,0 -3.0002,-0.372 -4.4929,-0.9223c-0.0625,1.1546 -0.5696,2.2707 -1.9188,3.1059c-0.687,0.4361 -1.5175,0.6568 -2.4692,0.6568c-2.8195,0 -6.2728,-2.0045 -6.6571,-2.2329c-0.0548,-0.0332 -0.1089,-0.068 -0.1606,-0.105c-1.3592,-0.9679 -6.1393,-6.2365 -6.9404,-7.446c-0.4346,-0.6553 -0.5064,-1.4874 -0.1899,-2.2083c0.3157,-0.7216 0.9764,-1.2318 1.7536,-1.3561c4.0978,-0.6561 11.3045,-2.0361 13.2009,-2.9446c3.9094,-1.8694 7.0107,-3.8731 7.8675,-4.442c0.1736,-0.1165 0.636,-0.4237 1.336,-0.4237z" fill="#000000"></path></g><path d="M249.03062,160.84278c0,0 -7.41203,-19.52274 -3.70121,-36.77882c3.71084,-17.25609 9.18264,-28.11572 16.54366,-13.11677c9.46014,19.27508 1.69996,49.02814 -5.00781,66.55419" data-paper-data="{&quot;index&quot;:null}" fill="#8a8fc6" stroke="#000000" stroke-width="2.31554" stroke-linecap="round" stroke-linejoin="round"></path><g stroke="none" stroke-width="0.77185" stroke-linecap="butt" stroke-linejoin="miter"><g><path d="M240.8125,231.7972c-4.9337,0 -10.2332,-0.7857 -15.3575,-1.5444c-0.7919,-0.1166 -1.5815,-0.2347 -2.3687,-0.3481c-1.8818,-0.2717 -3.4232,-0.4747 -4.8511,-0.6391l-0.7387,-0.0849c-0.2763,-0.0293 -1.0319,-0.1011 -1.0319,-0.1011c-0.3134,-0.0301 -0.6244,-0.0595 -0.9332,-0.0842c-0.3149,-0.0262 -0.626,-0.0478 -0.9362,-0.0702c-0.335,-0.0224 -0.67,-0.0417 -1.0027,-0.0579c-0.2863,-0.0154 -0.5673,-0.0278 -0.8467,-0.0378c-0.3689,-0.0124 -0.7325,-0.0162 -1.096,-0.0201l-0.707,-0.0054c-0.528,0.0047 -1.0474,0.0201 -1.5591,0.0479l-0.1243,0.0046c-0.5372,0.0309 -1.0134,0.0456 -1.4796,0.0456c-8.2372,0 -13.8493,-4.5702 -13.9666,-11.3709c-0.0162,-0.9756 0.0849,-1.9836 0.3018,-2.9978c0.9748,-4.5493 3.1661,-7.2708 5.2848,-9.9028c0.7858,-0.9764 1.5977,-1.9845 2.3518,-3.089c2.561,-4.1486 3.9002,-9.6596 5.3173,-15.4932c1.6379,-6.7413 3.3282,-13.7003 7.1535,-18.9203c-5.6314,-6.9397 -8.3267,-13.691 -8.2356,-20.6145c0.0362,-2.7485 0.7186,-5.5318 1.5383,-8.6238c4.7252,-17.8119 32.5842,-18.0165 33.7675,-18.0165c0.3488,0 0.8243,0.007 1.1099,0.0402c2.2437,0.2601 6.3916,1.255 7.0022,1.4557c5.7224,1.8925 11.1848,7.1226 11.6248,7.6559c0.3288,0.3998 0.6653,0.849 1.0304,1.3747c0.0308,0.0386 0.0586,0.0756 0.0856,0.1142l0.2023,0.3049c0.4006,0.6059 0.734,1.1585 1.0196,1.6911c0.0316,0.0579 0.0571,0.1181 0.0779,0.1783c2.2762,4.2421 4.3285,8.8878 2.7941,11.7467c-1.4387,2.6822 -3.64,4.3779 -5.5812,5.8738c-6.0652,4.6743 -11.3045,8.711 13.3035,44.4931c4.2112,6.1238 4.689,12.2847 1.421,18.3113c-2.1249,3.9179 -5.8359,7.7138 -11.0289,11.2828c-9.9121,6.8108 -18.0141,7.341 -20.2617,7.341c-0.0008,0 -0.0008,0 -0.0008,0c-0.335,0 -0.5666,-0.0115 -0.6877,-0.0185c-0.8251,0.0517 -1.6958,0.0787 -2.5911,0.0787z" fill="#8a8fc6"></path><path d="M241.2926,121.0311c-5.3157,0 -28.5437,1.6803 -32.6484,17.1527c-0.7896,2.9771 -1.4649,5.6924 -1.4997,8.3422c-0.1042,7.95 3.6678,14.7453 8.556,20.572c0.0007,0 0.0007,0.0008 0.0007,0.0008c-7.4606,9.3223 -7.0747,25.5126 -12.9932,35.0935c-2.8296,4.1425 -6.1941,6.6734 -7.4607,12.5819c-0.2007,0.9385 -0.2918,1.8532 -0.2763,2.7354c0.1003,5.849 4.8464,10.2331 12.8088,10.2331c0.4438,0 0.8968,-0.0139 1.3607,-0.0416c0.0595,-0.0039 0.1212,-0.0031 0.1806,-0.007c0.5295,-0.0285 1.066,-0.0448 1.6109,-0.0494c0.0409,0 0.0818,-0.0008 0.1235,-0.0008c0.2007,0 0.4044,0.0039 0.6059,0.0062c0.372,0.0039 0.7456,0.0077 1.1238,0.0209c0.2856,0.01 0.5742,0.0231 0.8637,0.0385c0.3404,0.0163 0.6823,0.0363 1.0265,0.0595c0.315,0.0224 0.6306,0.0447 0.9494,0.071c0.3149,0.0255 0.6314,0.0548 0.9494,0.0857c0.3473,0.0332 0.6939,0.0648 1.0443,0.1026c0.2485,0.0263 0.4994,0.0571 0.7487,0.0857c1.6047,0.1845 3.2363,0.4052 4.885,0.6437c5.8869,0.8529 11.9628,1.881 17.5603,1.881c0.8776,0 1.7428,-0.0255 2.5949,-0.0803c0,0 0.2378,0.0209 0.6839,0.0209c2.2769,0 10.0062,-0.5411 19.6064,-7.1373c7.0123,-4.8186 18.3306,-14.8681 9.31,-27.9841c-32.6799,-47.5179 -13.5875,-40.7619 -7.7879,-51.5701c1.4812,-2.7601 -1.668,-8.5652 -2.9006,-10.8483c0.017,0.0108 0.0286,0.0185 0.0286,0.0185c-0.3003,-0.5588 -0.6268,-1.0875 -0.9656,-1.6008c-0.0625,-0.0949 -0.1243,-0.1906 -0.1883,-0.284c-0.0271,-0.0386 -0.0579,-0.0734 -0.0849,-0.1127c-0.3119,-0.4485 -0.6337,-0.8853 -0.9733,-1.299c-0.3034,-0.3682 -5.5944,-5.4748 -11.093,-7.2925c-0.5079,-0.1674 -4.5585,-1.1485 -6.773,-1.4055c-0.1597,-0.0185 -0.4955,-0.0324 -0.9771,-0.0324M241.2926,118.7156c0.5526,0 0.971,0.0162 1.2457,0.0478c2.3588,0.274 6.5769,1.2913 7.233,1.5074c6.0196,1.9906 11.6171,7.3665 12.155,8.0203c0.3397,0.4137 0.6878,0.8753 1.0613,1.4132c0.0379,0.0494 0.0764,0.1004 0.1181,0.1606c0.0541,0.0795 0.1081,0.1605 0.1606,0.2408l0.0494,0.0756c0.4198,0.6353 0.771,1.218 1.0736,1.7815c0.044,0.0818 0.0826,0.1659 0.1166,0.2508c2.395,4.4705 4.5407,9.4412 2.7554,12.7694c-1.5568,2.9006 -3.8615,4.6767 -5.8953,6.2435c-3.1561,2.4321 -5.2409,4.0391 -4.5107,8.9959c0.9671,6.5622 6.8748,17.6591 18.0604,33.9226c4.4158,6.4202 4.9291,13.17 1.4851,19.52c-2.2121,4.0792 -6.0451,8.011 -11.3909,11.685c-10.1884,6.9999 -18.5869,7.544 -20.9186,7.544c-0.3026,0 -0.5334,-0.0077 -0.6846,-0.0162c-0.8282,0.051 -1.7004,0.0764 -2.5942,0.0764c-5.0193,0 -10.3613,-0.7919 -15.5273,-1.5568c-0.7903,-0.1173 -1.5799,-0.2346 -2.3649,-0.3481c-1.8702,-0.2693 -3.4015,-0.4716 -4.8179,-0.6344l-0.257,-0.0301c-0.1582,-0.0178 -0.3157,-0.0371 -0.4754,-0.0541c-0.2702,-0.0293 -0.538,-0.0548 -0.8066,-0.0795l-0.2138,-0.02c-0.3057,-0.0301 -0.6106,-0.0579 -0.9162,-0.0834c-0.308,-0.0247 -0.6144,-0.0471 -0.9154,-0.0679c-0.3296,-0.0224 -0.6569,-0.0409 -0.9903,-0.0571c-0.2748,-0.0147 -0.5503,-0.027 -0.8212,-0.0371c-0.3597,-0.0116 -0.714,-0.0154 -1.0667,-0.0193l-0.2161,-0.0023c-0.1228,-0.0023 -0.2463,-0.0038 -0.3682,-0.0038l-0.1042,0.0007c-0.5071,0.0047 -1.0135,0.0201 -1.4835,0.0456c-0.0594,0.0038 -0.1196,0.0061 -0.1891,0.0077c-0.504,0.0301 -1.008,0.0455 -1.4989,0.0455c-8.9172,0 -14.9955,-5.027 -15.1236,-12.5093c-0.0178,-1.0636 0.0919,-2.1604 0.3273,-3.2603c1.0327,-4.8178 3.3112,-7.6482 5.5148,-10.3859c0.761,-0.9456 1.5476,-1.9227 2.2677,-2.9724c2.4753,-4.0321 3.7882,-9.4374 5.1783,-15.1583c1.5916,-6.5491 3.2317,-13.302 6.8316,-18.6031c-5.4353,-6.9196 -8.038,-13.6979 -7.9461,-20.6739c0.0378,-2.8805 0.7363,-5.7371 1.5761,-8.9048c4.9506,-18.6624 33.6671,-18.8762 34.8867,-18.8762z" fill="#000000"></path></g><path d="M223.253,228.7585c0.0663,-0.4384 0.125,-0.9015 0.169,-1.4233c0.5141,-6.1748 -4.8889,-16.5885 -4.8889,-25.6608c0,-9.0723 11.8625,-17.798 17.5503,-20.6731c14.7615,-7.4623 -8.857,-26.7607 -3.9133,-38.5499c5.7765,-13.7813 19.7902,-15.0171 28.9396,-11.3909c0.027,0.0386 0.0579,0.0733 0.0849,0.1127c0.0641,0.0934 0.1258,0.1891 0.1884,0.284c0.3388,0.5133 0.6653,1.042 0.9655,1.6008c0,0 -0.0115,-0.0077 -0.0285,-0.0185c1.2326,2.2823 4.3818,8.0882 2.9006,10.8483c-5.7997,10.8074 -24.8921,4.0522 7.7879,51.5701c9.0198,13.116 -2.2978,23.1655 -9.31,27.9841c-11.4828,7.8906 -20.2903,7.1164 -20.2903,7.1164c-6.2844,0.4068 -13.3452,-0.8143 -20.1552,-1.7999z" fill="#ffffff"></path></g><g stroke="none" stroke-width="0.77185" stroke-linecap="butt" stroke-linejoin="miter"><path d="M262.8942,169.6651c-4.9583,-0.0007 -11.1423,-3.4833 -14.3826,-8.1013c-1.9473,-2.7755 -2.5447,-5.619 -1.6818,-8.0055c2.2576,-6.2497 9.4536,-13.5151 15.3482,-13.5151c0.4152,0 0.822,0.0371 1.2094,0.1112c4.4667,0.768 6.8525,2.1874 8.9573,3.4409c1.2558,0.7479 2.4421,1.4541 4.0121,2.0083c1.7953,0.6345 3.3313,0.8992 4.6866,1.1331c2.6668,0.4592 4.97,0.8559 5.6438,4.0977c0.3944,1.8887 -0.0016,3.8994 -1.0868,5.5156c-0.9301,1.3855 -2.8512,3.1862 -6.7189,3.8986c-0.9424,0.1737 -2.0338,0.2617 -3.2418,0.2617c-4.1147,0 -9.2706,-1.0343 -13.1051,-2.2299c2.838,4.5871 8.3359,5.8776 8.603,5.9378c0.159,0.0355 0.3149,0.1065 0.4453,0.2046c0.4878,0.365 0.6082,1.0458 0.2763,1.5568c-1.2257,1.8879 -3.5914,3.0673 -7.033,3.5049c-0.6144,0.1212 -1.2643,0.1822 -1.932,0.1822c0.0016,-0.0016 0.0008,-0.0016 0,-0.0016z" fill="#f7941e"></path><path d="M262.178,141.201c-5.0718,0 -12.02,6.5514 -14.2599,12.7509c-2.2144,6.1231 7.4993,14.5547 14.9761,14.5547c0.5998,0 1.184,-0.054 1.7467,-0.1675c3.2001,-0.4006 5.2524,-1.4572 6.2489,-2.9917c-0.0031,-0.0023 -8.1692,-1.7366 -10.5481,-9.0692c3.5799,1.4511 10.2015,3.0728 15.2988,3.0728c1.096,0 2.1218,-0.0749 3.0326,-0.2424c6.2018,-1.1423 7.4514,-5.3111 6.8818,-8.0403c-0.7827,-3.7628 -4.0885,-2.4329 -9.5833,-4.3741c-4.4381,-1.5676 -5.9277,-4.2212 -12.8003,-5.4029c-0.3211,-0.061 -0.6537,-0.0903 -0.9933,-0.0903M262.178,138.8854c0.4793,0 0.9516,0.0425 1.404,0.1274c4.6866,0.8081 7.1673,2.2847 9.3555,3.5875c1.2581,0.7487 2.3441,1.3948 3.806,1.9111c1.7034,0.6013 3.1885,0.8576 4.4975,1.0829c2.6938,0.4639 5.7472,0.9903 6.5808,5.0008c0.4585,2.1936 -0.0008,4.5261 -1.2589,6.3994c-1.0543,1.5699 -3.207,3.6061 -7.4699,4.3918c-1.0127,0.186 -2.1743,0.281 -3.4525,0.281c-3.0141,0 -6.4904,-0.5149 -9.6635,-1.252c2.4761,1.9852 5.2362,2.6313 5.4153,2.6722c0.3187,0.071 0.6236,0.2115 0.8853,0.4067c0.9756,0.731 1.2172,2.0925 0.5534,3.1144c-1.4148,2.179 -4.0453,3.5305 -7.8196,4.0183c-0.6761,0.1304 -1.3878,0.196 -2.1172,0.196c-5.3882,0 -11.8362,-3.6138 -15.3296,-8.593c-2.1712,-3.0943 -2.8188,-6.3137 -1.8239,-9.0645c2.4344,-6.7406 9.9815,-14.28 16.4373,-14.28z" fill="#000000"></path></g><path d="M247.9181,138.0187c0.8073,0 1.5391,0.4206 2.0685,1.1006c0.5295,0.6792 0.8576,1.6178 0.8576,2.6536c0,1.0358 -0.3281,1.9744 -0.8576,2.6536c-0.5294,0.68 -1.2612,1.1007 -2.0685,1.1007c-0.8074,0 -1.5391,-0.4207 -2.0686,-1.1007c-0.5294,-0.6792 -0.8575,-1.6178 -0.8575,-2.6536c0,-1.0358 0.3281,-1.9744 0.8575,-2.6536c0.5295,-0.68 1.2612,-1.1006 2.0686,-1.1006z" fill="#000000" stroke="none" stroke-width="0.77185" stroke-linecap="butt" stroke-linejoin="miter"></path><path d="M230.75758,183.40688c-5.48517,-19.32523 -11.18761,-51.53381 -0.46554,-70.0078c8.34301,-14.37564 13.0508,-2.184 15.57208,16.36582c2.52126,18.54981 -6.17958,37.61937 -6.17958,37.61937" fill="#8a8fc6" stroke="#000000" stroke-width="2.31554" stroke-linecap="round" stroke-linejoin="round"></path></g></g></svg>