<svg version="1.1" xmlns="http://www.w3.org/2000/svg" xmlns:xlink="http://www.w3.org/1999/xlink" width="93.96852" height="124.9393" viewBox="0,0,93.96852,124.9393"><g transform="translate(-192.08112,-119.0751)"><g data-paper-data="{&quot;isPaintingLayer&quot;:true}" fill-rule="nonzero" stroke-miterlimit="10" stroke-dasharray="" stroke-dashoffset="0" style="mix-blend-mode: normal"><g stroke="none" stroke-width="0.77378" stroke-linecap="butt" stroke-linejoin="miter"><path d="M241.362,242.8545c-2.6502,0 -6.0131,-3.1865 -6.3876,-3.5501c-0.0224,-0.0225 -0.0449,-0.0457 -0.0658,-0.0697c-0.8952,-1.0237 -3.8387,-6.2947 -4.6411,-8.0821c-0.0874,-0.1958 -0.1184,-0.4086 -0.0936,-0.6152c-0.0612,-0.1509 -0.1153,-0.3064 -0.1641,-0.4681c-0.1122,-0.3737 -0.0294,-0.78 0.2213,-1.0794c0.2221,-0.2654 0.5486,-0.4156 0.8899,-0.4156c0.0441,0 0.0882,0.0024 0.1331,0.0078c2.8599,0.3304 6.9346,0.7242 10.1017,0.7242c1.4098,0 2.483,-0.0797 3.1887,-0.2344c1.6018,-0.3529 5.3345,-1.2845 9.1585,-2.5434c0.1176,-0.0395 0.2406,-0.0581 0.3629,-0.0581c0.1981,0 0.3946,0.0503 0.5703,0.1494c0.0309,0.017 0.0627,0.0317 0.0944,0.0449c0.1996,0.0797 0.3683,0.2104 0.4921,0.3737c3.1114,1.4965 4.703,3.5663 4.2821,5.6207c-0.4031,1.9662 -2.5241,3.2368 -5.4033,3.2368c-0.0008,0 -0.0008,0 -0.0015,0c-0.2809,0 -0.568,-0.0124 -0.8589,-0.0364c0.7683,1.0949 1.2953,2.2842 1.2303,3.3296c-0.0697,1.1165 -0.773,1.9747 -1.9306,2.353c-0.4318,0.1409 -0.8976,0.2121 -1.3874,0.2121c-2.1666,0 -4.6582,-1.4261 -6.8557,-3.123c0.2035,1.6543 -0.024,3.4332 -1.9809,4.0732c-0.2785,0.0967 -0.6074,0.1501 -0.9548,0.1501z" fill="#f7941e"></path><path d="M254.0667,227.6303c-3.7451,1.2327 -7.4515,2.1744 -9.2715,2.5752c-0.8504,0.1872 -2.0598,0.2615 -3.4379,0.2615c-3.3048,0 -7.5823,-0.4248 -10.2348,-0.7312c0.0573,0.1911 0.1277,0.3791 0.2167,0.5672c0.0689,0.1447 0.0495,0.2739 -0.0116,0.3745c0.7892,1.7603 3.6716,6.8975 4.4554,7.7935c1.0013,0.9719 3.735,3.2228 5.579,3.2228c0.212,0 0.4116,-0.0294 0.595,-0.0936c2.35,-0.7684 0.7258,-4.4469 0.4867,-6.0881c1.5491,1.4547 5.6254,5.0806 8.7105,5.0806c0.3575,0 0.701,-0.048 1.0268,-0.1547c3.133,-1.0245 -0.9804,-5.9001 -3.1207,-6.9076c1.8834,0.8489 3.6051,1.204 5.042,1.204c4.9104,0 6.5144,-4.1459 0.0178,-6.923h-0.0047c0.0619,-0.0217 0.1238,-0.048 0.1857,-0.0696c-0.0797,-0.0318 -0.1578,-0.0681 -0.2344,-0.1115M254.0667,225.309c0.3838,0 0.766,0.0952 1.1096,0.2816c0.2871,0.1177 0.5409,0.2871 0.7513,0.4968c5.1286,2.5411 4.9174,5.8188 4.7154,6.8031c-0.4611,2.2509 -2.5441,3.7931 -5.4311,4.1065c0.3025,0.7482 0.4642,1.5142 0.4178,2.2625c-0.099,1.5932 -1.1181,2.8576 -2.7283,3.3845c-0.5479,0.1795 -1.1359,0.2701 -1.748,0.2701c-1.6861,0 -3.6151,-0.698 -5.7631,-2.08c-0.2647,1.2675 -1.0098,2.4073 -2.692,2.9652c-0.4179,0.1423 -0.8682,0.2151 -1.3371,0.2151c-3.0425,0 -6.5276,-3.2306 -7.1954,-3.8782c-0.0449,-0.0441 -0.089,-0.0906 -0.1308,-0.1385c-1.0492,-1.1994 -4.043,-6.6259 -4.826,-8.3716c-0.1285,-0.2863 -0.1958,-0.5919 -0.2028,-0.8975c-0.0387,-0.1068 -0.0742,-0.2152 -0.1075,-0.3266c-0.2244,-0.7482 -0.0581,-1.5592 0.4434,-2.1581c0.4433,-0.53 1.0972,-0.831 1.7797,-0.831c0.0882,0 0.1771,0.0054 0.2661,0.0155c2.3167,0.2677 6.6925,0.7165 9.9687,0.7165c1.652,0 2.5101,-0.113 2.9395,-0.2074c1.5809,-0.3474 5.2641,-1.269 9.0448,-2.5124c0.2367,-0.0774 0.482,-0.1161 0.7258,-0.1161z" fill="#000000"></path></g><g stroke="none" stroke-width="0.77378" stroke-linecap="butt" stroke-linejoin="miter"><path d="M265.5194,230.6597c-2.5341,0 -5.1162,-2.4018 -6.8363,-4.416c-0.1324,-0.1547 -0.2213,-0.3412 -0.2585,-0.5416c-0.1014,-0.5448 0.188,-1.1406 0.7026,-1.3449c4.3425,-1.7301 5.6587,-2.9496 6.0572,-3.5222c0.7273,-1.05 1.782,-1.9701 3.1307,-2.7346c0.1261,-0.0711 0.2646,-0.1176 0.4078,-0.1392c0.0263,-0.0039 0.1973,-0.0202 0.2298,-0.0225l0.1663,-0.0294c0.0612,-0.01 0.1223,-0.0147 0.1827,-0.0147c0.1648,0 0.3257,0.0356 0.472,0.1006c2.4668,0.1795 4.3912,1.5437 4.3912,3.195c0,0.6801 -0.339,1.286 -0.9425,1.7054c0.1981,0.2189 0.3675,0.4604 0.4968,0.7219c0.4054,0.8218 0.3451,1.7139 -0.171,2.5109c-0.38,0.5881 -1.1816,1.2907 -2.8383,1.2907c-0.0007,0 0,0 -0.0007,0c-0.609,0 -1.2443,-0.0936 -1.8347,-0.2244c0.1269,0.8898 -0.0317,1.8416 -0.9092,2.572c-0.7111,0.5935 -1.5344,0.893 -2.4459,0.893z" fill="#f7941e"></path><path d="M269.3017,219.0553c-0.0952,0.0155 -0.1881,0.0371 -0.2848,0.0418c-0.0433,0.0085 -0.0867,0.0069 -0.1292,0.0131c-1.0477,0.5935 -2.0397,1.3627 -2.75,2.3864c-0.9441,1.3587 -3.5331,2.7245 -6.581,3.9385c0.0046,0.0209 0.0054,0.0348 0.0092,0.055c0.9278,1.0871 3.5757,4.0089 5.9535,4.0089c0.595,0 1.1731,-0.1834 1.7039,-0.6244c1.1189,-0.9332 0.2112,-2.6425 -0.2554,-3.4983c0.8024,0.3335 2.4111,0.8813 3.742,0.8813c0.8009,0 1.5012,-0.198 1.8648,-0.7606c1.0578,-1.635 -1.5142,-2.9945 -2.9016,-3.1059c0.2437,0.0154 0.4727,0.0232 0.6871,0.0232c4.4987,0 2.678,-3.2785 -1.139,-3.2785c0,0 0.0325,-0.031 0.0805,-0.0805M269.3024,216.7339c0.25,0 0.496,0.0411 0.7282,0.1161c3.0278,0.2755 5.2965,2.0823 5.2965,4.3386c0,0.6716 -0.2128,1.3061 -0.602,1.8416c0.0131,0.0248 0.0247,0.0488 0.0371,0.0727c0.585,1.1862 0.4983,2.5179 -0.2368,3.6531c-0.5377,0.831 -1.635,1.8222 -3.8147,1.8222c-0.2321,0 -0.4666,-0.0124 -0.701,-0.0333c-0.1633,0.8202 -0.5974,1.5259 -1.3015,2.1132c-0.9131,0.7591 -2.015,1.1607 -3.188,1.1607c-2.3902,0 -4.9878,-1.6218 -7.7193,-4.8222c-0.2654,-0.3103 -0.4433,-0.684 -0.5176,-1.0848c-0.0054,-0.0287 -0.0101,-0.055 -0.0139,-0.0805c-0.1873,-1.0771 0.4054,-2.1457 1.4284,-2.5535c4.4422,-1.7696 5.3886,-2.8978 5.5325,-3.1052c0.8287,-1.1947 2.011,-2.2316 3.513,-3.0827c0.2522,-0.1424 0.5292,-0.2368 0.8163,-0.2778c0.0588,-0.0077 0.1192,-0.0147 0.1811,-0.0193c0.0464,-0.0062 0.092,-0.0101 0.1392,-0.0132c-0.0371,0.0023 -0.0711,0.0054 -0.0758,0.0054l0.1331,-0.0224c0.123,-0.0194 0.2445,-0.0287 0.3652,-0.0287z" fill="#000000"></path></g><g stroke="none" stroke-width="0.77378" stroke-linecap="butt" stroke-linejoin="miter"><g><path d="M234.7678,232.1345c-1.5932,0 -2.9079,-0.2275 -4.0206,-0.6941l-0.106,-0.0448c-1.1676,-0.243 -5.6702,-1.1615 -10.5644,-1.8703c-2.254,-0.325 -4.3084,-0.5664 -6.1067,-0.7157c-1.0368,-0.0844 -1.9515,-0.1378 -2.7755,-0.1625l-0.089,-1.1646l-0.0317,1.1599c-0.332,-0.0085 -0.6562,-0.0131 -0.9711,-0.0131l-0.2763,0.0015c-0.441,0.0062 -0.8055,0.0163 -1.149,0.0372c-0.4891,0.0294 -0.9657,0.0441 -1.4323,0.0441c-5.0358,0 -9.1693,-1.6822 -11.6384,-4.7363c-2.1071,-2.6054 -2.839,-6.0394 -2.0629,-9.6684c0.9788,-4.5622 3.1756,-7.2914 5.3004,-9.93c0.7869,-0.978 1.6009,-1.9886 2.3569,-3.0951c2.5542,-4.1382 4.0004,-9.4177 5.531,-15.0075c1.8485,-6.7489 3.759,-13.7245 7.8848,-19.0195c0.0155,-0.1393 0.0232,-0.2739 0.0186,-0.3567c-0.7498,-1.4114 -1.6126,-2.7972 -2.4467,-4.1374c-1.3147,-2.1117 -2.6742,-4.2945 -3.6886,-6.711c-1.8115,-4.3193 -2.3477,-9.2366 -1.5515,-14.2206c1.3534,-8.4852 7.4129,-15.6551 16.2092,-19.1789c3.9432,-1.5801 8.5418,-2.415 13.299,-2.415c8.493,0 16.3755,2.6541 21.6279,7.2813c2.333,2.0552 4.139,4.4655 5.3685,7.1637c0.3111,0.6863 1.3742,5.9341 1.1545,7.3671c-0.3946,2.5752 -1.1878,5.1201 -1.9553,7.5808c-0.2345,0.7521 -0.4674,1.4996 -0.6872,2.2416c-0.9068,3.0611 -1.5081,6.1879 -2.0002,8.8792c-0.3018,1.6481 -0.3544,3.2893 -0.1563,4.8771c0.715,5.7229 3.7064,10.1419 6.8743,14.8202c2.9473,4.3525 5.9945,8.8536 7.094,14.5146c2.3918,12.3031 -1.1197,19.9666 -3.4255,23.4394l-0.0689,0.1021l-0.0874,0.0859c-4.9159,4.7959 -10.532,8.2918 -16.6944,10.3911c-4.2441,1.4454 -8.6245,2.0753 -12.3487,2.4985c-0.52,0.0596 -1.0733,0.137 -1.6466,0.2167c-1.4663,0.2066 -3.13,0.4395 -4.7379,0.4395z" fill="#8a8fc6"></path><path d="M236.4577,121.3964c-4.5645,0 -9.0447,0.8001 -12.8695,2.3306c-7.8662,3.1509 -14.1238,9.6924 -15.4942,18.2845c-0.7312,4.5769 -0.3265,9.2908 1.4756,13.5883c1.6319,3.8883 4.1885,7.1498 6.1392,10.8477c0.1904,0.3621 0.0085,1.286 0.0085,1.286c-7.4801,9.3449 -7.6271,24.5985 -13.5597,34.2034c-2.8375,4.1521 -6.2096,6.6894 -7.4802,12.6134c-1.5375,7.1807 3.3791,13.0011 12.5662,13.0011c0.4442,0 0.8976,-0.0139 1.3619,-0.0418c0.3621,-0.0216 0.7459,-0.0332 1.1413,-0.0379c0.0465,-0.0008 0.0913,-0.0015 0.1378,-0.0023c0.0727,-0.0008 0.1447,-0.0008 0.2182,-0.0008c0.3242,0 0.6585,0.0047 1.0012,0.0139c0.041,0.0016 0.0828,0.0031 0.1238,0.0047c0.8814,0.0263 1.8146,0.082 2.7787,0.1609c0.0201,0.0016 0.0395,0.0031 0.0588,0.0047c2.001,0.1663 4.1281,0.4286 6.1771,0.7258c0,-0.0008 0,-0.0008 0,-0.0016c5.7724,0.8357 10.9335,1.9461 10.9335,1.9461c0.0047,0.0131 0.0139,0.0333 0.0194,0.048c1.0693,0.4488 2.2981,0.6035 3.571,0.6035c2.1395,0 4.4035,-0.4372 6.2544,-0.6476c4.1057,-0.4674 8.1804,-1.1065 12.1066,-2.4444c6.2746,-2.1372 11.6462,-5.6231 16.2579,-10.1226c2.2239,-3.3489 5.5635,-10.6913 3.253,-22.5758c-2.1944,-11.2973 -12.5376,-17.8643 -13.9799,-29.413c-0.2182,-1.7511 -0.1509,-3.496 0.1664,-5.23c0.5563,-3.0402 1.149,-6.0301 2.0288,-8.9991c0.9347,-3.1578 2.1086,-6.4084 2.6084,-9.6699c0.1788,-1.1669 -0.8504,-6.239 -1.0639,-6.7095c-1.2133,-2.6625 -2.9636,-4.9096 -5.0791,-6.7744c-5.4118,-4.7681 -13.2533,-6.9919 -20.8612,-6.9919M236.4577,119.0751c8.7716,0 16.9342,2.7593 22.3971,7.573c2.4545,2.1634 4.358,4.7045 5.6579,7.5559c0.3846,0.8473 1.5043,6.3311 1.2443,8.021c-0.4078,2.6618 -1.2141,5.2494 -1.9941,7.751c-0.2329,0.7459 -0.465,1.4888 -0.6832,2.2262c-0.8906,3.0053 -1.4841,6.0966 -1.9708,8.7576c-0.2801,1.5321 -0.3289,3.0549 -0.1463,4.5243c0.6809,5.4474 3.5973,9.7543 6.6839,14.3142c3.0116,4.4492 6.1276,9.0501 7.272,14.9432c2.4715,12.7094 -1.1939,20.6817 -3.5981,24.3022l-0.1361,0.2058l-0.1772,0.1726c-5.0397,4.9166 -10.8028,8.503 -17.13,10.658c-4.3494,1.481 -8.8056,2.1217 -12.5917,2.5535c-0.5107,0.058 -1.0539,0.1339 -1.618,0.2128c-1.505,0.2105 -3.2104,0.4496 -4.8996,0.4496c-1.7495,0 -3.212,-0.2569 -4.4694,-0.7847l-0.0038,-0.0015c-1.2443,-0.2584 -5.2687,-1.0725 -9.7365,-1.7402l-0.6469,-0.0937c-2.2316,-0.3234 -4.262,-0.5617 -6.0208,-0.708l-0.0704,-0.0054c-0.961,-0.0781 -1.8555,-0.13 -2.6757,-0.1547l-0.0403,-0.0016l-0.0603,-0.0023c-0.3211,-0.0093 -0.6345,-0.0132 -0.9386,-0.0132l-0.1811,0.0008l-0.0936,0.0016l-0.0549,0.0007c-0.3908,0.0047 -0.7266,0.0155 -1.0292,0.0341c-0.5045,0.0294 -1.009,0.0456 -1.5003,0.0456c-5.3933,0 -9.8472,-1.8354 -12.5415,-5.1673c-2.3314,-2.8839 -3.1462,-6.6622 -2.2942,-10.6418c1.0361,-4.8323 3.321,-7.6697 5.5302,-10.4151c0.7629,-0.9471 1.5506,-1.9259 2.2726,-2.9767c2.4784,-4.0345 3.8975,-9.2181 5.4002,-14.7042c1.8284,-6.6762 3.7165,-13.569 7.751,-18.9824c-0.6655,-1.2102 -1.3952,-2.3809 -2.1604,-3.6112c-1.3387,-2.1503 -2.7222,-4.3734 -3.773,-6.8766c-1.895,-4.5181 -2.4575,-9.6537 -1.6273,-14.8512c1.4184,-8.8923 7.7448,-16.3972 16.9234,-20.0734c4.0794,-1.6342 8.8281,-2.4985 13.7307,-2.4985z" fill="#000000"></path></g><path d="M269.3868,217.7584c-4.6118,4.4996 -9.9841,7.9855 -16.2579,10.1226c-3.927,1.3371 -8.0009,1.977 -12.1066,2.4444c-2.952,0.3366 -6.9586,1.2473 -9.8255,0.0441c-0.0054,-0.0147 -0.0147,-0.0348 -0.0193,-0.048c0,0 -5.1612,-1.1103 -10.9336,-1.946c-0.318,-1.3773 -1.3943,-2.7748 -1.8532,-4.1815c-0.8032,-2.4723 -4.963,-14.5672 -4.2171,-23.4054c0.9231,-10.9358 9.3705,-17.1415 13.4793,-19.5379l0.0015,-0.0008c1.3425,-0.7823 2.2231,-1.1599 2.2231,-1.1599c0,0 -0.0023,0.0108 -0.0062,0.0325c3.9571,-2.2192 11.3584,-7.4848 6.2947,-13.641c-3.058,-3.1911 -10.5745,-12.1661 -10.0901,-22.8791c0.6074,-13.4236 19.3066,-16.5187 29.495,-11.6184c0,0 0.5115,-1.8075 1.7488,-3.5965c2.1155,1.8648 3.8658,4.1127 5.0791,6.7745c0.2143,0.472 1.4926,4.3912 1.0639,6.7094c-0.5997,3.2453 -1.6737,6.5122 -2.6084,9.67c-0.8798,2.969 -1.4725,5.9588 -2.0289,8.999c-0.3172,1.7341 -0.3845,3.4789 -0.1663,5.23c1.4423,11.5495 11.7854,18.1158 13.9799,29.413c2.3105,11.8845 -1.0299,19.2261 -3.2522,22.575z" fill="#ffffff"></path></g><g stroke="none" stroke-width="0.77378" stroke-linecap="butt" stroke-linejoin="miter"><path d="M262.7462,165.8246c-3.1369,-0.1053 -13.477,-1.0609 -14.8388,-8.9426c-0.5308,-3.0611 0.6538,-6.5864 3.2491,-9.6707c3.0905,-3.6739 7.5707,-6.0471 11.4125,-6.0471c0.1834,0 0.3675,0.0054 0.5486,0.0162c2.237,0.1308 5.0458,1.1862 8.0195,2.3044c1.4918,0.5602 3.0347,1.1405 4.491,1.5916c0.5927,0.1842 1.1754,0.3552 1.7387,0.5223c4.1931,1.2373 8.1541,2.4049 7.4314,6.5772c-0.5479,3.1701 -2.4552,5.0148 -6.376,6.1662l-0.1811,0.0495c-0.3288,0.0929 -0.6345,0.1726 -0.9556,0.25c-0.0387,0.0069 -0.0774,0.0139 -0.116,0.0201l-0.9054,1.0933c-3.6166,4.3688 -10.617,5.976 -13.4398,6.0704l-0.0387,0.0015z" fill="#f7941e"></path><path d="M262.5698,142.3249c-6.6236,0 -14.6671,7.7339 -13.5188,14.3598c1.0864,6.2908 9.0208,7.8221 13.7331,7.98c2.5295,-0.0844 9.1964,-1.5576 12.5848,-5.6502c-0.7405,0.065 -1.6211,0.0975 -2.5868,0.0975c-5.2044,0 -12.9167,-0.9301 -14.8558,-2.5527c-0.8403,-0.7026 0.0774,-1.9112 0.9324,-1.9112c0.1486,0 0.2948,0.0364 0.4302,0.1184c2.0885,1.2574 10.5351,2.9032 15.5089,2.9032c0.8589,0 1.6149,-0.0487 2.2161,-0.1578c0.3064,-0.0728 0.5974,-0.1486 0.8759,-0.2275c0.0705,-0.0209 0.1401,-0.0411 0.2051,-0.0565c4.0654,-1.194 5.1689,-2.9876 5.5604,-5.2509c0.6237,-3.5973 -3.5323,-4.2906 -8.37,-5.7925c-4.2937,-1.3317 -9.0803,-3.6616 -12.2343,-3.8457c-0.1593,-0.0093 -0.3203,-0.0139 -0.4812,-0.0139M262.5698,140.0035c0.2058,0 0.4124,0.0062 0.6182,0.0178c2.4119,0.1416 5.302,1.2272 8.3599,2.3763c1.4772,0.5548 3.0031,1.1282 4.4276,1.57c0.5873,0.1818 1.1638,0.3521 1.7232,0.5169c4.074,1.2017 9.1453,2.6974 8.2462,7.8879c-0.6268,3.6213 -2.8452,5.8057 -7.1931,7.0824l-0.0503,0.0155l-0.065,0.0155l-0.0688,0.0193l-0.0356,0.0101l-0.0101,0.0031c-0.229,0.0642 -0.465,0.1276 -0.7103,0.1888l-0.6523,0.7877c-4.18,5.0481 -11.9155,6.4108 -14.2956,6.4905l-0.0774,0.0023l-0.0781,-0.0023c-3.3582,-0.1122 -14.4326,-1.1592 -15.943,-9.9037c-0.5989,-3.4495 0.6461,-7.2201 3.5037,-10.617c3.3025,-3.9254 8.1301,-6.4611 12.3008,-6.4611z" fill="#000000"></path></g><path d="M243.7437,138.1372c0.8093,0 1.5429,0.4217 2.0737,1.1034c0.5308,0.6809 0.8597,1.6218 0.8597,2.6602c0,1.0384 -0.3289,1.9794 -0.8597,2.6603c-0.5308,0.6817 -1.2644,1.1034 -2.0737,1.1034c-0.8094,0 -1.543,-0.4217 -2.0738,-1.1034c-0.5308,-0.6809 -0.8596,-1.6219 -0.8596,-2.6603c0,-1.0384 0.3288,-1.9793 0.8596,-2.6602c0.5308,-0.6817 1.2644,-1.1034 2.0738,-1.1034z" fill="#000000" stroke="none" stroke-width="0.77378" stroke-linecap="butt" stroke-linejoin="miter"></path><path d="M260.2941,136.6662c0.6205,0 1.1831,0.3234 1.5901,0.8457c0.407,0.5231 0.6592,1.245 0.6592,2.0413c0,0.7962 -0.2522,1.5181 -0.6592,2.0412c-0.407,0.5223 -0.9696,0.8457 -1.5901,0.8457c-0.6206,0 -1.1831,-0.3234 -1.5902,-0.8457c-0.407,-0.5231 -0.6592,-1.245 -0.6592,-2.0412c0,-0.7963 0.2522,-1.5182 0.6592,-2.0413c0.4071,-0.5223 0.9696,-0.8457 1.5902,-0.8457z" fill="#000000" stroke="none" stroke-width="0.77378" stroke-linecap="butt" stroke-linejoin="miter"></path><path d="M237.75836,170.13536c3.25179,13.34751 5.2701,35.02809 -7.41013,45.16403c-9.86662,7.88746 -13.15167,-0.73797 -13.55968,-13.09904c-0.40791,-12.36103 10.34039,-23.21273 10.34039,-23.21273" fill="#8a8fc6" stroke="#000000" stroke-width="2.32134" stroke-linecap="round" stroke-linejoin="round"></path></g></g></svg>