<svg version="1.1" xmlns="http://www.w3.org/2000/svg" xmlns:xlink="http://www.w3.org/1999/xlink" width="173.43146" height="141.59149" viewBox="0,0,173.43146,141.59149"><g transform="translate(-156.21283,-117.02372)"><g data-paper-data="{&quot;isPaintingLayer&quot;:true}" fill-rule="nonzero" stroke="none" stroke-width="1" stroke-linecap="butt" stroke-linejoin="miter" stroke-miterlimit="10" stroke-dasharray="" stroke-dashoffset="0" style="mix-blend-mode: normal"><g data-paper-data="{&quot;index&quot;:null}"><path d="M172.31205,175.61485c-5.19399,0.90375 -10.1372,-2.57416 -11.04095,-7.76816c-0.90375,-5.19399 2.57416,-10.1372 7.76816,-11.04095c5.19399,-0.90375 10.1372,2.57416 11.04095,7.76816c0.90375,5.19399 -2.57416,10.1372 -7.76816,11.04095z" fill="#a3b339"></path><path d="M161.88226,162.82318c-0.10215,0.42352 -0.35934,0.77519 -0.35934,0.77519c0,0 0.10215,-0.42353 0.23459,-1.11556c0.13243,-0.69204 0.4086,-1.69413 1.06672,-2.70754c0.32904,-0.50671 0.77157,-1.05499 1.21408,-1.60328c0.59756,-0.47641 1.19511,-0.95283 1.83425,-1.3158c0.75261,-0.40456 1.43333,-0.65406 2.26909,-0.83171c0.83577,-0.17765 1.55807,-0.31371 2.47701,-0.26444c0.38195,-0.0113 0.76389,-0.02261 1.18743,0.07955c0.42353,0.10215 0.96051,0.16271 1.38405,0.26487c0.42354,0.10215 0.84706,0.2043 1.19873,0.46149c0.35167,0.25718 0.77519,0.35935 1.08527,0.50308c1.32348,0.80186 2.38978,1.95537 3.03254,3.00674c0.64276,1.05137 0.97544,1.959 1.22495,2.63972c0.24951,0.68072 0.26081,1.06267 0.26081,1.06267c0,0 -0.23821,-0.29877 -0.60118,-0.93791c-0.32138,-0.52568 -0.99442,-1.30855 -1.78092,-2.04984c-0.39325,-0.37064 -0.82808,-0.85473 -1.33479,-1.1838c-0.5067,-0.32907 -1.0134,-0.65812 -1.63356,-0.9456c-0.31007,-0.14373 -0.62015,-0.28748 -0.93023,-0.43121c-0.31007,-0.14373 -0.69202,-0.13244 -1.0021,-0.27617l-0.96052,-0.16272c-0.38195,0.0113 -0.76389,0.0226 -1.14584,0.0339c-0.65043,-0.01898 -1.37276,0.11707 -2.09506,0.25313c-0.72232,0.13605 -1.28959,0.34398 -1.97031,0.59349c-0.56726,0.20792 -1.20641,0.57089 -1.73209,0.89227c-0.52568,0.32137 -0.89632,0.71461 -1.26697,1.10787c-0.74129,0.78651 -1.21409,1.60329 -1.6566,2.15158z" fill="#687a27"></path></g><g data-paper-data="{&quot;index&quot;:null}"><path d="M200.78297,139.87064c4.31906,-7.40568 6.57098,-16.39791 8.90951,-18.35526c2.33854,-1.95735 -2.32944,10.0048 -2.32944,10.0048c0,0 10.51144,-10.69338 12.01932,-7.92799c1.65553,2.87875 -6.02079,7.17161 -7.95761,10.68804c0,0 7.60869,-6.13159 6.81434,-1.20227c-0.49163,3.01752 -4.66964,1.7763 -7.75634,6.01826c0,0 4.33309,-0.78386 2.9506,2.97934c-0.85952,2.3778 -4.40074,-1.05483 -6.53139,4.99295" fill="#a3b339"></path><path d="M196.72296,211.26286c-7.82316,-6.71913 -12.33444,-18.57943 -11.06744,-31.72246c1.26701,-13.14305 11.28761,-31.71757 15.12744,-39.66974c4.47415,-9.43077 10.08994,-6.54999 8.01949,3.47493c-2.10673,9.8184 -9.06046,29.85341 -7.60372,36.68917c1.45674,6.83573 2.48784,8.34184 5.79891,14.09933c3.31107,5.75749 -2.30387,23.96122 -10.27469,17.1288z" fill="#a3b339"></path><path d="M207.38531,125.10488c0,0 -0.41163,1.29218 -1.27114,3.66998c-0.85951,2.3778 -2.09188,5.54152 -3.7334,9.28459c-0.37286,0.7859 -0.82075,1.87154 -1.41631,2.84384c-0.48421,0.8791 -0.96842,1.75823 -1.41632,2.84384c-0.93213,1.96477 -1.93929,4.22923 -2.98277,6.2872c-1.00717,2.2645 -2.01435,4.52899 -3.09659,7.09319c-0.97088,2.47102 -2.08942,4.82871 -2.91264,7.41304c-0.97088,2.47102 -1.79411,5.05535 -2.61734,7.6397c-0.71187,2.49114 -1.38745,5.18883 -1.69265,7.8134c-0.00247,0.71279 -0.11629,1.51883 -0.15508,2.0251c-0.00246,0.71279 -0.04123,1.21909 -0.04371,1.93188c-0.04125,1.21909 0.06516,2.5515 0.13527,3.6774c0.17653,2.45829 0.53949,4.52363 0.90244,6.58897c0.91232,3.73772 1.93847,6.66944 2.78316,8.56845c0.4042,0.84625 0.8084,1.69252 0.99234,2.01236c0.22024,0.5264 0.3679,0.63973 0.3679,0.63973c0,0 -0.14765,-0.11332 -0.47925,-0.54653c-0.3316,-0.43319 -0.77456,-0.77318 -1.32641,-1.73274c-1.03111,-1.5061 -2.39132,-4.15819 -3.59895,-8.12258c-0.58566,-1.87893 -1.02121,-4.35734 -1.34539,-6.92896c-0.10641,-1.33239 -0.21282,-2.66482 -0.31924,-3.99723c0.00247,-0.71279 0.00494,-1.42561 -0.02888,-2.34497c0.00247,-0.71279 0.11631,-1.51881 0.11879,-2.23163c0.30768,-3.33738 0.94694,-6.24162 1.73388,-9.03248c0.78694,-2.79086 1.72151,-5.46844 2.76746,-8.23919c0.93459,-2.67757 2.05313,-5.03526 3.13537,-7.59948c1.08225,-2.56422 2.12572,-4.62218 3.24426,-6.97987c1.00718,-2.26449 2.1983,-4.20912 3.13041,-6.17385c0.48421,-0.8791 1.07977,-1.85144 1.56399,-2.73054c0.5205,-0.67255 0.9684,-1.7582 1.37754,-2.33755c1.7141,-3.32998 3.13041,-6.17385 4.17389,-8.23182c1.56149,-2.01771 2.0094,-3.10337 2.0094,-3.10337z" fill="#687a27"></path><path d="M207.74907,148.25475c0,0 -0.75063,2.99744 -1.95166,7.79329c-0.60051,2.39795 -1.27608,5.09561 -1.91536,7.9998c-0.63927,2.90421 -1.24227,6.01494 -1.73389,9.03249c-0.22767,1.61205 -0.34398,3.13086 -0.34892,4.55647c-0.00247,0.71279 -0.00495,1.42562 0.06765,1.83868l0.18148,1.03268l0.14519,0.82614c0.21776,1.23919 0.54691,2.38518 0.98738,3.43797c0.32912,1.146 0.73332,1.99227 1.06245,3.13825c0.69702,1.78571 1.35776,3.3649 1.79824,4.4177c0.44048,1.05277 0.80838,1.69251 0.80838,1.69251c0,0 -1.51284,-1.33979 -3.46367,-4.4452c-0.51555,-0.75305 -0.95606,-1.80585 -1.39653,-2.85864c-0.44048,-1.05277 -0.91727,-2.3121 -1.28269,-3.66463l-0.32912,-1.14601l-0.18147,-1.03268c-0.18147,-1.03267 -0.2153,-1.95199 -0.24912,-2.87134c-0.06764,-1.83869 0.12373,-3.65725 0.3151,-5.47584c0.53038,-3.5238 1.24473,-6.72775 1.99537,-9.72518c0.75063,-2.99743 1.68522,-5.67496 2.46969,-7.75304c1.82792,-4.13605 3.02153,-6.79346 3.02153,-6.79346z" fill="#687a27"></path><path d="M207.36304,131.52016c0,0 0.55927,-1.17882 1.56397,-2.73051c1.00471,-1.55167 2.49114,-3.26965 3.9751,-4.27482c0.7795,-0.65246 1.59531,-1.09837 2.29975,-1.45108c0.70446,-0.3527 1.44519,-0.4989 2.11088,-0.34533c0.259,0.02012 0.62938,-0.05295 0.81333,0.26691c0.259,0.02011 0.40666,0.13344 0.59062,0.4533c0.33159,0.43319 0.47925,0.54653 0.47925,0.54653c0,0 -0.25902,-0.02014 -0.5931,0.2595c-0.11136,0.09322 -0.33406,0.27962 -0.59309,0.25951c-0.22271,0.18642 -0.44544,0.37282 -0.8158,0.44592c-0.22273,0.18642 -0.5568,0.46604 -0.89087,0.74566c-0.33407,0.27963 -0.66815,0.55926 -1.00223,0.83888c-0.66815,0.55924 -1.44766,1.21169 -2.11582,1.77095c-1.44766,1.21169 -2.93161,2.21684 -4.11779,2.73588c-0.85211,0.2394 -1.70421,0.47875 -1.70421,0.47875z" fill="#687a27"></path><path d="M218.38676,133.19132c0,0 -0.03629,-0.20653 -0.10888,-0.61961c-0.03629,-0.20653 -0.14765,-0.1133 -0.29531,-0.22664c-0.11136,0.09322 -0.259,-0.02013 -0.37036,0.07308c-0.11136,0.09322 -0.22272,0.18642 -0.48174,0.1663c-0.11136,0.09321 -0.33406,0.27961 -0.59309,0.2595c-0.33408,0.27961 -0.81581,0.44593 -1.29755,0.61223c-0.22272,0.18643 -0.48172,0.16631 -0.70444,0.35271c-0.22272,0.18643 -0.48173,0.16629 -0.70444,0.35271c-0.48173,0.16628 -0.8521,0.23939 -1.22248,0.31248c-0.74075,0.14619 -1.29507,-0.10059 -1.29507,-0.10059c0,0 0.37286,-0.78589 0.96841,-1.75822c0.29777,-0.48616 0.74321,-0.85899 1.15236,-1.43836c0.44543,-0.37282 0.89087,-0.74568 1.3726,-0.91196c0.48173,-0.16628 1.07482,-0.42579 1.48149,-0.29233c0.25901,0.02012 0.51802,0.04022 0.77703,0.06034c0.259,0.02012 0.44295,0.33998 0.59062,0.4533c0.18394,0.31984 0.36788,0.63972 0.44048,1.05278c0.07259,0.41307 0.14518,0.82612 0.07012,1.12588c0.2953,0.22665 0.07259,0.41307 0.22024,0.52637z" fill="#687a27"></path><path d="M213.58101,142.18886c0,0 -0.0363,-0.20653 -0.07259,-0.41306c-0.03628,-0.20653 -0.10889,-0.61957 -0.25654,-0.73291c0,0 -0.14764,-0.11333 -0.11135,0.0932l-0.11135,0.0932c-0.11136,0.09322 -0.11136,0.0932 -0.25901,-0.02012l-0.25901,-0.02012c-0.40667,-0.13344 -0.84964,-0.47342 -1.2926,-0.8134c-0.44295,-0.33998 -0.66321,-0.86639 -0.66321,-0.86639c0,0 0.26149,-0.69267 0.70693,-1.06549c0.44544,-0.37282 1.11359,-0.9321 1.81557,-0.57198c0.14763,0.11332 0.29528,0.22665 0.55431,0.24676c0.14765,0.11332 0.3316,0.43318 0.47925,0.54652c0.18395,0.31984 0.25653,0.73294 0.32912,1.14601c0.07257,0.41306 0.03382,0.91933 -0.04124,1.21909c-0.11383,0.80601 -0.33656,0.99243 -0.55928,1.17883c-0.14765,-0.11332 -0.25901,-0.02011 -0.25901,-0.02011z" fill="#687a27"></path></g><g data-paper-data="{&quot;index&quot;:null}"><path d="M207.39771,166.21661c0,0 -13.31034,-9.27786 -32.27206,-4.12938c0,0 11.05644,-24.25799 25.81804,-40.8653c0,0 7.1695,38.16889 6.45401,44.99468z" fill="#6d4b9b"></path><path d="M207.12238,159.49658c0.30964,4.0048 0.2753,6.72001 0.2753,6.72001c0,0 -0.57451,-2.62074 -1.26611,-6.61423c-0.36658,-2.05346 -0.81634,-4.33384 -1.08078,-6.81085c-0.18896,-1.21772 -0.41948,-2.54887 -0.65001,-3.88004c-0.23053,-1.33116 -0.34761,-2.7039 -0.57814,-4.03507c-0.23053,-1.33116 -0.34761,-2.7039 -0.57814,-4.03507c-0.23053,-1.33115 -0.30602,-2.59044 -0.49497,-3.80816c-0.26444,-2.477 -0.60075,-4.79897 -0.85388,-6.89403c-0.21155,-1.9816 -0.33993,-3.73629 -0.48729,-4.84055c-0.0339,-1.14585 -0.16996,-1.86815 -0.16996,-1.86815c0,0 0.84302,2.65101 1.76152,6.56134c0.48005,2.01189 0.92981,4.29227 1.34928,6.84114c0.53294,2.50728 0.88054,5.2112 1.22815,7.91511c0.34761,2.7039 0.69521,5.40781 0.95965,7.88482c0.26445,2.477 0.48729,4.84055 0.58539,6.86374z" fill="#4a3369"></path><path d="M187.81073,148.94364c0,0 -2.13301,1.55401 -6.25894,2.93763c0,0 1.36188,-4.36007 2.57596,-5.96335c0,0 -0.15505,-0.07187 -0.39326,-0.37065c0.87373,-1.47852 1.81932,-3.11209 2.87837,-4.78724c0.15505,0.07187 0.19662,0.18532 0.35167,0.25719c0,0 2.85939,-4.13679 4.0016,-5.58503c0,0 1.9961,5.44579 1.34928,6.84114c0,0 5.86526,0.55277 8.00553,1.82743c0,0 -5.38927,3.90583 -7.73384,3.47824c0,0 1.28147,4.54945 0.41905,6.40993c0,0 -4.49976,-3.49852 -5.19541,-5.04528z" fill="#e0c448"></path><path d="M179.06305,155.62488c-2.29211,3.92887 -3.93741,6.46238 -3.93741,6.46238c0,0 1.02513,-2.82098 2.96559,-7.00705c0.93428,-2.01551 2.08418,-4.49613 3.50257,-6.94648c0.68841,-1.2819 1.37681,-2.5638 2.06521,-3.8457c0.80185,-1.32349 1.49025,-2.60539 2.29211,-3.92887c1.60371,-2.64697 3.249,-5.18047 4.82244,-7.55895c0.84344,-1.21003 1.61501,-2.26504 2.38659,-3.32002c0.77158,-1.05499 1.58474,-1.99653 2.28444,-2.89648c0.69971,-0.89996 1.44101,-1.68645 2.11042,-2.31791c0.66942,-0.63146 1.2254,-1.22133 1.70949,-1.65617c1.08165,-0.91125 1.6792,-1.38768 1.6792,-1.38768c0,0 -0.4425,0.54829 -1.32754,1.64486c-0.44251,0.54829 -0.84345,1.21002 -1.47128,1.95494c-0.51438,0.70331 -1.10063,1.56168 -1.75875,2.57509c-1.24437,1.87176 -2.74593,4.09521 -4.20591,6.4321c-0.72999,1.16845 -1.53185,2.49193 -2.26184,3.66037c-0.80184,1.32349 -1.49024,2.60538 -2.33369,3.81541c-1.60371,2.64697 -3.09396,5.25235 -4.55394,7.58924c-1.41839,2.45035 -2.76491,4.74565 -3.96769,6.73088z" fill="#4a3369"></path></g><path d="M240.82792,195.27469c-5.71558,13.54898 -32.69628,35.79334 -32.69628,35.79334c-4.3637,-2.77621 -17.01505,-20.78958 -17.01505,-20.78958c-0.18531,0.19662 -8.79927,-5.39739 -8.79927,-5.39739c0,0 17.87222,-35.50759 36.89045,-38.74634c0,0 4.28372,7.82469 1.16715,12.31315z" data-paper-data="{&quot;index&quot;:null}" fill="#4a3369"></path><g data-paper-data="{&quot;index&quot;:null}"><g fill="#a3b339"><path d="M310.18762,225.14486c-6.15415,-4.61097 -16.6984,-5.78504 -13.18191,-13.61333c3.66998,-8.46065 17.24215,-0.64059 22.78231,6.49982c5.52303,7.02078 -3.46341,11.60488 -9.6004,7.1135z"></path><path d="M317.15449,214.13638c2.23876,0.28944 12.85448,7.92295 12.48014,11.27252c-0.37433,3.34954 -5.17926,-2.91968 -6.3064,-1.41534c-1.12712,1.50436 3.47328,8.90154 2.15837,10.79901c-1.31491,1.89749 -3.95091,-7.12407 -3.95091,-7.12407c0,0 2.00488,11.43135 -0.35308,12.0135c-2.37509,0.46254 -2.07262,-10.20093 -2.07262,-10.20093c0,0 -1.3798,9.10892 -3.73776,9.69107c-2.37511,0.46254 -0.65196,-5.3997 0.61151,-7.65601c1.26347,-2.25631 -2.56576,-5.12537 -5.81327,-6.4909"></path></g><path d="M295.97816,206.91806c12.62748,-2.17632 19.68789,3.6475 7.3364,11.15537c-15.05072,9.1155 -29.8839,8.67832 -33.37351,1.36605c-2.80539,-5.9455 13.27288,-10.44756 26.03711,-12.52142z" fill="#a3b339"></path><path d="M253.85581,209.4162c-11.33875,-18.63828 4.35943,-31.75284 12.46001,-30.59471c8.10058,1.15813 26.84349,29.72135 21.92758,41.41237c-5.05227,12.44298 -27.06792,1.07251 -34.38759,-10.81768z" fill="#a3b339"></path><path d="M250.45324,205.26526c-0.29067,-0.32455 -0.29067,-0.32455 -0.29067,-0.32455c0.03429,0.23921 0.17105,0.34168 0.20534,0.58091c0.29067,0.32453 0.61561,0.88832 1.1798,1.41779c1.0259,1.19571 2.73558,2.90375 4.71879,4.81674c1.9832,1.91298 4.47914,3.99658 7.33393,6.02877c1.36759,1.02464 2.85478,2.03217 4.44445,2.90293c1.58964,0.87075 3.17931,1.74152 4.8543,2.3559c1.67497,0.61439 3.33282,1.10916 5.05883,1.22796c0.87158,0.1192 1.58925,0.01633 2.54615,-0.12084c0.83729,-0.12002 1.79419,-0.25719 2.63148,-0.37721c1.67456,-0.24004 3.34916,-0.4801 4.90411,-0.70299c1.55494,-0.22291 2.97315,-0.54827 4.39135,-0.87364c1.29859,-0.30822 2.59718,-0.61643 3.65655,-0.89037c1.05937,-0.27393 1.98198,-0.65033 2.80212,-0.88996c0.68338,-0.34211 1.3839,-0.5646 1.7256,-0.73565c0.34168,-0.17106 0.56376,-0.32496 0.56376,-0.32496c0,0 -0.63195,0.70096 -2.10118,1.52191c-0.66623,0.46171 -1.58884,0.8381 -2.61391,1.35126c-1.04223,0.39356 -2.30652,0.94099 -3.58797,1.36883c-2.68249,0.87281 -5.87774,1.57498 -9.32935,2.19183c-0.83729,0.12002 -1.79419,0.25719 -2.63148,0.37721c-0.95691,0.13716 -1.93096,0.15473 -2.905,0.17228c-1.98237,-0.20411 -3.87945,-0.66459 -5.57158,-1.39859c-1.81173,-0.71685 -3.41854,-1.70723 -5.02536,-2.6976c-1.60682,-0.99036 -3.11116,-2.11748 -4.47875,-3.14215c-2.75232,-2.16893 -5.16295,-4.50891 -7.04369,-6.55865c-1.88073,-2.04972 -3.36834,-3.91167 -4.29177,-5.24415c-0.46171,-0.66624 -0.78667,-1.23 -0.95772,-1.5717c-0.15391,-0.22207 -0.17105,-0.34168 -0.1882,-0.4613z" fill="#687a27"></path><path d="M294.30357,207.15808c-3.69084,0.65116 -6.1684,1.25045 -6.1684,1.25045c0,0 0.58091,-0.20535 1.62313,-0.59889c1.04222,-0.39354 2.56288,-0.85566 4.45953,-1.24961c1.89666,-0.39396 4.03253,-0.8222 6.57868,-0.94304c2.42654,-0.10369 5.14373,0.11714 7.62213,1.22672c0.64949,0.27312 1.19652,0.68298 1.72642,0.97323c0.54703,0.40988 1.07691,0.70012 1.50434,1.12714c1.07693,0.70011 2.03423,1.41738 2.99154,2.13464c1.89746,1.3149 3.67533,2.64696 5.29929,3.75695c1.50436,1.12714 2.75233,2.16895 3.57288,2.78375c0.41027,0.3074 0.82056,0.61479 0.97446,0.83687c0.13675,0.10246 0.27352,0.20493 0.27352,0.20493l-0.01715,-0.11962c0,0 0.11962,-0.01715 0.01715,0.11962c-0.11961,0.01715 -0.25637,-0.08533 -0.37599,-0.06818c-0.25636,-0.08531 -0.64948,-0.2731 -1.17938,-0.56335c-1.04263,-0.46088 -2.49553,-1.22917 -4.0852,-2.09993c-1.60681,-0.99037 -3.58961,-2.04891 -5.50422,-3.48344c-0.95731,-0.71726 -2.01708,-1.29777 -2.99154,-2.13464c-0.54703,-0.40988 -0.9573,-0.71727 -1.50434,-1.12714c-0.54703,-0.40986 -0.9573,-0.71726 -1.47005,-0.8879c-2.1024,-1.04139 -4.5975,-1.41615 -6.92159,-1.44921c-2.32408,-0.03305 -4.49424,0.15597 -6.42519,0.31069z" fill="#687a27"></path><path d="M323.37965,224.35247c-0.15392,-0.22208 -0.06859,-0.47846 -0.06859,-0.47846c0,0 0.0343,0.23922 0.1882,0.4613c0.15391,0.22208 0.3421,0.68339 0.5303,1.14469c0.18819,0.46131 0.51314,1.02509 0.8381,1.58885c0.32495,0.56377 0.54744,1.2643 0.88955,1.94768c0.56461,1.38392 0.77035,2.81925 0.70259,4.04968c-0.03387,0.61522 -0.20452,1.12795 -0.40945,1.40147c-0.20493,0.27353 -0.44416,0.30782 -0.44416,0.30782c0,0 0,0 0.10247,-0.13677c-0.01715,-0.11961 0.08533,-0.25637 0.06818,-0.37599c-0.03429,-0.23923 -0.10287,-0.71769 -0.29107,-1.17899c-0.3764,-0.92262 -0.92383,-2.18691 -1.35167,-3.46836c-0.22249,-0.70053 -0.42784,-1.28145 -0.65033,-1.98198c-0.22248,-0.70052 -0.30821,-1.2986 -0.27433,-1.9138c-0.08572,-0.59807 -0.03469,-1.09366 0.17024,-1.36718z" fill="#687a27"></path><path d="M321.55367,229.49693c-0.03471,-1.09366 0.10164,-1.84562 0.10164,-1.84562c0,0 0.46172,0.66623 0.8724,1.82807c0.20534,0.58092 0.42784,1.28145 0.65033,1.98198c0.10288,0.7177 0.22289,1.55498 0.32577,2.27265c0.00042,0.85442 -0.01632,1.58926 -0.15267,2.34122c-0.13635,0.75197 -0.27269,1.50393 -0.68256,2.05097c-0.08532,0.25637 -0.29026,0.52989 -0.49519,0.80341c-0.22209,0.15391 -0.3074,0.41028 -0.42702,0.42743c-0.34169,0.17105 -0.44416,0.30782 -0.44416,0.30782c0,0 0.08531,-0.25637 0.17064,-0.51275c0.10247,-0.13675 0.06817,-0.37597 0.1535,-0.63235c0.08532,-0.25636 0.05102,-0.49558 0.13635,-0.75196c0.0853,-0.25637 0.03387,-0.6152 -0.00042,-0.85443c0.08533,-0.25637 0.03389,-0.61519 -0.01755,-0.97404c0.01673,-0.73481 -0.08614,-1.45251 -0.06941,-2.18732c-0.08614,-1.45249 -0.18942,-3.02459 -0.12166,-4.25502z" fill="#687a27"></path><path d="M316.10705,239.1889c-0.34168,0.17105 -0.59806,0.08572 -0.59806,0.08572c0,0 0.10247,-0.13676 0.3074,-0.41028c0.08533,-0.25637 0.27311,-0.64949 0.34129,-1.02548c0.23881,-0.88871 0.42619,-2.13629 0.85279,-3.41814c0.30698,-1.26471 0.75073,-2.42695 1.22877,-3.34997c0.35843,-0.90588 0.87076,-1.58967 0.87076,-1.58967c0,0 0.22249,0.70053 0.24004,1.67457c0.01754,0.97404 -0.03307,2.32407 -0.44252,3.72554c-0.1535,0.63236 -0.4266,1.28185 -0.69971,1.93136c-0.29026,0.52989 -0.5805,1.05977 -1.00752,1.4872c-0.30742,0.41027 -0.75156,0.71808 -1.09326,0.88913z" fill="#687a27"></path><path d="M302.83777,221.55972c-1.07692,-0.70012 -2.05138,-1.53699 -2.05138,-1.53699c0,0 1.24756,0.18738 2.80294,0.81891c0.88871,0.2388 1.81174,0.71685 2.85437,1.17775c1.04263,0.46089 2.10241,1.0414 3.04257,1.63905c0.52989,0.29025 1.05977,0.5805 1.47005,0.8879c0.52989,0.29025 0.95731,0.71727 1.36759,1.02467c0.95731,0.71726 1.65826,1.34921 2.35919,1.98116c0.58133,0.6491 1.04305,1.31534 1.24839,1.89625c0.0343,0.23921 0.06859,0.47843 -0.03388,0.6152c-0.10247,0.13677 -0.10247,0.13677 -0.10247,0.13677c0,0 -0.01714,-0.11961 -0.03429,-0.23923c-0.01715,-0.1196 -0.05143,-0.35883 -0.1882,-0.4613c-0.29067,-0.32455 -0.95732,-0.71727 -1.64111,-1.2296c-1.47006,-0.88791 -3.46999,-2.06604 -5.58955,-3.22706c-0.94016,-0.59766 -1.99994,-1.17817 -2.9401,-1.77582c-0.94017,-0.59764 -1.76072,-1.21244 -2.56413,-1.70763z" fill="#687a27"></path></g><g data-paper-data="{&quot;index&quot;:null}"><path d="M181.52722,202.72544c-18.26478,-4.88792 -24.49213,-13.80195 -25.22532,-17.90889c-0.83895,-5.09774 4.18459,-18.77915 17.7837,-21.70462c13.5991,-2.92547 25.47742,-4.57673 34.79064,3.97839c9.50984,8.74043 39.09378,7.29159 52.25356,10.1898c13.15979,2.89821 28.74515,25.75618 25.30227,39.88779c-3.32942,14.09002 -52.29947,28.30728 -74.50674,7.74781c-22.20726,-20.55948 -21.73086,-19.96192 -30.39812,-22.19028z" fill="#a3b339"></path><path d="M160.08102,173.00687c-0.88502,1.09657 -1.3994,1.79991 -1.3994,1.79991c0,0 0.07188,-0.15504 0.32907,-0.50671c0.14373,-0.31009 0.4728,-0.81678 0.87372,-1.47853c0.40094,-0.66173 0.91531,-1.36507 1.50156,-2.22343c0.58625,-0.85836 1.44099,-1.68644 2.29574,-2.51453c0.96821,-0.86967 1.9364,-1.73934 3.17309,-2.57873c1.2367,-0.83937 2.62843,-1.6069 4.06174,-2.26096c1.43332,-0.65407 3.02168,-1.23627 4.6932,-1.59155c1.62994,-0.46873 3.38464,-0.59713 4.94271,-0.91082c3.31275,-0.44206 6.62552,-0.88415 9.75297,-1.12961c1.64125,-0.0868 3.16903,-0.13199 4.62495,-0.02217c1.4559,0.10982 2.83997,0.3747 4.11056,0.68115c0.57858,0.17402 1.15715,0.34803 1.77731,0.63551c0.46513,0.21561 1.08528,0.50308 1.5504,0.71869c0.46513,0.2156 0.81678,0.47279 1.2819,0.6884c0.35166,0.2572 0.70333,0.51439 1.01341,0.65812c0.66174,0.40095 0.94153,0.81317 1.2932,1.07036c0.35167,0.25719 0.39326,0.37065 0.39326,0.37065c0,0 -0.15504,-0.07188 -0.50671,-0.32907c-0.31009,-0.14373 -0.81678,-0.4728 -1.47853,-0.87372c-0.31008,-0.14374 -0.66173,-0.40092 -1.08527,-0.50308c-0.42355,-0.10214 -0.7752,-0.35933 -1.24032,-0.57494c-0.88865,-0.31776 -2.04579,-0.6658 -3.16135,-0.90039c-1.229,-0.193 -2.45801,-0.38599 -3.87235,-0.38237c-1.41434,0.00363 -2.82868,0.00725 -4.42833,0.2075c-1.4862,0.15865 -3.08586,0.3589 -4.68551,0.55915c-1.59965,0.20024 -3.31277,0.44208 -4.91242,0.64233c-1.71311,0.24183 -3.19931,0.4005 -4.87083,0.75578c-1.55808,0.3137 -3.07456,0.74085 -4.43601,1.23988c-1.36145,0.49903 -2.79475,1.15309 -3.95958,1.83744c-1.33884,1.26292 -2.34863,2.01913 -3.35841,2.77535c-1.00979,0.75622 -1.75108,1.54271 -2.53395,2.21576c-0.78287,0.67305 -1.29726,1.37638 -1.73977,1.92467z" fill="#687a27"></path><path d="M164.2464,191.04198c-3.37696,-0.43527 -5.76312,-0.97631 -5.76312,-0.97631c0,0 2.36354,-0.22286 6.03928,-0.0258c1.83785,0.09853 3.94422,0.22734 6.09216,0.4696c1.07397,0.12113 2.30298,0.31413 3.41854,0.54872c1.22901,0.193 2.34457,0.42759 3.57358,0.62059c1.11556,0.23459 2.38616,0.54104 3.50172,0.77563c1.11556,0.23458 2.2727,0.58262 3.38826,0.81721c1.11556,0.23458 2.11766,0.51074 3.15005,0.51843c0.96052,0.16272 1.92103,0.32544 2.83997,0.37471c1.72442,0.14013 3.25221,0.09491 4.24301,-0.01086c0.9908,-0.10577 1.55807,-0.31369 1.55807,-0.31369c0,0 -0.52568,0.32138 -1.58835,0.58219c-1.06267,0.26081 -2.50729,0.53294 -4.37544,0.7029c-1.79628,0.01493 -4.01609,-0.07229 -6.20562,-0.42801c-1.18743,-0.07954 -2.23112,-0.46917 -3.46013,-0.66217c-1.11556,-0.23458 -2.34457,-0.42758 -3.46013,-0.66217c-4.68912,-0.85516 -9.37827,-1.71034 -12.95185,-2.33093z" fill="#687a27"></path><path d="M168.57386,179.67488c0,0 -0.04158,-0.11345 -0.08317,-0.22691c-0.04158,-0.11345 -0.12476,-0.34035 -0.09447,-0.60885c0.03028,-0.26849 0.17403,-0.57857 0.31776,-0.88865c0.14374,-0.31007 0.44251,-0.54829 0.74129,-0.7865c0.29878,-0.23821 0.63913,-0.36297 1.02108,-0.37427c0.2269,-0.08317 0.38194,-0.0113 0.65044,0.01899c0.15504,0.07186 0.35167,0.25718 0.43484,0.48409c0.08318,0.2269 0.0113,0.38194 0.05289,0.4954c0.04159,0.11346 -0.07186,0.15503 -0.14373,0.31008c-0.07186,0.15503 -0.18532,0.19662 -0.18532,0.19662c0,0 -0.04158,-0.11345 -0.08317,-0.22691c-0.04159,-0.11346 -0.12475,-0.34037 -0.23821,-0.29878c0,0 0,0 -0.11346,0.04159c0,0 -0.11345,0.04158 -0.22691,0.08317c-0.11345,0.04158 -0.22691,0.08317 -0.22691,0.08317c-0.11346,0.04159 -0.22691,0.08316 -0.29878,0.23821c-0.2269,0.08317 -0.41223,0.27981 -0.59755,0.47643c-0.18531,0.19663 -0.29877,0.23822 -0.48409,0.43484c-0.07186,0.15503 -0.29878,0.23821 -0.44251,0.54829z" fill="#687a27"></path><path d="M164.49552,195.58374c-0.43483,-0.4841 -0.7865,-0.74129 -0.7865,-0.74129c0,0 0.35166,0.2572 1.01341,0.65812c0.66175,0.40094 1.74702,0.90402 2.98734,1.47896c1.39535,0.64681 2.94575,1.36549 4.87808,2.07288c1.93236,0.70739 4.06131,1.60009 6.3756,2.29618c2.38615,0.54103 5.15425,1.07079 7.86179,2.13751c2.821,1.02514 5.46797,2.62886 8.01278,4.6561c2.50323,1.91379 5.01777,4.20953 7.30539,6.58844c2.28763,2.37892 4.68871,4.71624 7.16166,6.89852c2.47294,2.18228 5.13122,4.16794 7.93322,5.84352c2.802,1.67558 5.63428,3.08267 8.61032,4.17968c5.79702,2.12214 11.632,2.94341 16.56702,3.06497c2.44671,0.00406 4.77997,0.0497 6.76158,-0.16185c2.02319,-0.09809 3.73629,-0.33993 5.2225,-0.49859c1.4862,-0.15867 2.59046,-0.30602 3.42622,-0.48367c0.72232,-0.13606 1.21772,-0.18895 1.21772,-0.18895c0,0 -0.34037,0.12475 -1.17613,0.3024c-0.72232,0.13607 -1.89843,0.43847 -3.34306,0.71058c-1.44462,0.27213 -3.22959,0.669 -5.2112,0.88055c-2.05348,0.3666 -4.34515,0.4344 -6.90533,0.47194c-5.12035,0.07506 -11.09906,-0.43613 -17.16457,-2.58856c-2.97604,-1.097 -6.03523,-2.42092 -8.99228,-4.16837c-2.84359,-1.78904 -5.61532,-3.73311 -8.2433,-5.98726c-2.62799,-2.25415 -4.91562,-4.63305 -7.20324,-7.01196c-2.28764,-2.37891 -4.64714,-4.60278 -7.03691,-6.55815c-1.25162,-0.95688 -2.46165,-1.80032 -3.67168,-2.64377c-1.32349,-0.80186 -2.56379,-1.37682 -3.80411,-1.95176c-2.59407,-1.10831 -5.24873,-1.67965 -7.71805,-2.44759c-2.46933,-0.76794 -4.52641,-1.81569 -6.38689,-2.67811c-1.86047,-0.86241 -3.45245,-1.69456 -4.73435,-2.38296c-1.2819,-0.6884 -2.2953,-1.34653 -2.95705,-1.74745z" fill="#687a27"></path></g><g data-paper-data="{&quot;index&quot;:null}"><g fill="#a3b339"><path d="M303.26444,241.19002c-5.13517,-6.16019 -15.59023,-10.37682 -9.89553,-16.90635c6.11538,-6.96317 17.96206,4.49587 21.74768,12.94959c3.78561,8.45372 -6.71699,10.11698 -11.85216,3.95679z"></path><path d="M313.40577,232.61056c2.23681,0.99151 10.99235,11.47202 9.7751,14.60096c-1.21724,3.12894 -4.4747,-4.30734 -6.01326,-3.2073c-1.51968,1.2194 1.29225,9.70498 -0.6859,11.11932c-1.8399,1.51479 -2.12068,-7.98334 -2.12068,-7.98334c0,0 -1.08767,11.6723 -3.68848,11.47248c-2.60079,-0.19982 0.5606,-10.36542 0.5606,-10.36542c0,0 -3.80295,8.43209 -6.40376,8.23227c-2.60083,-0.19982 0.73877,-5.37764 2.66023,-7.15004c2.02191,-1.91065 -1.26528,-5.672 -4.20629,-8.02008"></path></g><path d="M263.35378,224.02111c-1.27824,-6.52632 16.39926,-6.14499 30.11343,-4.52429c13.71416,1.6207 19.47198,9.39506 4.62318,12.97003c-18.0145,4.44333 -33.21267,-0.3679 -34.73662,-8.44574z" fill="#a3b339"></path><path d="M270.59096,183.97057c7.99846,3.38228 19.59123,36.41354 11.36647,46.27993c-8.64546,10.30003 -28.15252,-7.04163 -32.51217,-20.6651c-6.66231,-21.21095 13.14727,-28.99709 21.1457,-25.61483z" fill="#a3b339"></path><path d="M247.01838,205.07609c-0.21385,-0.57784 -0.1323,-0.83544 -0.1323,-0.83544c0,0 -0.08155,0.2576 0.11341,0.71609c0.19494,0.45849 0.4088,1.03634 0.89915,1.81506c0.72309,1.47592 2.03699,3.59232 3.64628,6.02896c1.6093,2.43665 3.63333,5.17462 5.91497,7.99416c1.20049,1.40032 2.40098,2.80063 3.82127,4.0438c1.31984,1.38142 2.85947,2.60568 4.3802,3.7106c1.52072,1.10491 3.14191,2.07158 4.94508,2.64241c0.39584,0.18197 0.89213,0.22571 1.28798,0.40772l0.63453,0.1442l0.75389,0.1253c0.87324,0.10639 1.88472,0.31322 2.75796,0.41961c1.74647,0.21277 3.51183,0.54489 5.25831,0.75768c1.62713,0.23169 3.23535,0.34401 4.72423,0.47525c1.48888,0.13123 2.8395,0.16203 3.95143,0.23062c1.23129,0.04968 2.20497,0.01784 3.0593,0.00487c0.85433,-0.01293 1.57042,-0.12635 1.90956,-0.3024c0.4774,-0.07562 0.69719,-0.23276 0.69719,-0.23276c0,0 -0.89808,0.50925 -2.55004,0.89321c-0.83542,0.13231 -1.90956,0.30241 -3.10304,0.49142c-1.19349,0.18901 -2.54411,0.15822 -4.01409,0.14633c-1.46998,-0.01189 -3.0593,-0.00486 -4.78687,-0.0983c-1.72758,-0.09342 -3.47404,-0.30621 -5.33986,-0.50009c-0.87324,-0.10639 -1.86582,-0.19386 -2.75796,-0.41961l-0.75389,-0.1253l-0.75389,-0.1253c-0.51518,-0.16307 -1.01148,-0.20682 -1.52667,-0.36992c-1.94142,-0.67127 -3.70084,-1.73838 -5.35983,-2.94374c-1.65897,-1.20537 -3.09816,-2.56789 -4.53735,-3.9304c-1.31984,-1.3814 -2.65859,-2.88218 -3.75863,-4.42074c-2.30055,-2.93887 -4.10479,-5.83401 -5.61364,-8.40891c-1.3895,-2.59379 -2.48359,-4.86735 -3.10625,-6.48151c-0.37099,-0.79763 -0.48441,-1.51372 -0.66046,-1.85286z" fill="#687a27"></path><path d="M291.65813,219.66098c-3.90768,-0.72691 -6.62784,-0.90783 -6.62784,-0.90783c0,0 0.71608,-0.1134 1.82801,-0.04481c1.21237,-0.06965 2.92104,-0.09557 4.90621,0.07941c1.98515,0.17498 4.34726,0.41261 6.88543,0.98937c2.41881,0.59567 5.15193,1.63093 7.50215,3.33853c0.553,0.40177 1.12489,0.92292 1.57744,1.46295c0.45257,0.54002 0.8862,0.96072 1.33875,1.50075c0.8862,0.96073 1.77238,1.92147 2.53923,2.90109c1.65302,1.94036 3.14892,3.66091 4.38721,5.29992c1.21939,1.51966 2.30055,2.93888 3.04849,3.79915c0.31429,0.43959 0.6286,0.87919 0.78574,1.09898c0.13824,0.10043 0.15715,0.21979 0.2765,0.20088l-0.01891,-0.11935c0,0 0.11936,-0.01891 0.01891,0.11935c-0.11936,0.01891 -0.13824,-0.10043 -0.2765,-0.20088c-0.27651,-0.20089 -0.69126,-0.50222 -1.106,-0.80357c-0.96774,-0.70312 -2.24977,-1.84584 -3.68896,-3.20835c-1.43919,-1.3625 -3.17378,-3.04525 -4.82681,-4.98561c-0.8862,-0.96073 -1.77238,-1.92147 -2.53923,-2.90109c-0.45257,-0.54002 -0.8862,-0.96072 -1.33875,-1.50075c-0.45255,-0.54004 -0.76684,-0.97963 -1.30094,-1.26207c-1.97328,-1.64495 -4.32944,-2.61758 -6.76716,-3.33259c-2.31837,-0.73392 -4.59894,-1.22914 -6.60301,-1.52347z" fill="#687a27"></path><path d="M317.00452,244.51945c-0.05669,-0.35805 0.1631,-0.51519 0.1631,-0.51519c0,0 0.03781,0.2387 0.07561,0.4774c0.0567,0.35804 0.11341,0.71608 0.20791,1.31282c0.07561,0.47738 0.28945,1.05522 0.40286,1.77131c0.0945,0.59673 0.2079,1.31282 0.32131,2.02891c0.10745,1.45108 0.09557,2.92105 -0.33106,4.08968c-0.16311,0.51521 -0.5649,1.0682 -0.78469,1.22534c-0.33914,0.17605 -0.57784,0.21385 -0.57784,0.21385c0,0 0,0 0.10045,-0.13826c0.11933,-0.0189 0.10043,-0.13824 0.20088,-0.2765c0.08155,-0.25761 0.02485,-0.61565 0.04969,-1.23129c-0.1512,-0.95479 -0.37802,-2.38696 -0.46657,-3.71868c-0.11341,-0.71608 -0.10746,-1.45107 -0.08262,-2.06671c0.00594,-0.73499 0.03078,-1.35063 0.19388,-1.86582c0.16309,-0.51519 0.3262,-1.03038 0.52708,-1.30688z" fill="#687a27"></path><path d="M313.6897,249.08162c0.28838,-1.26908 0.65237,-2.06077 0.65237,-2.06077c0,0 0.25165,0.81653 0.44066,2.01001c0.09451,0.59673 0.08856,1.33173 0.08262,2.06671c-0.00595,0.73499 -0.11233,1.60822 -0.35697,2.38101c-0.24465,0.77279 -0.48928,1.54558 -0.73392,2.31837c-0.18197,0.39584 -0.38289,0.67233 -0.58377,0.94883c-0.20088,0.2765 -0.4018,0.55299 -0.60268,0.82949c-0.20088,0.2765 -0.42069,0.43367 -0.64048,0.59081c-0.21979,0.15716 -0.43958,0.3143 -0.55893,0.33321c-0.35804,0.0567 -0.59674,0.0945 -0.59674,0.0945c0,0 0.10047,-0.13824 0.30135,-0.41474c0.10043,-0.13825 0.20089,-0.2765 0.28244,-0.5341c0.10045,-0.13825 0.182,-0.39584 0.26355,-0.65344c0.08154,-0.2576 0.16309,-0.51519 0.24464,-0.77279c0.08155,-0.25761 0.1442,-0.63454 0.22575,-0.89214c0.1442,-0.63454 0.26948,-1.38842 0.51412,-2.16121c0.25059,-1.50778 0.63942,-2.91511 1.06605,-4.08374z" fill="#687a27"></path><path d="M305.60219,256.72416c-0.49627,-0.04375 -0.75388,-0.12529 -0.63453,-0.1442c0,0 0.2387,-0.0378 0.32025,-0.2954c0.21979,-0.15715 0.40178,-0.553 0.70313,-0.96774c0.30135,-0.41476 0.46442,-0.92994 0.88512,-1.36359c0.28245,-0.5341 0.68423,-1.08709 0.96667,-1.62119c0.68421,-1.0871 1.4878,-2.19309 2.10938,-2.90322c0.60269,-0.82947 1.28097,-1.18158 1.28097,-1.18158c0,0 -0.00594,0.73499 -0.21279,1.74648c-0.20685,1.01148 -0.73393,2.31836 -1.5375,3.42436c-0.40179,0.55299 -0.80356,1.106 -1.20536,1.65899c-0.42069,0.43364 -0.96071,0.88618 -1.40031,1.20049c-0.4396,0.31431 -0.91699,0.3899 -1.27504,0.44661z" fill="#687a27"></path><path d="M296.86714,236.33081c-1.21939,-1.51965 -1.88579,-2.63753 -1.88579,-2.63753c0,0 1.18755,0.54598 2.70828,1.6509c0.81061,0.48333 1.65899,1.20537 2.62673,1.9085c0.96774,0.70311 1.83504,1.54449 2.84057,2.48632c0.8862,0.96072 1.75349,1.80211 2.52034,2.78173c0.76685,0.97962 1.39544,1.85881 1.88579,2.63753c0.50926,0.89808 0.86135,1.57637 0.83651,2.19201c0.05671,0.35804 -0.02485,0.61563 -0.1253,0.75389c-0.10044,0.13823 -0.21979,0.15714 -0.21979,0.15714c0,0 -0.0189,-0.11935 0.10045,-0.13826c-0.01889,-0.11935 -0.01889,-0.11935 -0.0378,-0.2387c-0.01891,-0.11935 -0.03779,-0.23869 -0.17605,-0.33914c-0.19494,-0.45848 -0.76682,-0.97962 -1.35763,-1.6201c-0.71012,-0.62158 -1.43918,-1.36252 -2.30647,-2.20389c-0.43365,-0.4207 -0.86729,-0.84137 -1.30094,-1.26207c-0.43365,-0.4207 -0.86729,-0.84137 -1.30094,-1.26207c-0.43365,-0.4207 -0.86729,-0.84137 -1.30094,-1.26207c-0.43365,-0.4207 -0.86729,-0.84137 -1.30094,-1.26207c-0.86728,-0.84139 -1.61522,-1.70166 -2.20603,-2.34214z" fill="#687a27"></path><path d="M272.68356,185.59661c-0.64749,-0.99853 -1.10004,-1.53856 -1.10004,-1.53856c0,0 0.45256,0.54003 1.31985,1.3814c0.74793,0.86028 1.92953,2.14125 3.16782,3.78026c0.62859,0.87916 1.25719,1.75835 1.90469,2.75688c0.6475,0.99852 1.29499,1.99705 1.84205,3.13383c0.6664,1.11787 1.21344,2.25464 1.7794,3.51077c0.56594,1.25613 1.1319,2.51224 1.45915,3.80617c0.4466,1.27504 0.77384,2.56895 1.23936,3.96333c0.23275,0.69719 0.32725,1.29392 0.44066,2.01001c0.09449,0.59674 0.32724,1.29392 0.3024,1.90956c0.09451,0.59675 0.2079,1.31283 0.18306,1.92847c0.0945,0.59672 0.06965,1.21237 0.04481,1.82801c0.06967,1.21237 0.00109,2.32431 -0.08641,3.31689c0.03186,0.97368 -0.17496,1.98516 -0.30026,2.73905c-0.06264,0.37694 -0.1253,0.75389 -0.18794,1.13083c-0.06265,0.37695 -0.1442,0.63454 -0.22575,0.89214c-0.30728,1.14973 -0.57083,1.80317 -0.57083,1.80317c0,0 0.02484,-0.61565 0.19388,-1.86582c0.08156,-0.2576 0.02486,-0.61564 0.0875,-0.99258c-0.05671,-0.35804 0.00595,-0.73499 0.06859,-1.11193c-0.01295,-0.85434 0.09345,-1.72757 -0.05776,-2.68235c-0.03185,-0.97369 -0.08261,-2.06672 -0.27162,-3.2602c-0.05076,-1.09303 -0.35911,-2.26761 -0.56702,-3.58043c-0.18901,-1.19349 -0.63562,-2.46851 -0.84353,-3.78133c-0.32725,-1.29392 -0.77385,-2.56895 -1.20155,-3.72462c-0.4466,-1.27503 -0.89319,-2.55004 -1.44025,-3.68682c-0.54705,-1.13679 -0.99364,-2.4118 -1.5407,-3.54858c-0.54707,-1.13677 -1.0752,-2.15421 -1.60336,-3.17163c-0.52815,-1.01742 -1.03739,-1.91551 -1.54665,-2.81358c-0.50926,-0.89808 -0.99959,-1.67681 -1.3517,-2.35509c-0.47144,-0.65937 -0.82353,-1.33765 -1.13784,-1.77725z" fill="#687a27"></path></g><g data-paper-data="{&quot;index&quot;:null}"><g><path d="M191.66268,176.07162c-5.45698,0.94951 -10.65047,-2.70451 -11.59998,-8.16148c-0.94951,-5.45698 2.70451,-10.65047 8.16148,-11.59998c5.45698,-0.94951 10.65047,2.70451 11.59998,8.16148c0.94951,5.45698 -2.70451,10.65047 -8.16148,11.59998z" fill="#a3b339"></path><path d="M191.2484,173.6907c-4.14204,0.72072 -8.08408,-2.05281 -8.8048,-6.19486c-0.72072,-4.14204 2.05281,-8.08408 6.19486,-8.8048c4.14204,-0.72072 8.08408,2.05281 8.8048,6.19486c0.72072,4.14204 -2.05281,8.08408 -6.19486,8.8048z" fill="#e7ffbd"></path><path d="M196.25705,165.66701c-0.77563,3.50171 -11.28118,5.03589 -11.87831,1.65125c-0.86924,-4.82925 12.54048,-5.11138 11.87831,-1.65125z" fill="#2b3021"></path><path d="M180.25328,164.84083c-0.31775,0.88865 -0.37832,1.42564 -0.37832,1.42564c0,0 -0.0529,-0.4954 0.15141,-1.34246c0.20431,-0.84706 0.3973,-2.07608 1.04412,-3.47143c0.28748,-0.62016 0.76028,-1.43693 1.27466,-2.14027c0.51438,-0.70334 1.18381,-1.33479 2.12172,-1.93597c0.41223,-0.2798 0.86605,-0.44614 1.27828,-0.72594c0.45381,-0.16633 0.90762,-0.33268 1.47489,-0.5406c0.4954,-0.05288 1.06267,-0.2608 1.55807,-0.31369l0.7223,-0.13606l0.76389,-0.0226c1.03238,0.00768 2.10636,0.12882 3.10846,0.40499c1.00211,0.27617 1.86049,0.86242 2.67726,1.33522c0.74491,0.62783 1.48983,1.25567 2.00783,1.96667c0.51801,0.71101 0.92256,1.4636 1.28553,2.10274c0.24951,0.68073 0.49903,1.36145 0.70695,1.92872c0.20792,0.56727 0.2608,1.06267 0.31369,1.55807c0.06418,0.87735 0.11707,1.37275 0.11707,1.37275c0,0 -0.16633,-0.45382 -0.34398,-1.28958c-0.16633,-0.45381 -0.21922,-0.94921 -0.5406,-1.47489c-0.20793,-0.56727 -0.5709,-1.20641 -0.82041,-1.88713c-0.36296,-0.63916 -0.72593,-1.2783 -1.35739,-1.94771c-0.51802,-0.711 -1.22133,-1.22539 -1.92467,-1.73977c-0.81677,-0.4728 -1.63356,-0.94559 -2.48062,-1.1499c-0.88865,-0.31777 -1.80758,-0.36702 -2.83997,-0.37471l-0.63914,0.36297l-0.76389,0.0226c-0.49541,0.05288 -0.83577,0.17764 -1.33117,0.23053c-0.4954,0.05289 -0.90763,0.33268 -1.28958,0.34398c-0.45383,0.16634 -0.90764,0.33268 -1.20642,0.57089c-1.46361,0.92256 -2.64741,2.25734 -3.33581,3.53924c-0.6884,1.2819 -1.14989,2.48063 -1.3542,3.32769z" fill="#687a27"></path></g><path d="M182.48035,167.75674c0.06419,0.87735 0.18895,1.21772 0.18895,1.21772c0,0 -0.16634,-0.45383 -0.3024,-1.17613c-0.13606,-0.72231 -0.28342,-1.82657 -0.09042,-3.05558c0.193,-1.229 0.48816,-2.88155 1.67196,-4.21634c0.51438,-0.70333 1.22538,-1.22133 2.09143,-1.66747c0.7526,-0.40455 1.70181,-0.62377 2.53757,-0.80142c0.83576,-0.17765 1.75468,-0.12839 2.67362,-0.07912c0.91892,0.04925 1.69413,0.4086 2.46932,0.76794c1.5504,0.71869 2.54482,2.02723 3.11571,3.23365c0.57089,1.20642 0.83171,2.26909 0.85431,3.03298c0.02261,0.76389 -0.07955,1.18743 -0.07955,1.18743c0,0 -0.0113,-0.38196 -0.14736,-1.10426c-0.13606,-0.72232 -0.51033,-1.7434 -1.15309,-2.79477c-0.64276,-1.05136 -1.66747,-2.09143 -3.02124,-2.6248c-0.62015,-0.28748 -1.46722,-0.49178 -2.2727,-0.58263c-0.80549,-0.09085 -1.56938,-0.06825 -2.40514,0.1094c-0.72232,0.13607 -1.55807,0.3137 -2.19721,0.67667c-0.63915,0.36295 -1.27828,0.72592 -1.83425,1.3158c-0.99849,1.13817 -1.53184,2.49193 -1.76643,3.60749c-0.19301,1.22901 -0.31413,2.30298 -0.33312,2.95342z" fill="#687a27"></path></g><g data-paper-data="{&quot;index&quot;:null}" fill="#969330"><path d="M260.79176,190.40237c-4.49614,-2.08418 -4.23809,-10.15795 1.77454,-8.50092c6.01263,1.65702 9.58491,13.86078 -1.77454,8.50092z"></path><path d="M273.10404,196.95734c-2.77983,2.94937 -5.60401,-3.35115 -2.5367,-6.92068c2.69666,-3.17627 5.35812,4.08477 2.5367,6.92068z"></path><path d="M261.66375,204.36807c-4.82561,2.28356 -8.31516,-5.83222 -3.18308,-9.38639c5.35898,-3.63734 8.16374,7.17468 3.18308,9.38639z"></path></g><g data-paper-data="{&quot;index&quot;:null}"><path d="M191.24817,207.64057c0,0 2.21134,-5.71269 -0.8503,-10.57323c0,0 15.80271,-19.14038 6.11361,-41.48521l5.67907,3.83666c0,0 23.55955,-17.16522 52.32383,-13.21029c0,0 14.76395,36.71567 -15.09525,60.06597z" fill="#6d4b9b"></path><path d="M245.06396,166.17203c0.08812,0.08268 -0.53873,-3.48776 -0.15805,-4.95318c0,0 -3.38237,-1.51632 -4.88594,-3.09259c0,0 3.70309,-1.82791 5.08039,-1.5299c0,0 0.46971,-4.03287 0.76772,-5.41017c0,0 3.34874,3.14164 3.38689,4.33723c0,0 4.39174,-1.67891 6.27599,-1.56805c0,0 -2.41485,4.69334 -4.27729,5.26569c0,0 2.48385,2.82729 2.5329,4.36449c0,0 -4.47351,-0.8831 -5.44288,-1.79252c0,0 -0.88217,1.82337 -3.27974,4.37899z" fill="#e0c448"></path><path d="M233.50664,192.44329c0,0 -1.64619,-3.36696 -1.62892,-5.50467c0,0 3.96653,1.07024 4.94136,2.15047c0,0 3.07532,-2.74821 4.07287,-3.6349c0,0 0.48875,4.60069 -0.24988,5.56461c0,0 4.40717,1.48362 5.73449,2.89455c0,0 -4.89324,2.03684 -6.62848,1.23734c0,0 0.11989,3.7576 -0.86676,4.98589c0,0 -2.84724,-3.49959 -3.06164,-4.86054c0,0 -1.857,0.74315 -5.34477,1.28187c0,0 1.7807,-3.13436 3.03173,-4.11462z" fill="#e0c448"></path><path d="M220.06993,173.21008c0.08813,0.08267 -0.02633,-3.50412 0.52515,-4.975c0,0 -3.13979,-1.9515 -4.31267,-3.88027c0,0 3.89569,-1.15014 5.27844,-0.68134c0,0 1.15837,-3.88387 1.62717,-5.26662c0,0 2.8527,3.67039 2.72005,4.87144c0,0 4.58435,-1.00115 6.47949,-0.5487c0,0 -3.11439,4.20275 -5.07041,4.52162c0,0 2.06502,3.09712 1.86059,4.72789c0,0 -4.3245,-1.57174 -5.21119,-2.56929c0,0 -1.22922,1.66345 -3.89662,3.80026z" fill="#e0c448"></path><path d="M210.96015,195.81283c0,0 -3.21703,-1.69258 -4.27997,-2.85548c0,0 -3.27337,1.89968 -5.40564,2.0532c0,0 0.81132,-4.04376 1.89155,-5.01859c0,0 -2.91357,-2.89907 -3.80026,-3.89662c0,0 4.5898,-0.83035 5.55372,-0.09172c0,0 1.2247,-4.4844 2.5475,-5.89439c0,0 2.29032,4.79966 1.66162,6.52946c0,0 3.75213,-0.2907 5.06311,0.60782c0,0 -3.40601,3.10071 -4.76696,3.31511c0,0 0.91395,1.85155 1.53535,5.25119z" fill="#e0c448"></path><path d="M205.79461,157.16663c2.60106,-1.53626 6.29871,-3.53496 10.93848,-5.47823c0.51784,0.15446 0.94757,0.22622 1.21195,0.47425c0,0 -3.49415,3.01803 -4.76696,3.31511c0,0 0.91395,1.85155 1.53535,5.25119c0,0 -3.21703,-1.69258 -4.27997,-2.85548c0,0 -3.27337,1.89968 -5.40564,2.0532c0,0 0.29799,-1.37729 0.76679,-2.76004z" fill="#e0c448"></path><path d="M227.80475,206.64507l-13.15159,0.41965c-0.52876,-0.49605 -0.88669,-0.99754 -1.15107,-1.24557c0,0 4.5898,-0.83035 5.55372,-0.09172c0,0 1.31283,-4.40172 2.5475,-5.89439c0,0 2.37299,4.71154 1.66162,6.52946c0,0 2.89815,-0.26345 4.53982,0.28257z" fill="#e0c448"></path><path d="M193.17697,206.46777c-1.3446,0.72681 -1.92877,1.17288 -1.92877,1.17288c0,0 0.66685,-0.5342 1.65895,-1.5917c0.9921,-1.05751 2.48025,-2.64376 4.1283,-4.57705c1.55992,-2.01597 3.27973,-4.37898 4.81786,-7.07816c0.81039,-1.39365 1.45,-2.78185 2.17226,-4.25817c0.63414,-1.55899 1.18559,-3.02986 1.56083,-4.66609c0.46336,-1.55355 0.75046,-3.27244 1.04301,-4.82054c0.20441,-1.63078 0.23804,-3.2561 0.18899,-4.7933c-0.04906,-1.5372 -0.2689,-3.06894 -0.4833,-4.42989c-0.21441,-1.36095 -0.5996,-2.71647 -0.89668,-3.98928c-0.19262,-0.67775 -0.37976,-1.1847 -0.56691,-1.69165c-0.18716,-0.50695 -0.3743,-1.0139 -0.56145,-1.52085c-0.45698,-0.92577 -0.65504,-1.77432 -1.01843,-2.44662c-0.7268,-1.3446 -1.00752,-2.10502 -1.00752,-2.10502c0,0 0.5342,0.66684 1.34367,1.92332c0.44607,0.58417 0.81492,1.42726 1.4427,2.34759c0.53964,0.83764 1.00206,1.93422 1.46994,3.20159c0.27527,0.58962 0.46787,1.26736 0.66047,1.94512c0.1926,0.67775 0.3852,1.35549 0.5778,2.03325c0.30253,1.44362 0.6105,3.05804 0.74768,4.67791c0.13717,1.61986 0.19168,3.32786 -0.0073,5.12943c-0.2871,1.71889 -0.48608,3.52046 -1.0321,5.16213c-0.45789,1.72433 -1.09204,3.28334 -1.80887,4.93046c-0.80493,1.56445 -1.52721,3.04078 -2.33761,4.43442c-0.81039,1.39363 -1.79705,2.62193 -2.70102,3.7621c-0.90397,1.14019 -1.89607,2.19768 -2.80549,3.16705c-1.73619,1.85061 -3.48869,3.18884 -4.65705,4.08099z" fill="#4a3369"></path><path d="M203.79407,158.76922c0,0 2.49115,-2.30214 6.94377,-4.75237c1.09112,-0.63321 2.35304,-1.27189 3.61497,-1.91056c1.35004,-0.556 2.69464,-1.28279 4.21549,-1.84424c1.52085,-0.56147 2.95356,-1.20557 4.56254,-1.68435c1.52085,-0.56145 3.21793,-0.95755 4.82691,-1.43633c1.60897,-0.47878 3.31152,-0.70408 4.92594,-1.01205c0.84855,-0.19805 1.61443,-0.30798 2.46842,-0.33523c0.76586,-0.10992 1.61986,-0.13719 2.38573,-0.2471c1.53174,-0.21984 3.15707,-0.18621 4.52347,-0.22982c1.44907,-0.13173 2.82092,-0.00452 4.10464,0.04c1.28373,0.04453 2.39666,0.0945 3.4269,0.2326c1.03024,0.1381 1.88968,0.28167 2.66101,0.34253c1.45997,0.20988 2.31943,0.35342 2.31943,0.35342c0,0 -0.854,0.02724 -2.30852,-0.01183c-0.68319,0.0218 -1.62533,-0.03363 -2.65012,-0.00093c-1.02481,0.03271 -2.13228,0.15352 -3.416,0.109c-1.19559,0.03815 -2.56199,0.08175 -3.92294,0.29615c-1.36094,0.21439 -2.89814,0.26345 -4.42989,0.4833c-1.53175,0.21986 -3.06349,0.43971 -4.67791,0.74768c-1.61443,0.30798 -3.22884,0.61595 -4.83782,1.09473c-1.5263,0.39066 -3.22339,0.78675 -4.74424,1.3482c-1.60898,0.47877 -3.04714,0.95208 -4.48532,1.42541c-1.43816,0.47333 -2.87089,1.11745 -4.13826,1.58533c-1.35004,0.556 -2.61741,1.02388 -3.62586,1.56897c-4.89324,2.03684 -7.74234,3.83749 -7.74234,3.83749z" fill="#4a3369"></path><path d="M241.68401,204.91993c-1.50994,0.90306 -2.34759,1.4427 -2.34759,1.4427c0,0 0.74952,-0.62233 1.98964,-1.9442c0.57872,-0.61688 1.3228,-1.41 2.14955,-2.29125c0.82675,-0.88125 1.64805,-1.9333 2.6347,-3.16159c1.8025,-2.45115 3.76491,-5.24935 5.45202,-8.63717c0.88763,-1.65255 1.599,-3.47049 2.3985,-5.20573c0.7114,-1.81792 1.33464,-3.71852 1.78709,-5.61366c0.45244,-1.89515 0.90489,-3.7903 1.18109,-5.85079c0.1381,-1.03026 0.19354,-1.97237 0.33708,-2.83183c0.05541,-0.94213 0.11084,-1.88427 0.16627,-2.82638c0.02819,-1.79613 0.13903,-3.68037 0.00185,-5.30024c-0.02725,-0.854 -0.05452,-1.708 -0.16443,-2.47387c-0.10993,-0.76587 -0.13718,-1.61987 -0.15898,-2.30307c-0.21985,-1.53175 -0.34612,-2.81003 -0.55508,-4.00017c-0.20895,-1.19014 -0.32978,-2.29761 -0.52782,-3.14616c-0.3961,-1.6971 -0.5996,-2.71644 -0.5996,-2.71644c0,0 0.28616,0.93123 0.85307,2.62288c0.36887,0.8431 0.57236,1.86244 0.95211,3.04714c0.37974,1.1847 0.59414,2.54565 0.9848,4.07195c0.30253,1.44362 0.52782,3.14618 0.75312,4.84872c0.22531,1.70255 0.28526,3.58133 0.26253,5.54826c-0.02273,1.9669 -0.13357,3.85116 -0.40977,5.91165c-0.2762,2.06049 -0.64051,4.03832 -1.17564,6.02159c-0.53512,1.98327 -1.15837,3.88386 -1.95242,5.78991c-0.79405,1.90604 -1.59356,3.64128 -2.56385,5.38198c-0.88761,1.65257 -1.94605,3.31058 -2.92724,4.70968c-0.9812,1.39908 -2.05052,2.71553 -3.12529,3.86114c-1.97875,2.28579 -3.9793,3.8884 -5.39567,5.04492z" fill="#4a3369"></path><path d="M200.06345,207.95768c-4.10464,-0.04 -6.67754,-0.29985 -6.67754,-0.29985c0,0 2.63924,-0.34067 6.64485,-0.72495c1.96147,-0.14808 4.34722,-0.39517 6.82109,-0.5596c2.47387,-0.16443 5.20666,-0.25162 7.76865,-0.33338c1.3664,-0.04358 2.65012,0.00094 3.92839,-0.12534c1.36639,-0.04359 2.65012,0.00093 3.84571,-0.03722c2.47932,0.00638 4.78784,0.01821 6.84289,0.12361c4.02197,0.12812 6.67754,0.29985 6.67754,0.29985c0,0 -2.63924,0.34067 -6.64485,0.72495c-1.96147,0.14808 -4.34722,0.39517 -6.82109,0.5596c-1.19559,0.03815 -2.47387,0.16442 -3.84027,0.20803c-1.3664,0.04358 -2.64467,0.16986 -3.92839,0.12534c-2.65012,-0.00092 -5.29479,0.16894 -7.77411,0.16257c-2.47932,-0.00638 -4.78784,-0.01821 -6.84289,-0.12361z" fill="#4a3369"></path><path d="M192.64133,209.39794c-2.17315,-1.43206 -3.33949,-3.4964 -2.6051,-4.61083c0.73439,-1.11444 3.09141,-0.85695 5.26455,0.57511c2.17315,1.43206 3.33949,3.4964 2.6051,4.61083c-0.73439,1.11444 -3.09141,0.85695 -5.26455,-0.57511z" fill="#bdabd6"></path></g><g data-paper-data="{&quot;index&quot;:null}"><path d="M223.54374,136.57883c2.62557,-6.27698 -0.15426,-10.81101 0.24461,-12.42449c0.71127,-3.83542 3.86668,4.22602 3.86668,4.22602c0,0 -1.86777,-7.84029 -0.72605,-10.4145c1.14172,-2.57422 4.21437,8.44124 4.21437,8.44124c0,0 0.19341,-6.59579 2.10773,-9.03731c1.91432,-2.44154 0.75301,8.8361 0.75301,8.8361c5.02244,-12.39531 4.45898,-3.98324 2.65995,-0.73039c-1.79904,3.25282 -6.96096,19.08715 -9.39033,21.44019" fill="#a3b339"></path><path d="M216.06087,204.15613c-7.56045,-7.23504 -11.63534,-19.11525 -9.90318,-31.67999c1.73216,-12.56474 12.38595,-29.53346 16.49816,-36.84132c4.79742,-8.67425 10.29389,-5.35558 7.87191,4.12247c-2.45082,9.27519 -10.09882,27.94751 -8.89023,34.6852c1.2086,6.73767 2.18293,8.29019 5.27886,14.16476c3.06712,5.67171 -3.15192,22.90752 -10.85553,15.54892z" fill="#a3b339"></path><path d="M223.819,126.13841c0,0 0.14317,0.12351 0.34399,0.65273c0.20082,0.5292 0.43044,1.26122 0.71772,2.39892c0.08646,0.60847 0.17293,1.21699 0.17385,2.10762c0.00093,0.89063 -0.22686,1.93985 -0.62664,2.66272c-0.37097,0.92567 -0.79956,1.44571 -1.19936,2.16854c-0.42862,0.52002 -0.71404,1.16359 -1.22818,1.96574c-1.71351,2.97072 -3.59807,6.50571 -5.56817,10.32281c-0.97064,2.00997 -1.94128,4.01994 -3.02628,6.1092c-0.97065,2.00997 -1.91248,4.22278 -2.8543,6.43559c-0.94182,2.2128 -1.74046,4.54912 -2.53911,6.88547c-0.34215,1.12851 -0.68429,2.25703 -0.88327,3.50909c-0.17107,0.56423 -0.19898,1.25204 -0.25569,1.73701c-0.0279,0.68779 -0.19896,1.25207 -0.22686,1.93984c-0.19806,2.14268 -0.2241,4.61171 -0.05026,6.71933c0.17384,2.10764 0.46205,4.13593 0.83578,5.88212c0.74747,3.49237 1.75156,6.13834 2.38282,7.92877c0.74563,1.71111 1.2328,2.48736 1.2328,2.48736c0,0 -0.14318,-0.12354 -0.45835,-0.57345c-0.28634,-0.24705 -0.63036,-0.89978 -1.11752,-1.67607c-0.85998,-1.63185 -2.06395,-3.91638 -3.06896,-7.45298c-0.48809,-1.66686 -0.91946,-3.81873 -1.23648,-6.04988c-0.20267,-2.31044 -0.43416,-4.8237 -0.2082,-7.65417c0.0279,-0.68778 0.0846,-1.17276 0.22686,-1.93984c0.0279,-0.68777 0.17014,-1.45486 0.3124,-2.22196c0.28452,-1.53418 0.62666,-2.66271 0.93998,-3.99404c0.76982,-2.53915 1.68282,-4.95481 2.59584,-7.37044c0.91302,-2.41563 1.998,-4.50489 2.93982,-6.71768c1.085,-2.08926 2.05565,-4.09923 3.14065,-6.18851c2.08446,-3.8964 4.11221,-7.30782 5.85452,-10.07572c0.39979,-0.72285 0.91393,-1.52502 1.34254,-2.04505c0.42861,-0.52002 0.8572,-1.04003 1.17145,-1.48077c0.6285,-0.88142 0.6843,-2.25702 0.65455,-3.35047c-0.02974,-1.09345 -0.14502,-1.90477 -0.34584,-2.43399c0.08553,-0.28211 0.0279,-0.68777 0.0279,-0.68777z" fill="#687a27"></path><path d="M229.78674,142.49926c0,0 -0.9409,3.10345 -2.30947,7.61749c-0.68429,2.25704 -1.4253,4.99903 -2.28066,7.82033c-0.741,2.74199 -1.53873,5.96896 -2.10774,9.03733c-0.2845,1.53418 -0.569,3.06837 -0.6248,4.44397c-0.17014,1.4549 -0.14041,2.54835 0.20451,4.09168c0.17291,1.21701 0.48902,2.55753 0.7763,3.69521c0.28728,1.1377 0.68891,2.1961 0.94737,3.13094c0.66009,1.99328 1.26253,3.58085 1.77852,4.55994c0.40163,1.0584 0.74563,1.71113 0.74563,1.71113c0,0 -1.57495,-1.35887 -3.32373,-4.82535c-0.48716,-0.77627 -0.88879,-1.83466 -1.31924,-3.09588c-0.43046,-1.26122 -0.83209,-2.31963 -1.20583,-4.06582c-0.05763,-0.40568 -0.11528,-0.81133 -0.17291,-1.21699l-0.08646,-0.60848c-0.05763,-0.40565 -0.05764,-0.40565 -0.11528,-0.81133c-0.11529,-0.81134 -0.00184,-1.78126 -0.00277,-2.67187c0.1125,-1.86055 0.3682,-3.59754 0.76706,-5.21104c0.65455,-3.35047 1.59545,-6.4539 2.56517,-9.3545c0.42768,-1.41066 0.99853,-2.69774 1.42622,-4.1084c0.4565,-1.20784 0.91301,-2.41564 1.39832,-3.42063c1.65493,-4.26698 2.93982,-6.71767 2.93982,-6.71767z" fill="#687a27"></path><path d="M237.85968,119.74446c0,0 -0.11434,0.0793 -0.2287,0.15859c-0.11435,0.07931 -0.19989,0.36144 -0.39979,0.72287c-0.17106,0.56423 -0.54204,1.48994 -0.91301,2.41563c-0.37096,0.92567 -0.88509,1.72784 -1.45688,2.12433c-0.42861,0.52 -0.88603,0.83719 -0.88603,0.83719c0,0 -0.11529,-0.81131 0.1125,-1.86053c0.11343,-0.96991 0.42678,-2.30127 0.91209,-3.30626c0.28544,-0.64356 0.59969,-1.08426 0.94275,-1.32216c0.31424,-0.44072 0.6573,-0.67862 1.0292,-0.71368c0.37189,-0.03505 0.65824,0.212 0.80141,0.33557c0.17199,0.32635 0.08646,0.60848 0.08646,0.60848z" fill="#687a27"></path><path d="M233.25109,117.36979c0,0 0.00093,0.89063 -0.14132,1.65769c-0.11342,0.96992 -0.34122,2.01915 -0.56901,3.06837c-0.22778,1.04923 -0.4844,1.89559 -0.85536,2.82128c-0.19989,0.36144 -0.2566,0.8464 -0.34214,1.12855c-0.08554,0.28212 -0.19989,0.36141 -0.19989,0.36141c0,0 -0.02882,-0.20283 -0.172,-0.32636c-0.14319,-0.12353 -0.22964,-0.73202 -0.28728,-1.13766c-0.08646,-0.60847 -0.14411,-1.01415 -0.11621,-1.70196c0.0279,-0.68777 0.17015,-1.45486 0.34122,-2.01912c0.31332,-1.33135 0.91302,-2.41564 1.45597,-3.01495c0.51413,-0.80215 0.88602,-0.83719 0.88602,-0.83719z" fill="#687a27"></path><path d="M226.90017,117.763c0,0 0.02881,0.20283 0.08646,0.60847c0.05763,0.40567 0.11528,0.81135 0.17291,1.21701c0.1441,1.01418 0.40256,1.94901 0.46112,3.2453c0.08645,0.60847 0.05855,1.2963 0.1162,1.70196c-0.02791,0.68779 0.02974,1.09347 0.00184,1.78124c0.02975,1.09345 -0.11251,1.86053 -0.11251,1.86053c0,0 -0.42953,-0.37058 -0.88788,-0.94403c-0.48716,-0.77629 -0.77444,-1.91397 -0.97619,-3.3338c-0.08647,-0.60847 -0.08739,-1.4991 -0.05949,-2.18691c0.02789,-0.68777 0.17014,-1.45488 0.34122,-2.01914c0.17106,-0.56423 0.37096,-0.92567 0.57085,-1.2871c0.17108,-0.56424 0.28544,-0.64356 0.28544,-0.64356z" fill="#687a27"></path></g></g></g></svg>