<svg version="1.1" xmlns="http://www.w3.org/2000/svg" xmlns:xlink="http://www.w3.org/1999/xlink" width="93.96852" height="124.9393" viewBox="0,0,93.96852,124.9393"><g transform="translate(-192.08112,-119.0751)"><g data-paper-data="{&quot;isPaintingLayer&quot;:true}" fill-rule="nonzero" stroke-miterlimit="10" stroke-dasharray="" stroke-dashoffset="0" style="mix-blend-mode: normal"><g data-paper-data="{&quot;index&quot;:null}" stroke="none" stroke-width="0.77378" stroke-linecap="butt" stroke-linejoin="miter"><path d="M235.81396,242.7044c-1.9569,-0.64 -2.1844,-2.4189 -1.9809,-4.0732c-2.1975,1.6969 -4.6891,3.123 -6.8557,3.123c-0.4898,0 -0.9556,-0.0712 -1.3874,-0.2121c-1.1576,-0.3783 -1.8609,-1.2365 -1.9306,-2.353c-0.065,-1.0454 0.462,-2.2347 1.2303,-3.3296c-0.2909,0.024 -0.578,0.0364 -0.8589,0.0364c-0.0007,0 -0.0007,0 -0.0015,0c-2.8792,0 -5.0002,-1.2706 -5.4033,-3.2368c-0.4209,-2.0544 1.1707,-4.1242 4.2821,-5.6207c0.1238,-0.1633 0.2925,-0.294 0.4921,-0.3737c0.0317,-0.0132 0.0635,-0.0279 0.0944,-0.0449c0.1757,-0.0991 0.3722,-0.1494 0.5703,-0.1494c0.1223,0 0.2453,0.0186 0.3629,0.0581c3.824,1.2589 7.5567,2.1905 9.1585,2.5434c0.7057,0.1547 1.7789,0.2344 3.1887,0.2344c3.1671,0 7.2418,-0.3938 10.1017,-0.7242c0.0449,-0.0054 0.089,-0.0078 0.1331,-0.0078c0.3413,0 0.6678,0.1502 0.8899,0.4156c0.2507,0.2994 0.3335,0.7057 0.2213,1.0794c-0.0488,0.1617 -0.1029,0.3172 -0.1641,0.4681c0.0248,0.2066 -0.0062,0.4194 -0.0936,0.6152c-0.8024,1.7874 -3.7459,7.0584 -4.6411,8.0821c-0.0209,0.024 -0.0434,0.0472 -0.0658,0.0697c-0.3745,0.3636 -3.7374,3.5501 -6.3876,3.5501c-0.3474,0 -0.6763,-0.0534 -0.9548,-0.1501z" fill="#f7941e"></path><path d="M224.06406,227.6303c-0.0766,0.0434 -0.1547,0.0797 -0.2344,0.1115c0.0619,0.0216 0.1238,0.0479 0.1857,0.0696h-0.0047c-6.4966,2.7771 -4.8926,6.923 0.0178,6.923c1.4369,0 3.1586,-0.3551 5.042,-1.204c-2.1403,1.0075 -6.2537,5.8831 -3.1207,6.9076c0.3258,0.1067 0.6693,0.1547 1.0268,0.1547c3.0851,0 7.1614,-3.6259 8.7105,-5.0806c-0.2391,1.6412 -1.8633,5.3197 0.4867,6.0881c0.1834,0.0642 0.383,0.0936 0.595,0.0936c1.844,0 4.5777,-2.2509 5.579,-3.2228c0.7838,-0.896 3.6662,-6.0332 4.4554,-7.7935c-0.0611,-0.1006 -0.0805,-0.2298 -0.0116,-0.3745c0.089,-0.1881 0.1594,-0.3761 0.2167,-0.5672c-2.6525,0.3064 -6.93,0.7312 -10.2348,0.7312c-1.3781,0 -2.5875,-0.0743 -3.4379,-0.2615c-1.82,-0.4008 -5.5264,-1.3425 -9.2715,-2.5752M224.78986,225.4251c3.7807,1.2434 7.4639,2.165 9.0448,2.5124c0.4294,0.0944 1.2875,0.2074 2.9395,0.2074c3.2762,0 7.652,-0.4488 9.9687,-0.7165c0.089,-0.0101 0.1779,-0.0155 0.2661,-0.0155c0.6825,0 1.3364,0.301 1.7797,0.831c0.5015,0.5989 0.6678,1.4099 0.4434,2.1581c-0.0333,0.1114 -0.0688,0.2198 -0.1075,0.3266c-0.007,0.3056 -0.0743,0.6112 -0.2028,0.8975c-0.783,1.7457 -3.7768,7.1722 -4.826,8.3716c-0.0418,0.0479 -0.0859,0.0944 -0.1308,0.1385c-0.6678,0.6476 -4.1529,3.8782 -7.1954,3.8782c-0.4689,0 -0.9192,-0.0728 -1.3371,-0.2151c-1.6822,-0.5579 -2.4273,-1.6977 -2.692,-2.9652c-2.148,1.382 -4.077,2.08 -5.7631,2.08c-0.6121,0 -1.2001,-0.0906 -1.748,-0.2701c-1.6102,-0.5269 -2.6293,-1.7913 -2.7283,-3.3845c-0.0464,-0.7483 0.1153,-1.5143 0.4178,-2.2625c-2.887,-0.3134 -4.97,-1.8556 -5.4311,-4.1065c-0.202,-0.9843 -0.4132,-4.262 4.7154,-6.8031c0.2104,-0.2097 0.4642,-0.3791 0.7513,-0.4968c0.3436,-0.1864 0.7258,-0.2816 1.1096,-0.2816c0.2438,0 0.4891,0.0387 0.7258,0.1161z" fill="#000000"></path></g><g data-paper-data="{&quot;index&quot;:null}" stroke="none" stroke-width="0.77378" stroke-linecap="butt" stroke-linejoin="miter"><path d="M210.16546,229.7667c-0.8775,-0.7304 -1.0361,-1.6822 -0.9092,-2.572c-0.5904,0.1308 -1.2257,0.2244 -1.8347,0.2244c-0.0007,0 0,0 -0.0007,0c-1.6567,0 -2.4583,-0.7026 -2.8383,-1.2907c-0.5161,-0.797 -0.5764,-1.6891 -0.171,-2.5109c0.1293,-0.2615 0.2987,-0.503 0.4968,-0.7219c-0.6035,-0.4194 -0.9425,-1.0253 -0.9425,-1.7054c0,-1.6513 1.9244,-3.0155 4.3912,-3.195c0.1463,-0.065 0.3072,-0.1006 0.472,-0.1006c0.0604,0 0.1215,0.0047 0.1827,0.0147l0.1663,0.0294c0.0325,0.0023 0.2035,0.0186 0.2298,0.0225c0.1432,0.0216 0.2817,0.0681 0.4078,0.1392c1.3487,0.7645 2.4034,1.6846 3.1307,2.7346c0.3985,0.5726 1.7147,1.7921 6.0572,3.5222c0.5146,0.2043 0.804,0.8001 0.7026,1.3449c-0.0372,0.2004 -0.1261,0.3869 -0.2585,0.5416c-1.7201,2.0142 -4.3022,4.416 -6.8363,4.416c-0.9115,0 -1.7348,-0.2995 -2.4459,-0.893z" fill="#f7941e"></path><path d="M208.82906,219.0553c0.048,0.0495 0.0805,0.0805 0.0805,0.0805c-3.817,0 -5.6377,3.2785 -1.139,3.2785c0.2144,0 0.4434,-0.0078 0.6871,-0.0232c-1.3874,0.1114 -3.9594,1.4709 -2.9016,3.1059c0.3636,0.5626 1.0639,0.7606 1.8648,0.7606c1.3309,0 2.9396,-0.5478 3.742,-0.8813c-0.4666,0.8558 -1.3743,2.5651 -0.2554,3.4983c0.5308,0.441 1.1089,0.6244 1.7039,0.6244c2.3778,0 5.0257,-2.9218 5.9535,-4.0089c0.0038,-0.0202 0.0046,-0.0341 0.0092,-0.055c-3.0479,-1.214 -5.6369,-2.5798 -6.581,-3.9385c-0.7103,-1.0237 -1.7023,-1.7929 -2.75,-2.3864c-0.0425,-0.0062 -0.0859,-0.0046 -0.1292,-0.0131c-0.0967,-0.0047 -0.1896,-0.0263 -0.2848,-0.0418M209.19356,216.7626l0.1331,0.0224c-0.0047,0 -0.0387,-0.0031 -0.0758,-0.0054c0.0472,0.0031 0.0928,0.007 0.1392,0.0132c0.0619,0.0046 0.1223,0.0116 0.1811,0.0193c0.2871,0.041 0.5641,0.1354 0.8163,0.2778c1.502,0.8511 2.6843,1.888 3.513,3.0827c0.1439,0.2074 1.0903,1.3356 5.5325,3.1052c1.023,0.4078 1.6157,1.4764 1.4284,2.5535c-0.0038,0.0255 -0.0085,0.0518 -0.0139,0.0805c-0.0743,0.4008 -0.2522,0.7745 -0.5176,1.0848c-2.7315,3.2004 -5.3291,4.8222 -7.7193,4.8222c-1.173,0 -2.2749,-0.4016 -3.188,-1.1607c-0.7041,-0.5873 -1.1382,-1.293 -1.3015,-2.1132c-0.2344,0.0209 -0.4689,0.0333 -0.701,0.0333c-2.1797,0 -3.277,-0.9912 -3.8147,-1.8222c-0.7351,-1.1352 -0.8218,-2.4669 -0.2368,-3.6531c0.0124,-0.0239 0.024,-0.0479 0.0371,-0.0727c-0.3892,-0.5355 -0.602,-1.17 -0.602,-1.8416c0,-2.2563 2.2687,-4.0631 5.2965,-4.3386c0.2322,-0.075 0.4782,-0.1161 0.7282,-0.1161c0.1207,0 0.2422,0.0093 0.3652,0.0287z" fill="#000000"></path></g><g data-paper-data="{&quot;index&quot;:null}" stroke="none" stroke-width="0.77378" stroke-linecap="butt" stroke-linejoin="miter"><g><path d="M238.62506,231.695c-0.5733,-0.0797 -1.1266,-0.1571 -1.6466,-0.2167c-3.7242,-0.4232 -8.1046,-1.0531 -12.3487,-2.4985c-6.1624,-2.0993 -11.7785,-5.5952 -16.6944,-10.3911l-0.0874,-0.0859l-0.0689,-0.1021c-2.3058,-3.4728 -5.8173,-11.1363 -3.4255,-23.4394c1.0995,-5.661 4.1467,-10.1621 7.094,-14.5146c3.1679,-4.6783 6.1593,-9.0973 6.8743,-14.8202c0.1981,-1.5878 0.1455,-3.229 -0.1563,-4.8771c-0.4921,-2.6913 -1.0934,-5.8181 -2.0002,-8.8792c-0.2198,-0.742 -0.4527,-1.4895 -0.6872,-2.2416c-0.7675,-2.4607 -1.5607,-5.0056 -1.9553,-7.5808c-0.2197,-1.433 0.8434,-6.6808 1.1545,-7.3671c1.2295,-2.6982 3.0355,-5.1085 5.3685,-7.1637c5.2524,-4.6272 13.1349,-7.2813 21.6279,-7.2813c4.7572,0 9.3558,0.8349 13.299,2.415c8.7963,3.5238 14.8558,10.6937 16.2092,19.1789c0.7962,4.984 0.26,9.9013 -1.5515,14.2206c-1.0144,2.4165 -2.3739,4.5993 -3.6886,6.711c-0.8341,1.3402 -1.6969,2.726 -2.4467,4.1374c-0.0046,0.0828 0.0031,0.2174 0.0186,0.3567c4.1258,5.295 6.0363,12.2706 7.8848,19.0195c1.5306,5.5898 2.9768,10.8693 5.531,15.0075c0.756,1.1065 1.57,2.1171 2.3569,3.0951c2.1248,2.6386 4.3216,5.3678 5.3004,9.93c0.7761,3.629 0.0442,7.063 -2.0629,9.6684c-2.4691,3.0541 -6.6026,4.7363 -11.6384,4.7363c-0.4666,0 -0.9432,-0.0147 -1.4323,-0.0441c-0.3435,-0.0209 -0.708,-0.031 -1.149,-0.0372l-0.2763,-0.0015c-0.3149,0 -0.6391,0.0046 -0.9711,0.0131l-0.0317,-1.1599l-0.089,1.1646c-0.824,0.0247 -1.7387,0.0781 -2.7755,0.1625c-1.7983,0.1493 -3.8527,0.3907 -6.1067,0.7157c-4.8942,0.7088 -9.3968,1.6273 -10.5644,1.8703l-0.106,0.0448c-1.1127,0.4666 -2.4274,0.6941 -4.0206,0.6941c-1.6079,0 -3.2716,-0.2329 -4.7379,-0.4395z" fill="#8a8fc6"></path><path d="M241.67306,121.3964c-7.6079,0 -15.4494,2.2238 -20.8612,6.9919c-2.1155,1.8648 -3.8658,4.1119 -5.0791,6.7744c-0.2135,0.4705 -1.2427,5.5426 -1.0639,6.7095c0.4998,3.2615 1.6737,6.5121 2.6084,9.6699c0.8798,2.969 1.4725,5.9589 2.0288,8.9991c0.3173,1.734 0.3846,3.4789 0.1664,5.23c-1.4423,11.5487 -11.7855,18.1157 -13.9799,29.413c-2.3105,11.8845 1.0291,19.2269 3.253,22.5758c4.6117,4.4995 9.9833,7.9854 16.2579,10.1226c3.9262,1.3379 8.0009,1.977 12.1066,2.4444c1.8509,0.2104 4.1149,0.6476 6.2544,0.6476c1.2729,0 2.5017,-0.1547 3.571,-0.6035c0.0055,-0.0147 0.0147,-0.0349 0.0194,-0.048c0,0 5.1611,-1.1104 10.9335,-1.9461c0,0.0008 0,0.0008 0,0.0016c2.049,-0.2972 4.1761,-0.5595 6.1771,-0.7258c0.0193,-0.0016 0.0387,-0.0031 0.0588,-0.0047c0.9641,-0.0789 1.8973,-0.1346 2.7787,-0.1609c0.041,-0.0016 0.0828,-0.0031 0.1238,-0.0047c0.3427,-0.0092 0.677,-0.0139 1.0012,-0.0139c0.0735,0 0.1455,0 0.2182,0.0008c0.0465,0.0008 0.0913,0.0015 0.1378,0.0023c0.3954,0.0047 0.7792,0.0163 1.1413,0.0379c0.4643,0.0279 0.9177,0.0418 1.3619,0.0418c9.1871,0 14.1037,-5.8204 12.5662,-13.0011c-1.2706,-5.924 -4.6427,-8.4613 -7.4802,-12.6134c-5.9326,-9.6049 -6.0796,-24.8585 -13.5597,-34.2034c0,0 -0.1819,-0.9239 0.0085,-1.286c1.9507,-3.6979 4.5073,-6.9594 6.1392,-10.8477c1.8021,-4.2975 2.2068,-9.0114 1.4756,-13.5883c-1.3704,-8.5921 -7.628,-15.1336 -15.4942,-18.2845c-3.8248,-1.5305 -8.305,-2.3306 -12.8695,-2.3306M255.40376,121.5736c9.1786,3.6762 15.505,11.1811 16.9234,20.0734c0.8302,5.1975 0.2677,10.3331 -1.6273,14.8512c-1.0508,2.5032 -2.4343,4.7263 -3.773,6.8766c-0.7652,1.2303 -1.4949,2.401 -2.1604,3.6112c4.0345,5.4134 5.9226,12.3062 7.751,18.9824c1.5027,5.4861 2.9218,10.6697 5.4002,14.7042c0.722,1.0508 1.5097,2.0296 2.2726,2.9767c2.2092,2.7454 4.4941,5.5828 5.5302,10.4151c0.852,3.9796 0.0372,7.7579 -2.2942,10.6418c-2.6943,3.3319 -7.1482,5.1673 -12.5415,5.1673c-0.4913,0 -0.9958,-0.0162 -1.5003,-0.0456c-0.3026,-0.0186 -0.6384,-0.0294 -1.0292,-0.0341l-0.0549,-0.0007l-0.0936,-0.0016l-0.1811,-0.0008c-0.3041,0 -0.6175,0.0039 -0.9386,0.0132l-0.0603,0.0023l-0.0403,0.0016c-0.8202,0.0247 -1.7147,0.0766 -2.6757,0.1547l-0.0704,0.0054c-1.7588,0.1463 -3.7892,0.3846 -6.0208,0.708l-0.6469,0.0937c-4.4678,0.6677 -8.4922,1.4818 -9.7365,1.7402l-0.0038,0.0015c-1.2574,0.5278 -2.7199,0.7847 -4.4694,0.7847c-1.6892,0 -3.3946,-0.2391 -4.8996,-0.4496c-0.5641,-0.0789 -1.1073,-0.1548 -1.618,-0.2128c-3.7861,-0.4318 -8.2423,-1.0725 -12.5917,-2.5535c-6.3272,-2.155 -12.0903,-5.7414 -17.13,-10.658l-0.1772,-0.1726l-0.1361,-0.2058c-2.4042,-3.6205 -6.0696,-11.5928 -3.5981,-24.3022c1.1444,-5.8931 4.2604,-10.494 7.272,-14.9432c3.0866,-4.5599 6.003,-8.8668 6.6839,-14.3142c0.1826,-1.4694 0.1338,-2.9922 -0.1463,-4.5243c-0.4867,-2.661 -1.0802,-5.7523 -1.9708,-8.7576c-0.2182,-0.7374 -0.4503,-1.4803 -0.6832,-2.2262c-0.78,-2.5016 -1.5863,-5.0892 -1.9941,-7.751c-0.26,-1.6899 0.8597,-7.1737 1.2443,-8.021c1.2999,-2.8514 3.2034,-5.3925 5.6579,-7.5559c5.4629,-4.8137 13.6255,-7.573 22.3971,-7.573c4.9026,0 9.6513,0.8643 13.7307,2.4985z" fill="#000000"></path></g><path d="M205.49176,195.1834c2.1945,-11.2972 12.5376,-17.8635 13.9799,-29.413c0.2182,-1.7511 0.1509,-3.4959 -0.1663,-5.23c-0.5564,-3.0402 -1.1491,-6.03 -2.0289,-8.999c-0.9347,-3.1578 -2.0087,-6.4247 -2.6084,-9.67c-0.4287,-2.3182 0.8496,-6.2374 1.0639,-6.7094c1.2133,-2.6618 2.9636,-4.9097 5.0791,-6.7745c1.2373,1.789 1.7488,3.5965 1.7488,3.5965c10.1884,-4.9003 28.8876,-1.8052 29.495,11.6184c0.4844,10.713 -7.0321,19.688 -10.0901,22.8791c-5.0637,6.1562 2.3376,11.4218 6.2947,13.641c-0.0039,-0.0217 -0.0062,-0.0325 -0.0062,-0.0325c0,0 0.8806,0.3776 2.2231,1.1599l0.0015,0.0008c4.1088,2.3964 12.5562,8.6021 13.4793,19.5379c0.7459,8.8382 -3.4139,20.9331 -4.2171,23.4054c-0.4589,1.4067 -1.5352,2.8042 -1.8532,4.1815c-5.7724,0.8357 -10.9336,1.946 -10.9336,1.946c-0.0046,0.0132 -0.0139,0.0333 -0.0193,0.048c-2.8669,1.2032 -6.8735,0.2925 -9.8255,-0.0441c-4.1057,-0.4674 -8.1796,-1.1073 -12.1066,-2.4444c-6.2738,-2.1371 -11.6461,-5.623 -16.2579,-10.1226c-2.2223,-3.3489 -5.5627,-10.6905 -3.2522,-22.575z" fill="#ffffff"></path></g><g data-paper-data="{&quot;index&quot;:null}" stroke="none" stroke-width="0.77378" stroke-linecap="butt" stroke-linejoin="miter"><path d="M215.34516,165.8269l-0.0387,-0.0015c-2.8228,-0.0944 -9.8232,-1.7016 -13.4398,-6.0704l-0.9054,-1.0933c-0.0386,-0.0062 -0.0773,-0.0132 -0.116,-0.0201c-0.3211,-0.0774 -0.6268,-0.1571 -0.9556,-0.25l-0.1811,-0.0495c-3.9208,-1.1514 -5.8281,-2.9961 -6.376,-6.1662c-0.7227,-4.1723 3.2383,-5.3399 7.4314,-6.5772c0.5633,-0.1671 1.146,-0.3381 1.7387,-0.5223c1.4563,-0.4511 2.9992,-1.0314 4.491,-1.5916c2.9737,-1.1182 5.7825,-2.1736 8.0195,-2.3044c0.1811,-0.0108 0.3652,-0.0162 0.5486,-0.0162c3.8418,0 8.322,2.3732 11.4125,6.0471c2.5953,3.0843 3.7799,6.6096 3.2491,9.6707c-1.3618,7.8817 -11.7019,8.8373 -14.8388,8.9426z" fill="#f7941e"></path><path d="M215.56096,142.3249c-0.1609,0 -0.3219,0.0046 -0.4812,0.0139c-3.154,0.1841 -7.9406,2.514 -12.2343,3.8457c-4.8377,1.5019 -8.9937,2.1952 -8.37,5.7925c0.3915,2.2633 1.495,4.0569 5.5604,5.2509c0.065,0.0154 0.1346,0.0356 0.2051,0.0565c0.2785,0.0789 0.5695,0.1547 0.8759,0.2275c0.6012,0.1091 1.3572,0.1578 2.2161,0.1578c4.9738,0 13.4204,-1.6458 15.5089,-2.9032c0.1354,-0.082 0.2816,-0.1184 0.4302,-0.1184c0.855,0 1.7727,1.2086 0.9324,1.9112c-1.9391,1.6226 -9.6514,2.5527 -14.8558,2.5527c-0.9657,0 -1.8463,-0.0325 -2.5868,-0.0975c3.3884,4.0926 10.0553,5.5658 12.5848,5.6502c4.7123,-0.1579 12.6467,-1.6892 13.7331,-7.98c1.1483,-6.6259 -6.8952,-14.3598 -13.5188,-14.3598M227.86176,146.4646c2.8576,3.3969 4.1026,7.1675 3.5037,10.617c-1.5104,8.7445 -12.5848,9.7915 -15.943,9.9037l-0.0781,0.0023l-0.0774,-0.0023c-2.3801,-0.0797 -10.1156,-1.4424 -14.2956,-6.4905l-0.6523,-0.7877c-0.2453,-0.0612 -0.4813,-0.1246 -0.7103,-0.1888l-0.0101,-0.0031l-0.0356,-0.0101l-0.0688,-0.0193l-0.065,-0.0155l-0.0503,-0.0155c-4.3479,-1.2767 -6.5663,-3.4611 -7.1931,-7.0824c-0.8991,-5.1905 4.1722,-6.6862 8.2462,-7.8879c0.5594,-0.1648 1.1359,-0.3351 1.7232,-0.5169c1.4245,-0.4418 2.9504,-1.0152 4.4276,-1.57c3.0579,-1.1491 5.948,-2.2347 8.3599,-2.3763c0.2058,-0.0116 0.4124,-0.0178 0.6182,-0.0178c4.1707,0 8.9983,2.5357 12.3008,6.4611z" fill="#000000"></path></g><path d="M236.46086,139.2406c0.5308,0.6809 0.8596,1.6218 0.8596,2.6602c0,1.0384 -0.3288,1.9794 -0.8596,2.6603c-0.5308,0.6817 -1.2644,1.1034 -2.0738,1.1034c-0.8093,0 -1.5429,-0.4217 -2.0737,-1.1034c-0.5308,-0.6809 -0.8597,-1.6219 -0.8597,-2.6603c0,-1.0384 0.3289,-1.9793 0.8597,-2.6602c0.5308,-0.6817 1.2644,-1.1034 2.0737,-1.1034c0.8094,0 1.543,0.4217 2.0738,1.1034z" data-paper-data="{&quot;index&quot;:null}" fill="#000000" stroke="none" stroke-width="0.77378" stroke-linecap="butt" stroke-linejoin="miter"></path><path d="M219.42686,137.5119c0.407,0.5231 0.6592,1.245 0.6592,2.0413c0,0.7962 -0.2522,1.5181 -0.6592,2.0412c-0.4071,0.5223 -0.9696,0.8457 -1.5902,0.8457c-0.6205,0 -1.1831,-0.3234 -1.5901,-0.8457c-0.407,-0.5231 -0.6592,-1.245 -0.6592,-2.0412c0,-0.7963 0.2522,-1.5182 0.6592,-2.0413c0.407,-0.5223 0.9696,-0.8457 1.5901,-0.8457c0.6206,0 1.1831,0.3234 1.5902,0.8457z" data-paper-data="{&quot;index&quot;:null}" fill="#000000" stroke="none" stroke-width="0.77378" stroke-linecap="butt" stroke-linejoin="miter"></path><path d="M251.00182,178.98762c0,0 10.7483,10.8517 10.34039,23.21273c-0.40801,12.36107 -3.69306,20.9865 -13.55968,13.09904c-12.68023,-10.13594 -10.66192,-31.81652 -7.41013,-45.16403" data-paper-data="{&quot;index&quot;:null}" fill="#8a8fc6" stroke="#000000" stroke-width="2.32134" stroke-linecap="round" stroke-linejoin="round"></path></g></g></svg>