<svg version="1.1" xmlns="http://www.w3.org/2000/svg" xmlns:xlink="http://www.w3.org/1999/xlink" width="113.33857" height="129.78242" viewBox="0,0,113.33857,129.78242"><g transform="translate(-183.33072,-115.10879)"><g data-paper-data="{&quot;isPaintingLayer&quot;:true}" fill-rule="evenodd" stroke-miterlimit="10" stroke-dasharray="" stroke-dashoffset="0" style="mix-blend-mode: normal"><g data-paper-data="{&quot;index&quot;:null}"><path d="M262.37151,203.97786c0.74176,-0.989 14.58788,7.78844 20.02744,-6.1813c3.83241,-9.64284 1.73077,-18.29666 7.04669,-17.80216c5.43955,0.4945 11.74448,14.95877 -0.12363,25.59061c-11.00274,9.76647 -22.25271,6.18132 -26.70326,3.58517c-4.32691,-2.71977 -0.98898,-4.20329 -0.24724,-5.1923z" fill="#ffab19" stroke="#001026" stroke-width="1.2" stroke-linecap="round" stroke-linejoin="round"></path><path d="M288.82749,180.61252c3.09065,-0.49451 5.81043,3.95604 6.42856,8.28295c0.24726,4.45054 -0.4945,7.04667 -1.35988,9.14833c-0.12363,-0.86538 -1.23626,-3.8324 -4.82142,-4.45054c-2.96702,-0.49451 -4.94504,1.97802 -4.94504,1.97802c0,0 1.23627,-3.70878 1.8544,-9.14833c0.4945,-3.33791 0.37086,-5.31593 2.84339,-5.81043z" fill="#ffffff" stroke="none" stroke-width="1" stroke-linecap="butt" stroke-linejoin="miter"></path></g><path d="M256.56108,216.83499c-2.34889,-3.33792 -4.69778,-8.53023 -0.24724,-11.37361c5.19231,-3.21428 8.40658,1.35987 10.87911,3.8324c3.46152,3.46155 5.06867,6.67582 6.55219,6.67582c5.06866,0 10.75547,-2.47253 14.95875,-0.98902c2.71978,0.98901 2.96704,13.72251 1.60715,16.68954c-1.73077,3.70879 -11.00273,3.95605 -9.8901,-7.41757c0,0 -10.50822,4.32691 -14.58789,1.73076c-5.93406,-3.70878 -8.40658,-8.03569 -9.27196,-9.14833z" data-paper-data="{&quot;index&quot;:null}" fill="#ffab19" stroke="#001026" stroke-width="1.2" stroke-linecap="round" stroke-linejoin="round"></path><path d="M235.29737,190.62626c0.37088,-2.84342 4.45054,-2.59615 6.30494,0.24724c4.94505,8.15931 0.98901,21.38732 -7.66482,23.73621c-6.6758,1.85441 -14.71151,1.73077 -14.217,-4.20329c0.49451,-6.05769 9.14834,-3.58516 11.99173,-5.06868c2.96703,-1.60715 3.21429,-11.99175 3.58517,-14.71152z" data-paper-data="{&quot;index&quot;:null}" fill="#ffab19" stroke="#001026" stroke-width="1.2" stroke-linecap="round" stroke-linejoin="round"></path><g data-paper-data="{&quot;index&quot;:null}"><path d="M245.06386,210.7773c-1.48352,-1.11264 -3.70879,-4.07966 -5.6868,-7.04669c-1.60715,-2.34889 -3.3379,-6.92307 -3.3379,-6.92307c-1.11264,-3.09065 -1.8544,-9.02471 2.22527,-8.90108c2.71978,0.12363 5.19232,-0.24725 9.3956,-0.86538c7.41758,-1.48352 8.90108,-2.96703 11.86812,2.59615c5.56316,10.26097 12.98073,17.55491 2.84339,23.48897c-2.47253,1.48352 -6.42857,3.95603 -9.8901,6.42856c-2.47253,2.3489 1.23626,7.41757 3.83241,10.3846c1.11264,1.35988 1.11264,3.3379 -0.24724,4.69778c-9.02472,8.77745 -11.74449,11.86811 -15.20603,8.03571c-4.6978,-5.19229 2.71977,-10.26097 2.71977,-10.26097c0,0 -5.93404,-9.27196 -5.1923,-13.35163c0.86539,-3.95604 6.67582,-8.28295 6.67582,-8.28295z" fill="#ffab19" stroke="#001026" stroke-width="1.2" stroke-linecap="round" stroke-linejoin="round"></path><path d="M246.01774,210.65724c0,0 -3.83242,-2.59614 -6.55219,-8.15932c0,0 -2.34888,-3.09065 2.96704,-6.42855c5.56319,-3.58516 7.66483,0.37087 9.8901,3.3379c2.47251,3.83241 0,5.68681 -2.47253,7.91208c-1.97801,1.85439 -3.83241,3.3379 -3.83241,3.3379z" fill="#ffffff" stroke="none" stroke-width="1" stroke-linecap="butt" stroke-linejoin="miter"></path></g><path d="M251.18791,186.24556c8.14337,-2.16123 20.33192,-5.63301 23.91708,-1.30611c1.60715,1.85439 6.42857,12.11537 6.05769,17.43129c-0.4945,5.6868 -8.90107,7.29395 -10.75547,1.8544c-1.35989,-3.83241 -3.58516,-10.26097 -3.95604,-10.3846c-1.35987,-0.24727 -6.42856,1.978 -9.14832,0.74175" data-paper-data="{&quot;index&quot;:null}" fill="#ffab19" stroke="#001026" stroke-width="1.2" stroke-linecap="round" stroke-linejoin="round"></path><g data-paper-data="{&quot;index&quot;:null}"><path d="M235.60645,125.7225c2.84341,-0.4945 5.81044,-0.74174 9.27197,-0.4945c5.81044,0.24724 11.37361,2.34889 11.37361,2.34889l14.95876,-9.76647c0.49451,-0.24725 1.11264,0.12363 0.98901,0.61813l-2.59615,22.12909c-0.74177,-0.989 13.10438,15.82415 4.32691,29.91754c-8.77746,14.09339 -27.44502,20.39833 -50.68673,15.82415c-23.24171,-4.57416 -28.68127,-17.92579 -27.19775,-24.97248c1.4835,-7.04669 10.26097,-9.64284 10.26097,-9.64284c0,0 0.12362,-5.56319 4.07967,-12.36262c2.34889,-4.07967 10.26097,-9.8901 10.26097,-9.8901l3.21427,-13.22801c0.12362,-0.49451 0.74176,-0.61812 1.11264,-0.37088z" fill="#ffab19" stroke="#001026" stroke-width="1.2" stroke-linecap="butt" stroke-linejoin="miter"></path><path d="M206.67794,152.1785c10.50822,-2.34889 11.49724,5.43956 20.39833,6.05769c10.38458,0.74176 24.6016,-10.50823 32.88455,2.71977c8.28295,13.10437 -5.93405,30.90653 -35.85159,24.72523c-22.99447,-4.45055 -28.92853,-17.18404 -27.44501,-24.23073c1.48352,-7.0467 10.01371,-9.27196 10.01371,-9.27196z" fill="#ffffff" stroke="none" stroke-width="1" stroke-linecap="butt" stroke-linejoin="miter"></path><path d="M245.62017,165.40651c0.37088,6.05769 -0.74176,13.96976 -11.99174,15.20602c-12.98074,0.74176 -17.67854,-8.53021 -18.79117,-11.86812c-0.24725,-0.61813 0.24725,-1.23626 0.86538,-1.11263c1.8544,0.37088 5.81043,0.74176 12.48624,0.37088c7.41757,-0.49451 14.09338,-2.47252 16.44227,-3.3379c0.49451,-0.12364 0.98901,0.24724 0.98901,0.74174z" fill="#ffffff" stroke="#001026" stroke-width="1.2" stroke-linecap="round" stroke-linejoin="round"></path><path d="M198.64224,158.35981c0,0 -8.90109,-0.12363 -14.71152,-4.82142" fill="none" stroke="#001026" stroke-width="1.2" stroke-linecap="round" stroke-linejoin="round"></path><path d="M198.14774,165.65376c0,0 -4.82142,2.34888 -12.60987,1.73075" fill="none" stroke="#001026" stroke-width="1.2" stroke-linecap="round" stroke-linejoin="round"></path><path d="M227.57074,155.0219c2.47253,0 5.81043,0.12363 5.6868,1.60715c0,1.97803 -5.1923,5.06866 -7.41757,4.82142c-1.97803,-0.12362 -3.83241,-3.58517 -3.70878,-5.31592c0.12363,-0.8654 2.8434,-1.11263 5.43955,-1.11263z" fill="#001026" stroke="#001026" stroke-width="1.2" stroke-linecap="round" stroke-linejoin="round"></path><path d="M268.24376,160.46145c4.32691,-3.83241 14.95876,-7.29395 14.95876,-7.29395" fill="none" stroke="#001026" stroke-width="1.2" stroke-linecap="round" stroke-linejoin="round"></path><path d="M282.33714,165.53011c0,0 -9.14833,1.3599 -14.46425,-0.74175" fill="none" stroke="#001026" stroke-width="1.2" stroke-linecap="round" stroke-linejoin="round"></path><g><path d="M225.83999,134.62359c3.46155,2.22527 3.33792,8.53021 -0.24725,14.09339c-3.7088,5.56317 -9.39558,8.15932 -12.85712,5.93406c-3.46155,-2.22527 -3.33792,-8.53021 0.24724,-14.09339c3.58515,-5.56317 9.39559,-8.28295 12.85712,-5.93406z" fill="#ffffff" stroke="#001026" stroke-width="1.2" stroke-linecap="round" stroke-linejoin="round"></path><path d="M213.47737,147.60432c0,-1.35989 0.98901,-2.47253 2.22526,-2.47253c1.23626,0 2.22527,1.11264 2.22527,2.47253c0,1.35989 -0.98901,2.47253 -2.22527,2.47253c-1.23626,0 -2.22526,-1.11265 -2.22526,-2.47253" fill="#001026" stroke="none" stroke-width="1" stroke-linecap="butt" stroke-linejoin="miter"></path></g><g><path d="M243.64214,144.01919c3.70879,-5.43955 9.51922,-8.40658 13.35162,-5.56319c3.83243,2.71978 3.58517,9.76647 -0.24724,15.20602c-3.7088,5.43955 -9.14833,7.17031 -13.228,4.82142c-3.33791,-2.3489 -3.58516,-9.02471 0.12363,-14.46426z" fill="#ffffff" stroke="#001026" stroke-width="1.2" stroke-linecap="round" stroke-linejoin="round"></path><path d="M244.38391,151.18949c0,-1.35989 0.98901,-2.3489 2.22527,-2.47253c1.23625,0 2.22527,1.11265 2.22527,2.47253c0,1.35989 -0.98901,2.47253 -2.22527,2.47253c-1.23625,0 -2.22527,-1.11265 -2.22527,-2.47253" fill="#001026" stroke="none" stroke-width="1" stroke-linecap="butt" stroke-linejoin="miter"></path></g></g></g></g></svg>