<svg version="1.1" xmlns="http://www.w3.org/2000/svg" xmlns:xlink="http://www.w3.org/1999/xlink" width="131.18996" height="38.14057" viewBox="0,0,131.18996,38.14057"><g transform="translate(-149.58388,-153.47917)"><g data-paper-data="{&quot;isPaintingLayer&quot;:true}" fill-rule="nonzero" stroke="none" stroke-width="1" stroke-linecap="butt" stroke-linejoin="miter" stroke-miterlimit="10" stroke-dasharray="" stroke-dashoffset="0" style="mix-blend-mode: normal"><path d="M273.65612,187.58412c-3.16602,1.39544 -7.02198,2.1628 -11.44188,2.25566c-1.82811,0.04095 -3.60602,0.07468 -5.32108,0.09329c-0.93915,0.02409 -5.17206,0.16074 -19.37403,0.64168c-0.10024,0.00635 -0.21285,0.00438 -0.32561,0.01052c-2.45402,0.0462 -6.62507,0.22447 -12.41309,0.53656c-4.46368,0.44873 -5.62891,0.51749 -6.98024,0.49384c-5.96846,-0.10445 -11.32219,-1.72193 -15.05275,-4.54303c-1.86529,-1.41053 -3.01126,-3.15702 -3.30468,-4.98584c-0.21336,-1.39784 -0.65226,-4.20995 1.89873,-6.93732c1.32697,-1.44384 3.81531,-3.45092 8.13077,-4.72899l0.0012,-0.06869c1.7026,-0.03173 3.3183,-0.2852 4.77951,-0.71832c0.15286,0.00625 0.30643,0.01076 0.4607,0.01347c1.38947,0.02432 2.72863,-0.09895 3.98214,-0.34783c0.23501,0.01263 0.47182,0.02112 0.71027,0.02528c1.17366,0.02054 2.31141,-0.06422 3.39197,-0.24104c0.18693,-0.01889 0.37247,-0.04084 0.55615,-0.0669c1.2805,0.13568 2.57256,0.20099 3.86787,0.04003c5.41182,-0.67249 10.91497,-0.41284 16.38605,-0.64907c0.00919,0.06724 0.01848,0.13513 0.02788,0.20369c0.13778,-0.00568 0.27557,-0.01139 0.41335,-0.01709c-0.01827,-0.06879 -0.03657,-0.13678 -0.05484,-0.20414c1.20056,-0.05715 2.39947,-0.13981 3.59535,-0.26309c5.2344,0.17711 10.52099,0.20592 16.18153,0.31954c1.2735,0.30771 2.64308,0.48669 4.07124,0.51169c0.07884,0.00139 0.15753,0.00229 0.23606,0.00272c1.75394,0.39688 4.00596,0.83809 5.60314,1.15292c0.86744,0.67026 1.89619,1.25107 3.04741,1.71627c0.35403,0.43437 0.66973,0.86118 1.0257,1.14004c0.18825,0.14748 0.53712,0.34041 0.99795,0.56271c0.01271,0.06828 0.02584,0.13772 0.03942,0.20833c0.31795,0.42705 0.6106,0.86984 0.90253,1.35317c0.27984,0.45879 0.50949,0.92481 0.66394,1.39762c1.4882,4.36237 -1.08946,8.61306 -6.70263,11.09231z" fill="#00cccc"></path><path d="M149.58388,156.96256c0,-1.04701 0.14429,-2.2434 0.48474,-3.48339c0.01079,0.0838 0.02306,0.16706 0.03684,0.24975c0.19513,1.17078 0.94269,3.19326 0.74891,4.27281c-0.05675,0.31611 -0.50059,1.52885 -0.81298,2.67531c-0.30499,-1.23813 -0.4575,-2.48195 -0.4575,-3.71447z" fill="#00cccc"></path><path d="M274.86778,177.69431c0.3012,1.62976 -0.23071,2.88791 -1.59892,3.77266c-1.36834,0.88799 -3.21755,1.34919 -5.54766,1.38522c-2.33012,0.03604 -4.58164,0.053 -6.76736,0.04705c-1.42441,0.02399 -9.93645,0.30061 -25.53116,0.82686c-3.61093,0.03581 -9.50979,0.31848 -17.69968,0.84462c-3.82295,0.52972 -5.97016,0.77975 -6.4436,0.75812c-2.65487,-0.12129 -4.70037,-1.0697 -6.13649,-2.84524c-0.11272,-1.71507 -0.06732,-2.70884 0.13635,-2.98452c1.23111,-2.03096 3.41664,-3.11964 6.55796,-3.26111c2.56656,-0.07219 5.08619,-0.14491 7.55918,-0.22462c0.07784,0.00356 0.15869,-0.05867 0.2444,-0.1866c0.56241,0.08561 1.13482,0.14249 1.71579,0.16903c0.61366,0.02804 1.22088,0.0215 1.8198,-0.01789c0.59283,0.09382 1.19694,0.15572 1.81059,0.18375c2.10216,0.09604 4.12889,-0.21361 6.00443,-0.85981c2.67532,0.43999 5.17455,0.63571 7.49512,0.58622c3.51782,-0.12427 7.08411,-0.24633 10.70042,-0.36448c2.27781,0.01016 4.55784,-0.02818 6.84178,-0.11652c2.89558,-0.04652 5.75759,-0.35434 8.59024,-0.92327c2.85295,0.63608 6.15638,0.84793 9.20942,0.70706c0.33524,0.67925 0.68172,1.51314 1.03937,2.50346z" fill="#ffffff"></path></g></g></svg>