<svg version="1.1" xmlns="http://www.w3.org/2000/svg" xmlns:xlink="http://www.w3.org/1999/xlink" width="82.05307" height="45.0797" viewBox="0,0,82.05307,45.0797"><defs><linearGradient x1="228.77299" y1="157.63645" x2="228.77299" y2="202.53985" gradientUnits="userSpaceOnUse" id="color-1"><stop offset="0" stop-color="#5530bf"></stop><stop offset="1" stop-color="#3f238d"></stop></linearGradient><linearGradient x1="254.27515" y1="157.46015" x2="254.27515" y2="196.84413" gradientUnits="userSpaceOnUse" id="color-2"><stop offset="0" stop-color="#5530bf"></stop><stop offset="1" stop-color="#3f238d"></stop></linearGradient></defs><g transform="translate(-198.97346,-157.46015)"><g data-paper-data="{&quot;isPaintingLayer&quot;:true}" fill-rule="nonzero" stroke="#ffffff" stroke-width="0" stroke-linecap="butt" stroke-linejoin="miter" stroke-miterlimit="10" stroke-dasharray="" stroke-dashoffset="0" style="mix-blend-mode: normal"><path d="M258.57252,180.08815c0,12.39973 -13.34171,22.4517 -29.79953,22.4517c-16.45782,0 -29.79953,-10.05197 -29.79953,-22.4517c0,-12.39973 13.34171,-22.4517 29.79953,-22.4517c16.45782,0 29.79953,10.05197 29.79953,22.4517z" fill="url(#color-1)"></path><path d="M254.27515,157.46015c14.77438,0 26.75138,8.8164 26.75138,19.69199c0,10.87559 -11.977,19.69199 -26.75138,19.69199c-14.77438,0 -26.75138,-8.8164 -26.75138,-19.69199c0,-10.87559 11.977,-19.69199 26.75138,-19.69199z" fill="url(#color-2)"></path></g></g></svg>