<svg version="1.1" xmlns="http://www.w3.org/2000/svg" xmlns:xlink="http://www.w3.org/1999/xlink" width="132.5896" height="131.5005" viewBox="0,0,132.5896,131.5005"><g transform="translate(-176.09229,-119.56135)"><g data-paper-data="{&quot;isPaintingLayer&quot;:true}" fill-rule="nonzero" stroke="none" stroke-width="1" stroke-linecap="butt" stroke-linejoin="miter" stroke-miterlimit="10" stroke-dasharray="" stroke-dashoffset="0" style="mix-blend-mode: normal"><path d="M247.80203,177.65814c-3.47884,-3.9427 -0.34788,-11.94405 -0.34788,-11.94405c18.43789,0.81174 39.54291,32.58522 39.54291,32.58522c0,0 -7.65347,6.37789 -7.76943,6.26193c0,0 -10.08866,18.55386 -13.79943,21.68482c0,0 -28.29463,-18.09002 -35.36829,-30.38195z" data-paper-data="{&quot;index&quot;:null}" fill="#4a3369"></path><g data-paper-data="{&quot;index&quot;:null}"><g fill="#a3b339"><path d="M210.81027,207.69219c5.91405,-0.46384 8.58116,11.59616 9.74078,19.13367c1.15962,7.5375 -8.11731,15.42289 -11.71212,7.30558c-3.59481,-8.11731 -2.78308,-26.09137 1.97135,-26.43925z"></path><path d="M220.4351,226.82587c-0.23193,3.59481 0.46384,8.34923 3.015,8.11731c2.55116,-0.23192 8.34924,0.69577 6.84174,2.66712c-1.5075,1.97135 -9.9727,-0.69577 -9.9727,-0.69577c0,0 9.27693,4.29058 7.76943,6.26193c-1.5075,1.97134 -10.55251,-4.75443 -10.55251,-4.75443c0,0 6.60981,6.26192 4.29058,6.72577c-2.31924,0.46385 -6.49385,-6.95769 -8.34924,-6.60981c-1.85538,0.34789 1.39154,7.42154 -1.62346,6.37789c-3.01501,-1.04366 -4.87039,-14.14732 -4.05866,-16.35059"></path></g><path d="M231.56742,212.09872c10.08866,8.58116 16.58251,17.51021 9.50885,21.22098c-4.05866,2.20327 -29.80214,-3.71077 -32.58522,-18.09001c-2.78308,-14.37924 12.9877,-11.59616 23.07636,-3.13096z" fill="#a3b339"></path><path d="M220.66703,199.11103c3.24692,-7.76943 15.07501,-17.85809 24.58386,1.39154c6.03,12.29193 8.00135,30.96175 -4.17462,32.9331c-12.17597,1.97135 -23.65618,-26.55521 -20.40925,-34.32464z" fill="#a3b339"></path><path d="M246.1786,202.4739c0,0 0.11596,0.23192 0.23192,0.69577c0.23192,0.34789 0.57981,1.04366 0.92769,1.85539c0.69577,1.62346 1.62346,4.05866 2.43519,7.07366c0.34788,1.39154 0.69577,3.13097 0.92769,4.87039c0.23192,1.73942 0.34788,3.71077 0.23192,5.68212c-0.11596,1.97134 -0.57981,4.05865 -1.62346,6.03c-0.92769,1.97135 -2.78308,3.59481 -4.98635,4.29058l-1.5075,0.46385l-1.5075,0.46385l-1.5075,0.34788l-1.39154,0.23192c-2.08731,0.11597 -4.17462,0 -6.14597,-0.34788c-3.82674,-0.81173 -7.30558,-2.31924 -9.85674,-4.05866c-1.27558,-0.81174 -2.4352,-1.73943 -3.36289,-2.55116c-1.04365,-0.81173 -1.85538,-1.5075 -2.43519,-2.20327c-1.27558,-1.27558 -1.85539,-2.08731 -1.85539,-2.08731c0,0 0.69577,0.69577 2.08731,1.85539c1.27557,1.15962 3.36288,2.66712 6.03,4.17462c2.66711,1.5075 5.91404,2.89904 9.62481,3.36289c1.85539,0.23192 3.71077,0.34788 5.68212,0.11596l1.39154,-0.23192l1.39154,-0.34788l1.39154,-0.34788l1.39154,-0.46385c1.73943,-0.69577 3.13097,-1.85539 4.05866,-3.47885c0.92769,-1.62346 1.27558,-3.47884 1.5075,-5.33423c0.23192,-3.71077 -0.23192,-7.18962 -0.69577,-10.20462c-0.46384,-3.015 -1.15961,-5.4502 -1.62346,-7.18962c-0.23193,-0.81173 -0.46385,-1.5075 -0.57981,-1.97135c-0.11596,-0.46385 -0.23192,-0.69577 -0.23192,-0.69577z" fill="#687a27"></path><path d="M216.26049,205.02509c0,0 -0.46385,0 -1.27558,-0.23192c-0.34788,0 -0.92769,0.23192 -1.5075,0.34788c-0.57981,0.23192 -1.27558,0.46384 -1.85539,0.92769c-0.34788,0.23192 -0.57981,0.46385 -0.92769,0.69577c-0.23192,0.34788 -0.57981,0.57981 -0.81173,0.92769c-0.23192,0.34788 -0.46385,0.69577 -0.69577,1.04365c-0.23193,0.34789 -0.46385,0.69577 -0.57981,1.15962c-0.34789,0.92769 -0.46385,1.85539 -0.69577,2.78308c-0.11596,1.04365 -0.23192,1.97135 -0.34788,3.015c-0.11596,0.92769 -0.23192,1.97135 -0.23192,3.015c0,1.04365 0,2.08731 0,3.015c0,1.97134 0,3.82673 0.11596,5.33423c0.11596,1.5075 0.23192,2.78308 0.34788,3.71077c0,0.46384 0,0.81173 0.11596,1.04365c0,0.11596 0.11596,0.23192 0.11596,0.23192c0.11596,0 0.11596,0 0.11596,0c-0.11596,0 0,0.11596 -0.11596,0.11596c-0.11596,0 -0.11596,-0.11596 -0.23192,-0.23192c-0.11597,-0.23192 -0.34789,-0.5798 -0.46385,-1.04365c-0.34788,-0.92769 -0.69577,-2.20327 -1.04365,-3.71077c-0.23192,-1.5075 -0.57981,-3.36288 -0.69577,-5.33423c0,-0.92769 -0.11596,-1.97135 -0.11596,-3.015c0,-1.04365 0,-2.08731 0.11596,-3.13096c0.11597,-1.04365 0.23193,-2.08731 0.46385,-3.13096c0.11597,-0.46385 0.23193,-1.04365 0.46385,-1.5075c0.23193,-0.57981 0.34789,-1.04365 0.57981,-1.5075c0.11596,-0.46385 0.34789,-0.92769 0.69577,-1.39154c0.23192,-0.46385 0.57981,-0.81174 0.92769,-1.15962c0.34788,-0.34788 0.69577,-0.57981 1.04365,-0.92769c0.46385,-0.23192 0.81174,-0.57981 1.15962,-0.69577c0.81173,-0.46385 1.5075,-0.57981 2.20327,-0.69577c0.69577,0 1.27557,0 1.73942,0c0.46384,0.11596 0.81173,0.23192 1.04365,0.23192c0.23192,0.11596 0.34788,0.11596 0.34788,0.11596z" fill="#687a27"></path><path d="M213.59336,238.53797c0,0 0.11597,-0.11596 0.46385,0.23192c0.34789,0 0.81173,0.23193 1.27558,0.46385c0.46385,0.23192 1.04365,0.5798 1.5075,1.04365c0.46385,0.46385 0.92769,0.92769 1.39154,1.39154c0.92769,1.04366 1.62346,2.08731 2.31923,2.78308c0.23192,0.34789 0.57981,0.57981 0.81173,0.69577c0.11596,0.11596 0.23192,0.11596 0.34788,0.11596c0.11596,0 0.11596,0 0.11596,0c0,0 -0.11597,0.11596 -0.46385,0.23192c-0.34789,0 -0.81173,0 -1.39154,-0.23192c-1.04365,-0.46384 -2.20327,-1.39154 -3.13096,-2.43519c-0.46385,-0.57981 -0.9277,-1.15961 -1.27558,-1.62346c-0.34788,-0.46385 -0.69577,-0.92769 -0.92769,-1.39154c-0.23192,-0.34788 -0.46385,-0.69577 -0.69577,-0.92769c-0.23192,-0.23192 -0.34788,-0.34788 -0.34788,-0.34788z" fill="#687a27"></path><path d="M217.53606,238.42203c0,0 0.81173,0.23192 1.5075,0.81173c1.04365,0.46385 2.31923,1.15962 3.59481,1.85539c0.69577,0.34788 1.27558,0.69577 1.85539,1.04365c0.23192,0.11597 0.57981,0.34789 0.81173,0.46385c0.34788,0.11596 0.57981,0.23192 0.81173,0.34788c0.23192,0.11596 0.46385,0.23192 0.69577,0.23192c0.23193,0 0.46385,0.11596 0.57981,0.11596c0.34789,0 0.57981,0 0.57981,0c0,0 -0.11597,0.11596 -0.46385,0.34788c-0.11596,0.11596 -0.34789,0.11596 -0.57981,0.23192c-0.23192,0.11596 -0.46385,0.11596 -0.81173,0.11596c-0.34788,0 -0.69577,-0.11596 -1.04365,-0.11596c-0.34788,0 -0.69577,-0.11596 -1.04365,-0.23192c-0.69577,-0.23192 -1.39154,-0.57981 -2.08731,-0.92769c-0.69577,-0.34789 -1.27558,-0.81173 -1.85539,-1.27558c-0.57981,-0.46385 -1.04366,-0.92769 -1.39154,-1.39154c-0.81174,-0.92769 -1.15962,-1.62346 -1.15962,-1.62346z" fill="#687a27"></path><path d="M230.29185,237.6103c0,0 0,0.23192 -0.11596,0.34788c-0.23193,0.23192 -0.69577,0.57981 -1.15962,0.69577c-0.46384,0.23192 -1.15961,0.34788 -1.73942,0.34788c-0.69577,0 -1.27558,0 -1.97135,-0.11596c-1.39154,-0.11596 -2.55116,-0.5798 -3.47885,-1.04365c-0.81173,-0.46384 -1.39154,-0.92769 -1.39154,-0.92769c0,0 0.69577,-0.11596 1.62346,-0.11596c1.04366,0 2.20327,0 3.47885,0.23192c0.5798,0.11596 1.15961,0.23192 1.73942,0.34788c0.57981,0.11596 1.04365,0.11596 1.5075,0.23192c0.34788,0.11596 0.81173,0.11596 1.04365,0.11596c0.34789,0 0.46385,-0.11596 0.46385,-0.11596z" fill="#687a27"></path><path d="M220.66703,228.21741c0,0 0.23193,0.46385 0.57981,1.15962c0.23193,0.57981 0.46385,1.39154 0.57981,2.20327c0.11596,0.81173 0.23192,1.5075 0.34788,2.08731c0,0.11596 0.11596,0.23192 0.11596,0.34788c0,0.11596 0.11596,0.23192 0.11596,0.34788c0.11596,0.23192 0.11596,0.34788 0.11596,0.34788c0,0 -0.11596,0 -0.34788,0c-0.23193,0 -0.34789,0 -0.46385,-0.11596c-0.11597,0 -0.34789,-0.11596 -0.46385,-0.23192c-0.23192,-0.23192 -0.57981,-0.5798 -0.81173,-1.04365c-0.23193,-0.46385 -0.34789,-0.92769 -0.46385,-1.39154c-0.23192,-0.9277 -0.11596,-1.85539 0.11596,-2.55116c0.23193,-0.69577 0.57981,-1.15962 0.57981,-1.15962z" fill="#687a27"></path></g><g data-paper-data="{&quot;index&quot;:null}"><path d="M270.51534,224.41935c2.25898,1.23546 6.37394,9.63511 7.95132,11.35497c1.57737,1.71987 1.60403,6.19896 -2.59009,-0.36886c0,0 0.43803,6.00177 -1.3049,4.71519c-1.74293,-1.28657 -1.51765,-4.80047 -1.51765,-4.80047c0,0 -3.74166,5.89454 -4.71048,4.53131c-0.96882,-1.36322 1.37796,-5.55623 1.37796,-5.55623c0,0 -3.63694,4.32076 -4.09941,2.28204c-0.29332,-0.85688 2.74839,-3.29474 0.54301,-6.62005" fill="#a3b339"></path><path d="M263.02093,193.99776c8.10021,-3.98108 13.17426,5.15741 9.7759,8.20383c-3.43974,3.15476 -4.50354,3.98969 -6.12731,7.58997c-1.62377,3.60029 4.77572,13.49343 6.61836,18.41805c1.80124,5.03296 -3.85609,6.84392 -8.06243,2.2576c-3.61361,-3.86333 -13.09981,-12.82542 -14.02224,-19.5088c-0.92243,-6.68338 3.86722,-13.0465 11.81772,-16.96063z" fill="#a3b339"></path><path d="M265.77791,235.51958c0,0 0.08276,-0.21665 0.01583,-0.36635c0.23249,-0.2836 0.39803,-0.7169 0.49663,-1.29991c0.09861,-0.58301 0.13027,-1.31574 -0.43691,-1.78069c-0.28359,-0.23249 -0.67549,-0.50635 -1.06741,-0.78022c-0.39192,-0.27387 -0.85077,-0.69746 -1.2013,-1.07965c-1.55182,-1.46184 -3.34585,-3.26447 -5.16543,-5.32515c-0.94326,-1.1052 -1.7782,-2.16901 -2.72146,-3.2742c-0.79355,-1.17213 -1.73679,-2.27732 -2.48897,-3.55778c-0.75218,-1.28046 -1.50434,-2.56093 -2.10679,-3.90832c-0.22637,-0.70716 -0.49412,-1.30601 -0.67912,-2.1215c-0.0925,-0.40775 -0.18498,-0.8155 -0.16915,-1.18185c-0.0925,-0.40774 -0.11804,-0.66579 -0.10221,-1.03214c-0.04501,-1.50683 0.3433,-2.84811 0.69022,-4.08107c0.45524,-1.19158 1.01881,-2.34178 1.60793,-3.23392c1.21964,-1.89263 2.55731,-3.11947 3.51279,-3.9958c0.5319,-0.41748 0.91412,-0.76801 1.21353,-0.90188c0.34081,-0.24221 0.49052,-0.30915 0.49052,-0.30915c0,0 -0.5319,0.41746 -1.37907,1.33516c-0.73883,0.9591 -1.90125,2.37704 -2.86284,4.24412c-0.48079,0.93354 -0.89466,2.01678 -1.20019,3.14143c-0.30553,1.12464 -0.43581,2.44037 -0.37497,3.58084c-0.01583,0.36635 0.11804,0.66578 0.10221,1.03214c0.02555,0.25804 0.00973,0.62441 0.1436,0.92382c0.11806,0.66579 0.38581,1.26463 0.65357,1.86347c0.64384,1.23908 1.28767,2.47815 2.08122,3.65028c0.79355,1.17214 1.5871,2.34428 2.42204,3.40809c0.94326,1.10519 1.77819,2.169 2.61312,3.23281c1.71125,2.01929 3.35556,3.88888 4.86601,5.45904c0.45885,0.42358 0.70105,0.76439 1.09297,1.03826c0.35054,0.38218 0.74244,0.65606 1.05159,1.14657c0.35052,0.3822 0.50995,0.93966 0.45273,1.41435c-0.05722,0.47469 -0.18138,0.79968 -0.30554,1.12464c-0.35664,0.60857 -0.6305,1.00048 -0.86298,1.28407c-0.23249,0.2836 -0.38219,0.35053 -0.38219,0.35053z" fill="#687a27"></path><path d="M272.72683,226.75387c0,0 -1.11852,-1.29629 -2.48897,-3.55777c-0.41746,-0.53191 -0.79355,-1.17213 -1.16963,-1.81237c-0.3347,-0.74856 -0.8191,-1.43016 -1.1538,-2.17872c-0.77772,-1.5385 -1.51405,-3.18532 -1.95096,-4.96601c-0.29331,-0.85689 -0.43692,-1.7807 -0.4308,-2.77146c0.05722,-0.47468 0.0061,-0.99075 0.17165,-1.42406c0.08277,-0.21666 0.08278,-0.21666 0.16554,-0.4333l0.12416,-0.32497c0.08276,-0.21665 0.16554,-0.43329 0.24831,-0.64995c0.4808,-0.93354 0.94577,-1.50073 1.45212,-2.17623c0.50635,-0.6755 0.97131,-1.24268 1.50321,-1.66015c1.95235,-1.86097 3.59918,-2.5973 3.59918,-2.5973c0,0 -0.3822,0.35053 -0.84716,0.91771c-0.57329,0.52579 -1.27073,1.37655 -2.05095,2.44398c-0.31526,0.50023 -0.78022,1.06741 -1.13686,1.67598c-0.35664,0.60856 -0.75468,1.32545 -1.00299,1.97541c-0.43941,0.8252 -0.538,1.40821 -0.46135,2.18233c-0.03166,0.73273 0.15332,1.54823 0.3383,2.36372c0.36997,1.63099 0.95659,3.34476 1.51765,4.80048c0.66939,1.49711 1.23046,2.95283 1.76597,4.15052c1.07102,2.39536 1.80735,4.04219 1.80735,4.04219z" fill="#687a27"></path><path d="M279.28936,238.81962c0,0 0.06693,0.14971 -0.12416,0.32497c-0.14971,0.06696 -0.44913,0.20083 -0.81549,0.185c-0.36637,-0.01583 -0.69134,-0.13999 -0.97492,-0.37247c-0.32497,-0.12416 -0.60856,-0.35663 -0.85077,-0.69744c-0.41746,-0.53191 -0.64385,-1.23908 -0.69495,-1.75515c-0.15943,-0.55746 0.00612,-0.99075 0.00612,-0.99075c0,0 0.4333,0.16554 0.82522,0.4394c0.54163,0.20693 1.00047,0.63052 1.30961,1.12103c0.30915,0.49052 0.6183,0.98105 0.75217,1.28046c0.17527,0.1911 0.24221,0.34081 0.35053,0.3822c0.10833,0.04138 0.21664,0.08277 0.21664,0.08277z" fill="#687a27"></path><path d="M274.57168,240.12062c0,0 -0.36636,-0.01582 -0.82521,-0.4394c-0.50023,-0.31525 -1.02604,-0.88854 -1.25241,-1.59571c-0.13388,-0.29942 -0.22637,-0.70717 -0.21054,-1.07352c0.01583,-0.36637 0.09861,-0.58303 0.22277,-0.90799c0.08277,-0.21664 0.20692,-0.54161 0.35664,-0.60855c0.14971,-0.06694 0.1911,-0.17526 0.1911,-0.17526c0,0 0.10832,0.04138 0.17526,0.19109c0.06694,0.14972 0.09249,0.40776 0.26775,0.59886c0.30914,0.49052 0.50997,0.93964 0.66939,1.4971c0.15943,0.55746 0.31887,1.11492 0.36997,1.63099c0.09249,0.40773 0.03527,0.88242 0.03527,0.88242z" fill="#687a27"></path><path d="M268.30214,239.95985c0,0 -0.10833,-0.0414 -0.24221,-0.34081c-0.17526,-0.1911 -0.35053,-0.3822 -0.4844,-0.68161c-0.13389,-0.29942 -0.22637,-0.70718 -0.21054,-1.07353c0.01583,-0.36637 0.07305,-0.84106 0.19721,-1.16602c0.28971,-0.75828 0.64635,-1.36684 1.17825,-1.78432c0.49052,-0.30915 0.93965,-0.50996 0.93965,-0.50996c0,0 0.0925,0.40774 -0.00611,0.99075c-0.01583,0.36635 -0.09861,0.58301 -0.11443,0.94937c-0.08278,0.21665 -0.09861,0.58303 -0.22276,0.90799c-0.13999,0.69134 -0.45524,1.19156 -0.66217,1.7332c-0.08276,0.21665 -0.16554,0.43331 -0.24831,0.64996c-0.08278,0.21664 -0.12416,0.32496 -0.12416,0.32496z" fill="#687a27"></path></g><g data-paper-data="{&quot;index&quot;:null}"><path d="M291.98342,167.10563c-5.05947,0 -9.16097,-4.10151 -9.16097,-9.16097c0,-5.05947 4.10151,-9.16097 9.16097,-9.16097c5.05947,0 9.16097,4.10151 9.16097,9.16097c0,5.05947 -4.10151,9.16097 -9.16097,9.16097z" fill="#a3b339"></path><path d="M300.21671,153.886c0,0 -0.23193,-0.23192 -0.46385,-0.69577c-0.34789,-0.46384 -1.04366,-1.15961 -1.85539,-1.73942c-0.34789,-0.23192 -0.81173,-0.57981 -1.39154,-0.81173c-0.5798,-0.23193 -1.15961,-0.46385 -1.73942,-0.57981c-0.69577,-0.11596 -1.27558,-0.23192 -1.97135,-0.23192c-0.57981,0 -1.39154,0 -1.97135,0.11596c-0.34788,0.11596 -0.69577,0.11596 -1.04365,0.23192l-0.92769,0.34788c-0.34788,0.23193 -0.69577,0.34789 -0.92769,0.46385c-0.23192,0.11597 -0.57981,0.23193 -0.81173,0.46385c-0.46385,0.34789 -1.04366,0.69577 -1.39154,1.15962c-0.34788,0.34789 -0.69577,0.81173 -1.04365,1.27558c-0.57981,0.92769 -1.04366,1.73942 -1.27558,2.31923c-0.34789,0.57981 -0.46385,0.92769 -0.46385,0.92769c0,0 -0.11596,-0.34788 0,-1.04365c0,-0.57981 0.23192,-1.62347 0.69577,-2.66712c0.46384,-1.15962 1.15961,-2.31924 2.31923,-3.36289c0.23192,-0.23192 0.57981,-0.46385 0.92769,-0.69577c0.34788,-0.23193 0.69577,-0.34789 1.04365,-0.57981c0.34789,-0.23193 0.69577,-0.34789 1.15962,-0.46385c0.34788,-0.11596 0.69577,-0.11596 1.04365,-0.23192c0.92769,-0.11596 1.62346,-0.11596 2.43519,-0.11596c0.81173,0.11597 1.62346,0.23193 2.31923,0.46385c0.69577,0.23192 1.39154,0.57981 1.97135,0.92769c0.57981,0.34789 1.15962,0.81173 1.5075,1.27558c0.81173,0.81173 1.27558,1.73942 1.5075,2.31923c0.23192,0.57981 0.34788,0.92769 0.34788,0.92769z" fill="#687a27"></path></g><path d="M304.73924,164.09062c0,0 -0.57981,-0.57981 -1.27558,-1.27558c-0.57981,-0.46385 -1.15962,-0.92769 -1.97135,-1.5075c-0.81173,-0.5798 -1.73943,-1.15961 -2.78308,-1.73942c-1.04366,-0.46385 -2.20327,-1.04365 -3.47885,-1.5075c-1.27558,-0.46385 -2.66712,-0.81174 -4.05866,-1.15962c-1.39154,-0.23193 -2.89904,-0.46385 -4.40654,-0.46385c-1.5075,-0.11596 -3.015,-0.11596 -4.63846,0c-1.62347,0 -3.13097,0.11596 -4.75443,0.11596c-1.5075,0.11596 -3.015,0.11596 -4.5225,0.23192c-1.5075,0.11596 -2.89904,0.34789 -4.17462,0.57981c-1.27558,0.23192 -2.55116,0.69577 -3.59481,1.04365c-1.15962,0.46385 -2.08731,0.92769 -2.89904,1.39154c-0.46385,0.23192 -0.81174,0.46385 -1.15962,0.69577c-0.34788,0.23192 -0.69577,0.46385 -0.92769,0.69577c-0.57981,0.46384 -0.9277,0.81173 -1.27558,1.04365c-0.34789,0.23192 -0.46385,0.34788 -0.46385,0.34788c0,0 0.11596,-0.11597 0.34788,-0.46385c0.23192,-0.34789 0.5798,-0.81173 1.04365,-1.27558c0.23192,-0.23192 0.46385,-0.46385 0.81173,-0.81173c0.34788,-0.34788 0.69577,-0.57981 1.04365,-0.92769c0.34789,-0.34788 0.81173,-0.57981 1.27558,-0.92769c0.46385,-0.34788 0.92769,-0.57981 1.5075,-0.92769c1.04365,-0.57981 2.31923,-1.04366 3.71077,-1.39154c1.27558,-0.34788 2.78308,-0.69577 4.29058,-0.81173c3.015,-0.34789 6.26193,-0.46385 9.39289,-0.57981c1.62346,0 3.24693,-0.11596 4.87039,0c1.62346,0.11596 3.13096,0.34789 4.63846,0.69577c1.5075,0.34789 2.89904,0.81173 4.17462,1.39154c1.27558,0.46385 2.4352,1.15962 3.47885,1.85539c1.04366,0.69577 1.97135,1.39154 2.66712,2.08731c0.69577,0.69577 1.27557,1.27558 1.73942,1.85539c0.46384,0.57981 0.81173,0.9277 1.04365,1.27558c0.23192,0.34789 0.34788,0.46385 0.34788,0.46385z" data-paper-data="{&quot;index&quot;:null}" fill="#687a27"></path><g data-paper-data="{&quot;index&quot;:null}"><path d="M308.68188,173.25159c0,3.94269 -4.5225,13.33558 -20.75713,20.98905c-7.76943,3.59481 -7.42154,2.78308 -25.16367,25.9754c-17.74213,23.19233 -60.99581,19.9454 -66.44601,7.07366c-5.45019,-12.87174 0.23192,-39.19503 12.06001,-44.06542c11.82809,-4.87038 40.12272,-8.46519 47.66023,-18.20597c7.42154,-9.62481 18.78578,-9.9727 32.23733,-9.39289c13.45155,0.57981 20.40925,12.75578 20.40925,17.62617z" fill="#a3b339"></path><path d="M307.52226,178.46984c0,0 -2.20327,0.9277 -5.68212,1.97135c-3.24693,1.15962 -7.53751,2.66712 -11.82809,4.29058c-1.04365,0.46385 -2.08731,0.9277 -3.13096,1.27558c-1.04365,0.34789 -2.08731,0.81174 -3.13096,1.15962c-2.08731,0.69577 -4.05866,1.15962 -5.79808,1.39154c-1.73942,0.23192 -3.24693,0.23192 -4.29058,0.11596c-1.04365,-0.11596 -1.62346,-0.34788 -1.62346,-0.34788c0,0 0.57981,0.11596 1.62346,0c1.04366,0 2.4352,-0.23192 4.05866,-0.69577c0.81173,-0.23192 1.73943,-0.46385 2.66712,-0.81173c0.92769,-0.23192 1.97135,-0.5798 2.89904,-1.04365c0.92769,-0.34789 1.97135,-0.81173 3.015,-1.27558c1.04366,-0.46385 2.20328,-0.92769 3.24693,-1.39154c1.04366,-0.34789 2.20328,-0.81174 3.24693,-1.15962c1.15962,-0.34788 2.20328,-0.69577 3.24693,-1.04365c2.08731,-0.69577 4.05866,-1.15962 5.79808,-1.5075c3.36289,-0.69577 5.68212,-0.92769 5.68212,-0.92769z" fill="#687a27"></path><path d="M296.27398,170.35255c0,0 -0.11596,-0.11596 0,-0.23192c0,-0.11596 -0.11596,-0.11596 -0.23192,-0.23192c-0.11596,-0.11596 -0.23192,-0.11596 -0.34788,-0.23192c-0.46384,-0.23192 -1.04365,-0.57981 -1.73942,-0.81173c-0.5798,-0.23193 -1.27557,-0.57981 -1.73942,-0.57981h-0.11596h-0.11596c0,0 -0.11596,0 -0.11596,0.11596c0,0.11596 0,0.23192 0,0.23192c0,0 -0.11596,0 -0.23192,-0.23192c0,-0.11597 0,-0.34789 0,-0.46385c0,0 0,-0.11596 0.11596,-0.23192c0,0 0.11596,-0.11596 0.23192,-0.11596c0.23193,0 0.34789,-0.11596 0.57981,-0.11596c0.11596,0 0.34789,0 0.57981,0c0.34789,0.11596 0.81174,0.23192 1.15962,0.34788c0.34788,0.23192 0.69577,0.46385 1.04365,0.69577c0.23192,0.23192 0.57981,0.46385 0.69577,0.81173c0.11596,0.34788 0.23192,0.69577 0.23192,0.81173c0,0.11596 0,0.23192 0,0.23192z" fill="#687a27"></path><path d="M303.34768,183.80411c0,0 -0.23192,0.34788 -0.81173,0.81173c-0.57981,0.57981 -1.39154,1.27558 -2.55116,2.20327c-1.15962,0.92769 -2.55116,1.97134 -4.17462,3.13096c-1.62346,1.15962 -3.47885,2.43519 -5.68212,3.59481c-2.20327,1.04365 -4.63847,2.08731 -6.9577,3.59481c-2.31923,1.5075 -4.40654,3.59481 -6.37789,5.79808c-1.97135,2.20327 -3.71077,4.75442 -5.56616,7.42154c-1.85538,2.66712 -3.71077,5.33423 -5.79808,7.88539c-2.08731,2.55116 -4.40655,4.98635 -6.84174,7.18962c-2.4352,2.20327 -5.10231,4.05866 -7.76943,5.56616c-5.33423,3.015 -11.01635,4.75443 -15.88674,5.56616c-2.43519,0.34789 -4.75442,0.57981 -6.72577,0.69577c-0.92769,0.11596 -1.97135,0.11596 -2.78308,0.11596c-0.81173,0 -1.62346,0 -2.31923,0c-1.5075,0 -2.55116,-0.11596 -3.36289,-0.11596c-0.69577,-0.11596 -1.15962,-0.11596 -1.15962,-0.11596c0,0 0.34789,0 1.15962,0c0.81173,0 1.97135,0 3.36289,-0.11596c0.69577,0 1.5075,0 2.31923,-0.11596c0.92769,0 1.85539,-0.11596 2.78308,-0.23192c1.97135,-0.23192 4.05866,-0.5798 6.49385,-1.04365c4.75442,-1.04365 10.08866,-2.89904 15.30693,-6.03c2.55115,-1.62346 5.10231,-3.47885 7.42154,-5.56616c2.43519,-2.08731 4.5225,-4.40654 6.60981,-6.9577c2.08731,-2.4352 3.94269,-5.10231 5.79808,-7.76943c1.73942,-2.66712 3.71077,-5.21828 5.79808,-7.53751c2.08731,-2.31923 4.40655,-4.29058 6.84174,-5.79808c2.43519,-1.39154 4.98635,-2.4352 7.18962,-3.36289c2.20327,-1.04366 4.05866,-2.20328 5.79808,-3.24693c1.62346,-1.04366 3.13096,-1.97135 4.29058,-2.78308c1.15962,-0.81173 2.08731,-1.5075 2.66712,-1.97135c0.69577,-0.46385 0.92769,-0.81173 0.92769,-0.81173z" fill="#687a27"></path></g><g data-paper-data="{&quot;index&quot;:null}"><path d="M260.65146,236.39219c2.30455,2.72952 5.65287,0.34098 6.58033,1.41029c1.48958,1.68841 -2.78562,2.0514 -2.78562,2.0514c3.1771,1.63319 7.22792,0.25758 7.81764,1.72043c0.95477,2.3912 -6.7222,0.58648 -6.7222,0.58648c2.02409,1.46374 9.70164,2.3122 8.18181,4.08313c-1.37915,1.68663 -12.06435,-1.94804 -12.06435,-1.94804c0,0 5.00294,5.31867 2.64082,4.7266c-2.36212,-0.59207 -4.89076,-4.81235 -9.38886,-7.8526" fill="#a3b339"></path><path d="M248.38005,205.22231c7.56861,-4.91718 13.7228,3.43967 10.68314,6.98153c-3.03966,3.54186 -3.99649,4.49752 -5.18005,8.26552c-1.18356,3.76801 6.34832,12.82882 8.76418,17.49904c2.38768,4.78269 -3.01381,7.25435 -7.73629,3.20147c-4.04789,-3.40559 -14.53366,-11.17449 -16.24526,-17.7005c-1.7116,-6.52601 2.28637,-13.41414 9.71429,-18.24704z" fill="#a3b339"></path><path d="M261.91021,247.5867c0,0 -0.47783,-0.47843 -2.08047,-1.23878c-1.09634,-0.87255 -2.5862,-2.08284 -4.38533,-3.49018c-0.42173,-0.22525 -0.89955,-0.70367 -1.43377,-0.95712c-0.50603,-0.36593 -1.12454,-0.76007 -1.63056,-1.126c-0.98385,-0.84434 -2.22085,-1.6326 -3.28899,-2.61763c-1.18062,-1.01322 -2.27696,-1.88577 -3.42938,-3.01147c-1.15243,-1.1257 -2.33305,-2.13892 -3.3448,-3.34891c-1.12423,-1.23818 -2.13597,-2.44818 -3.00705,-3.74245c-0.87107,-1.29427 -1.60147,-2.67285 -2.02232,-4.33247c-0.02791,-0.36564 -0.16829,-0.75948 -0.19619,-1.12511c0.00029,-0.47813 -0.0276,-0.84378 -0.0555,-1.20941c0.05668,-0.70309 0.11337,-1.40618 0.17005,-2.10926c0.22585,-1.37798 0.56418,-2.72777 1.07108,-3.7962c1.042,-2.24935 2.28047,-3.8517 3.23731,-4.80736c0.50661,-0.5903 0.92864,-0.84317 1.23818,-1.12423c0.30955,-0.28107 0.45022,-0.36535 0.45022,-0.36535c0,0 -0.14068,0.08429 -0.33774,0.39354c-0.16887,0.19676 -0.53481,0.70279 -0.90074,1.20881c-0.76007,1.12451 -1.6611,2.81145 -2.42175,4.89222c-0.28194,1.12482 -0.56389,2.24964 -0.64906,3.54333c-0.02848,0.59061 -0.08516,1.2937 -0.00117,1.9125c0.0279,0.36563 0.08399,0.6188 0.11189,0.98443c0.05611,0.25315 0.19648,0.647 0.22438,1.01263c0.39295,1.29398 1.15155,2.56007 1.93833,3.71367c0.89927,1.1818 1.79854,2.36359 2.83848,3.4611c0.89926,1.18179 2.07988,2.19501 3.11982,3.29252c1.15242,1.12569 2.22056,2.11072 3.2887,3.09575c1.09634,0.87255 2.16446,1.85757 3.14832,2.70193c0.47782,0.47841 0.98385,0.84435 1.48987,1.21028c0.6185,0.39412 1.09632,0.87254 1.48986,1.21028c1.74274,1.63231 3.06374,3.03937 3.9912,4.10868c0.92745,1.06931 1.37709,1.66021 1.37709,1.66021z" fill="#687a27"></path><path d="M261.43941,235.63333c0,0 -1.26491,-1.15389 -3.20441,-2.95508c-0.84318,-0.92864 -1.85493,-2.13862 -2.69781,-3.54539c-0.84288,-1.40677 -1.65757,-2.92601 -2.30338,-4.64202c-0.25257,-0.90016 -0.50514,-1.80031 -0.50455,-2.75655c0.00029,-0.47812 0.00059,-0.95624 0.14156,-1.51865l0.14097,-0.56241l0.28164,-0.6467c0.30984,-0.75918 0.73216,-1.49017 1.12629,-2.10867c0.39412,-0.6185 0.78826,-1.23701 1.26667,-1.71484c1.80117,-1.93951 3.23613,-2.89487 3.23613,-2.89487c0,0 -0.33774,0.39355 -0.73187,1.01205c-0.39412,0.61851 -0.98532,1.54626 -1.6047,2.5865c-0.28165,0.64669 -0.64759,1.15272 -0.92923,1.79942c-0.39412,0.6185 -0.67577,1.2652 -0.84493,1.94009l-0.11278,0.44993l-0.14097,0.56241c-0.05639,0.22496 -0.02849,0.59061 -0.00059,0.95624c0.05579,0.73128 0.22407,1.49075 0.50484,2.27842c0.58972,1.46286 1.29193,2.9539 2.02232,4.33247c0.7304,1.37856 1.48899,2.64464 2.16329,3.77005c1.34861,2.25081 2.19149,3.65758 2.19149,3.65758z" fill="#687a27"></path><path d="M261.65907,244.29587c0,0 0.84376,-0.02762 1.68752,-0.05522c1.18121,0.05699 2.67166,0.31103 4.13393,0.67755c0.67489,0.16917 1.46227,0.36653 2.13716,0.53569c0.33745,0.08458 0.6749,0.16917 1.01234,0.25375c0.33744,0.08458 0.67489,0.16916 0.89985,0.22555c0.36563,-0.02789 0.5906,0.02849 0.81556,0.08488c0.25317,-0.05609 0.47813,0.00029 0.59061,0.02849c0.33745,0.08459 0.59061,0.02849 0.59061,0.02849c0,0 -0.14068,0.08429 -0.45022,0.36535c-0.16888,0.19677 -0.30956,0.28106 -0.56271,0.33715c-0.16887,0.19677 -0.53452,0.22468 -0.78767,0.28077c-0.647,0.19648 -1.37828,0.25227 -2.08136,0.19559c-0.70308,-0.05668 -1.51865,-0.14156 -2.30602,-0.33892c-1.49046,-0.25404 -3.00882,-0.87373 -4.04906,-1.49311c-1.04024,-0.61939 -1.63055,-1.12599 -1.63055,-1.12599z" fill="#687a27"></path><path d="M272.4045,241.49002c-0.14068,0.08428 0.08429,0.14066 -0.19706,0.30924c0.08429,0.14068 0.02789,0.36565 -0.02849,0.59061c-0.05639,0.22496 -0.22526,0.42174 -0.39413,0.6185c-0.14069,0.08429 -0.30956,0.28106 -0.56271,0.33715c-0.25315,0.05609 -0.50632,0.11218 -0.75947,0.16827c-0.39384,0.14039 -0.98444,0.1119 -1.46256,0.11161c-0.47812,-0.00029 -0.92805,-0.11308 -1.37798,-0.22585c-0.42174,-0.22526 -0.87167,-0.33804 -1.18092,-0.5351c-0.61849,-0.39414 -1.01204,-0.73187 -1.01204,-0.73187c0,0 0.53451,-0.22468 1.26579,-0.28047c0.36565,-0.0279 0.73129,-0.05579 1.20941,-0.0555c0.22496,0.05639 0.47812,0.00029 0.70308,0.05668c0.22496,0.05638 0.47812,0.00029 0.70308,0.05668c0.47813,0.0003 0.95625,0.0006 1.29369,0.08518c0.25317,-0.05609 0.47813,0.00029 0.59061,0.02849c0.25316,-0.05609 0.36564,-0.0279 0.47812,0.0003c0.11248,0.0282 0.25315,-0.0561 0.36563,-0.0279c0.14068,-0.08429 0.25316,-0.05609 0.28135,-0.16857c0.05639,-0.22497 0.08458,-0.33745 0.08458,-0.33745z" fill="#687a27"></path><path d="M267.37247,237.71819c0,0 0.11248,0.02819 0.25315,-0.05609c0.22496,0.05638 0.44994,0.11277 0.59032,0.5066c0.08429,0.14068 0.14037,0.39384 0.08399,0.6188c-0.05638,0.22496 -0.11277,0.44994 -0.28164,0.6467c-0.14067,0.08429 -0.30955,0.28107 -0.45022,0.36535c-0.25317,0.05609 -0.39384,0.14038 -0.53451,0.22466c-0.67519,0.30897 -1.35008,0.13979 -1.80001,0.02702c-0.44993,-0.11277 -0.73099,-0.42231 -0.73099,-0.42231c0,0 0.19708,-0.30926 0.6191,-0.56212c0.42202,-0.25286 0.84406,-0.50573 1.23789,-0.64611l0.25315,-0.05609c0.14067,-0.08428 0.14067,-0.08429 0.25315,-0.05609l0.11248,0.02819c-0.02819,0.11248 0.11248,0.02819 0.11248,0.02819c0.14067,-0.08429 0.19707,-0.30925 0.22526,-0.42173c0.02819,-0.11248 0.05638,-0.22496 0.05638,-0.22496z" fill="#687a27"></path></g><g data-paper-data="{&quot;index&quot;:null}"><g fill="#a3b339"><path d="M190.05315,232.62394c-0.34788,7.65347 -10.90039,13.56751 -12.87174,4.98635c-1.97134,-8.58116 2.31924,-25.97541 6.9577,-25.51156c6.03,0.69577 6.26192,12.87174 5.91404,20.52521z"></path><path d="M190.16912,232.73991c-0.92769,3.47885 -1.15962,8.34924 1.39154,8.58116c2.55116,0.23193 8.11732,2.31924 6.26193,3.9427c-1.85539,1.62346 -9.74078,-2.55116 -9.74078,-2.55116c0,0 8.34924,6.03001 6.49385,7.65347c-1.85538,1.62347 -9.50885,-6.72577 -9.50885,-6.72577c0,0 5.33423,7.42154 3.015,7.42154c-2.31924,0 -5.10231,-8.11731 -6.9577,-8.11731c-1.85539,0 0,7.65346 -2.78308,6.03c-2.78308,-1.62347 -2.08731,-14.72713 -0.92769,-16.81444"></path></g><path d="M203.73664,220.332c8.23327,10.20463 12.9877,20.29329 5.33423,22.61252c-4.40654,1.39154 -28.52656,-9.27693 -28.52656,-23.88809c0,-14.61116 14.95904,-8.92904 23.19232,1.27558z" fill="#a3b339"></path><path d="M195.50335,205.37297c4.63846,-6.84174 18.20597,-14.49521 23.88809,6.03c3.59481,13.21962 1.97135,31.88944 -10.32058,31.54156c-12.29193,-0.34789 -18.20597,-30.49791 -13.56751,-37.57157z" fill="#a3b339"></path><path d="M219.85529,213.60623c0,0 0.11596,0.23192 0.23192,0.81173c0.11597,0.46385 0.23193,1.04366 0.46385,1.97135c0.34788,1.73942 0.81173,4.29058 1.04365,7.42154c0.11596,1.5075 0.11596,3.24693 0,4.98635c-0.11596,1.73943 -0.34788,3.59481 -0.81173,5.56616c-0.46385,1.97135 -1.27558,3.9427 -2.66712,5.68212c-1.39154,1.73943 -3.59481,3.01501 -5.79808,3.24693l-1.5075,0.23192l-1.62346,0.11596h-1.62346l-1.62346,-0.11596c-2.08731,-0.11596 -4.05865,-0.69577 -5.91404,-1.39154c-3.71077,-1.39154 -6.72577,-3.59481 -8.92904,-5.79808c-1.15962,-1.04365 -2.08731,-2.20327 -2.89904,-3.13096c-0.81173,-1.04366 -1.5075,-1.97135 -1.97135,-2.66712c-0.92769,-1.5075 -1.39154,-2.43519 -1.39154,-2.43519c0,0 0.5798,0.81173 1.73942,2.20327c1.15961,1.39154 2.89904,3.24692 5.21827,5.21827c2.31923,1.97135 5.33423,3.94269 8.81308,5.10231c1.73943,0.57981 3.59481,1.04366 5.56616,1.15962l1.5075,0.11596h1.5075l1.39154,-0.11596l1.5075,-0.23192c1.85538,-0.34789 3.47884,-1.27558 4.63846,-2.66712c1.15961,-1.39154 1.85538,-3.13097 2.43519,-4.87039c1.04366,-3.59481 1.15962,-7.18962 1.27558,-10.20462c0.11596,-3.13096 0,-5.68212 -0.23192,-7.42154c-0.11596,-0.92769 -0.11596,-1.62346 -0.23192,-2.08731c0,-0.46385 -0.11596,-0.69577 -0.11596,-0.69577z" fill="#687a27"></path><path d="M190.16912,210.59124c0,0 -0.57981,-0.23192 -1.62346,-0.11596c-0.46384,-0.11596 -1.04365,0 -1.62346,0c-0.57981,0 -1.27558,0.11597 -1.97135,0.46385c-0.34788,0.11597 -0.69577,0.34789 -1.04365,0.46385c-0.23192,0.23192 -0.69577,0.34789 -0.92769,0.69577c-0.23192,0.23192 -0.57981,0.57981 -0.81173,0.92769c-0.34788,0.23192 -0.57981,0.69577 -0.81173,1.04365c-0.57981,0.69577 -0.9277,1.62347 -1.27558,2.55116c-0.34788,0.92769 -0.69577,1.97135 -0.92769,2.89904c-0.23192,1.04365 -0.46385,1.97135 -0.69577,3.015c-0.23193,0.92769 -0.46385,1.97135 -0.57981,2.89904c-0.34788,1.85538 -0.57981,3.71077 -0.81173,5.21827c-0.23193,1.5075 -0.34789,2.78308 -0.46385,3.71077c0,0.46384 0,0.81173 0,1.04365c0,0.11596 0.11596,0.23192 0.11596,0.23192c0.11596,0 0.11596,0 0.11596,0c0,0 0,0.11596 -0.11596,0.11596c0,0 -0.11596,-0.11596 -0.11596,-0.23192c-0.11596,-0.23192 -0.11596,-0.5798 -0.23192,-1.04365c-0.11596,-0.92769 -0.23192,-2.20327 -0.23192,-3.82673c-0.11596,-1.62347 0,-3.47885 0.23192,-5.4502c0.11597,-0.92769 0.23193,-1.97135 0.46385,-3.015c0.23192,-1.04365 0.46385,-2.08731 0.69577,-3.13096c0.34788,-1.04365 0.69577,-1.97135 1.04365,-3.015c0.23192,-0.46385 0.46385,-0.92769 0.69577,-1.39154c0.23192,-0.46385 0.46385,-0.92769 0.81173,-1.39154c0.34788,-0.34789 0.69577,-0.81174 1.04365,-1.15962c0.34789,-0.34788 0.81174,-0.69577 1.15962,-0.92769c0.46385,-0.23192 0.9277,-0.46385 1.27558,-0.69577c0.46385,-0.23193 0.81173,-0.34789 1.27558,-0.46385c0.81173,-0.23192 1.5075,-0.23192 2.20327,-0.23192c0.69577,0.11596 1.27557,0.23192 1.73942,0.34788c0.46384,0.11596 0.81173,0.23192 1.04365,0.34788c0.23192,0 0.34788,0.11596 0.34788,0.11596z" fill="#687a27"></path><path d="M181.58796,242.82856c0.34789,0.11596 0.69577,0.34789 1.15962,0.69577c0.46385,0.34789 0.81173,0.81173 1.27558,1.39154c0.46385,0.46384 0.81174,1.04365 1.15962,1.62346c0.69577,1.15961 1.27557,2.31923 1.73942,3.13096c0.23192,0.46384 0.46385,0.81173 0.69577,0.92769c0.11596,0 0.23192,0.11596 0.34788,0.11596c0.11596,0 0.11596,0 0.11596,0c0,-0.11596 -0.11597,0.11596 -0.46385,0.11596c-0.34789,0 -0.92769,-0.11597 -1.39154,-0.46385c-1.04366,-0.57981 -1.97135,-1.73942 -2.66712,-2.89904c-0.34788,-0.5798 -0.69577,-1.15961 -0.92769,-1.73942c-0.23192,-0.57981 -0.46385,-1.04365 -0.69577,-1.5075c-0.23193,-0.34788 -0.46385,-0.81173 -0.57981,-1.04365c-0.11596,-0.23192 -0.23192,-0.34788 -0.23192,-0.34788c0,0 0.23193,0 0.46385,0z" fill="#687a27"></path><path d="M186.80622,244.45202c0.92769,0.69577 2.08731,1.62347 3.13096,2.55116c0.57981,0.46385 1.15961,0.92769 1.62346,1.39154c0.23192,0.23193 0.46385,0.46385 0.69577,0.57981c0.23192,0.11597 0.46385,0.34789 0.69577,0.46385c0.23193,0.11596 0.34789,0.23192 0.57981,0.34788c0.23193,0.11596 0.46385,0.23192 0.57981,0.23192c0.23193,0 0.46385,0.11596 0.46385,0.11596c0,0 -0.11597,0.11596 -0.46385,0.23192c-0.23192,0.11596 -0.46385,0.11596 -0.69577,0.11596c-0.23192,0.11596 -0.46385,0.11596 -0.81173,0c-0.23192,0 -0.57981,-0.11596 -0.92769,-0.23192c-0.34788,-0.11597 -0.69577,-0.34789 -1.04365,-0.46385c-0.69577,-0.34789 -1.39154,-0.81173 -1.97135,-1.27558c-0.57981,-0.46384 -1.15961,-1.04365 -1.62346,-1.62346c-0.46385,-0.57981 -0.9277,-1.15961 -1.15962,-1.62346c-0.57981,-0.92769 -0.81173,-1.73942 -0.81173,-1.73942c0,0 0.69577,0.34788 1.73942,0.92769z" fill="#687a27"></path><path d="M197.70663,245.14781c0,0 0,0.23192 -0.34788,0.34788c-0.34789,0.23193 -0.69577,0.34789 -1.27558,0.46385c-0.46384,0.11596 -1.15961,0.11596 -1.73942,0c-0.57981,-0.11597 -1.27558,-0.23193 -1.85539,-0.46385c-1.27558,-0.46384 -2.4352,-1.15961 -3.24693,-1.73942c-0.81173,-0.57981 -1.27558,-1.15962 -1.27558,-1.15962c0,0 0.69577,-0.11596 1.62346,0.11596c0.9277,0.23192 2.20327,0.57981 3.36289,0.92769c0.5798,0.11596 1.15961,0.34789 1.73942,0.57981c0.57981,0.23193 1.04365,0.46385 1.5075,0.57981c0.46384,0.23192 0.81173,0.34788 1.04365,0.34788c0.34789,0.11596 0.46385,0 0.46385,0z" fill="#687a27"></path><path d="M190.40103,235.29106c0.11596,0.69577 0.23192,1.5075 0.23192,2.31923c0,0.81173 0,1.62346 0,2.20327c0,0.23193 0,0.34789 0,0.46385c0.11596,0.11596 0.11596,0.23192 0.11596,0.34788c0.11596,0.23192 0.11596,0.34788 0.11596,0.34788c0,0 -0.11596,0 -0.34788,-0.11596c-0.11596,-0.11596 -0.23192,-0.11596 -0.34788,-0.23192c-0.23193,-0.11596 -0.34789,-0.23192 -0.46385,-0.34788c-0.34789,-0.34789 -0.57981,-0.69577 -0.69577,-1.15962c-0.11596,-0.46385 -0.23192,-0.92769 -0.23192,-1.39154c0,-1.04366 0.23193,-1.97135 0.57981,-2.55116c0.23192,-0.69577 0.69577,-1.04365 0.69577,-1.04365c0,0 0.11596,0.46385 0.34788,1.15962z" fill="#687a27"></path><path d="M217.18816,180.4412c0,0 -1.15962,0.11596 -2.78308,0.69577c-1.73943,0.46384 -4.29058,1.39154 -6.84174,3.13096c-1.39154,0.9277 -2.66711,1.97135 -3.82673,3.24693c-1.15961,1.39153 -2.20327,2.89904 -3.015,4.63846c-1.62346,3.59481 -3.13096,7.42154 -4.29058,11.4802c-0.57981,1.97134 -1.04366,4.05865 -1.27558,6.03c-0.34788,1.97134 -0.34788,3.94269 -0.34788,5.91404c0,1.97135 0.23193,3.82674 0.57981,5.56616c0.34789,1.73943 0.81173,3.36289 1.27558,4.87039c0.46385,1.5075 1.04365,2.89904 1.5075,4.05866c0.46385,1.15961 0.92769,2.20327 1.39154,3.015c0.92769,1.62347 1.39154,2.55116 1.39154,2.55116c0,0 -0.11597,-0.23193 -0.46385,-0.57981c-0.34789,-0.34788 -0.81173,-0.92769 -1.27558,-1.73942c-0.46384,-0.81173 -1.15961,-1.73942 -1.73942,-2.89904c-0.57981,-1.15962 -1.27558,-2.4352 -1.85539,-3.9427c-1.15961,-3.015 -2.20327,-6.72577 -2.43519,-10.78443c-0.11596,-2.08731 0,-4.17462 0.23192,-6.26193c0.23193,-2.20327 0.69577,-4.29058 1.27558,-6.37789c1.15961,-4.17461 2.89904,-8.11731 4.63846,-11.71212c0.92769,-1.85539 2.20327,-3.47885 3.47885,-4.87039c1.27558,-1.27557 2.78308,-2.31923 4.17462,-3.13096c1.39154,-0.81173 2.78308,-1.27557 4.05866,-1.73942c1.27558,-0.34788 2.31924,-0.57981 3.24693,-0.81173c1.85539,-0.34788 2.89904,-0.34788 2.89904,-0.34788z" fill="#687a27"></path></g><g data-paper-data="{&quot;index&quot;:null}" fill="#969330"><path d="M201.41739,197.02372c3.47885,2.89904 1.85538,9.27693 -1.27558,6.9577c-3.015,-2.31924 -1.73942,-9.62482 1.27558,-6.9577z"></path><path d="M213.70932,199.69084c5.4502,2.55115 3.47885,10.66847 -1.5075,9.39289c-4.98635,-1.27558 -4.17462,-12.06001 1.5075,-9.39289z"></path><path d="M207.67932,187.86275c5.45019,-2.55115 6.95769,4.98635 3.13096,7.76943c-9.85673,7.07366 -8.58116,-5.10231 -3.13096,-7.76943z"></path></g><path d="M279.22764,204.56124c0,0 -0.92769,0 -2.31923,-0.11596c-1.39154,-0.11596 -3.47884,-0.34788 -6.03,-0.92769c-1.15961,-0.23192 -2.43519,-0.5798 -3.82673,-1.04365c-1.27558,-0.46384 -2.78308,-0.92769 -4.17462,-1.62346c-1.5075,-0.57981 -2.89904,-1.39154 -4.29058,-2.20327c-1.39154,-0.92769 -2.78308,-1.85538 -4.05866,-3.015c-1.27558,-1.04365 -2.4352,-2.31923 -3.47885,-3.59481c-1.04366,-1.27558 -1.85539,-2.66712 -2.66712,-4.05866c-0.81174,-1.39154 -1.39154,-2.78308 -1.85539,-4.17462c-0.23192,-0.69577 -0.57981,-1.27558 -0.69577,-1.97135c-0.11597,-0.57981 -0.34789,-1.27558 -0.46385,-1.85539c-0.23193,-1.27558 -0.46385,-2.31924 -0.46385,-3.36289c0,-0.9277 -0.11596,-1.85539 -0.11596,-2.55116c0,-1.39154 0,-2.20327 0,-2.20327c0,0 0.11596,0.81173 0.34788,2.20327c0.11597,0.69577 0.23193,1.62347 0.46385,2.55116c0,0.46385 0.23192,0.92769 0.34788,1.5075c0.11597,0.46384 0.34789,1.04365 0.46385,1.62346c0.46385,1.04365 0.81173,2.31923 1.39154,3.59481c0.57981,1.27557 1.15962,2.55115 1.97135,3.82673c0.69577,1.27558 1.73943,2.55115 2.66712,3.71077c1.04366,1.15962 2.08731,2.31924 3.36289,3.36289c1.27557,1.15962 2.55115,1.97135 3.82673,2.89904c1.39154,0.81173 2.66712,1.62346 4.05866,2.31923c2.66712,1.39154 5.33424,2.43519 7.65347,3.13096c2.31923,0.69577 4.29058,1.27558 5.68212,1.5075c1.39154,0.34789 2.20327,0.46385 2.20327,0.46385z" data-paper-data="{&quot;index&quot;:null}" fill="#4a3369"></path><path d="M243.16358,172.09197c0,0 -3.24693,0.11596 -7.76943,1.04365c-1.27557,0.11596 -2.43519,0.46385 -3.82673,0.69577c-1.39154,0.23192 -2.78308,0.57981 -4.17462,0.92769c-1.39154,0.46385 -2.89904,0.81173 -4.40654,1.27558c-1.5075,0.46385 -3.015,0.92769 -4.5225,1.5075c-1.5075,0.46384 -3.015,1.15961 -4.40654,1.73942c-1.5075,0.57981 -2.78308,1.27558 -4.17462,1.85539c-1.39154,0.57981 -2.55115,1.39154 -3.82673,1.97135c-1.27558,0.57981 -2.31924,1.27558 -3.36289,1.85539c-1.04366,0.57981 -1.97135,1.04365 -2.78308,1.62346c-0.81173,0.57981 -1.5075,1.04366 -2.08731,1.39154c-1.15962,0.69577 -1.85539,1.15962 -1.85539,1.15962c0,0 0.57981,-0.57981 1.62346,-1.5075c0.46385,-0.46384 1.15962,-0.92769 1.85539,-1.62346c0.81173,-0.57981 1.73943,-1.27558 2.66712,-1.97135c1.04366,-0.69577 2.08731,-1.5075 3.24693,-2.20327c1.15961,-0.69577 2.31923,-1.5075 3.71077,-2.20327c0.69577,-0.34788 1.39154,-0.69577 2.08731,-1.04365c0.69577,-0.34788 1.39154,-0.81173 2.08731,-1.04365c1.5075,-0.69577 3.015,-1.39154 4.5225,-1.85539c1.62346,-0.57981 3.13096,-1.04365 4.63846,-1.5075c1.5075,-0.57981 3.015,-0.81174 4.5225,-1.15962c1.5075,-0.34789 2.89904,-0.46385 4.29058,-0.69577c1.39154,-0.11596 2.78308,-0.34788 3.9427,-0.34788c4.75442,-0.34789 8.00135,0.11596 8.00135,0.11596z" data-paper-data="{&quot;index&quot;:null}" fill="#4a3369"></path><path d="M239.91667,229.02911c0,0 -0.9277,0.11597 -2.66712,-0.34788c-1.73943,-0.11597 -4.17462,-0.46385 -6.9577,-1.15962c-1.39154,-0.34789 -2.89904,-0.81173 -4.5225,-1.39154c-1.62346,-0.69577 -3.24693,-1.39154 -4.87039,-2.20327c-1.62346,-0.81173 -3.24693,-1.85539 -4.87039,-2.89904c-1.62346,-1.04365 -3.13096,-2.31923 -4.63846,-3.59481c-1.5075,-1.27558 -2.89904,-2.78308 -4.17462,-4.17462c-1.27558,-1.5075 -2.4352,-3.015 -3.47885,-4.5225c-0.9277,-1.5075 -1.85539,-3.015 -2.66712,-4.5225c-0.81173,-1.5075 -1.39154,-2.89904 -1.97135,-4.29058c-0.57981,-1.27558 -1.04366,-2.55115 -1.39154,-3.71077c-0.34788,-1.04365 -0.69577,-2.08731 -0.92769,-2.89904c-0.46385,-1.62347 -0.69577,-2.55116 -0.69577,-2.55116c0,0 0.46384,0.81173 1.04365,2.43519c0.23193,0.81173 0.69577,1.73943 1.15962,2.78308c0.46384,1.15962 1.15961,2.31923 1.73942,3.59481c0.23192,0.69577 0.69577,1.27558 1.04365,1.97135c0.34789,0.69577 0.69577,1.39154 1.15962,2.08731c0.92769,1.39154 1.85539,2.78308 2.89904,4.29058c0.46384,0.81173 1.04365,1.5075 1.62346,2.20327c0.69577,0.69577 1.27558,1.39154 1.85539,2.08731c1.27558,1.39154 2.66712,2.66712 4.05866,3.9427c1.39154,1.39154 2.89904,2.55116 4.40654,3.59481c1.5075,1.04365 3.015,2.08731 4.63846,2.89904c3.13096,1.85539 6.26192,3.13097 8.92904,4.05866c1.27558,0.46385 2.55115,0.81174 3.71077,1.15962c1.04365,0.34789 2.08731,0.57981 2.89904,0.69577c1.73943,0.34789 2.66712,0.46385 2.66712,0.46385z" data-paper-data="{&quot;index&quot;:null}" fill="#4a3369"></path><path d="M277.48822,205.72084c0,0 -2.08731,1.62346 -5.21827,3.82673c-1.62347,1.15961 -3.47885,2.43519 -5.4502,3.71077c-1.97135,1.39154 -4.05866,2.66712 -6.26193,4.05866c-1.04366,0.69577 -2.20328,1.27558 -3.24693,1.97135c-1.04365,0.69577 -2.08731,1.27558 -3.13096,1.85539c-2.08731,1.27558 -3.9427,2.31924 -5.68212,3.24693c-3.36289,1.85539 -5.68212,2.89904 -5.68212,2.89904c0,0 1.97135,-1.62346 5.10231,-3.82673c1.62347,-1.15961 3.47885,-2.43519 5.4502,-3.71077c1.04365,-0.57981 2.08731,-1.27558 3.13096,-1.97135c1.04366,-0.69577 2.20328,-1.39154 3.24693,-2.08731c2.08731,-1.27557 4.29058,-2.66711 6.37789,-3.82673c2.08731,-1.27558 3.9427,-2.31924 5.68212,-3.24693c3.36289,-1.85539 5.68212,-2.89904 5.68212,-2.89904z" data-paper-data="{&quot;index&quot;:null}" fill="#4a3369"></path><g data-paper-data="{&quot;index&quot;:null}"><path d="M258.00667,163.27889c-1.5075,-6.49385 0.92769,-43.71753 0.92769,-43.71753c16.0027,14.14732 29.33829,35.9481 29.33829,35.9481c-18.66982,-2.66712 -30.26598,7.76943 -30.26598,7.76943z" fill="#6d4b9b"></path><path d="M258.00666,163.27891c0,0 -0.34788,-2.66712 -0.81173,-6.26193c-0.11596,-1.85538 -0.23192,-4.17462 -0.23192,-6.60981c0,-2.4352 0,-5.10231 0,-7.65347c0.11596,-2.66712 0.23192,-5.21828 0.34788,-7.65347c0.23193,-2.43519 0.34789,-4.63846 0.57981,-6.60981c0.46384,-3.94269 0.92769,-6.49385 0.92769,-6.49385c0,0 0.11596,0.5798 0.11596,1.73942c0,1.15962 0.11596,2.78308 0.11596,4.75443c0,1.97135 0,4.17462 0,6.60981c0,1.15961 0,2.43519 0,3.71077c0,1.27557 0,2.55115 0,3.82673c0,1.27557 -0.11596,2.55115 -0.11596,3.82673c0,1.27558 -0.11596,2.55115 -0.11596,3.71077c-0.11596,2.43519 -0.23192,4.63846 -0.34788,6.60981c-0.23193,3.94269 -0.46385,6.49385 -0.46385,6.49385z" fill="#4a3369"></path><path d="M281.08303,146.69637c-4.29058,-0.92769 -6.37789,-2.20327 -6.37789,-2.20327c-0.46384,1.5075 -4.40654,5.4502 -4.40654,5.4502c-0.92769,-1.62347 -0.34788,-6.14597 -0.34788,-6.14597c-2.20327,0.69577 -7.76943,-2.43519 -7.76943,-2.43519c1.85538,-1.5075 7.42154,-2.66712 7.42154,-2.66712c-0.81173,-1.27557 0.46385,-6.72577 0.46385,-6.72577c1.27558,1.27558 4.40654,4.87039 4.40654,4.87039c0.11596,-0.11596 0.23192,-0.23192 0.34788,-0.23192c1.15962,1.5075 2.31924,2.89904 3.36289,4.29058c-0.23192,0.34789 -0.23192,0.46385 -0.23192,0.46385c1.39154,1.39153 3.13096,5.33423 3.13096,5.33423z" fill="#e0c448"></path><path d="M288.27264,155.50945c0,0 -1.85538,-2.20327 -4.63846,-5.79808c-1.27557,-1.73942 -2.89904,-3.71077 -4.5225,-5.91404c-1.62346,-2.08731 -3.47885,-4.40654 -5.21827,-6.72577c-0.9277,-1.04366 -1.73943,-2.20327 -2.66712,-3.36289c-0.81174,-1.04366 -1.73943,-2.20328 -2.55116,-3.24693c-1.73943,-2.08731 -3.36289,-4.05866 -4.75443,-5.68212c-0.69577,-0.81173 -1.39154,-1.62346 -1.97135,-2.20327c-0.69577,-0.57981 -1.15961,-1.15961 -1.62346,-1.62346c-0.81173,-0.92769 -1.39154,-1.39154 -1.39154,-1.39154c0,0 0.57981,0.46385 1.62346,1.15962c0.57981,0.34789 1.15962,0.81173 1.85539,1.39154c0.81173,0.57981 1.5075,1.15962 2.31923,1.97135c0.81174,0.69577 1.73943,1.5075 2.55116,2.43519c0.81173,0.92769 1.73943,1.85539 2.66712,2.89904c1.85539,2.08731 3.59481,4.29058 5.4502,6.60981c0.9277,1.15962 1.85539,2.31923 2.66712,3.47885c0.81173,1.15962 1.62346,2.31923 2.43519,3.47885c1.5075,2.31923 2.89904,4.40654 4.05866,6.26193c2.31923,3.71077 3.71077,6.26193 3.71077,6.26193z" fill="#4a3369"></path></g><g data-paper-data="{&quot;index&quot;:null}"><path d="M239.91665,229.1451c-36.29598,-2.78308 -43.94945,-40.00676 -43.94945,-40.00676c20.98905,-18.4379 48.9358,-17.16232 48.9358,-17.16232l2.43519,-6.14597c4.05866,22.9604 26.9031,29.9181 26.9031,29.9181c0.23192,5.45019 4.98635,8.81308 4.98635,8.81308z" fill="#6d4b9b"></path><path d="M211.62203,195.8641c1.04365,1.15962 2.43519,4.29058 2.43519,4.17462c-3.24693,-0.81173 -4.98635,-1.73942 -4.98635,-1.73942c-0.34789,1.15962 -3.47885,4.29058 -3.47885,4.29058c-0.81173,-1.27558 -0.23192,-4.87039 -0.23192,-4.87039c-1.85539,0.46384 -6.26193,-1.97135 -6.26193,-1.97135c1.62346,-1.15962 5.91404,-2.08731 5.91404,-2.08731c-0.57981,-1.04365 0.34788,-5.33423 0.34788,-5.33423c1.04365,1.04366 3.59481,3.9427 3.59481,3.9427c0.92769,-0.92769 4.87039,-1.5075 4.87039,-1.5075c-0.23192,2.08731 -2.20327,5.10231 -2.20327,5.10231z" fill="#e0c448"></path><path d="M242.00396,216.38931c-3.015,1.50751 -4.98635,1.85539 -4.98635,1.85539c0.46384,1.15962 0.11596,5.56616 0.11596,5.56616c-1.5075,-0.57981 -3.36289,-3.59481 -3.36289,-3.59481c-1.04365,1.62347 -6.03,2.55116 -6.03,2.55116c0.46384,-1.85539 3.13096,-5.4502 3.13096,-5.4502c-1.04365,-0.34788 -3.13096,-4.29058 -3.13096,-4.29058c1.39154,0.11596 5.21827,0.69577 5.21827,0.69577c0.11596,-1.39154 2.78308,-4.29058 2.78308,-4.29058c1.04365,1.73942 1.5075,5.33423 1.5075,5.33423c1.5075,0.23192 4.63847,1.73942 4.75443,1.62346z" fill="#e0c448"></path><path d="M234.69837,188.67448c1.27558,0.81173 3.13097,3.82673 3.24693,3.71077c-3.36288,-0.34788 -5.21827,-1.04365 -5.21827,-1.04365c-0.23192,1.27558 -2.78308,4.87039 -2.78308,4.87039c-1.04365,-1.15962 -1.04365,-4.75443 -1.04365,-4.75443c-1.73942,0.81173 -6.49385,-0.92769 -6.49385,-0.92769c1.27558,-1.39154 5.4502,-3.015 5.4502,-3.015c-0.81173,-0.92769 -0.46385,-5.33423 -0.46385,-5.33423c1.04366,0.81173 4.05866,3.36289 4.05866,3.36289c0.81173,-1.04365 4.63846,-2.20327 4.63846,-2.20327c0.11596,2.0873 -1.39154,5.33423 -1.39154,5.33423z" fill="#e0c448"></path><path d="M256.96301,205.37296c-1.27558,-3.015 -1.5075,-4.98635 -1.5075,-4.98635c-1.27558,0.46385 -5.56616,-0.11596 -5.56616,-0.11596c0.57981,-1.39154 3.71077,-3.13096 3.71077,-3.13096c-1.5075,-1.15962 -2.20327,-6.14597 -2.20327,-6.14597c1.85538,0.46385 5.21827,3.36289 5.21827,3.36289c0.46384,-1.04365 4.5225,-2.89904 4.5225,-2.89904c-0.23192,1.39154 -1.04365,5.21827 -1.04365,5.21827c1.39154,0.23192 4.17462,3.015 4.17462,3.015c-1.73942,1.04366 -5.33423,1.27558 -5.33423,1.27558c-0.11596,1.5075 -1.85539,4.63846 -1.97135,4.40654z" fill="#e0c448"></path><path d="M242.81569,173.71543c-1.73942,1.04366 -5.33423,1.27558 -5.33423,1.27558c-0.23193,1.5075 -1.97135,4.5225 -1.97135,4.5225c-1.27558,-3.13096 -1.5075,-4.98635 -1.5075,-4.98635c-1.15962,0.46385 -5.56616,-0.11596 -5.56616,-0.11596c0.11596,-0.34788 0.34789,-0.69577 0.69577,-0.92769c4.75442,-0.92769 8.81308,-1.27558 11.59616,-1.5075c1.04366,0.81173 2.08731,1.73942 2.08731,1.73942z" fill="#e0c448"></path><path d="M249.4255,223.23106c0.9277,-1.39154 3.36289,-2.66712 3.36289,-2.66712c-1.5075,-1.15962 -2.20327,-6.14597 -2.20327,-6.14597c1.85538,0.46385 5.21827,3.36289 5.21827,3.36289c0.46384,-1.04365 4.5225,-2.89904 4.5225,-2.89904c0,0.34788 -0.11596,0.92769 -0.23192,1.62346l-10.66847,6.72577z" fill="#e0c448"></path><path d="M279.22764,204.56124c0,0 -0.92769,0 -2.31923,-0.11596c-1.39154,-0.11596 -3.47884,-0.34788 -6.03,-0.92769c-1.15961,-0.23192 -2.43519,-0.5798 -3.82673,-1.04365c-1.27558,-0.46384 -2.78308,-0.92769 -4.17462,-1.62346c-1.5075,-0.57981 -2.89904,-1.39154 -4.29058,-2.20327c-1.39154,-0.92769 -2.78308,-1.85538 -4.05866,-3.015c-1.27558,-1.04365 -2.4352,-2.31923 -3.47885,-3.59481c-1.04366,-1.27558 -1.85539,-2.66712 -2.66712,-4.05866c-0.81174,-1.39154 -1.39154,-2.78308 -1.85539,-4.17462c-0.23192,-0.69577 -0.57981,-1.27558 -0.69577,-1.97135c-0.11597,-0.57981 -0.34789,-1.27558 -0.46385,-1.85539c-0.23193,-1.27558 -0.46385,-2.31924 -0.46385,-3.36289c0,-0.9277 -0.11596,-1.85539 -0.11596,-2.55116c0,-1.39154 0,-2.20327 0,-2.20327c0,0 0.11596,0.81173 0.34788,2.20327c0.11597,0.69577 0.23193,1.62347 0.46385,2.55116c0,0.46385 0.23192,0.92769 0.34788,1.5075c0.11597,0.46384 0.34789,1.04365 0.46385,1.62346c0.46385,1.04365 0.81173,2.31923 1.39154,3.59481c0.57981,1.27557 1.15962,2.55115 1.97135,3.82673c0.69577,1.27558 1.73943,2.55115 2.66712,3.71077c1.04366,1.15962 2.08731,2.31924 3.36289,3.36289c1.27557,1.15962 2.55115,1.97135 3.82673,2.89904c1.39154,0.81173 2.66712,1.62346 4.05866,2.31923c2.66712,1.39154 5.33424,2.43519 7.65347,3.13096c2.31923,0.69577 4.29058,1.27558 5.68212,1.5075c1.39154,0.34789 2.20327,0.46385 2.20327,0.46385z" fill="#4a3369"></path><path d="M243.16358,172.09197c0,0 -3.24693,0.11596 -7.76943,1.04365c-1.27557,0.11596 -2.43519,0.46385 -3.82673,0.69577c-1.39154,0.23192 -2.78308,0.57981 -4.17462,0.92769c-1.39154,0.46385 -2.89904,0.81173 -4.40654,1.27558c-1.5075,0.46385 -3.015,0.92769 -4.5225,1.5075c-1.5075,0.46384 -3.015,1.15961 -4.40654,1.73942c-1.5075,0.57981 -2.78308,1.27558 -4.17462,1.85539c-1.39154,0.57981 -2.55115,1.39154 -3.82673,1.97135c-1.27558,0.57981 -2.31924,1.27558 -3.36289,1.85539c-1.04366,0.57981 -1.97135,1.04365 -2.78308,1.62346c-0.81173,0.57981 -1.5075,1.04366 -2.08731,1.39154c-1.15962,0.69577 -1.85539,1.15962 -1.85539,1.15962c0,0 0.57981,-0.57981 1.62346,-1.5075c0.46385,-0.46384 1.15962,-0.92769 1.85539,-1.62346c0.81173,-0.57981 1.73943,-1.27558 2.66712,-1.97135c1.04366,-0.69577 2.08731,-1.5075 3.24693,-2.20327c1.15961,-0.69577 2.31923,-1.5075 3.71077,-2.20327c0.69577,-0.34788 1.39154,-0.69577 2.08731,-1.04365c0.69577,-0.34788 1.39154,-0.81173 2.08731,-1.04365c1.5075,-0.69577 3.015,-1.39154 4.5225,-1.85539c1.62346,-0.57981 3.13096,-1.04365 4.63846,-1.5075c1.5075,-0.57981 3.015,-0.81174 4.5225,-1.15962c1.5075,-0.34789 2.89904,-0.46385 4.29058,-0.69577c1.39154,-0.11596 2.78308,-0.34788 3.9427,-0.34788c4.75442,-0.34789 8.00135,0.11596 8.00135,0.11596z" fill="#4a3369"></path><path d="M239.91667,229.02911c0,0 -0.9277,0.11597 -2.66712,-0.34788c-1.73943,-0.11597 -4.17462,-0.46385 -6.9577,-1.15962c-1.39154,-0.34789 -2.89904,-0.81173 -4.5225,-1.39154c-1.62346,-0.69577 -3.24693,-1.39154 -4.87039,-2.20327c-1.62346,-0.81173 -3.24693,-1.85539 -4.87039,-2.89904c-1.62346,-1.04365 -3.13096,-2.31923 -4.63846,-3.59481c-1.5075,-1.27558 -2.89904,-2.78308 -4.17462,-4.17462c-1.27558,-1.5075 -2.4352,-3.015 -3.47885,-4.5225c-0.9277,-1.5075 -1.85539,-3.015 -2.66712,-4.5225c-0.81173,-1.5075 -1.39154,-2.89904 -1.97135,-4.29058c-0.57981,-1.27558 -1.04366,-2.55115 -1.39154,-3.71077c-0.34788,-1.04365 -0.69577,-2.08731 -0.92769,-2.89904c-0.46385,-1.62347 -0.69577,-2.55116 -0.69577,-2.55116c0,0 0.46384,0.81173 1.04365,2.43519c0.23193,0.81173 0.69577,1.73943 1.15962,2.78308c0.46384,1.15962 1.15961,2.31923 1.73942,3.59481c0.23192,0.69577 0.69577,1.27558 1.04365,1.97135c0.34789,0.69577 0.69577,1.39154 1.15962,2.08731c0.92769,1.39154 1.85539,2.78308 2.89904,4.29058c0.46384,0.81173 1.04365,1.5075 1.62346,2.20327c0.69577,0.69577 1.27558,1.39154 1.85539,2.08731c1.27558,1.39154 2.66712,2.66712 4.05866,3.9427c1.39154,1.39154 2.89904,2.55116 4.40654,3.59481c1.5075,1.04365 3.015,2.08731 4.63846,2.89904c3.13096,1.85539 6.26192,3.13097 8.92904,4.05866c1.27558,0.46385 2.55115,0.81174 3.71077,1.15962c1.04365,0.34789 2.08731,0.57981 2.89904,0.69577c1.73943,0.34789 2.66712,0.46385 2.66712,0.46385z" fill="#4a3369"></path><path d="M277.48822,205.72084c0,0 -2.08731,1.62346 -5.21827,3.82673c-1.62347,1.15961 -3.47885,2.43519 -5.4502,3.71077c-1.97135,1.39154 -4.05866,2.66712 -6.26193,4.05866c-1.04366,0.69577 -2.20328,1.27558 -3.24693,1.97135c-1.04365,0.69577 -2.08731,1.27558 -3.13096,1.85539c-2.08731,1.27558 -3.9427,2.31924 -5.68212,3.24693c-3.36289,1.85539 -5.68212,2.89904 -5.68212,2.89904c0,0 1.97135,-1.62346 5.10231,-3.82673c1.62347,-1.15961 3.47885,-2.43519 5.4502,-3.71077c1.04365,-0.57981 2.08731,-1.27558 3.13096,-1.97135c1.04366,-0.69577 2.20328,-1.39154 3.24693,-2.08731c2.08731,-1.27557 4.29058,-2.66711 6.37789,-3.82673c2.08731,-1.27558 3.9427,-2.31924 5.68212,-3.24693c3.36289,-1.85539 5.68212,-2.89904 5.68212,-2.89904z" fill="#4a3369"></path><path d="M275.02453,209.99916c-1.17905,-0.50057 -1.34357,-2.77018 -0.36746,-5.06932c0.97611,-2.29914 2.7232,-3.75718 3.90225,-3.25661c1.17905,0.50057 1.34357,2.77018 0.36746,5.06932c-0.97611,2.29914 -2.7232,3.75718 -3.90225,3.25661z" fill="#bdabd6"></path></g><g data-paper-data="{&quot;index&quot;:null}"><g><path d="M273.77745,170.81639c-5.31563,0 -9.62481,-4.30918 -9.62481,-9.62481c0,-5.31563 4.30918,-9.62481 9.62481,-9.62481c5.31563,0 9.62481,4.30918 9.62481,9.62481c0,5.31563 -4.30918,9.62481 -9.62481,9.62481z" fill="#a3b339"></path><path d="M273.77745,168.49716c-4.03475,0 -7.30558,-3.27082 -7.30558,-7.30558c0,-4.03475 3.27082,-7.30558 7.30558,-7.30558c4.03475,0 7.30558,3.27082 7.30558,7.30558c0,4.03475 -3.27082,7.30558 -7.30558,7.30558z" fill="#e7ffbd"></path><path d="M279.22764,161.30755c0,3.36288 -10.20462,3.59481 -11.4802,0.34788c-1.27558,-3.13096 11.4802,-5.10231 11.4802,-0.34788z" fill="#2b3021"></path><path d="M283.28632,159.56811c0,0 -0.11596,-0.46385 -0.34788,-1.27558c-0.34789,-0.81173 -0.9277,-1.85539 -1.85539,-2.89904c-0.81173,-1.04366 -2.08731,-2.20327 -3.71077,-2.78308c-0.46385,-0.11596 -0.81173,-0.23192 -1.27558,-0.34788c-0.34789,0 -0.81173,-0.11596 -1.27558,-0.11596c-0.46385,0 -0.92769,-0.11596 -1.39154,0h-0.69577l-0.69577,0.11596c-0.81174,0.11596 -1.73943,0.46385 -2.55116,0.81173c-0.92769,0.34788 -1.62346,0.92769 -2.20327,1.5075c-0.57981,0.69577 -1.15962,1.27558 -1.5075,1.97135c-0.34788,0.69577 -0.69577,1.39154 -0.92769,2.08731c-0.23193,0.69577 -0.34789,1.27558 -0.46385,1.85539c-0.11596,0.57981 -0.11596,1.04365 -0.23192,1.5075c-0.11596,0.81173 -0.11596,1.27558 -0.11596,1.27558c0,0 -0.11596,-0.46385 -0.11596,-1.27558c0,-0.34788 -0.11596,-0.92769 0,-1.5075c0,-0.57981 0.11596,-1.27558 0.34788,-1.97135c0.11596,-0.69577 0.46385,-1.39154 0.81173,-2.20327c0.34788,-0.81173 0.92769,-1.5075 1.5075,-2.20327c0.69577,-0.69577 1.39154,-1.27557 2.31923,-1.73942c0.81173,-0.46384 1.73943,-0.81173 2.78308,-0.92769l0.69577,-0.11596h0.69577c0.46385,-0.11596 1.04365,0 1.5075,0c0.57981,0 1.04365,0.11596 1.5075,0.23192c0.46385,0.11597 0.92769,0.23193 1.39154,0.46385c0.92769,0.23192 1.62346,0.81173 2.31923,1.39154c0.69577,0.5798 1.15961,1.15961 1.62346,1.73942c0.81173,1.15961 1.27558,2.31923 1.5075,3.13096c0.23192,0.81173 0.34788,1.27558 0.34788,1.27558z" fill="#687a27"></path></g><path d="M281.19899,162.58311c0,0 -0.11596,-0.34789 -0.11596,-1.27558c-0.11596,-0.69577 -0.34788,-1.62346 -0.81173,-2.78308c-0.46384,-1.04365 -1.15961,-2.31923 -2.31923,-3.13096c-0.57981,-0.46384 -1.27558,-0.69577 -1.97135,-0.92769c-0.69577,-0.23192 -1.5075,-0.23192 -2.20327,-0.23192c-0.81173,0 -1.62346,0.11596 -2.31923,0.34788c-0.69577,0.23192 -1.39154,0.57981 -1.97135,0.92769c-1.15961,0.81173 -1.97134,1.97135 -2.43519,3.015c-0.34789,1.04366 -0.57981,2.08731 -0.57981,2.78308c-0.11596,0.81174 0,1.15962 0,1.15962c0,0 -0.11596,-0.46385 -0.23192,-1.15962c0,-0.69577 0,-1.85538 0.34788,-3.015c0.34788,-1.27558 1.15961,-2.66712 2.43519,-3.59481c0.57981,-0.46384 1.39154,-0.81173 2.20327,-1.04365c0.69577,-0.23192 1.62346,-0.34788 2.43519,-0.34788c0.9277,0 1.73943,0.11596 2.55116,0.34788c0.81173,0.23193 1.62346,0.57981 2.20327,1.15962c1.27558,1.15961 1.97135,2.55115 2.31923,3.71077c0.34789,1.15962 0.46385,2.20327 0.46385,2.89904c0,0.81174 0,1.15962 0,1.15962z" fill="#687a27"></path></g></g></g></svg>