<svg version="1.1" xmlns="http://www.w3.org/2000/svg" xmlns:xlink="http://www.w3.org/1999/xlink" width="121.94512" height="153.2249" viewBox="0,0,121.94512,153.2249"><g transform="translate(-179.02744,-103.38755)"><g data-paper-data="{&quot;isPaintingLayer&quot;:true}" fill-rule="nonzero" stroke="#000000" stroke-width="1" stroke-linecap="butt" stroke-linejoin="miter" stroke-miterlimit="10" stroke-dasharray="" stroke-dashoffset="0" style="mix-blend-mode: normal"><g data-paper-data="{&quot;index&quot;:null}"><path d="M257.30138,208.13307c0.00744,2.08359 -1.17589,3.10414 -2.02957,3.60406c-1.80955,1.07623 -3.63728,1.25814 -5.52156,0.29817c-1.96812,-1.0015 -4.39961,-5.70426 -2.14495,-9.98927c-3.96036,-2.54443 -6.52804,-5.98984 -6.34701,-7.71879c0.02081,-1.62598 1.8926,-3.27608 5.61702,-3.69296c-1.29625,-1.1202 -4.17706,-5.18852 -3.52434,-7.13084c0.65271,-1.94242 4.19288,-1.82948 6.19001,-2.00134c0,0 -6.69072,-5.74578 -4.74752,-9.58481c1.38594,-2.73464 6.01974,-1.81199 9.44862,-0.46094c0,0 -13.10171,-9.80483 -9.64626,-14.11807c2.70134,-3.37076 9.48682,0.46251 10.85371,1.13349c-2.12511,-2.87993 -5.69508,-9.85465 -6.69492,-16.67667c-3.34251,-22.78521 17.61339,-14.72682 24.21198,-4.03003c3.79917,6.16178 4.49174,9.58891 4.49174,9.58891c1.57204,3.74358 2.24381,7.2638 2.47888,10.62617c0.52562,7.5569 -0.95254,11.6385 -2.83098,13.44962c-8.09913,7.81521 -19.83807,26.31716 -19.80485,36.70329z" fill="#279afa"></path><path d="M257.30138,208.13307c0.00744,2.08359 -1.17589,3.10414 -2.02957,3.60493c-1.80955,1.07623 -3.63728,1.25805 -5.52156,0.29809c-1.96812,-1.0015 -4.39961,-5.70418 -2.14495,-9.98918c0,0 -6.45077,-8.45376 5.40356,-8.95866c0,0 -11.23317,-9.64958 2.74872,-9.27178c0,0 -14.95349,-12.94052 5.31562,-9.16706c0,0 -19.9469,-17.83262 2.39661,-11.32373c0,0 -15.38453,-27.95888 -4.17129,-30.67691c6.29885,-1.52632 15.86372,9.13804 18.15982,14.70523c1.57204,3.74358 2.24381,7.2638 2.47888,10.62617c0.52562,7.5569 -0.95254,11.6385 -2.83098,13.44962c-8.09913,7.81521 -19.83807,26.31716 -19.80485,36.70329z" fill="#0043a5"></path></g><path d="M242.38862,235.98311c0.02333,0.94539 -3.16726,4.31248 -5.6675,5.98719c2.38654,2.3925 3.04733,4.85453 2.57242,8.20622c-0.21535,1.43587 -0.52335,2.42018 -1.6598,3.30963c-1.02942,0.81162 -2.69814,-1.14857 -2.26842,-5.92027c-1.77422,4.77611 -3.03463,7.22491 -5.05254,7.10824c-1.57286,-0.10267 -1.79571,-2.44683 -1.16972,-3.90025c1.42388,-3.30859 3.77031,-6.712 1.10472,-9.17972c-0.68385,-0.6321 -1.41086,-1.02047 -1.44499,-1.92577c-0.03253,-0.99087 0.84487,-1.95006 1.85214,-1.80708c1.78559,0.2674 2.5937,1.5144 4.37274,1.51862c0.64017,0.00206 4.90502,-5.85108 6.69752,-8.22887c-0.0352,1.39918 0.63334,3.43593 0.66341,4.83205z" data-paper-data="{&quot;index&quot;:null}" fill="#ffa600"></path><g data-paper-data="{&quot;index&quot;:null}"><path d="M265.72106,206.7355c-0.2591,1.5404 -0.16023,2.93054 0.2591,4.27504c-4.07154,12.27207 -11.07705,23.06346 -22.84754,27.6059c-6.72481,2.59592 -20.5282,-1.7696 -29.84814,-11.44331c-6.01728,4.83729 -10.08971,8.76522 -17.22475,11.32539c-7.68391,2.75623 -5.20679,-4.91194 -3.4371,-8.21539c-3.30345,0.94415 -8.73034,0.47247 -9.79241,-1.76969c-1.09285,-2.30605 1.31286,-4.17286 4.14463,-5.35207c-3.18553,-0.82545 -7.74292,-1.27807 -7.43234,-4.48266c0.33803,-3.49611 3.28771,-3.14235 8.37658,-4.01184c-2.83176,-2.12336 -6.37105,-5.60373 -4.83729,-8.73025c1.65089,-3.30345 9.0675,-5.73748 29.9644,9.67528c6.37017,1.18009 29.90872,-14.74841 39.16967,-20.52898c12.0927,-7.55026 25.46759,-12.1392 36.33703,-3.0676c0.81216,0.67763 1.47484,1.35526 2.02957,2.03035c-3.41053,-1.46654 -7.53365,-1.10447 -11.25895,-0.1528c-0.84118,0.21512 -1.66331,0.45673 -2.45055,0.71749c-5.07313,1.68079 -8.73034,4.65958 -10.49994,9.67371c-0.30482,0.86277 -0.52151,1.67581 -0.65193,2.45143z" fill="#ff0600"></path><path d="M276.87293,194.60958c-5.07313,1.68079 -8.73034,4.65949 -10.49916,9.67449c-0.30473,0.86277 -0.52151,1.67581 -0.65184,2.45143c-1.55789,0.30892 -5.21264,-0.45507 -8.10752,-4.32322c-2.40239,-3.20966 0.2417,-7.37255 4.09401,-9.10649c6.10697,-2.74295 12.73633,-3.43134 17.61506,0.58628c-0.84118,0.21504 -1.66331,0.45673 -2.45055,0.71749z" fill="#0043a5"></path><path d="M292.09216,194.84542c0,0 15.47675,13.27523 4.3656,37.63337c-2.13919,-9.86637 -9.33568,-25.32144 -19.23029,-21.94325c-0.41268,3.39226 1.22327,6.65008 4.46771,7.71214c-3.89383,3.09671 -9.62878,1.107 -12.8442,-2.52118c-1.42834,-1.61016 -2.37668,-3.13071 -2.87163,-4.71849c-0.41854,-1.34363 -0.5174,-2.73377 -0.2583,-4.27418c0.13121,-0.77562 0.34799,-1.58865 0.65193,-2.45143c1.7696,-5.01412 5.42681,-7.99292 10.49994,-9.67371c0.78724,-0.26076 1.61016,-0.50237 2.45055,-0.71749c3.72531,-0.95168 7.84842,-1.31374 11.25895,0.1528c0.52072,0.22422 1.02563,0.48751 1.50972,0.80141z" fill="#ffa600"></path></g><path d="M251.09068,242.75075c3.8718,-2.89789 7.49276,-3.33751 12.14446,-1.98801c1.99091,0.5953 4.10063,1.96145 3.99095,4.02361c-0.19846,3.72281 -8.18297,-0.36297 -10.33208,0.91943c6.49299,0.78762 11.47318,5.85248 10.90124,8.68694c-0.46415,2.20732 -3.82909,2.05047 -5.76224,0.8702c-4.4008,-2.68566 -8.74806,-6.69567 -12.78165,-3.41813c-1.03387,0.84117 -1.73097,1.79398 -3.02011,1.65856c-1.40945,-0.15382 -2.59171,-1.59065 -2.18555,-2.98866c0.73882,-2.4746 3.26639,-3.3531 3.03385,-5.88802c-0.36037,-3.92473 -6.55956,-7.80196 -10.30681,-11.14916c1.97504,0.33264 5.18477,0.05981 7.02015,-0.93704c1.45551,0.9757 5.42874,6.33108 7.29779,10.21026z" data-paper-data="{&quot;index&quot;:null}" fill="#ffa600"></path><g data-paper-data="{&quot;index&quot;:null}"><path d="M265.20791,195.83222c2.69452,-5.22677 11.12752,-1.40048 9.17906,5.57062c-0.761,2.72138 -3.93925,3.54394 -5.75799,2.87051c-2.97345,-1.10008 -5.02095,-5.33985 -3.42107,-8.44114z" fill="#ffffff"></path><path d="M268.90026,197.35904c-0.40704,-0.2076 -0.75194,-0.57773 -0.93765,-1.06149c-0.18572,-0.48376 -0.17713,-0.98968 -0.01355,-1.41625c0.16354,-0.42666 0.4821,-0.77395 0.91699,-0.9409c0.43496,-0.16699 0.90408,-0.12208 1.31112,0.08552c0.40701,0.20753 0.75194,0.57773 0.93765,1.06149c0.18572,0.48376 0.1771,0.9896 0.01355,1.41625c-0.16359,0.42657 -0.4821,0.77395 -0.91707,0.94093c-0.43488,0.16695 -0.90404,0.12196 -1.31105,-0.08555z" fill="#272525"></path></g><g data-paper-data="{&quot;index&quot;:null}"><path d="M251.38643,207.05193c1.03896,2.63675 0.04667,4.51446 -0.78723,5.57205c-1.76087,2.257 -3.98603,3.39332 -6.84716,3.10844c-2.98815,-0.29498 -8.39506,-5.04692 -7.65939,-11.59051c-6.27255,-1.26383 -11.23033,-4.35796 -11.85622,-6.63814c-0.77843,-2.06889 0.77616,-5.08367 5.2874,-7.4547c-2.19627,-0.77946 -7.85762,-4.50666 -7.99208,-7.28938c-0.13398,-2.78345 4.40547,-4.39123 6.85027,-5.59676c0,0 -11.31724,-3.969 -10.75402,-9.79207c0.40191,-4.14975 6.72697,-5.27418 11.73899,-5.25859c0,0 -21.44571,-5.93556 -19.20175,-13.10924c1.75333,-5.60545 12.2448,-4.1073 14.30811,-3.93397c-4.11638,-2.5968 -12.08921,-9.66511 -16.73067,-17.81049c-15.50491,-27.20659 15.02392,-27.3664 28.67241,-17.08258c7.86137,5.92387 10.43362,9.9231 10.43362,9.9231c3.84401,3.96328 6.43601,8.08866 8.39668,12.23248c4.4058,9.31051 4.55074,15.21105 3.06911,18.43459c-6.39251,13.90481 -12.1082,43.14653 -6.92804,56.28575z" fill="#279afa"></path><path d="M251.38645,207.05193c1.03897,2.63675 0.04669,4.51447 -0.78616,5.57078c-1.76087,2.257 -3.98603,3.39332 -6.84716,3.10844c-2.98815,-0.29498 -8.39506,-5.04692 -7.65939,-11.59051c0,0 -12.35057,-7.51637 2.41275,-14.01981c0,0 -19.0018,-6.6647 -1.10423,-13.10396c0,0 -25.3427,-8.99123 2.19795,-14.23923c0,0 -34.0868,-12.71982 -2.56617,-15.52884c0,0 -33.31789,-27.80125 -20.46101,-36.79167c7.2227,-5.04976 24.61413,3.72628 30.27567,9.64197c3.84401,3.96328 6.43601,8.08866 8.39668,12.23248c4.4058,9.31051 4.55074,15.21105 3.06911,18.43459c-6.39251,13.90481 -12.1082,43.14653 -6.92804,56.28575z" fill="#0043a5"></path></g></g></g></svg>