<svg version="1.1" xmlns="http://www.w3.org/2000/svg" xmlns:xlink="http://www.w3.org/1999/xlink" width="112.71179" height="127.44069" viewBox="0,0,112.71179,127.44069"><g transform="translate(-183.64411,-116.27965)"><g data-paper-data="{&quot;isPaintingLayer&quot;:true}" fill-rule="evenodd" stroke-miterlimit="10" stroke-dasharray="" stroke-dashoffset="0" style="mix-blend-mode: normal"><path d="M242.77764,196.60554c-3.82746,-12.21028 -9.73414,-30.16199 -7.4558,-42.75317c0.95731,-5.52779 7.35669,-28.53298 11.44868,-35.10918c4.40393,-6.85297 7.88661,6.60488 4.30424,17.494c-2.50949,7.77129 -6.73408,20.70303 -6.7265,21.56268c0.18251,2.87039 3.22565,9.26738 3.0337,16.02214" data-paper-data="{&quot;index&quot;:null}" fill="#ffab19" stroke="#001026" stroke-width="1.2" stroke-linecap="round" stroke-linejoin="round"></path><g data-paper-data="{&quot;index&quot;:null}"><path d="M255.93838,121.09942c0.3598,-0.23987 0.95946,-0.11993 1.07939,0.3598l3.11824,12.83274c0,0 7.67566,5.63681 9.95437,9.59458c3.83783,6.59628 3.95776,11.99322 3.95776,11.99322c0,0 8.51519,2.51858 9.95437,9.35472c1.43919,6.83613 -3.83783,19.78882 -26.38509,24.22631c-22.54726,4.4375 -40.65703,-1.67905 -49.17222,-15.35133c-8.51519,-13.67228 4.91722,-29.98306 4.19763,-29.02361l-2.51858,-21.46787c-0.11993,-0.47973 0.47973,-0.83952 0.95946,-0.59966l14.5118,9.47465c0,0 5.39695,-2.03885 11.03376,-2.27871c3.35811,-0.23987 6.23648,0 8.99492,0.47973z" fill="#ffab19" stroke="#001026" stroke-width="1.2" stroke-linecap="butt" stroke-linejoin="miter"></path><path d="M273.68836,156.35951c0,0 8.27533,2.15878 9.71452,8.99492c1.43919,6.83613 -4.31756,19.18916 -26.62496,23.50672c-29.02361,5.99661 -42.81581,-11.27363 -34.78035,-23.98645c8.03546,-12.83274 21.82767,-1.91891 31.90198,-2.63851c8.63513,-0.59966 9.59458,-8.15539 19.78882,-5.87668z" fill="#ffffff" stroke="none" stroke-width="1" stroke-linecap="butt" stroke-linejoin="miter"></path><path d="M235.9097,169.19227c0,-0.47973 0.47973,-0.83952 0.95946,-0.71959c2.27871,0.83952 8.75505,2.75844 15.95098,3.23817c6.47634,0.3598 10.31417,0 12.11315,-0.3598c0.59966,-0.11993 1.07939,0.47973 0.83952,1.07939c-1.07939,3.23817 -5.63681,12.23309 -18.2297,11.5135c-10.91383,-1.19932 -11.99322,-8.87498 -11.63343,-14.75167z" fill="#ffffff" stroke="#001026" stroke-width="1.2" stroke-linecap="round" stroke-linejoin="round"></path><path d="M295.75589,157.67876c-5.63681,4.55743 -14.27194,4.67735 -14.27194,4.67735" fill="none" stroke="#001026" stroke-width="1.2" stroke-linecap="round" stroke-linejoin="round"></path><path d="M294.19677,171.11118c-7.55573,0.59966 -12.23309,-1.67905 -12.23309,-1.67905" fill="none" stroke="#001026" stroke-width="1.2" stroke-linecap="round" stroke-linejoin="round"></path><path d="M253.41981,159.11794c2.51858,0 5.15709,0.23987 5.27702,1.07939c0.11993,1.67905 -1.67905,5.03715 -3.59796,5.15709c-2.15878,0.23987 -7.19593,-2.75844 -7.19593,-4.67735c-0.11993,-1.43919 3.11824,-1.55911 5.51689,-1.55911z" fill="#001026" stroke="#001026" stroke-width="1.2" stroke-linecap="round" stroke-linejoin="round"></path><path d="M199.45031,157.31897c0,0 10.31417,3.35811 14.5118,7.076" fill="none" stroke="#001026" stroke-width="1.2" stroke-linecap="round" stroke-linejoin="round"></path><path d="M214.3219,168.5926c-5.15709,2.03885 -14.03207,0.71959 -14.03207,0.71959" fill="none" stroke="#001026" stroke-width="1.2" stroke-linecap="round" stroke-linejoin="round"></path><g><path d="M267.57181,145.08587c3.47804,5.39695 3.59796,11.5135 0.23987,13.67228c-3.35811,2.15878 -8.87498,-0.3598 -12.47295,-5.75674c-3.47804,-5.39695 -3.59796,-11.5135 -0.23987,-13.67228c3.35811,-2.27871 8.99492,0.3598 12.47295,5.75674z" fill="#ffffff" stroke="#001026" stroke-width="1.2" stroke-linecap="round" stroke-linejoin="round"></path><path d="M267.09208,151.92203c0,1.31926 -0.95946,2.39865 -2.15878,2.39865c-1.19932,0 -2.15878,-1.07939 -2.15878,-2.39865c0,-1.31926 0.95946,-2.39865 2.15878,-2.39865c1.19932,0 2.15878,1.07939 2.15878,2.39865" fill="#001026" stroke="none" stroke-width="1" stroke-linecap="butt" stroke-linejoin="miter"></path></g><g><path d="M237.82862,148.44399c3.59796,5.27702 3.35811,11.75335 0.11993,14.03207c-3.95776,2.27871 -9.23478,0.59966 -12.83274,-4.67735c-3.7179,-5.27702 -3.95776,-12.11315 -0.23987,-14.75167c3.7179,-2.75844 9.35472,0.11993 12.95268,5.39695z" fill="#ffffff" stroke="#001026" stroke-width="1.2" stroke-linecap="round" stroke-linejoin="round"></path><path d="M237.10903,155.40005c0,1.31926 -0.95946,2.39865 -2.15878,2.39865c-1.19932,0 -2.15878,-1.07939 -2.15878,-2.39865c0,-1.31926 0.95946,-2.39865 2.15878,-2.39865c1.19932,0.11993 2.15878,1.07939 2.15878,2.39865" fill="#001026" stroke="none" stroke-width="1" stroke-linecap="butt" stroke-linejoin="miter"></path></g></g><g><path d="M222.35735,206.57041c0.95946,0.51044 2.99831,1.65895 0.11993,5.99774c-2.87837,4.33879 -11.1537,5.23208 -12.11315,5.23208c-3.7179,0.1276 -8.27533,0.1276 -13.31248,-1.65895c-14.63174,-5.10446 -14.75167,-21.82157 -10.07431,-24.50142c4.55743,-2.67984 6.59628,7.65669 13.19255,13.90965c2.87837,2.80746 6.35641,3.82834 9.23478,4.46641c4.0777,0.76567 11.87329,-4.08357 12.95268,-3.44551z" fill="#ffab19" stroke="#001026" stroke-width="1.2" stroke-linecap="round" stroke-linejoin="round"></path><path d="M192.61415,196.23388c1.91891,3.44551 5.63681,8.29475 5.63681,8.29475c0,0 -4.4375,-1.1485 -6.95607,1.02089c-2.03885,1.65895 -1.55911,4.46641 -1.31926,5.35969c-1.55911,-1.65895 -3.47804,-3.95595 -4.67735,-8.42236c-1.19932,-4.46641 0,-9.8261 2.39865,-10.59176c2.39865,-0.51044 2.99831,1.40372 4.91722,4.33879z" fill="#ffffff" stroke="none" stroke-width="1" stroke-linecap="butt" stroke-linejoin="miter"></path></g><path d="M228.35396,219.84201c-2.15878,1.53134 -9.59458,7.14625 -19.06922,10.33654l-0.47973,0.1276c-0.47973,0.1276 -0.71959,0.76567 -0.47973,1.27612c2.03885,3.06267 5.75674,9.18804 -0.83952,11.35743c-6.35641,2.16939 -18.2297,-15.82384 -13.19255,-20.54546c2.27871,-1.78656 4.31756,-0.89328 5.39695,-0.38283c0.59966,0.25523 1.19932,0.25523 1.79898,0.1276c1.43919,-0.51044 4.0777,-1.53134 6.11654,-2.67984c5.15709,-2.80746 6.35641,-3.95595 8.75505,-5.87013c2.39865,-1.91418 7.91553,-6.6358 12.35302,-2.55223c3.83783,3.44551 1.67905,7.27385 -0.3598,8.8052z" fill="#ffab19" stroke="#001026" stroke-width="1.2" stroke-linecap="round" stroke-linejoin="round"></path><g><path d="M247.54311,223.03231c2.51858,2.42462 8.03546,7.40148 8.03546,7.40148c0,0 17.15031,-3.19029 17.15031,5.99774c0,5.4873 -8.63513,6.76341 -20.26855,5.6149c-0.71959,-0.1276 -1.43919,-0.38283 -2.03885,-0.89328c-2.63851,-2.42462 -10.19424,-9.57087 -14.99153,-14.54772c-7.076,-7.40148 -12.95268,-12.25071 -12.95268,-12.25071c-10.19424,-10.59176 -1.91891,-15.05817 1.31926,-21.18353c2.99831,-5.23208 4.31756,-4.21118 11.5135,-2.67984c4.0777,0.63806 6.47634,1.02089 9.11485,0.89328c3.95776,-0.1276 3.23817,5.99774 2.15878,9.18804c0,0 -1.67905,4.72163 -3.23817,7.14625c-1.91891,2.93507 -3.35811,4.84924 -4.79729,5.99774z" fill="#ffab19" stroke="#001026" stroke-width="1.2" stroke-linecap="round" stroke-linejoin="round"></path><path d="M237.46881,213.58904c0,0 -1.79898,-1.53134 -3.7179,-3.44551c-2.39865,-2.29702 -4.79729,-4.21118 -2.39865,-8.16715c2.15878,-3.06267 4.19763,-7.14625 9.59458,-3.44551c5.15709,3.44551 2.87837,6.6358 2.87837,6.6358c-2.63851,5.74253 -6.35641,8.42236 -6.35641,8.42236z" fill="#ffffff" stroke="none" stroke-width="1" stroke-linecap="butt" stroke-linejoin="miter"></path></g><path d="M230.40114,195.76098c-8.48992,-7.68465 -12.77169,-33.32362 -7.23483,-46.62959c4.24754,-10.33281 10.68082,-18.98 13.61545,-8.88768c3.00394,10.29123 -5.23552,15.83951 -6.65582,21.35664c-1.44891,5.85216 4.17624,22.83324 5.40707,27.61767c1.30011,4.98333 -2.06942,9.07662 -5.13186,6.54296z" data-paper-data="{&quot;index&quot;:null}" fill="#ffab19" stroke="#001026" stroke-width="1.2" stroke-linecap="round" stroke-linejoin="round"></path></g></g></svg>