<svg version="1.1" xmlns="http://www.w3.org/2000/svg" xmlns:xlink="http://www.w3.org/1999/xlink" width="63.41609" height="85.71" viewBox="0,0,63.41609,85.71"><g transform="translate(-213.99991,-143)"><g data-paper-data="{&quot;isPaintingLayer&quot;:true}" fill-rule="nonzero" stroke="none" stroke-width="1" stroke-linecap="butt" stroke-linejoin="miter" stroke-miterlimit="10" stroke-dasharray="" stroke-dashoffset="0" style="mix-blend-mode: normal"><path d="M277.416,160.69c0,1 -0.1,2.01 -0.3,3c-0.06,0.3 -0.13,0.59 -0.21,0.88c-1.14,4.03 -3.73,10.7 -8.13,21c-0.53,1.55 -2.43,7.1 -5.69,16.62c-0.7,2.41 -1.71,5.81 -3.02,10.2c-0.03,0.11 -0.07,0.22 -0.11,0.33c-0.01,0.05 -0.08,0.28 -0.12,0.79c-0.13,2.02 -0.41,3.76 -0.84,5.31c-0.78,2.88 -2.54,5.43 -4.99,7.18c-1.24,0.9 -2.65,1.52 -4.13,1.83c-0.26,0.07 -0.67,0.18 -1.25,0.34c-1.22,0.36 -2.49,0.54 -3.78,0.54c-1.52,0 -3.06,-0.25 -4.58,-0.75c-1.92,-0.64 -3.62,-1.79 -4.92,-3.31c-1.24,-1.06 -2.23,-2.39 -2.9,-3.89c-1.24,-2.77 -1.47,-5.85 -0.68,-9.15c0.42,-1.89 1.1,-4.51 2.09,-8c0.05,-0.18 0.11,-0.37 0.17,-0.55c0.85,-2.49 2.1,-6.3 3.72,-11.35c0.17,-0.5 0.36,-0.98 0.59,-1.44c0.35,-1.35 0.72,-2.67 1.12,-3.97c-2.54,1.87 -5.66,2.89 -9.11,2.89c-1.85,0 -3.7,-0.29 -5.5,-0.88c-4.92,-1.58 -8.31,-5.45 -9.06,-10.38c-0.01,-0.04 -0.02,-0.08 -0.02,-0.12c-0.29,-2.02 -0.28,-4.7 0.04,-8.84c-0.06,-0.79 -0.16,-2.21 -0.3,-4.26c0,-0.05 -0.01,-0.1 -0.01,-0.15c-0.06,-1.09 -0.22,-2.02 -0.47,-2.75c-0.02,-0.04 -0.03,-0.07 -0.04,-0.1c-0.59,-1.78 -2.39,-7.16 1.13,-12.07c2.98,-4.22 7.65,-6.64 12.83,-6.64c4.31,0 8.22,1.76 10.97,4.81c0.56,0.02 1.12,0.07 1.67,0.16c3.87,0.6 7.59,1.89 11.1,3.85c2.51,-2.92 6.27,-4.68 10.65,-4.68c8.16,0 14.08,5.7 14.08,13.55z" fill="#00cccc"></path><path d="M266.325,161.569c-0.998,3.518 -3.606,10.203 -7.829,20.055c-0.118,0.352 -2.082,6.1 -5.894,17.24c-0.703,2.405 -1.73,5.865 -3.078,10.379c-0.353,1.057 -0.572,2.229 -0.66,3.52c-0.088,1.289 -0.25,2.344 -0.483,3.166c-0.118,0.469 -0.382,0.85 -0.792,1.145c-0.059,0 -0.733,0.176 -2.022,0.527c-0.528,0.176 -1.144,0.145 -1.848,-0.088c-0.235,-0.412 -0.646,-0.822 -1.231,-1.232c-0.235,-0.527 -0.235,-1.26 0,-2.197c0.354,-1.641 1.003,-4.131 1.949,-7.475c0.879,-2.579 2.14,-6.42 3.783,-11.521c0.058,0 0.176,-0.146 0.352,-0.44c1.053,-4.341 2.371,-8.417 3.952,-12.229c1.11,-2.58 2.574,-6.509 4.39,-11.787c-0.235,0.059 -0.587,0.088 -1.056,0.088c-2.581,-0.293 -4.429,-0.689 -5.542,-1.188c-1.114,-0.498 -2.785,-1.334 -5.014,-2.508c-2.405,-1.583 -4.134,-2.375 -5.189,-2.375c-0.587,0 -1.1,0.338 -1.539,1.012c-0.44,0.675 -0.836,1.335 -1.188,1.979c-0.06,0.118 -0.323,0.587 -0.792,1.407c-0.352,1.115 -1.086,3.254 -2.199,6.421c-0.763,1.818 -2.11,2.728 -4.046,2.728c-0.703,0 -1.407,-0.117 -2.111,-0.353c-0.938,-0.292 -1.466,-0.82 -1.583,-1.583c-0.176,-1.231 -0.118,-3.635 0.176,-7.213c0,-0.058 -0.118,-1.76 -0.352,-5.102c-0.118,-2.111 -0.47,-4.016 -1.056,-5.718c-0.411,-1.231 -0.527,-1.964 -0.352,-2.198c0.938,-1.35 2.228,-2.023 3.87,-2.023c1.524,0 2.639,0.646 3.343,1.936c0.409,0.762 0.557,1.965 0.439,3.605c-0.235,1.818 -0.206,3.05 0.088,3.694c2.814,-3.224 5.189,-4.69 7.125,-4.397c2.639,0.41 5.189,1.318 7.652,2.727c1.349,0.763 2.668,1.555 3.958,2.375c1.584,0.938 2.873,1.495 3.871,1.671c0.703,0.118 1.904,-0.321 3.606,-1.319c0.879,-0.527 1.348,-1.686 1.407,-3.475c0.058,-1.787 1.025,-2.683 2.902,-2.683c2.052,0 3.079,0.851 3.079,2.551c0.002,0.292 -0.028,0.585 -0.086,0.878z" fill="#ffffff"></path></g></g></svg>