<svg version="1.1" xmlns="http://www.w3.org/2000/svg" xmlns:xlink="http://www.w3.org/1999/xlink" width="138.69249" height="115.35604" viewBox="0,0,138.69249,115.35604"><g transform="translate(-170.65376,-126.47226)"><g data-paper-data="{&quot;isPaintingLayer&quot;:true}" fill-rule="nonzero" stroke="#000000" stroke-width="1" stroke-linecap="butt" stroke-linejoin="miter" stroke-miterlimit="10" stroke-dasharray="" stroke-dashoffset="0" style="mix-blend-mode: normal"><g data-paper-data="{&quot;index&quot;:null}"><path d="M269.07352,201.55299c0.00685,1.91957 -1.08332,2.85978 -1.8698,3.32035c-1.6671,0.99151 -3.35095,1.1591 -5.0869,0.2747c-1.81319,-0.92266 -4.05327,-5.25522 -1.9761,-9.20291c-3.6486,-2.34413 -6.01415,-5.51832 -5.84737,-7.11116c0.01917,-1.49798 1.74361,-3.01819 5.17485,-3.40225c-1.19421,-1.03202 -3.84824,-4.78008 -3.2469,-6.5695c0.60133,-1.78951 3.86281,-1.68546 5.70273,-1.84379c0,0 -6.16402,-5.29347 -4.37379,-8.83029c1.27684,-2.51937 5.54586,-1.66935 8.70482,-0.42465c0,0 -12.07034,-9.03299 -8.8869,-13.00669c2.48869,-3.10541 8.74001,0.4261 9.9993,1.04426c-1.95782,-2.65322 -5.24676,-9.07889 -6.16789,-15.36387c-3.07939,-20.99155 16.22686,-13.56752 22.306,-3.71278c3.5001,5.67672 4.13815,8.83407 4.13815,8.83407c1.44829,3.44888 2.06718,6.69199 2.28374,9.78967c0.48424,6.96202 -0.87756,10.72231 -2.60812,12.39086c-7.46156,7.19999 -18.27641,24.24546 -18.2458,33.81399z" fill="#279afa"></path><path d="M269.07352,201.55299c0.00685,1.91957 -1.08332,2.85978 -1.8698,3.32115c-1.6671,0.99151 -3.35095,1.15902 -5.0869,0.27462c-1.81319,-0.92266 -4.05327,-5.25514 -1.9761,-9.20283c0,0 -5.94296,-7.78828 4.97819,-8.25343c0,0 -10.34889,-8.88996 2.53234,-8.5419c0,0 -13.77634,-11.92184 4.89717,-8.44542c0,0 -18.37667,-16.42883 2.20795,-10.43232c0,0 -14.17345,-25.75794 -3.84292,-28.26201c5.803,-1.40617 14.61492,8.41869 16.73027,13.54763c1.44829,3.44888 2.06718,6.69199 2.28374,9.78967c0.48424,6.96202 -0.87756,10.72231 -2.60812,12.39086c-7.46156,7.19999 -18.27641,24.24546 -18.2458,33.81399z" fill="#0043a5"></path></g><path d="M271.13612,219.37503c1.55685,-2.69606 3.58884,-3.87352 6.68426,-4.25372c1.32894,-0.15229 2.27834,-0.11403 3.34177,0.68396c0.96856,0.72141 -0.3756,2.67536 -4.72346,3.43583c4.67377,0.43455 7.15409,0.96937 7.53356,2.79246c0.28533,1.42381 -1.74667,2.18347 -3.18956,1.97465c-3.28435,-0.47434 -6.874,-1.74667 -8.43093,1.21564c-0.39855,0.75974 -0.56993,1.49951 -1.36712,1.74667c-0.8737,0.26624 -1.93712,-0.2846 -2.05116,-1.21491c-0.18973,-1.65252 0.72608,-2.67005 0.30377,-4.25372c-0.15148,-0.57001 -6.37985,-2.9623 -8.92443,-3.98748c1.25316,-0.30377 2.90496,-1.38628 4.13976,-1.74739c0.83544,-0.24715 4.59493,1.78484 6.68354,3.60801z" data-paper-data="{&quot;index&quot;:null}" fill="#ffa600"></path><g data-paper-data="{&quot;index&quot;:null}"><path d="M276.8304,200.26544c-0.2387,1.41914 -0.14762,2.69985 0.2387,3.93851c-3.75103,11.30601 -10.20506,21.24789 -21.04897,25.43275c-6.19543,2.39157 -18.91221,-1.6303 -27.49848,-10.54249c-5.5436,4.4565 -9.29544,8.07522 -15.86881,10.43385c-7.07903,2.53926 -4.79691,-4.52527 -3.16653,-7.56867c-3.0434,0.86983 -8.04308,0.43528 -9.02155,-1.63038c-1.00682,-2.12452 1.20951,-3.84437 3.81836,-4.93075c-2.93476,-0.76047 -7.13339,-1.17746 -6.84726,-4.12978c0.31142,-3.22089 3.0289,-2.89498 7.71717,-3.69603c-2.60884,-1.95621 -5.86952,-5.1626 -4.4565,-8.043c1.52093,-3.0434 8.3537,-5.28582 27.60559,8.91364c5.86871,1.08719 27.55429,-13.58741 36.08621,-18.91293c11.14076,-6.9559 23.46277,-11.1836 33.47656,-2.82612c0.74823,0.62429 1.35874,1.24857 1.8698,1.87052c-3.14205,-1.35109 -6.9406,-1.01753 -10.37264,-0.14077c-0.77496,0.19819 -1.53237,0.42078 -2.25764,0.66101c-4.67377,1.54848 -8.04308,4.29278 -9.67338,8.91219c-0.28082,0.79485 -0.48046,1.54389 -0.60061,2.25845z" fill="#ff0600"></path><path d="M287.10439,189.09408c-4.67377,1.54848 -8.04308,4.29269 -9.67266,8.91291c-0.28074,0.79485 -0.48046,1.54389 -0.60053,2.25845c-1.43525,0.2846 -4.8023,-0.41925 -7.46929,-3.98289c-2.21327,-2.95699 0.22267,-6.79218 3.77173,-8.38962c5.62623,-2.52702 11.73372,-3.16122 16.22839,0.54013c-0.77496,0.19811 -1.53237,0.42078 -2.25764,0.66101z" fill="#0043a5"></path><path d="M301.12555,189.31135c0,0 14.25841,12.2302 4.02194,34.67085c-1.97079,-9.08968 -8.60077,-23.32812 -17.71647,-20.21587c-0.38019,3.12522 1.12697,6.12658 4.11601,7.10504c-3.58731,2.85294 -8.8708,1.01986 -11.8331,-2.32271c-1.3159,-1.48341 -2.18959,-2.88426 -2.64557,-4.34705c-0.38559,-1.23786 -0.47667,-2.51857 -0.23797,-3.93771c0.12088,-0.71456 0.3206,-1.46359 0.60061,-2.25845c1.6303,-4.61941 4.99961,-7.36371 9.67338,-8.91219c0.72527,-0.24023 1.48341,-0.46282 2.25764,-0.66101c3.43205,-0.87676 7.23059,-1.21032 10.37264,0.14077c0.47973,0.20657 0.94489,0.44913 1.39087,0.73832z" fill="#ffa600"></path></g><path d="M266.89311,230.62749c2.8047,-3.46192 5.9399,-4.67144 10.39938,-4.51537c1.91264,0.08263 4.1053,0.82699 4.47252,2.69373c0.66254,3.37012 -7.39118,1.52174 -9.02155,3.15203c5.97743,-0.76119 11.56847,2.63945 11.697,5.30031c0.08335,2.07636 -2.95771,2.69534 -4.95072,2.07717c-4.53679,-1.40617 -9.32451,-4.00737 -12.18808,-0.16984c-0.73373,0.98459 -1.14147,1.99293 -2.32352,2.16278c-1.29367,0.18055 -2.67383,-0.83617 -2.6264,-2.17655c0.10171,-2.37707 2.16125,-3.73195 1.38169,-5.94377c-1.20726,-3.4244 -7.61924,-5.48924 -11.72148,-7.63374c1.8392,-0.14842 4.6447,-1.11618 6.05925,-2.42064c1.52021,0.54319 6.27733,4.43049 8.82191,7.47388z" data-paper-data="{&quot;index&quot;:null}" fill="#ffa600"></path><g data-paper-data="{&quot;index&quot;:null}"><path d="M284.6248,190.18964c3.60575,4.04329 -2.4696,10.03296 -7.82194,6.05539c-2.08933,-1.55307 -1.74739,-4.55821 -0.56767,-5.90012c1.92794,-2.19418 6.25052,-2.55529 8.38962,-0.15527z" fill="#ffffff"></path><path d="M283.31502,192.40524c0.4774,0 0.90969,0.17443 1.22256,0.45597c0.31295,0.28154 0.50647,0.67019 0.50647,1.09935c0,0.42924 -0.19352,0.81789 -0.50647,1.09943c-0.31287,0.28154 -0.74517,0.45597 -1.22256,0.45597c-0.4774,0 -0.90961,-0.17443 -1.22256,-0.45597c-0.31287,-0.28154 -0.50647,-0.67019 -0.50647,-1.09943c0,-0.42916 0.1936,-0.81781 0.50647,-1.09935c0.31295,-0.28154 0.74517,-0.45597 1.22256,-0.45597z" fill="#272525"></path></g><g data-paper-data="{&quot;index&quot;:null}"><path d="M262.13212,197.35975c2.29517,1.24471 2.70758,3.15735 2.74583,4.39755c0.09487,2.63558 -0.80178,4.75559 -2.98912,6.24971c-2.28293,1.56225 -8.91291,1.4131 -12.27071,-3.63934c-5.17412,2.82459 -10.50504,3.57894 -12.29753,2.34107c-1.77493,-0.99844 -2.46429,-4.04643 -0.6863,-8.39195c-2.01129,0.75129 -8.21365,1.47584 -9.95718,-0.40774c-1.74361,-1.88438 0.50647,-5.70813 1.51707,-8.00709c0,0 -10.33592,3.90485 -13.3885,-0.53707c-2.17502,-3.16581 1.6212,-7.70646 5.16647,-10.66489c0,0 -18.64677,8.51814 -21.31376,2.12758c-2.08402,-4.99349 6.20542,-10.15231 7.7638,-11.25246c-4.44265,0.60673 -14.25527,0.34355 -22.35569,-2.65322c-27.05773,-10.00848 -5.61399,-28.20838 10.10793,-29.03923c9.05594,-0.4782 13.24008,0.81934 13.24008,0.81934c5.06009,0.51871 9.33289,1.89356 13.17122,3.65544c8.62445,3.9584 12.22255,8.03543 13.08707,11.18747c3.72808,13.59732 17.02018,37.61399 28.45932,43.81481z" fill="#279afa"></path><path d="M262.13212,197.35975c2.29517,1.24471 2.70758,3.15735 2.74583,4.39602c0.09487,2.63558 -0.80178,4.75559 -2.98912,6.24971c-2.28293,1.56225 -8.91291,1.4131 -12.27071,-3.63934c0,0 -13.16663,2.01435 -6.60397,-11.32059c0,0 -17.35455,6.55581 -8.54263,-8.59078c0,0 -23.20651,8.67116 -6.88551,-11.34813c0,0 -31.58461,11.22113 -11.0107,-9.43541c0,0 -39.97729,0.12547 -36.2331,-13.83457c2.10391,-7.84183 19.57322,-11.95398 27.07231,-11.13464c5.06009,0.51871 9.33289,1.89356 13.17122,3.65544c8.62445,3.9584 12.22255,8.03543 13.08707,11.18747c3.72808,13.59732 17.02018,37.61399 28.45932,43.81481z" fill="#0043a5"></path></g></g></g></svg>