<svg version="1.1" xmlns="http://www.w3.org/2000/svg" xmlns:xlink="http://www.w3.org/1999/xlink" width="173.43146" height="137.39328" viewBox="0,0,173.43146,137.39328"><g transform="translate(-160.20441,-123.52003)"><g data-paper-data="{&quot;isPaintingLayer&quot;:true}" fill-rule="nonzero" stroke="none" stroke-width="1" stroke-linecap="butt" stroke-linejoin="miter" stroke-miterlimit="10" stroke-dasharray="" stroke-dashoffset="0" style="mix-blend-mode: normal"><g data-paper-data="{&quot;index&quot;:null}"><path d="M176.30363,177.91295c-5.19399,0.90375 -10.1372,-2.57416 -11.04095,-7.76816c-0.90375,-5.19399 2.57416,-10.1372 7.76816,-11.04095c5.19399,-0.90375 10.1372,2.57416 11.04095,7.76816c0.90375,5.19399 -2.57416,10.1372 -7.76816,11.04095z" fill="#a3b339"></path><path d="M165.87384,165.12128c-0.10215,0.42352 -0.35934,0.77519 -0.35934,0.77519c0,0 0.10215,-0.42353 0.23459,-1.11556c0.13243,-0.69204 0.4086,-1.69413 1.06672,-2.70754c0.32904,-0.50671 0.77157,-1.05499 1.21408,-1.60328c0.59756,-0.47641 1.19511,-0.95283 1.83425,-1.3158c0.75261,-0.40456 1.43333,-0.65406 2.26909,-0.83171c0.83577,-0.17765 1.55807,-0.31371 2.47701,-0.26444c0.38195,-0.0113 0.76389,-0.02261 1.18743,0.07955c0.42353,0.10215 0.96051,0.16271 1.38405,0.26487c0.42354,0.10215 0.84706,0.2043 1.19873,0.46149c0.35167,0.25718 0.77519,0.35935 1.08527,0.50308c1.32348,0.80186 2.38978,1.95537 3.03254,3.00674c0.64276,1.05137 0.97544,1.959 1.22495,2.63972c0.24951,0.68072 0.26081,1.06267 0.26081,1.06267c0,0 -0.23821,-0.29877 -0.60118,-0.93791c-0.32138,-0.52568 -0.99442,-1.30855 -1.78092,-2.04984c-0.39325,-0.37064 -0.82808,-0.85473 -1.33479,-1.1838c-0.5067,-0.32907 -1.0134,-0.65812 -1.63356,-0.9456c-0.31007,-0.14373 -0.62015,-0.28748 -0.93023,-0.43121c-0.31007,-0.14373 -0.69202,-0.13244 -1.0021,-0.27617l-0.96052,-0.16272c-0.38195,0.0113 -0.76389,0.0226 -1.14584,0.0339c-0.65043,-0.01898 -1.37276,0.11707 -2.09506,0.25313c-0.72232,0.13605 -1.28959,0.34398 -1.97031,0.59349c-0.56726,0.20792 -1.20641,0.57089 -1.73209,0.89227c-0.52568,0.32137 -0.89632,0.71461 -1.26697,1.10787c-0.74129,0.78651 -1.21409,1.60329 -1.6566,2.15158z" fill="#687a27"></path></g><g data-paper-data="{&quot;index&quot;:null}"><path d="M211.38929,168.51471c0,0 -13.31034,-9.27786 -32.27206,-4.12938c0,0 11.05644,-24.25799 25.81804,-40.8653c0,0 7.1695,38.16889 6.45401,44.99468z" fill="#6d4b9b"></path><path d="M211.11396,161.79468c0.30964,4.0048 0.2753,6.72001 0.2753,6.72001c0,0 -0.57451,-2.62074 -1.26611,-6.61423c-0.36658,-2.05346 -0.81634,-4.33384 -1.08078,-6.81085c-0.18896,-1.21772 -0.41948,-2.54887 -0.65001,-3.88004c-0.23053,-1.33116 -0.34761,-2.7039 -0.57814,-4.03507c-0.23053,-1.33116 -0.34761,-2.7039 -0.57814,-4.03507c-0.23053,-1.33115 -0.30602,-2.59044 -0.49497,-3.80816c-0.26444,-2.477 -0.60075,-4.79897 -0.85388,-6.89403c-0.21155,-1.9816 -0.33993,-3.73629 -0.48729,-4.84055c-0.0339,-1.14585 -0.16996,-1.86815 -0.16996,-1.86815c0,0 0.84302,2.65101 1.76152,6.56134c0.48005,2.01189 0.92981,4.29227 1.34928,6.84114c0.53294,2.50728 0.88054,5.2112 1.22815,7.91511c0.34761,2.7039 0.69521,5.40781 0.95965,7.88482c0.26445,2.477 0.48729,4.84055 0.58539,6.86374z" fill="#4a3369"></path><path d="M191.80231,151.24174c0,0 -2.13301,1.55401 -6.25894,2.93763c0,0 1.36188,-4.36007 2.57596,-5.96335c0,0 -0.15505,-0.07187 -0.39326,-0.37065c0.87373,-1.47852 1.81932,-3.11209 2.87837,-4.78724c0.15505,0.07187 0.19662,0.18532 0.35167,0.25719c0,0 2.85939,-4.13679 4.0016,-5.58503c0,0 1.9961,5.44579 1.34928,6.84114c0,0 5.86526,0.55277 8.00553,1.82743c0,0 -5.38927,3.90583 -7.73384,3.47824c0,0 1.28147,4.54945 0.41905,6.40993c0,0 -4.49976,-3.49852 -5.19541,-5.04528z" fill="#e0c448"></path><path d="M183.05463,157.92298c-2.29211,3.92887 -3.93741,6.46238 -3.93741,6.46238c0,0 1.02513,-2.82098 2.96559,-7.00705c0.93428,-2.01551 2.08418,-4.49613 3.50257,-6.94648c0.68841,-1.2819 1.37681,-2.5638 2.06521,-3.8457c0.80185,-1.32349 1.49025,-2.60539 2.29211,-3.92887c1.60371,-2.64697 3.249,-5.18047 4.82244,-7.55895c0.84344,-1.21003 1.61501,-2.26504 2.38659,-3.32002c0.77158,-1.05499 1.58474,-1.99653 2.28444,-2.89648c0.69971,-0.89996 1.44101,-1.68645 2.11042,-2.31791c0.66942,-0.63146 1.2254,-1.22133 1.70949,-1.65617c1.08165,-0.91125 1.6792,-1.38768 1.6792,-1.38768c0,0 -0.4425,0.54829 -1.32754,1.64486c-0.44251,0.54829 -0.84345,1.21002 -1.47128,1.95494c-0.51438,0.70331 -1.10063,1.56168 -1.75875,2.57509c-1.24437,1.87176 -2.74593,4.09521 -4.20591,6.4321c-0.72999,1.16845 -1.53185,2.49193 -2.26184,3.66037c-0.80184,1.32349 -1.49024,2.60538 -2.33369,3.81541c-1.60371,2.64697 -3.09396,5.25235 -4.55394,7.58924c-1.41839,2.45035 -2.76491,4.74565 -3.96769,6.73088z" fill="#4a3369"></path></g><path d="M244.8195,197.57279c-5.71558,13.54898 -32.69628,35.79334 -32.69628,35.79334c-4.3637,-2.77621 -17.01505,-20.78958 -17.01505,-20.78958c-0.18531,0.19662 -8.79927,-5.39739 -8.79927,-5.39739c0,0 17.87222,-35.50759 36.89045,-38.74634c0,0 4.28372,7.82469 1.16715,12.31315z" data-paper-data="{&quot;index&quot;:null}" fill="#4a3369"></path><g data-paper-data="{&quot;index&quot;:null}"><g fill="#a3b339"><path d="M314.1792,227.44296c-6.15415,-4.61097 -16.6984,-5.78504 -13.18192,-13.61334c3.66998,-8.46065 17.24215,-0.64058 22.78232,6.49983c5.52303,7.02078 -3.46341,11.60487 -9.6004,7.1135z"></path><path d="M321.14607,216.43448c2.23876,0.28944 12.85448,7.92295 12.48014,11.27252c-0.37433,3.34954 -5.17926,-2.91968 -6.3064,-1.41533c-1.12713,1.50436 3.47327,8.90153 2.15837,10.79901c-1.31492,1.89749 -3.95091,-7.12407 -3.95091,-7.12407c0,0 2.00489,11.43134 -0.35308,12.0135c-2.37509,0.46254 -2.07262,-10.20093 -2.07262,-10.20093c0,0 -1.37979,9.10891 -3.73775,9.69106c-2.37511,0.46254 -0.65196,-5.3997 0.61151,-7.65601c1.26347,-2.25631 -2.56575,-5.12537 -5.81327,-6.4909"></path></g><path d="M299.96974,209.21616c12.62748,-2.17632 19.68789,3.64751 7.3364,11.15538c-15.05072,9.1155 -29.8839,8.67831 -33.3735,1.36604c-2.80539,-5.9455 13.27288,-10.44755 26.0371,-12.52142z" fill="#a3b339"></path><path d="M257.84739,211.71429c-11.33874,-18.63828 4.35943,-31.75284 12.46001,-30.59471c8.10058,1.15813 26.8435,29.72136 21.92759,41.41237c-5.05226,12.44298 -27.06793,1.07251 -34.38759,-10.81768z" fill="#a3b339"></path><path d="M254.44483,207.56339c-0.29067,-0.32455 -0.29067,-0.32455 -0.29067,-0.32455c0.03429,0.23922 0.17105,0.34168 0.20534,0.58091c0.29067,0.32452 0.61561,0.88832 1.1798,1.41779c1.0259,1.19571 2.73558,2.90376 4.71879,4.81674c1.98319,1.91298 4.47914,3.99658 7.33393,6.02877c1.36759,1.02464 2.85478,2.03217 4.44445,2.90293c1.58964,0.87074 3.17931,1.74152 4.85431,2.3559c1.67497,0.61439 3.33281,1.10916 5.05883,1.22796c0.87159,0.1192 1.58926,0.01633 2.54615,-0.12084c0.83729,-0.12001 1.79419,-0.25719 2.63148,-0.37721c1.67456,-0.24005 3.34915,-0.48011 4.90411,-0.703c1.55495,-0.22291 2.97314,-0.54826 4.39135,-0.87363c1.29859,-0.30822 2.59718,-0.61644 3.65655,-0.89037c1.05937,-0.27393 1.98198,-0.65033 2.80212,-0.88996c0.68338,-0.3421 1.3839,-0.5646 1.7256,-0.73565c0.34168,-0.17106 0.56376,-0.32496 0.56376,-0.32496c0,0 -0.63194,0.70095 -2.10118,1.52191c-0.66623,0.46171 -1.58885,0.8381 -2.61392,1.35126c-1.04223,0.39355 -2.30651,0.94099 -3.58796,1.36883c-2.68249,0.87282 -5.87774,1.57498 -9.32935,2.19183c-0.83729,0.12001 -1.79419,0.25719 -2.63148,0.37721c-0.95691,0.13717 -1.93096,0.15473 -2.905,0.17228c-1.98237,-0.20411 -3.87945,-0.66459 -5.57157,-1.39859c-1.81173,-0.71686 -3.41854,-1.70723 -5.02537,-2.69761c-1.60682,-0.99037 -3.11115,-2.11748 -4.47875,-3.14215c-2.75231,-2.16893 -5.16294,-4.50892 -7.04368,-6.55865c-1.88073,-2.04972 -3.36835,-3.91168 -4.29178,-5.24416c-0.46171,-0.66624 -0.78667,-1.23 -0.95772,-1.5717c-0.15391,-0.22207 -0.17106,-0.34169 -0.18821,-0.46131z" fill="#687a27"></path><path d="M298.29518,209.45619c-3.69084,0.65115 -6.1684,1.25045 -6.1684,1.25045c0,0 0.58092,-0.20534 1.62313,-0.59888c1.04221,-0.39354 2.56288,-0.85566 4.45952,-1.24961c1.89666,-0.39396 4.03253,-0.82221 6.57868,-0.94305c2.42654,-0.1037 5.14373,0.11714 7.62213,1.22672c0.6495,0.27311 1.19653,0.68297 1.72642,0.97322c0.54703,0.40987 1.07691,0.70012 1.50434,1.12714c1.07692,0.70012 2.03423,1.41738 2.99154,2.13465c1.89747,1.3149 3.67533,2.64696 5.29929,3.75695c1.50435,1.12714 2.75233,2.16895 3.57287,2.78375c0.41027,0.3074 0.82056,0.6148 0.97446,0.83687c0.13675,0.10245 0.27352,0.20493 0.27352,0.20493l-0.01715,-0.11962c0,0 0.11962,-0.01715 0.01715,0.11962c-0.11961,0.01715 -0.25636,-0.08532 -0.37599,-0.06817c-0.25637,-0.08532 -0.64949,-0.2731 -1.17938,-0.56336c-1.04262,-0.46087 -2.49553,-1.22917 -4.0852,-2.09993c-1.60682,-0.99037 -3.58961,-2.04891 -5.50423,-3.48344c-0.9573,-0.71726 -2.01708,-1.29777 -2.99154,-2.13464c-0.54703,-0.40987 -0.95731,-0.71726 -1.50434,-1.12714c-0.54704,-0.40986 -0.95731,-0.71725 -1.47006,-0.8879c-2.10241,-1.04139 -4.5975,-1.41615 -6.9216,-1.44921c-2.32408,-0.03305 -4.49424,0.15596 -6.42518,0.31069z" fill="#687a27"></path><path d="M327.37125,226.65054c-0.15392,-0.22208 -0.06859,-0.47845 -0.06859,-0.47845c0,0 0.0343,0.23923 0.1882,0.46131c0.15391,0.22207 0.34211,0.68338 0.53031,1.14468c0.18819,0.46131 0.51314,1.02509 0.8381,1.58885c0.32495,0.56377 0.54744,1.2643 0.88955,1.94768c0.56461,1.38392 0.77035,2.81925 0.70258,4.04968c-0.03386,0.61522 -0.20452,1.12795 -0.40945,1.40147c-0.20493,0.27353 -0.44416,0.30782 -0.44416,0.30782c0,0 0,0 0.10247,-0.13677c-0.01715,-0.11961 0.08532,-0.25637 0.06817,-0.37599c-0.03428,-0.23923 -0.10287,-0.71768 -0.29107,-1.17899c-0.3764,-0.92262 -0.92384,-2.1869 -1.35168,-3.46836c-0.2225,-0.70052 -0.42784,-1.28145 -0.65033,-1.98198c-0.22249,-0.70052 -0.30821,-1.29859 -0.27433,-1.9138c-0.08573,-0.59806 -0.03469,-1.09366 0.17023,-1.36718z" fill="#687a27"></path><path d="M325.54524,231.79505c-0.03471,-1.09366 0.10165,-1.84562 0.10165,-1.84562c0,0 0.46171,0.66624 0.87239,1.82807c0.20535,0.58092 0.42784,1.28145 0.65033,1.98198c0.10289,0.71769 0.2229,1.55498 0.32578,2.27265c0.00042,0.85442 -0.01632,1.58925 -0.15267,2.34122c-0.13634,0.75197 -0.27269,1.50393 -0.68256,2.05096c-0.08531,0.25637 -0.29026,0.52989 -0.49518,0.8034c-0.22209,0.15391 -0.30741,0.41028 -0.42702,0.42743c-0.3417,0.17105 -0.44416,0.30782 -0.44416,0.30782c0,0 0.08531,-0.25637 0.17064,-0.51274c0.10248,-0.13676 0.06817,-0.37598 0.1535,-0.63235c0.08533,-0.25636 0.05102,-0.49559 0.13635,-0.75197c0.08531,-0.25637 0.03388,-0.61521 -0.00042,-0.85443c0.08533,-0.25636 0.03389,-0.61519 -0.01755,-0.97404c0.01673,-0.73481 -0.08614,-1.45251 -0.06941,-2.18732c-0.08614,-1.45248 -0.18942,-3.02458 -0.12167,-4.25501z" fill="#687a27"></path><path d="M320.09863,241.487c-0.34169,0.17105 -0.59807,0.08572 -0.59807,0.08572c0,0 0.10248,-0.13676 0.30741,-0.41028c0.08533,-0.25636 0.27311,-0.6495 0.34129,-1.02548c0.23882,-0.88871 0.4262,-2.13629 0.8528,-3.41814c0.30697,-1.26471 0.75073,-2.42696 1.22877,-3.34997c0.35843,-0.90589 0.87076,-1.58967 0.87076,-1.58967c0,0 0.22249,0.70053 0.24004,1.67457c0.01755,0.97404 -0.03307,2.32407 -0.44251,3.72554c-0.1535,0.63235 -0.4266,1.28185 -0.69971,1.93135c-0.29026,0.5299 -0.58049,1.05978 -1.00751,1.48721c-0.30743,0.41027 -0.75157,0.71808 -1.09327,0.88913z" fill="#687a27"></path><path d="M306.82936,223.85782c-1.07693,-0.70012 -2.05138,-1.53699 -2.05138,-1.53699c0,0 1.24756,0.18738 2.80294,0.81891c0.88871,0.2388 1.81173,0.71684 2.85437,1.17774c1.04264,0.46089 2.10242,1.0414 3.04258,1.63905c0.5299,0.29026 1.05977,0.5805 1.47005,0.8879c0.5299,0.29026 0.95731,0.71727 1.36759,1.02467c0.95731,0.71726 1.65827,1.34921 2.35919,1.98116c0.58133,0.6491 1.04305,1.31534 1.24839,1.89625c0.03429,0.23922 0.06859,0.47843 -0.03388,0.6152c-0.10247,0.13677 -0.10247,0.13677 -0.10247,0.13677c0,0 -0.01714,-0.11961 -0.03429,-0.23923c-0.01715,-0.11961 -0.05143,-0.35883 -0.1882,-0.4613c-0.29067,-0.32455 -0.95732,-0.71727 -1.64112,-1.2296c-1.47006,-0.88791 -3.46999,-2.06604 -5.58955,-3.22706c-0.94017,-0.59766 -1.99994,-1.17818 -2.9401,-1.77582c-0.94017,-0.59764 -1.76073,-1.21244 -2.56413,-1.70763z" fill="#687a27"></path></g><g data-paper-data="{&quot;index&quot;:null}"><path d="M185.97542,235.44626c-3.74244,1.84357 -2.23664,5.53391 -2.94497,6.20277c-1.51409,1.40912 -2.53845,-4.28187 -2.53845,-4.28187c0,0 0.01772,4.93058 -1.65856,5.70951c-1.67627,0.77894 -1.93351,-6.52281 -1.93351,-6.52281c0,0 -1.63171,3.29297 -3.834,3.55852c-2.20229,0.26555 1.28802,-4.98858 1.28802,-4.98858c-7.04962,3.66779 -4.70959,-0.29402 -2.42917,-1.06624c2.209,-0.86969 10.38958,-6.26504 12.97501,-6.21215" fill="#a3b339"></path><path d="M207.54075,204.36349c5.13571,7.62181 6.10716,15.89824 1.96063,21.48343c-4.24399,5.65663 -17.59465,8.69852 -22.78568,10.40514c-6.08756,1.91419 -10.3149,-2.62812 -6.14314,-6.13454c4.17176,-3.50643 15.15877,-9.16063 15.61496,-13.24004c0.45619,-4.07941 -0.10849,-5.46329 -1.65293,-10.02412c-1.51839,-4.72974 7.72761,-10.3066 13.00616,-2.48986z" fill="#a3b339"></path><path d="M183.55729,239.91472c-0.0521,0.33777 -0.07814,0.50668 -0.07814,0.50668c0,0 0.02605,-0.16888 -0.09075,-0.53271c-0.1168,-0.36383 -0.20757,-0.89655 -0.10339,-1.57211c0.05209,-0.33778 0.03277,-0.77303 0.35121,-1.15619c0.14956,-0.4092 0.56548,-0.86379 1.12423,-1.12343c0.46128,-0.18824 1.09145,-0.35041 1.52672,-0.36974c0.43525,-0.01934 0.89654,-0.20757 1.52672,-0.36974c2.08549,-0.62936 4.63226,-1.44697 7.20508,-2.43346c1.28641,-0.49325 2.67029,-1.05792 3.95671,-1.55116c1.38389,-0.56467 2.69633,-1.2268 4.0088,-1.88894c1.31247,-0.66214 2.5535,-1.42173 3.72311,-2.27881c0.58479,-0.42853 1.16961,-0.85706 1.58552,-1.31165c0.29242,-0.21427 0.41591,-0.45458 0.6369,-0.76631c0.22098,-0.31174 0.44196,-0.62348 0.56547,-0.86379c0.68899,-1.1041 1.20908,-2.23424 1.48886,-3.48789c0.3512,-1.15619 0.53351,-2.33843 0.61836,-3.44923c0.16969,-2.22161 -0.14795,-4.08611 -0.4723,-5.34648c-0.32437,-1.26038 -0.55796,-1.98803 -0.55796,-1.98803c0,0 0.14285,0.19493 0.18822,0.46129c0.21427,0.29241 0.40249,0.7537 0.56466,1.38388c0.49325,1.28642 1.07725,3.10554 1.14786,5.45067c0.08404,1.13685 -0.02686,2.41655 -0.23521,3.76768c-0.20836,1.35113 -0.7545,2.65015 -1.49558,4.09204c-0.22098,0.31174 -0.34449,0.55205 -0.56547,0.86379c-0.22098,0.31175 -0.44196,0.62347 -0.7604,1.00664c-0.51339,0.52601 -1.12423,1.12343 -1.70904,1.55196c-1.26709,0.92851 -2.60557,1.75952 -3.91805,2.42165c-1.40992,0.73355 -2.79379,1.29823 -4.17768,1.86289c-1.38389,0.56467 -2.76775,1.12932 -4.12559,1.5251c-2.64425,0.88904 -5.26245,1.60916 -7.49078,2.04361c-0.53271,0.09076 -1.16289,0.25293 -1.69561,0.34369c-0.53271,0.09076 -0.96796,0.1101 -1.23432,0.15547c-0.72765,0.2336 -1.07213,0.78564 -1.24774,1.36374c-0.20165,0.74699 -0.27979,1.25365 -0.26046,1.68891z" fill="#687a27"></path><path d="M185.92653,226.79342c-2.48208,1.5192 -4.20373,2.03178 -4.20373,2.03178c0,0 1.46201,-1.07135 3.70376,-2.71407c1.07216,-0.78565 2.43671,-1.78556 3.72982,-2.88294c1.29312,-1.09741 2.68372,-2.2662 3.90541,-3.46105c0.61086,-0.59743 1.15029,-1.29232 1.59225,-1.9158c0.37054,-0.72095 0.64361,-1.37047 0.77383,-2.21491c0.10418,-0.67556 0.0655,-1.54606 0.09828,-2.31908c0.03278,-0.77304 -0.12941,-1.40322 -0.19412,-2.10483c-0.22688,-1.33178 -0.40839,-2.39721 -0.54452,-3.19629c-0.13613,-0.79908 -0.32435,-1.26037 -0.32435,-1.26037c0,0 1.04528,1.63091 1.93432,4.27515c0.2336,0.72766 0.46721,1.4553 0.60334,2.25438c0.13614,0.79908 0.27226,1.59816 0.18741,2.70896c0.04537,0.26636 -0.07814,0.50666 -0.10418,0.67556l-0.12351,0.24031c-0.02605,0.16889 -0.05208,0.33777 -0.14956,0.4092c-0.07814,0.50666 -0.32518,0.9873 -0.64362,1.37046c-0.56548,0.86378 -1.20237,1.6301 -1.74179,2.32498c-1.34522,1.43518 -2.80723,2.50651 -4.34067,3.48038c-0.68228,0.49996 -1.43597,0.90244 -2.18966,1.30494c-0.75369,0.40249 -1.40994,0.73356 -1.96869,0.9932z" fill="#687a27"></path><path d="M169.5268,236.71362c-0.04539,-0.26635 0.05208,-0.33778 0.05208,-0.33778c0,0 0.07141,0.09747 0.24031,0.12351c0.16888,0.02606 0.26636,-0.04538 0.46129,-0.18822c0.29239,-0.21425 0.77974,-0.57138 1.40992,-0.73355c0.55876,-0.25964 1.18892,-0.42182 1.79307,-0.41511c0.46129,-0.18821 0.8705,-0.03866 0.8705,-0.03866c0,0 -0.07813,0.50667 -0.39657,0.88983c-0.31844,0.38315 -0.83184,0.90916 -1.55948,1.14276c-0.36382,0.11679 -0.72765,0.23358 -1.06543,0.1815c-0.43525,0.01933 -0.77303,-0.03275 -1.08477,-0.25374c-0.36384,0.11679 -0.5781,-0.17561 -0.72095,-0.37054z" fill="#687a27"></path><path d="M174.27422,240.12579c-0.70159,0.06471 -1.1108,-0.08485 -1.1108,-0.08485c0,0 0.14956,-0.40921 0.56547,-0.86379c0.31843,-0.38316 0.73435,-0.83774 1.15026,-1.29232c0.48735,-0.35711 0.87721,-0.64281 1.36455,-0.99991c0.19493,-0.14284 0.38986,-0.2857 0.65622,-0.33106c0.09746,-0.07142 0.19493,-0.14285 0.19493,-0.14285c0,0 0.07141,0.09746 0.04537,0.26637c-0.02605,0.16889 0.01934,0.43525 0.06471,0.70161c-0.05209,0.33777 -0.10417,0.67555 -0.32516,0.98729c-0.22096,0.31173 -0.44194,0.62348 -0.66292,0.93522c-0.51339,0.52598 -1.3385,0.83102 -1.94264,0.8243z" fill="#687a27"></path><path d="M179.26872,243.05733c-0.26637,0.04537 -0.26637,0.04537 -0.26637,0.04537c0,0 0.02604,-0.16887 0.05208,-0.33778c0.02604,-0.16888 -0.01932,-0.43525 0.10419,-0.67556c0.07815,-0.50667 0.18232,-1.18223 0.2865,-1.85779c0.05209,-0.33777 0.10417,-0.67555 0.32515,-0.98729c0.05209,-0.33778 0.27307,-0.64952 0.39658,-0.88983c0.00671,-0.60413 0.32516,-0.98729 0.32516,-0.98729c0,0 0.28569,0.38987 0.54532,0.94863c0.25964,0.55875 0.29831,1.42926 0.16808,2.27371c-0.14957,0.40919 -0.29913,0.8184 -0.44869,1.22761c-0.22096,0.31172 -0.44194,0.62347 -0.73435,0.83774c-0.2924,0.21427 -0.48732,0.35712 -0.75369,0.40249z" fill="#687a27"></path></g><g data-paper-data="{&quot;index&quot;:null}"><path d="M185.5188,205.02354c-18.26478,-4.88792 -24.49213,-13.80195 -25.22532,-17.90889c-0.83895,-5.09774 4.18459,-18.77915 17.7837,-21.70462c13.5991,-2.92547 25.47742,-4.57673 34.79064,3.97839c9.50984,8.74043 39.09378,7.29159 52.25356,10.1898c13.15979,2.89821 28.74515,25.75618 25.30227,39.88779c-3.32942,14.09002 -52.29947,28.30728 -74.50674,7.74781c-22.20726,-20.55948 -21.73086,-19.96192 -30.39812,-22.19028z" fill="#a3b339"></path><path d="M164.0726,175.30497c-0.88502,1.09657 -1.3994,1.79991 -1.3994,1.79991c0,0 0.07188,-0.15504 0.32907,-0.50671c0.14373,-0.31009 0.4728,-0.81678 0.87372,-1.47853c0.40094,-0.66173 0.91531,-1.36507 1.50156,-2.22343c0.58625,-0.85836 1.44099,-1.68644 2.29574,-2.51453c0.96821,-0.86967 1.9364,-1.73934 3.17309,-2.57873c1.2367,-0.83937 2.62843,-1.6069 4.06174,-2.26096c1.43332,-0.65407 3.02168,-1.23627 4.6932,-1.59155c1.62994,-0.46873 3.38464,-0.59713 4.94271,-0.91082c3.31275,-0.44206 6.62552,-0.88415 9.75297,-1.12961c1.64125,-0.0868 3.16903,-0.13199 4.62495,-0.02217c1.4559,0.10982 2.83997,0.3747 4.11056,0.68115c0.57858,0.17402 1.15715,0.34803 1.77731,0.63551c0.46513,0.21561 1.08528,0.50308 1.5504,0.71869c0.46513,0.2156 0.81678,0.47279 1.2819,0.6884c0.35166,0.2572 0.70333,0.51439 1.01341,0.65812c0.66174,0.40095 0.94153,0.81317 1.2932,1.07036c0.35167,0.25719 0.39326,0.37065 0.39326,0.37065c0,0 -0.15504,-0.07188 -0.50671,-0.32907c-0.31009,-0.14373 -0.81678,-0.4728 -1.47853,-0.87372c-0.31008,-0.14374 -0.66173,-0.40092 -1.08527,-0.50308c-0.42355,-0.10214 -0.7752,-0.35933 -1.24032,-0.57494c-0.88865,-0.31776 -2.04579,-0.6658 -3.16135,-0.90039c-1.229,-0.193 -2.45801,-0.38599 -3.87235,-0.38237c-1.41434,0.00363 -2.82868,0.00725 -4.42833,0.2075c-1.4862,0.15865 -3.08586,0.3589 -4.68551,0.55915c-1.59965,0.20024 -3.31277,0.44208 -4.91242,0.64233c-1.71311,0.24183 -3.19931,0.4005 -4.87083,0.75578c-1.55808,0.3137 -3.07456,0.74085 -4.43601,1.23988c-1.36145,0.49903 -2.79475,1.15309 -3.95958,1.83744c-1.33884,1.26292 -2.34863,2.01913 -3.35841,2.77535c-1.00979,0.75622 -1.75108,1.54271 -2.53395,2.21576c-0.78287,0.67305 -1.29726,1.37638 -1.73977,1.92467z" fill="#687a27"></path><path d="M168.23798,193.34008c-3.37696,-0.43527 -5.76312,-0.97631 -5.76312,-0.97631c0,0 2.36354,-0.22286 6.03928,-0.0258c1.83785,0.09853 3.94422,0.22734 6.09216,0.4696c1.07397,0.12113 2.30298,0.31413 3.41854,0.54872c1.22901,0.193 2.34457,0.42759 3.57358,0.62059c1.11556,0.23459 2.38616,0.54104 3.50172,0.77563c1.11556,0.23458 2.2727,0.58262 3.38826,0.81721c1.11556,0.23458 2.11766,0.51074 3.15005,0.51843c0.96052,0.16272 1.92103,0.32544 2.83997,0.37471c1.72442,0.14013 3.25221,0.09491 4.24301,-0.01086c0.9908,-0.10577 1.55807,-0.31369 1.55807,-0.31369c0,0 -0.52568,0.32138 -1.58835,0.58219c-1.06267,0.26081 -2.50729,0.53294 -4.37544,0.7029c-1.79628,0.01493 -4.01609,-0.07229 -6.20562,-0.42801c-1.18743,-0.07954 -2.23112,-0.46917 -3.46013,-0.66217c-1.11556,-0.23458 -2.34457,-0.42758 -3.46013,-0.66217c-4.68912,-0.85516 -9.37827,-1.71034 -12.95185,-2.33093z" fill="#687a27"></path><path d="M172.56544,181.97298c0,0 -0.04158,-0.11345 -0.08317,-0.22691c-0.04158,-0.11345 -0.12476,-0.34035 -0.09447,-0.60885c0.03028,-0.26849 0.17403,-0.57857 0.31776,-0.88865c0.14374,-0.31007 0.44251,-0.54829 0.74129,-0.7865c0.29878,-0.23821 0.63913,-0.36297 1.02108,-0.37427c0.2269,-0.08317 0.38194,-0.0113 0.65044,0.01899c0.15504,0.07186 0.35167,0.25718 0.43484,0.48409c0.08318,0.2269 0.0113,0.38194 0.05289,0.4954c0.04159,0.11346 -0.07186,0.15503 -0.14373,0.31008c-0.07186,0.15503 -0.18532,0.19662 -0.18532,0.19662c0,0 -0.04158,-0.11345 -0.08317,-0.22691c-0.04159,-0.11346 -0.12475,-0.34037 -0.23821,-0.29878c0,0 0,0 -0.11346,0.04159c0,0 -0.11345,0.04158 -0.22691,0.08317c-0.11345,0.04158 -0.22691,0.08317 -0.22691,0.08317c-0.11346,0.04159 -0.22691,0.08316 -0.29878,0.23821c-0.2269,0.08317 -0.41223,0.27981 -0.59755,0.47643c-0.18531,0.19663 -0.29877,0.23822 -0.48409,0.43484c-0.07186,0.15503 -0.29878,0.23821 -0.44251,0.54829z" fill="#687a27"></path><path d="M168.4871,197.88184c-0.43483,-0.4841 -0.7865,-0.74129 -0.7865,-0.74129c0,0 0.35166,0.2572 1.01341,0.65812c0.66175,0.40094 1.74702,0.90402 2.98734,1.47896c1.39535,0.64681 2.94575,1.36549 4.87808,2.07288c1.93236,0.70739 4.06131,1.60009 6.3756,2.29618c2.38615,0.54103 5.15425,1.07079 7.86179,2.13751c2.821,1.02514 5.46797,2.62886 8.01278,4.6561c2.50323,1.91379 5.01777,4.20953 7.30539,6.58844c2.28763,2.37892 4.68871,4.71624 7.16166,6.89852c2.47294,2.18228 5.13122,4.16794 7.93322,5.84352c2.802,1.67558 5.63428,3.08267 8.61032,4.17968c5.79702,2.12214 11.632,2.94341 16.56702,3.06497c2.44671,0.00406 4.77997,0.0497 6.76158,-0.16185c2.02319,-0.09809 3.73629,-0.33993 5.2225,-0.49859c1.4862,-0.15867 2.59046,-0.30602 3.42622,-0.48367c0.72232,-0.13606 1.21772,-0.18895 1.21772,-0.18895c0,0 -0.34037,0.12475 -1.17613,0.3024c-0.72232,0.13607 -1.89843,0.43847 -3.34306,0.71058c-1.44462,0.27213 -3.22959,0.669 -5.2112,0.88055c-2.05348,0.3666 -4.34515,0.4344 -6.90533,0.47194c-5.12035,0.07506 -11.09906,-0.43613 -17.16457,-2.58856c-2.97604,-1.097 -6.03523,-2.42092 -8.99228,-4.16837c-2.84359,-1.78904 -5.61532,-3.73311 -8.2433,-5.98726c-2.62799,-2.25415 -4.91562,-4.63305 -7.20324,-7.01196c-2.28764,-2.37891 -4.64714,-4.60278 -7.03691,-6.55815c-1.25162,-0.95688 -2.46165,-1.80032 -3.67168,-2.64377c-1.32349,-0.80186 -2.56379,-1.37682 -3.80411,-1.95176c-2.59407,-1.10831 -5.24873,-1.67965 -7.71805,-2.44759c-2.46933,-0.76794 -4.52641,-1.81569 -6.38689,-2.67811c-1.86047,-0.86241 -3.45245,-1.69456 -4.73435,-2.38296c-1.2819,-0.6884 -2.2953,-1.34653 -2.95705,-1.74745z" fill="#687a27"></path></g><g data-paper-data="{&quot;index&quot;:null}"><path d="M208.68952,248.46621c-5.22526,1.95605 -8.84162,5.56762 -11.42736,5.60229c-2.58576,0.03466 3.84695,-4.10028 3.84695,-4.10028c0,0 -11.6526,1.01448 -12.69157,-1.08912c-1.11365,-2.1986 7.01044,-1.05392 9.20905,-2.16755c0,0 -8.24597,-0.12664 -6.60419,-2.3396c0.93619,-1.35082 4.68995,1.0778 8.32064,0.22165c0,0 -4.30998,-1.37651 -2.33542,-2.77513c1.2146,-0.80118 4.01843,2.37426 7.03793,0.15413" fill="#a3b339"></path><path d="M211.89117,218.12847c-2.1526,-4.30222 5.90812,-11.25413 12.32353,-4.46236c6.34073,6.69679 8.65048,14.7181 5.33346,20.86105c-3.31701,6.14296 -15.91179,11.43337 -20.85865,13.93907c-5.76117,2.83849 -10.63515,-1.01505 -6.95788,-5.13564c3.67727,-4.1206 13.49572,-11.3784 13.30452,-15.53186c-0.19119,-4.15345 -0.99236,-5.36804 -3.14498,-9.67026z" fill="#a3b339"></path><path d="M202.22271,252.16685c-1.62865,0.66556 -2.27329,1.01865 -2.27329,1.01865c0,0 0.66497,-0.52276 1.8049,-1.41895c1.21461,-0.80121 2.90418,-1.97577 5.02811,-3.18441c0.54965,-0.2784 1.09932,-0.55682 1.74396,-0.90991c0.54965,-0.27841 1.0993,-0.55682 1.81863,-0.81492c1.1943,-0.63151 2.48358,-1.33768 3.84756,-1.94888c1.28927,-0.70618 2.67356,-1.48705 4.05785,-2.26791c1.38428,-0.78087 2.69389,-1.65673 4.00349,-2.53258c1.3096,-0.87586 2.54453,-1.84672 3.77945,-2.81756c1.06525,-0.99116 2.15082,-2.152 2.87671,-3.1838c0.21031,-0.31904 0.34592,-0.73308 0.46123,-0.97743c0.1153,-0.24436 0.25092,-0.6584 0.36623,-0.90275c0.25094,-0.6584 0.40685,-1.2421 0.48811,-1.92079c0.23719,-1.26241 0.30469,-2.54512 0.18222,-3.67848c-0.14997,-2.3414 -0.7749,-4.30939 -1.3114,-5.57837c-0.2581,-0.71932 -0.46182,-1.17397 -0.68588,-1.45896c-0.12905,-0.35966 -0.27841,-0.54964 -0.27841,-0.54964c0,0 0.14934,0.18999 0.3734,0.47498c0.22406,0.28499 0.59745,0.75996 0.95054,1.4046c0.70617,1.28929 1.59579,3.20291 2.0851,5.58494c0.19715,1.22835 0.374,2.62637 0.1165,4.05846c-0.08124,0.6787 -0.25751,1.43207 -0.43374,2.18546c-0.13563,0.41403 -0.27125,0.82807 -0.31187,1.16742c-0.21031,0.31904 -0.25093,0.65838 -0.46123,0.97742c-0.78683,1.54081 -1.96738,2.77634 -3.12762,3.84219c-1.25523,1.14052 -2.49015,2.11138 -3.89475,3.06192c-1.40458,0.95055 -2.78887,1.73142 -4.17316,2.51227c-1.38428,0.78087 -2.84323,1.46674 -4.13253,2.17292c-1.36397,0.6112 -2.72794,1.22239 -3.99692,1.75889c-0.62433,0.18342 -1.26897,0.53653 -1.89331,0.71993c-0.62432,0.1834 -1.17399,0.46183 -1.72364,0.74023c-2.17829,0.94395 -4.0919,1.83356 -5.28621,2.46507z" fill="#687a27"></path><path d="M207.33626,238.92441c-2.33421,1.52768 -3.96286,2.19323 -3.96286,2.19323c0,0 1.27555,-1.3102 3.04638,-3.16348c0.97026,-0.91649 1.96082,-2.00264 3.14137,-3.23817c1.08556,-1.16083 2.19143,-2.49138 3.05295,-3.93718c0.42061,-0.63807 0.86152,-1.44582 1.11245,-2.10421c0.1356,-0.41402 0.17624,-0.75339 0.29155,-0.99774l0.08125,-0.6787l-0.01375,-0.60403c-0.08841,-0.69901 -0.15655,-1.5677 -0.33995,-2.19204c-0.08842,-0.699 -0.34654,-1.41833 -0.52994,-2.04266c-0.36683,-1.24866 -0.75398,-2.32764 -1.01208,-3.04697c-0.25808,-0.71932 -0.46182,-1.17398 -0.46182,-1.17398c0,0 1.21522,1.35024 2.47821,3.73883c0.35309,0.64463 0.70619,1.28929 0.8693,2.0833c0.25809,0.71934 0.49589,1.60834 0.56399,2.47702l0.08842,0.69903l-0.00659,0.77369c0.01374,0.60403 -0.12188,1.01805 -0.18282,1.52707c-0.29154,0.99774 -0.73246,1.8055 -1.17336,2.61324c-1.05151,1.59518 -2.25237,3.00037 -3.5076,4.14091c-1.25524,1.14052 -2.49016,2.11138 -3.5351,2.93287z" fill="#687a27"></path><path d="M198.92361,249.53449c1.2624,0.23719 2.09046,0.50842 2.09046,0.50842c0,0 -0.73963,0.42777 -1.9883,0.79461c-1.24867,0.36684 -2.81637,0.52336 -4.53343,0.4899c-0.77368,-0.00656 -1.62207,-0.10814 -2.47044,-0.2097c-0.75339,-0.17623 -1.50676,-0.35251 -2.07015,-0.6781c-0.31902,-0.21029 -0.5634,-0.32559 -0.80775,-0.4409c-0.24435,-0.11531 -0.39373,-0.3053 -0.54309,-0.49528c-0.22404,-0.28499 -0.3734,-0.47498 -0.3734,-0.47498c0,0 0.24436,0.11533 0.58371,0.15594c0.16967,0.02031 0.33936,0.04064 0.67871,0.08126c0.16967,0.02033 0.50901,0.06094 0.77369,0.00658c0.33934,0.04064 0.60402,-0.01372 0.94337,0.02689c0.33934,0.04062 0.67869,0.08124 1.03836,-0.0478c0.77369,0.00657 1.54739,0.01313 2.32108,0.01971c1.5474,0.01315 3.16947,0.12127 4.35719,0.26346z" fill="#687a27"></path><path d="M190.92741,244.44665c-0.095,0.07469 0,0 0,0c0,0 -0.02033,0.16968 0.05436,0.26468c0.07467,0.09499 0.14936,0.18999 0.14936,0.18999c0.07467,0.09498 0.24435,0.11531 0.33935,0.04062c0.16968,0.02033 0.33934,0.04064 0.50903,0.06095c0.16968,0.02033 0.33934,0.04064 0.50903,0.06095c0.33936,0.04062 0.84837,0.10155 1.3574,0.16249c0.16967,0.02031 0.50902,0.06095 0.67871,0.08125c0.16967,0.02031 0.41402,0.13562 0.6787,0.08126c0.41402,0.13564 0.82804,0.27125 1.24208,0.40686c0.65839,0.25095 1.22178,0.57654 1.22178,0.57654c0,0 -0.54964,0.2784 -1.26898,0.53651c-0.35966,0.12905 -0.79399,0.16311 -1.32333,0.27184c-0.43436,0.03405 -0.94338,-0.02688 -1.4524,-0.08782c-0.50903,-0.06095 -0.99773,-0.29156 -1.48646,-0.52218c-0.24436,-0.1153 -0.48872,-0.2306 -0.63808,-0.42059c-0.24435,-0.11531 -0.39373,-0.3053 -0.54309,-0.49528c-0.14936,-0.18999 -0.20373,-0.45465 -0.2581,-0.71933c-0.05437,-0.26467 -0.03406,-0.43436 0.23062,-0.48872z" fill="#687a27"></path><path d="M196.64788,241.94757c0.18999,-0.14936 0.26468,-0.05436 0.26468,-0.05436c0,0 -0.02031,0.16966 -0.04062,0.33935c-0.02031,0.16967 -0.04062,0.33935 0.10874,0.52934c0.07469,0.095 0.07469,0.095 0.16969,0.02031c0,0 0.095,-0.07469 0.16969,0.02031c0.07466,0.095 0.07466,0.095 0.24435,0.11531l0.24435,0.11531c0.31905,0.21031 0.78744,0.61059 1.08617,0.99057c0.29874,0.37996 0.42777,0.73963 0.42777,0.73963c0,0 -0.45466,0.20374 -0.88901,0.23778c-0.52934,0.10873 -1.20803,0.02748 -1.75111,-0.4678c-0.07467,-0.09499 -0.31904,-0.2103 -0.4684,-0.40029c-0.07466,-0.095 -0.2987,-0.37998 -0.37339,-0.47498c-0.05437,-0.26467 -0.20373,-0.45467 -0.08842,-0.69902c-0.05437,-0.26467 0.06093,-0.50903 0.25092,-0.65839c0.21028,-0.31905 0.47495,-0.3734 0.64464,-0.3531z" fill="#687a27"></path></g><g data-paper-data="{&quot;index&quot;:null}"><g fill="#a3b339"><path d="M307.25603,243.48813c-5.13518,-6.16019 -15.59023,-10.37682 -9.89553,-16.90635c6.11538,-6.96318 17.96206,4.49586 21.74768,12.94958c3.78561,8.45372 -6.71698,10.11699 -11.85216,3.95679z"></path><path d="M317.39736,234.90865c2.23682,0.99151 10.99235,11.47202 9.7751,14.60096c-1.21724,3.12894 -4.4747,-4.30734 -6.01326,-3.2073c-1.51968,1.21939 1.29225,9.70498 -0.6859,11.11932c-1.8399,1.51478 -2.12068,-7.98335 -2.12068,-7.98335c0,0 -1.08766,11.6723 -3.68847,11.47249c-2.6008,-0.19982 0.56059,-10.36542 0.56059,-10.36542c0,0 -3.80294,8.43209 -6.40376,8.23227c-2.60082,-0.19982 0.73878,-5.37765 2.66023,-7.15004c2.02191,-1.91064 -1.26528,-5.672 -4.20629,-8.02008"></path></g><path d="M267.34537,226.31921c-1.27824,-6.52632 16.39926,-6.14498 30.11343,-4.52428c13.71415,1.6207 19.47198,9.39506 4.62318,12.97003c-18.0145,4.44332 -33.21267,-0.36791 -34.73662,-8.44575z" fill="#a3b339"></path><path d="M253.43685,211.8835c-6.66232,-21.21095 13.14726,-28.99709 21.14569,-25.61483c7.99846,3.38227 19.59123,36.41354 11.36647,46.27993c-8.64546,10.30003 -28.15252,-7.04163 -32.51217,-20.6651z" fill="#a3b339"></path><path d="M251.00997,207.37417c-0.21385,-0.57783 -0.1323,-0.83544 -0.1323,-0.83544c0,0 -0.08155,0.25759 0.11341,0.71609c0.19493,0.45849 0.4088,1.03634 0.89915,1.81506c0.72308,1.47592 2.03699,3.59232 3.64628,6.02895c1.6093,2.43664 3.63332,5.17462 5.91496,7.99416c1.20049,1.40033 2.40098,2.80064 3.82127,4.04381c1.31984,1.38142 2.85948,2.60567 4.38021,3.71059c1.52072,1.10491 3.14191,2.07158 4.94507,2.64242c0.39583,0.18197 0.89213,0.22571 1.28798,0.40772l0.63453,0.1442l0.75389,0.1253c0.87324,0.10638 1.88472,0.31322 2.75796,0.41961c1.74647,0.21277 3.51184,0.54489 5.25832,0.75769c1.62712,0.2317 3.23534,0.34401 4.72422,0.47525c1.48888,0.13123 2.83949,0.16202 3.95143,0.23062c1.23129,0.04969 2.20497,0.01784 3.0593,0.00487c0.85433,-0.01294 1.57042,-0.12635 1.90956,-0.3024c0.4774,-0.07561 0.69719,-0.23276 0.69719,-0.23276c0,0 -0.89808,0.50926 -2.55005,0.89321c-0.83542,0.13232 -1.90956,0.30241 -3.10303,0.49142c-1.19349,0.18902 -2.54411,0.15823 -4.01409,0.14633c-1.46998,-0.01189 -3.0593,-0.00486 -4.78687,-0.0983c-1.72758,-0.09342 -3.47404,-0.30621 -5.33986,-0.50009c-0.87324,-0.10638 -1.86581,-0.19387 -2.75795,-0.41961l-0.75389,-0.1253l-0.75389,-0.12529c-0.51518,-0.16307 -1.01148,-0.20683 -1.52667,-0.36992c-1.94142,-0.67127 -3.70083,-1.73838 -5.35983,-2.94374c-1.65896,-1.20537 -3.09816,-2.56788 -4.53735,-3.93039c-1.31984,-1.3814 -2.65858,-2.88217 -3.75862,-4.42074c-2.30055,-2.93887 -4.10479,-5.83401 -5.61364,-8.40891c-1.3895,-2.59379 -2.48359,-4.86736 -3.10625,-6.48152c-0.37099,-0.79764 -0.48441,-1.51372 -0.66046,-1.85286z" fill="#687a27"></path><path d="M295.64971,221.95909c-3.90769,-0.7269 -6.62784,-0.90783 -6.62784,-0.90783c0,0 0.71608,-0.11341 1.82801,-0.04481c1.21237,-0.06965 2.92104,-0.09556 4.90621,0.07941c1.98516,0.17497 4.34726,0.4126 6.88543,0.98936c2.41881,0.59567 5.15193,1.63092 7.50216,3.33853c0.553,0.40177 1.1249,0.92292 1.57744,1.46295c0.45257,0.54002 0.88621,0.96072 1.33875,1.50075c0.8862,0.96073 1.77238,1.92147 2.53923,2.90109c1.65303,1.94036 3.14892,3.66091 4.38721,5.29992c1.21938,1.51966 2.30055,2.93888 3.04849,3.79915c0.31429,0.43958 0.6286,0.87919 0.78574,1.09898c0.13824,0.10044 0.15714,0.21978 0.2765,0.20088l-0.0189,-0.11935c0,0 0.11935,-0.01891 0.0189,0.11935c-0.11935,0.0189 -0.13824,-0.10043 -0.2765,-0.20088c-0.27651,-0.2009 -0.69125,-0.50222 -1.106,-0.80357c-0.96774,-0.70312 -2.24977,-1.84584 -3.68896,-3.20836c-1.43919,-1.3625 -3.17378,-3.04525 -4.82681,-4.98561c-0.8862,-0.96073 -1.77239,-1.92147 -2.53924,-2.90109c-0.45257,-0.54002 -0.8862,-0.96071 -1.33874,-1.50075c-0.45256,-0.54003 -0.76685,-0.97962 -1.30095,-1.26207c-1.97328,-1.64495 -4.32944,-2.61758 -6.76716,-3.33259c-2.31837,-0.73391 -4.59893,-1.22914 -6.603,-1.52347z" fill="#687a27"></path><path d="M320.99609,246.81755c-0.05668,-0.35805 0.1631,-0.5152 0.1631,-0.5152c0,0 0.03781,0.23871 0.07561,0.47741c0.0567,0.35804 0.11341,0.71607 0.2079,1.31282c0.07562,0.47738 0.28945,1.05523 0.40286,1.77131c0.0945,0.59673 0.2079,1.31283 0.32131,2.02891c0.10746,1.45109 0.09557,2.92105 -0.33105,4.08968c-0.16311,0.51521 -0.5649,1.06819 -0.78469,1.22534c-0.33914,0.17605 -0.57783,0.21385 -0.57783,0.21385c0,0 0,0 0.10044,-0.13826c0.11933,-0.01889 0.10044,-0.13824 0.20089,-0.2765c0.08154,-0.25761 0.02484,-0.61564 0.04969,-1.23128c-0.1512,-0.95479 -0.37802,-2.38696 -0.46657,-3.71868c-0.1134,-0.71608 -0.10746,-1.45108 -0.08261,-2.06672c0.00593,-0.73499 0.03078,-1.35063 0.19388,-1.86582c0.16308,-0.5152 0.32619,-1.03038 0.52708,-1.30688z" fill="#687a27"></path><path d="M317.68131,251.37973c0.28837,-1.26908 0.65236,-2.06077 0.65236,-2.06077c0,0 0.25165,0.81653 0.44066,2.01001c0.09451,0.59673 0.08855,1.33174 0.08261,2.06672c-0.00596,0.73499 -0.11233,1.60822 -0.35697,2.38101c-0.24464,0.7728 -0.48928,1.54557 -0.73392,2.31837c-0.18197,0.39584 -0.38289,0.67234 -0.58377,0.94884c-0.20089,0.2765 -0.4018,0.55299 -0.60268,0.82949c-0.20088,0.2765 -0.42069,0.43366 -0.64048,0.59081c-0.21979,0.15715 -0.43957,0.3143 -0.55893,0.3332c-0.35805,0.05669 -0.59674,0.0945 -0.59674,0.0945c0,0 0.10047,-0.13825 0.30135,-0.41475c0.10043,-0.13825 0.20089,-0.2765 0.28244,-0.5341c0.10045,-0.13825 0.182,-0.39584 0.26355,-0.65344c0.08154,-0.2576 0.16309,-0.5152 0.24464,-0.7728c0.08154,-0.25761 0.1442,-0.63455 0.22575,-0.89214c0.1442,-0.63455 0.26947,-1.38842 0.51412,-2.16121c0.25059,-1.50779 0.63942,-2.91511 1.06605,-4.08374z" fill="#687a27"></path><path d="M309.59378,259.02227c-0.49627,-0.04376 -0.75389,-0.1253 -0.63454,-0.1442c0,0 0.2387,-0.0378 0.32024,-0.2954c0.21979,-0.15715 0.40178,-0.55299 0.70313,-0.96774c0.30135,-0.41476 0.46441,-0.92994 0.88512,-1.36359c0.28245,-0.5341 0.68422,-1.08709 0.96667,-1.62119c0.68421,-1.0871 1.4878,-2.19309 2.10938,-2.90322c0.60269,-0.82947 1.28098,-1.18158 1.28098,-1.18158c0,0 -0.00594,0.73499 -0.21279,1.74648c-0.20685,1.01147 -0.73392,2.31836 -1.5375,3.42436c-0.40178,0.553 -0.80356,1.106 -1.20536,1.659c-0.42068,0.43364 -0.9607,0.88617 -1.40031,1.20048c-0.4396,0.31431 -0.91699,0.3899 -1.27504,0.44661z" fill="#687a27"></path><path d="M300.85874,238.62891c-1.21939,-1.51965 -1.88579,-2.63753 -1.88579,-2.63753c0,0 1.18755,0.54597 2.70828,1.6509c0.81061,0.48333 1.65899,1.20537 2.62673,1.9085c0.96774,0.70311 1.83504,1.54449 2.84057,2.48632c0.8862,0.96072 1.75349,1.8021 2.52034,2.78172c0.76685,0.97962 1.39544,1.85881 1.88579,2.63753c0.50926,0.89808 0.86136,1.57637 0.83651,2.19201c0.05671,0.35804 -0.02486,0.61563 -0.1253,0.75389c-0.10044,0.13824 -0.21979,0.15715 -0.21979,0.15715c0,0 -0.01891,-0.11936 0.10045,-0.13826c-0.0189,-0.11934 -0.0189,-0.11934 -0.0378,-0.2387c-0.0189,-0.11936 -0.03779,-0.23869 -0.17605,-0.33914c-0.19495,-0.45848 -0.76683,-0.97963 -1.35764,-1.62011c-0.71013,-0.62158 -1.43918,-1.36252 -2.30647,-2.20389c-0.43365,-0.42069 -0.8673,-0.84136 -1.30095,-1.26206c-0.43365,-0.42069 -0.86729,-0.84137 -1.30094,-1.26207c-0.43365,-0.42069 -0.86729,-0.84136 -1.30094,-1.26207c-0.43365,-0.42069 -0.8673,-0.84136 -1.30095,-1.26206c-0.86728,-0.84139 -1.61522,-1.70166 -2.20603,-2.34214z" fill="#687a27"></path><path d="M276.67515,187.89472c-0.64749,-0.99853 -1.10004,-1.53857 -1.10004,-1.53857c0,0 0.45256,0.54003 1.31985,1.3814c0.74793,0.86028 1.92953,2.14125 3.16782,3.78026c0.62859,0.87917 1.25718,1.75835 1.90468,2.75688c0.64751,0.99852 1.295,1.99705 1.84205,3.13383c0.6664,1.11787 1.21344,2.25463 1.7794,3.51076c0.56594,1.25613 1.13191,2.51225 1.45916,3.80617c0.4466,1.27504 0.77384,2.56894 1.23936,3.96332c0.23276,0.69719 0.32726,1.29393 0.44066,2.01001c0.0945,0.59674 0.32725,1.29392 0.30241,1.90956c0.09451,0.59674 0.2079,1.31282 0.18306,1.92846c0.0945,0.59672 0.06966,1.21237 0.04482,1.82801c0.06966,1.21237 0.00109,2.32431 -0.08641,3.31689c0.03186,0.97368 -0.17496,1.98516 -0.30026,2.73905c-0.06264,0.37695 -0.1253,0.75388 -0.18794,1.13083c-0.06265,0.37696 -0.1442,0.63455 -0.22575,0.89214c-0.30728,1.14972 -0.57083,1.80317 -0.57083,1.80317c0,0 0.02485,-0.61565 0.19389,-1.86582c0.08156,-0.2576 0.02485,-0.61564 0.08749,-0.99258c-0.05671,-0.35805 0.00595,-0.73498 0.06859,-1.11193c-0.01295,-0.85434 0.09344,-1.72758 -0.05777,-2.68236c-0.03185,-0.97368 -0.08261,-2.06672 -0.27162,-3.2602c-0.05076,-1.09303 -0.35911,-2.26761 -0.56701,-3.58042c-0.18902,-1.19349 -0.63563,-2.46851 -0.84354,-3.78133c-0.32725,-1.29392 -0.77384,-2.56895 -1.20155,-3.72462c-0.4466,-1.27502 -0.89319,-2.55004 -1.44025,-3.68682c-0.54706,-1.13679 -0.99365,-2.4118 -1.5407,-3.54858c-0.54707,-1.13677 -1.0752,-2.15421 -1.60336,-3.17163c-0.52815,-1.01743 -1.0374,-1.9155 -1.54665,-2.81358c-0.50925,-0.89808 -0.99958,-1.6768 -1.35169,-2.35509c-0.47145,-0.65937 -0.82353,-1.33765 -1.13785,-1.77725z" fill="#687a27"></path></g><g data-paper-data="{&quot;index&quot;:null}"><g><path d="M195.65426,178.36972c-5.45698,0.94951 -10.65047,-2.70451 -11.59998,-8.16148c-0.94951,-5.45698 2.70451,-10.65047 8.16148,-11.59998c5.45698,-0.94951 10.65047,2.70451 11.59998,8.16148c0.94951,5.45698 -2.70451,10.65047 -8.16148,11.59998z" fill="#a3b339"></path><path d="M195.23998,175.9888c-4.14204,0.72072 -8.08408,-2.05281 -8.8048,-6.19486c-0.72072,-4.14204 2.05281,-8.08408 6.19486,-8.8048c4.14204,-0.72072 8.08408,2.05281 8.8048,6.19486c0.72072,4.14204 -2.05281,8.08408 -6.19486,8.8048z" fill="#e7ffbd"></path><path d="M200.24863,167.96511c-0.77563,3.50171 -11.28118,5.03589 -11.87831,1.65125c-0.86924,-4.82925 12.54048,-5.11138 11.87831,-1.65125z" fill="#2b3021"></path><path d="M184.24486,167.13893c-0.31775,0.88865 -0.37832,1.42564 -0.37832,1.42564c0,0 -0.0529,-0.4954 0.15141,-1.34246c0.20431,-0.84706 0.3973,-2.07608 1.04412,-3.47143c0.28748,-0.62016 0.76028,-1.43693 1.27466,-2.14027c0.51438,-0.70334 1.18381,-1.33479 2.12172,-1.93597c0.41223,-0.2798 0.86605,-0.44614 1.27828,-0.72594c0.45381,-0.16633 0.90762,-0.33268 1.47489,-0.5406c0.4954,-0.05288 1.06267,-0.2608 1.55807,-0.31369l0.7223,-0.13606l0.76389,-0.0226c1.03238,0.00768 2.10636,0.12882 3.10846,0.40499c1.00211,0.27617 1.86049,0.86242 2.67726,1.33522c0.74491,0.62783 1.48983,1.25567 2.00783,1.96667c0.51801,0.71101 0.92256,1.4636 1.28553,2.10274c0.24951,0.68073 0.49903,1.36145 0.70695,1.92872c0.20792,0.56727 0.2608,1.06267 0.31369,1.55807c0.06418,0.87735 0.11707,1.37275 0.11707,1.37275c0,0 -0.16633,-0.45382 -0.34398,-1.28958c-0.16633,-0.45381 -0.21922,-0.94921 -0.5406,-1.47489c-0.20793,-0.56727 -0.5709,-1.20641 -0.82041,-1.88713c-0.36296,-0.63916 -0.72593,-1.2783 -1.35739,-1.94771c-0.51802,-0.711 -1.22133,-1.22539 -1.92467,-1.73977c-0.81677,-0.4728 -1.63356,-0.94559 -2.48062,-1.1499c-0.88865,-0.31777 -1.80758,-0.36702 -2.83997,-0.37471l-0.63914,0.36297l-0.76389,0.0226c-0.49541,0.05288 -0.83577,0.17764 -1.33117,0.23053c-0.4954,0.05289 -0.90763,0.33268 -1.28958,0.34398c-0.45383,0.16634 -0.90764,0.33268 -1.20642,0.57089c-1.46361,0.92256 -2.64741,2.25734 -3.33581,3.53924c-0.6884,1.2819 -1.14989,2.48063 -1.3542,3.32769z" fill="#687a27"></path></g><path d="M186.47193,170.05484c0.06419,0.87735 0.18895,1.21772 0.18895,1.21772c0,0 -0.16634,-0.45383 -0.3024,-1.17613c-0.13606,-0.72231 -0.28342,-1.82657 -0.09042,-3.05558c0.193,-1.229 0.48816,-2.88155 1.67196,-4.21634c0.51438,-0.70333 1.22538,-1.22133 2.09143,-1.66747c0.7526,-0.40455 1.70181,-0.62377 2.53757,-0.80142c0.83576,-0.17765 1.75468,-0.12839 2.67362,-0.07912c0.91892,0.04925 1.69413,0.4086 2.46932,0.76794c1.5504,0.71869 2.54482,2.02723 3.11571,3.23365c0.57089,1.20642 0.83171,2.26909 0.85431,3.03298c0.02261,0.76389 -0.07955,1.18743 -0.07955,1.18743c0,0 -0.0113,-0.38196 -0.14736,-1.10426c-0.13606,-0.72232 -0.51033,-1.7434 -1.15309,-2.79477c-0.64276,-1.05136 -1.66747,-2.09143 -3.02124,-2.6248c-0.62015,-0.28748 -1.46722,-0.49178 -2.2727,-0.58263c-0.80549,-0.09085 -1.56938,-0.06825 -2.40514,0.1094c-0.72232,0.13607 -1.55807,0.3137 -2.19721,0.67667c-0.63915,0.36295 -1.27828,0.72592 -1.83425,1.3158c-0.99849,1.13817 -1.53184,2.49193 -1.76643,3.60749c-0.19301,1.22901 -0.31413,2.30298 -0.33312,2.95342z" fill="#687a27"></path></g><g data-paper-data="{&quot;index&quot;:null}" fill="#969330"><path d="M264.78334,192.70047c-4.49614,-2.08418 -4.23809,-10.15795 1.77454,-8.50092c6.01263,1.65702 9.58491,13.86078 -1.77454,8.50092z"></path><path d="M277.09562,199.25544c-2.77983,2.94937 -5.60401,-3.35115 -2.5367,-6.92068c2.69666,-3.17627 5.35812,4.08477 2.5367,6.92068z"></path><path d="M265.65533,206.66617c-4.82561,2.28356 -8.31516,-5.83222 -3.18308,-9.38639c5.35898,-3.63734 8.16374,7.17468 3.18308,9.38639z"></path></g><g data-paper-data="{&quot;index&quot;:null}"><path d="M195.14975,212.69002c0,0 4.54221,-4.11014 3.99073,-9.82804c0,0 22.71743,-9.99992 24.10045,-34.3157l3.34987,5.97914c0,0 28.7599,-4.75031 52.68072,11.70629c0,0 -3.30578,39.43458 -40.47257,46.88025z" fill="#6d4b9b"></path><path d="M261.85935,199.82098c0.04158,0.11346 1.0857,-3.35797 2.08418,-4.49613c0,0 -2.34052,-2.87431 -2.9756,-4.95806c0,0 4.12955,0.0307 5.22612,0.91574c0,0 2.23153,-3.39189 3.11657,-4.48846c0,0 1.58024,4.31124 1.07716,5.39651c0,0 4.67784,0.47322 6.3114,1.41882c0,0 -4.26604,3.10803 -6.18707,2.7826c0,0 0.94879,3.64183 0.30197,5.03718c0,0 -3.59982,-2.79882 -4.05726,-4.04681c0,0 -1.60733,1.23263 -4.89749,2.43861z" fill="#e0c448"></path><path d="M239.73091,218.09895c0,0 0.04203,-3.74761 1.0179,-5.64966c0,0 3.06282,2.73824 3.44839,4.14128c0,0 3.98218,-1.07353 5.27176,-1.41751c0,0 -1.63037,4.3298 -2.72333,4.8591c0,0 3.27075,3.30552 3.82266,5.16237c0,0 -5.28669,-0.37876 -6.47773,-1.87264c0,0 -1.58112,3.41086 -3.01443,4.06492c0,0 -0.97139,-4.40572 -0.55148,-5.7179c0,0 -1.99291,-0.1704 -5.35088,-1.25611c0,0 2.99907,-2.00016 4.55714,-2.31385z" fill="#e0c448"></path><path d="M236.36784,194.8793c0.04159,0.11345 1.55082,-3.14237 2.70435,-4.20867c0,0 -1.92828,-3.1541 -2.10955,-5.4042c0,0 3.99711,0.72274 5.02182,1.76281c0,0 2.77983,-2.94937 3.8199,-3.97408c0,0 0.89953,4.56076 0.24141,5.57417c0,0 4.54541,1.16526 6.03523,2.42093c0,0 -4.67059,2.35545 -6.56134,1.76152c0,0 0.45338,3.69471 -0.46193,5.05978c0,0 -3.1573,-3.3471 -3.50128,-4.63668c0,0 -1.84553,0.93385 -5.18859,1.64443z" fill="#e0c448"></path><path d="M218.07425,210.9795c0,0 -2.11361,-2.95749 -2.54076,-4.47397c0,0 -3.77789,0.22648 -5.75181,-0.59436c0,0 2.54162,-3.24814 3.94466,-3.63371c0,0 -1.30045,-3.89901 -1.64443,-5.18859c0,0 4.47354,1.32029 5.00284,2.41325c0,0 3.1089,-3.45608 4.92416,-4.12144c0,0 -0.11027,5.31697 -1.44911,6.57989c0,0 3.48273,1.42606 4.25025,2.81779c0,0 -4.436,1.23988 -5.74818,0.81997c0,0 -0.01536,2.06477 -0.98761,5.38116z" fill="#e0c448"></path><path d="M228.89742,176.2539c0,0 0.88501,-1.09658 1.92508,-2.12129c3.01398,-0.20387 7.2154,-0.32819 12.2336,0.02028c0.39324,0.37065 0.74491,0.62783 0.86967,0.9682c0,0 -4.47759,1.12642 -5.74818,0.81997c0,0 -0.01536,2.06477 -0.98761,5.38116c0,0 -2.11361,-2.95749 -2.54076,-4.47397c0,0 -3.77789,0.22648 -5.75181,-0.59436z" fill="#e0c448"></path><path d="M224.32742,225.9328c0,0 2.70754,1.06673 3.92887,2.29211l-11.93803,-5.53388c-0.24952,-0.68073 -0.34398,-1.28957 -0.46874,-1.62994c0,0 4.47354,1.32029 5.00284,2.41325c0,0 3.15049,-3.34262 4.92416,-4.12144c0,0 0.00318,5.27539 -1.44911,6.57989z" fill="#e0c448"></path><path d="M197.39986,212.50881c-1.5278,0.04521 -2.2501,0.18127 -2.2501,0.18127c0,0 0.83576,-0.17764 2.19721,-0.67667c1.36145,-0.49903 3.40363,-1.24757 5.74457,-2.23431c2.29936,-1.1002 4.89749,-2.43861 7.48433,-4.15897c1.35014,-0.88097 2.54525,-1.83381 3.8538,-2.82824c1.26697,-1.10788 2.42047,-2.17418 3.49083,-3.46738c1.11194,-1.17974 2.1407,-2.58639 3.0976,-3.83801c0.9153,-1.36508 1.67557,-2.80202 2.32239,-4.19737c0.64681,-1.39536 1.13859,-2.86258 1.5585,-4.17476c0.4199,-1.31218 0.68478,-2.69625 0.99123,-3.96684c0.13242,-0.69203 0.19299,-1.22901 0.25356,-1.766c0.06056,-0.53699 0.12113,-1.07397 0.1817,-1.61096c0.00767,-1.03239 0.21197,-1.87946 0.18937,-2.64335c-0.04521,-1.52779 0.04564,-2.33327 0.04564,-2.33327c0,0 0.17765,0.83575 0.33631,2.32196c0.13606,0.7223 0.0868,1.64123 0.23416,2.74549c0.10577,0.99079 0.02622,2.17823 -0.12519,3.52069c-0.01898,0.65044 -0.15141,1.34246 -0.28385,2.03449c-0.13244,0.69203 -0.26487,1.38405 -0.39731,2.07608c-0.37832,1.42563 -0.82851,3.0063 -1.43374,4.51511c-0.60523,1.5088 -1.32391,3.05919 -2.31109,4.5793c-1.02876,1.40665 -2.01595,2.92676 -3.24133,4.14809c-1.18379,1.33478 -2.45077,2.44267 -3.8312,3.59213c-1.422,1.03602 -2.73057,2.03044 -4.08071,2.91141c-1.35013,0.88096 -2.78345,1.53502 -4.10331,2.1475c-1.31987,0.61249 -2.68131,1.11151 -3.9293,1.56895c-2.38254,0.87328 -4.54945,1.28147 -5.99408,1.55358z" fill="#4a3369"></path><path d="M236.95625,174.71567c-5.28669,-0.37876 -8.64105,-0.05013 -8.64105,-0.05013c0,0 3.25988,-0.93748 8.33865,-1.126c1.25929,-0.07548 2.67362,-0.07911 4.08796,-0.08273c1.45591,0.10982 2.9837,0.06462 4.59466,0.24632c1.61097,0.18168 3.18033,0.24994 4.83288,0.54509c1.61096,0.1817 3.30508,0.5903 4.95763,0.88545c1.65254,0.29515 3.27481,0.8588 4.85548,1.30899c0.84706,0.2043 1.58068,0.45019 2.35587,0.80953c0.7336,0.24588 1.50881,0.60521 2.24241,0.85111c1.46722,0.49178 2.90416,1.25206 4.14448,1.827c1.35377,0.53336 2.52221,1.26335 3.64907,1.87988c1.12686,0.61654 2.09869,1.1612 2.95705,1.74745c0.85836,0.58625 1.56168,1.10064 2.22343,1.50156c1.21003,0.84344 1.91337,1.35782 1.91337,1.35782c0,0 -0.77519,-0.35935 -2.05709,-1.04775c-0.62015,-0.28747 -1.43694,-0.76027 -2.36717,-1.19148c-0.93025,-0.43121 -1.97393,-0.82084 -3.10079,-1.43737c-1.08527,-0.50307 -2.32559,-1.07802 -3.63777,-1.49793c-1.31218,-0.41991 -2.70754,-1.06672 -4.17476,-1.5585c-1.46722,-0.49177 -2.93444,-0.98355 -4.51511,-1.43374c-1.58068,-0.45019 -3.16135,-0.90038 -4.8139,-1.19553c-1.5391,-0.33673 -3.23322,-0.74534 -4.84418,-0.92704c-1.65255,-0.29516 -3.15004,-0.51845 -4.64755,-0.74173c-1.4975,-0.22328 -3.06688,-0.29153 -4.40934,-0.44294c-1.45591,-0.10983 -2.79838,-0.26124 -3.94422,-0.22734z" fill="#4a3369"></path><path d="M241.43095,232.9194c-1.75469,0.12839 -2.74549,0.23416 -2.74549,0.23416c0,0 0.94921,-0.21923 2.65102,-0.84301c0.79417,-0.2911 1.81526,-0.66536 2.9498,-1.08122c1.13454,-0.41586 2.34095,-0.98675 3.77426,-1.64081c2.71159,-1.38 5.72197,-2.9982 8.75131,-5.26685c1.53546,-1.07758 2.98776,-2.3821 4.48164,-3.57314c1.45232,-1.3045 2.86302,-2.72246 4.11869,-4.21228c1.25567,-1.48983 2.51134,-2.97966 3.68384,-4.69639c0.58626,-0.85837 1.05906,-1.67514 1.57344,-2.37848c0.47279,-0.81679 0.94559,-1.63358 1.41839,-2.45035c0.83215,-1.59198 1.77773,-3.22554 2.38296,-4.73435c0.35934,-0.77519 0.71867,-1.5504 0.96457,-2.284c0.24588,-0.73361 0.60522,-1.5088 0.8927,-2.12896c0.49178,-1.46723 0.95328,-2.66596 1.30131,-3.8231c0.34804,-1.15714 0.73766,-2.20083 0.94197,-3.04789c0.40861,-1.69413 0.68478,-2.69623 0.68478,-2.69623c0,0 -0.16273,0.96052 -0.41629,2.72652c-0.04925,0.91894 -0.32543,1.92104 -0.51843,3.15005c-0.19301,1.22901 -0.61292,2.54119 -0.94965,4.08029c-0.37832,1.42564 -0.94198,3.0479 -1.50562,4.67016c-0.56364,1.62227 -1.35419,3.32769 -2.2582,5.07471c-0.904,1.74699 -1.84959,3.38057 -3.02209,5.0973c-1.1725,1.71673 -2.38658,3.32002 -3.75571,4.85143c-1.36912,1.53141 -2.77983,2.94936 -4.34558,4.29545c-1.56575,1.34608 -3.05963,2.53712 -4.70855,3.65631c-1.53546,1.0776 -3.22597,2.08331 -4.73115,2.89242c-1.50518,0.80909 -3.05196,1.50476 -4.52685,2.04536c-2.79476,1.15308 -5.30206,1.68602 -7.08703,2.08289z" fill="#4a3369"></path><path d="M202.88277,216.93387c-3.64908,-1.87988 -5.83093,-3.26799 -5.83093,-3.26799c0,0 2.51092,0.88142 6.26214,2.33776c1.81889,0.74896 4.06131,1.60009 6.34531,2.56466c2.284,0.96457 4.76462,2.11447 7.09021,3.19249c1.24031,0.57496 2.36717,1.19149 3.5659,1.65298c1.24031,0.57495 2.36717,1.19148 3.45244,1.69456c2.21213,1.11962 4.26922,2.16737 6.05783,3.18483c3.53563,1.92147 5.83093,3.26799 5.83093,3.26799c0,0 -2.51092,-0.88142 -6.26214,-2.33776c-1.81889,-0.74896 -4.06131,-1.60009 -6.34531,-2.56466c-1.08527,-0.50308 -2.284,-0.96458 -3.52432,-1.53952c-1.24031,-0.57496 -2.43904,-1.03645 -3.5659,-1.65298c-2.36718,-1.19148 -4.80622,-2.22793 -7.01835,-3.34754c-2.21213,-1.11962 -4.26922,-2.16737 -6.05783,-3.18483z" fill="#4a3369"></path><path d="M195.60483,214.88595c-1.29807,-2.25575 -1.41259,-4.62403 -0.2558,-5.2897c1.1568,-0.66568 3.14685,0.62333 4.44491,2.87907c1.29807,2.25575 1.41259,4.62403 0.2558,5.2897c-1.1568,0.66568 -3.14685,-0.62333 -4.44491,-2.87907z" fill="#bdabd6"></path></g></g></g></svg>