<svg version="1.1" xmlns="http://www.w3.org/2000/svg" xmlns:xlink="http://www.w3.org/1999/xlink" width="212.08678" height="115.67995" viewBox="0,0,212.08678,115.67995"><g transform="translate(-133.95661,-114.10216)"><g data-paper-data="{&quot;isPaintingLayer&quot;:true}" fill-rule="nonzero" stroke="#000000" stroke-width="1" stroke-linecap="butt" stroke-linejoin="miter" stroke-miterlimit="10" stroke-dasharray="" stroke-dashoffset="0" style="mix-blend-mode: normal"><path d="M234.83836,204.95141c2.3126,-2.01869 6.47528,-4.26861 7.40032,-3.99495c1.36723,0.39984 3.19617,1.59844 4.58373,1.93479c-2.81748,1.13513 -9.71381,3.78398 -9.88154,4.41512c-0.4676,1.75351 0.54643,2.88016 0.33635,4.70991c-0.12627,1.03008 -1.30374,1.63999 -2.27114,1.3452c-0.88269,-0.27366 -1.07245,-1.09277 -1.51374,-1.93399c-1.7239,-3.28 -5.69853,-1.87122 -9.33511,-1.34601c-1.59764,0.23122 -3.84756,-0.60991 -3.53163,-2.18642c0.42017,-2.01861 3.16649,-2.61079 8.3415,-3.09194c-4.81415,-0.84203 -6.30246,-3.00553 -5.23003,-3.80431c1.17748,-0.88357 2.2287,-0.92593 3.70016,-0.75731c3.42739,0.42097 5.6773,1.72471 7.40112,4.70991z" data-paper-data="{&quot;index&quot;:null}" fill="#ffa600"></path><g data-paper-data="{&quot;index&quot;:null}"><path d="M244.80799,180.57505c12.66594,-6.86584 27.38356,-33.45819 31.51146,-48.51376c0.95724,-3.49009 4.94122,-8.00436 14.4906,-12.38728c4.24998,-1.95083 8.98102,-3.47313 14.58378,-4.04747c0,0 4.63287,-1.43669 14.66002,-0.90721c17.40803,0.91996 41.15151,21.07171 11.19196,32.15356c-8.96916,3.31816 -19.83414,3.60957 -24.75324,2.93777c1.72551,1.21814 10.90395,6.93022 8.59643,12.45924c-2.95302,7.07592 -23.59957,-2.35575 -23.59957,-2.35575c3.92548,3.27571 8.12883,8.30332 5.72055,11.80865c-3.37996,4.9183 -14.82436,0.59467 -14.82436,0.59467c1.11898,2.54552 3.61037,6.77935 1.67977,8.86582c-1.93051,2.08559 -8.79805,1.28333 -11.02504,0.45147c1.96867,4.81156 1.20538,8.18643 -0.7599,9.29195c-1.98473,1.37063 -7.88737,0.53537 -13.61639,-2.59214c-3.71791,5.59429 -11.05893,5.75943 -13.58669,4.02964c-2.42192,-1.65435 -3.41473,-4.00173 -3.30969,-6.91996c0.04235,-1.37321 0.49899,-3.49097 3.04031,-4.86917z" fill="#279afa"></path><path d="M244.80797,180.57507c12.66594,-6.86584 27.38356,-33.45819 31.51146,-48.51376c0.95724,-3.49009 4.94122,-8.00436 14.4906,-12.38728c4.24998,-1.95083 8.98102,-3.47313 14.58378,-4.04747c8.30334,-0.90721 27.64615,3.64595 29.9757,12.32878c4.14574,15.4572 -40.11894,15.31827 -40.11894,15.31827c22.78037,22.87187 -12.19155,10.44732 -12.19155,10.44732c18.07136,22.16627 -7.62395,12.56517 -7.62395,12.56517c9.75696,16.77099 -9.45879,9.5121 -9.45879,9.5121c7.26647,14.76505 -7.31222,12.53467 -7.31222,12.53467c-3.71791,5.59429 -11.05893,5.75943 -13.58669,4.02964c-2.42192,-1.65435 -3.41473,-4.00173 -3.30969,-6.91996c0.04235,-1.37151 0.49899,-3.48927 3.04031,-4.86747z" fill="#0043a5"></path></g><g data-paper-data="{&quot;index&quot;:null}"><path d="M228.53336,183.79239c-0.13303,-0.79119 -0.35408,-1.62057 -0.66502,-2.50066c-1.80515,-5.11482 -5.5358,-8.15343 -10.71081,-9.86798c-0.80305,-0.26599 -1.64169,-0.51245 -2.49976,-0.7319c-3.80011,-0.97079 -8.00604,-1.34012 -11.48506,0.15587c0.56587,-0.68866 1.24186,-1.37989 2.07033,-2.07113c11.08772,-9.25378 24.73121,-4.57268 37.06677,3.12921c9.44693,5.89666 33.4582,22.14505 39.9563,20.94126c21.31657,-15.72229 28.88213,-13.23938 30.56617,-9.86959c1.56456,3.18931 -2.04581,6.73958 -4.93444,8.90558c5.19106,0.88696 8.19998,0.52609 8.5448,4.09241c0.31681,3.26894 -4.3321,3.73065 -7.5816,4.57268c2.88864,1.20289 5.34266,3.10718 4.22786,5.45955c-1.08341,2.28719 -6.61928,2.76835 -9.98907,1.80523c1.80523,3.36979 4.33209,11.19196 -3.50613,8.38038c-7.27834,-2.61158 -11.43254,-6.61839 -17.57067,-11.55283c-9.50711,9.86799 -23.58771,14.32119 -30.44757,11.67313c-12.00687,-4.63367 -19.15307,-15.64177 -23.30638,-28.1603c0.42775,-1.3715 0.5286,-2.78956 0.2643,-4.3609z" fill="#ff0600"></path><path d="M217.15755,171.42295c-0.80305,-0.26599 -1.64169,-0.51254 -2.49976,-0.7319c4.9767,-4.09831 11.73919,-3.39609 17.96881,-0.59806c3.92968,1.76876 6.62686,6.01526 4.17623,9.28937c-2.95301,3.94583 -6.68117,4.72516 -8.27034,4.41004c-0.13294,-0.79119 -0.35408,-1.62057 -0.66493,-2.50066c-1.80435,-5.11572 -5.535,-8.15423 -10.71001,-9.86878z" fill="#0043a5"></path><path d="M201.63271,171.66353c0.4938,-0.3202 1.00885,-0.58878 1.54003,-0.8175c3.47902,-1.49599 7.68494,-1.12666 11.48506,-0.15587c0.85726,0.21944 1.69671,0.46591 2.49976,0.7319c5.17501,1.71454 8.90567,4.75316 10.71081,9.86798c0.31004,0.88011 0.53118,1.70947 0.66502,2.50066c0.2643,1.57133 0.16345,2.98939 -0.26349,4.36001c-0.50489,1.61967 -1.47228,3.17075 -2.9293,4.81325c-3.28,3.70105 -9.13012,5.73072 -13.10215,2.57181c3.3096,-1.08339 4.97839,-4.40663 4.55743,-7.86702c-10.09332,-3.44603 -17.43433,12.31942 -19.61648,22.38393c-11.33428,-24.84731 4.45328,-38.38915 4.45328,-38.38915z" fill="#ffa600"></path></g><path d="M249.30442,209.13522c1.56626,1.44435 4.67263,2.5159 6.70908,2.68024c-4.54219,2.37448 -11.64183,4.66077 -12.97856,8.45242c-0.86316,2.44902 1.41725,3.94921 1.52987,6.58121c0.05252,1.48413 -1.47566,2.60989 -2.90807,2.40998c-1.30882,-0.18807 -1.76029,-1.30455 -2.57271,-2.39473c-3.17068,-4.24909 -8.47186,-1.36893 -13.4952,0.18805c-2.20675,0.68446 -5.57395,-0.0009 -5.48166,-2.29994c0.14231,-2.94622 6.33297,-6.71156 12.95145,-5.86874c-1.80522,-1.80513 -10.72266,0.24148 -9.98907,-3.49007c0.4066,-2.06694 2.83442,-2.89113 4.95218,-2.98262c4.93774,-0.17281 8.40918,1.16642 11.51467,4.99962c2.81747,-3.36978 8.08477,-7.67398 9.76802,-8.27542z" data-paper-data="{&quot;index&quot;:null}" fill="#ffa600"></path><g data-paper-data="{&quot;index&quot;:null}"><path d="M219.90305,172.63601c2.36851,-2.65741 7.15467,-2.25758 9.28937,0.17192c1.30624,1.48582 1.68485,4.81325 -0.62855,6.53288c-5.92636,4.40415 -12.65326,-2.22788 -8.66081,-6.7048z" fill="#ffffff"></path><path d="M222.70698,175.59409c0.34643,0.31173 0.56079,0.74206 0.56079,1.21725c0,0.47528 -0.21437,0.90561 -0.56079,1.21734c-0.34651,0.31173 -0.82507,0.50487 -1.35367,0.50487c-0.52858,0 -1.00725,-0.19314 -1.35367,-0.50487c-0.34652,-0.31173 -0.56079,-0.74207 -0.56079,-1.21734c0,-0.47519 0.21428,-0.90552 0.56079,-1.21725c0.34642,-0.31173 0.82507,-0.50487 1.35367,-0.50487c0.52858,0 1.00716,0.19314 1.35367,0.50487z" fill="#272525"></path></g><g data-paper-data="{&quot;index&quot;:null}"><path d="M245.47012,186.02396c2.85001,-0.81509 4.70539,0.40755 5.72261,1.38639c2.1722,2.06184 3.13219,4.49213 2.54671,7.44433c-0.6082,3.08187 -6.10238,8.23287 -12.84136,6.80747c-1.94837,6.4053 -5.66717,11.25562 -8.10649,11.67749c-2.2318,0.60278 -5.21711,-1.31837 -7.23055,-6.25642c-1.03362,2.20873 -5.48291,7.72831 -8.39505,7.5869c-2.91324,-0.14085 -4.13,-5.03087 -5.13911,-7.69786c0,0 -5.27365,11.38287 -11.28027,10.21104c-4.28044,-0.83823 -4.81407,-7.53758 -4.29246,-12.75509c0,0 -8.34426,21.73157 -15.58763,18.67403c-5.66042,-2.39249 -3.04189,-13.16491 -2.6532,-15.29635c-3.12068,4.02488 -11.28578,11.61357 -20.23536,15.6277c-29.89228,13.40216 -26.98397,-18.40424 -14.89957,-31.58129c6.96176,-7.59068 11.38684,-9.86577 11.38684,-9.86577c4.51514,-3.60397 9.071,-5.88707 13.58544,-7.50963c10.14007,-3.64878 16.29722,-3.20765 19.50658,-1.33876c13.83372,8.05702 43.70707,16.95569 57.91285,12.88584z" fill="#279afa"></path><path d="M245.47011,186.02396c2.84998,-0.8151 4.70539,0.40754 5.72368,1.38035c2.17302,2.0621 3.13301,4.49239 2.54753,7.44459c-0.60986,3.08133 -6.10181,8.23114 -12.84216,6.80711c0,0 -9.06926,12.10544 -14.35588,-3.92459c0,0 -8.85734,19.11397 -13.75661,-0.17161c0,0 -11.91855,25.48419 -14.60912,-3.72554c0,0 -16.68088,34.21416 -16.43121,1.10757c0,0 -32.30552,31.89639 -40.37283,17.59996c-4.5318,-8.02984 6.3617,-25.25499 13.09172,-30.55527c4.51514,-3.60397 9.071,-5.88707 13.58544,-7.50963c10.14007,-3.64878 16.29722,-3.20765 19.50658,-1.33876c13.83372,8.05702 43.70707,16.95569 57.91285,12.88584z" fill="#0043a5"></path></g></g></g></svg>