<svg version="1.1" xmlns="http://www.w3.org/2000/svg" xmlns:xlink="http://www.w3.org/1999/xlink" width="134.50115" height="118.46377" viewBox="0,0,134.50115,118.46377"><g transform="translate(-180.29575,-125.21661)"><g data-paper-data="{&quot;isPaintingLayer&quot;:true}" fill-rule="nonzero" stroke-miterlimit="10" stroke-dasharray="" stroke-dashoffset="0" style="mix-blend-mode: normal"><g data-paper-data="{&quot;index&quot;:null}" stroke="none" stroke-width="0.77378" stroke-linecap="butt" stroke-linejoin="miter"><path d="M259.70403,242.45383c-1.9569,-0.59923 -2.1844,-2.2648 -1.9809,-3.81372c-2.1975,1.5888 -4.6891,2.92405 -6.8557,2.92405c-0.4898,0 -0.9556,-0.06666 -1.3874,-0.19859c-1.1576,-0.3542 -1.8609,-1.15773 -1.9306,-2.2031c-0.065,-0.9788 0.462,-2.09234 1.2303,-3.11749c-0.2909,0.02247 -0.578,0.03408 -0.8589,0.03408c-0.0007,0 -0.0007,0 -0.0015,0c-2.8792,0 -5.0002,-1.18966 -5.4033,-3.0306c-0.4209,-1.92353 1.1707,-3.86147 4.2821,-5.26264c0.1238,-0.1529 0.2925,-0.27527 0.4921,-0.34989c0.0317,-0.01236 0.0635,-0.02612 0.0944,-0.04204c0.1757,-0.09279 0.3722,-0.13988 0.5703,-0.13988c0.1223,0 0.2453,0.01742 0.3629,0.0544c3.824,1.1787 7.5567,2.05095 9.1585,2.38137c0.7057,0.14484 1.7789,0.21947 3.1887,0.21947c3.1671,0 7.2418,-0.36871 10.1017,-0.67807c0.0449,-0.00506 0.089,-0.0073 0.1331,-0.0073c0.3413,0 0.6678,0.14063 0.8899,0.38912c0.2507,0.28033 0.3335,0.66074 0.2213,1.01064c-0.0488,0.1514 -0.1029,0.29699 -0.1641,0.43828c0.0248,0.19344 -0.0062,0.39268 -0.0936,0.57601c-0.8024,1.67353 -3.7459,6.60875 -4.6411,7.56723c-0.0209,0.02247 -0.0434,0.04419 -0.0658,0.06526c-0.3745,0.34044 -3.7374,3.32394 -6.3876,3.32394c-0.3474,0 -0.6763,-0.05 -0.9548,-0.14054z" fill="#f7941e"></path><path d="M247.95413,228.34002c-0.0766,0.04064 -0.1547,0.07462 -0.2344,0.1044c0.0619,0.02022 0.1238,0.04485 0.1857,0.06517h-0.0047c-6.4966,2.60019 -4.8926,6.48197 0.0178,6.48197c1.4369,0 3.1586,-0.33248 5.042,-1.1273c-2.1403,0.94332 -6.2537,5.50832 -3.1207,6.46755c0.3258,0.0999 0.6693,0.14484 1.0268,0.14484c3.0851,0 7.1614,-3.39491 8.7105,-4.75694c-0.2391,1.53665 -1.8633,4.98081 0.4867,5.70026c0.1834,0.06011 0.383,0.08764 0.595,0.08764c1.844,0 4.5777,-2.10751 5.579,-3.01749c0.7838,-0.83892 3.6662,-5.64886 4.4554,-7.29702c-0.0611,-0.09419 -0.0805,-0.21516 -0.0116,-0.35064c0.089,-0.17612 0.1594,-0.35214 0.2167,-0.53107c-2.6525,0.28688 -6.93,0.68462 -10.2348,0.68462c-1.3781,0 -2.5875,-0.06957 -3.4379,-0.24484c-1.82,-0.37527 -5.5264,-1.25698 -9.2715,-2.41115M248.67993,226.2753c3.7807,1.16419 7.4639,2.02708 9.0448,2.35235c0.4294,0.08839 1.2875,0.19419 2.9395,0.19419c3.2762,0 7.652,-0.42021 9.9687,-0.67086c0.089,-0.00946 0.1779,-0.01451 0.2661,-0.01451c0.6825,0 1.3364,0.28182 1.7797,0.77806c0.5015,0.56075 0.6678,1.32008 0.4434,2.02062c-0.0333,0.1043 -0.0688,0.2058 -0.1075,0.30579c-0.007,0.28613 -0.0743,0.57226 -0.2028,0.84033c-0.783,1.63449 -3.7768,6.7153 -4.826,7.83829c-0.0418,0.04485 -0.0859,0.08839 -0.1308,0.12968c-0.6678,0.60634 -4.1529,3.63114 -7.1954,3.63114c-0.4689,0 -0.9192,-0.06816 -1.3371,-0.2014c-1.6822,-0.52236 -2.4273,-1.58955 -2.692,-2.7763c-2.148,1.29396 -4.077,1.94749 -5.7631,1.94749c-0.6121,0 -1.2001,-0.08483 -1.748,-0.25289c-1.6102,-0.49333 -2.6293,-1.67719 -2.7283,-3.16889c-0.0464,-0.70063 0.1153,-1.41783 0.4178,-2.11837c-2.887,-0.29343 -4.97,-1.73739 -5.4311,-3.8449c-0.202,-0.9216 -0.4132,-3.99049 4.7154,-6.36971c0.2104,-0.19634 0.4642,-0.35495 0.7513,-0.46515c0.3436,-0.17453 0.7258,-0.26366 1.1096,-0.26366c0.2438,0 0.4891,0.03623 0.7258,0.1087z" fill="#000000"></path></g><g data-paper-data="{&quot;index&quot;:null}" stroke="none" stroke-width="0.77378" stroke-linecap="butt" stroke-linejoin="miter"><path d="M234.05553,230.34032c-0.8775,-0.68387 -1.0361,-1.57504 -0.9092,-2.40815c-0.5904,0.12247 -1.2257,0.2101 -1.8347,0.2101c-0.0007,0 0,0 -0.0007,0c-1.6567,0 -2.4583,-0.65784 -2.8383,-1.20848c-0.5161,-0.74623 -0.5764,-1.5815 -0.171,-2.35094c0.1293,-0.24484 0.2987,-0.47096 0.4968,-0.67591c-0.6035,-0.39268 -0.9425,-0.95998 -0.9425,-1.59676c0,-1.5461 1.9244,-2.8234 4.3912,-2.99146c0.1463,-0.06086 0.3072,-0.09419 0.472,-0.09419c0.0604,0 0.1215,0.0044 0.1827,0.01376l0.1663,0.02753c0.0325,0.00215 0.2035,0.01742 0.2298,0.02107c0.1432,0.02022 0.2817,0.06376 0.4078,0.13033c1.3487,0.7158 2.4034,1.57728 3.1307,2.56039c0.3985,0.53612 1.7147,1.67793 6.0572,3.29782c0.5146,0.19129 0.804,0.74913 0.7026,1.25922c-0.0372,0.18763 -0.1261,0.36225 -0.2585,0.5071c-1.7201,1.88589 -4.3022,4.13468 -6.8363,4.13468c-0.9115,0 -1.7348,-0.28042 -2.4459,-0.83611z" fill="#f7941e"></path><path d="M232.71913,220.31129c0.048,0.04635 0.0805,0.07537 0.0805,0.07537c-3.817,0 -5.6377,3.06964 -1.139,3.06964c0.2144,0 0.4434,-0.0073 0.6871,-0.02172c-1.3874,0.1043 -3.9594,1.3772 -2.9016,2.90804c0.3636,0.52676 1.0639,0.71215 1.8648,0.71215c1.3309,0 2.9396,-0.5129 3.742,-0.82516c-0.4666,0.80128 -1.3743,2.40169 -0.2554,3.27544c0.5308,0.41291 1.1089,0.58462 1.7039,0.58462c2.3778,0 5.0257,-2.73567 5.9535,-3.75351c0.0038,-0.01891 0.0046,-0.03193 0.0092,-0.0515c-3.0479,-1.13666 -5.6369,-2.41545 -6.581,-3.6876c-0.7103,-0.95849 -1.7023,-1.67868 -2.75,-2.23438c-0.0425,-0.00581 -0.0859,-0.00431 -0.1292,-0.01227c-0.0967,-0.0044 -0.1896,-0.02462 -0.2848,-0.03914M233.08363,218.16465l0.1331,0.02097c-0.0047,0 -0.0387,-0.0029 -0.0758,-0.00506c0.0472,0.0029 0.0928,0.00655 0.1392,0.01236c0.0619,0.00431 0.1223,0.01086 0.1811,0.01807c0.2871,0.03839 0.5641,0.12677 0.8163,0.2601c1.502,0.79688 2.6843,1.76773 3.513,2.88632c0.1439,0.19419 1.0903,1.25052 5.5325,2.90738c1.023,0.38182 1.6157,1.38235 1.4284,2.39083c-0.0038,0.02388 -0.0085,0.0485 -0.0139,0.07537c-0.0743,0.37527 -0.2522,0.72516 -0.5176,1.01569c-2.7315,2.99652 -5.3291,4.515 -7.7193,4.515c-1.173,0 -2.2749,-0.37602 -3.188,-1.08676c-0.7041,-0.54989 -1.1382,-1.21063 -1.3015,-1.97858c-0.2344,0.01957 -0.4689,0.03118 -0.701,0.03118c-2.1797,0 -3.277,-0.92806 -3.8147,-1.70612c-0.7351,-1.06288 -0.8218,-2.30975 -0.2368,-3.42038c0.0124,-0.02238 0.024,-0.04485 0.0371,-0.06807c-0.3892,-0.50139 -0.602,-1.09547 -0.602,-1.72428c0,-2.11256 2.2687,-3.80426 5.2965,-4.06221c0.2322,-0.07022 0.4782,-0.1087 0.7282,-0.1087c0.1207,0 0.2422,0.00871 0.3652,0.02687z" fill="#000000"></path></g><path d="M239.33516,188.1121c0,0 -15.17997,13.98632 -33.4788,17.92569c-18.29884,3.93937 -31.30658,3.84413 -20.43678,-8.26912c13.96848,-15.56711 46.16728,-21.24155 66.1503,-22.83037" data-paper-data="{&quot;index&quot;:null}" fill="#8a8fc6" stroke="#000000" stroke-width="2.31554" stroke-linecap="round" stroke-linejoin="round"></path><g data-paper-data="{&quot;index&quot;:null}" stroke="none" stroke-width="0.77378" stroke-linecap="butt" stroke-linejoin="miter"><g><path d="M271.96194,229.41202c-0.57365,0.07181 -1.12742,0.14069 -1.64476,0.2173c-3.70429,0.55214 -8.09237,1.08185 -12.54035,0.83824c-6.45856,-0.35424 -12.7169,-2.11145 -18.60329,-5.2227l-0.10481,-0.0559l-0.09072,-0.07522c-3.04878,-2.56795 -8.25039,-8.63086 -8.82948,-20.38162c-0.26745,-5.40661 1.62317,-10.25137 3.45206,-14.93636c1.96578,-5.03569 3.8217,-9.79203 3.16752,-15.15812c-0.18176,-1.48873 -0.61875,-2.96289 -1.29857,-4.38067c-1.10941,-2.31539 -2.42697,-4.99802 -4.02478,-7.54435c-0.3873,-0.61723 -0.78858,-1.23614 -1.19247,-1.85882c-1.32173,-2.03721 -2.68815,-4.14427 -3.67588,-6.37893c-0.54975,-1.24348 -0.75523,-6.26646 -0.61555,-6.96659c0.55534,-2.75418 1.73642,-5.39229 3.51111,-7.841c3.99543,-5.51309 11.00073,-9.89884 19.22132,-12.03264c4.6046,-1.19522 9.2521,-1.59395 13.44051,-1.15267c9.34309,0.98346 16.89486,5.95887 20.20089,13.30865c1.94309,4.31678 2.58082,8.90786 1.8435,13.2774c-0.4134,2.44485 -1.21581,4.7646 -1.9916,7.00867c-0.49207,1.42414 -1.00122,2.8968 -1.39495,4.36429c0.01503,0.07619 0.05415,0.19625 0.10191,0.3186c5.23905,3.76208 8.7292,9.6038 12.10601,15.25565c2.79645,4.68126 5.4382,9.10254 8.88393,12.2111c0.99203,0.81284 2.01766,1.52419 3.00938,2.21282c2.67734,1.85743 5.44569,3.77886 7.4663,7.66749c1.60488,3.09384 1.70427,6.38982 0.27766,9.28041c-1.67146,3.38816 -5.27666,5.9512 -10.15093,7.21642c-0.45164,0.11723 -0.91641,0.22365 -1.39673,0.31989c-0.3374,0.06736 -0.69258,0.14978 -1.1209,0.25497l-0.26779,0.06807c-0.3048,0.07911 -0.61753,0.16473 -0.93687,0.25586l-0.30355,-1.04321l0.18782,1.0778c-0.79176,0.2294 -1.66456,0.50761 -2.64825,0.8446c-1.7055,0.58713 -3.63721,1.32205 -5.74246,2.18289c-4.57048,1.87199 -8.71258,3.83565 -9.78557,4.34922l-0.09206,0.06724c-0.96724,0.70243 -2.18626,1.2389 -3.72836,1.63919c-1.55633,0.40397 -3.22145,0.6109 -4.68931,0.79206z" fill="#8a8fc6"></path><path d="M248.96568,128.68674c-7.36387,1.91143 -14.43072,5.8969 -18.54728,11.57775c-1.60898,2.22151 -2.77452,4.69772 -3.32259,7.41548c-0.09597,0.48004 0.101,5.33528 0.54855,6.34786c1.25099,2.8302 3.15191,5.48117 4.79947,8.10812c1.55001,2.46965 2.82704,5.03037 4.08066,7.64583c0.71503,1.49173 1.19063,3.05618 1.39136,4.69795c1.32066,10.82851 -7.14595,19.37862 -6.6124,30.16826c0.5593,11.35097 5.51901,17.16606 8.45936,19.6423c5.52224,2.91907 11.54155,4.72863 18.11763,5.08903c4.11499,0.22605 8.20933,-0.21849 12.29329,-0.82645c1.84103,-0.27434 4.13525,-0.44695 6.20612,-0.98449c1.23207,-0.3198 2.38506,-0.76873 3.31449,-1.44412c0.00187,-0.0147 0.00603,-0.03532 0.00749,-0.04837c0,0 4.73433,-2.303 10.12499,-4.51065c0.0002,0.00072 0.0002,0.00072 0.00038,0.00146c1.91337,-0.78414 3.91053,-1.55627 5.80823,-2.20972c0.0183,-0.0063 0.03673,-0.01253 0.0558,-0.01903c0.91461,-0.31372 1.80478,-0.59867 2.65171,-0.84395c0.03931,-0.01176 0.07942,-0.02361 0.11873,-0.03536c0.32953,-0.09444 0.65202,-0.18269 0.96582,-0.26415c0.07113,-0.01847 0.14084,-0.03655 0.21139,-0.05409c0.0452,-0.01097 0.08872,-0.02159 0.13392,-0.03253c0.38382,-0.09509 0.75804,-0.18101 1.11361,-0.25239c0.45598,-0.09138 0.8981,-0.19269 1.32804,-0.30428c8.8924,-2.3082 12.28213,-8.81828 9.10476,-14.93959c-2.6234,-5.04946 -6.48421,-6.50171 -10.20742,-9.5517c-8.00174,-7.21403 -11.73227,-21.00087 -21.17071,-27.59045c0,0 -0.3934,-0.7916 -0.2943,-1.16759c1.01824,-3.84138 2.7256,-7.43947 3.39048,-11.37329c0.73337,-4.34743 0.01618,-8.72114 -1.76822,-12.6853c-3.34763,-7.4424 -10.94333,-11.79853 -19.29843,-12.67774c-4.06214,-0.42609 -8.58685,-0.02555 -13.00495,1.12126M262.29764,125.39758c9.74897,1.02554 17.63789,6.23748 21.10259,13.93987c2.02622,4.50171 2.68986,9.29725 1.91847,13.86793c-0.42824,2.53256 -1.24441,4.89487 -2.03434,7.17995c-0.45124,1.30723 -0.88214,2.55153 -1.24161,3.81549c5.17852,3.89231 8.62752,9.66463 11.96777,15.25565c2.74505,4.5943 5.33801,8.93546 8.68598,11.9691c0.94603,0.77091 1.93871,1.46005 2.89993,2.12669c2.78416,1.933 5.66323,3.93037 7.80284,8.04939c1.76083,3.3925 1.86097,7.02135 0.28275,10.22067c-1.8241,3.6965 -5.70336,6.47886 -10.92367,7.83391c-0.47554,0.12344 -0.96768,0.2355 -1.4629,0.33561c-0.29727,0.05916 -0.62484,0.13374 -1.00421,0.22768l-0.0533,0.01316l-0.09097,0.02206l-0.17548,0.04477c-0.29435,0.0764 -0.59678,0.15866 -0.9054,0.24779l-0.05783,0.01723l-0.03864,0.01157c-0.78808,0.22846 -1.64168,0.50023 -2.55349,0.81245l-0.06687,0.02258c-1.66797,0.57447 -3.57719,1.30056 -5.66112,2.15432l-0.60411,0.24744c-4.16741,1.72762 -7.87123,3.47651 -9.01483,4.02332l-0.00333,0.0023c-1.09291,0.79424 -2.44806,1.3945 -4.14145,1.83405c-1.63502,0.4244 -3.34196,0.63618 -4.8482,0.82354c-0.56457,0.07023 -1.1082,0.13791 -1.61617,0.21367c-3.76623,0.55992 -8.23021,1.09886 -12.78849,0.84944c-6.63119,-0.36333 -13.0531,-2.1656 -19.08771,-5.35513l-0.21211,-0.11191l-0.18015,-0.15231c-3.17877,-2.67709 -8.60199,-8.98117 -9.1995,-21.12018c-0.27858,-5.62822 1.65514,-10.58072 3.52352,-15.36951c1.91493,-4.90795 3.72463,-9.54387 3.10225,-14.65171c-0.16892,-1.37754 -0.57437,-2.74534 -1.20589,-4.06344c-1.09705,-2.28928 -2.39873,-4.9417 -3.96771,-7.44153c-0.38467,-0.61345 -0.78408,-1.2284 -1.18498,-1.84587c-1.34345,-2.07113 -2.73259,-4.2136 -3.75347,-6.52343c-0.64919,-1.46617 -0.85541,-6.71725 -0.68246,-7.58176c0.58744,-2.9107 1.83212,-5.69184 3.69898,-8.26914c4.15531,-5.73499 11.40698,-10.28645 19.89723,-12.49026c4.74534,-1.23174 9.54504,-1.64155 13.878,-1.18546z" fill="#000000"></path></g><path d="M231.30249,204.64747c-0.53343,-10.78959 7.93326,-19.33901 6.6124,-30.16826c-0.20073,-1.64178 -0.67631,-3.20611 -1.39127,-4.69796c-1.25372,-2.61543 -2.53073,-5.17605 -4.08073,-7.64571c-1.64756,-2.62695 -3.45561,-5.31779 -4.7995,-8.10822c-0.96027,-1.99319 -0.64492,-5.86619 -0.54854,-6.34777c0.54822,-2.71712 1.71359,-5.19407 3.32256,-7.41557c1.61845,1.31044 2.53874,2.81999 2.53874,2.81999c8.70886,-7.00074 27.53634,-8.89382 31.282,3.11888c2.98897,9.58709 -2.17516,19.60927 -4.38439,23.26956c-3.4531,6.85135 4.94947,9.76384 9.30168,10.78081c-0.00889,-0.01869 -0.01364,-0.02789 -0.01364,-0.02789c0,0 0.94119,0.12096 2.42464,0.49264l0.00164,0.00035c4.54073,1.13945 14.17699,4.64109 17.64301,14.31988c2.80106,7.82233 1.61988,19.8286 1.42402,22.27097c-0.11327,1.39014 -0.8263,2.92705 -0.8101,4.25513c-5.39066,2.20764 -10.12512,4.51059 -10.12512,4.51059c-0.00135,0.01312 -0.00562,0.03367 -0.00739,0.04836c-2.4919,1.81071 -6.58422,1.99201 -9.52071,2.42863c-4.08396,0.60795 -8.1777,1.05156 -12.29329,0.82645c-6.57528,-0.36052 -12.59529,-2.1699 -18.11763,-5.08903c-2.93881,-2.47665 -7.89909,-8.2908 -8.45838,-19.64178z" fill="#ffffff"></path></g><g data-paper-data="{&quot;index&quot;:null}" stroke="none" stroke-width="0.77378" stroke-linecap="butt" stroke-linejoin="miter"><path d="M233.93405,175.56718l-0.03781,0.00837c-2.75446,0.62366 -9.90839,0.92593 -14.43669,-2.1247l-1.13355,-0.76334c-0.03882,0.00408 -0.07793,0.00745 -0.11701,0.01092c-0.32901,0.01052 -0.64364,0.0151 -0.98374,0.01353l-0.18693,0.00064c-4.06589,-0.05839 -6.34595,-1.25098 -7.62202,-3.98626c-1.68101,-3.59963 1.87828,-5.65295 5.64582,-7.82777c0.50593,-0.29295 1.0297,-0.59434 1.56006,-0.91017c1.30347,-0.7747 2.66037,-1.68825 3.97254,-2.57074c2.61527,-1.76052 5.0857,-3.42267 7.22018,-4.10325c0.17275,-0.05528 0.34967,-0.10644 0.52719,-0.15252c3.71857,-0.96523 8.61333,0.05991 12.46894,2.61293c3.23761,2.14313 5.21348,5.04036 5.41981,7.94787c0.53596,7.48503 -9.24767,10.94895 -12.25918,11.8325z" fill="#f7941e"></path><path d="M228.61435,154.21396c-0.15575,0.04043 -0.3105,0.08504 -0.4625,0.13349c-3.00952,0.95926 -7.0945,4.27338 -10.93721,6.55902c-4.32922,2.57656 -8.18882,4.24904 -6.73891,7.35244c0.91136,1.95277 2.40138,3.30101 6.61726,3.36168c0.06654,-0.00237 0.13866,-0.00156 0.21181,-0.00033c0.28813,0.00153 0.58762,-0.00289 0.90131,-0.01388c0.60759,-0.05218 1.35079,-0.19797 2.18214,-0.41377c4.81425,-1.24964 12.60278,-4.86331 14.32848,-6.52758c0.11177,-0.10834 0.24472,-0.17805 0.38855,-0.21539c0.82758,-0.21482 2.00015,0.64993 1.35208,1.49779c-1.49521,1.95768 -8.74133,4.73827 -13.77879,6.04584c-0.93473,0.24263 -1.79473,0.43443 -2.52675,0.56156c4.24246,2.85766 11.04206,2.51775 13.51027,1.9587c4.524,-1.32704 11.84368,-4.70826 11.41539,-10.68234c-0.4472,-6.29331 -10.05201,-11.28137 -16.46315,-9.61723M241.49441,154.87513c3.56502,2.36053 5.65709,5.46489 5.88885,8.7415c0.59509,8.30429 -9.87779,12.03553 -13.10187,12.98093l-0.07505,0.02171l-0.07546,0.01736c-2.32251,0.52575 -10.13044,1.23429 -15.36386,-2.29042l-0.81667,-0.54998c-0.25183,0.00617 -0.49517,0.00801 -0.73193,0.00735l-0.01051,-0.00027l-0.03683,-0.00021l-0.07113,-0.00021l-0.06656,0.00228l-0.05234,-0.00141c-4.50876,-0.06464 -7.16986,-1.48693 -8.62843,-4.61129c-2.09127,-4.47805 2.46552,-7.1077 6.12616,-9.22032c0.50269,-0.2899 1.02063,-0.58907 1.54633,-0.90138c1.27488,-0.75829 2.61695,-1.66131 3.91626,-2.53524c2.68951,-1.80967 5.23152,-3.51963 7.53275,-4.25392c0.19647,-0.06223 0.39499,-0.11974 0.59419,-0.17145c4.03692,-1.04787 9.30615,0.03724 13.42614,2.76495z" fill="#000000"></path></g><path d="M248.11831,146.16781c0.67394,0.48371 1.21354,1.2538 1.4578,2.19486c0.24427,0.94106 0.14737,1.87646 -0.20623,2.62691c-0.35342,0.75117 -0.96428,1.31765 -1.74771,1.52101c-0.78334,0.20332 -1.59261,0.00547 -2.26674,-0.47896c-0.67394,-0.48371 -1.21365,-1.25388 -1.45793,-2.19493c-0.24427,-0.94106 -0.14726,-1.8764 0.20634,-2.62683c0.35342,-0.75117 0.96428,-1.31765 1.74763,-1.52097c0.78344,-0.20336 1.59271,-0.0055 2.26684,0.47895z" data-paper-data="{&quot;index&quot;:null}" fill="#000000" stroke="none" stroke-width="0.77378" stroke-linecap="butt" stroke-linejoin="miter"></path><path d="M231.22405,148.88084c0.51699,0.37181 0.93093,0.96268 1.11825,1.68434c0.18729,0.72157 0.113,1.43917 -0.15788,2.01549c-0.27117,0.57562 -0.73955,1.01002 -1.34025,1.16595c-0.6006,0.15589 -1.22123,0.00416 -1.73803,-0.36692c-0.51699,-0.37181 -0.93093,-0.96268 -1.11822,-1.68425c-0.18732,-0.72165 -0.11303,-1.43926 0.15786,-2.01557c0.27107,-0.5756 0.73955,-1.01002 1.34016,-1.16592c0.60069,-0.15592 1.22123,-0.00416 1.73813,0.36689z" data-paper-data="{&quot;index&quot;:null}" fill="#000000" stroke="none" stroke-width="0.77378" stroke-linecap="butt" stroke-linejoin="miter"></path><path d="M271.54289,178.53572c0,0 12.95627,7.13405 15.46924,18.43887c2.51287,11.30488 1.36225,19.94713 -10.04334,15.27796c-14.65786,-5.99999 -17.8044,-26.15537 -17.79676,-39.06872" data-paper-data="{&quot;index&quot;:null}" fill="#8a8fc6" stroke="#000000" stroke-width="2.32134" stroke-linecap="round" stroke-linejoin="round"></path></g></g></svg>