<svg version="1.1" xmlns="http://www.w3.org/2000/svg" xmlns:xlink="http://www.w3.org/1999/xlink" width="107.79305" height="128.7012" viewBox="0,0,107.79305,128.7012"><g transform="translate(-186.10347,-115.6494)"><g data-paper-data="{&quot;isPaintingLayer&quot;:true}" fill-rule="evenodd" stroke-miterlimit="10" stroke-dasharray="" stroke-dashoffset="0" style="mix-blend-mode: normal"><g><path d="M218.73481,205.43082c0.70507,0.9401 3.87792,2.35025 -0.23502,4.93553c-4.23045,2.46776 -14.92409,5.87563 -25.38271,-3.40787c-11.28121,-10.10608 -5.28806,-23.85505 -0.11752,-24.32509c5.05304,-0.47005 3.05533,7.75582 6.69822,16.9218c5.17056,13.27892 18.33196,4.93553 19.03703,5.87563z" fill="#ffab19" stroke="#001026" stroke-width="1.2" stroke-linecap="round" stroke-linejoin="round"></path><path d="M196.28991,188.74404c0.58757,5.17056 1.76269,8.69593 1.76269,8.69593c0,0 -1.8802,-2.35025 -4.70051,-1.8802c-3.40787,0.58757 -4.46547,3.40787 -4.58299,4.23045c-0.82259,-1.99771 -1.52766,-4.46547 -1.29264,-8.69593c0.58757,-4.11294 3.17283,-8.34339 6.11065,-7.87334c2.35025,0.47005 2.23274,2.35025 2.70278,5.52309z" fill="#ffffff" stroke="none" stroke-width="1" stroke-linecap="butt" stroke-linejoin="miter"></path></g><path d="M224.25789,217.65213c-0.82259,1.05761 -3.17283,5.17056 -8.81344,8.69593c-3.87792,2.46776 -13.86649,-1.64518 -13.86649,-1.64518c1.05761,10.81115 -7.75582,10.57613 -9.401,7.05075c-1.29264,-2.8203 -1.05761,-14.92409 1.52766,-15.8642c3.99542,-1.41015 9.401,0.9401 14.21902,0.9401c1.41015,0 2.93781,-3.05533 6.22817,-6.34568c2.35025,-2.35025 5.40558,-6.69822 10.3411,-3.64289c4.23045,2.70278 1.99771,7.63832 -0.23502,10.81115z" fill="#ffab19" stroke="#001026" stroke-width="1.2" stroke-linecap="round" stroke-linejoin="round"></path><path d="M241.38713,195.6271c-3.75024,-11.96393 -9.53775,-29.55345 -7.30536,-41.89061c0.938,-5.41626 7.20826,-27.95732 11.2177,-34.40084c4.31509,-6.7147 7.7275,6.47162 4.2174,17.14105c-2.45885,7.6145 -6.59821,20.28534 -6.59079,21.12764c0.17883,2.81248 3.16057,9.0804 2.97249,15.69889" data-paper-data="{&quot;index&quot;:null}" fill="#ffab19" stroke="#001026" stroke-width="1.2" stroke-linecap="round" stroke-linejoin="round"></path><g><path d="M241.53224,219.76736c0.70507,3.87792 -4.93553,12.69135 -4.93553,12.69135c0,0 7.05075,4.81801 2.58528,9.75355c-3.29035,3.64289 -5.87563,0.70507 -14.45404,-7.63832c-1.29264,-1.29264 -1.29264,-3.17283 -0.23502,-4.46547c2.46776,-2.8203 5.99314,-7.63832 3.64289,-9.87105c-3.29035,-2.35025 -7.05075,-4.70051 -9.401,-6.11065c-9.63603,-5.6406 -2.58528,-12.57385 2.70278,-22.32738c2.8203,-5.28806 4.23045,-3.87792 11.28121,-2.46776c3.99542,0.58757 6.34568,0.9401 8.93096,0.82259c3.87792,-0.11752 3.17283,5.52309 2.11523,8.46091c0,0 -1.64518,4.34797 -3.17283,6.5807c-1.8802,2.8203 -3.99542,5.6406 -5.40558,6.69822c0,0 5.52309,4.11294 6.34568,7.87334z" fill="#ffab19" stroke="#001026" stroke-width="1.2" stroke-linecap="round" stroke-linejoin="round"></path><path d="M234.27983,211.77991c0,0 -1.76269,-1.41015 -3.64289,-3.17283c-2.35025,-2.11523 -4.70051,-3.87792 -2.35025,-7.5208c2.11523,-2.8203 4.11294,-6.5807 9.401,-3.17283c5.05304,3.17283 2.8203,6.11065 2.8203,6.11065c-2.58528,5.28806 -6.22817,7.75582 -6.22817,7.75582z" fill="#ffffff" stroke="none" stroke-width="1" stroke-linecap="butt" stroke-linejoin="miter"></path></g><g><path d="M254.28236,121.64436c0.35254,-0.23502 0.9401,-0.11752 1.05761,0.35254l3.05533,12.57385c0,0 7.5208,5.52309 9.75355,9.401c3.7604,6.46319 3.87792,11.75126 3.87792,11.75126c0,0 8.34339,2.46776 9.75355,9.16598c1.41015,6.69822 -3.7604,19.38957 -25.85276,23.73754c-22.09236,4.34797 -39.83675,-1.64518 -48.18015,-15.04161c-8.34339,-13.39643 4.81801,-29.37813 4.11294,-28.43804l-2.46776,-21.03474c-0.11752,-0.47005 0.47005,-0.82259 0.9401,-0.58757l14.21902,9.2835c0,0 5.28806,-1.99771 10.81115,-2.23274c3.29035,-0.23502 6.11065,0 8.81344,0.47005z" fill="#ffab19" stroke="#001026" stroke-width="1.2" stroke-linecap="butt" stroke-linejoin="miter"></path><path d="M271.6742,156.19307c0,0 8.10836,2.11523 9.51852,8.81344c1.41015,6.69822 -4.23045,18.80201 -26.08778,23.03246c-28.43804,5.87563 -41.95198,-11.04618 -34.07864,-23.50251c7.87334,-12.57385 21.38729,-1.8802 31.25834,-2.58528c8.46091,-0.58757 9.401,-7.99086 19.38957,-5.75811z" fill="#ffffff" stroke="none" stroke-width="1" stroke-linecap="butt" stroke-linejoin="miter"></path><path d="M234.65776,168.7669c0,-0.47005 0.47005,-0.82259 0.9401,-0.70507c2.23274,0.82259 8.57841,2.70278 15.62917,3.17283c6.34568,0.35254 10.10608,0 11.86876,-0.35254c0.58757,-0.11752 1.05761,0.47005 0.82259,1.05761c-1.05761,3.17283 -5.52309,11.98628 -17.86191,11.28121c-10.69364,-1.17512 -11.75126,-8.69593 -11.39872,-14.45404z" fill="#ffffff" stroke="#001026" stroke-width="1.2" stroke-linecap="round" stroke-linejoin="round"></path><path d="M293.29652,157.48568c-5.52309,4.46547 -13.98399,4.58299 -13.98399,4.58299" fill="none" stroke="#001026" stroke-width="1.2" stroke-linecap="round" stroke-linejoin="round"></path><path d="M291.76885,170.64711c-7.40329,0.58757 -11.98628,-1.64518 -11.98628,-1.64518" fill="none" stroke="#001026" stroke-width="1.2" stroke-linecap="round" stroke-linejoin="round"></path><path d="M251.81458,158.89585c2.46776,0 5.05304,0.23502 5.17056,1.05761c0.11752,1.64518 -1.64518,4.93553 -3.52538,5.05304c-2.11523,0.23502 -7.05075,-2.70278 -7.05075,-4.58299c-0.11752,-1.41015 3.05533,-1.52766 5.40558,-1.52766z" fill="#001026" stroke="#001026" stroke-width="1.2" stroke-linecap="round" stroke-linejoin="round"></path><path d="M198.93394,157.13316c0,0 10.10608,3.29035 14.21902,6.93324" fill="none" stroke="#001026" stroke-width="1.2" stroke-linecap="round" stroke-linejoin="round"></path><path d="M213.5055,168.17934c-5.05304,1.99771 -13.74897,0.70507 -13.74897,0.70507" fill="none" stroke="#001026" stroke-width="1.2" stroke-linecap="round" stroke-linejoin="round"></path><g><path d="M265.68107,145.14687c3.40787,5.28806 3.52538,11.28121 0.23502,13.39643c-3.29035,2.11523 -8.69593,-0.35254 -12.22131,-5.6406c-3.40787,-5.28806 -3.52538,-11.28121 -0.23502,-13.39643c3.29035,-2.23274 8.81344,0.35254 12.22131,5.6406z" fill="#ffffff" stroke="#001026" stroke-width="1.2" stroke-linecap="round" stroke-linejoin="round"></path><path d="M265.21101,151.8451c0,1.29264 -0.9401,2.35025 -2.11523,2.35025c-1.17512,0 -2.11523,-1.05761 -2.11523,-2.35025c0,-1.29264 0.9401,-2.35025 2.11523,-2.35025c1.17512,0 2.11523,1.05761 2.11523,2.35025" fill="#001026" stroke="none" stroke-width="1" stroke-linecap="butt" stroke-linejoin="miter"></path></g><g><path d="M236.53795,148.43723c3.52538,5.17056 3.29035,11.51623 0.11752,13.74897c-3.87792,2.23274 -9.04846,0.58757 -12.57385,-4.58299c-3.64289,-5.17056 -3.87792,-11.86876 -0.23502,-14.45404c3.64289,-2.70278 9.16598,0.11752 12.69135,5.28806z" fill="#ffffff" stroke="#001026" stroke-width="1.2" stroke-linecap="round" stroke-linejoin="round"></path><path d="M235.83288,155.25296c0,1.29264 -0.9401,2.35025 -2.11523,2.35025c-1.17512,0 -2.11523,-1.05761 -2.11523,-2.35025c0,-1.29264 0.9401,-2.35025 2.11523,-2.35025c1.17512,0.11752 2.11523,1.05761 2.11523,2.35025" fill="#001026" stroke="none" stroke-width="1" stroke-linecap="butt" stroke-linejoin="miter"></path></g></g><path d="M229.26033,194.54852c-8.31863,-10.02682 -12.51401,-43.4801 -7.08887,-60.84151c4.16184,-13.48207 10.46533,-24.7648 13.34076,-11.5965c2.94334,13.42783 -5.12989,20.66712 -6.52153,27.86579c-1.41968,7.6358 4.09199,29.79242 5.29799,36.03508c1.27388,6.50217 -2.02766,11.84301 -5.02832,8.53715z" data-paper-data="{&quot;index&quot;:null}" fill="#ffab19" stroke="#001026" stroke-width="1.2" stroke-linecap="round" stroke-linejoin="round"></path></g></g></svg>