<svg version="1.1" xmlns="http://www.w3.org/2000/svg" xmlns:xlink="http://www.w3.org/1999/xlink" width="122.34183" height="151.13745" viewBox="0,0,122.34183,151.13745"><g transform="translate(-178.82909,-104.43127)"><g data-paper-data="{&quot;isPaintingLayer&quot;:true}" fill-rule="nonzero" stroke="#000000" stroke-width="1" stroke-linecap="butt" stroke-linejoin="miter" stroke-miterlimit="10" stroke-dasharray="" stroke-dashoffset="0" style="mix-blend-mode: normal"><g data-paper-data="{&quot;index&quot;:null}"><path d="M257.35814,209.51871c0.00746,2.09043 -1.17974,3.11432 -2.03623,3.61589c-1.81548,1.07976 -3.64921,1.26227 -5.53967,0.29915c-1.97458,-1.00478 -4.41404,-5.72297 -2.15199,-10.02204c-3.97335,-2.55277 -6.54945,-6.00949 -6.36783,-7.7441c0.02088,-1.63131 1.8988,-3.28683 5.63545,-3.70507c-1.3005,-1.12388 -4.19076,-5.20554 -3.5359,-7.15423c0.65485,-1.94879 4.20663,-1.83548 6.21031,-2.0079c0,0 -6.71266,-5.76463 -4.76309,-9.61625c1.39049,-2.74361 6.03948,-1.81793 9.47961,-0.46245c0,0 -13.14469,-9.83699 -9.6779,-14.16438c2.7102,-3.38181 9.51793,0.46403 10.88931,1.13721c-2.13208,-2.88938 -5.71376,-9.88698 -6.71688,-16.73136c-3.35348,-22.85995 17.67117,-14.77513 24.29139,-4.04324c3.81163,6.18199 4.50648,9.62037 4.50648,9.62037c1.5772,3.75586 2.25117,7.28763 2.48701,10.66102c0.52734,7.58169 -0.95567,11.67667 -2.84026,13.49374c-8.12569,7.84084 -19.90314,26.40348 -19.86981,36.82368z" fill="#279afa"></path><path d="M257.35814,209.51871c0.00746,2.09043 -1.17974,3.11432 -2.03623,3.61676c-1.81548,1.07976 -3.64921,1.26218 -5.53967,0.29906c-1.97458,-1.00478 -4.41404,-5.72289 -2.15199,-10.02195c0,0 -6.47193,-8.48149 5.42128,-8.98804c0,0 -11.27002,-9.68123 2.75774,-9.30219c0,0 -15.00253,-12.98297 5.33305,-9.19712c0,0 -20.01233,-17.89111 2.40447,-11.36087c0,0 -15.43499,-28.05058 -4.18497,-30.77753c6.31951,-1.53133 15.91575,9.16801 18.21938,14.75347c1.5772,3.75586 2.25117,7.28763 2.48701,10.66102c0.52734,7.58169 -0.95567,11.67667 -2.84026,13.49374c-8.12569,7.84084 -19.90314,26.40348 -19.86981,36.82368z" fill="#0043a5"></path></g><path d="M254.78898,239.03929c1.69542,-2.93603 3.90827,-4.21829 7.27921,-4.63233c1.44723,-0.16584 2.48113,-0.12418 3.63921,0.74484c1.05477,0.78562 -0.40903,2.91349 -5.14388,3.74164c5.08977,0.47323 7.79086,1.05565 8.2041,3.04101c0.31073,1.55054 -1.90214,2.37781 -3.47345,2.15041c-3.57668,-0.51656 -7.48584,-1.90214 -9.18134,1.32384c-0.43402,0.82736 -0.62066,1.63298 -1.4888,1.90214c-0.95147,0.28994 -2.10954,-0.30993 -2.23373,-1.32305c-0.20662,-1.79961 0.79071,-2.9077 0.33081,-4.63233c-0.16496,-0.62074 -6.9477,-3.22597 -9.71877,-4.34239c1.3647,-0.33081 3.16352,-1.50967 4.50823,-1.90292c0.9098,-0.26915 5.00391,1.9437 7.27842,3.92915z" data-paper-data="{&quot;index&quot;:null}" fill="#ffa600"></path><g data-paper-data="{&quot;index&quot;:null}"><path d="M265.80543,208.11656c-0.25995,1.54545 -0.16076,2.94016 0.25995,4.28907c-4.0849,12.31233 -11.11338,23.13911 -22.92248,27.69645c-6.74687,2.60444 -20.59553,-1.77541 -29.94604,-11.48085c-6.03702,4.85316 -10.1228,8.79397 -17.28125,11.36254c-7.70911,2.76527 -5.22387,-4.92805 -3.44837,-8.24234c-3.31428,0.94725 -8.75897,0.47402 -9.82453,-1.7755c-1.09643,-2.31362 1.31717,-4.18655 4.15822,-5.36962c-3.19597,-0.82816 -7.76831,-1.28226 -7.45672,-4.49736c0.33914,-3.50757 3.29849,-3.15265 8.40405,-4.025c-2.84105,-2.13033 -6.39195,-5.62211 -4.85316,-8.75888c1.6563,-3.31428 9.09724,-5.7563 30.06269,9.70702c6.39107,1.18396 30.00682,-14.79679 39.29814,-20.59632c12.13237,-7.57503 25.55113,-12.17902 36.45621,-3.07767c0.81483,0.67986 1.47968,1.3597 2.03623,2.03701c-3.42172,-1.47135 -7.55836,-1.1081 -11.29588,-0.1533c-0.84394,0.21583 -1.66876,0.45823 -2.45859,0.71984c-5.08977,1.68631 -8.75897,4.67487 -10.53438,9.70544c-0.30582,0.8656 -0.52322,1.68131 -0.65407,2.45947z" fill="#ff0600"></path><path d="M276.99389,195.95087c-5.08977,1.68631 -8.75897,4.67477 -10.5336,9.70622c-0.30573,0.8656 -0.52322,1.68131 -0.65398,2.45947c-1.563,0.30993 -5.22974,-0.45657 -8.13411,-4.3374c-2.41027,-3.22018 0.24249,-7.39673 4.10744,-9.13636c6.127,-2.75194 12.77811,-3.44259 17.67283,0.58821c-0.84394,0.21574 -1.66876,0.45823 -2.45859,0.71984z" fill="#0043a5"></path><path d="M292.26303,196.18748c0,0 15.52751,13.31878 4.37992,37.75681c-2.1462,-9.89873 -9.3663,-25.40449 -19.29336,-22.01523c-0.41403,3.40339 1.22728,6.67189 4.48236,7.73744c-3.90661,3.10687 -9.66037,1.11063 -12.88633,-2.52945c-1.43302,-1.61544 -2.38448,-3.14098 -2.88104,-4.73397c-0.41991,-1.34804 -0.5191,-2.74274 -0.25915,-4.28819c0.13164,-0.77816 0.34914,-1.59386 0.65407,-2.45947c1.77541,-5.03057 5.44461,-8.01913 10.53438,-9.70544c0.78982,-0.26161 1.61544,-0.50401 2.45859,-0.71984c3.73753,-0.9548 7.87416,-1.31805 11.29588,0.1533c0.52243,0.22496 1.02899,0.48911 1.51467,0.80404z" fill="#ffa600"></path></g><path d="M225.15561,240.54173c1.25289,4.68749 0.31027,8.22353 -2.68327,12.05136c-1.29773,1.63168 -3.35762,3.08618 -5.23698,2.21407c-3.39263,-1.57485 3.39337,-7.48455 3.00163,-9.96466c-3.15779,5.75228 -9.73376,8.49876 -12.1597,6.90782c-1.88217,-1.25639 -0.47971,-4.3313 1.34118,-5.69078c4.14411,-3.0953 9.50147,-5.64626 7.95545,-10.62616c-0.39729,-1.27683 -1.02428,-2.28174 -0.41683,-3.43165c0.66951,-1.25506 2.44894,-1.81951 3.59913,-0.91929c2.02852,1.61198 1.90283,4.29369 4.3502,5.02364c3.78931,1.12984 9.71451,-3.19523 14.23061,-5.43493c-1.04719,1.71497 -1.99159,4.80579 -1.74861,6.88712c-1.45205,0.99107 -7.92257,2.69139 -12.23279,2.98345z" data-paper-data="{&quot;index&quot;:null}" fill="#ffa600"></path><g data-paper-data="{&quot;index&quot;:null}"><path d="M265.2906,197.17751c2.70336,-5.24392 11.16402,-1.40507 9.20917,5.58889c-0.76349,2.7303 -3.95217,3.55556 -5.77688,2.87992c-2.9832,-1.10369 -5.03742,-5.35736 -3.43229,-8.46883z" fill="#ffffff"></path><path d="M268.99506,198.70934c-0.40838,-0.20828 -0.75441,-0.57962 -0.94073,-1.06497c-0.18633,-0.48535 -0.17772,-0.99292 -0.01359,-1.42089c0.16408,-0.42806 0.48368,-0.77648 0.91999,-0.94398c0.43639,-0.16753 0.90704,-0.12248 1.31542,0.0858c0.40835,0.20821 0.75441,0.57962 0.94073,1.06497c0.18633,0.48535 0.17768,0.99285 0.01359,1.42089c-0.16412,0.42797 -0.48368,0.77648 -0.92008,0.94402c-0.43631,0.1675 -0.907,0.12236 -1.31535,-0.08584z" fill="#272525"></path></g><g data-paper-data="{&quot;index&quot;:null}"><path d="M251.42379,208.43403c1.04237,2.64539 0.04683,4.52927 -0.78981,5.59033c-1.76664,2.26441 -3.99911,3.40445 -6.86962,3.11863c-2.99795,-0.29595 -8.4226,-5.06347 -7.68451,-11.62853c-6.29312,-1.26797 -11.26716,-4.37225 -11.89511,-6.65991c-0.78098,-2.07568 0.77871,-5.10034 5.30474,-7.47915c-2.20348,-0.78202 -7.88339,-4.52144 -8.01829,-7.31329c-0.13442,-2.79258 4.41992,-4.40563 6.87274,-5.61512c0,0 -11.35436,-3.98202 -10.7893,-9.82418c0.40323,-4.16336 6.74903,-5.29148 11.77749,-5.27584c0,0 -21.51605,-5.95503 -19.26473,-13.15223c1.75908,-5.62384 12.28496,-4.12077 14.35504,-3.94688c-4.12989,-2.60532 -12.12886,-9.69681 -16.78554,-17.86891c-15.55577,-27.29582 15.0732,-27.45616 28.76645,-17.13861c7.88716,5.9433 10.46784,9.95565 10.46784,9.95565c3.85662,3.97628 6.45712,8.11519 8.42422,12.2726c4.42025,9.34105 4.56566,15.26094 3.07918,18.49506c-6.41348,13.95042 -12.14792,43.28805 -6.95076,56.47037z" fill="#279afa"></path><path d="M251.42381,208.43403c1.04238,2.64539 0.04684,4.52928 -0.78874,5.58906c-1.76664,2.26441 -3.99911,3.40445 -6.86962,3.11863c-2.99795,-0.29595 -8.4226,-5.06347 -7.68451,-11.62853c0,0 -12.39108,-7.54103 2.42067,-14.06579c0,0 -19.06413,-6.68656 -1.10785,-13.14694c0,0 -25.42582,-9.02073 2.20516,-14.28593c0,0 -34.1986,-12.76154 -2.57459,-15.57977c0,0 -33.42717,-27.89244 -20.52812,-36.91235c7.2464,-5.06632 24.69486,3.73851 30.37497,9.6736c3.85662,3.97628 6.45712,8.11519 8.42422,12.2726c4.42025,9.34105 4.56566,15.26094 3.07918,18.49506c-6.41348,13.95042 -12.14792,43.28805 -6.95076,56.47037z" fill="#0043a5"></path></g></g></g></svg>