<svg version="1.1" xmlns="http://www.w3.org/2000/svg" xmlns:xlink="http://www.w3.org/1999/xlink" width="12.16507" height="51.81458" viewBox="0,0,12.16507,51.81458"><g transform="translate(-233.9883,-154.11579)"><g data-paper-data="{&quot;isPaintingLayer&quot;:true}" fill="none" fill-rule="nonzero" stroke-width="0.5" stroke-linecap="round" stroke-linejoin="miter" stroke-miterlimit="10" stroke-dasharray="" stroke-dashoffset="0" style="mix-blend-mode: normal"><g data-paper-data="{&quot;index&quot;:null}" stroke="#bfbfbf"><path d="M240.36516,154.36579l-0.30665,50.92486"></path><path d="M245.7637,173.55435l-0.0003,0.09923"></path><path d="M245.76069,174.55825l-0.00928,3.081"></path><path d="M245.74921,178.36692l-0.00542,1.80239"></path><path d="M245.7357,182.85498l-0.00424,1.40913"></path><path d="M245.7233,186.97485l-0.00001,0.00245"></path><path d="M234.8325,181.1113l0.03004,-9.93551"></path><path d="M234.82411,183.89227l0.00553,-1.82886"></path><path d="M237.6354,156.19477l-0.1396,46.3663"></path><path d="M242.79828,203.06844l0.27953,-46.24284"></path><path d="M242.92141,156.38876h-5.47749"></path><path d="M243.87483,159.51265h-7.39114"></path><path d="M235.76976,162.63653h8.94653"></path><path d="M244.8612,165.76042h-9.34633"></path><path d="M245.48437,168.88431h-10.46909"></path><path d="M234.85438,172.0082h10.57243"></path><path d="M245.90338,175.13208h-11.35881"></path><path d="M245.73854,178.25597h-11.1903"></path><path d="M245.42594,181.37986h-10.57184"></path><path d="M245.63046,184.50375h-10.65943"></path><path d="M245.46053,187.62763h-10.59915"></path><path d="M235.21068,190.75152h10.31366"></path><path d="M245.29731,194.22251h-9.80364"></path><path d="M236.06455,197.69349h8.53444"></path><path d="M243.62098,201.16448h-6.69922"></path><path d="M241.82394,204.63547h-3.60537"></path></g><g data-paper-data="{&quot;index&quot;:null}" stroke="#7f7f7f"><path d="M239.75225,205.68037l0.30665,-50.92485"></path><path d="M245.45715,174.04331l0.0003,-0.09923"></path><path d="M245.44515,178.02898l0.00928,-3.081"></path><path d="M245.44296,178.75665l-0.00543,1.80238"></path><path d="M245.42944,183.24471l-0.00424,1.40913"></path><path d="M245.41705,187.36457l-0.00001,0.00245"></path><path d="M234.52626,181.50102l0.03003,-9.93551"></path><path d="M234.52339,182.45314l-0.00553,1.82886"></path><path d="M237.18955,202.9508l0.1396,-46.3663"></path><path d="M242.77156,157.21533l-0.27953,46.24284"></path><path d="M242.61516,156.77848h-5.47749"></path><path d="M243.56858,159.90237h-7.39115"></path><path d="M244.41003,163.02626h-8.94654"></path><path d="M244.55496,166.15015h-9.34633"></path><path d="M245.17812,169.27403h-10.46909"></path><path d="M234.54813,172.39792h10.57243"></path><path d="M245.59712,175.52181h-11.35881"></path><path d="M234.24199,178.6457h11.1903"></path><path d="M245.11969,181.76958h-10.57184"></path><path d="M245.32421,184.89347h-10.65943"></path><path d="M245.15428,188.01736h-10.59915"></path><path d="M234.90443,191.14125h10.31367"></path><path d="M235.18742,194.61223h9.80364"></path><path d="M244.29274,198.08322h-8.53444"></path><path d="M236.61551,201.55421h6.69922"></path><path d="M241.51769,205.02519h-3.60537"></path></g></g></g></svg>