<svg version="1.1" xmlns="http://www.w3.org/2000/svg" xmlns:xlink="http://www.w3.org/1999/xlink" width="119.38509" height="125.5001" viewBox="0,0,119.38509,125.5001"><g transform="translate(-180.30745,-117.24995)"><g data-paper-data="{&quot;isPaintingLayer&quot;:true}" fill-rule="evenodd" stroke-miterlimit="10" stroke-dasharray="" stroke-dashoffset="0" style="mix-blend-mode: normal"><g data-paper-data="{&quot;index&quot;:null}"><path d="M259.12828,206.13132c1.13181,-0.62879 9.30602,4.14998 13.58175,3.39543c3.01816,-0.62878 6.66512,-1.63484 9.68328,-4.40149c6.91663,-6.16209 9.0545,-16.3484 13.83326,-13.7075c4.90451,2.64089 4.77875,19.11504 -10.56359,24.14533c-5.28179,1.76058 -10.06055,1.76058 -13.95902,1.63483c-1.00606,0 -9.68329,-0.88031 -12.70145,-5.15604c-3.01817,-4.27574 -0.8803,-5.40754 0.12575,-5.91057z" fill="#ffab19" stroke="#001026" stroke-width="1.2" stroke-linecap="round" stroke-linejoin="round"></path><path d="M290.31598,195.945c2.01212,-2.8924 2.6409,-4.77876 5.15604,-4.27573c2.51514,0.75455 3.77271,6.03634 2.51514,10.43783c-1.25757,4.40148 -3.26969,6.66512 -4.90452,8.29995c0.2515,-0.8803 0.75454,-3.64696 -1.38333,-5.28179c-2.6409,-2.13787 -7.2939,-1.00605 -7.2939,-1.00605c0,0 3.89846,-4.77877 5.91057,-8.1742z" fill="#ffffff" stroke="none" stroke-width="1" stroke-linecap="butt" stroke-linejoin="miter"></path></g><path d="M252.84043,219.21c-2.13787,-1.50908 -4.40149,-5.2818 -0.37727,-8.67723c4.65301,-4.02423 10.43782,0.62879 12.95296,2.51514c2.51514,1.88635 3.77271,3.01817 9.18026,5.78482c2.13788,1.13182 4.90453,2.13787 6.41361,2.6409c0.62878,0.12576 1.25757,0.12576 1.88635,-0.12575c1.13181,-0.50303 3.26967,-1.38333 5.65906,0.37727c5.2818,4.65302 -7.16814,22.38474 -13.83326,20.24687c-6.91663,-2.13786 -3.01817,-8.17421 -0.8803,-11.19237c0.25152,-0.50302 0,-1.13182 -0.50303,-1.25757l-0.50303,-0.12575c-9.93481,-3.14392 -17.73174,-8.67722 -19.99536,-10.1863z" data-paper-data="{&quot;index&quot;:null}" fill="#ffab19" stroke="#001026" stroke-width="1.2" stroke-linecap="round" stroke-linejoin="round"></path><path d="M232.84506,193.0526c2.13788,-1.88635 6.41362,-1.00606 6.53937,2.51514c0,3.26968 -2.6409,6.66512 -4.14998,8.67723c-1.5091,2.0121 -8.55148,9.43177 -17.22871,5.5333c-3.64695,-1.88636 -12.19842,-8.92875 -7.67117,-13.07873c4.52724,-4.14999 8.67723,1.00605 11.69539,3.64695c2.51515,2.26362 10.18632,-6.79087 10.8151,-7.2939z" data-paper-data="{&quot;index&quot;:null}" fill="#ffab19" stroke="#001026" stroke-width="1.2" stroke-linecap="round" stroke-linejoin="round"></path><g data-paper-data="{&quot;index&quot;:null}"><path d="M242.15107,213.17368c-1.50909,-1.13181 -3.01818,-3.01816 -5.03029,-5.91057c-1.63483,-2.38938 -3.39543,-7.04238 -3.39543,-7.04238c-1.13181,-3.14394 -1.88636,-9.18026 2.26362,-9.05451c2.76665,0.12575 5.28179,-0.25152 9.55752,-0.8803c7.54542,-1.50908 8.92875,-2.51514 12.07267,2.6409c3.39544,6.03633 12.07267,10.43782 1.38333,20.87565c0,0 -6.1621,4.77877 -13.58175,12.07267c-5.03027,4.90451 -12.95296,11.94689 -15.71961,14.33628c-0.62879,0.50303 -1.38332,0.75455 -2.13787,0.8803c-12.19841,1.13182 -21.25292,-0.12575 -21.25292,-5.5333c0,-9.05449 17.98324,-5.91057 17.98324,-5.91057c0,0 5.78482,-4.90451 8.42572,-7.2939z" fill="#ffab19" stroke="#001026" stroke-width="1.2" stroke-linecap="round" stroke-linejoin="round"></path><path d="M243.28291,213.04796c0,0 -3.89847,-2.64089 -6.66512,-8.29995c0,0 -2.38939,-3.14394 3.01816,-6.53937c5.65906,-3.64695 7.79693,0.37727 10.06055,3.39543c2.51515,3.89846 0,5.78482 -2.51514,8.04844c-2.01212,1.88635 -3.89847,3.39543 -3.89847,3.39543z" fill="#ffffff" stroke="none" stroke-width="1" stroke-linecap="butt" stroke-linejoin="miter"></path></g><path d="M262.27221,202.73588c0.37728,-0.62878 0.25152,-1.38333 -0.12575,-2.01211c-1.38333,-0.8803 -3.26969,-2.38938 -5.15604,-3.77271c-3.14393,-2.26362 -7.67118,-7.2939 -1.38333,-9.55752c5.03027,-1.88635 9.55752,1.63483 14.96507,5.5333c2.76665,2.13786 6.03634,4.653 4.90452,8.55147c-1.25757,4.40148 -7.41967,16.97718 -14.83932,12.8272c-5.40755,-3.64694 -1.13182,-8.04843 1.63483,-11.56963z" data-paper-data="{&quot;index&quot;:null}" fill="#ffab19" stroke="#001026" stroke-width="1.2" stroke-linecap="round" stroke-linejoin="round"></path><g data-paper-data="{&quot;index&quot;:null}"><path d="M233.47385,128.03625c2.8924,-0.50303 5.91057,-0.75454 9.43177,-0.50303c5.91057,0.25152 11.56963,2.38939 11.56963,2.38939l15.21659,-9.9348c0.50302,-0.25152 1.1318,0.12575 1.00605,0.62878l-2.6409,22.51049c-0.75455,-1.00606 13.33022,16.09689 4.40149,30.43317c-8.92875,14.33629 -27.91805,20.74989 -51.56035,16.09689c-23.6423,-4.65301 -29.1756,-18.23475 -27.66652,-25.4029c1.5091,-7.16814 10.43783,-9.80904 10.43783,-9.80904c0,0 0.12576,-5.65906 4.14998,-12.57569c2.38939,-4.14998 10.43783,-10.06055 10.43783,-10.06055l3.26968,-13.45599c0.12577,-0.50302 0.75455,-0.62878 1.13182,-0.37727z" fill="#ffab19" stroke="#001026" stroke-width="1.2" stroke-linecap="butt" stroke-linejoin="miter"></path><path d="M204.04674,154.94825c10.68934,-2.38939 11.69538,5.5333 20.74989,6.16208c10.56358,0.75454 25.02562,-10.68934 33.45134,2.76665c8.42572,13.33023 -6.03634,31.43924 -36.46951,25.15139c-23.39079,-4.52725 -29.42712,-17.48021 -27.91804,-24.64836c1.50907,-7.16815 10.1863,-9.43177 10.1863,-9.43177z" fill="#ffffff" stroke="none" stroke-width="1" stroke-linecap="butt" stroke-linejoin="miter"></path><path d="M243.66017,168.40424c0.37727,6.16208 -0.75454,14.21053 -12.19842,15.4681c-13.20449,0.75453 -17.98324,-8.67724 -19.11506,-12.07267c-0.25152,-0.62879 0.25152,-1.25757 0.8803,-1.13182c1.88635,0.37727 5.91058,0.75454 12.70145,0.37727c7.54541,-0.50302 14.33628,-2.51513 16.72567,-3.39543c0.50302,-0.12575 1.00605,0.25152 1.00605,0.75455z" fill="#ffffff" stroke="#001026" stroke-width="1.2" stroke-linecap="round" stroke-linejoin="round"></path><path d="M195.87252,161.23609c0,0 -9.0545,-0.12576 -14.96507,-4.90452" fill="none" stroke="#001026" stroke-width="1.2" stroke-linecap="round" stroke-linejoin="round"></path><path d="M195.3695,168.65575c0,0 -4.90451,2.38938 -12.8272,1.7606" fill="none" stroke="#001026" stroke-width="1.2" stroke-linecap="round" stroke-linejoin="round"></path><path d="M225.29965,157.84067c2.51514,0 5.91057,0.12575 5.78482,1.63483c0,2.01211 -5.28179,5.15603 -7.54541,4.90452c-2.01211,-0.12576 -3.89846,-3.64695 -3.77271,-5.40755c0.12575,-0.88031 2.8924,-1.13182 5.5333,-1.13182z" fill="#001026" stroke="#001026" stroke-width="1.2" stroke-linecap="round" stroke-linejoin="round"></path><path d="M266.67368,163.37395c4.40149,-3.89845 15.21659,-7.41965 15.21659,-7.41965" fill="none" stroke="#001026" stroke-width="1.2" stroke-linecap="round" stroke-linejoin="round"></path><path d="M281.00997,168.53c0,0 -9.30601,1.38332 -14.71356,-0.75455" fill="none" stroke="#001026" stroke-width="1.2" stroke-linecap="round" stroke-linejoin="round"></path><g><path d="M223.53906,137.09076c3.5212,2.26361 3.39544,8.67722 -0.25151,14.33628c-3.77271,5.65906 -9.55753,8.29995 -13.07873,6.03633c-3.5212,-2.26361 -3.39544,-8.67722 0.25151,-14.33628c3.64696,-5.65906 9.55753,-8.42572 13.07873,-6.03633z" fill="#ffffff" stroke="#001026" stroke-width="1.2" stroke-linecap="round" stroke-linejoin="round"></path><path d="M210.96336,150.29524c0,-1.38332 1.00605,-2.51514 2.26362,-2.51514c1.25757,0 2.26362,1.13181 2.26362,2.51514c0,1.38332 -1.00605,2.51514 -2.26362,2.51514c-1.25757,0 -2.26362,-1.13181 -2.26362,-2.51514" fill="#001026" stroke="none" stroke-width="1" stroke-linecap="butt" stroke-linejoin="miter"></path></g><g><path d="M255.22981,140.98922c3.89847,2.76665 3.64696,9.9348 -0.25151,15.4681c-3.77271,5.5333 -9.30601,7.29391 -13.45599,4.90452c-3.39545,-2.38938 -3.64696,-9.18026 0.12575,-14.71356c3.77271,-5.53331 9.68328,-8.55147 13.58175,-5.65906z" fill="#ffffff" stroke="#001026" stroke-width="1.2" stroke-linecap="round" stroke-linejoin="round"></path><path d="M242.40259,153.94218c0,-1.38332 1.00605,-2.38939 2.26362,-2.51514c1.25757,0 2.26362,1.13181 2.26362,2.51514c0,1.38332 -1.00605,2.51514 -2.26362,2.51514c-1.25757,0 -2.26362,-1.13181 -2.26362,-2.51514" fill="#001026" stroke="none" stroke-width="1" stroke-linecap="butt" stroke-linejoin="miter"></path></g></g></g></g></svg>