<svg version="1.1" xmlns="http://www.w3.org/2000/svg" xmlns:xlink="http://www.w3.org/1999/xlink" width="152.97378" height="127.2169" viewBox="0,0,152.97378,127.2169"><g transform="translate(-163.51311,-108.3222)"><g data-paper-data="{&quot;isPaintingLayer&quot;:true}" fill-rule="nonzero" stroke="#000000" stroke-width="1" stroke-linecap="butt" stroke-linejoin="miter" stroke-miterlimit="10" stroke-dasharray="" stroke-dashoffset="0" style="mix-blend-mode: normal"><g><path d="M272.08899,191.13835c0.00756,2.11867 -1.19568,3.15639 -2.06373,3.66473c-1.84001,1.09435 -3.69851,1.27932 -5.61451,0.30319c-2.00125,-1.01836 -4.47367,-5.80028 -2.18106,-10.15742c-4.02703,-2.58726 -6.63793,-6.09067 -6.45385,-7.84872c0.02116,-1.65335 1.92445,-3.33123 5.71158,-3.75513c-1.31807,-1.13906 -4.24737,-5.27586 -3.58366,-7.25088c0.6637,-1.97512 4.26346,-1.86027 6.29421,-2.03503c0,0 -6.80334,-5.8425 -4.82743,-9.74616c1.40927,-2.78068 6.12107,-1.84249 9.60767,-0.46869c0,0 -13.32226,-9.96988 -9.80864,-14.35573c2.74681,-3.4275 9.64651,0.47029 11.03641,1.15257c-2.16088,-2.92841 -5.79095,-10.02054 -6.80762,-16.95739c-3.39878,-23.16877 17.90989,-14.97473 24.61955,-4.09786c3.86313,6.2655 4.56735,9.75033 4.56735,9.75033c1.5985,3.80659 2.28159,7.38607 2.52061,10.80504c0.53446,7.68411 -0.96858,11.83441 -2.87863,13.67602c-8.23546,7.94676 -20.17202,26.76017 -20.13823,37.32113z" fill="#279afa"></path><path d="M272.08899,191.13835c0.00756,2.11867 -1.19568,3.15639 -2.06373,3.66562c-1.84001,1.09435 -3.69851,1.27923 -5.61451,0.3031c-2.00125,-1.01836 -4.47367,-5.8002 -2.18106,-10.15734c0,0 -6.55936,-8.59607 5.49452,-9.10947c0,0 -11.42226,-9.81202 2.79499,-9.42785c0,0 -15.2052,-13.15836 5.4051,-9.32137c0,0 -20.28267,-18.13281 2.43696,-11.51435c0,0 -15.6435,-28.42952 -4.2415,-31.19331c6.40488,-1.55202 16.13076,9.29187 18.46551,14.95277c1.5985,3.80659 2.28159,7.38607 2.52061,10.80504c0.53446,7.68411 -0.96858,11.83441 -2.87863,13.67602c-8.23546,7.94676 -20.17202,26.76017 -20.13823,37.32113z" fill="#0043a5"></path></g><path d="M274.36552,210.80887c1.71832,-2.97569 3.96107,-4.27528 7.37754,-4.69491c1.46678,-0.16809 2.51465,-0.12586 3.68837,0.7549c1.06902,0.79623 -0.41456,2.95284 -5.21337,3.79219c5.15853,0.47962 7.8961,1.06991 8.31493,3.08209c0.31492,1.57149 -1.92783,2.40994 -3.52038,2.17946c-3.625,-0.52354 -7.58696,-1.92783 -9.30538,1.34172c-0.43989,0.83854 -0.62904,1.65504 -1.50892,1.92783c-0.96432,0.29385 -2.13804,-0.31412 -2.2639,-1.34092c-0.20941,-1.82392 0.80139,-2.94698 0.33528,-4.69491c-0.16719,-0.62913 -7.04156,-3.26955 -9.85006,-4.40106c1.38314,-0.33528 3.20626,-1.53006 4.56913,-1.92863c0.92209,-0.27278 5.07151,1.96996 7.37675,3.98223z" fill="#ffa600"></path><g><path d="M280.6504,189.71726c-0.26346,1.56633 -0.16293,2.97987 0.26346,4.34701c-4.14008,12.47865 -11.26352,23.45169 -23.23214,28.0706c-6.83801,2.63962 -20.87376,-1.79939 -30.35059,-11.63594c-6.11858,4.91872 -10.25955,8.91277 -17.5147,11.51604c-7.81326,2.80263 -5.29444,-4.99463 -3.49496,-8.35368c-3.35906,0.96005 -8.8773,0.48043 -9.95725,-1.79948c-1.11125,-2.34487 1.33496,-4.2431 4.2144,-5.44216c-3.23915,-0.83934 -7.87326,-1.29958 -7.55745,-4.55812c0.34372,-3.55496 3.34305,-3.19524 8.51758,-4.07938c-2.87943,-2.15911 -6.4783,-5.69806 -4.91872,-8.87721c1.67868,-3.35906 9.22014,-5.83406 30.46881,9.83815c6.47741,1.19995 30.41219,-14.99668 39.82903,-20.87455c12.29627,-7.67736 25.8963,-12.34355 36.94871,-3.11924c0.82584,0.68904 1.49967,1.37807 2.06373,2.06453c-3.46794,-1.49122 -7.66047,-1.12307 -11.44848,-0.15537c-0.85534,0.21875 -1.69131,0.46442 -2.4918,0.72957c-5.15853,1.70909 -8.8773,4.73802 -10.67669,9.83655c-0.30995,0.87729 -0.53029,1.70402 -0.6629,2.49269z" fill="#ff0600"></path><path d="M291.99,177.38722c-5.15853,1.70909 -8.8773,4.73792 -10.6759,9.83735c-0.30986,0.87729 -0.53029,1.70402 -0.66282,2.49269c-1.58411,0.31412 -5.30039,-0.46273 -8.244,-4.39599c-2.44283,-3.26369 0.24577,-7.49666 4.16293,-9.25978c6.20978,-2.78912 12.95073,-3.4891 17.91158,0.59615c-0.85534,0.21866 -1.69131,0.46442 -2.4918,0.72957z" fill="#0043a5"></path><path d="M307.46542,177.62703c0,0 15.73727,13.4987 4.43909,38.26687c-2.1752,-10.03245 -9.49283,-25.74768 -19.554,-22.31263c-0.41962,3.44936 1.24386,6.76202 4.54292,7.84197c-3.95938,3.14884 -9.79087,1.12564 -13.06041,-2.56362c-1.45238,-1.63727 -2.41669,-3.18341 -2.91997,-4.79792c-0.42558,-1.36625 -0.52611,-2.77979 -0.26265,-4.34612c0.13342,-0.78867 0.35385,-1.61539 0.6629,-2.49269c1.79939,-5.09853 5.51816,-8.12746 10.67669,-9.83655c0.80049,-0.26515 1.63727,-0.51082 2.4918,-0.72957c3.78802,-0.9677 7.98054,-1.33585 11.44848,0.15537c0.52949,0.228 1.04289,0.49571 1.53513,0.8149z" fill="#ffa600"></path></g><path d="M269.68243,223.22842c3.0956,-3.82099 6.55598,-5.15596 11.47799,-4.9837c2.11102,0.0912 4.5311,0.91276 4.9364,2.97312c0.73126,3.71966 -8.15778,1.67957 -9.95725,3.47895c6.5974,-0.84014 12.76834,2.91321 12.9102,5.85005c0.09199,2.29172 -3.26448,2.9749 -5.4642,2.29261c-5.00734,-1.55202 -10.29164,-4.42301 -13.45221,-0.18746c-0.80983,1.08671 -1.25986,2.19963 -2.56451,2.3871c-1.42785,0.19928 -2.95116,-0.9229 -2.89881,-2.4023c0.11226,-2.62362 2.38541,-4.11902 1.525,-6.56025c-1.33248,-3.77957 -8.4095,-6.05858 -12.93722,-8.4255c2.02996,-0.16381 5.12644,-1.23195 6.68771,-2.67171c1.67788,0.59953 6.92841,4.89001 9.73691,8.24906z" fill="#ffa600"></path><g><path d="M289.25323,178.59641c3.97973,4.46265 -2.72574,11.07357 -8.63322,6.68345c-2.30603,-1.71415 -1.92863,-5.03098 -0.62655,-6.51207c2.1279,-2.42176 6.89882,-2.82032 9.25978,-0.17137z" fill="#ffffff"></path><path d="M287.8076,181.04181c0.52692,0 1.00404,0.19252 1.34936,0.50326c0.34541,0.31074 0.559,0.7397 0.559,1.21337c0,0.47376 -0.21359,0.90272 -0.559,1.21346c-0.34532,0.31074 -0.82246,0.50326 -1.34936,0.50326c-0.52692,0 -1.00395,-0.19252 -1.34936,-0.50326c-0.34532,-0.31074 -0.559,-0.7397 -0.559,-1.21346c0,-0.47367 0.21368,-0.90263 0.559,-1.21337c0.34541,-0.31074 0.82246,-0.50326 1.34936,-0.50326z" fill="#272525"></path></g><g><path d="M264.42764,186.5102c2.53322,1.37381 2.98841,3.48483 3.03062,4.85366c0.10471,2.90894 -0.88494,5.24883 -3.29915,6.89792c-2.51971,1.72428 -9.83735,1.55966 -13.54341,-4.01681c-5.71077,3.11755 -11.59461,3.95014 -13.57301,2.58388c-1.95902,-1.102 -2.71988,-4.46612 -0.75748,-9.26235c-2.2199,0.82921 -9.06556,1.62891 -10.98993,-0.45003c-1.92445,-2.07983 0.559,-6.30017 1.67442,-8.83758c0,0 -11.40795,4.30986 -14.77714,-0.59277c-2.40061,-3.49416 1.78935,-8.50576 5.70233,-11.77104c0,0 -20.58079,9.40163 -23.5244,2.34825c-2.30017,-5.51141 6.84904,-11.20529 8.56905,-12.41955c-4.90344,0.66966 -15.73381,0.37918 -24.67439,-2.92841c-29.86412,-11.04655 -6.19627,-31.13412 11.15631,-32.05114c9.99521,-0.5278 14.61332,0.90432 14.61332,0.90432c5.58492,0.57251 10.30089,2.08996 14.53732,4.03458c9.51897,4.36896 13.49026,8.86885 14.44444,12.34782c4.11475,15.00762 18.78549,41.51526 31.41108,48.35923z" fill="#279afa"></path><path d="M264.42764,186.5102c2.53322,1.37381 2.98841,3.48483 3.03062,4.85197c0.10471,2.90894 -0.88494,5.24883 -3.29915,6.89792c-2.51971,1.72428 -9.83735,1.55966 -13.54341,-4.01681c0,0 -14.53226,2.22328 -7.28893,-12.49475c0,0 -19.15454,7.23577 -9.42866,-9.4818c0,0 -25.61346,9.57052 -7.59967,-12.52514c0,0 -34.86053,12.38497 -12.15272,-10.41404c0,0 -44.12368,0.13848 -39.99115,-15.26947c2.32212,-8.65517 21.60333,-13.19383 29.88022,-12.28951c5.58492,0.57251 10.30089,2.08996 14.53732,4.03458c9.51897,4.36896 13.49026,8.86885 14.44444,12.34782c4.11475,15.00762 18.78549,41.51526 31.41108,48.35923z" fill="#0043a5"></path></g></g></g></svg>