<svg version="1.1" xmlns="http://www.w3.org/2000/svg" xmlns:xlink="http://www.w3.org/1999/xlink" width="127.17832" height="130.14329" viewBox="0,0,127.17832,130.14329"><g transform="translate(-176.41084,-151.43161)"><g data-paper-data="{&quot;isPaintingLayer&quot;:true}" fill-rule="nonzero" stroke="#000000" stroke-width="1" stroke-linecap="butt" stroke-linejoin="miter" stroke-miterlimit="10" stroke-dasharray="" stroke-dashoffset="0" style="mix-blend-mode: normal"><g data-paper-data="{&quot;index&quot;:null}"><path d="M254.82724,184.74961c0.34309,10.82969 13.25976,29.6923 21.98847,37.54687c2.0239,1.82192 3.71239,6.02035 3.4413,13.91647c-0.1248,3.51838 -0.69492,7.20994 -2.19632,11.17278c0,0 -0.59691,3.59633 -4.33531,10.16165c-6.4891,11.3928 -28.04529,20.55897 -25.39165,-3.31823c0.7936,-7.14928 4.26255,-14.55245 6.37131,-17.63414c-1.40088,0.74859 -8.33618,4.99558 -11.27493,1.57771c-3.76097,-4.37342 9.54306,-15.07141 9.54306,-15.07141c-3.52616,1.53432 -8.32408,2.66497 -9.87059,-0.13517c-2.16587,-3.93241 4.60219,-10.16683 4.60219,-10.16683c-2.08879,-0.10569 -5.77603,0.13949 -6.52634,-1.86014c-0.75031,-2.00221 2.10444,-6.34703 3.41432,-7.56253c-3.89863,-0.30066 -5.90947,-1.95104 -5.99088,-3.64481c-0.25219,-1.79429 2.2976,-5.48161 6.33483,-8.28078c-2.50811,-4.38562 -0.14294,-9.37678 1.87137,-10.49179c1.93117,-1.06912 3.84497,-0.94605 5.7675,0.10828c0.91053,0.48775 2.18325,1.50926 2.2517,3.68206z" fill="#279afa"></path><path d="M254.82724,184.74962c0.34309,10.82969 13.25976,29.6923 21.98847,37.54687c2.0239,1.82192 3.71239,6.02035 3.4413,13.91647c-0.1248,3.51838 -0.69492,7.20994 -2.19632,11.17278c-2.19103,5.88873 -11.77574,17.35604 -18.39828,15.99404c-11.7887,-2.42671 3.23068,-32.13888 3.23068,-32.13888c-23.05844,7.59979 -2.911,-11.7168 -2.911,-11.7168c-20.99384,4.67409 -5.87568,-9.36545 -5.87568,-9.36545c-14.56541,0.90362 -3.20121,-9.56744 -3.20121,-9.56744c-12.37966,-0.0935 -5.96237,-9.14533 -5.96237,-9.14533c-2.50906,-4.38562 -0.1439,-9.37764 1.87041,-10.49179c1.93117,-1.06826 3.84497,-0.94615 5.7675,0.11002c0.90535,0.49121 2.17807,1.51272 2.24651,3.6855z" fill="#0043a5"></path></g><path d="M260.38411,194.15846c1.76308,-3.05049 4.06413,-4.38562 7.56955,-4.81703c1.50485,-0.17155 2.58087,-0.12912 3.78429,0.7745c1.09676,0.81703 -0.42546,3.03063 -5.34904,3.89171c5.2901,0.49131 8.10146,1.09773 8.53123,3.16146c0.32313,1.6114 -1.97802,2.47258 -3.61197,2.23433c-3.7193,-0.53538 -7.78429,-1.97619 -9.54822,1.37842c-0.45137,0.8586 -0.64634,1.69808 -1.54823,1.97705c-0.99107,0.30325 -2.19362,-0.32313 -2.32446,-1.37583c-0.21484,-1.87137 0.82221,-3.02274 0.34309,-4.81789c-0.17069,-0.64453 -7.22472,-3.35547 -10.1054,-4.51636c1.41912,-0.34309 3.28961,-1.56984 4.68628,-1.97792c0.95037,-0.2781 5.20773,2.02554 7.5729,4.08755z" data-paper-data="{&quot;index&quot;:null}" fill="#ffa600"></path><g data-paper-data="{&quot;index&quot;:null}"><path d="M266.83424,172.51991c-0.26945,1.60718 -0.16808,3.05749 0.27205,4.45925c-4.24872,12.80329 -11.55734,24.06257 -23.83737,28.80079c-7.01497,2.70912 -21.41498,-1.8462 -31.13908,-11.93683c-6.27686,5.04828 -10.52558,9.14543 -17.96946,11.81645c-8.0165,2.87462 -5.4339,-5.12633 -3.58759,-8.57367c-3.44648,0.98772 -9.10818,0.4939 -10.21627,-1.8462c-1.14016,-2.40501 1.36968,-4.35182 4.32409,-5.5829c-3.32341,-0.85946 -8.07805,-1.3334 -7.75405,-4.67496c0.3526,-3.6474 3.42996,-3.27752 8.73994,-4.1846c-2.95344,-2.21618 -6.64769,-5.84707 -5.04579,-9.10905c1.72065,-3.44725 9.45991,-5.98742 31.26138,10.09329c6.645,1.23019 31.2032,-15.38675 40.865,-21.41757c12.6161,-7.87539 26.56982,-12.66466 37.90896,-3.20044c0.84554,0.70702 1.53863,1.41394 2.1174,2.11826c-3.55995,-1.53 -7.86147,-1.15225 -11.74799,-0.15935c-0.8777,0.22434 -1.73534,0.47739 -2.55669,0.74761c-5.29356,1.75357 -9.10818,4.86128 -10.95525,10.09243c-0.31708,0.90016 -0.54325,1.74744 -0.67928,2.55745z" fill="#ff0600"></path><path d="M278.4679,159.86914c-5.29182,1.75357 -9.10732,4.86128 -10.95353,10.09417c-0.31794,0.90016 -0.54497,1.74744 -0.68013,2.55745c-1.62532,0.32235 -5.44081,-0.4747 -8.45925,-4.51032c-2.50552,-3.34847 0.25209,-7.69165 4.27205,-9.50062c6.37304,-2.86243 13.2876,-3.58069 18.37754,0.61169c-0.8777,0.22434 -1.73534,0.47653 -2.55669,0.74761z" fill="#0043a5"></path><path d="M294.34676,160.11519c0,0 16.14572,13.84985 4.5537,39.26137c-2.23096,-10.29335 -9.73898,-26.41737 -20.06085,-22.89295c-0.43151,3.53912 1.27694,6.93789 4.66103,8.04425c-4.06413,3.23327 -10.04732,1.15571 -13.40193,-2.62859c-1.49016,-1.68071 -2.47691,-3.2662 -2.99415,-4.92358c-0.43756,-1.40174 -0.54065,-2.85208 -0.27033,-4.45838c0.13602,-0.80915 0.36305,-1.65728 0.67928,-2.55745c1.84708,-5.23115 5.66429,-8.33887 10.95525,-10.09243c0.82135,-0.27109 1.67985,-0.52328 2.55669,-0.74849c3.88912,-0.99204 8.19065,-1.36978 11.74799,0.16022c0.54315,0.23393 1.06826,0.50859 1.57329,0.83603z" fill="#ffa600"></path></g><path d="M255.57919,206.90195c3.17615,-3.91869 6.72833,-5.28837 11.77746,-5.11164c2.16597,0.091 4.64807,0.93482 5.06565,3.05049c0.75031,3.8155 -8.3691,1.72238 -10.21531,3.56859c6.76807,-0.86119 13.1004,2.98896 13.24593,6.00394c0.09186,2.35048 -3.34943,3.05049 -5.60891,2.35221c-5.13755,-1.59239 -10.55937,-4.5372 -13.80214,-0.19314c-0.83086,1.11501 -1.2927,2.25603 -2.63118,2.4483c-1.46415,0.2036 -3.02802,-0.94691 -2.97514,-2.46482c0.11606,-2.69098 2.44753,-4.22703 1.56552,-6.73255c-1.36709,-3.87876 -8.6282,-6.21714 -13.27368,-8.64557c2.08274,-0.16713 5.25977,-1.26399 6.86339,-2.74119c1.72065,0.61775 7.10771,5.01977 9.98838,8.46538z" data-paper-data="{&quot;index&quot;:null}" fill="#ffa600"></path><g data-paper-data="{&quot;index&quot;:null}"><path d="M275.66174,161.10981c4.0841,4.57789 -2.79754,11.36074 -8.85956,6.85735c-2.36431,-1.75875 -1.97879,-5.16185 -0.6428,-6.68235c2.18325,-2.48382 7.07737,-2.89278 9.50234,-0.17501z" fill="#ffffff"></path><path d="M274.17675,163.61889c0.54065,0 1.031,0.19746 1.38532,0.51627c0.35519,0.3189 0.57444,0.75895 0.57444,1.24499c0,0.48603 -0.21925,0.92619 -0.57444,1.24499c-0.35432,0.3189 -0.84468,0.51636 -1.38532,0.51636c-0.54065,0 -1.031,-0.19746 -1.38532,-0.51636c-0.35519,-0.31881 -0.57434,-0.75895 -0.57434,-1.24499c0,-0.48603 0.21916,-0.92609 0.57434,-1.24499c0.35432,-0.31881 0.84468,-0.51627 1.38532,-0.51627z" fill="#272525"></path></g><g data-paper-data="{&quot;index&quot;:null}"><path d="M251.82264,183.20062c-8.29374,12.18028 -9.20351,43.25014 -5.89737,58.86815c0.76673,3.62321 -0.73985,9.59163 -7.36421,18.05345c-2.9474,3.76787 -6.53326,7.36853 -11.35719,10.5178c0,0 -3.53738,3.47931 -12.9012,7.69944c-16.25486,7.32513 -47.28306,0.13861 -25.24948,-23.97944c6.59824,-7.22031 16.33626,-12.58058 21.12296,-14.27781c-2.13986,-0.29807 -13.15924,-1.18518 -13.65575,-7.29308c-0.63156,-7.81472 22.55513,-8.92454 22.55513,-8.92454c-5.10376,-1.1367 -11.28098,-3.73581 -10.73696,-8.05116c0.7676,-6.05423 13.19486,-7.49063 13.19486,-7.49063c-2.21014,-1.7891 -6.46049,-4.46962 -5.68339,-7.27234c0.77623,-2.80186 7.39358,-5.2901 9.80819,-5.57858c-4.04685,-3.44994 -4.93309,-6.87731 -3.66477,-8.80234c1.16186,-2.17807 6.91715,-4.18374 13.59161,-4.02688c0.75636,-6.827 7.35125,-10.41989 10.45973,-10.03263c2.97859,0.36824 4.97993,2.03686 6.25352,4.73822c0.609,1.26918 1.18691,3.40827 -0.47566,5.85235z" fill="#279afa"></path><path d="M251.82264,183.20062c-8.29374,12.18028 -9.20351,43.25014 -5.89737,58.86815c0.76673,3.62321 -0.73985,9.59163 -7.36421,18.05345c-2.9474,3.76787 -6.53326,7.36853 -11.35719,10.5178c-7.12249,4.71651 -26.83851,9.64874 -33.02608,2.84774c-11.01679,-12.1075 29.28422,-32.73071 29.28422,-32.73071c-31.4285,-10.11049 6.18412,-15.21349 6.18412,-15.21349c-26.81941,-11.67687 1.03792,-14.99854 1.03792,-14.99854c-16.7314,-10.66679 4.13689,-13.08053 4.13689,-13.08053c-13.52749,-10.01611 0.77028,-14.82095 0.77028,-14.82095c0.75808,-6.82787 7.35115,-10.41902 10.45963,-10.03349c2.97859,0.36824 4.97993,2.03686 6.25352,4.73908c0.60296,1.26831 1.18086,3.4074 -0.48172,5.85149z" fill="#0043a5"></path></g></g></g></svg>