<svg version="1.1" xmlns="http://www.w3.org/2000/svg" xmlns:xlink="http://www.w3.org/1999/xlink" width="82.05307" height="23.86234" viewBox="0,0,82.05307,23.86234"><defs><linearGradient x1="228.77299" y1="168.16215" x2="228.77299" y2="191.93117" gradientUnits="userSpaceOnUse" id="color-1"><stop offset="0" stop-color="#bf5d00"></stop><stop offset="1" stop-color="#ff7b00"></stop></linearGradient><linearGradient x1="254.27515" y1="168.06883" x2="254.27515" y2="188.91622" gradientUnits="userSpaceOnUse" id="color-2"><stop offset="0" stop-color="#bf5d00"></stop><stop offset="1" stop-color="#ff7b00"></stop></linearGradient></defs><g transform="translate(-198.97346,-168.06883)"><g data-paper-data="{&quot;isPaintingLayer&quot;:true}" fill-rule="nonzero" stroke="#ffffff" stroke-width="0" stroke-linecap="butt" stroke-linejoin="miter" stroke-miterlimit="10" stroke-dasharray="" stroke-dashoffset="0" style="mix-blend-mode: normal"><path d="M258.57253,180.04666c0,6.56363 -13.34171,11.88451 -29.79953,11.88451c-16.45782,0 -29.79953,-5.32088 -29.79953,-11.88451c0,-6.56363 13.34171,-11.88451 29.79953,-11.88451c16.45782,0 29.79953,5.32088 29.79953,11.88451z" fill="url(#color-1)"></path><path d="M254.27515,168.06883c14.77438,0 26.75138,4.66684 26.75138,10.42369c0,5.75685 -11.977,10.42369 -26.75138,10.42369c-14.77438,0 -26.75138,-4.66684 -26.75138,-10.42369c0,-5.75685 11.977,-10.42369 26.75138,-10.42369z" fill="url(#color-2)"></path></g></g></svg>