<svg version="1.1" xmlns="http://www.w3.org/2000/svg" xmlns:xlink="http://www.w3.org/1999/xlink" width="62.53191" height="74" viewBox="0,0,62.53191,74"><g transform="translate(-209,-143)"><g data-paper-data="{&quot;isPaintingLayer&quot;:true}" fill-rule="nonzero" stroke="none" stroke-width="1" stroke-linecap="butt" stroke-linejoin="miter" stroke-miterlimit="10" stroke-dasharray="" stroke-dashoffset="0" style="mix-blend-mode: normal"><path d="M271.015,193.91c-0.01,0.15 -0.03,0.3 -0.06,0.45c-0.29,2.04 -1.07,3.82 -2.4,6.39c-2.72,5.41 -7.08,9.65 -12.96,12.6c-4.45,2.23 -9.01,3.44 -13.56,3.62c-0.62,0.02 -1.16,0.03 -1.7,0.03c-14.81,0 -22.99,-6.97 -27.24,-12.82c-0.77,-1.05 -1.33,-2.22 -1.68,-3.45c-1.64,-3.49 -2.37,-6.96 -2.17,-10.34c0.08,-1.42 0.33,-3.02 0.78,-4.91c0.02,-1.42 0.32,-2.82 0.88,-4.13c0.6,-1.41 1.25,-2.75 1.94,-4.03c-1,-1.26 -1.82,-2.63 -2.45,-4.1c-0.03,-0.07 -0.06,-0.14 -0.09,-0.21c-1.74,-4.27 -1.74,-8.78 0,-13.05c0.03,-0.08 0.07,-0.16 0.1,-0.23c2.07,-4.75 5.68,-8.78 10.74,-11.96c4.86,-3.06 9.68,-4.67 14.32,-4.77h5.08c5.13,0 9.78,1.07 13.82,3.19c5.76,3 9.68,7.81 11.31,13.91c0.67,2.41 1.29,5.58 0.32,8.96c-0.18,0.68 -0.4,1.34 -0.65,1.99c5.06,5.4 6.22,10.82 6.18,14.77c0.03,1.3 -0.02,3.48 -0.51,8.09z" fill="#00cccc"></path><path d="M260.516,185.891c0.057,1.234 -0.088,3.525 -0.439,6.873c-0.061,0.412 -0.5,1.409 -1.32,2.995c-1.643,3.29 -4.34,5.874 -8.092,7.755c-3.05,1.527 -6.069,2.35 -9.061,2.467c-8.854,0.295 -15.393,-2.463 -19.615,-8.269c0,-0.176 -0.03,-0.38 -0.088,-0.616c-1.231,-2.227 -1.789,-4.25 -1.671,-6.068c0.058,-1.113 0.381,-2.727 0.968,-4.838c-0.06,-0.117 -0.118,-0.293 -0.176,-0.527c2.052,-4.809 4.631,-8.357 7.74,-10.645c-4.398,-1.523 -7.155,-3.576 -8.269,-6.156c-0.646,-1.584 -0.646,-3.167 0,-4.75c1.173,-2.697 3.343,-5.043 6.509,-7.037c3.167,-1.992 6.069,-3.02 8.709,-3.078c0.585,0 1.495,0 2.727,0c0.703,0 1.407,0 2.111,0c3.342,0 6.245,0.646 8.708,1.938c3.048,1.586 4.983,3.936 5.806,7.049c0.408,1.47 0.527,2.498 0.352,3.084c-0.822,2.996 -2.963,5.64 -6.422,7.931c0.704,0.294 1.641,0.705 2.814,1.233c0.881,0.236 2.053,0.734 3.52,1.498c3.576,2.936 5.306,5.989 5.189,9.161zM254.45,191.995c0.467,-2.756 0.701,-4.514 0.701,-5.277c0,-2.345 -0.791,-4.223 -2.369,-5.629c-2.339,-1.993 -6.196,-3.343 -11.574,-4.047c-0.41,-0.293 -0.907,-0.586 -1.491,-0.879c-1.053,-0.117 -1.727,-0.146 -2.018,-0.088c-2.34,0.293 -4.794,1.906 -7.365,4.838c-2.866,3.225 -4.298,6.451 -4.298,9.676c0,3.46 1.577,6.188 4.735,8.18c2.748,1.76 5.963,2.639 9.646,2.639c1.111,0 2.164,-0.088 3.157,-0.264c1.987,-0.176 4.15,-1.172 6.489,-2.99c2.574,-1.994 4.035,-4.048 4.387,-6.159zM248.905,161.585c-0.646,-0.885 -1.847,-1.697 -3.606,-2.436c-1.759,-0.736 -3.254,-1.076 -4.485,-1.019c-0.998,0.06 -2.287,0.206 -3.87,0.442c-0.471,0.118 -1.643,0.473 -3.519,1.062c-1.291,0.473 -2.728,1.389 -4.311,2.744c-1.877,1.595 -2.757,2.953 -2.639,4.074c0.352,3.305 3.636,5.017 9.852,5.135c2.814,-0.059 5.102,-0.354 6.861,-0.885c0.937,-0.236 2.08,-0.59 3.43,-1.062c2.169,-1.416 3.255,-3.157 3.255,-5.225c0,-1.001 -0.324,-1.946 -0.968,-2.83z" fill="#ffffff"></path></g></g></svg>