<svg version="1.1" xmlns="http://www.w3.org/2000/svg" xmlns:xlink="http://www.w3.org/1999/xlink" width="143.6642" height="123.54129" viewBox="0,0,143.6642,123.54129"><g transform="translate(-176.09229,-127.52057)"><g data-paper-data="{&quot;isPaintingLayer&quot;:true}" fill-rule="nonzero" stroke="none" stroke-width="1" stroke-linecap="butt" stroke-linejoin="miter" stroke-miterlimit="10" stroke-dasharray="" stroke-dashoffset="0" style="mix-blend-mode: normal"><path d="M247.80203,182.10099c-3.47884,-3.70406 -0.34788,-11.22112 -0.34788,-11.22112c18.43789,0.76261 39.54291,30.61296 39.54291,30.61296c0,0 -7.65347,5.99186 -7.76943,5.88292c0,0 -10.08866,17.43087 -13.79943,20.37232c0,0 -28.29463,-16.9951 -35.36829,-28.54305z" data-paper-data="{&quot;index&quot;:null}" fill="#4a3369"></path><g data-paper-data="{&quot;index&quot;:null}"><g fill="#a3b339"><path d="M210.81027,210.31719c5.91405,-0.43577 8.58116,10.89429 9.74078,17.97558c1.15962,7.08128 -8.11731,14.4894 -11.71212,6.8634c-3.59481,-7.626 -2.78308,-24.51216 1.97135,-24.83899z"></path><path d="M220.4351,228.29278c-0.23193,3.37723 0.46384,7.84388 3.015,7.626c2.55116,-0.21788 8.34924,0.65366 6.84174,2.50569c-1.5075,1.85203 -9.9727,-0.65366 -9.9727,-0.65366c0,0 9.27693,4.03089 7.76943,5.88292c-1.5075,1.85202 -10.55251,-4.46666 -10.55251,-4.46666c0,0 6.60981,5.88291 4.29058,6.31869c-2.31924,0.43577 -6.49385,-6.53657 -8.34924,-6.20974c-1.85538,0.32683 1.39154,6.97234 -1.62346,5.99186c-3.01501,-0.98049 -4.87039,-13.29104 -4.05866,-15.36095"></path></g><path d="M231.56742,214.45701c10.08866,8.06178 16.58251,16.45039 9.50885,19.93656c-4.05866,2.06991 -29.80214,-3.48617 -32.58522,-16.99509c-2.78308,-13.50892 12.9877,-10.89429 23.07636,-2.94146z" fill="#a3b339"></path><path d="M220.66703,202.25542c3.24692,-7.29918 15.07501,-16.77721 24.58386,1.30732c6.03,11.54795 8.00135,29.08776 -4.17462,30.93979c-12.17597,1.85203 -23.65618,-24.94793 -20.40925,-32.2471z" fill="#a3b339"></path><path d="M246.1786,205.41474c0,0 0.11596,0.21788 0.23192,0.65366c0.23192,0.32683 0.57981,0.98049 0.92769,1.74309c0.69577,1.5252 1.62346,3.81301 2.43519,6.64552c0.34788,1.30732 0.69577,2.94146 0.92769,4.5756c0.23192,1.63414 0.34788,3.48617 0.23192,5.3382c-0.11596,1.85202 -0.57981,3.813 -1.62346,5.66503c-0.92769,1.85203 -2.78308,3.37723 -4.98635,4.03089l-1.5075,0.43577l-1.5075,0.43577l-1.5075,0.32682l-1.39154,0.21788c-2.08731,0.10895 -4.17462,0 -6.14597,-0.32682c-3.82674,-0.7626 -7.30558,-2.17887 -9.85674,-3.81301c-1.27558,-0.76261 -2.4352,-1.63415 -3.36289,-2.39675c-1.04365,-0.7626 -1.85538,-1.41626 -2.43519,-2.06991c-1.27558,-1.19837 -1.85539,-1.96097 -1.85539,-1.96097c0,0 0.69577,0.65366 2.08731,1.74309c1.27557,1.08943 3.36288,2.50569 6.03,3.92195c2.66711,1.41626 5.91404,2.72357 9.62481,3.15935c1.85539,0.21788 3.71077,0.32682 5.68212,0.10894l1.39154,-0.21788l1.39154,-0.32682l1.39154,-0.32682l1.39154,-0.43577c1.73943,-0.65366 3.13097,-1.74309 4.05866,-3.26829c0.92769,-1.5252 1.27558,-3.26828 1.5075,-5.01137c0.23192,-3.48617 -0.23192,-6.75446 -0.69577,-9.58697c-0.46384,-2.83251 -1.15961,-5.12032 -1.62346,-6.75446c-0.23193,-0.7626 -0.46385,-1.41626 -0.57981,-1.85203c-0.11596,-0.43577 -0.23192,-0.65366 -0.23192,-0.65366z" fill="#687a27"></path><path d="M216.26049,207.81152c0,0 -0.46385,0 -1.27558,-0.21788c-0.34788,0 -0.92769,0.21788 -1.5075,0.32682c-0.57981,0.21788 -1.27558,0.43577 -1.85539,0.87154c-0.34788,0.21788 -0.57981,0.43577 -0.92769,0.65366c-0.23192,0.32682 -0.57981,0.54472 -0.81173,0.87154c-0.23192,0.32682 -0.46385,0.65366 -0.69577,0.98048c-0.23193,0.32683 -0.46385,0.65366 -0.57981,1.08943c-0.34789,0.87154 -0.46385,1.74309 -0.69577,2.61463c-0.11596,0.98048 -0.23192,1.85203 -0.34788,2.83251c-0.11596,0.87154 -0.23192,1.85203 -0.23192,2.83251c0,0.98048 0,1.96097 0,2.83251c0,1.85202 0,3.59511 0.11596,5.01137c0.11596,1.41626 0.23192,2.61463 0.34788,3.48617c0,0.43577 0,0.7626 0.11596,0.98048c0,0.10894 0.11596,0.21788 0.11596,0.21788c0.11596,0 0.11596,0 0.11596,0c-0.11596,0 0,0.10894 -0.11596,0.10894c-0.11596,0 -0.11596,-0.10894 -0.23192,-0.21788c-0.11597,-0.21788 -0.34789,-0.54471 -0.46385,-0.98048c-0.34788,-0.87154 -0.69577,-2.06991 -1.04365,-3.48617c-0.23192,-1.41626 -0.57981,-3.15934 -0.69577,-5.01137c0,-0.87154 -0.11596,-1.85203 -0.11596,-2.83251c0,-0.98048 0,-1.96097 0.11596,-2.94146c0.11597,-0.98048 0.23193,-1.96097 0.46385,-2.94146c0.11597,-0.43577 0.23193,-0.98048 0.46385,-1.41626c0.23193,-0.54472 0.34789,-0.98048 0.57981,-1.41626c0.11596,-0.43577 0.34789,-0.87154 0.69577,-1.30732c0.23192,-0.43577 0.57981,-0.76261 0.92769,-1.08943c0.34788,-0.32682 0.69577,-0.54472 1.04365,-0.87154c0.46385,-0.21788 0.81174,-0.54472 1.15962,-0.65366c0.81173,-0.43577 1.5075,-0.54472 2.20327,-0.65366c0.69577,0 1.27557,0 1.73942,0c0.46384,0.10894 0.81173,0.21788 1.04365,0.21788c0.23192,0.10894 0.34788,0.10894 0.34788,0.10894z" fill="#687a27"></path><path d="M213.59336,239.296c0,0 0.11597,-0.10894 0.46385,0.21788c0.34789,0 0.81173,0.21789 1.27558,0.43577c0.46385,0.21788 1.04365,0.54471 1.5075,0.98048c0.46385,0.43577 0.92769,0.87154 1.39154,1.30732c0.92769,0.98049 1.62346,1.96097 2.31923,2.61463c0.23192,0.32683 0.57981,0.54472 0.81173,0.65366c0.11596,0.10894 0.23192,0.10894 0.34788,0.10894c0.11596,0 0.11596,0 0.11596,0c0,0 -0.11597,0.10894 -0.46385,0.21788c-0.34789,0 -0.81173,0 -1.39154,-0.21788c-1.04365,-0.43577 -2.20327,-1.30732 -3.13096,-2.2878c-0.46385,-0.54472 -0.9277,-1.08942 -1.27558,-1.5252c-0.34788,-0.43577 -0.69577,-0.87154 -0.92769,-1.30732c-0.23192,-0.32682 -0.46385,-0.65366 -0.69577,-0.87154c-0.23192,-0.21788 -0.34788,-0.32682 -0.34788,-0.32682z" fill="#687a27"></path><path d="M217.53606,239.18707c0,0 0.81173,0.21788 1.5075,0.7626c1.04365,0.43577 2.31923,1.08943 3.59481,1.74309c0.69577,0.32682 1.27558,0.65366 1.85539,0.98048c0.23192,0.10895 0.57981,0.32683 0.81173,0.43577c0.34788,0.10894 0.57981,0.21788 0.81173,0.32682c0.23192,0.10894 0.46385,0.21788 0.69577,0.21788c0.23193,0 0.46385,0.10894 0.57981,0.10894c0.34789,0 0.57981,0 0.57981,0c0,0 -0.11597,0.10894 -0.46385,0.32682c-0.11596,0.10894 -0.34789,0.10894 -0.57981,0.21788c-0.23192,0.10894 -0.46385,0.10894 -0.81173,0.10894c-0.34788,0 -0.69577,-0.10894 -1.04365,-0.10894c-0.34788,0 -0.69577,-0.10894 -1.04365,-0.21788c-0.69577,-0.21788 -1.39154,-0.54472 -2.08731,-0.87154c-0.69577,-0.32683 -1.27558,-0.7626 -1.85539,-1.19837c-0.57981,-0.43577 -1.04366,-0.87154 -1.39154,-1.30732c-0.81174,-0.87154 -1.15962,-1.5252 -1.15962,-1.5252z" fill="#687a27"></path><path d="M230.29185,238.42447c0,0 0,0.21788 -0.11596,0.32682c-0.23193,0.21788 -0.69577,0.54472 -1.15962,0.65366c-0.46384,0.21788 -1.15961,0.32682 -1.73942,0.32682c-0.69577,0 -1.27558,0 -1.97135,-0.10894c-1.39154,-0.10894 -2.55116,-0.54471 -3.47885,-0.98048c-0.81173,-0.43577 -1.39154,-0.87154 -1.39154,-0.87154c0,0 0.69577,-0.10894 1.62346,-0.10894c1.04366,0 2.20327,0 3.47885,0.21788c0.5798,0.10894 1.15961,0.21788 1.73942,0.32682c0.57981,0.10894 1.04365,0.10894 1.5075,0.21788c0.34788,0.10894 0.81173,0.10894 1.04365,0.10894c0.34789,0 0.46385,-0.10894 0.46385,-0.10894z" fill="#687a27"></path><path d="M220.66703,229.6001c0,0 0.23193,0.43577 0.57981,1.08943c0.23193,0.54472 0.46385,1.30732 0.57981,2.06991c0.11596,0.7626 0.23192,1.41626 0.34788,1.96097c0,0.10894 0.11596,0.21788 0.11596,0.32682c0,0.10894 0.11596,0.21788 0.11596,0.32682c0.11596,0.21788 0.11596,0.32682 0.11596,0.32682c0,0 -0.11596,0 -0.34788,0c-0.23193,0 -0.34789,0 -0.46385,-0.10894c-0.11597,0 -0.34789,-0.10894 -0.46385,-0.21788c-0.23192,-0.21788 -0.57981,-0.54471 -0.81173,-0.98048c-0.23193,-0.43577 -0.34789,-0.87154 -0.46385,-1.30732c-0.23192,-0.87155 -0.11596,-1.74309 0.11596,-2.39675c0.23193,-0.65366 0.57981,-1.08943 0.57981,-1.08943z" fill="#687a27"></path></g><g data-paper-data="{&quot;index&quot;:null}"><path d="M270.51534,226.03192c2.25898,1.16068 6.37394,9.05193 7.95132,10.6677c1.57737,1.61577 1.60403,5.82376 -2.59009,-0.34653c0,0 0.43803,5.63851 -1.3049,4.4298c-1.74293,-1.2087 -1.51765,-4.50992 -1.51765,-4.50992c0,0 -3.74166,5.53777 -4.71048,4.25705c-0.96882,-1.28071 1.37796,-5.21993 1.37796,-5.21993c0,0 -3.63694,4.05924 -4.09941,2.14392c-0.29332,-0.80502 2.74839,-3.09532 0.54301,-6.21936" fill="#a3b339"></path><path d="M263.02093,197.45163c8.10021,-3.74012 13.17426,4.84525 9.7759,7.70728c-3.43974,2.96381 -4.50354,3.74821 -6.12731,7.13058c-1.62377,3.38238 4.77572,12.67673 6.61836,17.30328c1.80124,4.72833 -3.85609,6.42968 -8.06243,2.12096c-3.61361,-3.6295 -13.09981,-12.04915 -14.02224,-18.32801c-0.92243,-6.27886 3.86722,-12.25685 11.81772,-15.93407z" fill="#a3b339"></path><path d="M265.77791,236.4603c0,0 0.08276,-0.20354 0.01583,-0.34418c0.23249,-0.26643 0.39803,-0.67351 0.49663,-1.22123c0.09861,-0.54772 0.13027,-1.2361 -0.43691,-1.67291c-0.28359,-0.21842 -0.67549,-0.4757 -1.06741,-0.733c-0.39192,-0.25729 -0.85077,-0.65525 -1.2013,-1.0143c-1.55182,-1.37336 -3.34585,-3.06688 -5.16543,-5.00284c-0.94326,-1.03831 -1.7782,-2.03773 -2.72146,-3.07603c-0.79355,-1.10119 -1.73679,-2.13948 -2.48897,-3.34244c-0.75218,-1.20296 -1.50434,-2.40593 -2.10679,-3.67176c-0.22637,-0.66436 -0.49412,-1.22696 -0.67912,-1.99309c-0.0925,-0.38307 -0.18498,-0.76614 -0.16915,-1.11032c-0.0925,-0.38306 -0.11804,-0.62549 -0.10221,-0.96967c-0.04501,-1.41563 0.3433,-2.67572 0.69022,-3.83406c0.45524,-1.11946 1.01881,-2.20004 1.60793,-3.03818c1.21964,-1.77808 2.55731,-2.93066 3.51279,-3.75395c0.5319,-0.39221 0.91412,-0.72153 1.21353,-0.84729c0.34081,-0.22755 0.49052,-0.29044 0.49052,-0.29044c0,0 -0.5319,0.39219 -1.37907,1.25435c-0.73883,0.90105 -1.90125,2.23317 -2.86284,3.98724c-0.48079,0.87704 -0.89466,1.89471 -1.20019,2.95129c-0.30553,1.05657 -0.43581,2.29266 -0.37497,3.36411c-0.01583,0.34418 0.11804,0.62548 0.10221,0.96967c0.02555,0.24242 0.00973,0.58662 0.1436,0.8679c0.11806,0.62549 0.38581,1.18809 0.65357,1.75068c0.64384,1.16408 1.28767,2.32816 2.08122,3.42934c0.79355,1.10119 1.5871,2.20239 2.42204,3.20181c0.94326,1.0383 1.77819,2.03772 2.61312,3.03714c1.71125,1.89707 3.35556,3.6535 4.86601,5.12863c0.45885,0.39794 0.70105,0.71812 1.09297,0.97542c0.35054,0.35905 0.74244,0.61635 1.05159,1.07717c0.35052,0.35907 0.50995,0.88279 0.45273,1.32874c-0.05722,0.44596 -0.18138,0.75128 -0.30554,1.05657c-0.35664,0.57174 -0.6305,0.93992 -0.86298,1.20635c-0.23249,0.26643 -0.38219,0.32931 -0.38219,0.32931z" fill="#687a27"></path><path d="M272.72683,228.22514c0,0 -1.11852,-1.21783 -2.48897,-3.34243c-0.41746,-0.49972 -0.79355,-1.10119 -1.16963,-1.70267c-0.3347,-0.70325 -0.8191,-1.3436 -1.1538,-2.04685c-0.77772,-1.44538 -1.51405,-2.99252 -1.95096,-4.66544c-0.29331,-0.80503 -0.43692,-1.67292 -0.4308,-2.60371c0.05722,-0.44595 0.0061,-0.93078 0.17165,-1.33787c0.08277,-0.20355 0.08278,-0.20355 0.16554,-0.40707l0.12416,-0.3053c0.08276,-0.20354 0.16554,-0.40706 0.24831,-0.61061c0.4808,-0.87704 0.94577,-1.4099 1.45212,-2.04451c0.50635,-0.63461 0.97131,-1.16747 1.50321,-1.55967c1.95235,-1.74833 3.59918,-2.4401 3.59918,-2.4401c0,0 -0.3822,0.32931 -0.84716,0.86216c-0.57329,0.49397 -1.27073,1.29323 -2.05095,2.29606c-0.31526,0.46995 -0.78022,1.0028 -1.13686,1.57454c-0.35664,0.57173 -0.75468,1.24523 -1.00299,1.85585c-0.43941,0.77525 -0.538,1.32298 -0.46135,2.05024c-0.03166,0.68838 0.15332,1.45452 0.3383,2.22065c0.36997,1.53227 0.95659,3.14231 1.51765,4.50993c0.66939,1.4065 1.23046,2.77411 1.76597,3.89931c1.07102,2.25038 1.80735,3.79753 1.80735,3.79753z" fill="#687a27"></path><path d="M279.28936,239.5606c0,0 0.06693,0.14065 -0.12416,0.3053c-0.14971,0.06291 -0.44913,0.18867 -0.81549,0.1738c-0.36637,-0.01487 -0.69134,-0.13152 -0.97492,-0.34993c-0.32497,-0.11665 -0.60856,-0.33504 -0.85077,-0.65523c-0.41746,-0.49972 -0.64385,-1.16408 -0.69495,-1.64892c-0.15943,-0.52372 0.00612,-0.93078 0.00612,-0.93078c0,0 0.4333,0.15552 0.82522,0.4128c0.54163,0.19441 1.00047,0.59236 1.30961,1.05318c0.30915,0.46083 0.6183,0.92167 0.75217,1.20296c0.17527,0.17953 0.24221,0.32018 0.35053,0.35907c0.10833,0.03888 0.21664,0.07776 0.21664,0.07776z" fill="#687a27"></path><path d="M274.57168,240.78286c0,0 -0.36636,-0.01486 -0.82521,-0.4128c-0.50023,-0.29617 -1.02604,-0.83476 -1.25241,-1.49913c-0.13388,-0.2813 -0.22637,-0.66437 -0.21054,-1.00854c0.01583,-0.3442 0.09861,-0.54774 0.22277,-0.85303c0.08277,-0.20353 0.20692,-0.50883 0.35664,-0.57172c0.14971,-0.06289 0.1911,-0.16465 0.1911,-0.16465c0,0 0.10832,0.03888 0.17526,0.17952c0.06694,0.14066 0.09249,0.38308 0.26775,0.56261c0.30914,0.46083 0.50997,0.88277 0.66939,1.40649c0.15943,0.52372 0.31887,1.04744 0.36997,1.53227c0.09249,0.38305 0.03527,0.82901 0.03527,0.82901z" fill="#687a27"></path><path d="M268.30214,240.63182c0,0 -0.10833,-0.03889 -0.24221,-0.32018c-0.17526,-0.17953 -0.35053,-0.35907 -0.4844,-0.64035c-0.13389,-0.2813 -0.22637,-0.66438 -0.21054,-1.00855c0.01583,-0.3442 0.07305,-0.79015 0.19721,-1.09545c0.28971,-0.71238 0.64635,-1.28411 1.17825,-1.67632c0.49052,-0.29044 0.93965,-0.47909 0.93965,-0.47909c0,0 0.0925,0.38306 -0.00611,0.93078c-0.01583,0.34418 -0.09861,0.54772 -0.11443,0.89191c-0.08278,0.20354 -0.09861,0.54774 -0.22276,0.85303c-0.13999,0.6495 -0.45524,1.11944 -0.66217,1.6283c-0.08276,0.20354 -0.16554,0.40708 -0.24831,0.61062c-0.08278,0.20353 -0.12416,0.30529 -0.12416,0.30529z" fill="#687a27"></path></g><g data-paper-data="{&quot;index&quot;:null}"><path d="M291.98342,172.18718c-5.05947,0 -9.16097,-3.85326 -9.16097,-8.60649c0,-4.75324 4.10151,-8.60649 9.16097,-8.60649c5.05947,0 9.16097,3.85326 9.16097,8.60649c0,4.75324 -4.10151,8.60649 -9.16097,8.60649z" fill="#a3b339"></path><path d="M300.21671,159.76768c0,0 -0.23193,-0.21788 -0.46385,-0.65366c-0.34789,-0.43577 -1.04366,-1.08942 -1.85539,-1.63414c-0.34789,-0.21788 -0.81173,-0.54472 -1.39154,-0.7626c-0.5798,-0.21789 -1.15961,-0.43577 -1.73942,-0.54472c-0.69577,-0.10894 -1.27558,-0.21788 -1.97135,-0.21788c-0.57981,0 -1.39154,0 -1.97135,0.10894c-0.34788,0.10894 -0.69577,0.10894 -1.04365,0.21788l-0.92769,0.32682c-0.34788,0.21789 -0.69577,0.32683 -0.92769,0.43577c-0.23192,0.10895 -0.57981,0.21789 -0.81173,0.43577c-0.46385,0.32683 -1.04366,0.65366 -1.39154,1.08943c-0.34788,0.32683 -0.69577,0.7626 -1.04365,1.19837c-0.57981,0.87154 -1.04366,1.63414 -1.27558,2.17886c-0.34789,0.54472 -0.46385,0.87154 -0.46385,0.87154c0,0 -0.11596,-0.32682 0,-0.98048c0,-0.54472 0.23192,-1.52521 0.69577,-2.50569c0.46384,-1.08943 1.15961,-2.17887 2.31923,-3.15935c0.23192,-0.21788 0.57981,-0.43577 0.92769,-0.65366c0.34788,-0.21789 0.69577,-0.32683 1.04365,-0.54472c0.34789,-0.21789 0.69577,-0.32683 1.15962,-0.43577c0.34788,-0.10894 0.69577,-0.10894 1.04365,-0.21788c0.92769,-0.10894 1.62346,-0.10894 2.43519,-0.10894c0.81173,0.10895 1.62346,0.21789 2.31923,0.43577c0.69577,0.21788 1.39154,0.54472 1.97135,0.87154c0.57981,0.32683 1.15962,0.7626 1.5075,1.19837c0.81173,0.7626 1.27558,1.63414 1.5075,2.17886c0.23192,0.54472 0.34788,0.87154 0.34788,0.87154z" fill="#687a27"></path></g><path d="M304.73924,169.35466c0,0 -0.57981,-0.54472 -1.27558,-1.19837c-0.57981,-0.43577 -1.15962,-0.87154 -1.97135,-1.41626c-0.81173,-0.54471 -1.73943,-1.08942 -2.78308,-1.63414c-1.04366,-0.43577 -2.20327,-0.98048 -3.47885,-1.41626c-1.27558,-0.43577 -2.66712,-0.76261 -4.05866,-1.08943c-1.39154,-0.21789 -2.89904,-0.43577 -4.40654,-0.43577c-1.5075,-0.10894 -3.015,-0.10894 -4.63846,0c-1.62347,0 -3.13097,0.10894 -4.75443,0.10894c-1.5075,0.10894 -3.015,0.10894 -4.5225,0.21788c-1.5075,0.10894 -2.89904,0.32683 -4.17462,0.54472c-1.27558,0.21788 -2.55116,0.65366 -3.59481,0.98048c-1.15962,0.43577 -2.08731,0.87154 -2.89904,1.30732c-0.46385,0.21788 -0.81174,0.43577 -1.15962,0.65366c-0.34788,0.21788 -0.69577,0.43577 -0.92769,0.65366c-0.57981,0.43577 -0.9277,0.7626 -1.27558,0.98048c-0.34789,0.21788 -0.46385,0.32682 -0.46385,0.32682c0,0 0.11596,-0.10895 0.34788,-0.43577c0.23192,-0.32683 0.5798,-0.7626 1.04365,-1.19837c0.23192,-0.21788 0.46385,-0.43577 0.81173,-0.7626c0.34788,-0.32682 0.69577,-0.54472 1.04365,-0.87154c0.34789,-0.32682 0.81173,-0.54472 1.27558,-0.87154c0.46385,-0.32682 0.92769,-0.54472 1.5075,-0.87154c1.04365,-0.54472 2.31923,-0.98049 3.71077,-1.30732c1.27558,-0.32682 2.78308,-0.65366 4.29058,-0.7626c3.015,-0.32683 6.26193,-0.43577 9.39289,-0.54472c1.62346,0 3.24693,-0.10894 4.87039,0c1.62346,0.10894 3.13096,0.32683 4.63846,0.65366c1.5075,0.32683 2.89904,0.7626 4.17462,1.30732c1.27558,0.43577 2.4352,1.08943 3.47885,1.74309c1.04366,0.65366 1.97135,1.30732 2.66712,1.96097c0.69577,0.65366 1.27557,1.19837 1.73942,1.74309c0.46384,0.54472 0.81173,0.87155 1.04365,1.19837c0.23192,0.32683 0.34788,0.43577 0.34788,0.43577z" data-paper-data="{&quot;index&quot;:null}" fill="#687a27"></path><g data-paper-data="{&quot;index&quot;:null}"><path d="M308.68188,177.96115c0,3.70405 -4.5225,12.52843 -20.75713,19.71866c-7.76943,3.37723 -7.42154,2.61463 -25.16367,24.40321c-17.74213,21.78859 -60.99581,18.73818 -66.44601,6.64552c-5.45019,-12.09266 0.23192,-36.82271 12.06001,-41.39831c11.82809,-4.57559 40.12272,-7.95282 47.66023,-17.10403c7.42154,-9.04226 18.78578,-9.36909 32.23733,-8.82437c13.45155,0.54472 20.40925,11.98372 20.40925,16.55933z" fill="#a3b339"></path><path d="M307.52226,182.86356c0,0 -2.20327,0.87155 -5.68212,1.85203c-3.24693,1.08943 -7.53751,2.50569 -11.82809,4.03089c-1.04365,0.43577 -2.08731,0.87155 -3.13096,1.19837c-1.04365,0.32683 -2.08731,0.76261 -3.13096,1.08943c-2.08731,0.65366 -4.05866,1.08943 -5.79808,1.30732c-1.73942,0.21788 -3.24693,0.21788 -4.29058,0.10894c-1.04365,-0.10894 -1.62346,-0.32682 -1.62346,-0.32682c0,0 0.57981,0.10894 1.62346,0c1.04366,0 2.4352,-0.21788 4.05866,-0.65366c0.81173,-0.21788 1.73943,-0.43577 2.66712,-0.7626c0.92769,-0.21788 1.97135,-0.54471 2.89904,-0.98048c0.92769,-0.32683 1.97135,-0.7626 3.015,-1.19837c1.04366,-0.43577 2.20328,-0.87154 3.24693,-1.30732c1.04366,-0.32683 2.20328,-0.76261 3.24693,-1.08943c1.15962,-0.32682 2.20328,-0.65366 3.24693,-0.98048c2.08731,-0.65366 4.05866,-1.08943 5.79808,-1.41626c3.36289,-0.65366 5.68212,-0.87154 5.68212,-0.87154z" fill="#687a27"></path><path d="M296.27398,175.23757c0,0 -0.11596,-0.10894 0,-0.21788c0,-0.10894 -0.11596,-0.10894 -0.23192,-0.21788c-0.11596,-0.10894 -0.23192,-0.10894 -0.34788,-0.21788c-0.46384,-0.21788 -1.04365,-0.54472 -1.73942,-0.7626c-0.5798,-0.21789 -1.27557,-0.54472 -1.73942,-0.54472h-0.11596h-0.11596c0,0 -0.11596,0 -0.11596,0.10894c0,0.10894 0,0.21788 0,0.21788c0,0 -0.11596,0 -0.23192,-0.21788c0,-0.10895 0,-0.32683 0,-0.43577c0,0 0,-0.10894 0.11596,-0.21788c0,0 0.11596,-0.10894 0.23192,-0.10894c0.23193,0 0.34789,-0.10894 0.57981,-0.10894c0.11596,0 0.34789,0 0.57981,0c0.34789,0.10894 0.81174,0.21788 1.15962,0.32682c0.34788,0.21788 0.69577,0.43577 1.04365,0.65366c0.23192,0.21788 0.57981,0.43577 0.69577,0.7626c0.11596,0.32682 0.23192,0.65366 0.23192,0.7626c0,0.10894 0,0.21788 0,0.21788z" fill="#687a27"></path><path d="M303.34768,187.87496c0,0 -0.23192,0.32682 -0.81173,0.7626c-0.57981,0.54472 -1.39154,1.19837 -2.55116,2.06991c-1.15962,0.87154 -2.55116,1.85202 -4.17462,2.94146c-1.62346,1.08943 -3.47885,2.2878 -5.68212,3.37723c-2.20327,0.98048 -4.63847,1.96097 -6.9577,3.37723c-2.31923,1.41626 -4.40654,3.37723 -6.37789,5.44714c-1.97135,2.06991 -3.71077,4.46665 -5.56616,6.97234c-1.85538,2.50569 -3.71077,5.01137 -5.79808,7.40812c-2.08731,2.39675 -4.40655,4.68455 -6.84174,6.75446c-2.4352,2.06991 -5.10231,3.81301 -7.76943,5.22926c-5.33423,2.83251 -11.01635,4.46666 -15.88674,5.22926c-2.43519,0.32683 -4.75442,0.54472 -6.72577,0.65366c-0.92769,0.10894 -1.97135,0.10894 -2.78308,0.10894c-0.81173,0 -1.62346,0 -2.31923,0c-1.5075,0 -2.55116,-0.10894 -3.36289,-0.10894c-0.69577,-0.10894 -1.15962,-0.10894 -1.15962,-0.10894c0,0 0.34789,0 1.15962,0c0.81173,0 1.97135,0 3.36289,-0.10894c0.69577,0 1.5075,0 2.31923,-0.10894c0.92769,0 1.85539,-0.10894 2.78308,-0.21788c1.97135,-0.21788 4.05866,-0.54471 6.49385,-0.98048c4.75442,-0.98048 10.08866,-2.72357 15.30693,-5.66503c2.55115,-1.5252 5.10231,-3.26829 7.42154,-5.22926c2.43519,-1.96097 4.5225,-4.13983 6.60981,-6.53658c2.08731,-2.28781 3.94269,-4.79349 5.79808,-7.29918c1.73942,-2.50569 3.71077,-4.90244 5.79808,-7.08129c2.08731,-2.17886 4.40655,-4.03089 6.84174,-5.44714c2.43519,-1.30732 4.98635,-2.28781 7.18962,-3.15935c2.20327,-0.98049 4.05866,-2.06992 5.79808,-3.05041c1.62346,-0.98049 3.13096,-1.85203 4.29058,-2.61463c1.15962,-0.7626 2.08731,-1.41626 2.66712,-1.85203c0.69577,-0.43577 0.92769,-0.7626 0.92769,-0.7626z" fill="#687a27"></path></g><g data-paper-data="{&quot;index&quot;:null}"><g fill="#a3b339"><path d="M190.05315,233.73992c-0.34788,7.19024 -10.90039,12.74632 -12.87174,4.68455c-1.97134,-8.06178 2.31924,-24.40322 6.9577,-23.96744c6.03,0.65366 6.26192,12.09266 5.91404,19.2829z"></path><path d="M190.16912,233.84887c-0.92769,3.26829 -1.15962,7.84389 1.39154,8.06178c2.55116,0.21789 8.11732,2.17887 6.26193,3.70406c-1.85539,1.5252 -9.74078,-2.39675 -9.74078,-2.39675c0,0 8.34924,5.66504 6.49385,7.19024c-1.85538,1.52521 -9.50885,-6.31869 -9.50885,-6.31869c0,0 5.33423,6.97234 3.015,6.97234c-2.31924,0 -5.10231,-7.626 -6.9577,-7.626c-1.85539,0 0,7.19023 -2.78308,5.66503c-2.78308,-1.52521 -2.08731,-13.83575 -0.92769,-15.79673"></path></g><path d="M203.73664,222.19196c8.23327,9.58698 12.9877,19.06502 5.33423,21.24387c-4.40654,1.30732 -28.52656,-8.71543 -28.52656,-22.44224c0,-13.7268 14.95904,-8.3886 23.19232,1.19837z" fill="#a3b339"></path><path d="M195.50335,208.13835c4.63846,-6.42764 18.20597,-13.61787 23.88809,5.66503c3.59481,12.41949 1.97135,29.9593 -10.32058,29.63247c-12.29193,-0.32683 -18.20597,-28.65199 -13.56751,-35.29751z" fill="#a3b339"></path><path d="M219.85529,215.87328c0,0 0.11596,0.21788 0.23192,0.7626c0.11597,0.43577 0.23193,0.98049 0.46385,1.85203c0.34788,1.63414 0.81173,4.03089 1.04365,6.97234c0.11596,1.41626 0.11596,3.05041 0,4.68455c-0.11596,1.63415 -0.34788,3.37723 -0.81173,5.22926c-0.46385,1.85203 -1.27558,3.70406 -2.66712,5.3382c-1.39154,1.63415 -3.59481,2.83252 -5.79808,3.05041l-1.5075,0.21788l-1.62346,0.10894h-1.62346l-1.62346,-0.10894c-2.08731,-0.10894 -4.05865,-0.65366 -5.91404,-1.30732c-3.71077,-1.30732 -6.72577,-3.37723 -8.92904,-5.44714c-1.15962,-0.98048 -2.08731,-2.06991 -2.89904,-2.94146c-0.81173,-0.98049 -1.5075,-1.85203 -1.97135,-2.50569c-0.92769,-1.41626 -1.39154,-2.2878 -1.39154,-2.2878c0,0 0.5798,0.7626 1.73942,2.06991c1.15961,1.30732 2.89904,3.0504 5.21827,4.90243c2.31923,1.85203 5.33423,3.70405 8.81308,4.79349c1.73943,0.54472 3.59481,0.98049 5.56616,1.08943l1.5075,0.10894h1.5075l1.39154,-0.10894l1.5075,-0.21788c1.85538,-0.32683 3.47884,-1.19837 4.63846,-2.50569c1.15961,-1.30732 1.85538,-2.94146 2.43519,-4.5756c1.04366,-3.37723 1.15962,-6.75446 1.27558,-9.58697c0.11596,-2.94146 0,-5.3382 -0.23192,-6.97234c-0.11596,-0.87154 -0.11596,-1.5252 -0.23192,-1.96097c0,-0.43577 -0.11596,-0.65366 -0.11596,-0.65366z" fill="#687a27"></path><path d="M190.16912,213.04077c0,0 -0.57981,-0.21788 -1.62346,-0.10894c-0.46384,-0.10894 -1.04365,0 -1.62346,0c-0.57981,0 -1.27558,0.10895 -1.97135,0.43577c-0.34788,0.10895 -0.69577,0.32683 -1.04365,0.43577c-0.23192,0.21788 -0.69577,0.32683 -0.92769,0.65366c-0.23192,0.21788 -0.57981,0.54472 -0.81173,0.87154c-0.34788,0.21788 -0.57981,0.65366 -0.81173,0.98048c-0.57981,0.65366 -0.9277,1.52521 -1.27558,2.39675c-0.34788,0.87154 -0.69577,1.85203 -0.92769,2.72357c-0.23192,0.98048 -0.46385,1.85203 -0.69577,2.83251c-0.23193,0.87154 -0.46385,1.85203 -0.57981,2.72357c-0.34788,1.74308 -0.57981,3.48617 -0.81173,4.90243c-0.23193,1.41626 -0.34789,2.61463 -0.46385,3.48617c0,0.43577 0,0.7626 0,0.98048c0,0.10894 0.11596,0.21788 0.11596,0.21788c0.11596,0 0.11596,0 0.11596,0c0,0 0,0.10894 -0.11596,0.10894c0,0 -0.11596,-0.10894 -0.11596,-0.21788c-0.11596,-0.21788 -0.11596,-0.54471 -0.23192,-0.98048c-0.11596,-0.87154 -0.23192,-2.06991 -0.23192,-3.59511c-0.11596,-1.52521 0,-3.26829 0.23192,-5.12032c0.11597,-0.87154 0.23193,-1.85203 0.46385,-2.83251c0.23192,-0.98048 0.46385,-1.96097 0.69577,-2.94146c0.34788,-0.98048 0.69577,-1.85203 1.04365,-2.83251c0.23192,-0.43577 0.46385,-0.87154 0.69577,-1.30732c0.23192,-0.43577 0.46385,-0.87154 0.81173,-1.30732c0.34788,-0.32683 0.69577,-0.76261 1.04365,-1.08943c0.34789,-0.32682 0.81174,-0.65366 1.15962,-0.87154c0.46385,-0.21788 0.9277,-0.43577 1.27558,-0.65366c0.46385,-0.21789 0.81173,-0.32683 1.27558,-0.43577c0.81173,-0.21788 1.5075,-0.21788 2.20327,-0.21788c0.69577,0.10894 1.27557,0.21788 1.73942,0.32682c0.46384,0.10894 0.81173,0.21788 1.04365,0.32682c0.23192,0 0.34788,0.10894 0.34788,0.10894z" fill="#687a27"></path><path d="M181.58796,243.32689c0.34789,0.10894 0.69577,0.32683 1.15962,0.65366c0.46385,0.32683 0.81173,0.7626 1.27558,1.30732c0.46385,0.43577 0.81174,0.98048 1.15962,1.5252c0.69577,1.08942 1.27557,2.17886 1.73942,2.94146c0.23192,0.43577 0.46385,0.7626 0.69577,0.87154c0.11596,0 0.23192,0.10894 0.34788,0.10894c0.11596,0 0.11596,0 0.11596,0c0,-0.10894 -0.11597,0.10894 -0.46385,0.10894c-0.34789,0 -0.92769,-0.10895 -1.39154,-0.43577c-1.04366,-0.54472 -1.97135,-1.63414 -2.66712,-2.72357c-0.34788,-0.54471 -0.69577,-1.08942 -0.92769,-1.63414c-0.23192,-0.54472 -0.46385,-0.98048 -0.69577,-1.41626c-0.23193,-0.32682 -0.46385,-0.7626 -0.57981,-0.98048c-0.11596,-0.21788 -0.23192,-0.32682 -0.23192,-0.32682c0,0 0.23193,0 0.46385,0z" fill="#687a27"></path><path d="M186.80622,244.85209c0.92769,0.65366 2.08731,1.52521 3.13096,2.39675c0.57981,0.43577 1.15961,0.87154 1.62346,1.30732c0.23192,0.21789 0.46385,0.43577 0.69577,0.54472c0.23192,0.10895 0.46385,0.32683 0.69577,0.43577c0.23193,0.10894 0.34789,0.21788 0.57981,0.32682c0.23193,0.10894 0.46385,0.21788 0.57981,0.21788c0.23193,0 0.46385,0.10894 0.46385,0.10894c0,0 -0.11597,0.10894 -0.46385,0.21788c-0.23192,0.10894 -0.46385,0.10894 -0.69577,0.10894c-0.23192,0.10894 -0.46385,0.10894 -0.81173,0c-0.23192,0 -0.57981,-0.10894 -0.92769,-0.21788c-0.34788,-0.10895 -0.69577,-0.32683 -1.04365,-0.43577c-0.69577,-0.32683 -1.39154,-0.7626 -1.97135,-1.19837c-0.57981,-0.43577 -1.15961,-0.98048 -1.62346,-1.5252c-0.46385,-0.54472 -0.9277,-1.08942 -1.15962,-1.5252c-0.57981,-0.87154 -0.81173,-1.63414 -0.81173,-1.63414c0,0 0.69577,0.32682 1.73942,0.87154z" fill="#687a27"></path><path d="M197.70663,245.50577c0,0 0,0.21788 -0.34788,0.32682c-0.34789,0.21789 -0.69577,0.32683 -1.27558,0.43577c-0.46384,0.10894 -1.15961,0.10894 -1.73942,0c-0.57981,-0.10895 -1.27558,-0.21789 -1.85539,-0.43577c-1.27558,-0.43577 -2.4352,-1.08942 -3.24693,-1.63414c-0.81173,-0.54472 -1.27558,-1.08943 -1.27558,-1.08943c0,0 0.69577,-0.10894 1.62346,0.10894c0.9277,0.21788 2.20327,0.54472 3.36289,0.87154c0.5798,0.10894 1.15961,0.32683 1.73942,0.54472c0.57981,0.21789 1.04365,0.43577 1.5075,0.54472c0.46384,0.21788 0.81173,0.32682 1.04365,0.32682c0.34789,0.10894 0.46385,0 0.46385,0z" fill="#687a27"></path><path d="M190.40103,236.24561c0.11596,0.65366 0.23192,1.41626 0.23192,2.17886c0,0.7626 0,1.5252 0,2.06991c0,0.21789 0,0.32683 0,0.43577c0.11596,0.10894 0.11596,0.21788 0.11596,0.32682c0.11596,0.21788 0.11596,0.32682 0.11596,0.32682c0,0 -0.11596,0 -0.34788,-0.10894c-0.11596,-0.10894 -0.23192,-0.10894 -0.34788,-0.21788c-0.23193,-0.10894 -0.34789,-0.21788 -0.46385,-0.32682c-0.34789,-0.32683 -0.57981,-0.65366 -0.69577,-1.08943c-0.11596,-0.43577 -0.23192,-0.87154 -0.23192,-1.30732c0,-0.98049 0.23193,-1.85203 0.57981,-2.39675c0.23192,-0.65366 0.69577,-0.98048 0.69577,-0.98048c0,0 0.11596,0.43577 0.34788,1.08943z" fill="#687a27"></path><path d="M217.18816,184.7156c0,0 -1.15962,0.10894 -2.78308,0.65366c-1.73943,0.43577 -4.29058,1.30732 -6.84174,2.94146c-1.39154,0.87155 -2.66711,1.85203 -3.82673,3.05041c-1.15961,1.30731 -2.20327,2.72357 -3.015,4.35771c-1.62346,3.37723 -3.13096,6.97234 -4.29058,10.78535c-0.57981,1.85202 -1.04366,3.813 -1.27558,5.66503c-0.34788,1.85202 -0.34788,3.70405 -0.34788,5.55609c0,1.85203 0.23193,3.59512 0.57981,5.22926c0.34789,1.63415 0.81173,3.15935 1.27558,4.5756c0.46385,1.41626 1.04365,2.72357 1.5075,3.81301c0.46385,1.08942 0.92769,2.06991 1.39154,2.83251c0.92769,1.52521 1.39154,2.39675 1.39154,2.39675c0,0 -0.11597,-0.21789 -0.46385,-0.54472c-0.34789,-0.32682 -0.81173,-0.87154 -1.27558,-1.63414c-0.46384,-0.7626 -1.15961,-1.63414 -1.73942,-2.72357c-0.57981,-1.08943 -1.27558,-2.28781 -1.85539,-3.70406c-1.15961,-2.83251 -2.20327,-6.31869 -2.43519,-10.13169c-0.11596,-1.96097 0,-3.92195 0.23192,-5.88292c0.23193,-2.06991 0.69577,-4.03089 1.27558,-5.99186c1.15961,-3.92194 2.89904,-7.626 4.63846,-11.00323c0.92769,-1.74309 2.20327,-3.26829 3.47885,-4.5756c1.27558,-1.19836 2.78308,-2.17886 4.17462,-2.94146c1.39154,-0.7626 2.78308,-1.19836 4.05866,-1.63414c1.27558,-0.32682 2.31924,-0.54472 3.24693,-0.7626c1.85539,-0.32682 2.89904,-0.32682 2.89904,-0.32682z" fill="#687a27"></path></g><g data-paper-data="{&quot;index&quot;:null}" fill="#969330"><path d="M201.41739,200.29444c3.47885,2.72357 1.85538,8.71543 -1.27558,6.53658c-3.015,-2.17887 -1.73942,-9.04227 1.27558,-6.53658z"></path><path d="M213.70932,202.80013c5.4502,2.39674 3.47885,10.02275 -1.5075,8.82437c-4.98635,-1.19837 -4.17462,-11.33006 1.5075,-8.82437z"></path><path d="M207.67932,191.68795c5.45019,-2.39674 6.95769,4.68455 3.13096,7.29918c-9.85673,6.64552 -8.58116,-4.79349 -3.13096,-7.29918z"></path></g><path d="M279.22764,207.37575c0,0 -0.92769,0 -2.31923,-0.10894c-1.39154,-0.10894 -3.47884,-0.32682 -6.03,-0.87154c-1.15961,-0.21788 -2.43519,-0.54471 -3.82673,-0.98048c-1.27558,-0.43577 -2.78308,-0.87154 -4.17462,-1.5252c-1.5075,-0.54472 -2.89904,-1.30732 -4.29058,-2.06991c-1.39154,-0.87154 -2.78308,-1.74308 -4.05866,-2.83251c-1.27558,-0.98048 -2.4352,-2.17886 -3.47885,-3.37723c-1.04366,-1.19837 -1.85539,-2.50569 -2.66712,-3.81301c-0.81174,-1.30732 -1.39154,-2.61463 -1.85539,-3.92195c-0.23192,-0.65366 -0.57981,-1.19837 -0.69577,-1.85203c-0.11597,-0.54472 -0.34789,-1.19837 -0.46385,-1.74309c-0.23193,-1.19837 -0.46385,-2.17887 -0.46385,-3.15935c0,-0.87155 -0.11596,-1.74309 -0.11596,-2.39675c0,-1.30732 0,-2.06991 0,-2.06991c0,0 0.11596,0.7626 0.34788,2.06991c0.11597,0.65366 0.23193,1.52521 0.46385,2.39675c0,0.43577 0.23192,0.87154 0.34788,1.41626c0.11597,0.43577 0.34789,0.98048 0.46385,1.5252c0.46385,0.98048 0.81173,2.17886 1.39154,3.37723c0.57981,1.19836 1.15962,2.39674 1.97135,3.59511c0.69577,1.19837 1.73943,2.39674 2.66712,3.48617c1.04366,1.08943 2.08731,2.17887 3.36289,3.15935c1.27557,1.08943 2.55115,1.85203 3.82673,2.72357c1.39154,0.7626 2.66712,1.5252 4.05866,2.17886c2.66712,1.30732 5.33424,2.2878 7.65347,2.94146c2.31923,0.65366 4.29058,1.19837 5.68212,1.41626c1.39154,0.32683 2.20327,0.43577 2.20327,0.43577z" data-paper-data="{&quot;index&quot;:null}" fill="#4a3369"></path><path d="M243.16358,176.87171c0,0 -3.24693,0.10894 -7.76943,0.98048c-1.27557,0.10894 -2.43519,0.43577 -3.82673,0.65366c-1.39154,0.21788 -2.78308,0.54472 -4.17462,0.87154c-1.39154,0.43577 -2.89904,0.7626 -4.40654,1.19837c-1.5075,0.43577 -3.015,0.87154 -4.5225,1.41626c-1.5075,0.43577 -3.015,1.08942 -4.40654,1.63414c-1.5075,0.54472 -2.78308,1.19837 -4.17462,1.74309c-1.39154,0.54472 -2.55115,1.30732 -3.82673,1.85203c-1.27558,0.54472 -2.31924,1.19837 -3.36289,1.74309c-1.04366,0.54472 -1.97135,0.98048 -2.78308,1.5252c-0.81173,0.54472 -1.5075,0.98049 -2.08731,1.30732c-1.15962,0.65366 -1.85539,1.08943 -1.85539,1.08943c0,0 0.57981,-0.54472 1.62346,-1.41626c0.46385,-0.43577 1.15962,-0.87154 1.85539,-1.5252c0.81173,-0.54472 1.73943,-1.19837 2.66712,-1.85203c1.04366,-0.65366 2.08731,-1.41626 3.24693,-2.06991c1.15961,-0.65366 2.31923,-1.41626 3.71077,-2.06991c0.69577,-0.32682 1.39154,-0.65366 2.08731,-0.98048c0.69577,-0.32682 1.39154,-0.7626 2.08731,-0.98048c1.5075,-0.65366 3.015,-1.30732 4.5225,-1.74309c1.62346,-0.54472 3.13096,-0.98048 4.63846,-1.41626c1.5075,-0.54472 3.015,-0.76261 4.5225,-1.08943c1.5075,-0.32683 2.89904,-0.43577 4.29058,-0.65366c1.39154,-0.10894 2.78308,-0.32682 3.9427,-0.32682c4.75442,-0.32683 8.00135,0.10894 8.00135,0.10894z" data-paper-data="{&quot;index&quot;:null}" fill="#4a3369"></path><path d="M239.91667,230.36267c0,0 -0.9277,0.10895 -2.66712,-0.32682c-1.73943,-0.10895 -4.17462,-0.43577 -6.9577,-1.08943c-1.39154,-0.32683 -2.89904,-0.7626 -4.5225,-1.30732c-1.62346,-0.65366 -3.24693,-1.30732 -4.87039,-2.06991c-1.62346,-0.7626 -3.24693,-1.74309 -4.87039,-2.72357c-1.62346,-0.98048 -3.13096,-2.17886 -4.63846,-3.37723c-1.5075,-1.19837 -2.89904,-2.61463 -4.17462,-3.92195c-1.27558,-1.41626 -2.4352,-2.83251 -3.47885,-4.24877c-0.9277,-1.41626 -1.85539,-2.83251 -2.66712,-4.24877c-0.81173,-1.41626 -1.39154,-2.72357 -1.97135,-4.03089c-0.57981,-1.19837 -1.04366,-2.39674 -1.39154,-3.48617c-0.34788,-0.98048 -0.69577,-1.96097 -0.92769,-2.72357c-0.46385,-1.52521 -0.69577,-2.39675 -0.69577,-2.39675c0,0 0.46384,0.7626 1.04365,2.2878c0.23193,0.7626 0.69577,1.63415 1.15962,2.61463c0.46384,1.08943 1.15961,2.17886 1.73942,3.37723c0.23192,0.65366 0.69577,1.19837 1.04365,1.85203c0.34789,0.65366 0.69577,1.30732 1.15962,1.96097c0.92769,1.30732 1.85539,2.61463 2.89904,4.03089c0.46384,0.7626 1.04365,1.41626 1.62346,2.06991c0.69577,0.65366 1.27558,1.30732 1.85539,1.96097c1.27558,1.30732 2.66712,2.50569 4.05866,3.70406c1.39154,1.30732 2.89904,2.39675 4.40654,3.37723c1.5075,0.98048 3.015,1.96097 4.63846,2.72357c3.13096,1.74309 6.26192,2.94146 8.92904,3.81301c1.27558,0.43577 2.55115,0.76261 3.71077,1.08943c1.04365,0.32683 2.08731,0.54472 2.89904,0.65366c1.73943,0.32683 2.66712,0.43577 2.66712,0.43577z" data-paper-data="{&quot;index&quot;:null}" fill="#4a3369"></path><path d="M277.48822,208.46516c0,0 -2.08731,1.5252 -5.21827,3.59511c-1.62347,1.08942 -3.47885,2.2878 -5.4502,3.48617c-1.97135,1.30732 -4.05866,2.50569 -6.26193,3.81301c-1.04366,0.65366 -2.20328,1.19837 -3.24693,1.85203c-1.04365,0.65366 -2.08731,1.19837 -3.13096,1.74309c-2.08731,1.19837 -3.9427,2.17887 -5.68212,3.05041c-3.36289,1.74309 -5.68212,2.72357 -5.68212,2.72357c0,0 1.97135,-1.5252 5.10231,-3.59511c1.62347,-1.08942 3.47885,-2.2878 5.4502,-3.48617c1.04365,-0.54472 2.08731,-1.19837 3.13096,-1.85203c1.04366,-0.65366 2.20328,-1.30732 3.24693,-1.96097c2.08731,-1.19836 4.29058,-2.50568 6.37789,-3.59511c2.08731,-1.19837 3.9427,-2.17887 5.68212,-3.05041c3.36289,-1.74309 5.68212,-2.72357 5.68212,-2.72357z" data-paper-data="{&quot;index&quot;:null}" fill="#4a3369"></path><g data-paper-data="{&quot;index&quot;:null}"><path d="M258.00667,168.59206c-1.5075,-6.1008 0.92769,-41.07148 0.92769,-41.07148c16.0027,13.29104 29.33829,33.7723 29.33829,33.7723c-18.66982,-2.50569 -30.26598,7.29918 -30.26598,7.29918z" fill="#6d4b9b"></path><path d="M258.00666,168.59207c0,0 -0.34788,-2.50569 -0.81173,-5.88292c-0.11596,-1.74308 -0.23192,-3.92195 -0.23192,-6.20974c0,-2.28781 0,-4.79349 0,-7.19024c0.11596,-2.50569 0.23192,-4.90244 0.34788,-7.19024c0.23193,-2.2878 0.34789,-4.35771 0.57981,-6.20974c0.46384,-3.70405 0.92769,-6.1008 0.92769,-6.1008c0,0 0.11596,0.54471 0.11596,1.63414c0,1.08943 0.11596,2.61463 0.11596,4.46666c0,1.85203 0,3.92195 0,6.20974c0,1.08942 0,2.2878 0,3.48617c0,1.19836 0,2.39674 0,3.59511c0,1.19836 -0.11596,2.39674 -0.11596,3.59511c0,1.19837 -0.11596,2.39674 -0.11596,3.48617c-0.11596,2.2878 -0.23192,4.35771 -0.34788,6.20974c-0.23193,3.70405 -0.46385,6.1008 -0.46385,6.1008z" fill="#4a3369"></path><path d="M281.08303,153.0132c-4.29058,-0.87154 -6.37789,-2.06991 -6.37789,-2.06991c-0.46384,1.41626 -4.40654,5.12032 -4.40654,5.12032c-0.92769,-1.52521 -0.34788,-5.77398 -0.34788,-5.77398c-2.20327,0.65366 -7.76943,-2.2878 -7.76943,-2.2878c1.85538,-1.41626 7.42154,-2.50569 7.42154,-2.50569c-0.81173,-1.19836 0.46385,-6.31869 0.46385,-6.31869c1.27558,1.19837 4.40654,4.5756 4.40654,4.5756c0.11596,-0.10894 0.23192,-0.21788 0.34788,-0.21788c1.15962,1.41626 2.31924,2.72357 3.36289,4.03089c-0.23192,0.32683 -0.23192,0.43577 -0.23192,0.43577c1.39154,1.30731 3.13096,5.01137 3.13096,5.01137z" fill="#e0c448"></path><path d="M288.27264,161.29287c0,0 -1.85538,-2.06991 -4.63846,-5.44714c-1.27557,-1.63414 -2.89904,-3.48617 -4.5225,-5.55609c-1.62346,-1.96097 -3.47885,-4.13983 -5.21827,-6.31869c-0.9277,-0.98049 -1.73943,-2.06991 -2.66712,-3.15935c-0.81174,-0.98049 -1.73943,-2.06992 -2.55116,-3.05041c-1.73943,-1.96097 -3.36289,-3.81301 -4.75443,-5.3382c-0.69577,-0.7626 -1.39154,-1.5252 -1.97135,-2.06991c-0.69577,-0.54472 -1.15961,-1.08942 -1.62346,-1.5252c-0.81173,-0.87154 -1.39154,-1.30732 -1.39154,-1.30732c0,0 0.57981,0.43577 1.62346,1.08943c0.57981,0.32683 1.15962,0.7626 1.85539,1.30732c0.81173,0.54472 1.5075,1.08943 2.31923,1.85203c0.81174,0.65366 1.73943,1.41626 2.55116,2.2878c0.81173,0.87154 1.73943,1.74309 2.66712,2.72357c1.85539,1.96097 3.59481,4.03089 5.4502,6.20974c0.9277,1.08943 1.85539,2.17886 2.66712,3.26829c0.81173,1.08943 1.62346,2.17886 2.43519,3.26829c1.5075,2.17886 2.89904,4.13983 4.05866,5.88292c2.31923,3.48617 3.71077,5.88292 3.71077,5.88292z" fill="#4a3369"></path></g><g data-paper-data="{&quot;index&quot;:null}"><path d="M297.48094,223.269c5.31711,-0.24328 3.98655,-4.27719 6.08482,-4.39199c3.32869,-0.20118 1.19855,3.39321 1.19855,3.39321c4.29501,-1.56897 4.84306,-5.57226 7.29304,-5.19179c3.99909,0.62922 -3.32696,5.66084 -3.32696,5.66084c3.3395,-0.75442 9.30309,-6.34036 10.88578,-4.11157c1.54966,2.06861 -10.24724,8.42156 -10.24724,8.42156c0,0 10.67807,-0.87961 8.37151,0.64726c-2.30656,1.52687 -9.88701,1.08408 -17.00535,2.88374" fill="#a3b339"></path><path d="M245.45973,214.92903c-2.32082,-8.83919 13.40006,-8.87038 16.56543,-4.41279c3.16537,4.45759 3.93481,5.76852 8.57188,8.88784c4.63708,3.11933 22.21436,2.40533 30.36621,3.198c8.29469,0.88013 8.47226,6.58742 -0.22818,7.97818c-7.3602,1.23169 -24.92553,5.0322 -35.28606,2.60716c-10.36052,-2.42504 -17.70141,-9.57937 -19.98925,-18.25838z" fill="#a3b339"></path><path d="M314.21438,228.75652c0,0 -0.97774,0.10113 -3.05381,0.92935c-1.92244,0.36245 -4.56991,0.84078 -7.68972,1.4498c-0.58218,0.20337 -1.5599,0.30449 -2.25192,0.58058c-0.83487,0.18862 -1.7796,0.44992 -2.61447,0.63853c-1.81258,0.28974 -3.702,0.81236 -5.76728,1.08735c-2.17511,0.34769 -4.09755,0.71014 -6.4155,0.97036c-2.31795,0.26022 -4.49306,0.60791 -6.84403,0.70796c-2.46079,0.17276 -4.81177,0.27279 -7.19573,0.21267c-2.38396,-0.06013 -4.80096,-0.28044 -7.4268,-0.90857c-0.53838,-0.18969 -1.18659,-0.30668 -1.72495,-0.49637c-0.68123,-0.27716 -1.21961,-0.46687 -1.75797,-0.65656c-0.96691,-0.4521 -1.93382,-0.90421 -2.90072,-1.3563c-1.82398,-0.97691 -3.53813,-2.02653 -4.74691,-3.04662c-2.56041,-2.12765 -4.07708,-4.03609 -4.84651,-5.34703c-0.52755,-0.74293 -0.62658,-1.22346 -0.83545,-1.63127c-0.20888,-0.40783 -0.24188,-0.568 -0.24188,-0.568c0,0 0.03301,0.16018 0.35171,0.49529c0.17584,0.24764 0.6704,0.8304 1.16495,1.41316c1.13192,1.25298 2.97811,2.9433 5.47249,4.7506c1.42845,0.87468 2.8569,1.74937 4.64787,2.5661c0.82408,0.36463 1.79099,0.81673 2.72489,1.10865c0.53836,0.18969 0.9339,0.29192 1.47226,0.48162c0.39553,0.10221 1.04375,0.21922 1.58211,0.40891c2.08746,0.43843 4.36161,0.57127 6.4929,0.61663c2.24113,-0.02734 4.48225,-0.05468 6.69037,-0.24219c2.24111,-0.02734 4.41622,-0.37503 6.62434,-0.56254c2.31793,-0.26022 4.38321,-0.53521 6.44849,-0.81018c1.92244,-0.36245 3.9877,-0.63742 5.80031,-0.92717c0.9777,-0.10113 1.81259,-0.28974 2.64746,-0.47835c0.9447,-0.26131 1.92241,-0.36244 2.64745,-0.47834c3.40551,-0.43407 6.22884,-0.66477 8.32711,-0.77958c2.09827,-0.11479 3.21884,-0.12847 3.21884,-0.12847z" fill="#687a27"></path><path d="M296.88739,222.20575c0,0 -2.42778,0.33294 -6.19582,0.82494c-1.84561,0.12957 -4.19656,0.22963 -6.72339,0.08202c-2.52683,-0.1476 -5.19649,-0.38267 -8.042,-0.86538c-1.43928,-0.32145 -2.87854,-0.64289 -4.24097,-1.19722c-0.68122,-0.27716 -1.36243,-0.55433 -2.07665,-0.99166l-0.71423,-0.43734l-0.74724,-0.59751c-0.89008,-0.68498 -1.67033,-1.44267 -2.30772,-2.1129c-0.6374,-0.67021 -1.2748,-1.34045 -1.65952,-1.99591c-1.64872,-2.54914 -2.12164,-4.23837 -2.12164,-4.23837c0,0 0.35172,0.49529 0.98911,1.16551c0.63741,0.67022 1.5935,1.67556 2.69244,2.76836c0.74722,0.59751 1.24178,1.18028 1.98902,1.77779c0.6374,0.67021 1.38463,1.26774 2.2417,1.79253l0.57138,0.34988l0.71423,0.43734c0.28568,0.17494 0.82407,0.36464 1.36243,0.55433c1.07674,0.3794 2.26331,0.68608 3.55974,0.92005c2.45,0.38049 5.00982,0.68825 7.4268,0.90857c2.41697,0.2203 4.6911,0.35314 6.71256,0.47122c4.0429,0.23615 6.56973,0.38376 6.56973,0.38376z" fill="#687a27"></path><path d="M309.3689,227.04925c0,0 0.48314,-0.6839 0.96632,-1.36779c0.8127,-0.90201 2.09772,-1.93468 3.52559,-2.87988c0.65903,-0.43624 1.42789,-0.9452 2.0869,-1.38145c0.32951,-0.21813 0.65903,-0.43625 0.98854,-0.65437c0.3295,-0.21812 0.65901,-0.43624 0.87869,-0.58167c0.18667,-0.30558 0.40634,-0.451 0.62601,-0.59642c0.07684,-0.2329 0.2965,-0.37831 0.40634,-0.45101c0.32952,-0.21813 0.40634,-0.45101 0.40634,-0.45101c0,0 0.03301,0.16018 0.24188,0.568c0.17585,0.24765 0.20886,0.40784 0.13203,0.64071c0.17585,0.24765 -0.0108,0.55325 -0.08763,0.78612c-0.12065,0.62595 -0.49399,1.23713 -1.01016,1.76085c-0.51617,0.52371 -1.14218,1.12013 -1.91104,1.62909c-1.28503,1.03267 -3.10845,1.87564 -4.63534,2.34032c-1.52691,0.46467 -2.61445,0.63853 -2.61445,0.63853z" fill="#687a27"></path><path d="M312.02434,216.91825c0.03299,0.16017 0.25266,0.01475 0.31868,0.3351c0.25269,0.01476 0.53838,0.18971 0.82407,0.36464c0.28568,0.17494 0.46155,0.42258 0.63739,0.67022c0.033,0.16019 0.20886,0.40784 0.13203,0.64071c-0.07683,0.23288 -0.15367,0.46576 -0.2305,0.69864c-0.04381,0.39307 -0.45015,0.84407 -0.74664,1.22238c-0.29649,0.3783 -0.73586,0.66913 -1.1752,0.95996c-0.5822,0.20337 -1.02155,0.4942 -1.4939,0.62485c-0.94472,0.2613 -1.66975,0.37721 -1.66975,0.37721c0,0 0.0108,-0.55324 0.38414,-1.16442c0.18667,-0.3056 0.37335,-0.61118 0.66984,-0.98949c0.21967,-0.14541 0.29649,-0.3783 0.51617,-0.52371c0.21966,-0.14542 0.29649,-0.3783 0.51617,-0.52371c0.29651,-0.37831 0.59302,-0.7566 0.92253,-0.97472c0.07684,-0.2329 0.2965,-0.37831 0.40634,-0.45101c0.07683,-0.23289 0.18666,-0.30559 0.29651,-0.3783c0.10984,-0.07271 0.07681,-0.23288 0.18666,-0.30558c-0.03301,-0.16018 0.07683,-0.23289 -0.06601,-0.32035c-0.2857,-0.17494 -0.42854,-0.2624 -0.42854,-0.2624z" fill="#687a27"></path><path d="M303.53275,218.71683c0,0 0.10983,-0.07271 0.07683,-0.23288c0.21966,-0.14542 0.43935,-0.29084 1.08755,-0.17386c0.25269,0.01476 0.64821,0.117 0.9339,0.29192c0.28569,0.17493 0.5714,0.34987 0.74724,0.59751c0.03302,0.16017 0.20888,0.40783 0.24188,0.568c-0.07684,0.2329 -0.04383,0.39307 -0.01082,0.55323c0.02221,0.71342 -0.63683,1.14966 -1.07617,1.4405c-0.43934,0.29083 -1.05453,0.33403 -1.05453,0.33403c0,0 -0.3187,-0.33513 -0.41773,-0.81565c-0.09903,-0.48052 -0.19805,-0.96106 -0.15423,-1.35412l0.07683,-0.23288c-0.033,-0.16017 -0.03302,-0.16017 0.07683,-0.23288l0.10983,-0.07271c0.14284,0.08747 0.10983,-0.07271 0.10983,-0.07271c-0.03302,-0.16017 -0.31869,-0.33512 -0.46154,-0.42258c-0.14284,-0.08747 -0.28569,-0.17493 -0.28569,-0.17493z" fill="#687a27"></path></g><g data-paper-data="{&quot;index&quot;:null}"><path d="M239.91665,230.47164c-36.29598,-2.61463 -43.94945,-37.58531 -43.94945,-37.58531c20.98905,-17.32193 48.9358,-16.12355 48.9358,-16.12355l2.43519,-5.77398c4.05866,21.5707 26.9031,28.10727 26.9031,28.10727c0.23192,5.12031 4.98635,8.27966 4.98635,8.27966z" fill="#6d4b9b"></path><path d="M211.62203,199.20501c1.04365,1.08943 2.43519,4.03089 2.43519,3.92195c-3.24693,-0.7626 -4.98635,-1.63414 -4.98635,-1.63414c-0.34789,1.08943 -3.47885,4.03089 -3.47885,4.03089c-0.81173,-1.19837 -0.23192,-4.5756 -0.23192,-4.5756c-1.85539,0.43577 -6.26193,-1.85203 -6.26193,-1.85203c1.62346,-1.08943 5.91404,-1.96097 5.91404,-1.96097c-0.57981,-0.98048 0.34788,-5.01137 0.34788,-5.01137c1.04365,0.98049 3.59481,3.70406 3.59481,3.70406c0.92769,-0.87154 4.87039,-1.41626 4.87039,-1.41626c-0.23192,1.96097 -2.20327,4.79349 -2.20327,4.79349z" fill="#e0c448"></path><path d="M242.00396,218.48791c-3.015,1.41627 -4.98635,1.74309 -4.98635,1.74309c0.46384,1.08943 0.11596,5.22926 0.11596,5.22926c-1.5075,-0.54472 -3.36289,-3.37723 -3.36289,-3.37723c-1.04365,1.52521 -6.03,2.39675 -6.03,2.39675c0.46384,-1.74309 3.13096,-5.12032 3.13096,-5.12032c-1.04365,-0.32682 -3.13096,-4.03089 -3.13096,-4.03089c1.39154,0.10894 5.21827,0.65366 5.21827,0.65366c0.11596,-1.30732 2.78308,-4.03089 2.78308,-4.03089c1.04365,1.63414 1.5075,5.01137 1.5075,5.01137c1.5075,0.21788 4.63847,1.63414 4.75443,1.5252z" fill="#e0c448"></path><path d="M234.69837,192.45055c1.27558,0.7626 3.13097,3.59511 3.24693,3.48617c-3.36288,-0.32682 -5.21827,-0.98048 -5.21827,-0.98048c-0.23192,1.19837 -2.78308,4.5756 -2.78308,4.5756c-1.04365,-1.08943 -1.04365,-4.46666 -1.04365,-4.46666c-1.73942,0.7626 -6.49385,-0.87154 -6.49385,-0.87154c1.27558,-1.30732 5.4502,-2.83251 5.4502,-2.83251c-0.81173,-0.87154 -0.46385,-5.01137 -0.46385,-5.01137c1.04366,0.7626 4.05866,3.15935 4.05866,3.15935c0.81173,-0.98048 4.63846,-2.06991 4.63846,-2.06991c0.11596,1.96096 -1.39154,5.01137 -1.39154,5.01137z" fill="#e0c448"></path><path d="M256.96301,208.13834c-1.27558,-2.83251 -1.5075,-4.68455 -1.5075,-4.68455c-1.27558,0.43577 -5.56616,-0.10894 -5.56616,-0.10894c0.57981,-1.30732 3.71077,-2.94146 3.71077,-2.94146c-1.5075,-1.08943 -2.20327,-5.77398 -2.20327,-5.77398c1.85538,0.43577 5.21827,3.15935 5.21827,3.15935c0.46384,-0.98048 4.5225,-2.72357 4.5225,-2.72357c-0.23192,1.30732 -1.04365,4.90243 -1.04365,4.90243c1.39154,0.21788 4.17462,2.83251 4.17462,2.83251c-1.73942,0.98049 -5.33423,1.19837 -5.33423,1.19837c-0.11596,1.41626 -1.85539,4.35771 -1.97135,4.13983z" fill="#e0c448"></path><path d="M242.81569,178.39691c-1.73942,0.98049 -5.33423,1.19837 -5.33423,1.19837c-0.23193,1.41626 -1.97135,4.24877 -1.97135,4.24877c-1.27558,-2.94146 -1.5075,-4.68455 -1.5075,-4.68455c-1.15962,0.43577 -5.56616,-0.10894 -5.56616,-0.10894c0.11596,-0.32682 0.34789,-0.65366 0.69577,-0.87154c4.75442,-0.87154 8.81308,-1.19837 11.59616,-1.41626c1.04366,0.7626 2.08731,1.63414 2.08731,1.63414z" fill="#e0c448"></path><path d="M249.4255,224.91555c0.9277,-1.30732 3.36289,-2.50569 3.36289,-2.50569c-1.5075,-1.08943 -2.20327,-5.77398 -2.20327,-5.77398c1.85538,0.43577 5.21827,3.15935 5.21827,3.15935c0.46384,-0.98048 4.5225,-2.72357 4.5225,-2.72357c0,0.32682 -0.11596,0.87154 -0.23192,1.5252l-10.66847,6.31869z" fill="#e0c448"></path><path d="M279.22764,207.37575c0,0 -0.92769,0 -2.31923,-0.10894c-1.39154,-0.10894 -3.47884,-0.32682 -6.03,-0.87154c-1.15961,-0.21788 -2.43519,-0.54471 -3.82673,-0.98048c-1.27558,-0.43577 -2.78308,-0.87154 -4.17462,-1.5252c-1.5075,-0.54472 -2.89904,-1.30732 -4.29058,-2.06991c-1.39154,-0.87154 -2.78308,-1.74308 -4.05866,-2.83251c-1.27558,-0.98048 -2.4352,-2.17886 -3.47885,-3.37723c-1.04366,-1.19837 -1.85539,-2.50569 -2.66712,-3.81301c-0.81174,-1.30732 -1.39154,-2.61463 -1.85539,-3.92195c-0.23192,-0.65366 -0.57981,-1.19837 -0.69577,-1.85203c-0.11597,-0.54472 -0.34789,-1.19837 -0.46385,-1.74309c-0.23193,-1.19837 -0.46385,-2.17887 -0.46385,-3.15935c0,-0.87155 -0.11596,-1.74309 -0.11596,-2.39675c0,-1.30732 0,-2.06991 0,-2.06991c0,0 0.11596,0.7626 0.34788,2.06991c0.11597,0.65366 0.23193,1.52521 0.46385,2.39675c0,0.43577 0.23192,0.87154 0.34788,1.41626c0.11597,0.43577 0.34789,0.98048 0.46385,1.5252c0.46385,0.98048 0.81173,2.17886 1.39154,3.37723c0.57981,1.19836 1.15962,2.39674 1.97135,3.59511c0.69577,1.19837 1.73943,2.39674 2.66712,3.48617c1.04366,1.08943 2.08731,2.17887 3.36289,3.15935c1.27557,1.08943 2.55115,1.85203 3.82673,2.72357c1.39154,0.7626 2.66712,1.5252 4.05866,2.17886c2.66712,1.30732 5.33424,2.2878 7.65347,2.94146c2.31923,0.65366 4.29058,1.19837 5.68212,1.41626c1.39154,0.32683 2.20327,0.43577 2.20327,0.43577z" fill="#4a3369"></path><path d="M243.16358,176.87171c0,0 -3.24693,0.10894 -7.76943,0.98048c-1.27557,0.10894 -2.43519,0.43577 -3.82673,0.65366c-1.39154,0.21788 -2.78308,0.54472 -4.17462,0.87154c-1.39154,0.43577 -2.89904,0.7626 -4.40654,1.19837c-1.5075,0.43577 -3.015,0.87154 -4.5225,1.41626c-1.5075,0.43577 -3.015,1.08942 -4.40654,1.63414c-1.5075,0.54472 -2.78308,1.19837 -4.17462,1.74309c-1.39154,0.54472 -2.55115,1.30732 -3.82673,1.85203c-1.27558,0.54472 -2.31924,1.19837 -3.36289,1.74309c-1.04366,0.54472 -1.97135,0.98048 -2.78308,1.5252c-0.81173,0.54472 -1.5075,0.98049 -2.08731,1.30732c-1.15962,0.65366 -1.85539,1.08943 -1.85539,1.08943c0,0 0.57981,-0.54472 1.62346,-1.41626c0.46385,-0.43577 1.15962,-0.87154 1.85539,-1.5252c0.81173,-0.54472 1.73943,-1.19837 2.66712,-1.85203c1.04366,-0.65366 2.08731,-1.41626 3.24693,-2.06991c1.15961,-0.65366 2.31923,-1.41626 3.71077,-2.06991c0.69577,-0.32682 1.39154,-0.65366 2.08731,-0.98048c0.69577,-0.32682 1.39154,-0.7626 2.08731,-0.98048c1.5075,-0.65366 3.015,-1.30732 4.5225,-1.74309c1.62346,-0.54472 3.13096,-0.98048 4.63846,-1.41626c1.5075,-0.54472 3.015,-0.76261 4.5225,-1.08943c1.5075,-0.32683 2.89904,-0.43577 4.29058,-0.65366c1.39154,-0.10894 2.78308,-0.32682 3.9427,-0.32682c4.75442,-0.32683 8.00135,0.10894 8.00135,0.10894z" fill="#4a3369"></path><path d="M239.91667,230.36267c0,0 -0.9277,0.10895 -2.66712,-0.32682c-1.73943,-0.10895 -4.17462,-0.43577 -6.9577,-1.08943c-1.39154,-0.32683 -2.89904,-0.7626 -4.5225,-1.30732c-1.62346,-0.65366 -3.24693,-1.30732 -4.87039,-2.06991c-1.62346,-0.7626 -3.24693,-1.74309 -4.87039,-2.72357c-1.62346,-0.98048 -3.13096,-2.17886 -4.63846,-3.37723c-1.5075,-1.19837 -2.89904,-2.61463 -4.17462,-3.92195c-1.27558,-1.41626 -2.4352,-2.83251 -3.47885,-4.24877c-0.9277,-1.41626 -1.85539,-2.83251 -2.66712,-4.24877c-0.81173,-1.41626 -1.39154,-2.72357 -1.97135,-4.03089c-0.57981,-1.19837 -1.04366,-2.39674 -1.39154,-3.48617c-0.34788,-0.98048 -0.69577,-1.96097 -0.92769,-2.72357c-0.46385,-1.52521 -0.69577,-2.39675 -0.69577,-2.39675c0,0 0.46384,0.7626 1.04365,2.2878c0.23193,0.7626 0.69577,1.63415 1.15962,2.61463c0.46384,1.08943 1.15961,2.17886 1.73942,3.37723c0.23192,0.65366 0.69577,1.19837 1.04365,1.85203c0.34789,0.65366 0.69577,1.30732 1.15962,1.96097c0.92769,1.30732 1.85539,2.61463 2.89904,4.03089c0.46384,0.7626 1.04365,1.41626 1.62346,2.06991c0.69577,0.65366 1.27558,1.30732 1.85539,1.96097c1.27558,1.30732 2.66712,2.50569 4.05866,3.70406c1.39154,1.30732 2.89904,2.39675 4.40654,3.37723c1.5075,0.98048 3.015,1.96097 4.63846,2.72357c3.13096,1.74309 6.26192,2.94146 8.92904,3.81301c1.27558,0.43577 2.55115,0.76261 3.71077,1.08943c1.04365,0.32683 2.08731,0.54472 2.89904,0.65366c1.73943,0.32683 2.66712,0.43577 2.66712,0.43577z" fill="#4a3369"></path><path d="M277.48822,208.46516c0,0 -2.08731,1.5252 -5.21827,3.59511c-1.62347,1.08942 -3.47885,2.2878 -5.4502,3.48617c-1.97135,1.30732 -4.05866,2.50569 -6.26193,3.81301c-1.04366,0.65366 -2.20328,1.19837 -3.24693,1.85203c-1.04365,0.65366 -2.08731,1.19837 -3.13096,1.74309c-2.08731,1.19837 -3.9427,2.17887 -5.68212,3.05041c-3.36289,1.74309 -5.68212,2.72357 -5.68212,2.72357c0,0 1.97135,-1.5252 5.10231,-3.59511c1.62347,-1.08942 3.47885,-2.2878 5.4502,-3.48617c1.04365,-0.54472 2.08731,-1.19837 3.13096,-1.85203c1.04366,-0.65366 2.20328,-1.30732 3.24693,-1.96097c2.08731,-1.19836 4.29058,-2.50568 6.37789,-3.59511c2.08731,-1.19837 3.9427,-2.17887 5.68212,-3.05041c3.36289,-1.74309 5.68212,-2.72357 5.68212,-2.72357z" fill="#4a3369"></path><path d="M275.02453,212.48453c-1.17905,-0.47027 -1.34357,-2.60251 -0.36746,-4.76249c0.97611,-2.15998 2.7232,-3.52977 3.90225,-3.0595c1.17905,0.47027 1.34357,2.60251 0.36746,4.76249c-0.97611,2.15998 -2.7232,3.52977 -3.90225,3.0595z" fill="#bdabd6"></path></g><g data-paper-data="{&quot;index&quot;:null}"><g><path d="M273.77745,175.67334c-5.31563,0 -9.62481,-4.04836 -9.62481,-9.04226c0,-4.9939 4.30918,-9.04226 9.62481,-9.04226c5.31563,0 9.62481,4.04836 9.62481,9.04226c0,4.9939 -4.30918,9.04226 -9.62481,9.04226z" fill="#a3b339"></path><path d="M273.77745,173.49448c-4.03475,0 -7.30558,-3.07285 -7.30558,-6.8634c0,-3.79054 3.27082,-6.8634 7.30558,-6.8634c4.03475,0 7.30558,3.07285 7.30558,6.8634c0,3.79054 -3.27082,6.8634 -7.30558,6.8634z" fill="#e7ffbd"></path><path d="M279.22764,166.74003c0,3.15934 -10.20462,3.37723 -11.4802,0.32682c-1.27558,-2.94146 11.4802,-4.79349 11.4802,-0.32682z" fill="#2b3021"></path><path d="M283.28632,165.10588c0,0 -0.11596,-0.43577 -0.34788,-1.19837c-0.34789,-0.7626 -0.9277,-1.74309 -1.85539,-2.72357c-0.81173,-0.98049 -2.08731,-2.06991 -3.71077,-2.61463c-0.46385,-0.10894 -0.81173,-0.21788 -1.27558,-0.32682c-0.34789,0 -0.81173,-0.10894 -1.27558,-0.10894c-0.46385,0 -0.92769,-0.10894 -1.39154,0h-0.69577l-0.69577,0.10894c-0.81174,0.10894 -1.73943,0.43577 -2.55116,0.7626c-0.92769,0.32682 -1.62346,0.87154 -2.20327,1.41626c-0.57981,0.65366 -1.15962,1.19837 -1.5075,1.85203c-0.34788,0.65366 -0.69577,1.30732 -0.92769,1.96097c-0.23193,0.65366 -0.34789,1.19837 -0.46385,1.74309c-0.11596,0.54472 -0.11596,0.98048 -0.23192,1.41626c-0.11596,0.7626 -0.11596,1.19837 -0.11596,1.19837c0,0 -0.11596,-0.43577 -0.11596,-1.19837c0,-0.32682 -0.11596,-0.87154 0,-1.41626c0,-0.54472 0.11596,-1.19837 0.34788,-1.85203c0.11596,-0.65366 0.46385,-1.30732 0.81173,-2.06991c0.34788,-0.7626 0.92769,-1.41626 1.5075,-2.06991c0.69577,-0.65366 1.39154,-1.19836 2.31923,-1.63414c0.81173,-0.43577 1.73943,-0.7626 2.78308,-0.87154l0.69577,-0.10894h0.69577c0.46385,-0.10894 1.04365,0 1.5075,0c0.57981,0 1.04365,0.10894 1.5075,0.21788c0.46385,0.10895 0.92769,0.21789 1.39154,0.43577c0.92769,0.21788 1.62346,0.7626 2.31923,1.30732c0.69577,0.54471 1.15961,1.08942 1.62346,1.63414c0.81173,1.08942 1.27558,2.17886 1.5075,2.94146c0.23192,0.7626 0.34788,1.19837 0.34788,1.19837z" fill="#687a27"></path></g><path d="M281.19899,167.93838c0,0 -0.11596,-0.32683 -0.11596,-1.19837c-0.11596,-0.65366 -0.34788,-1.5252 -0.81173,-2.61463c-0.46384,-0.98048 -1.15961,-2.17886 -2.31923,-2.94146c-0.57981,-0.43577 -1.27558,-0.65366 -1.97135,-0.87154c-0.69577,-0.21788 -1.5075,-0.21788 -2.20327,-0.21788c-0.81173,0 -1.62346,0.10894 -2.31923,0.32682c-0.69577,0.21788 -1.39154,0.54472 -1.97135,0.87154c-1.15961,0.7626 -1.97134,1.85203 -2.43519,2.83251c-0.34789,0.98049 -0.57981,1.96097 -0.57981,2.61463c-0.11596,0.76261 0,1.08943 0,1.08943c0,0 -0.11596,-0.43577 -0.23192,-1.08943c0,-0.65366 0,-1.74308 0.34788,-2.83251c0.34788,-1.19837 1.15961,-2.50569 2.43519,-3.37723c0.57981,-0.43577 1.39154,-0.7626 2.20327,-0.98048c0.69577,-0.21788 1.62346,-0.32682 2.43519,-0.32682c0.9277,0 1.73943,0.10894 2.55116,0.32682c0.81173,0.21789 1.62346,0.54472 2.20327,1.08943c1.27558,1.08942 1.97135,2.39674 2.31923,3.48617c0.34789,1.08943 0.46385,2.06991 0.46385,2.72357c0,0.76261 0,1.08943 0,1.08943z" fill="#687a27"></path></g></g></g></svg>