<svg version="1.1" xmlns="http://www.w3.org/2000/svg" xmlns:xlink="http://www.w3.org/1999/xlink" width="127.1626" height="130.14329" viewBox="0,0,127.1626,130.14329"><g transform="translate(-176.41084,-151.4316)"><g data-paper-data="{&quot;isPaintingLayer&quot;:true}" fill-rule="nonzero" stroke="#000000" stroke-width="1" stroke-linecap="butt" stroke-linejoin="miter" stroke-miterlimit="10" stroke-dasharray="" stroke-dashoffset="0" style="mix-blend-mode: normal"><g data-paper-data="{&quot;index&quot;:null}"><path d="M225.17273,184.7496c0.06845,-2.1728 1.34117,-3.19431 2.2517,-3.68206c1.92253,-1.05433 3.83633,-1.1774 5.7675,-0.10828c2.01431,1.11501 4.37948,6.10617 1.87137,10.49179c4.03723,2.79917 6.58702,6.48649 6.33483,8.28078c-0.08141,1.69377 -2.09225,3.34415 -5.99088,3.64481c1.30988,1.2155 4.16463,5.56032 3.41432,7.56253c-0.75031,1.99963 -4.43755,1.75445 -6.52634,1.86014c0,0 6.76806,6.23442 4.60219,10.16683c-1.54651,2.80014 -6.34443,1.66949 -9.87059,0.13517c0,0 13.30403,10.69799 9.54306,15.07141c-2.93875,3.41787 -9.87405,-0.82912 -11.27493,-1.57771c2.10876,3.08169 5.57771,10.48486 6.37131,17.63414c2.65364,23.8772 -18.90255,14.71103 -25.39165,3.31823c-3.7384,-6.56532 -4.33531,-10.16165 -4.33531,-10.16165c-1.5014,-3.96284 -2.07152,-7.6544 -2.19632,-11.17278c-0.27109,-7.89612 1.4174,-12.09455 3.4413,-13.91647c8.72871,-7.85457 21.64538,-26.71718 21.98847,-37.54687z" fill="#279afa"></path><path d="M225.17275,184.74961c0.06844,-2.17278 1.34116,-3.19429 2.24651,-3.6855c1.92253,-1.05617 3.83633,-1.17828 5.7675,-0.11002c2.01431,1.11415 4.37947,6.10617 1.87041,10.49179c0,0 6.41729,9.05183 -5.96237,9.14533c0,0 11.3642,10.47106 -3.20121,9.56744c0,0 15.11816,14.03954 -5.87568,9.36545c0,0 20.14744,19.31659 -2.911,11.7168c0,0 15.01938,29.71217 3.23068,32.13888c-6.62254,1.362 -16.20725,-10.10531 -18.39828,-15.99404c-1.5014,-3.96284 -2.07152,-7.6544 -2.19632,-11.17278c-0.27109,-7.89612 1.4174,-12.09455 3.4413,-13.91647c8.72871,-7.85457 21.64538,-26.71718 21.98847,-37.54687z" fill="#0043a5"></path></g><path d="M219.61587,194.15845c2.36517,-2.06201 6.62253,-4.36565 7.5729,-4.08755c1.39667,0.40808 3.26716,1.63483 4.68628,1.97792c-2.88068,1.16089 -9.93471,3.87183 -10.1054,4.51636c-0.47912,1.79515 0.55793,2.94652 0.34309,4.81789c-0.13084,1.0527 -1.33339,1.67908 -2.32446,1.37583c-0.90189,-0.27897 -1.09686,-1.11845 -1.54823,-1.97705c-1.76393,-3.35461 -5.82892,-1.9138 -9.54822,-1.37842c-1.63395,0.23825 -3.9351,-0.62293 -3.61197,-2.23433c0.42977,-2.06373 3.24113,-2.67015 8.53123,-3.16146c-4.92358,-0.86108 -6.4458,-3.07468 -5.34904,-3.89171c1.20342,-0.90362 2.27944,-0.94605 3.78429,-0.7745c3.50542,0.43141 5.80647,1.76654 7.56955,4.81703z" data-paper-data="{&quot;index&quot;:null}" fill="#ffa600"></path><g data-paper-data="{&quot;index&quot;:null}"><path d="M213.16576,172.51987c-0.13603,-0.81001 -0.3622,-1.65729 -0.67928,-2.55745c-1.84707,-5.23115 -5.66169,-8.33886 -10.95525,-10.09243c-0.82135,-0.27022 -1.67899,-0.52327 -2.55669,-0.74761c-3.88652,-0.9929 -8.18804,-1.37065 -11.74799,0.15935c0.57877,-0.70432 1.27186,-1.41124 2.1174,-2.11826c11.33914,-9.46422 25.29286,-4.67495 37.90896,3.20044c9.6618,6.03082 34.22,22.64776 40.865,21.41757c21.80147,-16.08071 29.54073,-13.54054 31.26138,-10.09329c1.6019,3.26198 -2.09235,6.89287 -5.04579,9.10905c5.30998,0.90708 8.38734,0.5372 8.73994,4.1846c0.324,3.34156 -4.43064,3.8155 -7.75405,4.67496c2.95441,1.23108 5.46425,3.17789 4.32409,5.5829c-1.10809,2.3401 -6.76979,2.83392 -10.21627,1.8462c1.84631,3.44734 4.42891,11.44829 -3.58759,8.57367c-7.44388,-2.67102 -11.6926,-6.76817 -17.96946,-11.81645c-9.7241,10.09063 -24.12411,14.64595 -31.13908,11.93683c-12.28003,-4.73822 -19.58865,-15.9975 -23.83737,-28.80079c0.44013,-1.40176 0.5415,-2.85207 0.27205,-4.45925z" fill="#ff0600"></path><path d="M201.53211,159.86912c-0.82135,-0.27108 -1.67899,-0.52327 -2.55669,-0.74761c5.08994,-4.19238 12.0045,-3.47412 18.37754,-0.61169c4.01996,1.80897 6.77757,6.15215 4.27205,9.50062c-3.01844,4.03562 -6.83393,4.83267 -8.45925,4.51032c-0.13516,-0.81001 -0.36219,-1.65729 -0.68013,-2.55745c-1.84621,-5.23289 -5.66171,-8.3406 -10.95353,-10.09417z" fill="#0043a5"></path><path d="M185.65327,160.11519c0.50503,-0.32744 1.03014,-0.6021 1.57329,-0.83603c3.55734,-1.53 7.85887,-1.15226 11.74799,-0.16022c0.87684,0.22521 1.73534,0.4774 2.55669,0.74849c5.29096,1.75356 9.10817,4.86128 10.95525,10.09243c0.31623,0.90017 0.54326,1.7483 0.67928,2.55745c0.27032,1.6063 0.16723,3.05664 -0.27033,4.45838c-0.51724,1.65738 -1.50399,3.24287 -2.99415,4.92358c-3.35461,3.7843 -9.3378,5.86186 -13.40193,2.62859c3.38409,-1.10636 5.09254,-4.50513 4.66103,-8.04425c-10.32187,-3.52442 -17.82989,12.5996 -20.06085,22.89295c-11.59202,-25.41152 4.5537,-39.26137 4.5537,-39.26137z" fill="#ffa600"></path></g><path d="M224.42084,206.90195c2.88067,-3.44561 8.26773,-7.84763 9.98838,-8.46538c1.60362,1.4772 4.78065,2.57406 6.86339,2.74119c-4.64548,2.42843 -11.90659,4.76681 -13.27368,8.64557c-0.88201,2.50552 1.44946,4.04157 1.56552,6.73255c0.05288,1.51791 -1.51099,2.66842 -2.97514,2.46482c-1.33848,-0.19227 -1.80032,-1.33329 -2.63118,-2.4483c-3.24277,-4.34406 -8.66459,-1.39925 -13.80214,0.19314c-2.25948,0.69828 -5.70077,-0.00173 -5.60891,-2.35221c0.14553,-3.01498 6.47786,-6.86513 13.24593,-6.00394c-1.84621,-1.84621 -10.96562,0.24691 -10.21531,-3.56859c0.41758,-2.11567 2.89968,-2.95949 5.06565,-3.05049c5.04913,-0.17673 8.60131,1.19295 11.77746,5.11164z" data-paper-data="{&quot;index&quot;:null}" fill="#ffa600"></path><g data-paper-data="{&quot;index&quot;:null}"><path d="M204.33828,161.1098c2.42497,-2.71777 7.31909,-2.30881 9.50234,0.17501c1.33599,1.5205 1.72151,4.9236 -0.6428,6.68235c-6.06202,4.50339 -12.94366,-2.27946 -8.85956,-6.85735z" fill="#ffffff"></path><path d="M207.20857,164.13516c0.35518,0.3189 0.57434,0.75896 0.57434,1.24499c0,0.48604 -0.21915,0.92618 -0.57434,1.24499c-0.35432,0.3189 -0.84467,0.51636 -1.38532,0.51636c-0.54064,0 -1.031,-0.19746 -1.38532,-0.51636c-0.35519,-0.3188 -0.57444,-0.75896 -0.57444,-1.24499c0,-0.48604 0.21925,-0.92609 0.57444,-1.24499c0.35432,-0.31881 0.84467,-0.51627 1.38532,-0.51627c0.54064,0 1.031,0.19746 1.38532,0.51627z" fill="#272525"></path></g><g data-paper-data="{&quot;index&quot;:null}"><path d="M228.17734,183.2006c-1.66257,-2.44408 -1.08466,-4.58317 -0.47566,-5.85235c1.27359,-2.70136 3.27493,-4.36998 6.25352,-4.73822c3.10848,-0.38726 9.70337,3.20563 10.45973,10.03263c6.67446,-0.15686 12.42975,1.84881 13.59161,4.02688c1.26832,1.92503 0.38208,5.3524 -3.66477,8.80234c2.41461,0.28848 9.03196,2.77672 9.80819,5.57858c0.7771,2.80272 -3.47325,5.48324 -5.68339,7.27234c0,0 12.42726,1.4364 13.19486,7.49063c0.54402,4.31535 -5.6332,6.91446 -10.73696,8.05116c0,0 23.18669,1.10982 22.55513,8.92454c-0.49651,6.1079 -11.51589,6.99501 -13.65575,7.29308c4.7867,1.69723 14.52472,7.0575 21.12296,14.27781c22.03358,24.11805 -8.99462,31.30457 -25.24948,23.97944c-9.36382,-4.22013 -12.9012,-7.69944 -12.9012,-7.69944c-4.82393,-3.14927 -8.40979,-6.74993 -11.35719,-10.5178c-6.62436,-8.46182 -8.13094,-14.43024 -7.36421,-18.05345c3.30614,-15.61801 2.39637,-46.68787 -5.89737,-58.86815z" fill="#279afa"></path><path d="M228.17735,183.20062c-1.66258,-2.44409 -1.08468,-4.58318 -0.48172,-5.85149c1.27359,-2.70222 3.27493,-4.37084 6.25352,-4.73908c3.10848,-0.38553 9.70155,3.20562 10.45963,10.03349c0,0 14.29777,4.80484 0.77028,14.82095c0,0 20.86829,2.41374 4.13689,13.08053c0,0 27.85733,3.32167 1.03792,14.99854c0,0 37.61262,5.103 6.18412,15.21349c0,0 40.30101,20.62321 29.28422,32.73071c-6.18757,6.801 -25.90359,1.86877 -33.02608,-2.84774c-4.82393,-3.14927 -8.40979,-6.74993 -11.35719,-10.5178c-6.62436,-8.46182 -8.13094,-14.43024 -7.36421,-18.05345c3.30614,-15.61801 2.39637,-46.68787 -5.89737,-58.86815z" fill="#0043a5"></path></g></g></g></svg>