<svg version="1.1" xmlns="http://www.w3.org/2000/svg" xmlns:xlink="http://www.w3.org/1999/xlink" width="150.67767" height="101.2047" viewBox="0,0,150.67767,101.2047"><defs><linearGradient x1="215.13476" y1="129.60367" x2="215.13476" y2="230.55084" gradientUnits="userSpaceOnUse" id="color-1"><stop offset="0" stop-color="#66ebff"></stop><stop offset="1" stop-color="#4a3380"></stop></linearGradient><linearGradient x1="264.86525" y1="129.50436" x2="264.86525" y2="230.45154" gradientUnits="userSpaceOnUse" id="color-2"><stop offset="0" stop-color="#66ebff"></stop><stop offset="1" stop-color="#4a3380"></stop></linearGradient><linearGradient x1="239.50887" y1="129.39764" x2="239.50887" y2="230.60234" gradientUnits="userSpaceOnUse" id="color-3"><stop offset="0" stop-color="#66ebff"></stop><stop offset="1" stop-color="#4a3380"></stop></linearGradient></defs><g transform="translate(-164.66117,-129.39765)"><g data-paper-data="{&quot;isPaintingLayer&quot;:true}" fill-rule="nonzero" stroke="none" stroke-linecap="butt" stroke-linejoin="miter" stroke-miterlimit="10" stroke-dasharray="" stroke-dashoffset="0" style="mix-blend-mode: normal"><g><path d="M265.60833,180.07725c0,27.82979 -22.64136,50.47358 -50.47358,50.47358c-27.831,0 -50.47358,-22.64378 -50.47358,-50.47358c0,-27.831 22.64135,-50.47358 50.47358,-50.47358c27.83223,0 50.47358,22.64379 50.47358,50.47358z" fill="url(#color-1)" stroke-width="1"></path><path d="M315.33884,179.97796c0,27.82979 -22.64135,50.47358 -50.47358,50.47358c-27.831,0 -50.47358,-22.64379 -50.47358,-50.47358c0,-27.831 22.64136,-50.47359 50.47358,-50.47359c27.83223,0 50.47358,22.64379 50.47358,50.47359z" fill="url(#color-2)" stroke-width="1"></path><path d="M213.82141,230.60234v-101.20469h51.37489v101.2047z" fill="url(#color-3)" stroke-width="0"></path></g><g fill="#000000"><path d="M264.92601,180.07521c0,27.08829 -22.03809,49.12875 -49.12875,49.12875c-27.08948,0 -49.12875,-22.04047 -49.12875,-49.12875c0,-27.08948 22.03809,-49.12875 49.12875,-49.12875c27.09066,0 49.12875,22.04047 49.12875,49.12875z" stroke-width="1"></path><path d="M313.33149,179.97856c0,27.08829 -22.03809,49.12875 -49.12875,49.12875c-27.08948,0 -49.12875,-22.04047 -49.12875,-49.12875c0,-27.08948 22.03809,-49.12875 49.12875,-49.12875c27.09066,0 49.12875,22.04047 49.12875,49.12875z" stroke-width="1"></path><path d="M214.51892,229.25409v-98.50815h50.00604v98.50815z" stroke-width="0"></path></g></g></g></svg>