<svg version="1.1" xmlns="http://www.w3.org/2000/svg" xmlns:xlink="http://www.w3.org/1999/xlink" width="113.87999" height="118.4171" viewBox="0,0,113.87999,118.4171"><g transform="translate(-183.63889,-125.13856)"><g data-paper-data="{&quot;isPaintingLayer&quot;:true}" fill-rule="nonzero" stroke-miterlimit="10" stroke-dasharray="" stroke-dashoffset="0" style="mix-blend-mode: normal"><g stroke="none" stroke-width="0.77378" stroke-linecap="butt" stroke-linejoin="miter"><path d="M238.40675,242.46965c-2.6502,0 -6.0131,-2.98351 -6.3876,-3.32394c-0.0224,-0.02107 -0.0449,-0.04279 -0.0658,-0.06526c-0.8952,-0.95849 -3.8387,-5.8937 -4.6411,-7.56723c-0.0874,-0.18333 -0.1184,-0.38257 -0.0936,-0.57601c-0.0612,-0.14129 -0.1153,-0.28688 -0.1641,-0.43828c-0.1122,-0.34989 -0.0294,-0.73031 0.2213,-1.01064c0.2221,-0.24849 0.5486,-0.38912 0.8899,-0.38912c0.0441,0 0.0882,0.00225 0.1331,0.0073c2.8599,0.30935 6.9346,0.67807 10.1017,0.67807c1.4098,0 2.483,-0.07462 3.1887,-0.21947c1.6018,-0.33042 5.3345,-1.20267 9.1585,-2.38137c0.1176,-0.03698 0.2406,-0.0544 0.3629,-0.0544c0.1981,0 0.3946,0.0471 0.5703,0.13988c0.0309,0.01592 0.0627,0.02968 0.0944,0.04204c0.1996,0.07462 0.3683,0.197 0.4921,0.34989c3.1114,1.40117 4.703,3.33911 4.2821,5.26264c-0.4031,1.84094 -2.5241,3.0306 -5.4033,3.0306c-0.0008,0 -0.0008,0 -0.0015,0c-0.2809,0 -0.568,-0.01161 -0.8589,-0.03408c0.7683,1.02515 1.2953,2.13869 1.2303,3.11749c-0.0697,1.04537 -0.773,1.8489 -1.9306,2.2031c-0.4318,0.13192 -0.8976,0.19859 -1.3874,0.19859c-2.1666,0 -4.6582,-1.33525 -6.8557,-2.92405c0.2035,1.54891 -0.024,3.21449 -1.9809,3.81372c-0.2785,0.09054 -0.6074,0.14054 -0.9548,0.14054z" fill="#f7941e"></path><path d="M251.11145,228.2153c-3.7451,1.15417 -7.4515,2.03588 -9.2715,2.41115c-0.8504,0.17527 -2.0598,0.24484 -3.4379,0.24484c-3.3048,0 -7.5823,-0.39774 -10.2348,-0.68462c0.0573,0.17893 0.1277,0.35495 0.2167,0.53107c0.0689,0.13548 0.0495,0.25645 -0.0116,0.35064c0.7892,1.64816 3.6716,6.4581 4.4554,7.29702c1.0013,0.90999 3.735,3.01749 5.579,3.01749c0.212,0 0.4116,-0.02753 0.595,-0.08764c2.35,-0.71945 0.7258,-4.16361 0.4867,-5.70026c1.5491,1.36203 5.6254,4.75694 8.7105,4.75694c0.3575,0 0.701,-0.04494 1.0268,-0.14484c3.133,-0.95923 -0.9804,-5.52424 -3.1207,-6.46755c1.8834,0.79482 3.6051,1.1273 5.042,1.1273c4.9104,0 6.5144,-3.88179 0.0178,-6.48197h-0.0047c0.0619,-0.02032 0.1238,-0.04494 0.1857,-0.06517c-0.0797,-0.02977 -0.1578,-0.06376 -0.2344,-0.1044M251.11145,226.04188c0.3838,0 0.766,0.08914 1.1096,0.26366c0.2871,0.1102 0.5409,0.26881 0.7513,0.46515c5.1286,2.37922 4.9174,5.44812 4.7154,6.36971c-0.4611,2.10751 -2.5441,3.55146 -5.4311,3.8449c0.3025,0.70054 0.4642,1.41774 0.4178,2.11837c-0.099,1.49171 -1.1181,2.67556 -2.7283,3.16889c-0.5479,0.16807 -1.1359,0.25289 -1.748,0.25289c-1.6861,0 -3.6151,-0.65353 -5.7631,-1.94749c-0.2647,1.18675 -1.0098,2.25394 -2.692,2.7763c-0.4179,0.13323 -0.8682,0.2014 -1.3371,0.2014c-3.0425,0 -6.5276,-3.0248 -7.1954,-3.63114c-0.0449,-0.04129 -0.089,-0.08483 -0.1308,-0.12968c-1.0492,-1.12299 -4.043,-6.2038 -4.826,-7.83829c-0.1285,-0.26806 -0.1958,-0.55419 -0.2028,-0.84033c-0.0387,-0.1 -0.0742,-0.20149 -0.1075,-0.30579c-0.2244,-0.70054 -0.0581,-1.45987 0.4434,-2.02062c0.4433,-0.49624 1.0972,-0.77806 1.7797,-0.77806c0.0882,0 0.1771,0.00506 0.2661,0.01451c2.3167,0.25065 6.6925,0.67086 9.9687,0.67086c1.652,0 2.5101,-0.1058 2.9395,-0.19419c1.5809,-0.32527 5.2641,-1.18816 9.0448,-2.35235c0.2367,-0.07247 0.482,-0.1087 0.7258,-0.1087z" fill="#000000"></path></g><g stroke="none" stroke-width="0.77378" stroke-linecap="butt" stroke-linejoin="miter"><path d="M262.56414,231.05172c-2.5341,0 -5.1162,-2.24879 -6.8363,-4.13468c-0.1324,-0.14484 -0.2213,-0.31946 -0.2585,-0.5071c-0.1014,-0.51009 0.188,-1.06794 0.7026,-1.25922c4.3425,-1.61988 5.6587,-2.7617 6.0572,-3.29782c0.7273,-0.98311 1.782,-1.8446 3.1307,-2.56039c0.1261,-0.06657 0.2646,-0.11011 0.4078,-0.13033c0.0263,-0.00365 0.1973,-0.01891 0.2298,-0.02107l0.1663,-0.02753c0.0612,-0.00936 0.1223,-0.01376 0.1827,-0.01376c0.1648,0 0.3257,0.03333 0.472,0.09419c2.4668,0.16807 4.3912,1.44536 4.3912,2.99146c0,0.63677 -0.339,1.20408 -0.9425,1.59676c0.1981,0.20496 0.3675,0.43107 0.4968,0.67591c0.4054,0.76945 0.3451,1.60472 -0.171,2.35094c-0.38,0.55064 -1.1816,1.20848 -2.8383,1.20848c-0.0007,0 0,0 -0.0007,0c-0.609,0 -1.2443,-0.08764 -1.8347,-0.2101c0.1269,0.83312 -0.0317,1.72428 -0.9092,2.40815c-0.7111,0.55569 -1.5344,0.83611 -2.4459,0.83611z" fill="#f7941e"></path><path d="M266.34645,220.18657c-0.0952,0.01451 -0.1881,0.03474 -0.2848,0.03914c-0.0433,0.00796 -0.0867,0.00646 -0.1292,0.01227c-1.0477,0.55569 -2.0397,1.27589 -2.75,2.23438c-0.9441,1.27214 -3.5331,2.55094 -6.581,3.6876c0.0046,0.01957 0.0054,0.03258 0.0092,0.0515c0.9278,1.01785 3.5757,3.75351 5.9535,3.75351c0.595,0 1.1731,-0.17172 1.7039,-0.58462c1.1189,-0.87375 0.2112,-2.47416 -0.2554,-3.27544c0.8024,0.31225 2.4111,0.82516 3.742,0.82516c0.8009,0 1.5012,-0.18539 1.8648,-0.71215c1.0578,-1.53084 -1.5142,-2.80374 -2.9016,-2.90804c0.2437,0.01442 0.4727,0.02172 0.6871,0.02172c4.4987,0 2.678,-3.06964 -1.139,-3.06964c0,0 0.0325,-0.02903 0.0805,-0.07537M266.34715,218.01305c0.25,0 0.496,0.03848 0.7282,0.1087c3.0278,0.25795 5.2965,1.94965 5.2965,4.06221c0,0.62882 -0.2128,1.2229 -0.602,1.72428c0.0131,0.02322 0.0247,0.04569 0.0371,0.06807c0.585,1.11063 0.4983,2.3575 -0.2368,3.42038c-0.5377,0.77806 -1.635,1.70612 -3.8147,1.70612c-0.2321,0 -0.4666,-0.01161 -0.701,-0.03118c-0.1633,0.76795 -0.5974,1.42869 -1.3015,1.97858c-0.9131,0.71074 -2.015,1.08676 -3.188,1.08676c-2.3902,0 -4.9878,-1.51848 -7.7193,-4.515c-0.2654,-0.29053 -0.4433,-0.64043 -0.5176,-1.01569c-0.0054,-0.02687 -0.0101,-0.0515 -0.0139,-0.07537c-0.1873,-1.00848 0.4054,-2.00901 1.4284,-2.39083c4.4422,-1.65687 5.3886,-2.7132 5.5325,-2.90738c0.8287,-1.11859 2.011,-2.08944 3.513,-2.88632c0.2522,-0.13333 0.5292,-0.22171 0.8163,-0.2601c0.0588,-0.00721 0.1192,-0.01376 0.1811,-0.01807c0.0464,-0.00581 0.092,-0.00946 0.1392,-0.01236c-0.0371,0.00215 -0.0711,0.00506 -0.0758,0.00506l0.1331,-0.02097c0.123,-0.01816 0.2445,-0.02687 0.3652,-0.02687z" fill="#000000"></path></g><g stroke="none" stroke-width="0.77378" stroke-linecap="butt" stroke-linejoin="miter"><g><path d="M219.77915,226.69825c-1.50081,-0.53465 -2.66779,-1.1765 -3.56936,-1.96145l-0.08578,-0.07509c-1.02354,-0.60615 -4.97643,-2.92727 -9.36412,-5.19484c-2.02117,-1.04306 -3.88059,-1.94539 -5.5277,-2.68057c-0.95016,-0.42237 -1.79504,-0.77643 -2.56349,-1.07474l0.28209,-1.05705l-0.39431,1.01239c-0.31007,-0.11891 -0.61403,-0.23177 -0.91067,-0.33744l-0.26075,-0.09141c-0.41737,-0.14252 -0.76391,-0.25594 -1.09406,-0.35278c-0.46998,-0.1382 -0.92355,-0.28517 -1.36309,-0.44176c-4.74378,-1.68993 -8.10901,-4.56078 -9.47532,-8.08309c-1.16628,-3.00507 -0.77675,-6.27947 1.09459,-9.2198c2.35551,-3.69539 5.28245,-5.36533 8.11309,-6.97952c1.04857,-0.59853 2.1329,-1.21671 3.19272,-1.93894c3.70633,-2.79274 6.72752,-6.96394 9.9257,-11.38049c3.86185,-5.3322 7.85334,-10.84355 13.40361,-14.12918c0.05837,-0.11766 0.10791,-0.23379 0.1296,-0.30837c-0.26285,-1.49648 -0.64019,-3.0083 -1.00482,-4.47027c-0.57496,-2.30371 -1.16977,-4.68517 -1.36606,-7.15694c-0.3493,-4.41753 0.69064,-8.93453 3.00667,-13.06322c3.94101,-7.02976 11.90196,-11.32015 21.29535,-11.47623c4.21101,-0.07037 8.80527,0.73647 13.2866,2.33291c8.0005,2.85012 14.59195,7.83628 18.08588,13.68009c1.55196,2.5956 2.4959,5.32755 2.8063,8.11997c0.07742,0.70972 -0.57002,5.69503 -1.22724,6.88522c-1.18086,2.13891 -2.72769,4.11732 -4.22385,6.0301c-0.45722,0.58466 -0.91148,1.16579 -1.35167,1.74648c-1.81603,2.39558 -3.36492,4.95163 -4.6741,7.16022c-0.80214,1.35234 -1.36736,2.78224 -1.67965,4.24915c-1.12463,5.28753 0.30482,10.18896 1.81907,15.37832c1.40881,4.82797 2.86503,9.82053 2.12204,15.1825c-1.61261,11.65398 -7.32839,17.23478 -10.59166,19.524l-0.09699,0.06694l-0.10932,0.04643c-6.13773,2.58028 -12.52658,3.77898 -18.99124,3.56257c-4.45214,-0.14941 -8.77643,-1.06384 -12.41764,-1.94035c-0.50857,-0.12194 -1.05411,-0.23935 -1.6192,-0.36144c-1.44619,-0.30985 -3.08659,-0.66274 -4.60125,-1.20233z" fill="#8a8fc6"></path><path d="M256.16564,129.59439c-4.29981,-1.53177 -8.77159,-2.32957 -12.85549,-2.26321c-8.40007,0.13931 -16.35018,3.80897 -20.34079,10.92731c-2.12689,3.79144 -3.22679,8.08491 -2.8795,12.48006c0.31554,3.97713 1.6991,7.71171 2.37477,11.62789c0.06559,0.38327 -0.39606,1.1371 -0.39606,1.1371c-9.98256,5.73199 -14.9138,19.13633 -23.52029,25.61697c-3.97756,2.70993 -7.95136,3.8162 -11.00963,8.61478c-3.70456,5.81742 -0.90188,12.60094 7.75246,15.68398c0.41844,0.14906 0.84991,0.28896 1.29606,0.42016c0.34789,0.10247 0.71308,0.22103 1.08702,0.34957c0.04406,0.01489 0.08647,0.02932 0.13053,0.04422c0.06874,0.02369 0.13656,0.04786 0.2058,0.07252c0.3054,0.10879 0.61883,0.22512 0.93878,0.34824c0.03812,0.01517 0.07702,0.03051 0.11515,0.04569c0.82202,0.31898 1.68361,0.68128 2.56701,1.0744c0.01843,0.00816 0.03624,0.01599 0.05392,0.02388c1.83271,0.81818 3.75404,1.76335 5.59084,2.71309c0.00025,-0.00071 0.00025,-0.00071 0.0005,-0.00141c5.17508,2.67421 9.688,5.38557 9.688,5.38557c0.00031,0.01314 0.00263,0.03404 0.0032,0.04884c0.86627,0.75468 1.97522,1.30349 3.1743,1.73065c2.01543,0.71798 4.28551,1.09213 6.09518,1.5277c4.01447,0.96557 8.05369,1.76928 12.17259,1.90682c6.58226,0.22065 12.73765,-1.05128 18.49569,-3.47223c3.14718,-2.20743 8.60015,-7.5627 10.15781,-18.8202c1.48253,-10.70062 -6.19748,-19.96373 -3.92747,-30.6337c0.34466,-1.6177 0.95632,-3.13411 1.80005,-4.55702c1.47929,-2.49478 2.97706,-4.93296 4.73872,-7.25637c1.8727,-2.4715 3.99988,-4.9446 5.49548,-7.65351c0.53508,-0.9692 1.15924,-5.78818 1.10596,-6.2748c-0.30637,-2.7555 -1.24912,-5.32481 -2.65601,-7.67949c-3.5998,-6.02158 -10.28785,-10.61445 -17.45457,-13.16754M256.895,127.54699c8.26294,2.94361 15.0852,8.11655 18.71882,14.19549c1.63241,2.73181 2.6271,5.61184 2.95569,8.56301c0.09607,0.87638 -0.5722,6.08885 -1.34811,7.49209c-1.22051,2.21086 -2.79309,4.22254 -4.31387,6.1672c-0.45376,0.57972 -0.90582,1.15708 -1.34306,1.73423c-1.78323,2.3518 -3.31363,4.87916 -4.60821,7.06284c-0.74525,1.25732 -1.2697,2.58405 -1.55938,3.94133c-1.07019,5.03311 0.32383,9.81049 1.79869,14.86813c1.43899,4.93485 2.92867,10.03852 2.15505,15.62027c-1.66519,12.03909 -7.62298,17.8406 -11.02534,20.22708l-0.19287,0.13585l-0.22115,0.09276c-6.29227,2.6452 -12.84805,3.8744 -19.48544,3.6518c-4.56252,-0.15335 -8.96162,-1.08368 -12.66384,-1.97339c-0.49931,-0.12023 -1.03486,-0.23557 -1.59103,-0.35529c-1.48387,-0.3194 -3.16549,-0.68081 -4.75674,-1.24768c-1.64805,-0.5871 -2.94501,-1.30448 -3.96367,-2.19197l-0.00311,-0.00259c-1.09096,-0.64548 -4.62618,-2.71404 -8.6251,-4.80227l-0.57995,-0.29973c-2.00057,-1.03414 -3.83835,-1.92568 -5.4492,-2.64494l-0.06462,-0.0284c-0.88073,-0.39138 -1.70706,-0.73734 -2.47193,-1.03436l-0.03746,-0.01494l-0.05608,-0.02226c-0.29956,-0.11596 -0.59356,-0.22457 -0.88003,-0.32662l-0.17085,-0.06007l-0.08867,-0.03l-0.05194,-0.0178c-0.36961,-0.12701 -0.68933,-0.23016 -0.98023,-0.3153c-0.48448,-0.14337 -0.96482,-0.29838 -1.42763,-0.46325c-5.08055,-1.8099 -8.69946,-4.92339 -10.19062,-8.76628c-1.29007,-3.32598 -0.87045,-6.93188 1.18256,-10.15597c2.49435,-3.91439 5.53828,-5.65019 8.48199,-7.33026c1.01625,-0.57933 2.06581,-1.17828 3.07611,-1.8628c3.60234,-2.72672 6.56787,-6.82242 9.70719,-11.15687c3.82007,-5.27483 7.76444,-10.72066 13.2659,-14.14136c-0.24666,-1.29072 -0.5662,-2.56816 -0.90045,-3.91008c-0.58543,-2.34581 -1.19019,-4.77086 -1.39353,-7.33132c-0.36549,-4.62089 0.71826,-9.33925 3.1334,-13.64485c4.13017,-7.36702 12.44778,-11.86329 22.2492,-12.02551c4.35631,-0.07238 9.1012,0.7589 13.7195,2.40413z" fill="#000000"></path></g><path d="M256.90766,225.63614c-5.75817,2.421 -11.91421,3.6927 -18.49569,3.47223c-4.1194,-0.13852 -8.15811,-0.94126 -12.17259,-1.90682c-2.88657,-0.69376 -6.94698,-1.23508 -9.26958,-3.25839c-0.00046,-0.01478 -0.00292,-0.03562 -0.0031,-0.04882c0,0 -4.51304,-2.7113 -9.68812,-5.38552c0.1332,-1.32149 -0.44158,-2.91528 -0.43188,-4.30998c0.02019,-2.4501 -0.0981,-14.51377 3.38157,-22.05875c4.30566,-9.33559 14.21307,-11.97421 18.83657,-12.70899l0.00166,-0.00021c1.51045,-0.23946 2.45863,-0.27699 2.45863,-0.27699c0,0 -0.00556,0.00875 -0.01606,0.02658c4.42491,-0.62939 13.05149,-2.78989 10.21575,-9.91896c-1.878,-3.84077 -6.13863,-14.27913 -2.31623,-23.56544c4.78995,-11.63577 23.37728,-8.0905 31.43516,-0.34937c0,0 1.04976,-1.42256 2.77743,-2.58525c1.40689,2.35468 2.34939,4.9247 2.65598,7.67957c0.05357,0.48822 0.0263,4.37393 -1.10593,6.27472c-1.58462,2.66111 -3.62282,5.18208 -5.49552,7.6536c-1.76166,2.32341 -3.2594,4.76152 -4.73878,7.25625c-0.84367,1.42303 -1.45529,2.93936 -1.79995,4.55705c-2.27026,10.67067 5.40987,19.93313 3.92747,30.6337c-1.55766,11.25749 -7.01113,16.61179 -10.15681,18.81976z" fill="#ffffff"></path></g><g stroke="none" stroke-width="0.77378" stroke-linecap="butt" stroke-linejoin="miter"><path d="M266.97006,177.60205c-2.92191,-1.14556 -12.36213,-5.45839 -11.16848,-12.86704c0.46179,-2.87802 2.68537,-5.5898 6.09928,-7.43921c4.06565,-2.20326 9.03171,-2.79293 12.65072,-1.50369c0.17277,0.06154 0.34449,0.12809 0.5117,0.19839c2.06618,0.86607 4.38048,2.73951 6.83039,4.7237c1.22927,0.99472 2.50037,2.02431 3.73047,2.9109c0.50045,0.36137 0.99563,0.70773 1.47376,1.04415c3.56118,2.49843 6.92561,4.85751 4.93386,8.29495c-1.51219,2.61216 -3.8885,3.59912 -7.94371,3.2989l-0.18616,-0.01711c-0.33892,-0.02841 -0.65194,-0.0607 -0.97873,-0.10019c-0.03863,-0.0069 -0.07728,-0.01372 -0.11559,-0.0212l-1.19642,0.66045c-4.77958,2.63961 -11.87902,1.70794 -14.56778,0.84391l-0.03692,-0.01167z" fill="#f7941e"></path><path d="M274.18764,156.81612c-6.2395,-2.22277 -16.24659,1.89925 -17.24678,8.12864c-0.95321,5.91307 6.03993,9.92634 10.42936,11.64697c2.40934,0.77442 9.15251,1.71237 13.63034,-0.76022c-0.71798,-0.19117 -1.55773,-0.45802 -2.46743,-0.78209c-4.90259,-1.74651 -11.87542,-5.15499 -13.19224,-7.23686c-0.57081,-0.90168 0.67343,-1.6597 1.47885,-1.37278c0.13998,0.04987 0.26627,0.13103 0.36805,0.2488c1.57231,1.80989 9.01197,6.09603 13.69733,7.76517c0.80909,0.28824 1.53656,0.49898 2.13717,0.60451c0.3115,0.03862 0.60945,0.06942 0.89659,0.09329c0.07298,0.00523 0.14489,0.01077 0.21096,0.019c4.20481,0.31117 5.80788,-0.90047 6.88782,-2.76531c1.71782,-2.96352 -1.97933,-4.96969 -6.06458,-7.91782c-3.62628,-2.61545 -7.40323,-6.27674 -10.3165,-7.49755c-0.14714,-0.06166 -0.29736,-0.11974 -0.44893,-0.17374M274.91703,154.76866c0.19386,0.06907 0.38654,0.14386 0.57675,0.22316c2.22754,0.93428 4.60894,2.86165 7.12846,4.90135c1.21722,0.98506 2.47446,2.00287 3.67755,2.87056c0.49612,0.35744 0.98568,0.7011 1.46086,1.03419c3.46017,2.42708 7.76743,5.44812 5.28958,9.72442c-1.72829,2.98365 -4.50439,4.16582 -9.0013,3.83278l-0.05225,-0.00321l-0.0661,-0.00815l-0.07087,-0.00607l-0.03671,-0.00304l-0.01048,-0.00066c-0.2359,-0.02022 -0.47813,-0.04351 -0.72843,-0.07185l-0.86197,0.47585c-5.52374,3.04967 -13.23884,1.65567 -15.50596,0.92725l-0.07363,-0.02394l-0.07285,-0.02823c-3.1282,-1.22592 -13.23143,-5.86577 -11.90666,-14.08528c0.51968,-3.24344 2.87723,-6.15131 6.63645,-8.18841c4.34437,-2.35393 9.68875,-2.97036 13.6176,-1.57074z" fill="#000000"></path></g><path d="M257.76906,146.80483c0.76237,0.27159 1.32093,0.88972 1.60675,1.6691c0.28608,0.77868 0.30027,1.71892 -0.026,2.6348c-0.32627,0.91587 -0.93176,1.63545 -1.64573,2.05788c-0.71421,0.42313 -1.53777,0.54889 -2.30014,0.2773c-0.76246,-0.27162 -1.32102,-0.88975 -1.60685,-1.66914c-0.28608,-0.77868 -0.30014,-1.71898 0.02613,-2.63486c0.32627,-0.91587 0.93164,-1.6354 1.64561,-2.05782c0.71421,-0.42313 1.53777,-0.54889 2.30024,-0.27727z" fill="#000000" stroke="none" stroke-width="0.77378" stroke-linecap="butt" stroke-linejoin="miter"></path><path d="M273.8219,151.06147c0.58451,0.20823 1.01287,0.68227 1.23217,1.27951c0.21903,0.59796 0.22978,1.31931 -0.02042,2.02164c-0.25018,0.70225 -0.71457,1.25433 -1.26234,1.57912c-0.54751,0.32408 -1.1791,0.42052 -1.76361,0.21229c-0.58461,-0.20826 -1.01287,-0.68227 -1.23227,-1.27955c-0.21903,-0.59796 -0.22978,-1.31931 0.02038,-2.02156c0.2502,-0.70234 0.7146,-1.25442 1.26236,-1.57921c0.54761,-0.32406 1.1791,-0.42052 1.76371,-0.21225z" fill="#000000" stroke="none" stroke-width="0.77378" stroke-linecap="butt" stroke-linejoin="miter"></path><path d="M231.03227,161.20282c19.59708,4.31492 50.72848,14.34517 62.35908,31.64721c9.05062,13.46332 -3.8675,11.7707 -21.45751,5.36433c-17.58999,-6.40638 -30.64861,-22.31271 -30.64861,-22.31271" fill="#8a8fc6" stroke="#000000" stroke-width="2.31554" stroke-linecap="round" stroke-linejoin="round"></path></g></g></svg>