<svg version="1.1" xmlns="http://www.w3.org/2000/svg" xmlns:xlink="http://www.w3.org/1999/xlink" width="154.08771" height="123.54129" viewBox="0,0,154.08771,123.54129"><g transform="translate(-154.5942,-127.52057)"><g data-paper-data="{&quot;isPaintingLayer&quot;:true}" fill-rule="nonzero" stroke="none" stroke-width="1" stroke-linecap="butt" stroke-linejoin="miter" stroke-miterlimit="10" stroke-dasharray="" stroke-dashoffset="0" style="mix-blend-mode: normal"><g data-paper-data="{&quot;index&quot;:null}"><path d="M284.19789,214.89577c2.85367,-1.15525 16.38787,0.70095 19.54253,0.44638c3.15466,-0.25456 9.24056,2.60735 -1.85169,1.99938c0,0 8.36477,3.48739 5.7111,4.16401c-2.65366,0.67663 -7.29965,-1.78119 -7.29965,-1.78119c0,0 6.03822,7.02815 3.68461,6.98684c-2.35359,-0.0413 -6.81309,-4.76881 -6.81309,-4.76881c0,0 3.95941,5.92406 0.95431,5.01035c-1.31468,-0.29857 -3.03219,-4.49579 -8.69096,-4.73289" fill="#a3b339"></path><path d="M239.04656,201.77414c-1.16976,-9.56002 13.86653,-8.05627 16.22292,-3.15906c2.48164,5.00272 3.05835,6.45926 7.09164,10.18056c4.03329,3.7213 20.7843,4.56637 28.42184,6.14687c7.76281,1.68601 7.26551,7.73847 -1.14693,8.41732c-7.123,0.63261 -24.22266,3.05307 -33.76422,-0.45496c-9.54157,-3.50803 -15.66811,-11.7431 -16.82524,-21.13071z" fill="#a3b339"></path><path d="M296.77346,226.1369c0,0 -0.25051,-0.21102 -0.48838,-0.24964c-0.26314,-0.38346 -0.76415,-0.8055 -1.50303,-1.26618c-0.73888,-0.46067 -1.71566,-0.95997 -2.64195,-0.76959c-0.46316,0.09518 -1.03893,0.25727 -1.61472,0.41935c-0.57578,0.1621 -1.38946,0.28556 -2.09049,0.34214c-2.79154,0.39869 -6.17145,0.78706 -9.91452,1.0313c-1.99049,0.10281 -3.86833,0.13872 -5.8588,0.24154c-2.00309,-0.0696 -3.99356,0.0332 -6.12191,-0.14191c-2.12835,-0.1751 -4.25671,-0.35023 -6.39766,-0.69776c-1.07678,-0.25997 -2.02832,-0.41443 -3.23036,-0.77992c-0.60103,-0.18273 -1.20204,-0.36549 -1.69042,-0.61513c-0.60102,-0.18273 -0.96416,-0.32688 -1.45254,-0.57652c-2.06618,-0.93167 -3.68184,-2.13094 -5.17223,-3.22471c-1.37775,-1.16066 -2.6429,-2.38823 -3.54489,-3.47165c-1.92924,-2.27237 -2.89433,-4.21788 -3.58367,-5.60752c-0.28838,-0.72827 -0.56408,-1.28415 -0.58933,-1.62897c-0.1505,-0.45035 -0.16312,-0.62276 -0.16312,-0.62276c0,0 0.28833,0.72825 1.09031,2.051c0.91463,1.25585 2.23021,3.17306 4.25948,5.20613c1.01465,1.01654 2.26713,2.07168 3.63229,3.05993c1.36515,0.98826 3.08081,1.94821 4.65861,2.63024c0.48839,0.24964 0.96416,0.32688 1.45254,0.57652c0.36315,0.14413 0.85155,0.39379 1.3273,0.47101c0.96417,0.32686 1.91571,0.48132 2.86724,0.63578c2.01571,0.24202 4.03142,0.48404 6.03451,0.55364c2.00311,0.06959 4.00619,0.13919 5.88404,0.10328c1.99048,-0.10281 3.8683,-0.13872 5.74615,-0.17463c3.63044,-0.17733 7.02299,-0.39328 9.93977,-0.68647c0.81368,-0.12346 1.40207,-0.11314 1.97786,-0.27522c0.70103,-0.0566 1.27682,-0.21866 2.1031,-0.16973c0.70104,-0.05656 1.53994,0.1648 2.15358,0.51996c0.61364,0.35516 0.98941,0.67171 1.36515,0.98825c0.63889,0.70001 1.02725,1.18896 1.29038,1.5724c0.26312,0.38346 0.27573,0.55586 0.27573,0.55586z" fill="#687a27"></path><path d="M288.51674,214.48942c0,0 -2.34098,0.13109 -6.1219,-0.1419c-0.93892,0.01796 -2.00308,-0.0696 -3.06727,-0.15716c-1.18943,-0.19307 -2.36622,-0.21371 -3.55565,-0.40679c-2.49148,-0.31924 -5.1082,-0.74401 -7.75017,-1.5136c-1.31469,-0.2986 -2.64198,-0.76958 -3.98189,-1.41301c-0.61365,-0.35515 -1.33992,-0.64341 -1.84092,-1.06547c-0.2505,-0.21103 -0.25049,-0.21104 -0.501,-0.42206l-0.37574,-0.31654c-0.25052,-0.21102 -0.50099,-0.42206 -0.7515,-0.63308c-1.01463,-1.01653 -1.54089,-1.78343 -2.19238,-2.65582c-0.6515,-0.87239 -1.17774,-1.63928 -1.4661,-2.36755c-1.50395,-2.88481 -1.64274,-4.78137 -1.64274,-4.78137c0,0 0.27573,0.55587 0.80198,1.32275c0.4136,0.83379 1.20296,1.98412 2.24284,3.34548c0.5136,0.59447 1.03985,1.36136 1.67873,2.06135c0.63887,0.69999 1.40299,1.50551 2.1545,2.13859c0.88938,0.91101 1.62828,1.37167 2.71768,1.80407c0.97679,0.49929 2.17883,0.86478 3.38087,1.23027c2.40408,0.73097 5.03344,1.32814 7.29965,1.78119c2.37885,0.38615 4.64507,0.83919 6.54814,1.14811c3.80614,0.61782 6.42288,1.04259 6.42288,1.04259z" fill="#687a27"></path><path d="M308.2981,216.59313c0,0 0.23787,0.03862 0.37574,0.31654c0.01264,0.17242 0.03787,0.51725 -0.17478,0.82346c-0.21265,0.30621 -0.55055,0.50692 -1.0137,0.60209c-0.33791,0.20069 -0.80106,0.29589 -1.38946,0.28555c-0.93893,0.01795 -2.01572,-0.24201 -2.74198,-0.53027c-0.83892,-0.22136 -1.3399,-0.64342 -1.3399,-0.64342c0,0 0.45051,-0.26762 1.0263,-0.4297c0.56317,-0.33451 1.37684,-0.45795 2.20312,-0.40902c0.82627,0.04894 1.6526,0.09789 2.12835,0.17511c0.35053,-0.02829 0.5884,0.01032 0.70104,-0.05657c0.11262,-0.06691 0.22526,-0.1338 0.22526,-0.1338z" fill="#687a27"></path><path d="M307.59982,221.50552c0,0 -0.21263,0.30623 -1.0263,0.4297c-0.68841,0.22898 -1.73997,0.31385 -2.81676,0.05387c-0.47576,-0.07721 -1.07678,-0.25996 -1.56516,-0.5096c-0.4884,-0.24966 -0.73891,-0.46069 -1.11465,-0.77723c-0.2505,-0.21102 -0.62625,-0.52756 -0.63887,-0.69998c-0.01261,-0.1724 -0.13787,-0.27792 -0.13787,-0.27792c0,0 0.11264,-0.0669 0.35051,-0.02828c0.23789,0.03862 0.60103,0.18274 0.95154,0.15446c0.8263,0.04897 1.53995,0.16478 2.37885,0.38615c0.8389,0.22135 1.67782,0.44271 2.40408,0.73097c0.601,0.18274 1.21464,0.5379 1.21464,0.5379z" fill="#687a27"></path><path d="M304.11009,226.81675c0,0 -0.11265,0.06688 -0.5884,-0.01034c-0.35054,0.02827 -0.70107,0.05656 -1.17682,-0.02066c-0.47578,-0.07722 -1.0768,-0.25998 -1.56518,-0.50962c-0.48838,-0.24965 -1.10203,-0.60481 -1.47777,-0.92135c-0.87676,-0.73861 -1.51563,-1.4386 -1.80399,-2.16687c-0.1631,-0.62276 -0.20096,-1.14 -0.20096,-1.14c0,0 0.60102,0.18273 1.3399,0.64341c0.48838,0.24963 0.73888,0.46067 1.22726,0.71031c0.2505,0.21104 0.73891,0.46069 1.11465,0.77723c0.86414,0.56619 1.37775,1.16065 2.00402,1.68823c0.25051,0.21102 0.501,0.42206 0.75151,0.63308c0.2505,0.21103 0.37574,0.31654 0.37574,0.31654z" fill="#687a27"></path></g><g data-paper-data="{&quot;index&quot;:null}"><path d="M239.15337,236.3922c2.30455,2.72952 5.65287,0.34098 6.58033,1.41029c1.48958,1.68841 -2.78562,2.0514 -2.78562,2.0514c3.1771,1.63319 7.22792,0.25758 7.81764,1.72043c0.95477,2.3912 -6.7222,0.58648 -6.7222,0.58648c2.02409,1.46374 9.70164,2.3122 8.18181,4.08313c-1.37915,1.68663 -12.06435,-1.94804 -12.06435,-1.94804c0,0 5.00294,5.31867 2.64082,4.7266c-2.36212,-0.59207 -4.89076,-4.81235 -9.38886,-7.8526" fill="#a3b339"></path><path d="M226.88196,205.22232c7.56861,-4.91718 13.7228,3.43967 10.68314,6.98153c-3.03966,3.54186 -3.99649,4.49752 -5.18005,8.26552c-1.18356,3.76801 6.34832,12.82882 8.76418,17.49904c2.38768,4.78269 -3.01381,7.25435 -7.73629,3.20147c-4.04789,-3.40559 -14.53366,-11.17449 -16.24526,-17.7005c-1.7116,-6.52601 2.28637,-13.41414 9.71429,-18.24704z" fill="#a3b339"></path><path d="M240.41212,247.58671c0,0 -0.47783,-0.47843 -2.08047,-1.23878c-1.09634,-0.87255 -2.5862,-2.08284 -4.38533,-3.49018c-0.42173,-0.22525 -0.89955,-0.70367 -1.43377,-0.95712c-0.50603,-0.36593 -1.12454,-0.76007 -1.63056,-1.126c-0.98385,-0.84434 -2.22085,-1.6326 -3.28899,-2.61763c-1.18062,-1.01322 -2.27696,-1.88577 -3.42938,-3.01147c-1.15243,-1.1257 -2.33305,-2.13892 -3.3448,-3.34891c-1.12423,-1.23818 -2.13597,-2.44818 -3.00705,-3.74245c-0.87107,-1.29427 -1.60147,-2.67285 -2.02232,-4.33247c-0.02791,-0.36564 -0.16829,-0.75948 -0.19619,-1.12511c0.00029,-0.47813 -0.0276,-0.84378 -0.0555,-1.20941c0.05668,-0.70309 0.11337,-1.40618 0.17005,-2.10926c0.22585,-1.37798 0.56418,-2.72777 1.07108,-3.7962c1.042,-2.24935 2.28047,-3.8517 3.23731,-4.80736c0.50661,-0.5903 0.92864,-0.84317 1.23818,-1.12423c0.30955,-0.28107 0.45022,-0.36535 0.45022,-0.36535c0,0 -0.14068,0.08429 -0.33774,0.39354c-0.16887,0.19676 -0.53481,0.70279 -0.90074,1.20881c-0.76007,1.12451 -1.6611,2.81145 -2.42175,4.89222c-0.28194,1.12482 -0.56389,2.24964 -0.64906,3.54333c-0.02848,0.59061 -0.08516,1.2937 -0.00117,1.9125c0.0279,0.36563 0.08399,0.6188 0.11189,0.98443c0.05611,0.25315 0.19648,0.647 0.22438,1.01263c0.39295,1.29398 1.15155,2.56007 1.93833,3.71367c0.89927,1.1818 1.79854,2.36359 2.83848,3.4611c0.89926,1.18179 2.07988,2.19501 3.11982,3.29252c1.15242,1.12569 2.22056,2.11072 3.2887,3.09575c1.09634,0.87255 2.16446,1.85757 3.14832,2.70193c0.47782,0.47841 0.98385,0.84435 1.48987,1.21028c0.6185,0.39412 1.09632,0.87254 1.48986,1.21028c1.74274,1.63231 3.06374,3.03937 3.9912,4.10868c0.92745,1.06931 1.37709,1.66021 1.37709,1.66021z" fill="#687a27"></path><path d="M239.94132,235.63334c0,0 -1.26491,-1.15389 -3.20441,-2.95508c-0.84318,-0.92864 -1.85493,-2.13862 -2.69781,-3.54539c-0.84288,-1.40677 -1.65757,-2.92601 -2.30338,-4.64202c-0.25257,-0.90016 -0.50514,-1.80031 -0.50455,-2.75655c0.00029,-0.47812 0.00059,-0.95624 0.14156,-1.51865l0.14097,-0.56241l0.28164,-0.6467c0.30984,-0.75918 0.73216,-1.49017 1.12629,-2.10867c0.39412,-0.6185 0.78826,-1.23701 1.26667,-1.71484c1.80117,-1.93951 3.23613,-2.89487 3.23613,-2.89487c0,0 -0.33774,0.39355 -0.73187,1.01205c-0.39412,0.61851 -0.98532,1.54626 -1.6047,2.5865c-0.28165,0.64669 -0.64759,1.15272 -0.92923,1.79942c-0.39412,0.6185 -0.67577,1.2652 -0.84493,1.94009l-0.11278,0.44993l-0.14097,0.56241c-0.05639,0.22496 -0.02849,0.59061 -0.00059,0.95624c0.05579,0.73128 0.22407,1.49075 0.50484,2.27842c0.58972,1.46286 1.29193,2.9539 2.02232,4.33247c0.7304,1.37856 1.48899,2.64464 2.16329,3.77005c1.34861,2.25081 2.19149,3.65758 2.19149,3.65758z" fill="#687a27"></path><path d="M240.16098,244.29588c0,0 0.84376,-0.02762 1.68752,-0.05522c1.18121,0.05699 2.67166,0.31103 4.13393,0.67755c0.67489,0.16917 1.46227,0.36653 2.13716,0.53569c0.33745,0.08458 0.6749,0.16917 1.01234,0.25375c0.33744,0.08458 0.67489,0.16916 0.89985,0.22555c0.36563,-0.02789 0.5906,0.02849 0.81556,0.08488c0.25317,-0.05609 0.47813,0.00029 0.59061,0.02849c0.33745,0.08459 0.59061,0.02849 0.59061,0.02849c0,0 -0.14068,0.08429 -0.45022,0.36535c-0.16888,0.19677 -0.30956,0.28106 -0.56271,0.33715c-0.16887,0.19677 -0.53452,0.22468 -0.78767,0.28077c-0.647,0.19648 -1.37828,0.25227 -2.08136,0.19559c-0.70308,-0.05668 -1.51865,-0.14156 -2.30602,-0.33892c-1.49046,-0.25404 -3.00882,-0.87373 -4.04906,-1.49311c-1.04024,-0.61939 -1.63055,-1.12599 -1.63055,-1.12599z" fill="#687a27"></path><path d="M250.90641,241.49003c-0.14068,0.08428 0.08429,0.14066 -0.19706,0.30924c0.08429,0.14068 0.02789,0.36565 -0.02849,0.59061c-0.05639,0.22496 -0.22526,0.42174 -0.39413,0.6185c-0.14069,0.08429 -0.30956,0.28106 -0.56271,0.33715c-0.25315,0.05609 -0.50632,0.11218 -0.75947,0.16827c-0.39384,0.14039 -0.98444,0.1119 -1.46256,0.11161c-0.47812,-0.00029 -0.92805,-0.11308 -1.37798,-0.22585c-0.42174,-0.22526 -0.87167,-0.33804 -1.18092,-0.5351c-0.61849,-0.39414 -1.01204,-0.73187 -1.01204,-0.73187c0,0 0.53451,-0.22468 1.26579,-0.28047c0.36565,-0.0279 0.73129,-0.05579 1.20941,-0.0555c0.22496,0.05639 0.47812,0.00029 0.70308,0.05668c0.22496,0.05638 0.47812,0.00029 0.70308,0.05668c0.47813,0.0003 0.95625,0.0006 1.29369,0.08518c0.25317,-0.05609 0.47813,0.00029 0.59061,0.02849c0.25316,-0.05609 0.36564,-0.0279 0.47812,0.0003c0.11248,0.0282 0.25315,-0.0561 0.36563,-0.0279c0.14068,-0.08429 0.25316,-0.05609 0.28135,-0.16857c0.05639,-0.22497 0.08458,-0.33745 0.08458,-0.33745z" fill="#687a27"></path><path d="M245.87438,237.7182c0,0 0.11248,0.02819 0.25315,-0.05609c0.22496,0.05638 0.44994,0.11277 0.59032,0.5066c0.08429,0.14068 0.14037,0.39384 0.08399,0.6188c-0.05638,0.22496 -0.11277,0.44994 -0.28164,0.6467c-0.14067,0.08429 -0.30955,0.28107 -0.45022,0.36535c-0.25317,0.05609 -0.39384,0.14038 -0.53451,0.22466c-0.67519,0.30897 -1.35008,0.13979 -1.80001,0.02702c-0.44993,-0.11277 -0.73099,-0.42231 -0.73099,-0.42231c0,0 0.19708,-0.30926 0.6191,-0.56212c0.42202,-0.25286 0.84406,-0.50573 1.23789,-0.64611l0.25315,-0.05609c0.14067,-0.08428 0.14067,-0.08429 0.25315,-0.05609l0.11248,0.02819c-0.02819,0.11248 0.11248,0.02819 0.11248,0.02819c0.14067,-0.08429 0.19707,-0.30925 0.22526,-0.42173c0.02819,-0.11248 0.05638,-0.22496 0.05638,-0.22496z" fill="#687a27"></path></g><path d="M218.41858,229.02912c0,0 -0.9277,0.11597 -2.66712,-0.34788c-1.73943,-0.11597 -4.17462,-0.46385 -6.9577,-1.15962c-1.39154,-0.34789 -2.89904,-0.81173 -4.5225,-1.39154c-1.62346,-0.69577 -3.24693,-1.39154 -4.87039,-2.20327c-1.62346,-0.81173 -3.24693,-1.85539 -4.87039,-2.89904c-1.62346,-1.04365 -3.13096,-2.31923 -4.63846,-3.59481c-1.5075,-1.27558 -2.89904,-2.78308 -4.17462,-4.17462c-1.27558,-1.5075 -2.4352,-3.015 -3.47885,-4.5225c-0.9277,-1.5075 -1.85539,-3.015 -2.66712,-4.5225c-0.81173,-1.5075 -1.39154,-2.89904 -1.97135,-4.29058c-0.57981,-1.27558 -1.04366,-2.55115 -1.39154,-3.71077c-0.34788,-1.04365 -0.69577,-2.08731 -0.92769,-2.89904c-0.46385,-1.62347 -0.69577,-2.55116 -0.69577,-2.55116c0,0 0.46384,0.81173 1.04365,2.43519c0.23193,0.81173 0.69577,1.73943 1.15962,2.78308c0.46384,1.15962 1.15961,2.31923 1.73942,3.59481c0.23192,0.69577 0.69577,1.27558 1.04365,1.97135c0.34789,0.69577 0.69577,1.39154 1.15962,2.08731c0.92769,1.39154 1.85539,2.78308 2.89904,4.29058c0.46384,0.81173 1.04365,1.5075 1.62346,2.20327c0.69577,0.69577 1.27558,1.39154 1.85539,2.08731c1.27558,1.39154 2.66712,2.66712 4.05866,3.9427c1.39154,1.39154 2.89904,2.55116 4.40654,3.59481c1.5075,1.04365 3.015,2.08731 4.63846,2.89904c3.13096,1.85539 6.26192,3.13097 8.92904,4.05866c1.27558,0.46385 2.55115,0.81174 3.71077,1.15962c1.04365,0.34789 2.08731,0.57981 2.89904,0.69577c1.73943,0.34789 2.66712,0.46385 2.66712,0.46385z" data-paper-data="{&quot;index&quot;:null}" fill="#4a3369"></path><path d="M255.99013,205.72085c0,0 -2.08731,1.62346 -5.21827,3.82673c-1.62347,1.15961 -3.47885,2.43519 -5.4502,3.71077c-1.97135,1.39154 -4.05866,2.66712 -6.26193,4.05866c-1.04366,0.69577 -2.20328,1.27558 -3.24693,1.97135c-1.04365,0.69577 -2.08731,1.27558 -3.13096,1.85539c-2.08731,1.27558 -3.9427,2.31924 -5.68212,3.24693c-3.36289,1.85539 -5.68212,2.89904 -5.68212,2.89904c0,0 1.97135,-1.62346 5.10231,-3.82673c1.62347,-1.15961 3.47885,-2.43519 5.4502,-3.71077c1.04365,-0.57981 2.08731,-1.27558 3.13096,-1.97135c1.04366,-0.69577 2.20328,-1.39154 3.24693,-2.08731c2.08731,-1.27557 4.29058,-2.66711 6.37789,-3.82673c2.08731,-1.27558 3.9427,-2.31924 5.68212,-3.24693c3.36289,-1.85539 5.68212,-2.89904 5.68212,-2.89904z" data-paper-data="{&quot;index&quot;:null}" fill="#4a3369"></path><path d="M226.30394,182.101c-3.47884,-3.70406 -0.34788,-11.22112 -0.34788,-11.22112c18.43789,0.76261 39.54291,30.61296 39.54291,30.61296c0,0 -7.65347,5.99186 -7.76943,5.88292c0,0 -10.08866,17.43086 -13.79943,20.37232c0,0 -28.29463,-16.9951 -35.36829,-28.54305z" data-paper-data="{&quot;index&quot;:null}" fill="#4a3369"></path><g data-paper-data="{&quot;index&quot;:null}"><g fill="#a3b339"><path d="M189.31218,210.31721c5.91405,-0.43577 8.58116,10.89429 9.74078,17.97558c1.15962,7.08128 -8.11731,14.4894 -11.71212,6.8634c-3.59481,-7.62601 -2.78308,-24.51217 1.97135,-24.83899z"></path><path d="M198.93703,228.29278c-0.23193,3.37723 0.46384,7.84388 3.015,7.626c2.55116,-0.21788 8.34924,0.65366 6.84174,2.50569c-1.5075,1.85203 -9.9727,-0.65366 -9.9727,-0.65366c0,0 9.27693,4.03089 7.76943,5.88292c-1.5075,1.85203 -10.55251,-4.46666 -10.55251,-4.46666c0,0 6.60981,5.88292 4.29058,6.31869c-2.31924,0.43578 -6.49385,-6.53656 -8.34924,-6.20974c-1.85538,0.32683 1.39154,6.97234 -1.62346,5.99186c-3.01501,-0.98049 -4.87039,-13.29104 -4.05866,-15.36095"></path></g><path d="M210.06933,214.45701c10.08866,8.06178 16.58251,16.45039 9.50885,19.93656c-4.05866,2.06992 -29.80214,-3.48617 -32.58522,-16.99509c-2.78308,-13.50893 12.9877,-10.89429 23.07636,-2.94146z" fill="#a3b339"></path><path d="M199.16894,202.25542c3.24692,-7.29917 15.07501,-16.7772 24.58386,1.30732c6.03,11.54795 8.00135,29.08776 -4.17462,30.93979c-12.17597,1.85204 -23.65618,-24.94792 -20.40925,-32.2471z" fill="#a3b339"></path><path d="M224.68051,205.41474c0,0 0.11596,0.21789 0.23192,0.65366c0.23192,0.32683 0.57981,0.98049 0.92769,1.74309c0.69577,1.5252 1.62346,3.81301 2.43519,6.64552c0.34788,1.30731 0.69577,2.94146 0.92769,4.5756c0.23192,1.63414 0.34788,3.48617 0.23192,5.3382c-0.11596,1.85202 -0.57981,3.813 -1.62346,5.66503c-0.92769,1.85203 -2.78308,3.37723 -4.98635,4.03089l-1.5075,0.43577l-1.5075,0.43577l-1.5075,0.32682l-1.39154,0.21788c-2.08731,0.10895 -4.17462,0 -6.14597,-0.32682c-3.82674,-0.7626 -7.30558,-2.17887 -9.85674,-3.81301c-1.27558,-0.76261 -2.4352,-1.63415 -3.36289,-2.39675c-1.04365,-0.76259 -1.85538,-1.41625 -2.43519,-2.06991c-1.27558,-1.19837 -1.85539,-1.96097 -1.85539,-1.96097c0,0 0.69577,0.65366 2.08731,1.74309c1.27557,1.08944 3.36288,2.50569 6.03,3.92195c2.66711,1.41626 5.91404,2.72358 9.62481,3.15935c1.85539,0.21788 3.71077,0.32682 5.68212,0.10894l1.39154,-0.21788l1.39154,-0.32682l1.39154,-0.32682l1.39154,-0.43577c1.73943,-0.65366 3.13097,-1.74309 4.05866,-3.26829c0.92769,-1.5252 1.27558,-3.26828 1.5075,-5.01137c0.23192,-3.48617 -0.23192,-6.75446 -0.69577,-9.58697c-0.46384,-2.83251 -1.15961,-5.12032 -1.62346,-6.75446c-0.23193,-0.7626 -0.46385,-1.41626 -0.57981,-1.85203c-0.11596,-0.43578 -0.23192,-0.65366 -0.23192,-0.65366z" fill="#687a27"></path><path d="M194.7624,207.81157c0,0 -0.46385,0 -1.27558,-0.21788c-0.34788,0 -0.92769,0.21788 -1.5075,0.32682c-0.57981,0.21788 -1.27558,0.43577 -1.85539,0.87154c-0.34788,0.21789 -0.57981,0.43578 -0.92769,0.65366c-0.23192,0.32682 -0.57981,0.54472 -0.81173,0.87154c-0.23192,0.32682 -0.46385,0.65366 -0.69577,0.98048c-0.23193,0.32683 -0.46385,0.65366 -0.57981,1.08943c-0.34789,0.87154 -0.46385,1.74309 -0.69577,2.61463c-0.11596,0.98048 -0.23192,1.85203 -0.34788,2.83251c-0.11596,0.87154 -0.23192,1.85203 -0.23192,2.83251c0,0.98048 0,1.96097 0,2.83251c0,1.85202 0,3.59511 0.11596,5.01137c0.11596,1.41626 0.23192,2.61463 0.34788,3.48617c0,0.43576 0,0.7626 0.11596,0.98048c0,0.10894 0.11596,0.21788 0.11596,0.21788c0.11596,0 0.11596,0 0.11596,0c-0.11596,0 0,0.10894 -0.11596,0.10894c-0.11596,0 -0.11596,-0.10894 -0.23192,-0.21788c-0.11597,-0.21788 -0.34789,-0.54471 -0.46385,-0.98048c-0.34788,-0.87154 -0.69577,-2.06991 -1.04365,-3.48617c-0.23192,-1.41626 -0.57981,-3.15934 -0.69577,-5.01137c0,-0.87154 -0.11596,-1.85203 -0.11596,-2.83251c0,-0.98049 0,-1.96098 0.11596,-2.94146c0.11597,-0.98049 0.23193,-1.96098 0.46385,-2.94146c0.11597,-0.43578 0.23193,-0.98049 0.46385,-1.41626c0.23193,-0.54472 0.34789,-0.98049 0.57981,-1.41626c0.11596,-0.43578 0.34789,-0.87155 0.69577,-1.30732c0.23192,-0.43577 0.57981,-0.76261 0.92769,-1.08943c0.34788,-0.32682 0.69577,-0.54472 1.04365,-0.87154c0.46385,-0.21789 0.81174,-0.54472 1.15962,-0.65366c0.81173,-0.43578 1.5075,-0.54472 2.20327,-0.65366c0.69577,0 1.27557,0 1.73942,0c0.46384,0.10894 0.81173,0.21788 1.04365,0.21788c0.23192,0.10894 0.34788,0.10894 0.34788,0.10894z" fill="#687a27"></path><path d="M192.55913,239.5139c0.34789,0 0.81173,0.21789 1.27558,0.43577c0.46385,0.21788 1.04365,0.54471 1.5075,0.98048c0.46385,0.43578 0.92769,0.87155 1.39154,1.30732c0.92769,0.98049 1.62346,1.96097 2.31923,2.61463c0.23192,0.32684 0.57981,0.54472 0.81173,0.65366c0.11596,0.10894 0.23192,0.10894 0.34788,0.10894c0.11596,0 0.11596,0 0.11596,0c0,0 -0.11597,0.10894 -0.46385,0.21788c-0.34789,0 -0.81173,0 -1.39154,-0.21788c-1.04365,-0.43577 -2.20327,-1.30732 -3.13096,-2.2878c-0.46385,-0.54472 -0.9277,-1.08943 -1.27558,-1.5252c-0.34788,-0.43578 -0.69577,-0.87155 -0.92769,-1.30732c-0.23192,-0.32682 -0.46385,-0.65366 -0.69577,-0.87154c-0.23192,-0.21788 -0.34788,-0.32682 -0.34788,-0.32682c0,0 0.11597,-0.10894 0.46385,0.21788z" fill="#687a27"></path><path d="M196.03798,239.1871c0,0 0.81173,0.21788 1.5075,0.7626c1.04365,0.43577 2.31923,1.08943 3.59481,1.74309c0.69577,0.32682 1.27558,0.65366 1.85539,0.98048c0.23192,0.10895 0.57981,0.32683 0.81173,0.43577c0.34788,0.10894 0.57981,0.21788 0.81173,0.32682c0.23192,0.10894 0.46385,0.21788 0.69577,0.21788c0.23193,0 0.46385,0.10894 0.57981,0.10894c0.34789,0 0.57981,0 0.57981,0c0,0 -0.11597,0.10894 -0.46385,0.32682c-0.11596,0.10894 -0.34789,0.10894 -0.57981,0.21788c-0.23192,0.10894 -0.46385,0.10894 -0.81173,0.10894c-0.34788,0 -0.69577,-0.10894 -1.04365,-0.10894c-0.34788,0 -0.69577,-0.10894 -1.04365,-0.21788c-0.69577,-0.21788 -1.39154,-0.54472 -2.08731,-0.87154c-0.69577,-0.32683 -1.27558,-0.7626 -1.85539,-1.19837c-0.57981,-0.43578 -1.04366,-0.87155 -1.39154,-1.30732c-0.81174,-0.87154 -1.15962,-1.5252 -1.15962,-1.5252z" fill="#687a27"></path><path d="M208.79376,238.4245c0,0 0,0.21788 -0.11596,0.32682c-0.23193,0.21789 -0.69577,0.54472 -1.15962,0.65366c-0.46384,0.21788 -1.15961,0.32682 -1.73942,0.32682c-0.69577,0 -1.27558,0 -1.97135,-0.10894c-1.39154,-0.10894 -2.55116,-0.54471 -3.47885,-0.98048c-0.81173,-0.43577 -1.39154,-0.87154 -1.39154,-0.87154c0,0 0.69577,-0.10894 1.62346,-0.10894c1.04366,0 2.20327,0 3.47885,0.21788c0.5798,0.10894 1.15961,0.21788 1.73942,0.32682c0.57981,0.10894 1.04365,0.10894 1.5075,0.21788c0.34788,0.10894 0.81173,0.10894 1.04365,0.10894c0.34789,0 0.46385,-0.10894 0.46385,-0.10894z" fill="#687a27"></path><path d="M199.16894,229.60013c0,0 0.23193,0.43577 0.57981,1.08943c0.23193,0.54471 0.46385,1.30731 0.57981,2.06991c0.11596,0.7626 0.23192,1.41625 0.34788,1.96097c0,0.10894 0.11596,0.21788 0.11596,0.32682c0,0.10894 0.11596,0.21788 0.11596,0.32682c0.11596,0.21788 0.11596,0.32682 0.11596,0.32682c0,0 -0.11596,0 -0.34788,0c-0.23193,0 -0.34789,0 -0.46385,-0.10894c-0.11597,0 -0.34789,-0.10894 -0.46385,-0.21788c-0.23192,-0.21788 -0.57981,-0.54471 -0.81173,-0.98048c-0.23193,-0.43578 -0.34789,-0.87155 -0.46385,-1.30732c-0.23192,-0.87155 -0.11596,-1.74309 0.11596,-2.39675c0.23193,-0.65366 0.57981,-1.08943 0.57981,-1.08943z" fill="#687a27"></path></g><g data-paper-data="{&quot;index&quot;:null}"><path d="M270.48533,172.18718c-5.05947,0 -9.16097,-3.85326 -9.16097,-8.60649c0,-4.75324 4.10151,-8.60649 9.16097,-8.60649c5.05947,0 9.16097,3.85326 9.16097,8.60649c0,4.75324 -4.10151,8.60649 -9.16097,8.60649z" fill="#a3b339"></path><path d="M278.71862,159.76772c0,0 -0.23193,-0.21789 -0.46385,-0.65366c-0.34789,-0.43577 -1.04366,-1.08942 -1.85539,-1.63414c-0.34789,-0.21788 -0.81173,-0.54472 -1.39154,-0.7626c-0.5798,-0.2179 -1.15961,-0.43578 -1.73942,-0.54472c-0.69577,-0.10894 -1.27558,-0.21788 -1.97135,-0.21788c-0.57981,0 -1.39154,0 -1.97135,0.10894c-0.34788,0.10894 -0.69577,0.10894 -1.04365,0.21788l-0.92769,0.32682c-0.34788,0.21789 -0.69577,0.32683 -0.92769,0.43577c-0.23192,0.10895 -0.57981,0.21789 -0.81173,0.43577c-0.46385,0.32683 -1.04366,0.65366 -1.39154,1.08943c-0.34788,0.32683 -0.69577,0.7626 -1.04365,1.19837c-0.57981,0.87154 -1.04366,1.63414 -1.27558,2.17886c-0.34789,0.54472 -0.46385,0.87154 -0.46385,0.87154c0,0 -0.11596,-0.32682 0,-0.98048c0,-0.54472 0.23192,-1.52521 0.69577,-2.50569c0.46384,-1.08944 1.15961,-2.17887 2.31923,-3.15935c0.23192,-0.21789 0.57981,-0.43578 0.92769,-0.65366c0.34788,-0.2179 0.69577,-0.32684 1.04365,-0.54472c0.34789,-0.21789 0.69577,-0.32683 1.15962,-0.43577c0.34788,-0.10894 0.69577,-0.10894 1.04365,-0.21788c0.92769,-0.10894 1.62346,-0.10894 2.43519,-0.10894c0.81173,0.10895 1.62346,0.21789 2.31923,0.43577c0.69577,0.21788 1.39154,0.54472 1.97135,0.87154c0.57981,0.32683 1.15962,0.7626 1.5075,1.19837c0.81173,0.7626 1.27558,1.63414 1.5075,2.17886c0.23192,0.54472 0.34788,0.87154 0.34788,0.87154z" fill="#687a27"></path></g><path d="M283.24115,169.35466c0,0 -0.57981,-0.54471 -1.27558,-1.19837c-0.57981,-0.43578 -1.15962,-0.87154 -1.97135,-1.41626c-0.81173,-0.54471 -1.73943,-1.08942 -2.78308,-1.63414c-1.04366,-0.43578 -2.20327,-0.98049 -3.47885,-1.41626c-1.27558,-0.43577 -2.66712,-0.76261 -4.05866,-1.08943c-1.39154,-0.21789 -2.89904,-0.43577 -4.40654,-0.43577c-1.5075,-0.10894 -3.015,-0.10894 -4.63846,0c-1.62347,0 -3.13097,0.10894 -4.75443,0.10894c-1.5075,0.10894 -3.015,0.10894 -4.5225,0.21788c-1.5075,0.10895 -2.89904,0.32684 -4.17462,0.54472c-1.27558,0.21788 -2.55116,0.65366 -3.59481,0.98048c-1.15962,0.43578 -2.08731,0.87155 -2.89904,1.30732c-0.46385,0.21789 -0.81174,0.43578 -1.15962,0.65366c-0.34788,0.21789 -0.69577,0.43578 -0.92769,0.65366c-0.57981,0.43576 -0.9277,0.7626 -1.27558,0.98048c-0.34789,0.21788 -0.46385,0.32682 -0.46385,0.32682c0,0 0.11596,-0.10895 0.34788,-0.43577c0.23192,-0.32683 0.5798,-0.7626 1.04365,-1.19837c0.23192,-0.21788 0.46385,-0.43578 0.81173,-0.7626c0.34788,-0.32682 0.69577,-0.54472 1.04365,-0.87154c0.34789,-0.32682 0.81173,-0.54472 1.27558,-0.87154c0.46385,-0.32682 0.92769,-0.54472 1.5075,-0.87154c1.04365,-0.54472 2.31923,-0.9805 3.71077,-1.30732c1.27558,-0.32683 2.78308,-0.65366 4.29058,-0.7626c3.015,-0.32684 6.26193,-0.43578 9.39289,-0.54472c1.62346,0 3.24693,-0.10894 4.87039,0c1.62346,0.10894 3.13096,0.32684 4.63846,0.65366c1.5075,0.32684 2.89904,0.7626 4.17462,1.30732c1.27558,0.43577 2.4352,1.08943 3.47885,1.74309c1.04366,0.65365 1.97135,1.30731 2.66712,1.96097c0.69577,0.65366 1.27557,1.19837 1.73942,1.74309c0.46384,0.54471 0.81173,0.87155 1.04365,1.19837c0.23192,0.32683 0.34788,0.43577 0.34788,0.43577z" data-paper-data="{&quot;index&quot;:null}" fill="#687a27"></path><g data-paper-data="{&quot;index&quot;:null}"><path d="M287.18379,177.96115c0,3.70405 -4.5225,12.52842 -20.75713,19.71866c-7.76943,3.37723 -7.42154,2.61463 -25.16367,24.40321c-17.74213,21.78859 -60.99581,18.73818 -66.44601,6.64552c-5.45019,-12.09266 0.23192,-36.82271 12.06001,-41.39831c11.82809,-4.57559 40.12272,-7.95282 47.66023,-17.10403c7.42154,-9.04225 18.78578,-9.36909 32.23733,-8.82437c13.45155,0.54472 20.40925,11.98373 20.40925,16.55933z" fill="#a3b339"></path><path d="M286.02417,182.86357c0,0 -2.20327,0.87155 -5.68212,1.85203c-3.24693,1.08943 -7.53751,2.50569 -11.82809,4.03089c-1.04365,0.43577 -2.08731,0.87155 -3.13096,1.19837c-1.04365,0.32683 -2.08731,0.76261 -3.13096,1.08943c-2.08731,0.65366 -4.05866,1.08944 -5.79808,1.30732c-1.73942,0.21788 -3.24693,0.21788 -4.29058,0.10894c-1.04365,-0.10894 -1.62346,-0.32682 -1.62346,-0.32682c0,0 0.57981,0.10894 1.62346,0c1.04366,0 2.4352,-0.21789 4.05866,-0.65366c0.81173,-0.21788 1.73943,-0.43578 2.66712,-0.7626c0.92769,-0.21788 1.97135,-0.54471 2.89904,-0.98048c0.92769,-0.32683 1.97135,-0.7626 3.015,-1.19837c1.04366,-0.43578 2.20328,-0.87155 3.24693,-1.30732c1.04366,-0.32683 2.20328,-0.76261 3.24693,-1.08943c1.15962,-0.32682 2.20328,-0.65366 3.24693,-0.98048c2.08731,-0.65366 4.05866,-1.08944 5.79808,-1.41626c3.36289,-0.65366 5.68212,-0.87154 5.68212,-0.87154z" fill="#687a27"></path><path d="M274.77589,175.23757c0,0 -0.11596,-0.10894 0,-0.21788c0,-0.10894 -0.11596,-0.10894 -0.23192,-0.21788c-0.11596,-0.10894 -0.23192,-0.10894 -0.34788,-0.21788c-0.46384,-0.21788 -1.04365,-0.54472 -1.73942,-0.7626c-0.5798,-0.2179 -1.27557,-0.54472 -1.73942,-0.54472h-0.11596h-0.11596c0,0 -0.11596,0 -0.11596,0.10894c0,0.10894 0,0.21788 0,0.21788c0,0 -0.11596,0 -0.23192,-0.21788c0,-0.10895 0,-0.32683 0,-0.43577c0,0 0,-0.10894 0.11596,-0.21788c0,0 0.11596,-0.10894 0.23192,-0.10894c0.23193,0 0.34789,-0.10894 0.57981,-0.10894c0.11596,0 0.34789,0 0.57981,0c0.34789,0.10894 0.81174,0.21788 1.15962,0.32682c0.34788,0.21789 0.69577,0.43578 1.04365,0.65366c0.23192,0.21788 0.57981,0.43578 0.69577,0.7626c0.11596,0.32683 0.23192,0.65366 0.23192,0.7626c0,0.10894 0,0.21788 0,0.21788z" fill="#687a27"></path><path d="M281.84959,187.87497c0,0 -0.23192,0.32683 -0.81173,0.7626c-0.57981,0.54471 -1.39154,1.19837 -2.55116,2.06991c-1.15962,0.87155 -2.55116,1.85203 -4.17462,2.94146c-1.62346,1.08943 -3.47885,2.2878 -5.68212,3.37723c-2.20327,0.98048 -4.63847,1.96097 -6.9577,3.37723c-2.31923,1.41625 -4.40654,3.37723 -6.37789,5.44714c-1.97135,2.06991 -3.71077,4.46665 -5.56616,6.97234c-1.85538,2.50569 -3.71077,5.01137 -5.79808,7.40812c-2.08731,2.39675 -4.40655,4.68455 -6.84174,6.75446c-2.4352,2.06991 -5.10231,3.813 -7.76943,5.22926c-5.33423,2.83251 -11.01635,4.46666 -15.88674,5.22926c-2.43519,0.32684 -4.75442,0.54472 -6.72577,0.65366c-0.92769,0.10894 -1.97135,0.10894 -2.78308,0.10894c-0.81173,0 -1.62346,0 -2.31923,0c-1.5075,0 -2.55116,-0.10894 -3.36289,-0.10894c-0.69577,-0.10894 -1.15962,-0.10894 -1.15962,-0.10894c0,0 0.34789,0 1.15962,0c0.81173,0 1.97135,0 3.36289,-0.10894c0.69577,0 1.5075,0 2.31923,-0.10894c0.92769,0 1.85539,-0.10894 2.78308,-0.21788c1.97135,-0.21788 4.05866,-0.54471 6.49385,-0.98048c4.75442,-0.98048 10.08866,-2.72357 15.30693,-5.66503c2.55115,-1.5252 5.10231,-3.26829 7.42154,-5.22926c2.43519,-1.96098 4.5225,-4.13983 6.60981,-6.53658c2.08731,-2.28781 3.94269,-4.79349 5.79808,-7.29918c1.73942,-2.50569 3.71077,-4.90243 5.79808,-7.08129c2.08731,-2.17885 4.40655,-4.03088 6.84174,-5.44714c2.43519,-1.30732 4.98635,-2.28781 7.18962,-3.15935c2.20327,-0.9805 4.05866,-2.06993 5.79808,-3.05041c1.62346,-0.98049 3.13096,-1.85203 4.29058,-2.61463c1.15962,-0.7626 2.08731,-1.41626 2.66712,-1.85203c0.69577,-0.43578 0.92769,-0.7626 0.92769,-0.7626z" fill="#687a27"></path></g><g data-paper-data="{&quot;index&quot;:null}"><g fill="#a3b339"><path d="M162.64105,214.45701c6.03,0.65366 6.26192,12.09266 5.91404,19.2829c-0.34788,7.19024 -10.90039,12.74633 -12.87174,4.68455c-1.97134,-8.06177 2.31924,-24.40321 6.9577,-23.96744z"></path><path d="M168.67103,233.84888c-0.92769,3.26829 -1.15962,7.8439 1.39154,8.06178c2.55116,0.21789 8.11732,2.17886 6.26193,3.70406c-1.85539,1.5252 -9.74078,-2.39675 -9.74078,-2.39675c0,0 8.34924,5.66504 6.49385,7.19024c-1.85538,1.5252 -9.50885,-6.31869 -9.50885,-6.31869c0,0 5.33423,6.97234 3.015,6.97234c-2.31924,0 -5.10231,-7.626 -6.9577,-7.626c-1.85539,0 0,7.19023 -2.78308,5.66503c-2.78308,-1.52521 -2.08731,-13.83576 -0.92769,-15.79673"></path></g><path d="M182.23857,222.19198c8.23327,9.58698 12.9877,19.06501 5.33423,21.24387c-4.40654,1.30731 -28.52656,-8.71544 -28.52656,-22.44224c0,-13.72681 14.95904,-8.3886 23.19232,1.19837z" fill="#a3b339"></path><path d="M174.00529,208.13836c4.63846,-6.42763 18.20597,-13.61787 23.88809,5.66503c3.59481,12.41949 1.97135,29.95929 -10.32058,29.63247c-12.29193,-0.32683 -18.20597,-28.65199 -13.56751,-35.29751z" fill="#a3b339"></path><path d="M198.3572,215.87329c0,0 0.11596,0.21788 0.23192,0.7626c0.11597,0.43577 0.23193,0.98049 0.46385,1.85203c0.34788,1.63414 0.81173,4.03088 1.04365,6.97234c0.11596,1.41626 0.11596,3.05041 0,4.68455c-0.11596,1.63415 -0.34788,3.37723 -0.81173,5.22926c-0.46385,1.85203 -1.27558,3.70406 -2.66712,5.3382c-1.39154,1.63415 -3.59481,2.83253 -5.79808,3.05041l-1.5075,0.21788l-1.62346,0.10894h-1.62346l-1.62346,-0.10894c-2.08731,-0.10895 -4.05865,-0.65366 -5.91404,-1.30732c-3.71077,-1.30731 -6.72577,-3.37723 -8.92904,-5.44714c-1.15962,-0.98049 -2.08731,-2.06992 -2.89904,-2.94146c-0.81173,-0.98049 -1.5075,-1.85203 -1.97135,-2.50569c-0.92769,-1.41626 -1.39154,-2.2878 -1.39154,-2.2878c0,0 0.5798,0.76259 1.73942,2.06991c1.15961,1.30732 2.89904,3.0504 5.21827,4.90243c2.31923,1.85203 5.33423,3.70406 8.81308,4.79349c1.73943,0.54471 3.59481,0.98049 5.56616,1.08943l1.5075,0.10894h1.5075l1.39154,-0.10894l1.5075,-0.21788c1.85538,-0.32683 3.47884,-1.19837 4.63846,-2.50569c1.15961,-1.30731 1.85538,-2.94146 2.43519,-4.5756c1.04366,-3.37723 1.15962,-6.75446 1.27558,-9.58697c0.11596,-2.94145 0,-5.3382 -0.23192,-6.97234c-0.11596,-0.87154 -0.11596,-1.5252 -0.23192,-1.96097c0,-0.43578 -0.11596,-0.65366 -0.11596,-0.65366z" fill="#687a27"></path><path d="M168.67104,213.0408c0,0 -0.57981,-0.21788 -1.62346,-0.10894c-0.46384,-0.10894 -1.04365,0 -1.62346,0c-0.57981,0 -1.27558,0.10895 -1.97135,0.43577c-0.34788,0.10895 -0.69577,0.32683 -1.04365,0.43577c-0.23192,0.21789 -0.69577,0.32684 -0.92769,0.65366c-0.23192,0.21788 -0.57981,0.54472 -0.81173,0.87154c-0.34788,0.21788 -0.57981,0.65366 -0.81173,0.98048c-0.57981,0.65366 -0.9277,1.52521 -1.27558,2.39675c-0.34788,0.87154 -0.69577,1.85203 -0.92769,2.72357c-0.23192,0.98048 -0.46385,1.85203 -0.69577,2.83251c-0.23193,0.87154 -0.46385,1.85203 -0.57981,2.72357c-0.34788,1.74308 -0.57981,3.48617 -0.81173,4.90243c-0.23193,1.41626 -0.34789,2.61463 -0.46385,3.48617c0,0.43576 0,0.7626 0,0.98048c0,0.10894 0.11596,0.21788 0.11596,0.21788c0.11596,0 0.11596,0 0.11596,0c0,0 0,0.10894 -0.11596,0.10894c0,0 -0.11596,-0.10894 -0.11596,-0.21788c-0.11596,-0.21788 -0.11596,-0.54471 -0.23192,-0.98048c-0.11596,-0.87154 -0.23192,-2.06991 -0.23192,-3.59511c-0.11596,-1.52521 0,-3.26829 0.23192,-5.12032c0.11597,-0.87154 0.23193,-1.85203 0.46385,-2.83251c0.23192,-0.98049 0.46385,-1.96098 0.69577,-2.94146c0.34788,-0.98048 0.69577,-1.85203 1.04365,-2.83251c0.23192,-0.43578 0.46385,-0.87155 0.69577,-1.30732c0.23192,-0.43578 0.46385,-0.87155 0.81173,-1.30732c0.34788,-0.32683 0.69577,-0.76261 1.04365,-1.08943c0.34789,-0.32682 0.81174,-0.65366 1.15962,-0.87154c0.46385,-0.21789 0.9277,-0.43578 1.27558,-0.65366c0.46385,-0.21789 0.81173,-0.32683 1.27558,-0.43577c0.81173,-0.21788 1.5075,-0.21788 2.20327,-0.21788c0.69577,0.10894 1.27557,0.21788 1.73942,0.32682c0.46384,0.10894 0.81173,0.21788 1.04365,0.32682c0.23192,0 0.34788,0.10894 0.34788,0.10894z" fill="#687a27"></path><path d="M159.62602,243.32688c0,0 0.23193,0 0.46385,0c0.34789,0.10894 0.69577,0.32684 1.15962,0.65366c0.46385,0.32684 0.81173,0.7626 1.27558,1.30732c0.46385,0.43577 0.81174,0.98048 1.15962,1.5252c0.69577,1.08943 1.27557,2.17886 1.73942,2.94146c0.23192,0.43577 0.46385,0.7626 0.69577,0.87154c0.11596,0 0.23192,0.10894 0.34788,0.10894c0.11596,0 0.11596,0 0.11596,0c0,-0.10894 -0.11597,0.10894 -0.46385,0.10894c-0.34789,0 -0.92769,-0.10895 -1.39154,-0.43577c-1.04366,-0.54471 -1.97135,-1.63414 -2.66712,-2.72357c-0.34788,-0.54471 -0.69577,-1.08942 -0.92769,-1.63414c-0.23192,-0.54472 -0.46385,-0.98049 -0.69577,-1.41626c-0.23193,-0.32682 -0.46385,-0.7626 -0.57981,-0.98048c-0.11596,-0.21788 -0.23192,-0.32682 -0.23192,-0.32682z" fill="#687a27"></path><path d="M165.30813,244.8521c0.92769,0.65366 2.08731,1.52521 3.13096,2.39675c0.57981,0.43578 1.15961,0.87155 1.62346,1.30732c0.23192,0.2179 0.46385,0.43578 0.69577,0.54472c0.23192,0.10895 0.46385,0.32683 0.69577,0.43577c0.23193,0.10894 0.34789,0.21788 0.57981,0.32682c0.23193,0.10894 0.46385,0.21788 0.57981,0.21788c0.23193,0 0.46385,0.10894 0.46385,0.10894c0,0 -0.11597,0.10894 -0.46385,0.21788c-0.23192,0.10894 -0.46385,0.10894 -0.69577,0.10894c-0.23192,0.10894 -0.46385,0.10894 -0.81173,0c-0.23192,0 -0.57981,-0.10894 -0.92769,-0.21788c-0.34788,-0.10895 -0.69577,-0.32683 -1.04365,-0.43577c-0.69577,-0.32683 -1.39154,-0.7626 -1.97135,-1.19837c-0.57981,-0.43577 -1.15961,-0.98048 -1.62346,-1.5252c-0.46385,-0.54472 -0.9277,-1.08943 -1.15962,-1.5252c-0.57981,-0.87154 -0.81173,-1.63414 -0.81173,-1.63414c0,0 0.69577,0.32682 1.73942,0.87154z" fill="#687a27"></path><path d="M176.20856,245.50578c0,0 0,0.21788 -0.34788,0.32682c-0.34789,0.21789 -0.69577,0.32683 -1.27558,0.43577c-0.46384,0.10894 -1.15961,0.10894 -1.73942,0c-0.57981,-0.10895 -1.27558,-0.21789 -1.85539,-0.43577c-1.27558,-0.43577 -2.4352,-1.08942 -3.24693,-1.63414c-0.81173,-0.54471 -1.27558,-1.08943 -1.27558,-1.08943c0,0 0.69577,-0.10894 1.62346,0.10894c0.9277,0.21788 2.20327,0.54472 3.36289,0.87154c0.5798,0.10895 1.15961,0.32684 1.73942,0.54472c0.57981,0.2179 1.04365,0.43578 1.5075,0.54472c0.46384,0.21788 0.81173,0.32682 1.04365,0.32682c0.34789,0.10894 0.46385,0 0.46385,0z" fill="#687a27"></path><path d="M168.55509,235.1562c0,0 0.11596,0.43577 0.34788,1.08943c0.11596,0.65366 0.23192,1.41626 0.23192,2.17886c0,0.76259 0,1.52519 0,2.06991c0,0.21789 0,0.32683 0,0.43577c0.11596,0.10894 0.11596,0.21788 0.11596,0.32682c0.11596,0.21788 0.11596,0.32682 0.11596,0.32682c0,0 -0.11596,0 -0.34788,-0.10894c-0.11596,-0.10894 -0.23192,-0.10894 -0.34788,-0.21788c-0.23193,-0.10894 -0.34789,-0.21788 -0.46385,-0.32682c-0.34789,-0.32683 -0.57981,-0.65366 -0.69577,-1.08943c-0.11596,-0.43578 -0.23192,-0.87155 -0.23192,-1.30732c0,-0.98049 0.23193,-1.85203 0.57981,-2.39675c0.23192,-0.65366 0.69577,-0.98048 0.69577,-0.98048z" fill="#687a27"></path><path d="M195.6901,184.71559c0,0 -1.15962,0.10894 -2.78308,0.65366c-1.73943,0.43577 -4.29058,1.30732 -6.84174,2.94146c-1.39154,0.87155 -2.66711,1.85204 -3.82673,3.05041c-1.15961,1.3073 -2.20327,2.72357 -3.015,4.35771c-1.62346,3.37723 -3.13096,6.97234 -4.29058,10.78535c-0.57981,1.85202 -1.04366,3.813 -1.27558,5.66503c-0.34788,1.85203 -0.34788,3.70406 -0.34788,5.55609c0,1.85203 0.23193,3.59512 0.57981,5.22926c0.34789,1.63414 0.81173,3.15934 1.27558,4.5756c0.46385,1.41626 1.04365,2.72358 1.5075,3.81301c0.46385,1.08942 0.92769,2.06991 1.39154,2.83251c0.92769,1.52521 1.39154,2.39675 1.39154,2.39675c0,0 -0.11597,-0.2179 -0.46385,-0.54472c-0.34789,-0.32682 -0.81173,-0.87154 -1.27558,-1.63414c-0.46384,-0.7626 -1.15961,-1.63414 -1.73942,-2.72357c-0.57981,-1.08943 -1.27558,-2.2878 -1.85539,-3.70406c-1.15961,-2.83251 -2.20327,-6.31868 -2.43519,-10.13169c-0.11596,-1.96097 0,-3.92195 0.23192,-5.88292c0.23193,-2.06991 0.69577,-4.03089 1.27558,-5.99186c1.15961,-3.92194 2.89904,-7.626 4.63846,-11.00323c0.92769,-1.74309 2.20327,-3.26828 3.47885,-4.5756c1.27558,-1.19837 2.78308,-2.17886 4.17462,-2.94146c1.39154,-0.7626 2.78308,-1.19837 4.05866,-1.63414c1.27558,-0.32683 2.31924,-0.54472 3.24693,-0.7626c1.85539,-0.32682 2.89904,-0.32682 2.89904,-0.32682z" fill="#687a27"></path></g><g data-paper-data="{&quot;index&quot;:null}" fill="#969330"><path d="M179.91931,200.29445c3.47885,2.72357 1.85538,8.71544 -1.27558,6.53658c-3.015,-2.17887 -1.73942,-9.04227 1.27558,-6.53658z"></path><path d="M192.21123,202.80015c5.4502,2.39673 3.47885,10.02274 -1.5075,8.82437c-4.98635,-1.19837 -4.17462,-11.33006 1.5075,-8.82437z"></path><path d="M186.18123,191.68796c5.45019,-2.39674 6.95769,4.68455 3.13096,7.29918c-9.85673,6.64552 -8.58116,-4.79349 -3.13096,-7.29918z"></path></g><path d="M255.41032,207.26681c-1.39154,-0.10894 -3.47884,-0.32682 -6.03,-0.87154c-1.15961,-0.21788 -2.43519,-0.54471 -3.82673,-0.98048c-1.27558,-0.43577 -2.78308,-0.87154 -4.17462,-1.5252c-1.5075,-0.54471 -2.89904,-1.30731 -4.29058,-2.06991c-1.39154,-0.87154 -2.78308,-1.74308 -4.05866,-2.83251c-1.27558,-0.98048 -2.4352,-2.17886 -3.47885,-3.37723c-1.04366,-1.19838 -1.85539,-2.50569 -2.66712,-3.81301c-0.81174,-1.30732 -1.39154,-2.61463 -1.85539,-3.92195c-0.23192,-0.65366 -0.57981,-1.19837 -0.69577,-1.85203c-0.11597,-0.54472 -0.34789,-1.19837 -0.46385,-1.74309c-0.23193,-1.19838 -0.46385,-2.17887 -0.46385,-3.15935c0,-0.87155 -0.11596,-1.74309 -0.11596,-2.39675c0,-1.30731 0,-2.06991 0,-2.06991c0,0 0.11596,0.76259 0.34788,2.06991c0.11597,0.65366 0.23193,1.52521 0.46385,2.39675c0,0.43578 0.23192,0.87154 0.34788,1.41626c0.11597,0.43577 0.34789,0.98048 0.46385,1.5252c0.46385,0.98048 0.81173,2.17886 1.39154,3.37723c0.57981,1.19836 1.15962,2.39674 1.97135,3.59511c0.69577,1.19837 1.73943,2.39674 2.66712,3.48617c1.04366,1.08944 2.08731,2.17887 3.36289,3.15935c1.27557,1.08943 2.55115,1.85203 3.82673,2.72357c1.39154,0.7626 2.66712,1.5252 4.05866,2.17886c2.66712,1.30732 5.33424,2.2878 7.65347,2.94146c2.31923,0.65366 4.29058,1.19838 5.68212,1.41626c1.39154,0.32683 2.20327,0.43577 2.20327,0.43577c0,0 -0.92769,0 -2.31923,-0.10894z" data-paper-data="{&quot;index&quot;:null}" fill="#4a3369"></path><path d="M221.66549,176.87171c0,0 -3.24693,0.10894 -7.76943,0.98048c-1.27557,0.10894 -2.43519,0.43578 -3.82673,0.65366c-1.39154,0.21788 -2.78308,0.54472 -4.17462,0.87154c-1.39154,0.43577 -2.89904,0.7626 -4.40654,1.19837c-1.5075,0.43578 -3.015,0.87154 -4.5225,1.41626c-1.5075,0.43577 -3.015,1.08942 -4.40654,1.63414c-1.5075,0.54472 -2.78308,1.19837 -4.17462,1.74309c-1.39154,0.54471 -2.55115,1.30731 -3.82673,1.85203c-1.27558,0.54472 -2.31924,1.19837 -3.36289,1.74309c-1.04366,0.54472 -1.97135,0.98048 -2.78308,1.5252c-0.81173,0.54472 -1.5075,0.9805 -2.08731,1.30732c-1.15962,0.65366 -1.85539,1.08943 -1.85539,1.08943c0,0 0.57981,-0.54472 1.62346,-1.41626c0.46385,-0.43577 1.15962,-0.87154 1.85539,-1.5252c0.81173,-0.54471 1.73943,-1.19837 2.66712,-1.85203c1.04366,-0.65365 2.08731,-1.41625 3.24693,-2.06991c1.15961,-0.65365 2.31923,-1.41625 3.71077,-2.06991c0.69577,-0.32682 1.39154,-0.65366 2.08731,-0.98048c0.69577,-0.32682 1.39154,-0.7626 2.08731,-0.98048c1.5075,-0.65366 3.015,-1.30732 4.5225,-1.74309c1.62346,-0.54472 3.13096,-0.98049 4.63846,-1.41626c1.5075,-0.54471 3.015,-0.76261 4.5225,-1.08943c1.5075,-0.32684 2.89904,-0.43578 4.29058,-0.65366c1.39154,-0.10894 2.78308,-0.32682 3.9427,-0.32682c4.75442,-0.32683 8.00135,0.10894 8.00135,0.10894z" data-paper-data="{&quot;index&quot;:null}" fill="#4a3369"></path><g data-paper-data="{&quot;index&quot;:null}"><path d="M236.50858,168.59206c-1.5075,-6.1008 0.92769,-41.07148 0.92769,-41.07148c16.0027,13.29104 29.33829,33.7723 29.33829,33.7723c-18.66982,-2.50569 -30.26598,7.29918 -30.26598,7.29918z" fill="#6d4b9b"></path><path d="M236.50857,168.5921c0,0 -0.34788,-2.50569 -0.81173,-5.88292c-0.11596,-1.74308 -0.23192,-3.92194 -0.23192,-6.20974c0,-2.28781 0,-4.79349 0,-7.19024c0.11596,-2.50569 0.23192,-4.90244 0.34788,-7.19024c0.23193,-2.28779 0.34789,-4.35771 0.57981,-6.20974c0.46384,-3.70405 0.92769,-6.1008 0.92769,-6.1008c0,0 0.11596,0.54471 0.11596,1.63414c0,1.08943 0.11596,2.61463 0.11596,4.46666c0,1.85203 0,3.92194 0,6.20974c0,1.08942 0,2.2878 0,3.48617c0,1.19836 0,2.39674 0,3.59511c0,1.19836 -0.11596,2.39674 -0.11596,3.59511c0,1.19837 -0.11596,2.39674 -0.11596,3.48617c-0.11596,2.28779 -0.23192,4.35771 -0.34788,6.20974c-0.23193,3.70405 -0.46385,6.1008 -0.46385,6.1008z" fill="#4a3369"></path><path d="M253.20705,150.9433c-0.46384,1.41626 -4.40654,5.12032 -4.40654,5.12032c-0.92769,-1.52521 -0.34788,-5.77398 -0.34788,-5.77398c-2.20327,0.65366 -7.76943,-2.2878 -7.76943,-2.2878c1.85538,-1.41626 7.42154,-2.50569 7.42154,-2.50569c-0.81173,-1.19837 0.46385,-6.31869 0.46385,-6.31869c1.27558,1.19837 4.40654,4.5756 4.40654,4.5756c0.11596,-0.10894 0.23192,-0.21788 0.34788,-0.21788c1.15962,1.41626 2.31924,2.72357 3.36289,4.03089c-0.23192,0.32683 -0.23192,0.43577 -0.23192,0.43577c1.39154,1.30731 3.13096,5.01137 3.13096,5.01137c-4.29058,-0.87154 -6.37789,-2.06991 -6.37789,-2.06991z" fill="#e0c448"></path><path d="M266.77455,161.29288c0,0 -1.85538,-2.06991 -4.63846,-5.44714c-1.27557,-1.63414 -2.89904,-3.48618 -4.5225,-5.55609c-1.62346,-1.96098 -3.47885,-4.13983 -5.21827,-6.31869c-0.9277,-0.98049 -1.73943,-2.06992 -2.66712,-3.15935c-0.81174,-0.9805 -1.73943,-2.06993 -2.55116,-3.05041c-1.73943,-1.96097 -3.36289,-3.813 -4.75443,-5.3382c-0.69577,-0.76259 -1.39154,-1.52519 -1.97135,-2.06991c-0.69577,-0.54472 -1.15961,-1.08943 -1.62346,-1.5252c-0.81173,-0.87155 -1.39154,-1.30732 -1.39154,-1.30732c0,0 0.57981,0.43577 1.62346,1.08943c0.57981,0.32684 1.15962,0.7626 1.85539,1.30732c0.81173,0.54471 1.5075,1.08943 2.31923,1.85203c0.81174,0.65366 1.73943,1.41626 2.55116,2.2878c0.81173,0.87154 1.73943,1.74309 2.66712,2.72357c1.85539,1.96097 3.59481,4.03088 5.4502,6.20974c0.9277,1.08943 1.85539,2.17886 2.66712,3.26829c0.81173,1.08943 1.62346,2.17886 2.43519,3.26829c1.5075,2.17886 2.89904,4.13983 4.05866,5.88292c2.31923,3.48617 3.71077,5.88292 3.71077,5.88292z" fill="#4a3369"></path></g><g data-paper-data="{&quot;index&quot;:null}"><path d="M218.41856,230.47166c-36.29598,-2.61463 -43.94945,-37.58531 -43.94945,-37.58531c20.98905,-17.32192 48.9358,-16.12355 48.9358,-16.12355l2.43519,-5.77398c4.05866,21.57069 26.9031,28.10727 26.9031,28.10727c0.23192,5.12031 4.98635,8.27966 4.98635,8.27966z" fill="#6d4b9b"></path><path d="M190.12395,199.20501c1.04365,1.08944 2.43519,4.03089 2.43519,3.92195c-3.24693,-0.7626 -4.98635,-1.63414 -4.98635,-1.63414c-0.34789,1.08943 -3.47885,4.03089 -3.47885,4.03089c-0.81173,-1.19837 -0.23192,-4.5756 -0.23192,-4.5756c-1.85539,0.43577 -6.26193,-1.85203 -6.26193,-1.85203c1.62346,-1.08943 5.91404,-1.96097 5.91404,-1.96097c-0.57981,-0.98048 0.34788,-5.01137 0.34788,-5.01137c1.04365,0.98049 3.59481,3.70406 3.59481,3.70406c0.92769,-0.87154 4.87039,-1.41626 4.87039,-1.41626c-0.23192,1.96098 -2.20327,4.79349 -2.20327,4.79349z" fill="#e0c448"></path><path d="M220.50587,218.48792c-3.015,1.41627 -4.98635,1.74309 -4.98635,1.74309c0.46384,1.08943 0.11596,5.22926 0.11596,5.22926c-1.5075,-0.54472 -3.36289,-3.37723 -3.36289,-3.37723c-1.04365,1.52521 -6.03,2.39675 -6.03,2.39675c0.46384,-1.74309 3.13096,-5.12032 3.13096,-5.12032c-1.04365,-0.32683 -3.13096,-4.03089 -3.13096,-4.03089c1.39154,0.10894 5.21827,0.65366 5.21827,0.65366c0.11596,-1.30732 2.78308,-4.03089 2.78308,-4.03089c1.04365,1.63414 1.5075,5.01137 1.5075,5.01137c1.5075,0.21788 4.63847,1.63414 4.75443,1.5252z" fill="#e0c448"></path><path d="M213.20028,192.45054c1.27558,0.7626 3.13097,3.59511 3.24693,3.48617c-3.36288,-0.32682 -5.21827,-0.98048 -5.21827,-0.98048c-0.23192,1.19837 -2.78308,4.5756 -2.78308,4.5756c-1.04365,-1.08943 -1.04365,-4.46666 -1.04365,-4.46666c-1.73942,0.7626 -6.49385,-0.87154 -6.49385,-0.87154c1.27558,-1.30731 5.4502,-2.83251 5.4502,-2.83251c-0.81173,-0.87154 -0.46385,-5.01137 -0.46385,-5.01137c1.04366,0.7626 4.05866,3.15935 4.05866,3.15935c0.81173,-0.98048 4.63846,-2.06991 4.63846,-2.06991c0.11596,1.96096 -1.39154,5.01137 -1.39154,5.01137z" fill="#e0c448"></path><path d="M237.43627,203.99853c-0.11596,1.41626 -1.85539,4.35771 -1.97135,4.13983c-1.27558,-2.83252 -1.5075,-4.68455 -1.5075,-4.68455c-1.27558,0.43578 -5.56616,-0.10894 -5.56616,-0.10894c0.57981,-1.30732 3.71077,-2.94146 3.71077,-2.94146c-1.5075,-1.08943 -2.20327,-5.77398 -2.20327,-5.77398c1.85538,0.43578 5.21827,3.15935 5.21827,3.15935c0.46384,-0.98048 4.5225,-2.72357 4.5225,-2.72357c-0.23192,1.30732 -1.04365,4.90243 -1.04365,4.90243c1.39154,0.21788 4.17462,2.83251 4.17462,2.83251c-1.73942,0.98049 -5.33423,1.19837 -5.33423,1.19837z" fill="#e0c448"></path><path d="M219.23029,176.76279c1.04366,0.7626 2.08731,1.63414 2.08731,1.63414c-1.73942,0.98049 -5.33423,1.19837 -5.33423,1.19837c-0.23193,1.41626 -1.97135,4.24877 -1.97135,4.24877c-1.27558,-2.94146 -1.5075,-4.68455 -1.5075,-4.68455c-1.15962,0.43578 -5.56616,-0.10894 -5.56616,-0.10894c0.11596,-0.32682 0.34789,-0.65366 0.69577,-0.87154c4.75442,-0.87154 8.81308,-1.19838 11.59616,-1.41626z" fill="#e0c448"></path><path d="M231.2903,222.40986c-1.5075,-1.08943 -2.20327,-5.77398 -2.20327,-5.77398c1.85538,0.43578 5.21827,3.15935 5.21827,3.15935c0.46384,-0.98048 4.5225,-2.72357 4.5225,-2.72357c0,0.32683 -0.11596,0.87154 -0.23192,1.5252l-10.66847,6.31869c0.9277,-1.30732 3.36289,-2.50569 3.36289,-2.50569z" fill="#e0c448"></path><path d="M255.41032,207.26681c-1.39154,-0.10894 -3.47884,-0.32682 -6.03,-0.87154c-1.15961,-0.21788 -2.43519,-0.54471 -3.82673,-0.98048c-1.27558,-0.43577 -2.78308,-0.87154 -4.17462,-1.5252c-1.5075,-0.54471 -2.89904,-1.30731 -4.29058,-2.06991c-1.39154,-0.87154 -2.78308,-1.74308 -4.05866,-2.83251c-1.27558,-0.98048 -2.4352,-2.17886 -3.47885,-3.37723c-1.04366,-1.19838 -1.85539,-2.50569 -2.66712,-3.81301c-0.81174,-1.30732 -1.39154,-2.61463 -1.85539,-3.92195c-0.23192,-0.65366 -0.57981,-1.19837 -0.69577,-1.85203c-0.11597,-0.54472 -0.34789,-1.19837 -0.46385,-1.74309c-0.23193,-1.19838 -0.46385,-2.17887 -0.46385,-3.15935c0,-0.87155 -0.11596,-1.74309 -0.11596,-2.39675c0,-1.30731 0,-2.06991 0,-2.06991c0,0 0.11596,0.76259 0.34788,2.06991c0.11597,0.65366 0.23193,1.52521 0.46385,2.39675c0,0.43578 0.23192,0.87154 0.34788,1.41626c0.11597,0.43577 0.34789,0.98048 0.46385,1.5252c0.46385,0.98048 0.81173,2.17886 1.39154,3.37723c0.57981,1.19836 1.15962,2.39674 1.97135,3.59511c0.69577,1.19837 1.73943,2.39674 2.66712,3.48617c1.04366,1.08944 2.08731,2.17887 3.36289,3.15935c1.27557,1.08943 2.55115,1.85203 3.82673,2.72357c1.39154,0.7626 2.66712,1.5252 4.05866,2.17886c2.66712,1.30732 5.33424,2.2878 7.65347,2.94146c2.31923,0.65366 4.29058,1.19838 5.68212,1.41626c1.39154,0.32683 2.20327,0.43577 2.20327,0.43577c0,0 -0.92769,0 -2.31923,-0.10894z" fill="#4a3369"></path><path d="M221.66549,176.87171c0,0 -3.24693,0.10894 -7.76943,0.98048c-1.27557,0.10894 -2.43519,0.43578 -3.82673,0.65366c-1.39154,0.21788 -2.78308,0.54472 -4.17462,0.87154c-1.39154,0.43577 -2.89904,0.7626 -4.40654,1.19837c-1.5075,0.43578 -3.015,0.87154 -4.5225,1.41626c-1.5075,0.43577 -3.015,1.08942 -4.40654,1.63414c-1.5075,0.54472 -2.78308,1.19837 -4.17462,1.74309c-1.39154,0.54471 -2.55115,1.30731 -3.82673,1.85203c-1.27558,0.54472 -2.31924,1.19837 -3.36289,1.74309c-1.04366,0.54472 -1.97135,0.98048 -2.78308,1.5252c-0.81173,0.54472 -1.5075,0.9805 -2.08731,1.30732c-1.15962,0.65366 -1.85539,1.08943 -1.85539,1.08943c0,0 0.57981,-0.54472 1.62346,-1.41626c0.46385,-0.43577 1.15962,-0.87154 1.85539,-1.5252c0.81173,-0.54471 1.73943,-1.19837 2.66712,-1.85203c1.04366,-0.65365 2.08731,-1.41625 3.24693,-2.06991c1.15961,-0.65365 2.31923,-1.41625 3.71077,-2.06991c0.69577,-0.32682 1.39154,-0.65366 2.08731,-0.98048c0.69577,-0.32682 1.39154,-0.7626 2.08731,-0.98048c1.5075,-0.65366 3.015,-1.30732 4.5225,-1.74309c1.62346,-0.54472 3.13096,-0.98049 4.63846,-1.41626c1.5075,-0.54471 3.015,-0.76261 4.5225,-1.08943c1.5075,-0.32684 2.89904,-0.43578 4.29058,-0.65366c1.39154,-0.10894 2.78308,-0.32682 3.9427,-0.32682c4.75442,-0.32683 8.00135,0.10894 8.00135,0.10894z" fill="#4a3369"></path><path d="M218.41858,230.36269c0,0 -0.9277,0.10895 -2.66712,-0.32682c-1.73943,-0.10895 -4.17462,-0.43577 -6.9577,-1.08943c-1.39154,-0.32684 -2.89904,-0.7626 -4.5225,-1.30732c-1.62346,-0.65365 -3.24693,-1.30731 -4.87039,-2.06991c-1.62346,-0.7626 -3.24693,-1.74309 -4.87039,-2.72357c-1.62346,-0.98048 -3.13096,-2.17886 -4.63846,-3.37723c-1.5075,-1.19838 -2.89904,-2.61463 -4.17462,-3.92195c-1.27558,-1.41626 -2.4352,-2.83251 -3.47885,-4.24877c-0.9277,-1.41626 -1.85539,-2.83251 -2.66712,-4.24877c-0.81173,-1.41626 -1.39154,-2.72357 -1.97135,-4.03089c-0.57981,-1.19837 -1.04366,-2.39674 -1.39154,-3.48617c-0.34788,-0.98048 -0.69577,-1.96097 -0.92769,-2.72357c-0.46385,-1.52521 -0.69577,-2.39675 -0.69577,-2.39675c0,0 0.46384,0.7626 1.04365,2.2878c0.23193,0.7626 0.69577,1.63415 1.15962,2.61463c0.46384,1.08943 1.15961,2.17886 1.73942,3.37723c0.23192,0.65366 0.69577,1.19837 1.04365,1.85203c0.34789,0.65365 0.69577,1.30731 1.15962,1.96097c0.92769,1.30732 1.85539,2.61463 2.89904,4.03089c0.46384,0.76259 1.04365,1.41625 1.62346,2.06991c0.69577,0.65365 1.27558,1.30731 1.85539,1.96097c1.27558,1.30731 2.66712,2.50569 4.05866,3.70406c1.39154,1.30732 2.89904,2.39675 4.40654,3.37723c1.5075,0.98048 3.015,1.96097 4.63846,2.72357c3.13096,1.7431 6.26192,2.94147 8.92904,3.81301c1.27558,0.43577 2.55115,0.76261 3.71077,1.08943c1.04365,0.32684 2.08731,0.54472 2.89904,0.65366c1.73943,0.32683 2.66712,0.43577 2.66712,0.43577z" fill="#4a3369"></path><path d="M255.99013,208.46516c0,0 -2.08731,1.5252 -5.21827,3.59511c-1.62347,1.08942 -3.47885,2.2878 -5.4502,3.48617c-1.97135,1.30732 -4.05866,2.50569 -6.26193,3.81301c-1.04366,0.65366 -2.20328,1.19837 -3.24693,1.85203c-1.04365,0.65366 -2.08731,1.19837 -3.13096,1.74309c-2.08731,1.19838 -3.9427,2.17887 -5.68212,3.05041c-3.36289,1.74309 -5.68212,2.72357 -5.68212,2.72357c0,0 1.97135,-1.5252 5.10231,-3.59511c1.62347,-1.08942 3.47885,-2.2878 5.4502,-3.48617c1.04365,-0.54471 2.08731,-1.19837 3.13096,-1.85203c1.04366,-0.65365 2.20328,-1.30731 3.24693,-1.96097c2.08731,-1.19836 4.29058,-2.50568 6.37789,-3.59511c2.08731,-1.19838 3.9427,-2.17887 5.68212,-3.05041c3.36289,-1.74309 5.68212,-2.72357 5.68212,-2.72357z" fill="#4a3369"></path><path d="M253.52644,212.48454c-1.17905,-0.47027 -1.34357,-2.60251 -0.36746,-4.76249c0.97611,-2.15998 2.7232,-3.52977 3.90225,-3.0595c1.17905,0.47027 1.34357,2.60251 0.36746,4.76249c-0.97611,2.15998 -2.7232,3.52977 -3.90225,3.0595z" fill="#bdabd6"></path></g><g data-paper-data="{&quot;index&quot;:null}"><g><path d="M252.27936,175.67334c-5.31563,0 -9.62481,-4.04836 -9.62481,-9.04226c0,-4.9939 4.30918,-9.04226 9.62481,-9.04226c5.31563,0 9.62481,4.04836 9.62481,9.04226c0,4.9939 -4.30918,9.04226 -9.62481,9.04226z" fill="#a3b339"></path><path d="M252.27936,173.49448c-4.03475,0 -7.30558,-3.07285 -7.30558,-6.8634c0,-3.79054 3.27082,-6.8634 7.30558,-6.8634c4.03475,0 7.30558,3.07285 7.30558,6.8634c0,3.79054 -3.27082,6.8634 -7.30558,6.8634z" fill="#e7ffbd"></path><path d="M257.72955,166.74005c0,3.15933 -10.20462,3.37723 -11.4802,0.32682c-1.27558,-2.94145 11.4802,-4.79348 11.4802,-0.32682z" fill="#2b3021"></path><path d="M261.78823,165.10586c0,0 -0.11596,-0.43577 -0.34788,-1.19837c-0.34789,-0.7626 -0.9277,-1.74309 -1.85539,-2.72357c-0.81173,-0.98049 -2.08731,-2.06991 -3.71077,-2.61463c-0.46385,-0.10894 -0.81173,-0.21788 -1.27558,-0.32682c-0.34789,0 -0.81173,-0.10894 -1.27558,-0.10894c-0.46385,0 -0.92769,-0.10894 -1.39154,0h-0.69577l-0.69577,0.10894c-0.81174,0.10894 -1.73943,0.43578 -2.55116,0.7626c-0.92769,0.32683 -1.62346,0.87154 -2.20327,1.41626c-0.57981,0.65366 -1.15962,1.19837 -1.5075,1.85203c-0.34788,0.65365 -0.69577,1.30731 -0.92769,1.96097c-0.23193,0.65366 -0.34789,1.19837 -0.46385,1.74309c-0.11596,0.54472 -0.11596,0.98049 -0.23192,1.41626c-0.11596,0.7626 -0.11596,1.19837 -0.11596,1.19837c0,0 -0.11596,-0.43577 -0.11596,-1.19837c0,-0.32683 -0.11596,-0.87154 0,-1.41626c0,-0.54471 0.11596,-1.19837 0.34788,-1.85203c0.11596,-0.65365 0.46385,-1.30731 0.81173,-2.06991c0.34788,-0.76259 0.92769,-1.41625 1.5075,-2.06991c0.69577,-0.65366 1.39154,-1.19837 2.31923,-1.63414c0.81173,-0.43577 1.73943,-0.7626 2.78308,-0.87154l0.69577,-0.10894h0.69577c0.46385,-0.10894 1.04365,0 1.5075,0c0.57981,0 1.04365,0.10894 1.5075,0.21788c0.46385,0.10895 0.92769,0.21789 1.39154,0.43577c0.92769,0.21789 1.62346,0.7626 2.31923,1.30732c0.69577,0.54471 1.15961,1.08942 1.62346,1.63414c0.81173,1.08943 1.27558,2.17886 1.5075,2.94146c0.23192,0.7626 0.34788,1.19837 0.34788,1.19837z" fill="#687a27"></path></g><path d="M259.58494,166.74004c-0.11596,-0.65366 -0.34788,-1.5252 -0.81173,-2.61463c-0.46384,-0.98049 -1.15961,-2.17886 -2.31923,-2.94146c-0.57981,-0.43577 -1.27558,-0.65366 -1.97135,-0.87154c-0.69577,-0.21788 -1.5075,-0.21788 -2.20327,-0.21788c-0.81173,0 -1.62346,0.10894 -2.31923,0.32682c-0.69577,0.21788 -1.39154,0.54472 -1.97135,0.87154c-1.15961,0.7626 -1.97134,1.85203 -2.43519,2.83251c-0.34789,0.98049 -0.57981,1.96097 -0.57981,2.61463c-0.11596,0.76261 0,1.08943 0,1.08943c0,0 -0.11596,-0.43577 -0.23192,-1.08943c0,-0.65365 0,-1.74308 0.34788,-2.83251c0.34788,-1.19837 1.15961,-2.50569 2.43519,-3.37723c0.57981,-0.43576 1.39154,-0.7626 2.20327,-0.98048c0.69577,-0.21788 1.62346,-0.32682 2.43519,-0.32682c0.9277,0 1.73943,0.10894 2.55116,0.32682c0.81173,0.21789 1.62346,0.54471 2.20327,1.08943c1.27558,1.08942 1.97135,2.39674 2.31923,3.48617c0.34789,1.08943 0.46385,2.06991 0.46385,2.72357c0,0.76261 0,1.08943 0,1.08943c0,0 -0.11596,-0.32683 -0.11596,-1.19837z" fill="#687a27"></path></g></g></g></svg>