<svg version="1.1" xmlns="http://www.w3.org/2000/svg" xmlns:xlink="http://www.w3.org/1999/xlink" width="111.88114" height="127.95116" viewBox="0,0,111.88114,127.95116"><g transform="translate(-184.88635,-115.21331)"><g data-paper-data="{&quot;isPaintingLayer&quot;:true}" fill-rule="evenodd" stroke-miterlimit="10" stroke-dasharray="" stroke-dashoffset="0" style="mix-blend-mode: normal"><path d="M232.14279,127.0447c2.67614,-0.77304 5.49689,-1.3223 8.84406,-1.45009c5.60082,-0.37519 11.15939,1.05157 11.15939,1.05157l13.32559,-10.92846c0.44847,-0.28889 1.08052,0.0012 1.01389,0.48779l-0.16459,21.46566c-0.81566,-0.86901 14.23657,13.77407 7.29653,28.19524c-6.94003,14.42118 -24.18791,22.42527 -46.96817,20.49259c-22.78027,-1.93267 -29.40284,-14.14615 -28.72026,-21.05076c0.68261,-6.90462 8.83127,-10.3153 8.83127,-10.3153c0,0 -0.4662,-5.34067 2.61465,-12.26891c1.8248,-4.15434 8.80527,-10.55208 8.80527,-10.55208l1.69338,-13.0065c0.06664,-0.48659 0.6467,-0.67009 1.02855,-0.47237z" data-paper-data="{&quot;index&quot;:null}" fill="#ffab19" stroke="#001026" stroke-width="1.2" stroke-linecap="butt" stroke-linejoin="miter"></path><path d="M207.16832,155.42745c9.83526,-3.35618 11.60292,3.99838 20.2081,3.65287c10.04153,-0.38337 22.49951,-12.6544 31.8372,-0.8588c9.32471,11.6772 -2.44444,30.22306 -31.79879,27.45438c-22.53003,-1.84035 -29.56208,-13.40977 -28.8795,-20.31438c0.68258,-6.90459 8.63302,-9.93406 8.63302,-9.93406z" data-paper-data="{&quot;index&quot;:null}" fill="#ffffff" stroke="none" stroke-width="1" stroke-linecap="butt" stroke-linejoin="miter"></path><path d="M245.92228,163.994c0.99263,5.76217 0.75687,13.45645 -9.90703,15.82524c-12.37647,2.0775 -17.85848,-6.30715 -19.27692,-9.38656c-0.30221,-0.56593 0.10728,-1.20997 0.71334,-1.15668c1.8182,0.15987 5.65283,0.0984 12.01899,-0.95988c7.06484,-1.25479 13.26206,-3.85217 15.42474,-4.92831c0.46147,-0.17049 0.97491,0.13263 1.02689,0.60619z" data-paper-data="{&quot;index&quot;:null}" fill="#ffffff" stroke="#001026" stroke-width="1.2" stroke-linecap="round" stroke-linejoin="round"></path><path d="M200.10824,162.19339c0,0 -8.5532,0.81908 -14.62189,-3.06787" data-paper-data="{&quot;index&quot;:null}" fill="none" stroke="#001026" stroke-width="1.2" stroke-linecap="round" stroke-linejoin="round"></path><path d="M200.40055,169.23063c0,0 -4.37901,2.75724 -11.91666,2.98557" data-paper-data="{&quot;index&quot;:null}" fill="none" stroke="#001026" stroke-width="1.2" stroke-linecap="round" stroke-linejoin="round"></path><path d="M227.51297,155.95002c2.37229,-0.26041 5.58785,-0.49354 5.62519,0.94017c0.20794,1.89427 -4.44894,5.40095 -6.60998,5.39853c-1.91082,0.08992 -4.05393,-3.02975 -4.11725,-4.70027c0.02766,-0.84176 2.61117,-1.36499 5.10206,-1.63842z" data-paper-data="{&quot;index&quot;:null}" fill="#001026" stroke="#001026" stroke-width="1.2" stroke-linecap="round" stroke-linejoin="round"></path><path d="M267.10879,156.87558c3.74861,-4.12588 13.5855,-8.56061 13.5855,-8.56061" data-paper-data="{&quot;index&quot;:null}" fill="none" stroke="#001026" stroke-width="1.2" stroke-linecap="round" stroke-linejoin="round"></path><path d="M281.16359,160.24533c0,0 -8.63447,2.26582 -13.9558,0.81303" data-paper-data="{&quot;index&quot;:null}" fill="none" stroke="#001026" stroke-width="1.2" stroke-linecap="round" stroke-linejoin="round"></path><g data-paper-data="{&quot;index&quot;:null}"><path d="M223.70803,136.59758c3.55511,1.7665 4.09929,7.8175 1.24432,13.52276c-2.97358,5.71828 -8.15691,8.80345 -11.71202,7.03696c-3.55511,-1.7665 -4.09929,-7.8175 -1.24432,-13.52276c2.85497,-5.70525 8.14392,-8.92183 11.71202,-7.03696z" fill="#ffffff" stroke="#001026" stroke-width="1.2" stroke-linecap="round" stroke-linejoin="round"></path><path d="M213.21125,150.33081c-0.14296,-1.30232 0.68899,-2.47202 1.87512,-2.60222c1.18614,-0.1302 2.25201,0.83116 2.39497,2.13348c0.14296,1.30232 -0.68899,2.47202 -1.87512,2.60222c-1.18614,0.1302 -2.25201,-0.83116 -2.39497,-2.13348" fill="#001026" stroke="none" stroke-width="1" stroke-linecap="butt" stroke-linejoin="miter"></path></g><g data-paper-data="{&quot;index&quot;:null}"><path d="M241.77616,143.72046c2.9866,-5.59989 8.24954,-9.05327 12.22548,-6.73387c3.96294,2.20101 4.46648,8.9754 1.36128,14.5883c-2.98658,5.59987 -8.02365,7.83026 -12.18483,6.01048c-3.4495,-1.89791 -4.38851,-8.26504 -1.40193,-13.86492z" fill="#ffffff" stroke="#001026" stroke-width="1.2" stroke-linecap="round" stroke-linejoin="round"></path><path d="M243.2416,150.5091c-0.14296,-1.30232 0.70198,-2.35362 1.87512,-2.60222c1.18614,-0.1302 2.25201,0.83116 2.39497,2.13348c0.14296,1.30232 -0.68899,2.47202 -1.87512,2.60222c-1.18614,0.1302 -2.25201,-0.83116 -2.39497,-2.13348" fill="#001026" stroke="none" stroke-width="1" stroke-linecap="butt" stroke-linejoin="miter"></path></g><path d="M283.62853,192.33327c2.6264,-9.97475 -0.3329,-18.34283 4.82137,-18.41189c5.27288,-0.08207 12.89811,13.61056 2.66959,25.41326c-9.49253,10.85263 -20.677,8.47899 -25.22996,6.37089c-4.44783,-2.24382 -1.40689,-4.06785 -0.80296,-5.12763c0.60393,-1.05978 14.84501,6.19411 18.54196,-8.24463z" data-paper-data="{&quot;index&quot;:null}" fill="#ffab19" stroke="#001026" stroke-width="1.2" stroke-linecap="round" stroke-linejoin="round"></path><path d="M285.82912,180.66673c0.11078,-3.36514 -0.22335,-5.31544 2.09505,-6.06667c2.91145,-0.81634 6.00588,3.31465 7.07038,7.54427c0.72214,4.39136 0.29332,7.04634 -0.308,9.22349c-0.2129,-0.84594 -1.6037,-3.67371 -5.11085,-3.90964c-2.90062,-0.17836 -4.52904,2.4841 -4.52904,2.4841c0,0 0.78206,-3.8114 0.78246,-9.27559z" data-paper-data="{&quot;index&quot;:null}" fill="#ffffff" stroke="none" stroke-width="1" stroke-linecap="butt" stroke-linejoin="miter"></path><path d="M260.91255,213.95137c-2.61734,-3.06571 -5.43674,-7.97199 -1.47644,-11.26296c4.63157,-3.73722 8.21391,0.46438 10.85558,2.65811c3.69835,3.07121 5.59054,6.09231 7.0139,5.93606c4.86317,-0.53384 10.05002,-3.5869 14.24452,-2.55712c2.71728,0.69519 4.34187,13.30792 3.36039,16.3961c-1.2565,3.86346 -10.12563,5.08543 -10.29729,-6.32076c0,0 -9.61075,5.40147 -13.80787,3.2543c-6.09755,-3.05621 -8.94127,-7.09053 -9.8928,-8.10375z" data-paper-data="{&quot;index&quot;:null}" fill="#ffab19" stroke="#001026" stroke-width="1.2" stroke-linecap="round" stroke-linejoin="round"></path><path d="M237.13606,191.7833c0.28058,-3.13046 3.83879,-5.47966 6.19485,-2.61029c2.10609,2.7488 2.44564,7.51137 2.68595,10.29325c0.24032,2.78188 0.09277,14.10767 -8.48872,17.09966c-3.76637,1.04909 -14.28494,1.30717 -13.79085,-5.45264c0.49408,-6.75981 6.71843,-5.4236 10.53093,-5.38408c3.2176,0.0858 2.752,-13.0687 2.86788,-13.9459z" data-paper-data="{&quot;index&quot;:null}" fill="#ffab19" stroke="#001026" stroke-width="1.2" stroke-linecap="round" stroke-linejoin="round"></path><path d="M243.71882,218.07402c0.39927,-4.01776 5.50267,-8.92444 5.50267,-8.92444c-1.5446,-0.9481 -4.00292,-3.6587 -6.22401,-6.39533c-1.79791,-2.16216 -3.95688,-6.52002 -3.95688,-6.52002c-1.40427,-2.95046 -2.76249,-8.76225 1.16524,-9.06922c2.62298,-0.16375 4.95486,-0.79228 8.92037,-1.8485c6.95518,-2.25368 8.21691,-3.88243 11.66978,1.32688c6.4556,9.5987 14.36714,16.05717 5.28736,23.01476c-2.21065,1.7329 -5.7369,4.60367 -8.78869,7.42238c-2.11635,2.59186 1.99431,7.23219 4.80848,9.90372c1.21569,1.23262 1.43119,3.19592 0.27461,4.6889c-7.70246,9.66265 -9.97524,13.01675 -13.71398,9.57742c-5.07306,-4.65889 1.49151,-10.47108 1.49151,-10.47108c0,0 -6.70369,-8.57802 -6.4365,-12.70544z" data-paper-data="{&quot;index&quot;:null}" fill="#ffab19" stroke="#001026" stroke-width="1.2" stroke-linecap="round" stroke-linejoin="round"></path><path d="M250.12362,208.93003c0,0 -3.95988,-2.17317 -7.17552,-7.40853c0,0 -2.59042,-2.82031 2.1463,-6.69324c4.94701,-4.14442 7.39448,-0.43917 9.85279,2.27142c2.78983,3.54352 0.6196,5.64451 -1.51023,8.11363c-1.69577,2.04891 -3.31335,3.71669 -3.31335,3.71669z" data-paper-data="{&quot;index&quot;:null}" fill="#ffffff" stroke="none" stroke-width="1" stroke-linecap="butt" stroke-linejoin="miter"></path><path d="M258.38264,188.8042c-6.47623,10.69775 -31.25284,18.57771 -45.13408,13.69223c-10.77266,-3.73351 -20.16744,-10.18775 -10.57923,-14.73453c9.77568,-4.64962 16.34563,4.24766 21.98588,5.26067c5.97515,1.00783 22.0174,-7.43757 26.584,-9.40751c4.75403,-2.07279 9.24395,1.35748 7.14342,5.18913z" data-paper-data="{&quot;index&quot;:null}" fill="#ffab19" stroke="#001026" stroke-width="1.2" stroke-linecap="round" stroke-linejoin="round"></path></g></g></svg>