<svg version="1.1" xmlns="http://www.w3.org/2000/svg" xmlns:xlink="http://www.w3.org/1999/xlink" width="154.08772" height="123.54129" viewBox="0,0,154.08772,123.54129"><g transform="translate(-154.59418,-127.52057)"><g data-paper-data="{&quot;isPaintingLayer&quot;:true}" fill-rule="nonzero" stroke="none" stroke-width="1" stroke-linecap="butt" stroke-linejoin="miter" stroke-miterlimit="10" stroke-dasharray="" stroke-dashoffset="0" style="mix-blend-mode: normal"><g data-paper-data="{&quot;index&quot;:null}"><path d="M173.84106,222.21984c-5.65877,0.2371 -7.37628,4.43432 -8.69096,4.73289c-3.0051,0.91371 0.95431,-5.01035 0.95431,-5.01035c0,0 -4.4595,4.72751 -6.81309,4.76881c-2.35361,0.04131 3.68461,-6.98684 3.68461,-6.98684c0,0 -4.64599,2.45782 -7.29965,1.78119c-2.65367,-0.67662 5.7111,-4.16401 5.7111,-4.16401c-11.09225,0.60797 -5.00635,-2.25394 -1.85169,-1.99938c3.15466,0.25457 16.68886,-1.60163 19.54253,-0.44638" fill="#a3b339"></path><path d="M224.22954,201.77416c-1.15713,9.38761 -7.28367,17.62268 -16.82524,21.13071c-9.54156,3.50803 -26.64122,1.08757 -33.76422,0.45496c-8.41244,-0.67885 -8.90974,-6.73131 -1.14693,-8.41732c7.63754,-1.5805 24.38855,-2.42557 28.42184,-6.14687c4.03329,-3.7213 4.61,-5.17784 7.09164,-10.18056c2.35639,-4.89721 17.39268,-6.40096 16.22292,3.15906z" fill="#a3b339"></path><path d="M166.50263,226.13692c0,0 0.01261,-0.1724 0.27573,-0.55586c0.26313,-0.38344 0.65149,-0.87239 1.29038,-1.5724c0.37574,-0.31654 0.75151,-0.63309 1.36515,-0.98825c0.61364,-0.35516 1.45254,-0.57652 2.15358,-0.51996c0.82628,-0.04893 1.40207,0.11313 2.1031,0.16973c0.57579,0.16208 1.16418,0.15176 1.97786,0.27522c2.91678,0.29319 6.30933,0.50914 9.93977,0.68647c1.87785,0.03591 3.75567,0.07182 5.74615,0.17463c1.87785,0.03591 3.88093,-0.03369 5.88404,-0.10328c2.00309,-0.0696 4.0188,-0.31162 6.03451,-0.55364c0.95153,-0.15446 1.90307,-0.30892 2.86724,-0.63578c0.47575,-0.07722 0.96415,-0.32688 1.3273,-0.47101c0.48838,-0.24964 0.96415,-0.32688 1.45254,-0.57652c1.5778,-0.68203 3.29346,-1.64198 4.65861,-2.63024c1.36516,-0.98825 2.61764,-2.04339 3.63229,-3.05993c2.02927,-2.03307 3.34485,-3.95028 4.25948,-5.20613c0.80198,-1.32275 1.09031,-2.051 1.09031,-2.051c0,0 -0.01262,0.17241 -0.16312,0.62276c-0.02525,0.34482 -0.30095,0.9007 -0.58933,1.62897c-0.68934,1.38964 -1.65443,3.33515 -3.58367,5.60752c-0.90199,1.08342 -2.16714,2.31099 -3.54489,3.47165c-1.49039,1.09377 -3.10605,2.29304 -5.17223,3.22471c-0.48838,0.24964 -0.85152,0.39379 -1.45254,0.57652c-0.48838,0.24964 -1.08939,0.4324 -1.69042,0.61513c-1.20204,0.36549 -2.15358,0.51995 -3.23036,0.77992c-2.14095,0.34753 -4.26931,0.52266 -6.39766,0.69776c-2.12835,0.17511 -4.11882,0.07231 -6.12191,0.14191c-1.99047,-0.10282 -3.86831,-0.13873 -5.8588,-0.24154c-3.74307,-0.24424 -7.12298,-0.63261 -9.91452,-1.0313c-0.70103,-0.05658 -1.51471,-0.18004 -2.09049,-0.34214c-0.57579,-0.16208 -1.15156,-0.32417 -1.61472,-0.41935c-0.92629,-0.19038 -1.90307,0.30892 -2.64195,0.76959c-0.73888,0.46068 -1.23989,0.88272 -1.50303,1.26618c-0.23787,0.03862 -0.48838,0.24964 -0.48838,0.24964z" fill="#687a27"></path><path d="M174.75936,214.48947c0,0 2.61674,-0.42477 6.42288,-1.04259c1.90307,-0.30892 4.16929,-0.76196 6.54814,-1.14811c2.26621,-0.45305 4.89557,-1.05022 7.29965,-1.78119c1.20204,-0.36549 2.40408,-0.73098 3.38087,-1.23027c1.0894,-0.4324 1.8283,-0.89306 2.71768,-1.80407c0.75151,-0.63308 1.51563,-1.4386 2.1545,-2.13859c0.63888,-0.69999 1.16513,-1.46688 1.67873,-2.06135c1.03988,-1.36136 1.82924,-2.51169 2.24284,-3.34548c0.52625,-0.76688 0.80198,-1.32275 0.80198,-1.32275c0,0 -0.13879,1.89656 -1.64274,4.78137c-0.28836,0.72827 -0.8146,1.49516 -1.4661,2.36755c-0.65149,0.87239 -1.17775,1.63929 -2.19238,2.65582c-0.25051,0.21102 -0.50098,0.42206 -0.7515,0.63308l-0.37574,0.31654c-0.25051,0.21102 -0.2505,0.21103 -0.501,0.42206c-0.501,0.42206 -1.22727,0.71032 -1.84092,1.06547c-1.33991,0.64343 -2.6672,1.11441 -3.98189,1.41301c-2.64197,0.76959 -5.25869,1.19436 -7.75017,1.5136c-1.18943,0.19308 -2.36622,0.21372 -3.55565,0.40679c-1.06419,0.08756 -2.12835,0.17512 -3.06727,0.15716c-3.78092,0.27299 -6.1219,0.1419 -6.1219,0.1419z" fill="#687a27"></path><path d="M154.97802,216.5931c0,0 0.11264,0.06689 0.22526,0.1338c0.11264,0.06689 0.35051,0.02828 0.70104,0.05657c0.47575,-0.07722 1.30208,-0.12617 2.12835,-0.17511c0.82628,-0.04893 1.63995,0.07451 2.20312,0.40902c0.57579,0.16208 1.0263,0.4297 1.0263,0.4297c0,0 -0.50098,0.42206 -1.3399,0.64342c-0.72626,0.28826 -1.80305,0.54822 -2.74198,0.53027c-0.5884,0.01034 -1.05155,-0.08486 -1.38946,-0.28555c-0.46315,-0.09517 -0.80105,-0.29588 -1.0137,-0.60209c-0.21265,-0.30621 -0.18742,-0.65104 -0.17478,-0.82346c0.13787,-0.27792 0.37574,-0.31654 0.37574,-0.31654z" fill="#687a27"></path><path d="M155.67628,221.50556c0,0 0.61364,-0.35516 1.21464,-0.5379c0.72626,-0.28826 1.56518,-0.50962 2.40408,-0.73097c0.8389,-0.22137 1.55255,-0.33718 2.37885,-0.38615c0.35051,0.02828 0.71365,-0.11584 0.95154,-0.15446c0.23787,-0.03862 0.35051,0.02828 0.35051,0.02828c0,0 -0.12526,0.10552 -0.13787,0.27792c-0.01262,0.17242 -0.38837,0.48896 -0.63887,0.69998c-0.37574,0.31654 -0.62625,0.52757 -1.11465,0.77723c-0.48838,0.24964 -1.0894,0.43239 -1.56516,0.5096c-1.07679,0.25998 -2.12835,0.17511 -2.81676,-0.05387c-0.81367,-0.12347 -1.0263,-0.4297 -1.0263,-0.4297z" fill="#687a27"></path><path d="M159.16606,226.81671c0,0 0.12524,-0.10551 0.37574,-0.31654c0.25051,-0.21102 0.501,-0.42206 0.75151,-0.63308c0.62627,-0.52758 1.13988,-1.12204 2.00402,-1.68823c0.37574,-0.31654 0.86415,-0.56619 1.11465,-0.77723c0.48838,-0.24964 0.73888,-0.46068 1.22726,-0.71031c0.73888,-0.46068 1.3399,-0.64341 1.3399,-0.64341c0,0 -0.03786,0.51724 -0.20096,1.14c-0.28836,0.72827 -0.92723,1.42826 -1.80399,2.16687c-0.37574,0.31654 -0.98939,0.6717 -1.47777,0.92135c-0.48838,0.24964 -1.0894,0.4324 -1.56518,0.50962c-0.47575,0.07722 -0.82628,0.04893 -1.17682,0.02066c-0.47575,0.07722 -0.5884,0.01034 -0.5884,0.01034z" fill="#687a27"></path></g><g data-paper-data="{&quot;index&quot;:null}"><path d="M229.86317,241.16989c-4.4981,3.04025 -7.02674,7.26053 -9.38886,7.8526c-2.36212,0.59207 2.64082,-4.7266 2.64082,-4.7266c0,0 -10.6852,3.63467 -12.06435,1.94804c-1.51983,-1.77093 6.15772,-2.61939 8.18181,-4.08313c0,0 -7.67697,1.80472 -6.7222,-0.58648c0.58972,-1.46285 4.64054,-0.08724 7.81764,-1.72043c0,0 -4.2752,-0.36299 -2.78562,-2.0514c0.92746,-1.06931 4.27578,1.31923 6.58033,-1.41029" fill="#a3b339"></path><path d="M236.39414,205.22234c7.42792,4.8329 11.42589,11.72103 9.71429,18.24704c-1.7116,6.52601 -12.19737,14.29491 -16.24526,17.7005c-4.72248,4.05288 -10.12397,1.58122 -7.73629,-3.20147c2.41586,-4.67022 9.94774,-13.73103 8.76418,-17.49904c-1.18356,-3.768 -2.14039,-4.72366 -5.18005,-8.26552c-3.03966,-3.54186 3.11453,-11.89871 10.68314,-6.98153z" fill="#a3b339"></path><path d="M222.86403,247.58666c0,0 0.44964,-0.5909 1.37709,-1.66021c0.92746,-1.06931 2.24846,-2.47637 3.9912,-4.10868c0.39354,-0.33774 0.87136,-0.81616 1.48986,-1.21028c0.50602,-0.36593 1.01205,-0.73187 1.48987,-1.21028c0.98386,-0.84436 2.05198,-1.82938 3.14832,-2.70193c1.06814,-0.98503 2.13628,-1.97006 3.2887,-3.09575c1.03994,-1.09751 2.22056,-2.11073 3.11982,-3.29252c1.03994,-1.09751 1.93921,-2.2793 2.83848,-3.4611c0.78678,-1.1536 1.54538,-2.41969 1.93833,-3.71367c0.0279,-0.36563 0.16827,-0.75948 0.22438,-1.01263c0.0279,-0.36563 0.08399,-0.6188 0.11189,-0.98443c0.08399,-0.6188 0.02731,-1.32189 -0.00117,-1.9125c-0.08517,-1.29369 -0.36712,-2.41851 -0.64906,-3.54333c-0.76065,-2.08077 -1.66168,-3.76771 -2.42175,-4.89222c-0.36593,-0.50602 -0.73187,-1.01205 -0.90074,-1.20881c-0.19706,-0.30925 -0.33774,-0.39354 -0.33774,-0.39354c0,0 0.14067,0.08428 0.45022,0.36535c0.30954,0.28106 0.73157,0.53393 1.23818,1.12423c0.95684,0.95566 2.19531,2.55801 3.23731,4.80736c0.5069,1.06843 0.84523,2.41822 1.07108,3.7962c0.05668,0.70308 0.11337,1.40617 0.17005,2.10926c-0.0279,0.36563 -0.05579,0.73128 -0.0555,1.20941c-0.0279,0.36563 -0.16828,0.75947 -0.19619,1.12511c-0.42085,1.65962 -1.15125,3.0382 -2.02232,4.33247c-0.87108,1.29427 -1.88282,2.50427 -3.00705,3.74245c-1.01175,1.20999 -2.19237,2.22321 -3.3448,3.34891c-1.15242,1.1257 -2.24876,1.99825 -3.42938,3.01147c-1.06814,0.98503 -2.30514,1.77329 -3.28899,2.61763c-0.50602,0.36593 -1.12453,0.76007 -1.63056,1.126c-0.53422,0.25345 -1.01204,0.73187 -1.43377,0.95712c-1.79913,1.40734 -3.28899,2.61763 -4.38533,3.49018c-1.60264,0.76035 -2.08047,1.23878 -2.08047,1.23878z" fill="#687a27"></path><path d="M223.33481,235.63332c0,0 0.84288,-1.40677 2.19149,-3.65758c0.6743,-1.12541 1.43289,-2.39149 2.16329,-3.77005c0.73039,-1.37857 1.4326,-2.86961 2.02232,-4.33247c0.28077,-0.78767 0.44905,-1.54714 0.50484,-2.27842c0.0279,-0.36563 0.0558,-0.73128 -0.00059,-0.95624l-0.14097,-0.56241l-0.11278,-0.44993c-0.16916,-0.67489 -0.45081,-1.32159 -0.84493,-1.94009c-0.28164,-0.6467 -0.64758,-1.15273 -0.92923,-1.79942c-0.61938,-1.04024 -1.21058,-1.96799 -1.6047,-2.5865c-0.39413,-0.6185 -0.73187,-1.01205 -0.73187,-1.01205c0,0 1.43496,0.95536 3.23613,2.89487c0.47841,0.47783 0.87255,1.09634 1.26667,1.71484c0.39413,0.6185 0.81645,1.34949 1.12629,2.10867l0.28164,0.6467l0.14097,0.56241c0.14097,0.56241 0.14127,1.04053 0.14156,1.51865c0.00059,0.95624 -0.25198,1.85639 -0.50455,2.75655c-0.64581,1.71601 -1.4605,3.23525 -2.30338,4.64202c-0.84288,1.40677 -1.85463,2.61675 -2.69781,3.54539c-1.9395,1.80119 -3.20441,2.95508 -3.20441,2.95508z" fill="#687a27"></path><path d="M223.11514,244.2959c0,0 -0.59031,0.5066 -1.63055,1.12599c-1.04024,0.61938 -2.5586,1.23907 -4.04906,1.49311c-0.78737,0.19736 -1.60294,0.28224 -2.30602,0.33892c-0.70308,0.05668 -1.43436,0.00089 -2.08136,-0.19559c-0.25315,-0.05609 -0.6188,-0.084 -0.78767,-0.28077c-0.25315,-0.05609 -0.39383,-0.14038 -0.56271,-0.33715c-0.30954,-0.28106 -0.45022,-0.36535 -0.45022,-0.36535c0,0 0.25316,0.0561 0.59061,-0.02849c0.11248,-0.0282 0.33744,-0.08458 0.59061,-0.02849c0.22496,-0.05639 0.44993,-0.11277 0.81556,-0.08488c0.22496,-0.05639 0.56241,-0.14097 0.89985,-0.22555c0.33744,-0.08458 0.67489,-0.16917 1.01234,-0.25375c0.67489,-0.16916 1.46227,-0.36652 2.13716,-0.53569c1.46227,-0.36652 2.95272,-0.62056 4.13393,-0.67755c0.84376,0.0276 1.68752,0.05522 1.68752,0.05522z" fill="#687a27"></path><path d="M212.36972,241.49003c0,0 0.02819,0.11248 0.08458,0.33745c0.02819,0.11248 0.14067,0.08428 0.28135,0.16857c0.11248,-0.0282 0.25315,0.0561 0.36563,0.0279c0.11248,-0.0282 0.22496,-0.05639 0.47812,-0.0003c0.11248,-0.0282 0.33744,-0.08458 0.59061,-0.02849c0.33744,-0.08458 0.81556,-0.08488 1.29369,-0.08518c0.22496,-0.05639 0.47812,-0.0003 0.70308,-0.05668c0.22496,-0.05639 0.47812,-0.00029 0.70308,-0.05668c0.47812,-0.00029 0.84376,0.0276 1.20941,0.0555c0.73128,0.05579 1.26579,0.28047 1.26579,0.28047c0,0 -0.39355,0.33773 -1.01204,0.73187c-0.30925,0.19706 -0.75918,0.30984 -1.18092,0.5351c-0.44993,0.11277 -0.89986,0.22556 -1.37798,0.22585c-0.47812,0.00029 -1.06872,0.02878 -1.46256,-0.11161c-0.25315,-0.05609 -0.50632,-0.11218 -0.75947,-0.16827c-0.25315,-0.05609 -0.42202,-0.25286 -0.56271,-0.33715c-0.16887,-0.19676 -0.33774,-0.39354 -0.39413,-0.6185c-0.05638,-0.22496 -0.11278,-0.44993 -0.02849,-0.59061c-0.28135,-0.16858 -0.05638,-0.22496 -0.19706,-0.30924z" fill="#687a27"></path><path d="M217.40175,237.71821c0,0 0.02819,0.11248 0.05638,0.22496c0.02819,0.11248 0.08459,0.33744 0.22526,0.42173c0,0 0.14067,0.08429 0.11248,-0.02819l0.11248,-0.02819c0.11248,-0.0282 0.11248,-0.02819 0.25315,0.05609l0.25315,0.05609c0.39383,0.14038 0.81587,0.39325 1.23789,0.64611c0.42202,0.25286 0.6191,0.56212 0.6191,0.56212c0,0 -0.28106,0.30954 -0.73099,0.42231c-0.44993,0.11277 -1.12482,0.28195 -1.80001,-0.02702c-0.14067,-0.08428 -0.28134,-0.16857 -0.53451,-0.22466c-0.14067,-0.08428 -0.30955,-0.28106 -0.45022,-0.36535c-0.16887,-0.19676 -0.22526,-0.42174 -0.28164,-0.6467c-0.05638,-0.22496 -0.0003,-0.47812 0.08399,-0.6188c0.14038,-0.39383 0.36536,-0.45022 0.59032,-0.5066c0.14067,0.08428 0.25315,0.05609 0.25315,0.05609z" fill="#687a27"></path></g><path d="M244.85755,229.02914c0,0 0.92769,-0.11596 2.66712,-0.46385c0.81173,-0.11596 1.85539,-0.34788 2.89904,-0.69577c1.15962,-0.34788 2.43519,-0.69577 3.71077,-1.15962c2.66712,-0.92769 5.79808,-2.20327 8.92904,-4.05866c1.62346,-0.81173 3.13096,-1.85539 4.63846,-2.89904c1.5075,-1.04365 3.015,-2.20327 4.40654,-3.59481c1.39154,-1.27558 2.78308,-2.55116 4.05866,-3.9427c0.57981,-0.69577 1.15962,-1.39154 1.85539,-2.08731c0.57981,-0.69577 1.15962,-1.39154 1.62346,-2.20327c1.04365,-1.5075 1.97135,-2.89904 2.89904,-4.29058c0.46385,-0.69577 0.81173,-1.39154 1.15962,-2.08731c0.34788,-0.69577 0.81173,-1.27558 1.04365,-1.97135c0.57981,-1.27558 1.27558,-2.43519 1.73942,-3.59481c0.46385,-1.04365 0.92769,-1.97135 1.15962,-2.78308c0.57981,-1.62346 1.04365,-2.43519 1.04365,-2.43519c0,0 -0.23192,0.92769 -0.69577,2.55116c-0.23192,0.81173 -0.57981,1.85539 -0.92769,2.89904c-0.34788,1.15962 -0.81173,2.43519 -1.39154,3.71077c-0.57981,1.39154 -1.15962,2.78308 -1.97135,4.29058c-0.81173,1.5075 -1.73942,3.015 -2.66712,4.5225c-1.04365,1.5075 -2.20327,3.015 -3.47885,4.5225c-1.27558,1.39154 -2.66712,2.89904 -4.17462,4.17462c-1.5075,1.27558 -3.015,2.55116 -4.63846,3.59481c-1.62346,1.04365 -3.24693,2.08731 -4.87039,2.89904c-1.62346,0.81173 -3.24693,1.5075 -4.87039,2.20327c-1.62346,0.57981 -3.13096,1.04365 -4.5225,1.39154c-2.78308,0.69577 -5.21827,1.04365 -6.9577,1.15962c-1.73942,0.46385 -2.66712,0.34788 -2.66712,0.34788z" data-paper-data="{&quot;index&quot;:null}" fill="#4a3369"></path><path d="M207.28598,205.72086c0,0 2.31923,1.04365 5.68212,2.89904c1.73942,0.92769 3.59481,1.97135 5.68212,3.24693c2.08731,1.15962 4.29058,2.55116 6.37789,3.82673c1.04365,0.69577 2.20327,1.39154 3.24693,2.08731c1.04365,0.69577 2.08731,1.39154 3.13096,1.97135c1.97135,1.27558 3.82673,2.55116 5.4502,3.71077c3.13096,2.20327 5.10231,3.82673 5.10231,3.82673c0,0 -2.31923,-1.04365 -5.68212,-2.89904c-1.73942,-0.92769 -3.59481,-1.97135 -5.68212,-3.24693c-1.04365,-0.57981 -2.08731,-1.15962 -3.13096,-1.85539c-1.04365,-0.69577 -2.20327,-1.27558 -3.24693,-1.97135c-2.20327,-1.39154 -4.29058,-2.66712 -6.26193,-4.05866c-1.97135,-1.27558 -3.82673,-2.55116 -5.4502,-3.71077c-3.13096,-2.20327 -5.21827,-3.82673 -5.21827,-3.82673z" data-paper-data="{&quot;index&quot;:null}" fill="#4a3369"></path><path d="M254.71429,199.20503c-7.07366,11.54795 -35.36829,28.54305 -35.36829,28.54305c-3.71077,-2.94146 -13.79943,-20.37232 -13.79943,-20.37232c-0.11596,0.10894 -7.76943,-5.88292 -7.76943,-5.88292c0,0 21.10502,-29.85035 39.54291,-30.61296c0,0 3.13096,7.51706 -0.34788,11.22112z" data-paper-data="{&quot;index&quot;:null}" fill="#4a3369"></path><g data-paper-data="{&quot;index&quot;:null}"><g fill="#a3b339"><path d="M273.96392,210.3172c4.75443,0.32682 5.56616,17.21298 1.97135,24.83899c-3.59481,7.626 -12.87174,0.21788 -11.71212,-6.8634c1.15962,-7.08129 3.82673,-18.41135 9.74078,-17.97558z"></path><path d="M276.97891,229.92693c0.81173,2.06991 -1.04365,14.38046 -4.05866,15.36095c-3.015,0.98048 0.23192,-5.66503 -1.62346,-5.99186c-1.85539,-0.32682 -6.03,6.64552 -8.34924,6.20974c-2.31923,-0.43577 4.29058,-6.31869 4.29058,-6.31869c0,0 -9.04501,6.31869 -10.55251,4.46666c-1.5075,-1.85203 7.76943,-5.88292 7.76943,-5.88292c0,0 -8.4652,2.50569 -9.9727,0.65366c-1.5075,-1.85203 4.29058,-2.72357 6.84174,-2.50569c2.55116,0.21788 3.24693,-4.24877 3.015,-7.626"></path></g><path d="M253.20679,214.45702c10.08866,-7.95283 25.85944,-10.56747 23.07636,2.94146c-2.78308,13.50892 -28.52656,19.06501 -32.58522,16.99509c-7.07366,-3.48617 -0.57981,-11.87478 9.50885,-19.93656z" fill="#a3b339"></path><path d="M264.10718,202.25543c3.24693,7.29918 -8.23328,34.09914 -20.40925,32.2471c-12.17597,-1.85203 -10.20462,-19.39184 -4.17462,-30.93979c9.50885,-18.08452 21.33694,-8.60649 24.58386,-1.30732z" fill="#a3b339"></path><path d="M238.59562,205.41477c0,0 -0.11596,0.21788 -0.23192,0.65366c-0.11596,0.43577 -0.34788,1.08943 -0.57981,1.85203c-0.46385,1.63414 -1.15962,3.92195 -1.62346,6.75446c-0.46385,2.83251 -0.92769,6.1008 -0.69577,9.58697c0.23192,1.74309 0.57981,3.48617 1.5075,5.01137c0.92769,1.5252 2.31923,2.61463 4.05866,3.26829l1.39154,0.43577l1.39154,0.32682l1.39154,0.32682l1.39154,0.21788c1.97135,0.21788 3.82673,0.10894 5.68212,-0.10894c3.71077,-0.43577 6.9577,-1.74309 9.62481,-3.15935c2.66712,-1.41626 4.75443,-2.83251 6.03,-3.92195c1.39154,-1.08943 2.08731,-1.74309 2.08731,-1.74309c0,0 -0.57981,0.7626 -1.85539,1.96097c-0.57981,0.65366 -1.39154,1.30732 -2.43519,2.06991c-0.92769,0.7626 -2.08731,1.63414 -3.36289,2.39675c-2.55116,1.63414 -6.03,3.05041 -9.85674,3.81301c-1.97135,0.32682 -4.05866,0.43577 -6.14597,0.32682l-1.39154,-0.21788l-1.5075,-0.32682l-1.5075,-0.43577l-1.5075,-0.43577c-2.20327,-0.65366 -4.05866,-2.17886 -4.98635,-4.03089c-1.04365,-1.85203 -1.5075,-3.81301 -1.62346,-5.66503c-0.11596,-1.85203 0,-3.70406 0.23192,-5.3382c0.23192,-1.63414 0.57981,-3.26829 0.92769,-4.5756c0.81173,-2.83251 1.73942,-5.12032 2.43519,-6.64552c0.34788,-0.7626 0.69577,-1.41626 0.92769,-1.74309c0.11596,-0.43577 0.23192,-0.65366 0.23192,-0.65366z" fill="#687a27"></path><path d="M268.51372,207.81152c0,0 0.11596,0 0.34788,-0.10894c0.23192,0 0.57981,-0.10894 1.04365,-0.21788c0.46385,0 1.04365,0 1.73942,0c0.69577,0.10894 1.39154,0.21788 2.20327,0.65366c0.34788,0.10894 0.69577,0.43577 1.15962,0.65366c0.34788,0.32682 0.69577,0.54472 1.04365,0.87154c0.34788,0.32682 0.69577,0.65366 0.92769,1.08943c0.34788,0.43577 0.57981,0.87154 0.69577,1.30732c0.23192,0.43577 0.34788,0.87154 0.57981,1.41626c0.23192,0.43577 0.34788,0.98048 0.46385,1.41626c0.23192,0.98048 0.34788,1.96097 0.46385,2.94146c0.11596,0.98048 0.11596,1.96097 0.11596,2.94146c0,0.98048 -0.11596,1.96097 -0.11596,2.83251c-0.11596,1.85203 -0.46385,3.59511 -0.69577,5.01137c-0.34788,1.41626 -0.69577,2.61463 -1.04365,3.48617c-0.11596,0.43577 -0.34788,0.7626 -0.46385,0.98048c-0.11596,0.10894 -0.11596,0.21788 -0.23192,0.21788c-0.11596,0 0,-0.10894 -0.11596,-0.10894c0,0 0,0 0.11596,0c0,0 0.11596,-0.10894 0.11596,-0.21788c0.11596,-0.21788 0.11596,-0.54472 0.11596,-0.98048c0.11596,-0.87154 0.23192,-2.06991 0.34788,-3.48617c0.11596,-1.41626 0.11596,-3.15935 0.11596,-5.01137c0,-0.87154 0,-1.85203 0,-2.83251c0,-0.98048 -0.11596,-1.96097 -0.23192,-2.83251c-0.11596,-0.98048 -0.23192,-1.85203 -0.34788,-2.83251c-0.23192,-0.87154 -0.34788,-1.74309 -0.69577,-2.61463c-0.11596,-0.43577 -0.34788,-0.7626 -0.57981,-1.08943c-0.23192,-0.32682 -0.46385,-0.65366 -0.69577,-0.98048c-0.23192,-0.32682 -0.57981,-0.54472 -0.81173,-0.87154c-0.34788,-0.21788 -0.57981,-0.43577 -0.92769,-0.65366c-0.57981,-0.43577 -1.27558,-0.65366 -1.85539,-0.87154c-0.57981,-0.10894 -1.15962,-0.32682 -1.5075,-0.32682c-0.81173,0.21788 -1.27558,0.21788 -1.27558,0.21788z" fill="#687a27"></path><path d="M271.18084,239.29602c0,0 -0.11596,0.10894 -0.34788,0.32682c-0.23192,0.21788 -0.46385,0.54472 -0.69577,0.87154c-0.23192,0.43577 -0.57981,0.87154 -0.92769,1.30732c-0.34788,0.43577 -0.81173,0.98048 -1.27558,1.5252c-0.92769,0.98048 -2.08731,1.85203 -3.13096,2.2878c-0.57981,0.21788 -1.04365,0.21788 -1.39154,0.21788c-0.34788,-0.10894 -0.46385,-0.21788 -0.46385,-0.21788c0,0 0,0 0.11596,0c0.11596,0 0.23192,0 0.34788,-0.10894c0.23192,-0.10894 0.57981,-0.32682 0.81173,-0.65366c0.69577,-0.65366 1.39154,-1.63414 2.31923,-2.61463c0.46385,-0.43577 0.92769,-0.87154 1.39154,-1.30732c0.46385,-0.43577 1.04365,-0.7626 1.5075,-0.98048c0.46385,-0.21788 0.92769,-0.43577 1.27558,-0.43577c0.34788,-0.32682 0.46385,-0.21788 0.46385,-0.21788z" fill="#687a27"></path><path d="M267.23814,239.18707c0,0 -0.34788,0.65366 -1.15962,1.5252c-0.34788,0.43577 -0.81173,0.87154 -1.39154,1.30732c-0.57981,0.43577 -1.15962,0.87154 -1.85539,1.19837c-0.69577,0.32682 -1.39154,0.65366 -2.08731,0.87154c-0.34788,0.10894 -0.69577,0.21788 -1.04365,0.21788c-0.34788,0 -0.69577,0.10894 -1.04365,0.10894c-0.34788,0 -0.57981,0 -0.81173,-0.10894c-0.23192,-0.10894 -0.46385,-0.10894 -0.57981,-0.21788c-0.34788,-0.21788 -0.46385,-0.32682 -0.46385,-0.32682c0,0 0.23192,0 0.57981,0c0.11596,0 0.34788,-0.10894 0.57981,-0.10894c0.23192,0 0.46385,-0.10894 0.69577,-0.21788c0.23192,-0.10894 0.46385,-0.21788 0.81173,-0.32682c0.23192,-0.10894 0.57981,-0.32682 0.81173,-0.43577c0.57981,-0.32682 1.15962,-0.65366 1.85539,-0.98048c1.27558,-0.65366 2.55116,-1.30732 3.59481,-1.74309c0.69577,-0.54472 1.5075,-0.7626 1.5075,-0.7626z" fill="#687a27"></path><path d="M254.48236,238.42448c0,0 0.11596,0.10894 0.46385,0.10894c0.23192,0 0.69577,0 1.04365,-0.10894c0.46385,-0.10894 0.92769,-0.10894 1.5075,-0.21788c0.57981,-0.10894 1.15962,-0.21788 1.73942,-0.32682c1.27558,-0.21788 2.43519,-0.21788 3.47885,-0.21788c0.92769,0 1.62346,0.10894 1.62346,0.10894c0,0 -0.57981,0.43577 -1.39154,0.87154c-0.92769,0.43577 -2.08731,0.87154 -3.47885,0.98048c-0.69577,0.10894 -1.27558,0.10894 -1.97135,0.10894c-0.57981,0 -1.27558,-0.10894 -1.73942,-0.32682c-0.46385,-0.10894 -0.92769,-0.43577 -1.15962,-0.65366c-0.11596,-0.10894 -0.11596,-0.32682 -0.11596,-0.32682z" fill="#687a27"></path><path d="M264.10718,229.6001c0,0 0.34788,0.43577 0.57981,1.08943c0.23192,0.65366 0.34788,1.5252 0.11596,2.39675c-0.11596,0.43577 -0.23192,0.87154 -0.46385,1.30732c-0.23192,0.43577 -0.57981,0.7626 -0.81173,0.98048c-0.11596,0.10894 -0.34788,0.21788 -0.46385,0.21788c-0.11596,0.10894 -0.23192,0.10894 -0.46385,0.10894c-0.23192,0 -0.34788,0 -0.34788,0c0,0 0,-0.10894 0.11596,-0.32682c0,-0.10894 0.11596,-0.21788 0.11596,-0.32682c0,-0.10894 0.11596,-0.21788 0.11596,-0.32682c0.11596,-0.54472 0.23192,-1.19837 0.34788,-1.96097c0.11596,-0.7626 0.34788,-1.5252 0.57981,-2.06991c0.34788,-0.65366 0.57981,-1.08943 0.57981,-1.08943z" fill="#687a27"></path></g><g data-paper-data="{&quot;index&quot;:null}"><path d="M183.62981,163.58069c0,-4.75323 4.1015,-8.60649 9.16097,-8.60649c5.05946,0 9.16097,3.85325 9.16097,8.60649c0,4.75323 -4.1015,8.60649 -9.16097,8.60649c-5.05946,0 -9.16097,-3.85325 -9.16097,-8.60649z" fill="#a3b339"></path><path d="M184.55751,159.76769c0,0 0.11596,-0.32682 0.34788,-0.87154c0.23192,-0.54472 0.69577,-1.41626 1.5075,-2.17886c0.34788,-0.43577 0.92769,-0.87154 1.5075,-1.19837c0.57981,-0.32682 1.27558,-0.65366 1.97135,-0.87154c0.69577,-0.21788 1.5075,-0.32682 2.31923,-0.43577c0.81173,0 1.5075,0 2.43519,0.10894c0.34788,0.10894 0.69577,0.10894 1.04365,0.21788c0.46385,0.10894 0.81173,0.21788 1.15962,0.43577c0.34788,0.21788 0.69577,0.32682 1.04365,0.54472c0.34788,0.21788 0.69577,0.43577 0.92769,0.65366c1.15962,0.98048 1.85539,2.06991 2.31923,3.15935c0.46385,0.98048 0.69577,1.96097 0.69577,2.50569c0.11596,0.65366 0,0.98048 0,0.98048c0,0 -0.11596,-0.32682 -0.46385,-0.87154c-0.23192,-0.54472 -0.69577,-1.30732 -1.27558,-2.17886c-0.34788,-0.43577 -0.69577,-0.87154 -1.04365,-1.19837c-0.34788,-0.43577 -0.92769,-0.7626 -1.39154,-1.08943c-0.23192,-0.21788 -0.57981,-0.32682 -0.81173,-0.43577c-0.23192,-0.10894 -0.57981,-0.21788 -0.92769,-0.43577l-0.92769,-0.32682c-0.34788,-0.10894 -0.69577,-0.10894 -1.04365,-0.21788c-0.57981,-0.10894 -1.39154,-0.10894 -1.97135,-0.10894c-0.69577,0 -1.27558,0.10894 -1.97135,0.21788c-0.57981,0.10894 -1.15962,0.32682 -1.73942,0.54472c-0.57981,0.21788 -1.04365,0.54472 -1.39154,0.7626c-0.81173,0.54472 -1.5075,1.19837 -1.85539,1.63414c-0.23192,0.43577 -0.46385,0.65366 -0.46385,0.65366z" fill="#687a27"></path></g><path d="M180.035,169.35466c0,0 0.11596,-0.10894 0.34788,-0.43577c0.23192,-0.32682 0.57981,-0.65366 1.04365,-1.19837c0.46385,-0.54472 1.04365,-1.08943 1.73942,-1.74309c0.69577,-0.65366 1.62346,-1.30732 2.66712,-1.96097c1.04365,-0.65366 2.20327,-1.30732 3.47885,-1.74309c1.27558,-0.54472 2.66712,-0.98048 4.17462,-1.30732c1.5075,-0.32682 3.015,-0.54472 4.63846,-0.65366c1.62346,-0.10894 3.24693,0 4.87039,0c3.13096,0.10894 6.37789,0.21788 9.39289,0.54472c1.5075,0.10894 3.015,0.43577 4.29058,0.7626c1.39154,0.32682 2.66712,0.7626 3.71077,1.30732c0.57981,0.32682 1.04365,0.54472 1.5075,0.87154c0.46385,0.32682 0.92769,0.54472 1.27558,0.87154c0.34788,0.32682 0.69577,0.54472 1.04365,0.87154c0.34788,0.32682 0.57981,0.54472 0.81173,0.7626c0.46385,0.43577 0.81173,0.87154 1.04365,1.19837c0.23192,0.32682 0.34788,0.43577 0.34788,0.43577c0,0 -0.11596,-0.10894 -0.46385,-0.32682c-0.34788,-0.21788 -0.69577,-0.54472 -1.27558,-0.98048c-0.23192,-0.21788 -0.57981,-0.43577 -0.92769,-0.65366c-0.34788,-0.21788 -0.69577,-0.43577 -1.15962,-0.65366c-0.81173,-0.43577 -1.73942,-0.87154 -2.89904,-1.30732c-1.04365,-0.32682 -2.31923,-0.7626 -3.59481,-0.98048c-1.27558,-0.21788 -2.66712,-0.43577 -4.17462,-0.54472c-1.5075,-0.10894 -3.015,-0.10894 -4.5225,-0.21788c-1.62346,0 -3.13096,-0.10894 -4.75443,-0.10894c-1.62346,-0.10894 -3.13096,-0.10894 -4.63846,0c-1.5075,0 -3.015,0.21788 -4.40654,0.43577c-1.39154,0.32682 -2.78308,0.65366 -4.05866,1.08943c-1.27558,0.43577 -2.43519,0.98048 -3.47885,1.41626c-1.04365,0.54472 -1.97135,1.08943 -2.78308,1.63414c-0.81173,0.54472 -1.39154,0.98048 -1.97135,1.41626c-0.69577,0.65366 -1.27558,1.19837 -1.27558,1.19837z" data-paper-data="{&quot;index&quot;:null}" fill="#687a27"></path><g data-paper-data="{&quot;index&quot;:null}"><path d="M176.09231,177.96116c0,-4.5756 6.9577,-16.01461 20.40925,-16.55933c13.45155,-0.54472 24.81579,-0.21788 32.23733,8.82437c7.53751,9.15121 35.83214,12.52844 47.66023,17.10403c11.82809,4.5756 17.5102,29.30565 12.06001,41.39831c-5.4502,12.09266 -48.70388,15.14307 -66.44601,-6.64552c-17.74213,-21.78858 -17.39424,-21.02598 -25.16367,-24.40321c-16.23463,-7.19024 -20.75713,-16.01461 -20.75713,-19.71866z" fill="#a3b339"></path><path d="M177.25192,182.86359c0,0 2.31923,0.21788 5.68212,0.87154c1.73942,0.32682 3.71077,0.7626 5.79808,1.41626c1.04365,0.32682 2.08731,0.65366 3.24693,0.98048c1.04365,0.32682 2.20327,0.7626 3.24693,1.08943c1.04365,0.43577 2.20327,0.87154 3.24693,1.30732c1.04365,0.43577 2.08731,0.87154 3.015,1.19837c0.92769,0.43577 1.97135,0.7626 2.89904,0.98048c0.92769,0.32682 1.85539,0.54472 2.66712,0.7626c1.62346,0.43577 3.015,0.65366 4.05866,0.65366c1.04365,0.10894 1.62346,0 1.62346,0c0,0 -0.57981,0.21788 -1.62346,0.32682c-1.04365,0.10894 -2.55116,0.10894 -4.29058,-0.10894c-1.73942,-0.21788 -3.71077,-0.65366 -5.79808,-1.30732c-1.04365,-0.32682 -2.08731,-0.7626 -3.13096,-1.08943c-1.04365,-0.32682 -2.08731,-0.7626 -3.13096,-1.19837c-4.29058,-1.5252 -8.58116,-2.94146 -11.82809,-4.03089c-3.47885,-0.98048 -5.68212,-1.85203 -5.68212,-1.85203z" fill="#687a27"></path><path d="M188.5002,175.23758c0,0 0,-0.10894 0,-0.21788c0,-0.10894 0.11596,-0.43577 0.23192,-0.7626c0.11596,-0.32682 0.46385,-0.54472 0.69577,-0.7626c0.34788,-0.21788 0.69577,-0.43577 1.04365,-0.65366c0.34788,-0.10894 0.81173,-0.21788 1.15962,-0.32682c0.23192,0 0.46385,0 0.57981,0c0.23192,0 0.34788,0.10894 0.57981,0.10894c0.11596,0 0.23192,0.10894 0.23192,0.10894c0.11596,0.10894 0.11596,0.21788 0.11596,0.21788c0,0.10894 0,0.32682 0,0.43577c-0.11596,0.21788 -0.23192,0.21788 -0.23192,0.21788c0,0 0,-0.10894 0,-0.21788c0,-0.10894 -0.11596,-0.10894 -0.11596,-0.10894h-0.11596h-0.11596c-0.46385,0 -1.15962,0.32682 -1.73942,0.54472c-0.69577,0.21788 -1.27558,0.54472 -1.73942,0.7626c-0.11596,0.10894 -0.23192,0.10894 -0.34788,0.21788c-0.11596,0.10894 -0.23192,0.10894 -0.23192,0.21788c0.11596,0.10894 0,0.21788 0,0.21788z" fill="#687a27"></path><path d="M181.42654,187.87496c0,0 0.23192,0.32682 0.92769,0.7626c0.57981,0.43577 1.5075,1.08943 2.66712,1.85203c1.15962,0.7626 2.66712,1.63414 4.29058,2.61463c1.73942,0.98048 3.59481,2.06991 5.79808,3.05041c2.20327,0.87154 4.75443,1.85203 7.18962,3.15935c2.43519,1.41626 4.75443,3.26829 6.84174,5.44714c2.08731,2.17886 4.05866,4.5756 5.79808,7.08129c1.85539,2.50569 3.71077,5.01137 5.79808,7.29918c2.08731,2.39675 4.17462,4.5756 6.60981,6.53658c2.31923,1.96097 4.87039,3.70406 7.42154,5.22926c5.21827,2.94146 10.55251,4.68455 15.30693,5.66503c2.43519,0.43577 4.5225,0.7626 6.49385,0.98048c0.92769,0.10894 1.85539,0.21788 2.78308,0.21788c0.81173,0.10894 1.62346,0.10894 2.31923,0.10894c1.39154,0.10894 2.55116,0.10894 3.36289,0.10894c0.81173,0 1.15962,0 1.15962,0c0,0 -0.46385,0 -1.15962,0.10894c-0.81173,0 -1.85539,0.10894 -3.36289,0.10894c-0.69577,0 -1.5075,0 -2.31923,0c-0.81173,0 -1.85539,0 -2.78308,-0.10894c-1.97135,-0.10894 -4.29058,-0.32682 -6.72577,-0.65366c-4.87039,-0.7626 -10.55251,-2.39675 -15.88674,-5.22926c-2.66712,-1.41626 -5.33423,-3.15935 -7.76943,-5.22926c-2.43519,-2.06991 -4.75443,-4.35771 -6.84174,-6.75446c-2.08731,-2.39675 -3.9427,-4.90243 -5.79808,-7.40812c-1.85539,-2.50569 -3.59481,-4.90243 -5.56616,-6.97234c-1.97135,-2.06991 -4.05866,-4.03089 -6.37789,-5.44714c-2.31923,-1.41626 -4.75443,-2.39675 -6.9577,-3.37723c-2.20327,-1.08943 -4.05866,-2.2878 -5.68212,-3.37723c-1.62346,-1.08943 -3.015,-2.06991 -4.17462,-2.94146c-1.15962,-0.87154 -1.97135,-1.5252 -2.55116,-2.06991c-0.57981,-0.43577 -0.81173,-0.7626 -0.81173,-0.7626z" fill="#687a27"></path></g><g data-paper-data="{&quot;index&quot;:null}"><g fill="#a3b339"><path d="M300.63507,214.45702c4.63846,-0.43577 8.92904,15.90567 6.9577,23.96744c-1.97135,8.06178 -12.52386,2.50569 -12.87174,-4.68455c-0.34788,-7.19024 -0.11596,-18.62924 5.91404,-19.2829z"></path><path d="M307.36086,233.30416c1.15962,1.96097 1.85539,14.27152 -0.92769,15.79673c-2.78308,1.5252 -0.92769,-5.66503 -2.78308,-5.66503c-1.85539,0 -4.63846,7.626 -6.9577,7.626c-2.31923,0 3.015,-6.97234 3.015,-6.97234c0,0 -7.65347,7.84389 -9.50885,6.31869c-1.85539,-1.5252 6.49385,-7.19024 6.49385,-7.19024c0,0 -7.88539,3.92195 -9.74078,2.39675c-1.85539,-1.5252 3.71077,-3.48617 6.26193,-3.70406c2.55116,-0.21788 2.31923,-4.79349 1.39154,-8.06178"></path></g><path d="M281.03756,222.19198c8.23328,-9.58697 23.19232,-14.92518 23.19232,-1.19837c0,13.7268 -24.12002,23.74955 -28.52656,22.44224c-7.65347,-2.17886 -2.89904,-11.65689 5.33423,-21.24387z" fill="#a3b339"></path><path d="M289.27083,208.13835c4.63846,6.64552 -1.27558,34.97068 -13.56751,35.29751c-12.29193,0.32682 -13.91539,-17.21298 -10.32058,-29.63247c5.68212,-19.2829 19.24963,-12.09266 23.88809,-5.66503z" fill="#a3b339"></path><path d="M264.91891,215.8733c0,0 -0.11596,0.21788 -0.11596,0.65366c-0.11596,0.43577 -0.11596,1.08943 -0.23192,1.96097c-0.23192,1.63414 -0.34788,4.03089 -0.23192,6.97234c0.11596,2.83251 0.23192,6.20974 1.27558,9.58697c0.57981,1.63414 1.27558,3.26829 2.43519,4.5756c1.15962,1.30732 2.78308,2.17886 4.63846,2.50569l1.5075,0.21788l1.39154,0.10894h1.5075l1.5075,-0.10894c1.97135,-0.10894 3.82673,-0.54472 5.56616,-1.08943c3.47885,-1.08943 6.49385,-2.94146 8.81308,-4.79349c2.31923,-1.85203 4.05866,-3.59511 5.21827,-4.90243c1.15962,-1.30732 1.73942,-2.06991 1.73942,-2.06991c0,0 -0.46385,0.87154 -1.39154,2.2878c-0.46385,0.65366 -1.15962,1.5252 -1.97135,2.50569c-0.81173,0.87154 -1.73942,1.96097 -2.89904,2.94146c-2.20327,2.06991 -5.21827,4.13983 -8.92904,5.44714c-1.85539,0.65366 -3.82673,1.19837 -5.91404,1.30732l-1.62346,0.10894h-1.62346l-1.62346,-0.10894l-1.5075,-0.21788c-2.20327,-0.21788 -4.40654,-1.41626 -5.79808,-3.05041c-1.39154,-1.63414 -2.20327,-3.48617 -2.66712,-5.3382c-0.46385,-1.85203 -0.69577,-3.59511 -0.81173,-5.22926c-0.11596,-1.63414 -0.11596,-3.26829 0,-4.68455c0.23192,-2.94146 0.69577,-5.3382 1.04365,-6.97234c0.23192,-0.87154 0.34788,-1.41626 0.46385,-1.85203c0.11596,-0.54472 0.23192,-0.7626 0.23192,-0.7626z" fill="#687a27"></path><path d="M294.60508,213.04077c0,0 0.11596,-0.10894 0.34788,-0.10894c0.23192,-0.10894 0.57981,-0.21788 1.04365,-0.32682c0.46385,-0.10894 1.04365,-0.21788 1.73942,-0.32682c0.69577,0 1.39154,0 2.20327,0.21788c0.46385,0.10894 0.81173,0.21788 1.27558,0.43577c0.34788,0.21788 0.81173,0.43577 1.27558,0.65366c0.34788,0.21788 0.81173,0.54472 1.15962,0.87154c0.34788,0.32682 0.69577,0.7626 1.04365,1.08943c0.34788,0.43577 0.57981,0.87154 0.81173,1.30732c0.23192,0.43577 0.46385,0.87154 0.69577,1.30732c0.34788,0.98048 0.69577,1.85203 1.04365,2.83251c0.23192,0.98048 0.46385,1.96097 0.69577,2.94146c0.23192,0.98048 0.34788,1.96097 0.46385,2.83251c0.23192,1.85203 0.34788,3.59511 0.23192,5.12032c0,1.5252 -0.11596,2.72357 -0.23192,3.59511c-0.11596,0.43577 -0.11596,0.7626 -0.23192,0.98048c0,0.10894 -0.11596,0.21788 -0.11596,0.21788c-0.11596,0 -0.11596,-0.10894 -0.11596,-0.10894c0,0 0,0 0.11596,0c0,0 0.11596,-0.10894 0.11596,-0.21788c0,-0.21788 0,-0.54472 0,-0.98048c-0.11596,-0.87154 -0.23192,-2.06991 -0.46385,-3.48617c-0.23192,-1.41626 -0.46385,-3.15935 -0.81173,-4.90243c-0.11596,-0.87154 -0.34788,-1.85203 -0.57981,-2.72357c-0.23192,-0.98048 -0.46385,-1.85203 -0.69577,-2.83251c-0.23192,-0.87154 -0.57981,-1.85203 -0.92769,-2.72357c-0.34788,-0.87154 -0.69577,-1.74309 -1.27558,-2.39675c-0.23192,-0.32682 -0.46385,-0.7626 -0.81173,-0.98048c-0.23192,-0.32682 -0.57981,-0.65366 -0.81173,-0.87154c-0.23192,-0.32682 -0.69577,-0.43577 -0.92769,-0.65366c-0.34788,-0.10894 -0.69577,-0.32682 -1.04365,-0.43577c-0.69577,-0.32682 -1.39154,-0.43577 -1.97135,-0.43577c-0.57981,0 -1.15962,-0.10894 -1.62346,0c-1.04365,-0.10894 -1.62346,0.10894 -1.62346,0.10894z" fill="#687a27"></path><path d="M303.65009,243.3269c0,0 -0.11596,0.10894 -0.23192,0.32682c-0.11596,0.21788 -0.34788,0.65366 -0.57981,0.98048c-0.23192,0.43577 -0.46385,0.87154 -0.69577,1.41626c-0.23192,0.54472 -0.57981,1.08943 -0.92769,1.63414c-0.69577,1.08943 -1.62346,2.17886 -2.66712,2.72357c-0.46385,0.32682 -1.04365,0.43577 -1.39154,0.43577c-0.34788,0 -0.46385,-0.21788 -0.46385,-0.10894c0,0 0,0 0.11596,0c0.11596,0 0.23192,-0.10894 0.34788,-0.10894c0.23192,-0.10894 0.46385,-0.43577 0.69577,-0.87154c0.46385,-0.7626 1.04365,-1.85203 1.73942,-2.94146c0.34788,-0.54472 0.69577,-1.08943 1.15962,-1.5252c0.46385,-0.54472 0.81173,-0.98048 1.27558,-1.30732c0.46385,-0.32682 0.81173,-0.54472 1.15962,-0.65366c0.23192,0 0.46385,0 0.46385,0z" fill="#687a27"></path><path d="M299.7074,243.98056c0,0 -0.23192,0.7626 -0.81173,1.63414c-0.23192,0.43577 -0.69577,0.98048 -1.15962,1.5252c-0.46385,0.54472 -1.04365,1.08943 -1.62346,1.5252c-0.57981,0.43577 -1.27558,0.87154 -1.97135,1.19837c-0.34788,0.10894 -0.69577,0.32682 -1.04365,0.43577c-0.34788,0.10894 -0.69577,0.21788 -0.92769,0.21788c-0.34788,0.10894 -0.57981,0.10894 -0.81173,0c-0.23192,0 -0.46385,0 -0.69577,-0.10894c-0.34788,-0.10894 -0.46385,-0.21788 -0.46385,-0.21788c0,0 0.23192,-0.10894 0.46385,-0.10894c0.11596,0 0.34788,-0.10894 0.57981,-0.21788c0.23192,-0.10894 0.34788,-0.21788 0.57981,-0.32682c0.23192,-0.10894 0.46385,-0.32682 0.69577,-0.43577c0.23192,-0.10894 0.46385,-0.32682 0.69577,-0.54472c0.46385,-0.43577 1.04365,-0.87154 1.62346,-1.30732c1.04365,-0.87154 2.20327,-1.74309 3.13096,-2.39675c1.04365,-0.54472 1.73942,-0.87154 1.73942,-0.87154z" fill="#687a27"></path><path d="M287.06757,245.50577c0,0 0.11596,0.10894 0.46385,0c0.23192,0 0.57981,-0.10894 1.04365,-0.32682c0.46385,-0.10894 0.92769,-0.32682 1.5075,-0.54472c0.57981,-0.21788 1.15962,-0.43577 1.73942,-0.54472c1.15962,-0.32682 2.43519,-0.65366 3.36289,-0.87154c0.92769,-0.21788 1.62346,-0.10894 1.62346,-0.10894c0,0 -0.46385,0.54472 -1.27558,1.08943c-0.81173,0.54472 -1.97135,1.19837 -3.24693,1.63414c-0.57981,0.21788 -1.27558,0.32682 -1.85539,0.43577c-0.57981,0.10894 -1.27558,0.10894 -1.73942,0c-0.57981,-0.10894 -0.92769,-0.21788 -1.27558,-0.43577c-0.34788,-0.10894 -0.34788,-0.32682 -0.34788,-0.32682z" fill="#687a27"></path><path d="M294.72103,235.15619c0,0 0.46385,0.32682 0.69577,0.98048c0.34788,0.54472 0.57981,1.41626 0.57981,2.39675c0,0.43577 -0.11596,0.87154 -0.23192,1.30732c-0.11596,0.43577 -0.34788,0.7626 -0.69577,1.08943c-0.11596,0.10894 -0.23192,0.21788 -0.46385,0.32682c-0.11596,0.10894 -0.23192,0.10894 -0.34788,0.21788c-0.23192,0.10894 -0.34788,0.10894 -0.34788,0.10894c0,0 0,-0.10894 0.11596,-0.32682c0,-0.10894 0,-0.21788 0.11596,-0.32682c0,-0.10894 0,-0.21788 0,-0.43577c0,-0.54472 0,-1.30732 0,-2.06991c0,-0.7626 0.11596,-1.5252 0.23192,-2.17886c0.23192,-0.65366 0.34788,-1.08943 0.34788,-1.08943z" fill="#687a27"></path><path d="M267.58601,184.71562c0,0 1.04365,0 2.89904,0.32682c0.92769,0.21788 1.97135,0.43577 3.24693,0.7626c1.27558,0.43577 2.66712,0.87154 4.05866,1.63414c1.39154,0.7626 2.89904,1.74309 4.17462,2.94146c1.27558,1.30732 2.55116,2.83251 3.47885,4.5756c1.73942,3.37723 3.47885,7.08129 4.63846,11.00323c0.57981,1.96097 1.04365,3.92195 1.27558,5.99186c0.23192,1.96097 0.34788,3.92195 0.23192,5.88292c-0.23192,3.81301 -1.27558,7.29918 -2.43519,10.13169c-0.57981,1.41626 -1.27558,2.61463 -1.85539,3.70406c-0.57981,1.08943 -1.27558,1.96097 -1.73942,2.72357c-0.46385,0.7626 -0.92769,1.30732 -1.27558,1.63414c-0.34788,0.32682 -0.46385,0.54472 -0.46385,0.54472c0,0 0.46385,-0.87154 1.39154,-2.39675c0.46385,-0.7626 0.92769,-1.74309 1.39154,-2.83251c0.46385,-1.08943 1.04365,-2.39675 1.5075,-3.81301c0.46385,-1.41626 0.92769,-2.94146 1.27558,-4.5756c0.34788,-1.63414 0.57981,-3.37723 0.57981,-5.22926c0,-1.85203 0,-3.70406 -0.34788,-5.55609c-0.23192,-1.85203 -0.69577,-3.81301 -1.27558,-5.66503c-1.15962,-3.81301 -2.66712,-7.40812 -4.29058,-10.78535c-0.81173,-1.63414 -1.85539,-3.05041 -3.015,-4.35771c-1.15962,-1.19837 -2.43519,-2.17886 -3.82673,-3.05041c-2.55116,-1.63414 -5.10231,-2.50569 -6.84174,-2.94146c-1.62346,-0.54472 -2.78308,-0.65366 -2.78308,-0.65366z" fill="#687a27"></path></g><g data-paper-data="{&quot;index&quot;:null}" fill="#969330"><path d="M284.63239,206.83103c-3.13096,2.17886 -4.75443,-3.81301 -1.27558,-6.53658c3.015,-2.50569 4.29058,4.35771 1.27558,6.53658z"></path><path d="M272.57238,211.62452c-4.98635,1.19837 -6.9577,-6.42764 -1.5075,-8.82437c5.68212,-2.50569 6.49385,7.626 1.5075,8.82437z"></path><path d="M273.96392,198.98714c-3.82673,-2.61463 -2.31923,-9.69592 3.13096,-7.29918c5.4502,2.50569 6.72577,13.9447 -3.13096,7.29918z"></path></g><path d="M205.54656,207.37575c0,0 0.81173,-0.10894 2.20327,-0.43577c1.39154,-0.21788 3.36289,-0.7626 5.68212,-1.41626c2.31923,-0.65366 4.98635,-1.63414 7.65347,-2.94146c1.39154,-0.65366 2.66712,-1.41626 4.05866,-2.17886c1.27558,-0.87154 2.55116,-1.63414 3.82673,-2.72357c1.27558,-0.98048 2.31923,-2.06991 3.36289,-3.15935c0.92769,-1.08943 1.97135,-2.2878 2.66712,-3.48617c0.81173,-1.19837 1.39154,-2.39675 1.97135,-3.59511c0.57981,-1.19837 0.92769,-2.39675 1.39154,-3.37723c0.11596,-0.54472 0.34788,-1.08943 0.46385,-1.5252c0.11596,-0.54472 0.34788,-0.98048 0.34788,-1.41626c0.23192,-0.87154 0.34788,-1.74309 0.46385,-2.39675c0.23192,-1.30732 0.34788,-2.06991 0.34788,-2.06991c0,0 0,0.7626 0,2.06991c0,0.65366 -0.11596,1.5252 -0.11596,2.39675c0,0.98048 -0.23192,1.96097 -0.46385,3.15935c-0.11596,0.54472 -0.34788,1.19837 -0.46385,1.74309c-0.11596,0.65366 -0.46385,1.19837 -0.69577,1.85203c-0.46385,1.30732 -1.04365,2.61463 -1.85539,3.92195c-0.81173,1.30732 -1.62346,2.61463 -2.66712,3.81301c-1.04365,1.19837 -2.20327,2.39675 -3.47885,3.37723c-1.27558,1.08943 -2.66712,1.96097 -4.05866,2.83251c-1.39154,0.7626 -2.78308,1.5252 -4.29058,2.06991c-1.39154,0.65366 -2.89904,1.08943 -4.17462,1.5252c-1.39154,0.43577 -2.66712,0.7626 -3.82673,0.98048c-2.55116,0.54472 -4.63846,0.7626 -6.03,0.87154c-1.39154,0.10894 -2.31923,0.10894 -2.31923,0.10894z" data-paper-data="{&quot;index&quot;:null}" fill="#4a3369"></path><path d="M241.61062,176.87173c0,0 3.24693,-0.43577 8.00135,-0.10894c1.15962,0 2.55116,0.21788 3.9427,0.32682c1.39154,0.21788 2.78308,0.32682 4.29058,0.65366c1.5075,0.32682 3.015,0.54472 4.5225,1.08943c1.5075,0.43577 3.015,0.87154 4.63846,1.41626c1.5075,0.43577 3.015,1.08943 4.5225,1.74309c0.69577,0.21788 1.39154,0.65366 2.08731,0.98048c0.69577,0.32682 1.39154,0.65366 2.08731,0.98048c1.39154,0.65366 2.55116,1.41626 3.71077,2.06991c1.15962,0.65366 2.20327,1.41626 3.24693,2.06991c0.92769,0.65366 1.85539,1.30732 2.66712,1.85203c0.69577,0.65366 1.39154,1.08943 1.85539,1.5252c1.04365,0.87154 1.62346,1.41626 1.62346,1.41626c0,0 -0.69577,-0.43577 -1.85539,-1.08943c-0.57981,-0.32682 -1.27558,-0.7626 -2.08731,-1.30732c-0.81173,-0.54472 -1.73942,-0.98048 -2.78308,-1.5252c-1.04365,-0.54472 -2.08731,-1.19837 -3.36289,-1.74309c-1.27558,-0.54472 -2.43519,-1.30732 -3.82673,-1.85203c-1.39154,-0.54472 -2.66712,-1.19837 -4.17462,-1.74309c-1.39154,-0.54472 -2.89904,-1.19837 -4.40654,-1.63414c-1.5075,-0.54472 -3.015,-0.98048 -4.5225,-1.41626c-1.5075,-0.43577 -3.015,-0.7626 -4.40654,-1.19837c-1.39154,-0.32682 -2.78308,-0.65366 -4.17462,-0.87154c-1.39154,-0.21788 -2.55116,-0.54472 -3.82673,-0.65366c-4.5225,-0.87154 -7.76943,-0.98048 -7.76943,-0.98048z" data-paper-data="{&quot;index&quot;:null}" fill="#4a3369"></path><g data-paper-data="{&quot;index&quot;:null}"><path d="M196.50155,161.29288c0,0 13.33559,-20.48126 29.33829,-33.7723c0,0 2.43519,34.97068 0.92769,41.07148c0,0 -11.59616,-9.80487 -30.26598,-7.29918z" fill="#6d4b9b"></path><path d="M226.76754,168.59206c0,0 -0.23192,-2.39675 -0.46385,-6.1008c-0.11596,-1.85203 -0.23192,-3.92195 -0.34788,-6.20974c0,-1.08943 -0.11596,-2.2878 -0.11596,-3.48617c0,-1.19837 -0.11596,-2.39675 -0.11596,-3.59511c0,-1.19837 0,-2.39675 0,-3.59511c0,-1.19837 0,-2.39675 0,-3.48617c0,-2.2878 0,-4.35771 0,-6.20974c0,-1.85203 0.11596,-3.37723 0.11596,-4.46666c0,-1.08943 0.11596,-1.63414 0.11596,-1.63414c0,0 0.46385,2.39675 0.92769,6.1008c0.23192,1.85203 0.34788,3.92195 0.57981,6.20974c0.11596,2.2878 0.23192,4.68455 0.34788,7.19024c0,2.39675 0,4.90243 0,7.19024c0,2.2878 -0.11596,4.46666 -0.23192,6.20974c-0.46385,3.37723 -0.81173,5.88292 -0.81173,5.88292z" fill="#4a3369"></path><path d="M203.69117,153.01321c0,0 1.73942,-3.70406 3.13096,-5.01137c0,0 0,-0.10894 -0.23192,-0.43577c1.04365,-1.30732 2.20327,-2.61463 3.36289,-4.03089c0.11596,0 0.23192,0.10894 0.34788,0.21788c0,0 3.13096,-3.37723 4.40654,-4.5756c0,0 1.27558,5.12032 0.46385,6.31869c0,0 5.56616,1.08943 7.42154,2.50569c0,0 -5.56616,2.94146 -7.76943,2.2878c0,0 0.57981,4.24877 -0.34788,5.77398c0,0 -3.9427,-3.70406 -4.40654,-5.12032c0,0 -2.08731,1.19837 -6.37789,2.06991z" fill="#e0c448"></path><path d="M196.50155,161.29288c0,0 1.39154,-2.39675 3.71077,-5.88292c1.15962,-1.74309 2.55116,-3.70406 4.05866,-5.88292c0.81173,-1.08943 1.62346,-2.17886 2.43519,-3.26829c0.81173,-1.08943 1.73942,-2.17886 2.66712,-3.26829c1.85539,-2.17886 3.59481,-4.24877 5.4502,-6.20974c0.92769,-0.98048 1.85539,-1.85203 2.66712,-2.72357c0.81173,-0.87154 1.73942,-1.63414 2.55116,-2.2878c0.81173,-0.7626 1.5075,-1.30732 2.31923,-1.85203c0.69577,-0.54472 1.27558,-0.98048 1.85539,-1.30732c1.04365,-0.65366 1.62346,-1.08943 1.62346,-1.08943c0,0 -0.57981,0.43577 -1.39154,1.30732c-0.46385,0.43577 -0.92769,0.98048 -1.62346,1.5252c-0.57981,0.54472 -1.27558,1.30732 -1.97135,2.06991c-1.39154,1.5252 -3.015,3.37723 -4.75443,5.3382c-0.81173,0.98048 -1.73942,2.06991 -2.55116,3.05041c-0.92769,1.08943 -1.73942,2.17886 -2.66712,3.15935c-1.73942,2.17886 -3.59481,4.35771 -5.21827,6.31869c-1.62346,2.06991 -3.24693,3.92195 -4.5225,5.55609c-2.78308,3.37723 -4.63846,5.44714 -4.63846,5.44714z" fill="#4a3369"></path></g><g data-paper-data="{&quot;index&quot;:null}"><path d="M205.54656,207.37575c0,0 4.75443,-3.15935 4.98635,-8.27966c0,0 22.84444,-6.53658 26.9031,-28.10727l2.43519,5.77398c0,0 27.94675,-1.19837 48.9358,16.12355c0,0 -7.65347,34.97068 -43.94945,37.58531z" fill="#6d4b9b"></path><path d="M273.15218,199.20503c0,0 -1.97135,-2.83251 -2.20327,-4.79349c0,0 3.9427,0.54472 4.87039,1.41626c0,0 2.55116,-2.72357 3.59481,-3.70406c0,0 0.92769,4.03089 0.34788,5.01137c0,0 4.29058,0.87154 5.91404,1.96097c0,0 -4.40654,2.2878 -6.26193,1.85203c0,0 0.57981,3.37723 -0.23192,4.5756c0,0 -3.13096,-2.94146 -3.47885,-4.03089c0,0 -1.73942,0.87154 -4.98635,1.63414c0,0.10894 1.39154,-2.83251 2.43519,-3.92195z" fill="#e0c448"></path><path d="M247.52467,216.96272c0,0 0.46385,-3.37723 1.5075,-5.01137c0,0 2.66712,2.72357 2.78308,4.03089c0,0 3.82673,-0.54472 5.21827,-0.65366c0,0 -2.08731,3.70406 -3.13096,4.03089c0,0 2.66712,3.37723 3.13096,5.12032c0,0 -4.98635,-0.87154 -6.03,-2.39675c0,0 -1.85539,2.83251 -3.36289,3.37723c0,0 -0.34788,-4.13983 0.11596,-5.22926c0,0 -1.97135,-0.32682 -4.98635,-1.74309c0.11596,0.10894 3.24693,-1.30732 4.75443,-1.5252z" fill="#e0c448"></path><path d="M250.07582,192.45056c0,0 -1.5075,-3.05041 -1.39154,-5.01137c0,0 3.82673,1.08943 4.63846,2.06991c0,0 3.015,-2.39675 4.05866,-3.15935c0,0 0.34788,4.13983 -0.46385,5.01137c0,0 4.17462,1.5252 5.4502,2.83251c0,0 -4.75443,1.63414 -6.49385,0.87154c0,0 0,3.37723 -1.04365,4.46666c0,0 -2.55116,-3.37723 -2.78308,-4.5756c0,0 -1.85539,0.65366 -5.21827,0.98048c0.11596,0.10894 1.97135,-2.72357 3.24693,-3.48617z" fill="#e0c448"></path><path d="M225.83984,203.99852c0,0 -3.59481,-0.21788 -5.33423,-1.19837c0,0 2.78308,-2.61463 4.17462,-2.83251c0,0 -0.81173,-3.59511 -1.04365,-4.90243c0,0 4.05866,1.74309 4.5225,2.72357c0,0 3.36289,-2.72357 5.21827,-3.15935c0,0 -0.69577,4.68455 -2.20327,5.77398c0,0 3.13096,1.63414 3.71077,2.94146c0,0 -4.29058,0.54472 -5.56616,0.10894c0,0 -0.23192,1.85203 -1.5075,4.68455c-0.11596,0.21788 -1.85539,-2.72357 -1.97135,-4.13983z" fill="#e0c448"></path><path d="M244.04582,176.76278c2.78308,0.21788 6.84174,0.54472 11.59616,1.41626c0.34788,0.21788 0.57981,0.54472 0.69577,0.87154c0,0 -4.40654,0.54472 -5.56616,0.10894c0,0 -0.23192,1.74309 -1.5075,4.68455c0,0 -1.73942,-2.83251 -1.97135,-4.24877c0,0 -3.59481,-0.21788 -5.33423,-1.19837c0,0 1.04365,-0.87154 2.08731,-1.63414z" fill="#e0c448"></path><path d="M235.3487,224.91555l-10.66847,-6.31869c-0.11596,-0.65366 -0.23192,-1.19837 -0.23192,-1.5252c0,0 4.05866,1.74309 4.5225,2.72357c0,0 3.36289,-2.72357 5.21827,-3.15935c0,0 -0.69577,4.68455 -2.20327,5.77398c0,0 2.43519,1.19837 3.36289,2.50569z" fill="#e0c448"></path><path d="M205.54656,207.37575c0,0 0.81173,-0.10894 2.20327,-0.43577c1.39154,-0.21788 3.36289,-0.7626 5.68212,-1.41626c2.31923,-0.65366 4.98635,-1.63414 7.65347,-2.94146c1.39154,-0.65366 2.66712,-1.41626 4.05866,-2.17886c1.27558,-0.87154 2.55116,-1.63414 3.82673,-2.72357c1.27558,-0.98048 2.31923,-2.06991 3.36289,-3.15935c0.92769,-1.08943 1.97135,-2.2878 2.66712,-3.48617c0.81173,-1.19837 1.39154,-2.39675 1.97135,-3.59511c0.57981,-1.19837 0.92769,-2.39675 1.39154,-3.37723c0.11596,-0.54472 0.34788,-1.08943 0.46385,-1.5252c0.11596,-0.54472 0.34788,-0.98048 0.34788,-1.41626c0.23192,-0.87154 0.34788,-1.74309 0.46385,-2.39675c0.23192,-1.30732 0.34788,-2.06991 0.34788,-2.06991c0,0 0,0.7626 0,2.06991c0,0.65366 -0.11596,1.5252 -0.11596,2.39675c0,0.98048 -0.23192,1.96097 -0.46385,3.15935c-0.11596,0.54472 -0.34788,1.19837 -0.46385,1.74309c-0.11596,0.65366 -0.46385,1.19837 -0.69577,1.85203c-0.46385,1.30732 -1.04365,2.61463 -1.85539,3.92195c-0.81173,1.30732 -1.62346,2.61463 -2.66712,3.81301c-1.04365,1.19837 -2.20327,2.39675 -3.47885,3.37723c-1.27558,1.08943 -2.66712,1.96097 -4.05866,2.83251c-1.39154,0.7626 -2.78308,1.5252 -4.29058,2.06991c-1.39154,0.65366 -2.89904,1.08943 -4.17462,1.5252c-1.39154,0.43577 -2.66712,0.7626 -3.82673,0.98048c-2.55116,0.54472 -4.63846,0.7626 -6.03,0.87154c-1.39154,0.10894 -2.31923,0.10894 -2.31923,0.10894z" fill="#4a3369"></path><path d="M241.61062,176.87173c0,0 3.24693,-0.43577 8.00135,-0.10894c1.15962,0 2.55116,0.21788 3.9427,0.32682c1.39154,0.21788 2.78308,0.32682 4.29058,0.65366c1.5075,0.32682 3.015,0.54472 4.5225,1.08943c1.5075,0.43577 3.015,0.87154 4.63846,1.41626c1.5075,0.43577 3.015,1.08943 4.5225,1.74309c0.69577,0.21788 1.39154,0.65366 2.08731,0.98048c0.69577,0.32682 1.39154,0.65366 2.08731,0.98048c1.39154,0.65366 2.55116,1.41626 3.71077,2.06991c1.15962,0.65366 2.20327,1.41626 3.24693,2.06991c0.92769,0.65366 1.85539,1.30732 2.66712,1.85203c0.69577,0.65366 1.39154,1.08943 1.85539,1.5252c1.04365,0.87154 1.62346,1.41626 1.62346,1.41626c0,0 -0.69577,-0.43577 -1.85539,-1.08943c-0.57981,-0.32682 -1.27558,-0.7626 -2.08731,-1.30732c-0.81173,-0.54472 -1.73942,-0.98048 -2.78308,-1.5252c-1.04365,-0.54472 -2.08731,-1.19837 -3.36289,-1.74309c-1.27558,-0.54472 -2.43519,-1.30732 -3.82673,-1.85203c-1.39154,-0.54472 -2.66712,-1.19837 -4.17462,-1.74309c-1.39154,-0.54472 -2.89904,-1.19837 -4.40654,-1.63414c-1.5075,-0.54472 -3.015,-0.98048 -4.5225,-1.41626c-1.5075,-0.43577 -3.015,-0.7626 -4.40654,-1.19837c-1.39154,-0.32682 -2.78308,-0.65366 -4.17462,-0.87154c-1.39154,-0.21788 -2.55116,-0.54472 -3.82673,-0.65366c-4.5225,-0.87154 -7.76943,-0.98048 -7.76943,-0.98048z" fill="#4a3369"></path><path d="M244.85755,230.3627c0,0 0.92769,-0.10894 2.66712,-0.43577c0.81173,-0.10894 1.85539,-0.32682 2.89904,-0.65366c1.15962,-0.32682 2.43519,-0.65366 3.71077,-1.08943c2.66712,-0.87154 5.79808,-2.06991 8.92904,-3.81301c1.62346,-0.7626 3.13096,-1.74309 4.63846,-2.72357c1.5075,-0.98048 3.015,-2.06991 4.40654,-3.37723c1.39154,-1.19837 2.78308,-2.39675 4.05866,-3.70406c0.57981,-0.65366 1.15962,-1.30732 1.85539,-1.96097c0.57981,-0.65366 1.15962,-1.30732 1.62346,-2.06991c1.04365,-1.41626 1.97135,-2.72357 2.89904,-4.03089c0.46385,-0.65366 0.81173,-1.30732 1.15962,-1.96097c0.34788,-0.65366 0.81173,-1.19837 1.04365,-1.85203c0.57981,-1.19837 1.27558,-2.2878 1.73942,-3.37723c0.46385,-0.98048 0.92769,-1.85203 1.15962,-2.61463c0.57981,-1.5252 1.04365,-2.2878 1.04365,-2.2878c0,0 -0.23192,0.87154 -0.69577,2.39675c-0.23192,0.7626 -0.57981,1.74309 -0.92769,2.72357c-0.34788,1.08943 -0.81173,2.2878 -1.39154,3.48617c-0.57981,1.30732 -1.15962,2.61463 -1.97135,4.03089c-0.81173,1.41626 -1.73942,2.83251 -2.66712,4.24877c-1.04365,1.41626 -2.20327,2.83251 -3.47885,4.24877c-1.27558,1.30732 -2.66712,2.72357 -4.17462,3.92195c-1.5075,1.19837 -3.015,2.39675 -4.63846,3.37723c-1.62346,0.98048 -3.24693,1.96097 -4.87039,2.72357c-1.62346,0.7626 -3.24693,1.41626 -4.87039,2.06991c-1.62346,0.54472 -3.13096,0.98048 -4.5225,1.30732c-2.78308,0.65366 -5.21827,0.98048 -6.9577,1.08943c-1.73942,0.43577 -2.66712,0.32682 -2.66712,0.32682z" fill="#4a3369"></path><path d="M207.28598,208.46518c0,0 2.31923,0.98048 5.68212,2.72357c1.73942,0.87154 3.59481,1.85203 5.68212,3.05041c2.08731,1.08943 4.29058,2.39675 6.37789,3.59511c1.04365,0.65366 2.20327,1.30732 3.24693,1.96097c1.04365,0.65366 2.08731,1.30732 3.13096,1.85203c1.97135,1.19837 3.82673,2.39675 5.4502,3.48617c3.13096,2.06991 5.10231,3.59511 5.10231,3.59511c0,0 -2.31923,-0.98048 -5.68212,-2.72357c-1.73942,-0.87154 -3.59481,-1.85203 -5.68212,-3.05041c-1.04365,-0.54472 -2.08731,-1.08943 -3.13096,-1.74309c-1.04365,-0.65366 -2.20327,-1.19837 -3.24693,-1.85203c-2.20327,-1.30732 -4.29058,-2.50569 -6.26193,-3.81301c-1.97135,-1.19837 -3.82673,-2.39675 -5.4502,-3.48617c-3.13096,-2.06991 -5.21827,-3.59511 -5.21827,-3.59511z" fill="#4a3369"></path><path d="M205.84742,209.42504c-0.97611,-2.15998 -0.81159,-4.29222 0.36746,-4.76249c1.17905,-0.47027 2.92614,0.89952 3.90225,3.0595c0.97611,2.15998 0.81159,4.29222 -0.36746,4.76249c-1.17905,0.47027 -2.92614,-0.89952 -3.90225,-3.0595z" fill="#bdabd6"></path></g><g data-paper-data="{&quot;index&quot;:null}"><g><path d="M201.37194,166.63108c0,-4.9939 4.30918,-9.04226 9.62481,-9.04226c5.31563,0 9.62481,4.04836 9.62481,9.04226c0,4.9939 -4.30918,9.04226 -9.62481,9.04226c-5.31563,0 -9.62481,-4.04836 -9.62481,-9.04226z" fill="#a3b339"></path><path d="M203.69117,166.63108c0,-3.79055 3.27083,-6.8634 7.30558,-6.8634c4.03476,0 7.30558,3.07286 7.30558,6.8634c0,3.79055 -3.27083,6.8634 -7.30558,6.8634c-4.03476,0 -7.30558,-3.07286 -7.30558,-6.8634z" fill="#e7ffbd"></path><path d="M217.02676,167.06687c-1.27558,3.05041 -11.4802,2.83251 -11.4802,-0.32682c0,-4.46666 12.75578,-2.61463 11.4802,0.32682z" fill="#2b3021"></path><path d="M201.4879,165.10589c0,0 0.11596,-0.43577 0.34788,-1.19837c0.23192,-0.7626 0.69577,-1.85203 1.5075,-2.94146c0.46385,-0.54472 0.92769,-1.08943 1.62346,-1.63414c0.69577,-0.54472 1.39154,-1.08943 2.31923,-1.30732c0.46385,-0.21788 0.92769,-0.32682 1.39154,-0.43577c0.46385,-0.10894 0.92769,-0.21788 1.5075,-0.21788c0.46385,0 1.04365,-0.10894 1.5075,0h0.69577l0.69577,0.10894c1.04365,0.10894 1.97135,0.43577 2.78308,0.87154c0.92769,0.43577 1.62346,0.98048 2.31923,1.63414c0.57981,0.65366 1.15962,1.30732 1.5075,2.06991c0.34788,0.7626 0.69577,1.41626 0.81173,2.06991c0.23192,0.65366 0.34788,1.30732 0.34788,1.85203c0.11596,0.54472 0,1.08943 0,1.41626c0,0.7626 -0.11596,1.19837 -0.11596,1.19837c0,0 0,-0.43577 -0.11596,-1.19837c-0.11596,-0.43577 -0.11596,-0.87154 -0.23192,-1.41626c-0.11596,-0.54472 -0.23192,-1.08943 -0.46385,-1.74309c-0.23192,-0.65366 -0.57981,-1.30732 -0.92769,-1.96097c-0.34788,-0.65366 -0.92769,-1.19837 -1.5075,-1.85203c-0.57981,-0.54472 -1.27558,-1.08943 -2.20327,-1.41626c-0.81173,-0.32682 -1.73942,-0.65366 -2.55116,-0.7626l-0.69577,-0.10894h-0.69577c-0.46385,-0.10894 -0.92769,0 -1.39154,0c-0.46385,0 -0.92769,0.10894 -1.27558,0.10894c-0.46385,0.10894 -0.81173,0.21788 -1.27558,0.32682c-1.62346,0.54472 -2.89904,1.63414 -3.71077,2.61463c-0.92769,0.98048 -1.5075,1.96097 -1.85539,2.72357c-0.23192,0.7626 -0.34788,1.19837 -0.34788,1.19837z" fill="#687a27"></path></g><path d="M203.57521,167.93841c0,0 0,-0.32682 0,-1.08943c0,-0.65366 0.11596,-1.63414 0.46385,-2.72357c0.34788,-1.08943 1.04365,-2.39675 2.31923,-3.48617c0.57981,-0.54472 1.39154,-0.87154 2.20327,-1.08943c0.81173,-0.21788 1.62346,-0.32682 2.55116,-0.32682c0.81173,0 1.73942,0.10894 2.43519,0.32682c0.81173,0.21788 1.62346,0.54472 2.20327,0.98048c1.27558,0.87154 2.08731,2.17886 2.43519,3.37723c0.34788,1.08943 0.34788,2.17886 0.34788,2.83251c-0.11596,0.65366 -0.23192,1.08943 -0.23192,1.08943c0,0 0.11596,-0.32682 0,-1.08943c0,-0.65366 -0.23192,-1.63414 -0.57981,-2.61463c-0.46385,-0.98048 -1.27558,-2.06991 -2.43519,-2.83251c-0.57981,-0.32682 -1.27558,-0.65366 -1.97135,-0.87154c-0.69577,-0.21788 -1.5075,-0.32682 -2.31923,-0.32682c-0.69577,0 -1.5075,0 -2.20327,0.21788c-0.69577,0.21788 -1.39154,0.43577 -1.97135,0.87154c-1.15962,0.7626 -1.85539,1.96097 -2.31923,2.94146c-0.46385,1.08943 -0.69577,1.96097 -0.81173,2.61463c0,0.87154 -0.11596,1.19837 -0.11596,1.19837z" fill="#687a27"></path></g></g></g></svg>