<svg version="1.1" xmlns="http://www.w3.org/2000/svg" xmlns:xlink="http://www.w3.org/1999/xlink" width="52.69102" height="52.69102" viewBox="0,0,52.69102,52.69102"><defs><linearGradient x1="240" y1="206.34551" x2="240" y2="153.65449" gradientUnits="userSpaceOnUse" id="color-1"><stop offset="0" stop-color="#4c3380"></stop><stop offset="1" stop-color="#66ebff"></stop></linearGradient><linearGradient x1="240" y1="201.54808" x2="240" y2="158.45064" gradientUnits="userSpaceOnUse" id="color-2"><stop offset="0" stop-color="#66ebff"></stop><stop offset="1" stop-color="#4c337f"></stop></linearGradient></defs><g transform="translate(-213.65448,-153.65449)"><g data-paper-data="{&quot;isPaintingLayer&quot;:true}" fill-rule="nonzero" stroke="none" stroke-width="1" stroke-linecap="butt" stroke-linejoin="miter" stroke-miterlimit="10" stroke-dasharray="" stroke-dashoffset="0" style="mix-blend-mode: normal"><path d="M240,206.34551c-14.52749,0 -26.34551,-11.81866 -26.34551,-26.34551c0,-14.52622 11.81866,-26.34551 26.34551,-26.34551c14.52749,0 26.34551,11.81929 26.34551,26.34551c0,14.52622 -11.81802,26.34551 -26.34551,26.34551z" data-paper-data="{&quot;index&quot;:null}" fill="url(#color-1)"></path><path d="M240,158.45064c11.90102,0 21.54872,9.64769 21.54872,21.54872c0,11.90102 -9.64769,21.54872 -21.54872,21.54872c-11.90103,0 -21.54872,-9.64769 -21.54872,-21.54872c0,-11.90103 9.64769,-21.54872 21.54872,-21.54872z" data-paper-data="{&quot;index&quot;:null}" fill="url(#color-2)"></path></g></g></svg>