<svg version="1.1" xmlns="http://www.w3.org/2000/svg" xmlns:xlink="http://www.w3.org/1999/xlink" width="111.71472" height="116.56633" viewBox="0,0,111.71472,116.56633"><g transform="translate(-184.92424,-129.34088)"><g data-paper-data="{&quot;isPaintingLayer&quot;:true}" fill-rule="nonzero" stroke-miterlimit="10" stroke-dasharray="" stroke-dashoffset="0" style="mix-blend-mode: normal"><g stroke="none" stroke-width="0.77185" stroke-linecap="butt" stroke-linejoin="miter"><path d="M254.32379,244.82817c-2.5549,0 -5.9232,-1.8508 -6.0652,-1.92992c-0.027,-0.0151 -0.054,-0.03169 -0.0803,-0.04818c-1.1817,-0.78481 -5.8282,-5.50365 -6.6471,-6.65677c-0.2169,-0.30569 -0.2532,-0.69348 -0.095,-1.02936c0.1583,-0.33597 0.4886,-0.574 0.8769,-0.63234c2.9939,-0.44669 11.2589,-1.82778 13.5158,-2.83486c3.9788,-1.77316 7.1372,-3.67438 8.0102,-4.21529c0.1899,-0.11724 0.467,-0.21435 0.6954,-0.21435c0.2447,0 0.477,0.0726 0.6677,0.19776c4.7214,0.94166 6.2581,2.95145 6.0999,4.56133c-0.1197,1.22647 -1.3531,2.63421 -4.3625,2.95359c0.4152,0.4726 0.7495,1.00056 0.9532,1.57102c0.369,1.02722 0.4708,2.61044 -1.1361,4.31604c-0.8228,0.87186 -2.0184,1.31417 -3.5528,1.31417c-1.9189,0 -4.0955,-0.69627 -5.9186,-1.52498c0.4593,1.35378 0.4809,2.81697 -1.1191,3.73197c-0.4786,0.2877 -1.1053,0.44017 -1.8424,0.44017z" fill="#f7941e"></path><path d="M264.53449,228.34603c-0.0077,0 -3.5073,2.22992 -8.2055,4.32471c-2.9037,1.29553 -13.833,2.92769 -13.833,2.92769c0.7471,1.05238 5.3118,5.68202 6.3531,6.37327c1.0558,0.58556 3.6516,1.7782 5.4739,1.7782c0.4808,0 0.9069,-0.08341 1.238,-0.28192c2.1033,-1.20205 -0.3257,-4.17792 -0.9378,-5.61082c1.5144,1.20131 5.5759,3.24567 8.5807,3.24567c1.0913,0 2.043,-0.2698 2.6829,-0.94744c2.9886,-3.17149 -0.9702,-6.02732 -3.2804,-6.47401c1.1185,0.19851 2.1211,0.28705 3.0033,0.28705c6.1014,0 6.4025,-4.24269 -1.1879,-5.54754c0.0764,-0.05107 0.1135,-0.07484 0.1127,-0.07484M264.53449,226.18806c0.396,0 0.7734,0.09422 1.1061,0.26114c5.308,1.11352 7.0176,3.6261 6.8162,5.67485c-0.1336,1.3617 -1.2034,2.89171 -3.6655,3.60094c0.0748,0.1576 0.1427,0.31873 0.2014,0.48267c0.6568,1.83216 0.1721,3.73915 -1.3654,5.37205c-0.724,0.76608 -2.0786,1.68034 -4.4219,1.68034c-1.4318,0 -3.0002,-0.34669 -4.4929,-0.85955c-0.0625,1.07605 -0.5696,2.11622 -1.9188,2.8946c-0.687,0.40643 -1.5175,0.61212 -2.4692,0.61212c-2.8195,0 -6.2728,-1.86813 -6.6571,-2.08099c-0.0548,-0.03094 -0.1089,-0.06337 -0.1606,-0.09786c-1.3592,-0.90205 -6.1393,-5.81222 -6.9404,-6.93944c-0.4346,-0.61072 -0.5064,-1.38621 -0.1899,-2.05807c0.3157,-0.67251 0.9764,-1.148 1.7536,-1.26384c4.0978,-0.61146 11.3045,-1.89758 13.2009,-2.74427c3.9094,-1.74222 7.0107,-3.60961 7.8675,-4.1398c0.1736,-0.10857 0.636,-0.39487 1.336,-0.39487z" fill="#000000"></path></g><g stroke="none" stroke-width="0.77185" stroke-linecap="butt" stroke-linejoin="miter"><g><path d="M226.43964,231.82816c-4.64864,-1.65272 -9.39666,-4.11792 -13.98804,-6.50072c-0.70974,-0.36767 -1.41685,-0.73588 -2.12317,-1.09916c-1.68825,-0.86896 -3.07721,-1.56357 -4.3713,-2.18626l-0.66952,-0.32201c-0.25119,-0.11828 -0.94071,-0.43445 -0.94071,-0.43445c-0.28589,-0.13142 -0.56975,-0.26141 -0.853,-0.38655c-0.28853,-0.1285 -0.57491,-0.25168 -0.8602,-0.37525c-0.30865,-0.13189 -0.61827,-0.26105 -0.92669,-0.38673c-0.26495,-0.10943 -0.52585,-0.21445 -0.78598,-0.31683c-0.34371,-0.13447 -0.68512,-0.25961 -1.0264,-0.38479l-0.66446,-0.24158c-0.49896,-0.17275 -0.99316,-0.33322 -1.48397,-0.48022l-0.11856,-0.0376c-0.51581,-0.15282 -0.96908,-0.29943 -1.40835,-0.4556c-7.76128,-2.75935 -11.62233,-8.65252 -9.60969,-14.66365c0.28932,-0.86213 0.69927,-1.7134 1.22026,-2.53133c2.33875,-3.66829 5.25309,-5.32405 8.07108,-6.92553c1.04523,-0.59416 2.12494,-1.20742 3.1803,-1.9247c3.70821,-2.78508 6.69056,-7.1758 9.84701,-11.82369c3.64788,-5.37101 7.41309,-10.91563 12.64705,-14.21801c-3.13949,-7.98035 -3.57132,-14.8117 -1.324,-20.86085c0.89218,-2.40138 2.40409,-4.61687 4.14174,-7.05744c10.01301,-14.05815 36.32628,-4.90543 37.4412,-4.50904c0.32865,0.11684 0.77449,0.28227 1.03322,0.4071c2.03286,0.98001 5.63051,3.24314 6.14316,3.62393c4.80095,3.57877 8.31493,10.00127 8.563,10.61696c0.18498,0.46121 0.36181,0.96839 0.54169,1.55233c0.01697,0.04421 0.03161,0.08602 0.045,0.12896l0.09543,0.33551c0.18829,0.66625 0.32991,1.26319 0.43273,1.82655c0.0117,0.06142 0.01693,0.12284 0.01774,0.18266c0.82032,4.48757 1.30367,9.25456 -1.03461,11.25102c-2.19295,1.87336 -4.79645,2.62498 -7.09251,3.28829c-7.17408,2.07285 -13.37091,3.86247 -1.35573,43.52686c2.05606,6.78814 0.58284,12.35822 -4.37782,16.55557c-3.22528,2.72859 -7.90694,4.81871 -13.91413,6.21315c-11.46571,2.66029 -19.26513,0.41182 -21.38287,-0.3411c-0.00076,-0.00026 -0.00076,-0.00026 -0.00076,-0.00026c-0.31565,-0.11222 -0.53028,-0.19991 -0.64219,-0.24661c-0.79357,-0.231 -1.62239,-0.49896 -2.46597,-0.79888z" fill="#8a8fc6"></path><path d="M261.4728,134.72284c-5.00857,-1.78069 -27.41912,-8.08624 -36.11708,4.1254c-1.67341,2.34975 -3.15741,4.5079 -4.01746,6.8231c-2.58014,6.94616 -1.14755,14.17684 1.63915,20.93087c0.00066,0.00023 0.00041,0.00094 0.00041,0.00094c-9.93994,5.68692 -14.63089,20.03324 -23.19856,26.46384c-3.95939,2.68974 -7.91964,3.78512 -10.95766,8.54921c-0.4821,0.75688 -0.8535,1.52959 -1.11432,2.30946c-1.73153,5.16973 1.37165,10.60938 8.87401,13.27668c0.41816,0.14867 0.84932,0.28822 1.29507,0.41929c0.05728,0.01651 0.11517,0.03788 0.17235,0.05436c0.5078,0.15235 1.0184,0.31776 1.53325,0.49625c0.03854,0.0137 0.07733,0.0267 0.11661,0.04066c0.1891,0.06723 0.37981,0.13889 0.56896,0.20842c0.34929,0.12804 0.70012,0.25653 1.05234,0.39481c0.26597,0.10446 0.53381,0.21263 0.80178,0.32314c0.31564,0.12835 0.63155,0.26043 0.94861,0.39611c0.28981,0.12519 0.58021,0.25049 0.87238,0.38038c0.28874,0.12789 0.57781,0.25963 0.86779,0.39329c0.31687,0.14549 0.63358,0.28935 0.95193,0.43992c0.22593,0.10634 0.45272,0.21744 0.67868,0.32606c1.45438,0.69957 2.92282,1.43992 4.4018,2.20166c5.2805,2.72098 10.68438,5.65912 15.95848,7.53421c0.8269,0.29398 1.65007,0.56141 2.47005,0.79874c0,0 0.21753,0.09801 0.63786,0.24745c2.14535,0.76273 9.597,2.87678 20.70185,0.30045c8.1115,-1.8823 21.91328,-6.91551 17.50864,-21.45473c-15.95683,-52.67383 -0.07673,-40.34555 8.76207,-47.89368c2.25731,-1.92752 1.10239,-8.08004 0.65379,-10.49779c0.01264,0.01518 0.02117,0.02582 0.02117,0.02582c-0.1085,-0.59129 -0.25107,-1.16493 -0.41005,-1.72915c-0.02926,-0.10426 -0.05762,-0.209 -0.08875,-0.31247c-0.01349,-0.04297 -0.03164,-0.08386 -0.04481,-0.1274c-0.15386,-0.49833 -0.3207,-0.98969 -0.51152,-1.46673c-0.17092,-0.42496 -3.56196,-6.68159 -8.17539,-10.11971c-0.42629,-0.31714 -3.93657,-2.53556 -5.94288,-3.50307c-0.1447,-0.06974 -0.45676,-0.19444 -0.91053,-0.35577M262.1957,132.68955c0.52068,0.18511 0.90984,0.3395 1.1588,0.45926c2.13697,1.03077 5.79377,3.33709 6.34449,3.74664c5.05035,3.76447 8.6461,10.36025 8.94881,11.11456c0.19091,0.47708 0.3748,0.99903 0.55879,1.59649c0.02029,0.05607 0.04064,0.11376 0.06114,0.18058c0.02616,0.08793 0.05175,0.17715 0.07614,0.26526l0.02294,0.08294c0.19721,0.6985 0.3462,1.32783 0.45539,1.92401c0.01592,0.08657 0.02604,0.17334 0.03156,0.2593c0.86095,4.72793 1.33084,9.8116 -1.39037,12.13611c-2.37241,2.02557 -5.09844,2.81317 -7.50389,3.50771c-3.73304,1.07843 -6.19909,1.79119 -7.05857,6.38847c-1.13747,6.08637 0.96449,17.8098 6.42641,35.83817c2.1563,7.11695 0.53268,13.21605 -4.69478,17.63843c-3.35781,2.84102 -8.19684,5.00961 -14.38079,6.44506c-11.78509,2.73379 -19.86821,0.3982 -22.06519,-0.38289c-0.28512,-0.10137 -0.50018,-0.18545 -0.63999,-0.24356c-0.79628,-0.23265 -1.62601,-0.50253 -2.46816,-0.80194c-4.7293,-1.68139 -9.51542,-4.16628 -14.14415,-6.56849c-0.70801,-0.36775 -1.41538,-0.73526 -2.11959,-1.09788c-1.67807,-0.86297 -3.05774,-1.55358 -4.34148,-2.17101l-0.23276,-0.11252c-0.1435,-0.06863 -0.28587,-0.13834 -0.43104,-0.20676c-0.24544,-0.11625 -0.4898,-0.22834 -0.73517,-0.34001l-0.19521,-0.08918c-0.27864,-0.12883 -0.55724,-0.25539 -0.83723,-0.38015c-0.28249,-0.12486 -0.5642,-0.24718 -0.84132,-0.36627c-0.30357,-0.13008 -0.60618,-0.25597 -0.91525,-0.38189c-0.25433,-0.10496 -0.51008,-0.20805 -0.76217,-0.30767c-0.33529,-0.13068 -0.66794,-0.2527 -0.99904,-0.37428l-0.2029,-0.07441c-0.11499,-0.04316 -0.23089,-0.08585 -0.34574,-0.12668l-0.09839,-0.03429c-0.47927,-0.16574 -0.96121,-0.32186 -1.41203,-0.4569c-0.05715,-0.01656 -0.1146,-0.0347 -0.18058,-0.05658c-0.48428,-0.14241 -0.96396,-0.29772 -1.4265,-0.46216c-8.40199,-2.98714 -12.55969,-9.43761 -10.34444,-16.05089c0.31528,-0.93993 0.76106,-1.8663 1.32625,-2.7533c2.47713,-3.88468 5.50763,-5.60685 8.43862,-7.27271c1.01225,-0.57542 2.05844,-1.16995 3.06466,-1.85048c3.5911,-2.71149 6.51566,-7.01819 9.61148,-11.57617c3.54424,-5.21774 7.19782,-10.5982 12.24471,-14.0473c-2.96099,-7.89701 -3.29716,-14.72105 -1.03268,-20.81604c0.9349,-2.51676 2.48486,-4.79123 4.26508,-7.29153c10.4909,-14.72949 37.615,-5.29759 38.76413,-4.88904z" fill="#000000"></path></g><path d="M210.84335,223.27763c0.19933,-0.36275 0.39922,-0.74976 0.60359,-1.19322c2.41215,-5.25001 0.57244,-16.20444 3.40478,-24.17102c2.83234,-7.96659 16.7336,-11.65504 22.99036,-12.27439c16.23833,-1.60791 0.00933,-26.46613 8.34794,-35.16241c9.74522,-10.16661 23.33507,-6.5574 30.82376,-0.30823c0.0134,0.04294 0.03167,0.08376 0.04481,0.1274c0.03124,0.10349 0.05949,0.2082 0.08885,0.3125c0.15897,0.56424 0.30155,1.13787 0.40996,1.72913c0,0 -0.00843,-0.01062 -0.02108,-0.02579c0.44885,2.41704 1.60353,8.57027 -0.65379,10.49779c-8.83864,7.5474 -24.71899,-4.78019 -8.76207,47.89368c4.40389,14.53896 -9.39723,19.57241 -17.50864,21.45473c-13.28277,3.08233 -21.3397,-0.5479 -21.3397,-0.5479c-6.04831,-1.74797 -12.31993,-5.18551 -18.42877,-8.33224z" fill="#ffffff"></path></g><g stroke="none" stroke-width="0.77185" stroke-linecap="butt" stroke-linejoin="miter"><path d="M266.64296,184.66567c-4.67161,-1.66158 -9.41105,-6.79129 -11.02242,-11.9319c-0.96828,-3.08954 -0.64344,-5.78661 0.91466,-7.59319c4.07829,-4.73173 13.12677,-8.70108 18.6808,-6.72646c0.39121,0.13908 0.76293,0.30794 1.10481,0.50278c3.96886,2.17067 5.77369,4.2163 7.36554,6.0221c0.94975,1.07742 1.84703,2.09495 3.15331,3.10753c1.49348,1.15856 2.8581,1.90556 4.06208,2.56494c2.36936,1.29658 4.41564,2.41646 4.03843,5.48888c-0.21803,1.79063 -1.21889,3.42361 -2.74596,4.4793c-1.30891,0.90507 -3.68119,1.84276 -7.54783,1.17271c-0.94218,-0.16317 -1.998,-0.45148 -3.1362,-0.85615c-3.87697,-1.37837 -8.41207,-4.01376 -11.65176,-6.34816c1.24195,4.97873 6.01931,7.95366 6.25219,8.096c0.13873,0.08443 0.26346,0.199 0.3557,0.32884c0.34566,0.48392 0.24656,1.12207 -0.2257,1.45962c-1.74428,1.24721 -4.3415,1.4904 -7.72087,0.72178c-0.61674,-0.09939 -1.24813,-0.26353 -1.87725,-0.4872c0.00201,-0.00087 0.00125,-0.00114 0.00049,-0.0014z" fill="#f7941e"></path><path d="M274.85453,159.4308c-4.77876,-1.69899 -13.37085,1.7264 -17.41679,6.41997c-3.99807,4.63504 2.52208,15.29297 9.5669,17.79759c0.56515,0.20093 1.13245,0.3492 1.69807,0.43804c3.14027,0.72021 5.40386,0.47989 6.82185,-0.53378c-0.0022,-0.00306 -7.15505,-4.26152 -7.10729,-11.49734c2.92003,2.47346 8.65278,6.11565 13.45556,7.82318c1.03267,0.36714 2.02259,0.645 2.93307,0.80302c6.2001,1.07443 8.67899,-2.16768 8.99434,-4.75505c0.43726,-3.56639 -3.09273,-3.50598 -7.66403,-7.05126c-3.69228,-2.86324 -4.26737,-5.69243 -10.37397,-9.03233c-0.2835,-0.16113 -0.58774,-0.29828 -0.90772,-0.41204M275.57746,157.39743c0.45161,0.16056 0.88335,0.3561 1.28311,0.58219c4.16354,2.27956 6.03991,4.40719 7.69496,6.28423c0.95167,1.07889 1.77321,2.01004 2.98946,2.95314c1.41726,1.09862 2.73653,1.82119 3.89957,2.45752c2.39334,1.30975 5.10597,2.79484 4.63935,6.59579c-0.25282,2.07985 -1.41378,3.9742 -3.18404,5.19774c-1.4835,1.02539 -4.14752,2.0923 -8.40942,1.35422c-1.01225,-0.17591 -2.1364,-0.48161 -3.34075,-0.90979c-2.83995,-1.00968 -5.95465,-2.62634 -8.7143,-4.33655c1.71327,2.57271 4.11218,4.06466 4.26817,4.16058c0.27812,0.16911 0.52154,0.39462 0.70718,0.6537c0.69102,0.96872 0.4936,2.24521 -0.45088,2.9202c-2.01333,1.43949 -4.91378,1.74509 -8.62231,0.9091c-0.67775,-0.11198 -1.36881,-0.29278 -2.05607,-0.53712c-5.07688,-1.80497 -10.02412,-7.13833 -11.7612,-12.6809c-1.07972,-3.44449 -0.68482,-6.48846 1.11139,-8.57072c4.39815,-5.10358 13.86296,-9.19591 19.94577,-7.03332z" fill="#000000"></path></g><path d="M262.41203,151.85949c0.76066,0.27043 1.31886,0.88492 1.60538,1.65937c0.28687,0.77379 0.30297,1.70791 -0.02039,2.61747c-0.32338,0.90956 -0.92554,1.62386 -1.6365,2.0429c-0.71111,0.41978 -1.53196,0.54407 -2.29262,0.27363c-0.76075,-0.27047 -1.31884,-0.885 -1.60545,-1.6595c-0.28677,-0.77376 -0.30288,-1.70787 0.02048,-2.61743c0.32338,-0.90956 0.92554,-1.62386 1.6364,-2.04294c0.7112,-0.41975 1.53193,-0.54397 2.29268,-0.27351z" fill="#000000" stroke="none" stroke-width="0.77185" stroke-linecap="butt" stroke-linejoin="miter"></path><path d="M233.50605,169.44197c19.21512,5.84815 49.46445,18.27842 59.59039,36.32499c7.87979,14.0427 -4.88639,11.32647 -21.91394,3.57233c-17.02753,-7.75416 -28.7019,-24.53592 -28.7019,-24.53592" fill="#8a8fc6" stroke="#000000" stroke-width="2.31554" stroke-linecap="round" stroke-linejoin="round"></path></g></g></svg>