<svg version="1.1" xmlns="http://www.w3.org/2000/svg" xmlns:xlink="http://www.w3.org/1999/xlink" width="66.07" height="84.29" viewBox="0,0,66.07,84.29"><g transform="translate(-207,-138)"><g data-paper-data="{&quot;isPaintingLayer&quot;:true}" fill-rule="nonzero" stroke="none" stroke-width="1" stroke-linecap="butt" stroke-linejoin="miter" stroke-miterlimit="10" stroke-dasharray="" stroke-dashoffset="0" style="mix-blend-mode: normal"><path d="M273.07,192.55c0,4.23 -0.78,8.06 -2.32,11.42c-0.49,1.3 -1.2,2.64 -2.17,4.15c-0.44,0.68 -0.96,1.31 -1.54,1.88c-8.09,7.93 -19.14,12.07 -32.85,12.29h-0.18c-2.76,0 -5.6,-0.66 -8.45,-1.97c-0.17,-0.07 -0.33,-0.15 -0.49,-0.24c-2.51,-1.3 -5.12,-3.25 -7.99,-5.95c-3.79,-3.52 -5.99,-6.63 -6.98,-9.93c-0.13,-0.31 -0.3,-0.71 -0.51,-1.18c-0.41,-0.95 -0.69,-1.95 -0.82,-2.98c-0.18,-0.41 -0.33,-0.83 -0.46,-1.27c-0.4,-1.4 -0.6,-2.9 -0.6,-4.46c0,-4.25 1.41,-8.6 4.21,-12.94c0.87,-1.36 1.79,-2.52 2.73,-3.5c-0.92,-0.7 -1.76,-1.52 -2.51,-2.46c-0.2,-0.24 -0.38,-0.5 -0.56,-0.76c-1.81,-2.72 -2.17,-5.65 -2.27,-7.62c-0.01,-0.08 -0.01,-0.17 -0.02,-0.25c-0.03,-0.38 -0.2,-1.83 -0.95,-6.5c-0.27,-0.66 -0.47,-1.34 -0.61,-2.05c-0.19,-1.01 -0.33,-1.71 -0.41,-2.08c-0.21,-0.85 -0.32,-1.74 -0.32,-2.65c0,-3.3 1.1,-6.32 3.18,-8.74c0.18,-0.22 0.37,-0.42 0.57,-0.62c3.05,-3.05 7.2,-4.67 12.33,-4.8c0.1,-0.01 0.19,-0.01 0.29,-0.01c1.18,0 4.24,-0.04 12.1,-0.26h0.3c0.35,0 2.12,-0.04 10.31,-0.57c0.86,-0.11 1.74,-0.22 2.64,-0.32c0.98,-0.12 1.88,-0.18 2.74,-0.18c2.71,0 5.03,0.59 7.08,1.79c2.46,1.46 4.36,3.58 5.53,6.14c2.22,4.83 1.51,10.21 -1.91,14.42c-0.48,0.59 -1.02,1.13 -1.61,1.61c-0.76,1.12 -1.68,2.4 -2.79,3.85c6.82,3.81 10.53,8.97 12.54,13.62c0.38,0.61 0.72,1.27 1.03,1.98c0.3,0.67 0.53,1.38 0.69,2.1c0.7,3.17 1.05,6.21 1.05,9.04zM208.13,158.35c-0.29,-0.59 -0.53,-1.21 -0.72,-1.86c0.18,0.65 0.42,1.27 0.7,1.86z" fill="#00cccc"></path><path d="M261.278,185.869c0.528,2.405 0.792,4.633 0.792,6.685c0,2.814 -0.499,5.22 -1.495,7.213c-0.176,0.587 -0.587,1.379 -1.231,2.375c-6.041,5.922 -14.484,8.972 -25.333,9.148c-1.174,0 -2.463,-0.323 -3.87,-0.968c-1.583,-0.822 -3.431,-2.229 -5.541,-4.223c-2.405,-2.228 -3.754,-4.016 -4.047,-5.365c-0.176,-0.469 -0.47,-1.173 -0.879,-2.111c0,-0.117 -0.206,-1.407 -0.616,-3.87c-0.118,0.176 -0.176,0.499 -0.176,0.968c-0.118,-0.41 -0.176,-0.88 -0.176,-1.407c0,-2.111 0.82,-4.442 2.463,-6.993c1.641,-2.551 3.431,-3.826 5.365,-3.826c0.938,0 1.848,0.353 2.727,1.06c0.234,0.177 0.353,0.56 0.353,1.147c0,0.236 -0.104,0.546 -0.308,0.928c-0.207,0.382 -0.339,0.691 -0.396,0.926c-0.821,0.707 -1.643,1.413 -2.463,2.12c-1.174,1.118 -1.818,2.06 -1.935,2.825c-0.118,0.471 -0.177,0.971 -0.177,1.501c0,2.944 1.32,5.843 3.959,8.697c2.639,2.854 5.423,4.281 8.356,4.281c0.527,0 1.084,-0.059 1.671,-0.176c0.996,-0.06 2.463,-0.178 4.397,-0.354c2.287,-0.529 4.632,-1.408 7.037,-2.643c2.932,-1.527 4.75,-3.157 5.453,-4.891c0.704,-1.731 1.056,-3.627 1.056,-5.683c0,-1.996 -0.352,-3.846 -1.056,-5.55c-0.176,-0.471 -0.439,-1.146 -0.791,-2.027c-2.347,-3.524 -4.956,-5.726 -7.828,-6.608c-0.704,-0.233 -2.171,-0.381 -4.398,-0.439c-2.229,-0.06 -3.842,-0.147 -4.838,-0.266c-1.935,-0.233 -3.489,-0.733 -4.662,-1.498c-0.352,-0.409 -0.527,-0.908 -0.527,-1.496c0,-1.41 0.585,-2.468 1.759,-3.173c0.938,-0.587 2.668,-2.937 5.19,-7.049c1.699,-2.408 4.162,-5.991 7.389,-10.749c-7.213,0 -14.368,0.439 -21.463,1.319c0,0.88 0.205,2.493 0.616,4.838c0.527,3.108 0.82,4.956 0.879,5.542c0.058,0.703 -0.234,1.422 -0.879,2.154c-0.646,0.734 -1.467,1.188 -2.463,1.363c-0.939,0.177 -1.76,-0.176 -2.463,-1.055c-0.235,-0.353 -0.383,-1.056 -0.44,-2.111c0,-0.88 -0.47,-4.163 -1.407,-9.852c-0.059,-0.117 -0.176,-0.264 -0.352,-0.44c-0.353,-1.816 -0.528,-2.696 -0.528,-2.639c0,-0.645 0.176,-1.172 0.528,-1.583c0.996,-0.996 2.608,-1.524 4.838,-1.583c1.816,0 5.951,-0.088 12.402,-0.265c1.231,0 5.014,-0.204 11.347,-0.615c0.938,-0.117 1.905,-0.233 2.902,-0.352c1.465,-0.176 2.448,-0.117 2.947,0.176c0.497,0.294 0.864,0.703 1.099,1.231c0.469,0.998 0.322,1.965 -0.439,2.902c-0.411,0.235 -0.91,0.675 -1.495,1.319c-0.763,1.231 -1.922,2.859 -3.475,4.882c-1.554,2.023 -2.683,3.622 -3.386,4.794c-0.939,1.643 -2.375,4.105 -4.311,7.389c10.496,1.583 17.034,5.894 19.615,12.931c0.234,0.237 0.47,0.618 0.704,1.146z" fill="#ffffff"></path></g></g></svg>