<svg version="1.1" xmlns="http://www.w3.org/2000/svg" xmlns:xlink="http://www.w3.org/1999/xlink" width="41.01571" height="42.19988" viewBox="0,0,41.01571,42.19988"><defs><radialGradient cx="240.2215" cy="179.54924" r="21.09994" gradientUnits="userSpaceOnUse" id="color-1"><stop offset="0" stop-color="#c5f21b"></stop><stop offset="1" stop-color="#f29d1b"></stop></radialGradient><radialGradient cx="240.37741" cy="179.80067" r="18.24242" gradientUnits="userSpaceOnUse" id="color-2"><stop offset="0" stop-color="#81fa0c"></stop><stop offset="1" stop-color="#fae00c"></stop></radialGradient></defs><g transform="translate(-219.71365,-158.4493)"><g data-paper-data="{&quot;isPaintingLayer&quot;:true}" fill-rule="evenodd" stroke="none" stroke-width="1" stroke-linecap="butt" stroke-linejoin="miter" stroke-miterlimit="10" stroke-dasharray="" stroke-dashoffset="0" style="mix-blend-mode: normal"><path d="M240.37742,200.64916c-2.33174,0 -4.98352,-1.50878 -7.08665,-2.28602c-2.2403,-0.77724 -4.16055,-0.59437 -5.98937,-2.05741c-1.69166,-1.37161 -1.50878,-3.15471 -2.6975,-5.02924c-0.82297,-1.28017 -3.06327,-2.28602 -3.84051,-3.93195c-1.09729,-2.28602 -0.64009,-5.25784 -0.64009,-7.54385c0,-1.55449 -0.64009,-4.52632 -0.32004,-5.98937c0.77724,-3.3833 4.25199,-4.43488 6.44657,-6.94948c1.78309,-2.01169 2.9261,-4.16055 5.34928,-5.30356c2.65177,-1.28017 4.89207,-3.10898 8.04678,-3.10898c1.69166,0 4.06911,2.28602 5.6236,2.6975c2.10313,0.50293 6.21797,-0.50293 7.22382,1.37161c3.3833,6.40084 4.4806,5.53216 6.08081,7.90962c2.14886,3.20043 1.41733,5.44072 1.41733,9.60128c0,2.14886 1.18872,4.20627 0.54864,6.12652c-0.77724,2.42318 -2.9261,4.43488 -4.4806,6.35513c-2.19457,2.74322 -6.26368,3.88623 -9.55555,5.21212c-2.19457,0.86869 -3.52047,2.9261 -6.12652,2.9261z" data-paper-data="{&quot;index&quot;:null}" fill="url(#color-1)"></path><path d="M258.61983,179.80067c0,10.07501 -8.16741,18.24242 -18.24242,18.24242c-10.07501,0 -18.24242,-8.16741 -18.24242,-18.24242c0,-10.07501 8.16741,-18.24242 18.24242,-18.24242c10.07501,0 18.24242,8.16741 18.24242,18.24242z" data-paper-data="{&quot;index&quot;:null}" fill="url(#color-2)"></path></g></g></svg>