<svg version="1.1" xmlns="http://www.w3.org/2000/svg" xmlns:xlink="http://www.w3.org/1999/xlink" width="48.63186" height="49.52312" viewBox="0,0,48.63186,49.52312"><defs><radialGradient cx="240.00001" cy="180" r="24.76156" gradientUnits="userSpaceOnUse" id="color-1"><stop offset="0" stop-color="#de9731"></stop><stop offset="1" stop-color="#de3131"></stop></radialGradient><radialGradient cx="240.05623" cy="179.7332" r="23.05956" gradientUnits="userSpaceOnUse" id="color-2"><stop offset="0" stop-color="#ebd81e"></stop><stop offset="1" stop-color="#eb5b1e"></stop></radialGradient><radialGradient cx="240.2215" cy="179.54925" r="21.09994" gradientUnits="userSpaceOnUse" id="color-3"><stop offset="0" stop-color="#c5f21b"></stop><stop offset="1" stop-color="#f29d1b"></stop></radialGradient><radialGradient cx="240.37741" cy="179.80068" r="18.24242" gradientUnits="userSpaceOnUse" id="color-4"><stop offset="0" stop-color="#81fa0c"></stop><stop offset="1" stop-color="#fae00c"></stop></radialGradient></defs><g transform="translate(-215.68408,-155.23845)"><g data-paper-data="{&quot;isPaintingLayer&quot;:true}" fill-rule="evenodd" stroke="none" stroke-width="1" stroke-linecap="butt" stroke-linejoin="miter" stroke-miterlimit="10" stroke-dasharray="" stroke-dashoffset="0" style="mix-blend-mode: normal"><path d="M216.60284,176.78314c0.27433,-0.41148 0.73152,-0.73152 1.05157,-1.143c0.73152,-0.96013 0.73152,-1.82881 0.32004,-2.9261c-0.91441,-2.37747 -0.32004,-5.12067 1.60021,-6.81233c0.91441,-0.82297 2.14886,-1.32589 3.33758,-1.46305c1.64593,-0.18288 1.55449,-0.18288 2.9261,-1.50878c1.143,-1.18872 1.37161,-3.20043 2.56033,-4.34343c0.73152,-0.73152 1.92026,-1.96598 4.80063,-1.46305c1.55449,0.32004 2.6975,0.77724 4.20627,1.09729c2.2403,0.4572 1.96598,0.2286 3.56618,-1.09729c2.14886,-1.73738 5.30356,-2.78894 7.54385,-0.82297c1.18872,1.05157 1.78309,2.33174 2.6975,3.56618c1.37161,1.87453 2.9261,1.73738 5.02924,1.87453c2.37747,0.13717 3.97767,2.2403 3.97767,4.70919c0.04573,1.60021 -0.18288,3.33758 0.73152,4.80063c0.6858,1.09729 1.37161,1.92026 2.14886,2.9261c2.01169,2.51462 1.18872,4.98352 -0.04573,7.58957c-0.91441,1.92026 1.32589,2.88038 0.82297,4.75491c-0.32004,1.18872 -3.79479,2.83467 -4.02339,5.94365c-0.09144,1.18872 0.27433,4.98352 -2.33174,4.70919c-0.77724,-0.09144 -1.82881,-0.13717 -2.51462,0.32004c-0.86869,0.59437 -0.86869,0.86869 -1.05157,1.82881c-0.54864,2.9261 -2.37747,4.43488 -5.395,3.52047c-1.143,-0.36576 -2.01169,-0.91441 -3.20043,-0.77724c-1.23444,0.13717 -1.82881,1.05157 -2.83467,1.64593c-1.09729,0.6858 -2.6975,1.28017 -4.02339,0.96013c-1.28017,-0.32004 -1.46305,-1.32589 -2.19457,-2.28602c-1.50878,-1.96598 -3.33758,-0.27433 -5.1664,-0.04573c-2.2403,0.27433 -4.11483,-1.00585 -4.57204,-2.9261c-0.18288,-0.73152 -0.41148,-1.23444 -0.91441,-1.78309c-0.6858,-0.73152 -1.00585,-0.77724 -1.92026,-0.82297c-1.09729,-0.04573 -2.60606,-0.54864 -3.3833,-1.32589c-2.19457,-2.28602 -0.18288,-5.30356 -0.4572,-8.04678c-0.18288,-2.05741 -1.87453,-2.60606 -3.01754,-4.02339c-0.73152,-0.86869 -1.143,-2.01169 -1.18872,-3.15471c-0.04573,-1.23444 0.27433,-2.4689 0.91441,-3.47474z" data-paper-data="{&quot;index&quot;:null}" fill="url(#color-1)"></path><path d="M218.79742,175.32009c-0.36576,-1.60021 -0.50293,-3.33758 0.50293,-4.75491c0.59437,-0.82297 1.41733,-0.77724 2.01169,-1.41733c1.50878,-1.64593 0.41148,-4.02339 1.78309,-6.12652c0.77724,-1.18872 3.24614,-1.37161 4.70919,-1.46305c0.13717,0 0.86869,-0.13717 0.96013,-0.73152c0.64009,-2.28602 3.29186,-2.65177 5.53216,-2.83467c1.69166,-0.13717 3.01754,-1.143 4.75491,-0.86869c0.77724,0.13717 1.55449,0.54864 2.33174,0.64009c1.18872,0.13717 1.60021,-0.41148 2.60606,-0.54864c1.50878,-0.13717 2.37747,1.00585 3.65763,1.50878c1.32589,0.50293 2.78894,0.32004 4.06911,1.00585c1.37161,0.73152 2.10313,2.14886 3.3833,2.97182c1.00585,0.64009 1.60021,1.41733 2.10313,2.51462c0.4572,0.91441 0.54864,1.60021 1.46305,2.19457c0.4572,0.32004 0.82297,0.41148 1.23444,0.82297c1.00585,1.00585 2.2403,1.46305 2.42318,4.11483c0.04573,0.77724 0.32004,1.32589 0.32004,2.10313c0,0.82297 0.09144,1.37161 0.32004,2.2403c0.4572,1.50878 -0.2286,2.97182 -0.54864,4.52632c-0.36576,1.96598 0.09144,3.52047 0,5.53216c-0.04573,1.41733 -0.50293,2.4689 -1.50878,3.47474c-0.64009,0.59437 -1.46305,0.96013 -1.96598,1.73738c-0.54864,0.86869 -0.6858,1.92026 -1.09729,2.83467c-0.50293,1.143 -1.18872,2.05741 -2.37747,2.60606c-0.09144,0.04573 -3.79479,1.32589 -6.62945,4.11483c-1.82881,1.82881 -4.11483,0.2286 -6.49228,0.13717c-2.65177,-0.09144 -4.84635,1.09729 -7.45242,0.09144c-1.18872,-0.4572 -2.28602,-1.23444 -3.47474,-1.60021c-1.143,-0.36576 -1.82881,0.04573 -3.01754,-0.2286c-2.2403,-0.54864 -3.24614,-4.57204 -4.89207,-6.53801c-1.64593,-1.92026 -3.84051,-2.14886 -4.43488,-4.80063c-0.32004,-1.28017 0.13717,-2.51462 -0.41148,-3.70335c-0.4572,-0.96013 -1.23444,-1.69166 -1.55449,-2.6975c-0.6858,-2.2403 2.10313,-5.30356 1.69166,-6.85805z" data-paper-data="{&quot;index&quot;:null}" fill="url(#color-2)"></path><path d="M240.37742,200.64917c-2.33174,0 -4.98352,-1.50878 -7.08665,-2.28602c-2.2403,-0.77724 -4.16055,-0.59437 -5.98937,-2.05741c-1.69166,-1.37161 -1.50878,-3.15471 -2.6975,-5.02924c-0.82297,-1.28017 -3.06327,-2.28602 -3.84051,-3.93195c-1.09729,-2.28602 -0.64009,-5.25784 -0.64009,-7.54385c0,-1.55449 -0.64009,-4.52632 -0.32004,-5.98937c0.77724,-3.3833 4.25199,-4.43488 6.44657,-6.94948c1.78309,-2.01169 2.9261,-4.16055 5.34928,-5.30356c2.65177,-1.28017 4.89207,-3.10898 8.04678,-3.10898c1.69166,0 4.06911,2.28602 5.6236,2.6975c2.10313,0.50293 6.21797,-0.50293 7.22382,1.37161c3.3833,6.40084 4.4806,5.53216 6.08081,7.90962c2.14886,3.20043 1.41733,5.44072 1.41733,9.60128c0,2.14886 1.18872,4.20627 0.54864,6.12652c-0.77724,2.42318 -2.9261,4.43488 -4.4806,6.35513c-2.19457,2.74322 -6.26368,3.88623 -9.55555,5.21212c-2.19457,0.86869 -3.52047,2.9261 -6.12652,2.9261z" data-paper-data="{&quot;index&quot;:null}" fill="url(#color-3)"></path><path d="M258.61983,179.80068c0,10.07501 -8.16741,18.24242 -18.24242,18.24242c-10.07501,0 -18.24242,-8.16741 -18.24242,-18.24242c0,-10.07501 8.16741,-18.24242 18.24242,-18.24242c10.07501,0 18.24242,8.16741 18.24242,18.24242z" data-paper-data="{&quot;index&quot;:null}" fill="url(#color-4)"></path></g></g></svg>