<svg version="1.1" xmlns="http://www.w3.org/2000/svg" xmlns:xlink="http://www.w3.org/1999/xlink" width="95.34115" height="123.4923" viewBox="0,0,95.34115,123.4923"><g transform="translate(-192.65434,-118.7156)"><g data-paper-data="{&quot;isPaintingLayer&quot;:true}" fill-rule="nonzero" stroke-miterlimit="10" stroke-dasharray="" stroke-dashoffset="0" style="mix-blend-mode: normal"><g data-paper-data="{&quot;index&quot;:null}" stroke="none" stroke-width="0.77185" stroke-linecap="butt" stroke-linejoin="miter"><path d="M225.20773,240.5778c-1.6,-0.9818 -1.5784,-2.5518 -1.1191,-4.0044c-1.8231,0.8892 -3.9997,1.6363 -5.9186,1.6363c-1.5344,0 -2.73,-0.4746 -3.5528,-1.4101c-1.6069,-1.8301 -1.5051,-3.5289 -1.1361,-4.6311c0.2037,-0.6121 0.538,-1.1786 0.9532,-1.6857c-3.0094,-0.3427 -4.2428,-1.8532 -4.3625,-3.1692c-0.1582,-1.7274 1.3785,-3.8839 6.0999,-4.8943c0.1907,-0.1343 0.423,-0.2122 0.6677,-0.2122c0.2284,0 0.5055,0.1042 0.6954,0.23c0.873,0.5804 4.0314,2.6204 8.0102,4.523c2.2569,1.0806 10.5219,2.5625 13.5158,3.0418c0.3883,0.0626 0.7186,0.318 0.8769,0.6785c0.1582,0.3604 0.1219,0.7765 -0.095,1.1045c-0.8189,1.2373 -5.4654,6.3006 -6.6471,7.1427c-0.0263,0.0177 -0.0533,0.0355 -0.0803,0.0517c-0.142,0.0849 -3.5103,2.0708 -6.0652,2.0708c-0.7371,0 -1.3638,-0.1636 -1.8424,-0.4723z" fill="#f7941e"></path><path d="M216.83943,223.3648c-0.0008,0 0.0363,0.0255 0.1127,0.0803c-7.5904,1.4001 -7.2893,5.9525 -1.1879,5.9525c0.8822,0 1.8848,-0.095 3.0033,-0.308c-2.3102,0.4793 -6.269,3.5436 -3.2804,6.9466c0.6399,0.7271 1.5916,1.0166 2.6829,1.0166c3.0048,0 7.0663,-2.1936 8.5807,-3.4826c-0.6121,1.5375 -3.0411,4.7306 -0.9378,6.0204c0.3311,0.213 0.7572,0.3025 1.238,0.3025c1.8223,0 4.4181,-1.2797 5.4739,-1.908c1.0413,-0.7417 5.606,-5.7093 6.3531,-6.8385c0,0 -10.9293,-1.7513 -13.833,-3.1414c-4.6982,-2.2477 -8.1978,-4.6404 -8.2055,-4.6404M218.17543,221.473c0.8568,0.5689 3.9581,2.5726 7.8675,4.442c1.8964,0.9085 9.1031,2.2885 13.2009,2.9446c0.7772,0.1243 1.4379,0.6345 1.7536,1.3561c0.3165,0.7209 0.2447,1.553 -0.1899,2.2083c-0.8011,1.2095 -5.5812,6.4781 -6.9404,7.446c-0.0517,0.037 -0.1058,0.0718 -0.1606,0.105c-0.3843,0.2284 -3.8376,2.2329 -6.6571,2.2329c-0.9517,0 -1.7822,-0.2207 -2.4692,-0.6568c-1.3492,-0.8352 -1.8563,-1.9513 -1.9188,-3.1059c-1.4927,0.5503 -3.0611,0.9223 -4.4929,0.9223c-2.3433,0 -3.6979,-0.981 -4.4219,-1.803c-1.5375,-1.7521 -2.0222,-3.7983 -1.3654,-5.7642c0.0587,-0.1759 0.1266,-0.3488 0.2014,-0.5179c-2.4621,-0.761 -3.5319,-2.4027 -3.6655,-3.8638c-0.2014,-2.1983 1.5082,-4.8943 6.8162,-6.0891c0.3327,-0.1791 0.7101,-0.2802 1.1061,-0.2802c0.7,0 1.1624,0.3072 1.336,0.4237z" fill="#000000"></path></g><g data-paper-data="{&quot;index&quot;:null}" stroke="none" stroke-width="0.77185" stroke-linecap="butt" stroke-linejoin="miter"><g><path d="M237.24623,231.7185c-0.1211,0.007 -0.3527,0.0185 -0.6877,0.0185c0,0 0,0 -0.0008,0c-2.2476,0 -10.3496,-0.5302 -20.2617,-7.341c-5.193,-3.569 -8.904,-7.3649 -11.0289,-11.2828c-3.268,-6.0266 -2.7902,-12.1875 1.421,-18.3113c24.608,-35.7821 19.3687,-39.8188 13.3035,-44.4931c-1.9412,-1.4959 -4.1425,-3.1916 -5.5812,-5.8738c-1.5344,-2.8589 0.5179,-7.5046 2.7941,-11.7467c0.0208,-0.0602 0.0463,-0.1204 0.0779,-0.1783c0.2856,-0.5326 0.619,-1.0852 1.0196,-1.6911l0.2023,-0.3049c0.027,-0.0386 0.0548,-0.0756 0.0856,-0.1142c0.3651,-0.5257 0.7016,-0.9749 1.0304,-1.3747c0.44,-0.5333 5.9024,-5.7634 11.6248,-7.6559c0.6106,-0.2007 4.7585,-1.1956 7.0022,-1.4557c0.2856,-0.0332 0.7611,-0.0402 1.1099,-0.0402c1.1833,0 29.0423,0.2046 33.7675,18.0165c0.8197,3.092 1.5021,5.8753 1.5383,8.6238c0.0911,6.9235 -2.6042,13.6748 -8.2356,20.6145c3.8253,5.22 5.5156,12.179 7.1535,18.9203c1.4171,5.8336 2.7563,11.3446 5.3173,15.4932c0.7541,1.1045 1.566,2.1126 2.3518,3.089c2.1187,2.632 4.31,5.3535 5.2848,9.9028c0.2169,1.0142 0.318,2.0222 0.3018,2.9978c-0.1173,6.8007 -5.7294,11.3709 -13.9666,11.3709c-0.4662,0 -0.9424,-0.0147 -1.4796,-0.0456l-0.1243,-0.0046c-0.5117,-0.0278 -1.0311,-0.0432 -1.5591,-0.0479l-0.707,0.0054c-0.3635,0.0039 -0.7271,0.0077 -1.096,0.0201c-0.2794,0.01 -0.5604,0.0224 -0.8467,0.0378c-0.3327,0.0162 -0.6677,0.0355 -1.0027,0.0579c-0.3102,0.0224 -0.6213,0.044 -0.9362,0.0702c-0.3088,0.0247 -0.6198,0.0541 -0.9332,0.0842c0,0 -0.7556,0.0718 -1.0319,0.1011l-0.7387,0.0849c-1.4279,0.1644 -2.9693,0.3674 -4.8511,0.6391c-0.7872,0.1134 -1.5768,0.2315 -2.3687,0.3481c-5.1243,0.7587 -10.4238,1.5444 -15.3575,1.5444c-0.8953,0 -1.766,-0.027 -2.5911,-0.0787z" fill="#8a8fc6"></path><path d="M239.35723,121.0311c-0.4816,0 -0.8174,0.0139 -0.9771,0.0324c-2.2145,0.257 -6.2651,1.2381 -6.773,1.4055c-5.4986,1.8177 -10.7896,6.9243 -11.093,7.2925c-0.3396,0.4137 -0.6614,0.8505 -0.9733,1.299c-0.027,0.0393 -0.0578,0.0741 -0.0849,0.1127c-0.064,0.0934 -0.1258,0.1891 -0.1883,0.284c-0.3388,0.5133 -0.6653,1.042 -0.9656,1.6008c0,0 0.0116,-0.0077 0.0286,-0.0185c-1.2326,2.2831 -4.3818,8.0882 -2.9006,10.8483c5.7996,10.8082 24.892,4.0522 -7.7879,51.5701c-9.0206,13.116 2.2977,23.1655 9.31,27.9841c9.6002,6.5962 17.3295,7.1373 19.6064,7.1373c0.4461,0 0.6839,-0.0209 0.6839,-0.0209c0.8521,0.0548 1.7173,0.0803 2.5949,0.0803c5.5975,0 11.6734,-1.0281 17.5603,-1.881c1.6487,-0.2385 3.2803,-0.4592 4.885,-0.6437c0.2493,-0.0286 0.5002,-0.0594 0.7487,-0.0857c0.3504,-0.0378 0.697,-0.0694 1.0443,-0.1026c0.318,-0.0309 0.6345,-0.0602 0.9494,-0.0857c0.3188,-0.0263 0.6344,-0.0486 0.9494,-0.071c0.3442,-0.0232 0.6861,-0.0432 1.0265,-0.0595c0.2895,-0.0154 0.5781,-0.0285 0.8637,-0.0385c0.3782,-0.0132 0.7518,-0.017 1.1238,-0.0209c0.2015,-0.0023 0.4052,-0.0062 0.6059,-0.0062c0.0417,0 0.0826,0.0008 0.1235,0.0008c0.5449,0.0046 1.0814,0.0209 1.6109,0.0494c0.0594,0.0039 0.1211,0.0031 0.1806,0.007c0.4639,0.0277 0.9169,0.0416 1.3607,0.0416c7.9624,0 12.7085,-4.3841 12.8088,-10.2331c0.0155,-0.8822 -0.0756,-1.7969 -0.2763,-2.7354c-1.2666,-5.9085 -4.6311,-8.4394 -7.4607,-12.5819c-5.9185,-9.5809 -5.5326,-25.7712 -12.9932,-35.0935c0,0 0,-0.0008 0.0007,-0.0008c4.8882,-5.8267 8.6602,-12.622 8.556,-20.572c-0.0348,-2.6498 -0.7101,-5.3651 -1.4997,-8.3422c-4.1047,-15.4724 -27.3327,-17.1527 -32.6484,-17.1527M274.24393,137.5918c0.8398,3.1677 1.5383,6.0243 1.5761,8.9048c0.0919,6.976 -2.5108,13.7543 -7.9461,20.6739c3.5999,5.3011 5.24,12.054 6.8316,18.6031c1.3901,5.7209 2.703,11.1262 5.1783,15.1583c0.7201,1.0497 1.5067,2.0268 2.2677,2.9724c2.2036,2.7377 4.4821,5.5681 5.5148,10.3859c0.2354,1.0999 0.3451,2.1967 0.3273,3.2603c-0.1281,7.4823 -6.2064,12.5093 -15.1236,12.5093c-0.4909,0 -0.9949,-0.0154 -1.4989,-0.0455c-0.0695,-0.0016 -0.1297,-0.0039 -0.1891,-0.0077c-0.47,-0.0255 -0.9764,-0.0409 -1.4835,-0.0456l-0.1042,-0.0007c-0.1219,0 -0.2454,0.0015 -0.3682,0.0038l-0.2161,0.0023c-0.3527,0.0039 -0.707,0.0077 -1.0667,0.0193c-0.2709,0.0101 -0.5464,0.0224 -0.8212,0.0371c-0.3334,0.0162 -0.6607,0.0347 -0.9903,0.0571c-0.301,0.0208 -0.6074,0.0432 -0.9154,0.0679c-0.3056,0.0255 -0.6105,0.0533 -0.9162,0.0834l-0.2138,0.02c-0.2686,0.0247 -0.5364,0.0502 -0.8066,0.0795c-0.1597,0.017 -0.3172,0.0363 -0.4754,0.0541l-0.257,0.0301c-1.4164,0.1628 -2.9477,0.3651 -4.8179,0.6344c-0.785,0.1135 -1.5746,0.2308 -2.3649,0.3481c-5.166,0.7649 -10.508,1.5568 -15.5273,1.5568c-0.8938,0 -1.766,-0.0254 -2.5942,-0.0764c-0.1512,0.0085 -0.382,0.0162 -0.6846,0.0162c-2.3317,0 -10.7302,-0.5441 -20.9186,-7.544c-5.3458,-3.674 -9.1788,-7.6058 -11.3909,-11.685c-3.444,-6.35 -2.9307,-13.0998 1.4851,-19.52c11.1856,-16.2635 17.0933,-27.3604 18.0604,-33.9226c0.7302,-4.9568 -1.3546,-6.5638 -4.5107,-8.9959c-2.0338,-1.5668 -4.3385,-3.3429 -5.8953,-6.2435c-1.7853,-3.3282 0.3604,-8.2989 2.7554,-12.7694c0.034,-0.0849 0.0726,-0.169 0.1166,-0.2508c0.3026,-0.5635 0.6538,-1.1462 1.0736,-1.7815l0.0494,-0.0756c0.0525,-0.0803 0.1065,-0.1613 0.1606,-0.2408c0.0417,-0.0602 0.0802,-0.1112 0.1181,-0.1606c0.3735,-0.5379 0.7216,-0.9995 1.0613,-1.4132c0.5379,-0.6538 6.1354,-6.0297 12.155,-8.0203c0.6561,-0.2161 4.8742,-1.2334 7.233,-1.5074c0.2747,-0.0316 0.6931,-0.0478 1.2457,-0.0478c1.2196,0 29.9361,0.2138 34.8867,18.8762z" fill="#000000"></path></g><path d="M237.24163,230.5584c0,0 -8.8075,0.7742 -20.2903,-7.1164c-7.0122,-4.8186 -18.3298,-14.8681 -9.31,-27.9841c32.68,-47.5179 13.5876,-40.7627 7.7879,-51.5701c-1.4812,-2.7601 1.668,-8.566 2.9006,-10.8483c-0.017,0.0108 -0.0285,0.0185 -0.0285,0.0185c0.3002,-0.5588 0.6267,-1.0875 0.9655,-1.6008c0.0626,-0.0949 0.1243,-0.1906 0.1884,-0.284c0.027,-0.0394 0.0579,-0.0741 0.0849,-0.1127c9.1494,-3.6262 23.1631,-2.3904 28.9396,11.3909c4.9437,11.7892 -18.6748,31.0876 -3.9133,38.5499c5.6878,2.8751 17.5503,11.6008 17.5503,20.6731c0,9.0723 -5.403,19.486 -4.8889,25.6608c0.044,0.5218 0.1027,0.9849 0.169,1.4233c-6.81,0.9856 -13.8708,2.2067 -20.1552,1.7999z" fill="#ffffff"></path></g><g data-paper-data="{&quot;index&quot;:null}" stroke="none" stroke-width="0.77185" stroke-linecap="butt" stroke-linejoin="miter"><path d="M217.75563,169.6667c-0.6677,0 -1.3176,-0.061 -1.932,-0.1822c-3.4416,-0.4376 -5.8073,-1.617 -7.033,-3.5049c-0.3319,-0.511 -0.2115,-1.1918 0.2763,-1.5568c0.1304,-0.0981 0.2863,-0.1691 0.4453,-0.2046c0.2671,-0.0602 5.765,-1.3507 8.603,-5.9378c-3.8345,1.1956 -8.9904,2.2299 -13.1051,2.2299c-1.208,0 -2.2994,-0.088 -3.2418,-0.2617c-3.8677,-0.7124 -5.7888,-2.5131 -6.7189,-3.8986c-1.0852,-1.6162 -1.4812,-3.6269 -1.0868,-5.5156c0.6738,-3.2418 2.977,-3.6385 5.6438,-4.0977c1.3553,-0.2339 2.8913,-0.4986 4.6866,-1.1331c1.57,-0.5542 2.7563,-1.2604 4.0121,-2.0083c2.1048,-1.2535 4.4906,-2.6729 8.9573,-3.4409c0.3874,-0.0741 0.7942,-0.1112 1.2094,-0.1112c5.8946,0 13.0906,7.2654 15.3482,13.5151c0.8629,2.3865 0.2655,5.23 -1.6818,8.0055c-3.2403,4.618 -9.4243,8.1006 -14.3826,8.1013c-0.0008,0 -0.0016,0 0,0.0016z" fill="#f7941e"></path><path d="M218.47183,141.201c-0.3396,0 -0.6722,0.0293 -0.9933,0.0903c-6.8726,1.1817 -8.3622,3.8353 -12.8003,5.4029c-5.4948,1.9412 -8.8006,0.6113 -9.5833,4.3741c-0.5696,2.7292 0.68,6.898 6.8818,8.0403c0.9108,0.1675 1.9366,0.2424 3.0326,0.2424c5.0973,0 11.7189,-1.6217 15.2988,-3.0728c-2.3789,7.3326 -10.545,9.0669 -10.5481,9.0692c0.9965,1.5345 3.0488,2.5911 6.2489,2.9917c0.5627,0.1135 1.1469,0.1675 1.7467,0.1675c7.4768,0 17.1905,-8.4316 14.9761,-14.5547c-2.2399,-6.1995 -9.1881,-12.7509 -14.2599,-12.7509M234.90913,153.1654c0.9949,2.7508 0.3473,5.9702 -1.8239,9.0645c-3.4934,4.9792 -9.9414,8.593 -15.3296,8.593c-0.7294,0 -1.4411,-0.0656 -2.1172,-0.196c-3.7743,-0.4878 -6.4048,-1.8393 -7.8196,-4.0183c-0.6638,-1.0219 -0.4222,-2.3834 0.5534,-3.1144c0.2617,-0.1952 0.5666,-0.3357 0.8853,-0.4067c0.1791,-0.0409 2.9392,-0.687 5.4153,-2.6722c-3.1731,0.7371 -6.6494,1.252 -9.6635,1.252c-1.2782,0 -2.4398,-0.095 -3.4525,-0.281c-4.2629,-0.7857 -6.4156,-2.8219 -7.4699,-4.3918c-1.2581,-1.8733 -1.7174,-4.2058 -1.2589,-6.3994c0.8336,-4.0105 3.887,-4.5369 6.5808,-5.0008c1.309,-0.2253 2.7941,-0.4816 4.4975,-1.0829c1.4619,-0.5163 2.5479,-1.1624 3.806,-1.9111c2.1882,-1.3028 4.6689,-2.7794 9.3555,-3.5875c0.4524,-0.0849 0.9247,-0.1274 1.404,-0.1274c6.4558,0 14.0029,7.5394 16.4373,14.28z" fill="#000000"></path></g><path d="M234.80033,139.1193c0.5294,0.6792 0.8575,1.6178 0.8575,2.6536c0,1.0358 -0.3281,1.9744 -0.8575,2.6536c-0.5295,0.68 -1.2612,1.1007 -2.0686,1.1007c-0.8073,0 -1.5391,-0.4207 -2.0685,-1.1007c-0.5295,-0.6792 -0.8576,-1.6178 -0.8576,-2.6536c0,-1.0358 0.3281,-1.9744 0.8576,-2.6536c0.5294,-0.68 1.2612,-1.1006 2.0685,-1.1006c0.8074,0 1.5391,0.4206 2.0686,1.1006z" data-paper-data="{&quot;index&quot;:null}" fill="#000000" stroke="none" stroke-width="0.77185" stroke-linecap="butt" stroke-linejoin="miter"></path><path d="M245.08092,181.6657c0,0 3.06993,14.92301 -4.00464,25.02986c-7.07459,10.10685 -14.51834,15.52488 -18.4664,3.55908c-5.07413,-15.37735 8.42292,-32.39443 18.41126,-41.77634" data-paper-data="{&quot;index&quot;:null}" fill="#8a8fc6" stroke="#000000" stroke-width="2.31554" stroke-linecap="round" stroke-linejoin="round"></path></g></g></svg>