<svg version="1.1" xmlns="http://www.w3.org/2000/svg" xmlns:xlink="http://www.w3.org/1999/xlink" width="132.47837" height="83" viewBox="0,0,132.47837,83"><defs><linearGradient x1="197.91479" y1="180" x2="280.91479" y2="180" gradientUnits="userSpaceOnUse" id="color-1"><stop offset="0" stop-color="#66ebff"></stop><stop offset="1" stop-color="#4c337f"></stop></linearGradient><linearGradient x1="199.07051" y1="180" x2="279.75907" y2="180" gradientUnits="userSpaceOnUse" id="color-2"><stop offset="0" stop-color="#000000"></stop><stop offset="1" stop-color="#404040"></stop></linearGradient><linearGradient x1="174.08426" y1="179.83756" x2="187.76217" y2="179.83756" gradientUnits="userSpaceOnUse" id="color-3"><stop offset="0" stop-color="#66ebff"></stop><stop offset="1" stop-color="#4c337f"></stop></linearGradient><linearGradient x1="174.08426" y1="179.83756" x2="187.76217" y2="179.83756" gradientUnits="userSpaceOnUse" id="color-4"><stop offset="0" stop-color="#66ebff"></stop><stop offset="1" stop-color="#4c337f"></stop></linearGradient><linearGradient x1="175.19637" y1="179.7979" x2="186.79453" y2="179.7979" gradientUnits="userSpaceOnUse" id="color-5"><stop offset="0" stop-color="#000000"></stop><stop offset="1" stop-color="#404040"></stop></linearGradient><linearGradient x1="175.19637" y1="179.7979" x2="186.79451" y2="179.7979" gradientUnits="userSpaceOnUse" id="color-6"><stop offset="0" stop-color="#000000"></stop><stop offset="1" stop-color="#404040"></stop></linearGradient><linearGradient x1="292.23783" y1="179.70834" x2="305.91574" y2="179.70834" gradientUnits="userSpaceOnUse" id="color-7"><stop offset="0" stop-color="#66ecff"></stop><stop offset="1" stop-color="#4c337f"></stop></linearGradient><linearGradient x1="292.23783" y1="179.70835" x2="305.91574" y2="179.70835" gradientUnits="userSpaceOnUse" id="color-8"><stop offset="0" stop-color="#66ecff"></stop><stop offset="1" stop-color="#4c337f"></stop></linearGradient><linearGradient x1="292.54485" y1="179.6476" x2="305.16283" y2="179.6476" gradientUnits="userSpaceOnUse" id="color-9"><stop offset="0" stop-color="#1e1432"></stop><stop offset="1" stop-color="#7f7f7f"></stop></linearGradient><linearGradient x1="292.54485" y1="179.6476" x2="305.16283" y2="179.6476" gradientUnits="userSpaceOnUse" id="color-10"><stop offset="0" stop-color="#1e1432"></stop><stop offset="1" stop-color="#7f7f7f"></stop></linearGradient></defs><g transform="translate(-173.76082,-138.5)"><g data-paper-data="{&quot;isPaintingLayer&quot;:true}" fill-rule="nonzero" stroke-linejoin="miter" stroke-miterlimit="10" stroke-dasharray="" stroke-dashoffset="0" style="mix-blend-mode: normal"><path d="M280.91479,180c0,22.882 -18.616,41.5 -41.5,41.5c-22.883,0 -41.5,-18.618 -41.5,-41.5c0,-22.883 18.616,-41.5 41.5,-41.5c22.884,0 41.5,18.618 41.5,41.5z" fill="url(#color-1)" stroke="none" stroke-width="1" stroke-linecap="butt"></path><path d="M279.75907,180c0,22.24477 -18.09757,40.34428 -40.34429,40.34428c-22.24574,0 -40.34428,-18.09951 -40.34428,-40.34428c0,-22.24574 18.09757,-40.34428 40.34428,-40.34428c22.24671,0 40.34429,18.09951 40.34429,40.34428z" fill="url(#color-2)" stroke="none" stroke-width="1" stroke-linecap="butt"></path><path d="M174.08426,179.75516l13.51312,-16.47941l0.16479,33.12362z" fill="url(#color-3)" stroke="url(#color-4)" stroke-width="0.5" stroke-linecap="round"></path><path d="M175.19637,179.7262l11.4584,-14.34069l0.13974,28.82478z" fill="url(#color-5)" stroke="url(#color-6)" stroke-width="0.5" stroke-linecap="round"></path><path d="M292.23783,196.27015l0.16479,-33.12361l13.51312,16.47941z" fill="url(#color-7)" stroke="url(#color-8)" stroke-width="0.5" stroke-linecap="round"></path><path d="M292.54485,194.50519l0.15203,-29.71519l12.46596,14.78367z" fill="url(#color-9)" stroke="url(#color-10)" stroke-width="0.5" stroke-linecap="round"></path></g></g></svg>