<svg version="1.1" xmlns="http://www.w3.org/2000/svg" xmlns:xlink="http://www.w3.org/1999/xlink" width="173.43146" height="141.5915" viewBox="0,0,173.43146,141.5915"><g transform="translate(-156.21283,-117.02372)"><g data-paper-data="{&quot;isPaintingLayer&quot;:true}" fill-rule="nonzero" stroke="none" stroke-width="1" stroke-linecap="butt" stroke-linejoin="miter" stroke-miterlimit="10" stroke-dasharray="" stroke-dashoffset="0" style="mix-blend-mode: normal"><g><path d="M305.77691,164.5739c0.90375,-5.194 5.84696,-8.67191 11.04095,-7.76816c5.194,0.90375 8.67191,5.84696 7.76816,11.04095c-0.90375,5.194 -5.84696,8.67191 -11.04095,7.76816c-5.194,-0.90375 -8.67191,-5.84696 -7.76816,-11.04095z" fill="#a3b339"></path><path d="M323.97485,162.82315c-0.44251,-0.54829 -0.91531,-1.36507 -1.6566,-2.15158c-0.37065,-0.39326 -0.74129,-0.7865 -1.26697,-1.10787c-0.52568,-0.32138 -1.16483,-0.68435 -1.73209,-0.89227c-0.68072,-0.24951 -1.24799,-0.45744 -1.97031,-0.59349c-0.7223,-0.13606 -1.44463,-0.27211 -2.09506,-0.25313c-0.38195,-0.0113 -0.76389,-0.0226 -1.14584,-0.0339l-0.96052,0.16272c-0.31008,0.14373 -0.69203,0.13244 -1.0021,0.27617c-0.31008,0.14373 -0.62016,0.28748 -0.93023,0.43121c-0.62016,0.28748 -1.12686,0.61653 -1.63356,0.9456c-0.50671,0.32907 -0.94154,0.81316 -1.33479,1.1838c-0.7865,0.74129 -1.45954,1.52416 -1.78092,2.04984c-0.36297,0.63914 -0.60118,0.93791 -0.60118,0.93791c0,0 0.0113,-0.38195 0.26081,-1.06267c0.24951,-0.68072 0.58219,-1.58835 1.22495,-2.63972c0.64276,-1.05137 1.70906,-2.20488 3.03254,-3.00674c0.31008,-0.14373 0.7336,-0.2459 1.08527,-0.50308c0.35167,-0.25719 0.77519,-0.35934 1.19873,-0.46149c0.42354,-0.10216 0.96052,-0.16272 1.38405,-0.26487c0.42354,-0.10216 0.80548,-0.09085 1.18743,-0.07955c0.91894,-0.04927 1.64124,0.08679 2.47701,0.26444c0.83576,0.17765 1.51648,0.42715 2.26909,0.83171c0.63914,0.36297 1.23669,0.83939 1.83425,1.3158c0.44251,0.54829 0.88504,1.09657 1.21408,1.60328c0.65812,1.01341 0.93429,2.0155 1.06672,2.70754c0.13244,0.69203 0.23459,1.11556 0.23459,1.11556c0,0 -0.25719,-0.35167 -0.35934,-0.77519z" fill="#687a27"></path></g><g data-paper-data="{&quot;index&quot;:null}"><path d="M278.95516,147.06851c-2.13065,-6.04778 -5.67187,-2.61515 -6.53139,-4.99295c-1.38249,-3.7632 2.9506,-2.97934 2.9506,-2.97934c-3.0867,-4.24196 -7.26471,-3.00074 -7.75634,-6.01826c-0.79435,-4.92932 6.81434,1.20227 6.81434,1.20227c-1.93682,-3.51643 -9.61314,-7.80929 -7.95761,-10.68804c1.50788,-2.76539 12.01932,7.92799 12.01932,7.92799c0,0 -4.66798,-11.96215 -2.32944,-10.0048c2.33853,1.95735 4.59045,10.94958 8.90951,18.35526" fill="#a3b339"></path><path d="M289.13417,211.26289c-7.97082,6.83242 -13.58576,-11.37131 -10.27469,-17.1288c3.31107,-5.75749 4.34217,-7.2636 5.79891,-14.09933c1.45674,-6.83576 -5.49699,-26.87077 -7.60372,-36.68917c-2.07045,-10.02492 3.54534,-12.9057 8.01949,-3.47493c3.83983,7.95217 13.86043,26.52669 15.12744,39.66974c1.267,13.14303 -3.24428,25.00333 -11.06744,31.72246z" fill="#a3b339"></path><path d="M278.47178,125.10476c0,0 0.44791,1.08566 2.0094,3.10337c1.04348,2.05797 2.45979,4.90184 4.17389,8.23182c0.40914,0.57935 0.85704,1.665 1.37754,2.33755c0.48422,0.8791 1.07978,1.85144 1.56399,2.73054c0.93211,1.96473 2.12323,3.90936 3.13041,6.17385c1.11854,2.35769 2.16201,4.41565 3.24426,6.97987c1.08224,2.56422 2.20078,4.92191 3.13537,7.59948c1.04595,2.77075 1.98052,5.44833 2.76746,8.23919c0.78694,2.79086 1.4262,5.6951 1.73388,9.03248c0.00248,0.71282 0.11632,1.51884 0.11879,2.23163c-0.03382,0.91936 -0.03135,1.63218 -0.02888,2.34497c-0.10642,1.33241 -0.21283,2.66484 -0.31924,3.99723c-0.32418,2.57162 -0.75973,5.05003 -1.34539,6.92896c-1.20763,3.96439 -2.56784,6.61648 -3.59895,8.12258c-0.55185,0.95956 -0.99481,1.29955 -1.32641,1.73274c-0.3316,0.43321 -0.47925,0.54653 -0.47925,0.54653c0,0 0.14766,-0.11333 0.3679,-0.63973c0.18394,-0.31984 0.58814,-1.16611 0.99234,-2.01236c0.84469,-1.89901 1.87084,-4.83073 2.78316,-8.56845c0.36295,-2.06534 0.72591,-4.13068 0.90244,-6.58897c0.07011,-1.1259 0.17652,-2.45831 0.13527,-3.6774c-0.00248,-0.71279 -0.04125,-1.21909 -0.04371,-1.93188c-0.03879,-0.50627 -0.15261,-1.31231 -0.15508,-2.0251c-0.3052,-2.62457 -0.98078,-5.32226 -1.69265,-7.8134c-0.82323,-2.58435 -1.64646,-5.16868 -2.61734,-7.6397c-0.82322,-2.58433 -1.94176,-4.94202 -2.91264,-7.41304c-1.08224,-2.5642 -2.08942,-4.82869 -3.09659,-7.09319c-1.04348,-2.05797 -2.05064,-4.32243 -2.98277,-6.2872c-0.4479,-1.08561 -0.93211,-1.96474 -1.41632,-2.84384c-0.59556,-0.9723 -1.04345,-2.05794 -1.41631,-2.84384c-1.64152,-3.74307 -2.87389,-6.90679 -3.7334,-9.28459c-0.85951,-2.3778 -1.27114,-3.66998 -1.27114,-3.66998z" fill="#687a27"></path><path d="M278.10802,148.25471c0,0 1.19361,2.65741 3.02153,6.79346c0.78447,2.07808 1.71906,4.75561 2.46969,7.75304c0.75064,2.99743 1.46499,6.20138 1.99537,9.72518c0.19137,1.81859 0.38274,3.63715 0.3151,5.47584c-0.03382,0.91935 -0.06765,1.83867 -0.24912,2.87134l-0.18147,1.03268l-0.32912,1.14601c-0.36542,1.35253 -0.84221,2.61186 -1.28269,3.66463c-0.44047,1.05279 -0.88098,2.10559 -1.39653,2.85864c-1.95083,3.10541 -3.46367,4.4452 -3.46367,4.4452c0,0 0.3679,-0.63974 0.80838,-1.69251c0.44048,-1.0528 1.10122,-2.63199 1.79824,-4.4177c0.32913,-1.14598 0.73333,-1.99225 1.06245,-3.13825c0.44047,-1.05279 0.76962,-2.19878 0.98738,-3.43797l0.14519,-0.82614l0.18148,-1.03268c0.0726,-0.41306 0.07012,-1.12589 0.06765,-1.83868c-0.00494,-1.42561 -0.12125,-2.94442 -0.34892,-4.55647c-0.49162,-3.01755 -1.09462,-6.12828 -1.73389,-9.03249c-0.63928,-2.90419 -1.31485,-5.60185 -1.91536,-7.9998c-1.20103,-4.79585 -1.95166,-7.79329 -1.95166,-7.79329z" fill="#687a27"></path><path d="M278.49409,131.52021c0,0 -0.8521,-0.23935 -1.70421,-0.47875c-1.18618,-0.51904 -2.67013,-1.52419 -4.11779,-2.73588c-0.66816,-0.55926 -1.44767,-1.21171 -2.11582,-1.77095c-0.33408,-0.27962 -0.66816,-0.55925 -1.00223,-0.83888c-0.33407,-0.27962 -0.66814,-0.55924 -0.89087,-0.74566c-0.37036,-0.0731 -0.59309,-0.2595 -0.8158,-0.44592c-0.25903,0.02011 -0.48173,-0.16629 -0.59309,-0.25951c-0.33408,-0.27964 -0.5931,-0.2595 -0.5931,-0.2595c0,0 0.14766,-0.11334 0.47925,-0.54653c0.18396,-0.31986 0.33162,-0.43319 0.59062,-0.4533c0.18395,-0.31986 0.55433,-0.24679 0.81333,-0.26691c0.66569,-0.15357 1.40642,-0.00737 2.11088,0.34533c0.70444,0.35271 1.52025,0.79862 2.29975,1.45108c1.48396,1.00517 2.97039,2.72315 3.9751,4.27482c1.0047,1.55169 1.56397,2.73051 1.56397,2.73051z" fill="#687a27"></path><path d="M267.47037,133.19129c0.14765,-0.1133 -0.07506,-0.29972 0.22024,-0.52637c-0.07506,-0.29976 -0.00247,-0.71281 0.07012,-1.12588c0.0726,-0.41306 0.25654,-0.73294 0.44048,-1.05278c0.14767,-0.11332 0.33162,-0.43318 0.59062,-0.4533c0.25901,-0.02012 0.51802,-0.04022 0.77703,-0.06034c0.40667,-0.13346 0.99976,0.12605 1.48149,0.29233c0.48173,0.16628 0.92717,0.53914 1.3726,0.91196c0.40915,0.57937 0.85459,0.9522 1.15236,1.43836c0.59555,0.97233 0.96841,1.75822 0.96841,1.75822c0,0 -0.55432,0.24678 -1.29507,0.10059c-0.37038,-0.07309 -0.74075,-0.1462 -1.22248,-0.31248c-0.22271,-0.18642 -0.48172,-0.16628 -0.70444,-0.35271c-0.22272,-0.1864 -0.48172,-0.16628 -0.70444,-0.35271c-0.48174,-0.1663 -0.96347,-0.33262 -1.29755,-0.61223c-0.25903,0.02011 -0.48173,-0.16629 -0.59309,-0.2595c-0.25902,0.02012 -0.37038,-0.07308 -0.48174,-0.1663c-0.11136,-0.09321 -0.259,0.02014 -0.37036,-0.07308c-0.14766,0.11334 -0.25902,0.02011 -0.29531,0.22664c-0.07259,0.41308 -0.10888,0.61961 -0.10888,0.61961z" fill="#687a27"></path><path d="M272.27612,142.18889c0,0 -0.11136,-0.09321 -0.25901,0.02011c-0.22272,-0.1864 -0.44545,-0.37282 -0.55928,-1.17883c-0.07506,-0.29976 -0.11381,-0.80603 -0.04124,-1.21909c0.07259,-0.41307 0.14517,-0.82617 0.32912,-1.14601c0.14765,-0.11334 0.3316,-0.4332 0.47925,-0.54652c0.25903,-0.02011 0.40668,-0.13344 0.55431,-0.24676c0.70198,-0.36012 1.37013,0.19916 1.81557,0.57198c0.44544,0.37282 0.70693,1.06549 0.70693,1.06549c0,0 -0.22026,0.52641 -0.66321,0.86639c-0.44296,0.33998 -0.88593,0.67996 -1.2926,0.8134l-0.25901,0.02012c-0.14765,0.11332 -0.14765,0.11334 -0.25901,0.02012l-0.11135,-0.0932c0.03629,-0.20653 -0.11135,-0.0932 -0.11135,-0.0932c-0.14765,0.11334 -0.22026,0.52638 -0.25654,0.73291c-0.03629,0.20653 -0.07259,0.41306 -0.07259,0.41306z" fill="#687a27"></path></g><g><path d="M278.45942,166.21661c-0.71549,-6.82579 6.45401,-44.99468 6.45401,-44.99468c14.7616,16.60731 25.81804,40.8653 25.81804,40.8653c-18.96172,-5.14848 -32.27206,4.12938 -32.27206,4.12938z" fill="#6d4b9b"></path><path d="M278.73473,159.49659c0.0981,-2.02319 0.32094,-4.38674 0.58539,-6.86374c0.26444,-2.47701 0.61204,-5.18092 0.95965,-7.88482c0.34761,-2.70391 0.69521,-5.40783 1.22815,-7.91511c0.41947,-2.54887 0.86923,-4.82925 1.34928,-6.84114c0.9185,-3.91033 1.76152,-6.56134 1.76152,-6.56134c0,0 -0.13606,0.7223 -0.16996,1.86815c-0.14736,1.10426 -0.27574,2.85895 -0.48729,4.84055c-0.25313,2.09506 -0.58944,4.41703 -0.85388,6.89403c-0.18895,1.21772 -0.26444,2.47701 -0.49497,3.80816c-0.23053,1.33117 -0.34761,2.70391 -0.57814,4.03507c-0.23053,1.33117 -0.34761,2.70391 -0.57814,4.03507c-0.23053,1.33117 -0.46105,2.66232 -0.65001,3.88004c-0.26444,2.47701 -0.7142,4.75739 -1.08078,6.81085c-0.6916,3.99349 -1.26611,6.61423 -1.26611,6.61423c0,0 -0.03434,-2.71521 0.2753,-6.72001z" fill="#4a3369"></path><path d="M298.04638,148.94365c-0.69565,1.54676 -5.19541,5.04528 -5.19541,5.04528c-0.86242,-1.86048 0.41905,-6.40993 0.41905,-6.40993c-2.34457,0.42759 -7.73384,-3.47824 -7.73384,-3.47824c2.14027,-1.27466 8.00553,-1.82743 8.00553,-1.82743c-0.64682,-1.39535 1.34928,-6.84114 1.34928,-6.84114c1.14221,1.44824 4.0016,5.58503 4.0016,5.58503c0.15505,-0.07187 0.19662,-0.18532 0.35167,-0.25719c1.05905,1.67515 2.00464,3.30872 2.87837,4.78724c-0.23821,0.29878 -0.39326,0.37065 -0.39326,0.37065c1.21408,1.60328 2.57596,5.96335 2.57596,5.96335c-4.12593,-1.38362 -6.25894,-2.93763 -6.25894,-2.93763z" fill="#e0c448"></path><path d="M306.79406,155.62484c-1.20278,-1.98523 -2.5493,-4.28053 -3.96769,-6.73088c-1.45998,-2.33689 -2.95023,-4.94227 -4.55394,-7.58924c-0.84345,-1.21003 -1.53185,-2.49192 -2.33369,-3.81541c-0.72999,-1.16844 -1.53185,-2.49192 -2.26184,-3.66037c-1.45998,-2.33689 -2.96154,-4.56034 -4.20591,-6.4321c-0.65812,-1.01341 -1.24437,-1.87178 -1.75875,-2.57509c-0.62783,-0.74492 -1.02877,-1.40665 -1.47128,-1.95494c-0.88504,-1.09657 -1.32754,-1.64486 -1.32754,-1.64486c0,0 0.59755,0.47643 1.6792,1.38768c0.48409,0.43484 1.04007,1.02471 1.70949,1.65617c0.66941,0.63146 1.41071,1.41795 2.11042,2.31791c0.6997,0.89995 1.51286,1.84149 2.28444,2.89648c0.77158,1.05498 1.54315,2.10999 2.38659,3.32002c1.57344,2.37848 3.21873,4.91198 4.82244,7.55895c0.80186,1.32348 1.49026,2.60538 2.29211,3.92887c0.6884,1.2819 1.3768,2.5638 2.06521,3.8457c1.41839,2.45035 2.56829,4.93097 3.50257,6.94648c1.94046,4.18607 2.96559,7.00705 2.96559,7.00705c0,0 -1.6453,-2.53351 -3.93741,-6.46238z" fill="#4a3369"></path></g><path d="M265.4822,178.44787c-3.11657,-4.48846 1.16715,-12.31315 1.16715,-12.31315c19.01823,3.23875 36.89045,38.74634 36.89045,38.74634c0,0 -8.61396,5.59401 -8.79927,5.39739c0,0 -12.65135,18.01337 -17.01505,20.78958c0,0 -26.9807,-22.24436 -32.69628,-35.79334z" fill="#4a3369"></path><g><g fill="#a3b339"><path d="M175.6695,225.14485c-6.13699,4.49138 -15.12343,-0.09272 -9.6004,-7.1135c5.54016,-7.14041 19.11233,-14.96047 22.78231,-6.49982c3.51649,7.82829 -7.02776,9.00236 -13.18191,13.61333z"></path><path d="M175.68665,225.02523c-3.24751,1.36553 -7.07674,4.23459 -5.81327,6.4909c1.26347,2.25631 2.98662,8.11855 0.61151,7.65601c-2.35796,-0.58215 -3.73776,-9.69107 -3.73776,-9.69107c0,0 0.30247,10.66347 -2.07262,10.20093c-2.35796,-0.58215 -0.35308,-12.0135 -0.35308,-12.0135c0,0 -2.636,9.02156 -3.95091,7.12407c-1.31491,-1.89747 3.28549,-9.29465 2.15837,-10.79901c-1.12714,-1.50434 -5.93207,4.76488 -6.3064,1.41534c-0.37434,-3.34957 10.24138,-10.98308 12.48014,-11.27252"></path></g><path d="M215.91607,219.43948c-3.48961,7.31227 -18.32279,7.74945 -33.37351,-1.36605c-12.35149,-7.50787 -5.29108,-13.33169 7.3364,-11.15537c12.76423,2.07386 28.8425,6.57592 26.03711,12.52142z" fill="#a3b339"></path><path d="M232.00131,209.41618c-7.31967,11.89019 -29.33532,23.26066 -34.38759,10.81768c-4.91591,-11.69102 13.827,-40.25424 21.92758,-41.41237c8.10058,-1.15813 23.79876,11.95643 12.46001,30.59471z" fill="#a3b339"></path><path d="M235.40395,205.26527c-0.01715,0.11962 -0.03429,0.23923 -0.1882,0.4613c-0.17105,0.3417 -0.49601,0.90546 -0.95772,1.5717c-0.92343,1.33248 -2.41104,3.19443 -4.29177,5.24415c-1.88074,2.04974 -4.29137,4.38972 -7.04369,6.55865c-1.36759,1.02467 -2.87193,2.15179 -4.47875,3.14215c-1.60682,0.99037 -3.21363,1.98075 -5.02536,2.6976c-1.69213,0.734 -3.58921,1.19448 -5.57158,1.39859c-0.97404,-0.01755 -1.94809,-0.03512 -2.905,-0.17228c-0.83729,-0.12002 -1.79419,-0.25719 -2.63148,-0.37721c-3.45161,-0.61685 -6.64686,-1.31902 -9.32935,-2.19183c-1.28145,-0.42784 -2.54574,-0.97527 -3.58797,-1.36883c-1.02507,-0.51316 -1.94768,-0.88955 -2.61391,-1.35126c-1.46923,-0.82095 -2.10118,-1.52191 -2.10118,-1.52191c0,0 0.22208,0.1539 0.56376,0.32496c0.3417,0.17105 1.04222,0.39354 1.7256,0.73565c0.82014,0.23963 1.74275,0.61603 2.80212,0.88996c1.05937,0.27394 2.35796,0.58215 3.65655,0.89037c1.4182,0.32537 2.83641,0.65073 4.39135,0.87364c1.55495,0.22289 3.22955,0.46295 4.90411,0.70299c0.83729,0.12002 1.79419,0.25719 2.63148,0.37721c0.9569,0.13717 1.67457,0.24004 2.54615,0.12084c1.72601,-0.1188 3.38386,-0.61357 5.05883,-1.22796c1.67499,-0.61438 3.26466,-1.48515 4.8543,-2.3559c1.58967,-0.87076 3.07686,-1.87829 4.44445,-2.90293c2.85479,-2.03219 5.35073,-4.11579 7.33393,-6.02877c1.98321,-1.91299 3.69289,-3.62103 4.71879,-4.81674c0.56419,-0.52947 0.88913,-1.09326 1.1798,-1.41779c0.03429,-0.23923 0.17105,-0.3417 0.20534,-0.58091c0,0 0,0 -0.29067,0.32455z" fill="#687a27"></path><path d="M191.55353,207.15812c-1.93095,-0.15472 -4.10111,-0.34374 -6.42519,-0.31069c-2.32409,0.03306 -4.81919,0.40782 -6.92159,1.44921c-0.51275,0.17064 -0.92302,0.47804 -1.47005,0.8879c-0.54704,0.40987 -0.95731,0.71726 -1.50434,1.12714c-0.97446,0.83687 -2.03423,1.41738 -2.99154,2.13464c-1.91461,1.43453 -3.89741,2.49307 -5.50422,3.48344c-1.58967,0.87076 -3.04257,1.63905 -4.0852,2.09993c-0.5299,0.29025 -0.92302,0.47804 -1.17938,0.56335c-0.11962,-0.01715 -0.25638,0.08533 -0.37599,0.06818c-0.10247,-0.13677 0.01715,-0.11962 0.01715,-0.11962l-0.01715,0.11962c0,0 0.13677,-0.10247 0.27352,-0.20493c0.1539,-0.22208 0.56419,-0.52947 0.97446,-0.83687c0.82055,-0.6148 2.06852,-1.65661 3.57288,-2.78375c1.62396,-1.10999 3.40183,-2.44205 5.29929,-3.75695c0.95731,-0.71726 1.91461,-1.43453 2.99154,-2.13464c0.42743,-0.42702 0.95731,-0.71726 1.50434,-1.12714c0.5299,-0.29025 1.07693,-0.70011 1.72642,-0.97323c2.4784,-1.10958 5.19559,-1.33041 7.62213,-1.22672c2.54615,0.12084 4.68202,0.54908 6.57868,0.94304c1.89665,0.39395 3.41731,0.85607 4.45953,1.24961c1.04222,0.39354 1.62313,0.59889 1.62313,0.59889c0,0 -2.47756,-0.59929 -6.1684,-1.25045z" fill="#687a27"></path><path d="M162.47744,224.35243c0.20493,0.27352 0.25596,0.76911 0.17024,1.36718c0.03388,0.6152 -0.05185,1.21328 -0.27433,1.9138c-0.22249,0.70053 -0.42784,1.28145 -0.65033,1.98198c-0.42784,1.28145 -0.97527,2.54574 -1.35167,3.46836c-0.1882,0.4613 -0.25678,0.93976 -0.29107,1.17899c-0.01715,0.11962 0.08533,0.25638 0.06818,0.37599c0.10247,0.13677 0.10247,0.13677 0.10247,0.13677c0,0 -0.23923,-0.03429 -0.44416,-0.30782c-0.20493,-0.27352 -0.37558,-0.78625 -0.40945,-1.40147c-0.06776,-1.23043 0.13798,-2.66576 0.70259,-4.04968c0.34211,-0.68338 0.5646,-1.38391 0.88955,-1.94768c0.32496,-0.56376 0.64991,-1.12754 0.8381,-1.58885c0.1882,-0.4613 0.37639,-0.92261 0.5303,-1.14469c0.1539,-0.22208 0.1882,-0.4613 0.1882,-0.4613c0,0 0.08533,0.25638 -0.06859,0.47846z" fill="#687a27"></path><path d="M164.30346,229.49699c0.06776,1.23043 -0.03552,2.80253 -0.12166,4.25502c0.01673,0.73481 -0.08614,1.45251 -0.06941,2.18732c-0.05144,0.35885 -0.10288,0.71767 -0.01755,0.97404c-0.03429,0.23923 -0.08572,0.59806 -0.00042,0.85443c0.08533,0.25638 0.05103,0.4956 0.13635,0.75196c0.08533,0.25638 0.05103,0.4956 0.1535,0.63235c0.08533,0.25638 0.17064,0.51275 0.17064,0.51275c0,0 -0.10247,-0.13677 -0.44416,-0.30782c-0.11962,-0.01715 -0.20493,-0.27352 -0.42702,-0.42743c-0.20493,-0.27352 -0.40987,-0.54704 -0.49519,-0.80341c-0.40987,-0.54704 -0.54621,-1.299 -0.68256,-2.05097c-0.13635,-0.75196 -0.15309,-1.4868 -0.15267,-2.34122c0.10288,-0.71767 0.22289,-1.55495 0.32577,-2.27265c0.22249,-0.70053 0.44499,-1.40106 0.65033,-1.98198c0.41068,-1.16184 0.8724,-1.82807 0.8724,-1.82807c0,0 0.13635,0.75196 0.10164,1.84562z" fill="#687a27"></path><path d="M169.75009,239.18888c-0.3417,-0.17105 -0.78584,-0.47886 -1.09326,-0.88913c-0.42702,-0.42743 -0.71726,-0.95731 -1.00752,-1.4872c-0.27311,-0.64951 -0.54621,-1.299 -0.69971,-1.93136c-0.40945,-1.40147 -0.46006,-2.7515 -0.44252,-3.72554c0.01755,-0.97404 0.24004,-1.67457 0.24004,-1.67457c0,0 0.51233,0.68379 0.87076,1.58967c0.47804,0.92302 0.92179,2.08526 1.22877,3.34997c0.4266,1.28185 0.61398,2.52943 0.85279,3.41814c0.06818,0.37599 0.25596,0.76911 0.34129,1.02548c0.20493,0.27352 0.3074,0.41028 0.3074,0.41028c0,0 -0.25638,0.08533 -0.59806,-0.08572z" fill="#687a27"></path><path d="M183.01936,221.55975c-0.80341,0.49519 -1.62396,1.10999 -2.56413,1.70763c-0.94016,0.59765 -1.99994,1.17816 -2.9401,1.77582c-2.11956,1.16102 -4.11949,2.33915 -5.58955,3.22706c-0.68379,0.51233 -1.35044,0.90505 -1.64111,1.2296c-0.13677,0.10247 -0.17105,0.3417 -0.1882,0.4613c-0.01715,0.11962 -0.03429,0.23923 -0.03429,0.23923c0,0 0,0 -0.10247,-0.13677c-0.10247,-0.13677 -0.06818,-0.37599 -0.03388,-0.6152c0.20534,-0.58091 0.66706,-1.24715 1.24839,-1.89625c0.70093,-0.63195 1.40188,-1.2639 2.35919,-1.98116c0.41028,-0.3074 0.8377,-0.73442 1.36759,-1.02467c0.41028,-0.3074 0.94016,-0.59765 1.47005,-0.8879c0.94016,-0.59765 1.99994,-1.17816 3.04257,-1.63905c1.04263,-0.4609 1.96566,-0.93895 2.85437,-1.17775c1.55538,-0.63153 2.80294,-0.81891 2.80294,-0.81891c0,0 -0.97446,0.83687 -2.05138,1.53699z" fill="#687a27"></path></g><g><path d="M304.32991,202.72544c-8.66726,2.22836 -8.19086,1.6308 -30.39812,22.19028c-22.20727,20.55947 -71.17732,6.34221 -74.50674,-7.74781c-3.44288,-14.13161 12.14248,-36.98958 25.30227,-39.88779c13.15978,-2.89821 42.74372,-1.44937 52.25356,-10.1898c9.31322,-8.55512 21.19154,-6.90386 34.79064,-3.97839c13.59911,2.92547 18.62265,16.60688 17.7837,21.70462c-0.73319,4.10694 -6.96054,13.02097 -25.22532,17.90889z" fill="#a3b339"></path><path d="M325.77605,173.00691c-0.44251,-0.54829 -0.9569,-1.25162 -1.73977,-1.92467c-0.78287,-0.67305 -1.52416,-1.45954 -2.53395,-2.21576c-1.00978,-0.75622 -2.01957,-1.51243 -3.35841,-2.77535c-1.16483,-0.68435 -2.59813,-1.33841 -3.95958,-1.83744c-1.36145,-0.49903 -2.87793,-0.92618 -4.43601,-1.23988c-1.67152,-0.35528 -3.15772,-0.51395 -4.87083,-0.75578c-1.59965,-0.20025 -3.31277,-0.44209 -4.91242,-0.64233c-1.59965,-0.20025 -3.19931,-0.4005 -4.68551,-0.55915c-1.59965,-0.20025 -3.01399,-0.20387 -4.42833,-0.2075c-1.41434,-0.00362 -2.64335,0.18937 -3.87235,0.38237c-1.11556,0.23459 -2.2727,0.58263 -3.16135,0.90039c-0.46512,0.21561 -0.81677,0.4728 -1.24032,0.57494c-0.42354,0.10216 -0.77519,0.35934 -1.08527,0.50308c-0.66175,0.40092 -1.16844,0.72999 -1.47853,0.87372c-0.35167,0.25719 -0.50671,0.32907 -0.50671,0.32907c0,0 0.04159,-0.11346 0.39326,-0.37065c0.35167,-0.25719 0.63146,-0.66941 1.2932,-1.07036c0.31008,-0.14373 0.66175,-0.40092 1.01341,-0.65812c0.46512,-0.21561 0.81677,-0.4728 1.2819,-0.6884c0.46512,-0.21561 1.08527,-0.50308 1.5504,-0.71869c0.62016,-0.28748 1.19873,-0.46149 1.77731,-0.63551c1.27059,-0.30645 2.65466,-0.57133 4.11056,-0.68115c1.45592,-0.10982 2.9837,-0.06463 4.62495,0.02217c3.12745,0.24546 6.44022,0.68755 9.75297,1.12961c1.55807,0.31369 3.31277,0.44209 4.94271,0.91082c1.67152,0.35528 3.25988,0.93748 4.6932,1.59155c1.43331,0.65406 2.82504,1.42159 4.06174,2.26096c1.23669,0.83939 2.20488,1.70906 3.17309,2.57873c0.85475,0.82809 1.70949,1.65617 2.29574,2.51453c0.58625,0.85836 1.10062,1.5617 1.50156,2.22343c0.40092,0.66175 0.72999,1.16844 0.87372,1.47853c0.25719,0.35167 0.32907,0.50671 0.32907,0.50671c0,0 -0.51438,-0.70334 -1.3994,-1.79991z" fill="#687a27"></path><path d="M321.61072,191.04202c-3.57358,0.62059 -8.26273,1.47577 -12.95185,2.33093c-1.11556,0.23459 -2.34457,0.42759 -3.46013,0.66217c-1.22901,0.193 -2.2727,0.58263 -3.46013,0.66217c-2.18953,0.35572 -4.40934,0.44294 -6.20562,0.42801c-1.86815,-0.16996 -3.31277,-0.44209 -4.37544,-0.7029c-1.06267,-0.26081 -1.58835,-0.58219 -1.58835,-0.58219c0,0 0.56727,0.20792 1.55807,0.31369c0.9908,0.10577 2.51859,0.15099 4.24301,0.01086c0.91894,-0.04927 1.87945,-0.21199 2.83997,-0.37471c1.03239,-0.00769 2.03449,-0.28385 3.15005,-0.51843c1.11556,-0.23459 2.2727,-0.58263 3.38826,-0.81721c1.11556,-0.23459 2.38616,-0.54104 3.50172,-0.77563c1.22901,-0.193 2.34457,-0.42759 3.57358,-0.62059c1.11556,-0.23459 2.34457,-0.42759 3.41854,-0.54872c2.14794,-0.24226 4.25431,-0.37107 6.09216,-0.4696c3.67574,-0.19706 6.03928,0.0258 6.03928,0.0258c0,0 -2.38616,0.54104 -5.76312,0.97631z" fill="#687a27"></path><path d="M317.28324,179.67489c-0.14373,-0.31008 -0.37065,-0.39326 -0.44251,-0.54829c-0.18532,-0.19662 -0.29878,-0.23821 -0.48409,-0.43484c-0.18532,-0.19662 -0.37065,-0.39326 -0.59755,-0.47643c-0.07187,-0.15505 -0.18532,-0.19662 -0.29878,-0.23821c0,0 -0.11346,-0.04159 -0.22691,-0.08317c-0.11346,-0.04159 -0.22691,-0.08317 -0.22691,-0.08317c-0.11346,-0.04159 -0.11346,-0.04159 -0.11346,-0.04159c-0.11346,-0.04159 -0.19662,0.18532 -0.23821,0.29878c-0.04159,0.11346 -0.08317,0.22691 -0.08317,0.22691c0,0 -0.11346,-0.04159 -0.18532,-0.19662c-0.07187,-0.15505 -0.18532,-0.19662 -0.14373,-0.31008c0.04159,-0.11346 -0.03029,-0.2685 0.05289,-0.4954c0.08317,-0.22691 0.2798,-0.41223 0.43484,-0.48409c0.2685,-0.03029 0.42354,-0.10216 0.65044,-0.01899c0.38195,0.0113 0.7223,0.13606 1.02108,0.37427c0.29878,0.23821 0.59755,0.47643 0.74129,0.7865c0.14373,0.31008 0.28748,0.62016 0.31776,0.88865c0.03029,0.2685 -0.05289,0.4954 -0.09447,0.60885c-0.04159,0.11346 -0.08317,0.22691 -0.08317,0.22691z" fill="#687a27"></path><path d="M321.36162,195.5838c-0.66175,0.40092 -1.67515,1.05905 -2.95705,1.74745c-1.2819,0.6884 -2.87388,1.52055 -4.73435,2.38296c-1.86048,0.86242 -3.91756,1.91017 -6.38689,2.67811c-2.46932,0.76794 -5.12398,1.33928 -7.71805,2.44759c-1.24032,0.57494 -2.48062,1.1499 -3.80411,1.95176c-1.21003,0.84345 -2.42006,1.68689 -3.67168,2.64377c-2.38977,1.95537 -4.74927,4.17924 -7.03691,6.55815c-2.28762,2.37891 -4.57525,4.75781 -7.20324,7.01196c-2.62798,2.25415 -5.39971,4.19822 -8.2433,5.98726c-2.95705,1.74745 -6.01624,3.07137 -8.99228,4.16837c-6.06551,2.15243 -12.04422,2.66362 -17.16457,2.58856c-2.56018,-0.03754 -4.85185,-0.10534 -6.90533,-0.47194c-1.98161,-0.21155 -3.76658,-0.60842 -5.2112,-0.88055c-1.44463,-0.27211 -2.62074,-0.57451 -3.34306,-0.71058c-0.83576,-0.17765 -1.17613,-0.3024 -1.17613,-0.3024c0,0 0.4954,0.05289 1.21772,0.18895c0.83576,0.17765 1.94002,0.325 3.42622,0.48367c1.48621,0.15866 3.19931,0.4005 5.2225,0.49859c1.98161,0.21155 4.31487,0.16591 6.76158,0.16185c4.93502,-0.12156 10.77,-0.94283 16.56702,-3.06497c2.97604,-1.09701 5.80832,-2.5041 8.61032,-4.17968c2.802,-1.67558 5.46028,-3.66124 7.93322,-5.84352c2.47295,-2.18228 4.87403,-4.5196 7.16166,-6.89852c2.28762,-2.37891 4.80216,-4.67465 7.30539,-6.58844c2.54481,-2.02724 5.19178,-3.63096 8.01278,-4.6561c2.70754,-1.06672 5.47564,-1.59648 7.86179,-2.13751c2.31429,-0.69609 4.44324,-1.58879 6.3756,-2.29618c1.93233,-0.70739 3.48273,-1.42607 4.87808,-2.07288c1.24032,-0.57494 2.32559,-1.07802 2.98734,-1.47896c0.66175,-0.40092 1.01341,-0.65812 1.01341,-0.65812c0,0 -0.35167,0.25719 -0.7865,0.74129z" fill="#687a27"></path></g><g><g fill="#a3b339"><path d="M182.59269,241.19005c-5.13517,6.16019 -15.63777,4.49693 -11.85216,-3.95679c3.78562,-8.45372 15.6323,-19.91276 21.74768,-12.94959c5.6947,6.52953 -4.76036,10.74616 -9.89553,16.90635z"></path><path d="M182.57379,241.30941c-2.94101,2.34808 -6.2282,6.10943 -4.20629,8.02008c1.92146,1.7724 5.26106,6.95022 2.66023,7.15004c-2.60081,0.19982 -6.40376,-8.23227 -6.40376,-8.23227c0,0 3.16139,10.1656 0.5606,10.36542c-2.60081,0.19982 -3.68848,-11.47248 -3.68848,-11.47248c0,0 -0.28078,9.49813 -2.12068,7.98334c-1.97815,-1.41434 0.83378,-9.89992 -0.6859,-11.11932c-1.53856,-1.10004 -4.79602,6.33624 -6.01326,3.2073c-1.21725,-3.12894 7.53829,-13.60945 9.7751,-14.60096"></path></g><path d="M222.50335,224.02111c-1.52395,8.07784 -16.72212,12.88907 -34.73662,8.44574c-14.8488,-3.57497 -9.09098,-11.34933 4.62318,-12.97003c13.71417,-1.6207 31.39167,-2.00203 30.11343,4.52429z" fill="#a3b339"></path><path d="M236.41186,209.5854c-4.35965,13.62347 -23.86671,30.96513 -32.51217,20.6651c-8.22476,-9.86639 3.36801,-42.89765 11.36647,-46.27993c7.99843,-3.38226 27.80801,4.40388 21.1457,25.61483z" fill="#a3b339"></path><path d="M238.83877,205.0761c-0.17605,0.33914 -0.28947,1.05523 -0.66046,1.85286c-0.62266,1.61416 -1.71675,3.88772 -3.10625,6.48151c-1.50885,2.5749 -3.31309,5.47004 -5.61364,8.40891c-1.10004,1.53856 -2.43879,3.03934 -3.75863,4.42074c-1.43919,1.36251 -2.87838,2.72503 -4.53735,3.9304c-1.65899,1.20536 -3.41841,2.27247 -5.35983,2.94374c-0.51519,0.1631 -1.01149,0.20685 -1.52667,0.36992l-0.75389,0.1253l-0.75389,0.1253c-0.89214,0.22575 -1.88472,0.31322 -2.75796,0.41961c-1.86582,0.19388 -3.61228,0.40667 -5.33986,0.50009c-1.72757,0.09344 -3.31689,0.08641 -4.78687,0.0983c-1.46998,0.01189 -2.8206,0.04268 -4.01409,-0.14633c-1.19348,-0.18901 -2.26762,-0.35911 -3.10304,-0.49142c-1.65196,-0.38396 -2.55004,-0.89321 -2.55004,-0.89321c0,0 0.21979,0.15714 0.69719,0.23276c0.33914,0.17605 1.05523,0.28947 1.90956,0.3024c0.85433,0.01297 1.82801,0.04481 3.0593,-0.00487c1.11193,-0.06859 2.46255,-0.09939 3.95143,-0.23062c1.48888,-0.13124 3.0971,-0.24356 4.72423,-0.47525c1.74648,-0.21279 3.51184,-0.54491 5.25831,-0.75768c0.87324,-0.10639 1.88472,-0.31322 2.75796,-0.41961l0.75389,-0.1253l0.63453,-0.1442c0.39585,-0.18201 0.89214,-0.22575 1.28798,-0.40772c1.80317,-0.57083 3.42436,-1.5375 4.94508,-2.64241c1.52073,-1.10492 3.06036,-2.32918 4.3802,-3.7106c1.42029,-1.24317 2.62078,-2.64348 3.82127,-4.0438c2.28164,-2.81954 4.30567,-5.55751 5.91497,-7.99416c1.60929,-2.43664 2.92319,-4.55304 3.64628,-6.02896c0.49035,-0.77872 0.70421,-1.35657 0.89915,-1.81506c0.19496,-0.45849 0.11341,-0.71609 0.11341,-0.71609c0,0 0.08155,0.2576 -0.1323,0.83544z" fill="#687a27"></path><path d="M194.19903,219.66099c-2.00407,0.29433 -4.28464,0.78955 -6.60301,1.52347c-2.43772,0.71501 -4.79388,1.68764 -6.76716,3.33259c-0.5341,0.28244 -0.84839,0.72203 -1.30094,1.26207c-0.45255,0.54003 -0.88618,0.96073 -1.33875,1.50075c-0.76685,0.97962 -1.65303,1.94036 -2.53923,2.90109c-1.65303,1.94036 -3.38762,3.62311 -4.82681,4.98561c-1.43919,1.36251 -2.72122,2.50523 -3.68896,3.20835c-0.41474,0.30135 -0.82949,0.60268 -1.106,0.80357c-0.13826,0.10045 -0.15714,0.21979 -0.2765,0.20088c-0.10045,-0.13826 0.01891,-0.11935 0.01891,-0.11935l-0.01891,0.11935c0.11935,0.01891 0.13826,-0.10045 0.2765,-0.20088c0.15714,-0.21979 0.47145,-0.65939 0.78574,-1.09898c0.74794,-0.86027 1.8291,-2.27949 3.04849,-3.79915c1.23829,-1.63901 2.73419,-3.35956 4.38721,-5.29992c0.76685,-0.97962 1.65303,-1.94036 2.53923,-2.90109c0.45255,-0.54003 0.88618,-0.96073 1.33875,-1.50075c0.45255,-0.54003 1.02444,-1.06118 1.57744,-1.46295c2.35022,-1.7076 5.08334,-2.74286 7.50215,-3.33853c2.53817,-0.57676 4.90028,-0.81439 6.88543,-0.98937c1.98517,-0.17498 3.69384,-0.14906 4.90621,-0.07941c1.11193,-0.06859 1.82801,0.04481 1.82801,0.04481c0,0 -2.72016,0.18092 -6.62784,0.90783z" fill="#687a27"></path><path d="M168.85261,244.51943c0.20088,0.2765 0.36399,0.79169 0.52708,1.30688c0.1631,0.51519 0.18794,1.13083 0.19388,1.86582c0.02484,0.61564 0.03079,1.35063 -0.08262,2.06671c-0.08855,1.33172 -0.31537,2.76389 -0.46657,3.71868c0.02484,0.61564 -0.03186,0.97368 0.04969,1.23129c0.10045,0.13826 0.08155,0.2576 0.20088,0.2765c0.10045,0.13826 0.10045,0.13826 0.10045,0.13826c0,0 -0.2387,-0.0378 -0.57784,-0.21385c-0.21979,-0.15714 -0.62158,-0.71013 -0.78469,-1.22534c-0.42663,-1.16863 -0.43851,-2.6386 -0.33106,-4.08968c0.11341,-0.71609 0.22681,-1.43218 0.32131,-2.02891c0.11341,-0.71609 0.32725,-1.29393 0.40286,-1.77131c0.0945,-0.59674 0.15121,-0.95478 0.20791,-1.31282c0.0378,-0.2387 0.07561,-0.4774 0.07561,-0.4774c0,0 0.21979,0.15714 0.1631,0.51519z" fill="#687a27"></path><path d="M172.16736,249.08163c0.42663,1.16863 0.81546,2.57596 1.06605,4.08374c0.24464,0.77279 0.36992,1.52667 0.51412,2.16121c0.08155,0.2576 0.1442,0.63453 0.22575,0.89214c0.08155,0.2576 0.1631,0.51519 0.24464,0.77279c0.08155,0.2576 0.1631,0.51519 0.26355,0.65344c0.08155,0.2576 0.18201,0.39585 0.28244,0.5341c0.20088,0.2765 0.30135,0.41474 0.30135,0.41474c0,0 -0.2387,-0.0378 -0.59674,-0.0945c-0.11935,-0.01891 -0.33914,-0.17605 -0.55893,-0.33321c-0.21979,-0.15714 -0.4396,-0.31431 -0.64048,-0.59081c-0.20088,-0.2765 -0.4018,-0.55299 -0.60268,-0.82949c-0.20088,-0.2765 -0.4018,-0.55299 -0.58377,-0.94883c-0.24464,-0.77279 -0.48927,-1.54558 -0.73392,-2.31837c-0.24464,-0.77279 -0.35102,-1.64602 -0.35697,-2.38101c-0.00594,-0.73498 -0.01189,-1.46998 0.08262,-2.06671c0.18901,-1.19348 0.44066,-2.01001 0.44066,-2.01001c0,0 0.36399,0.79169 0.65237,2.06077z" fill="#687a27"></path><path d="M180.25494,256.72417c-0.35805,-0.05671 -0.83544,-0.1323 -1.27504,-0.44661c-0.4396,-0.31431 -0.97962,-0.76685 -1.40031,-1.20049c-0.4018,-0.55299 -0.80357,-1.106 -1.20536,-1.65899c-0.80357,-1.106 -1.33065,-2.41288 -1.5375,-3.42436c-0.20685,-1.01149 -0.21279,-1.74648 -0.21279,-1.74648c0,0 0.67828,0.35211 1.28097,1.18158c0.62158,0.71013 1.42517,1.81612 2.10938,2.90322c0.28244,0.5341 0.68422,1.08709 0.96667,1.62119c0.4207,0.43365 0.58377,0.94883 0.88512,1.36359c0.30135,0.41474 0.48334,0.81059 0.70313,0.96774c0.08155,0.2576 0.32025,0.2954 0.32025,0.2954c0.11935,0.01891 -0.13826,0.10045 -0.63453,0.1442z" fill="#687a27"></path><path d="M188.98993,236.33079c-0.59081,0.64048 -1.33875,1.50075 -2.20603,2.34214c-0.43365,0.4207 -0.86729,0.84137 -1.30094,1.26207c-0.43365,0.4207 -0.86729,0.84137 -1.30094,1.26207c-0.43365,0.4207 -0.86729,0.84137 -1.30094,1.26207c-0.43365,0.4207 -0.86729,0.84137 -1.30094,1.26207c-0.86729,0.84137 -1.59635,1.58231 -2.30647,2.20389c-0.59081,0.64048 -1.16269,1.16162 -1.35763,1.6201c-0.13826,0.10045 -0.15714,0.21979 -0.17605,0.33914c-0.01891,0.11935 -0.01891,0.11935 -0.0378,0.2387c0.11935,0.01891 0.10045,0.13826 0.10045,0.13826c0,0 -0.11935,-0.01891 -0.21979,-0.15714c-0.10045,-0.13826 -0.18201,-0.39585 -0.1253,-0.75389c-0.02484,-0.61564 0.32725,-1.29393 0.83651,-2.19201c0.49035,-0.77872 1.11894,-1.65791 1.88579,-2.63753c0.76685,-0.97962 1.63414,-1.82101 2.52034,-2.78173c1.00553,-0.94183 1.87283,-1.78321 2.84057,-2.48632c0.96774,-0.70313 1.81612,-1.42517 2.62673,-1.9085c1.52073,-1.10492 2.70828,-1.6509 2.70828,-1.6509c0,0 -0.6664,1.11788 -1.88579,2.63753z" fill="#687a27"></path><path d="M213.17355,185.59661c-0.31431,0.4396 -0.6664,1.11788 -1.13784,1.77725c-0.35211,0.67828 -0.84244,1.45701 -1.3517,2.35509c-0.50926,0.89807 -1.0185,1.79616 -1.54665,2.81358c-0.52816,1.01742 -1.05629,2.03486 -1.60336,3.17163c-0.54706,1.13678 -0.99365,2.41179 -1.5407,3.54858c-0.54706,1.13678 -0.99365,2.41179 -1.44025,3.68682c-0.4277,1.15567 -0.8743,2.4307 -1.20155,3.72462c-0.20791,1.31282 -0.65452,2.58784 -0.84353,3.78133c-0.20791,1.31282 -0.51626,2.4874 -0.56702,3.58043c-0.18901,1.19348 -0.23977,2.28651 -0.27162,3.2602c-0.15121,0.95478 -0.04481,1.82801 -0.05776,2.68235c0.06264,0.37694 0.1253,0.75389 0.06859,1.11193c0.06264,0.37694 0.00594,0.73498 0.0875,0.99258c0.16904,1.25017 0.19388,1.86582 0.19388,1.86582c0,0 -0.26355,-0.65344 -0.57083,-1.80317c-0.08155,-0.2576 -0.1631,-0.51519 -0.22575,-0.89214c-0.06264,-0.37694 -0.1253,-0.75389 -0.18794,-1.13083c-0.1253,-0.75389 -0.33212,-1.76537 -0.30026,-2.73905c-0.0875,-0.99258 -0.15608,-2.10452 -0.08641,-3.31689c-0.02484,-0.61564 -0.04969,-1.23129 0.04481,-1.82801c-0.02484,-0.61564 0.08855,-1.33172 0.18306,-1.92847c-0.02484,-0.61564 0.20791,-1.31282 0.3024,-1.90956c0.11341,-0.71609 0.20791,-1.31282 0.44066,-2.01001c0.46552,-1.39438 0.79276,-2.68829 1.23936,-3.96333c0.32725,-1.29393 0.89321,-2.55004 1.45915,-3.80617c0.56596,-1.25613 1.113,-2.3929 1.7794,-3.51077c0.54706,-1.13678 1.19455,-2.13531 1.84205,-3.13383c0.6475,-0.99853 1.2761,-1.87772 1.90469,-2.75688c1.23829,-1.63901 2.41989,-2.91998 3.16782,-3.78026c0.86729,-0.84137 1.31985,-1.3814 1.31985,-1.3814c0,0 -0.45255,0.54003 -1.10004,1.53856z" fill="#687a27"></path></g><g><g><path d="M286.03296,164.47164c0.94951,-5.45697 6.143,-9.11099 11.59998,-8.16148c5.45697,0.94951 9.11099,6.143 8.16148,11.59998c-0.94951,5.45697 -6.143,9.11099 -11.59998,8.16148c-5.45697,-0.94951 -9.11099,-6.143 -8.16148,-11.59998z" fill="#a3b339"></path><path d="M288.41386,164.8859c0.72072,-4.14205 4.66276,-6.91558 8.8048,-6.19486c4.14205,0.72072 6.91558,4.66276 6.19486,8.8048c-0.72072,4.14205 -4.66276,6.91558 -8.8048,6.19486c-4.14205,-0.72072 -6.91558,-4.66276 -6.19486,-8.8048z" fill="#e7ffbd"></path><path d="M301.47838,167.31826c-0.59713,3.38464 -11.10268,1.85046 -11.87831,-1.65125c-0.66217,-3.46013 12.74755,-3.178 11.87831,1.65125z" fill="#2b3021"></path><path d="M305.60388,164.84082c-0.20431,-0.84706 -0.6658,-2.04579 -1.3542,-3.32769c-0.6884,-1.2819 -1.8722,-2.61668 -3.33581,-3.53924c-0.29878,-0.23821 -0.75259,-0.40455 -1.20642,-0.57089c-0.38195,-0.0113 -0.79418,-0.29109 -1.28958,-0.34398c-0.4954,-0.05289 -0.83576,-0.17765 -1.33117,-0.23053l-0.76389,-0.0226l-0.63914,-0.36297c-1.03239,0.00769 -1.95132,0.05694 -2.83997,0.37471c-0.84706,0.20431 -1.66385,0.6771 -2.48062,1.1499c-0.70334,0.51438 -1.40665,1.02877 -1.92467,1.73977c-0.63146,0.66941 -0.99443,1.30855 -1.35739,1.94771c-0.24951,0.68072 -0.61248,1.31986 -0.82041,1.88713c-0.32138,0.52568 -0.37427,1.02108 -0.5406,1.47489c-0.17765,0.83576 -0.34398,1.28958 -0.34398,1.28958c0,0 0.05289,-0.4954 0.11707,-1.37275c0.05289,-0.4954 0.10577,-0.9908 0.31369,-1.55807c0.20792,-0.56727 0.45744,-1.24799 0.70695,-1.92872c0.36297,-0.63914 0.76752,-1.39173 1.28553,-2.10274c0.518,-0.711 1.26292,-1.33884 2.00783,-1.96667c0.81677,-0.4728 1.67515,-1.05905 2.67726,-1.33522c1.0021,-0.27617 2.07608,-0.39731 3.10846,-0.40499l0.76389,0.0226l0.7223,0.13606c0.4954,0.05289 1.06267,0.26081 1.55807,0.31369c0.56727,0.20792 1.02108,0.37427 1.47489,0.5406c0.41223,0.2798 0.86605,0.44614 1.27828,0.72594c0.93791,0.60118 1.60734,1.23263 2.12172,1.93597c0.51438,0.70334 0.98718,1.52011 1.27466,2.14027c0.64682,1.39535 0.83981,2.62437 1.04412,3.47143c0.20431,0.84706 0.15141,1.34246 0.15141,1.34246c0,0 -0.06057,-0.53699 -0.37832,-1.42564z" fill="#687a27"></path></g><path d="M303.37681,167.75672c-0.01899,-0.65044 -0.14011,-1.72441 -0.33312,-2.95342c-0.23459,-1.11556 -0.76794,-2.46932 -1.76643,-3.60749c-0.55597,-0.58988 -1.1951,-0.95285 -1.83425,-1.3158c-0.63914,-0.36297 -1.47489,-0.5406 -2.19721,-0.67667c-0.83576,-0.17765 -1.59965,-0.20025 -2.40514,-0.1094c-0.80548,0.09085 -1.65255,0.29515 -2.2727,0.58263c-1.35377,0.53337 -2.37848,1.57344 -3.02124,2.6248c-0.64276,1.05137 -1.01703,2.07245 -1.15309,2.79477c-0.13606,0.7223 -0.14736,1.10426 -0.14736,1.10426c0,0 -0.10216,-0.42354 -0.07955,-1.18743c0.0226,-0.76389 0.28342,-1.82656 0.85431,-3.03298c0.57089,-1.20642 1.56531,-2.51496 3.11571,-3.23365c0.77519,-0.35934 1.5504,-0.71869 2.46932,-0.76794c0.91894,-0.04927 1.83786,-0.09853 2.67362,0.07912c0.83576,0.17765 1.78497,0.39687 2.53757,0.80142c0.86605,0.44614 1.57705,0.96414 2.09143,1.66747c1.1838,1.33479 1.47896,2.98734 1.67196,4.21634c0.193,1.22901 0.04564,2.33327 -0.09042,3.05558c-0.13606,0.7223 -0.3024,1.17613 -0.3024,1.17613c0,0 0.12476,-0.34037 0.18895,-1.21772z" fill="#687a27"></path></g><g fill="#969330"><path d="M223.29082,181.90145c6.01263,-1.65703 6.27068,6.41674 1.77454,8.50092c-11.35945,5.35986 -7.78717,-6.8439 -1.77454,-8.50092z"></path><path d="M215.28978,190.03666c3.06731,3.56953 0.24313,9.87005 -2.5367,6.92068c-2.82142,-2.83591 -0.15996,-10.09695 2.5367,-6.92068z"></path><path d="M227.37645,194.98168c5.13208,3.55417 1.64253,11.66995 -3.18308,9.38639c-4.98066,-2.21171 -2.1759,-13.02373 3.18308,-9.38639z"></path></g><g><path d="M246.43799,206.27447c-29.8592,-23.3503 -15.09525,-60.06597 -15.09525,-60.06597c28.76428,-3.95493 52.32383,13.21029 52.32383,13.21029l5.67907,-3.83666c-9.6891,22.34483 6.11361,41.48521 6.11361,41.48521c-3.06164,4.86054 -0.8503,10.57323 -0.8503,10.57323z" fill="#6d4b9b"></path><path d="M240.79317,166.17202c-2.39757,-2.55562 -3.27974,-4.37899 -3.27974,-4.37899c-0.96937,0.90942 -5.44288,1.79252 -5.44288,1.79252c0.04905,-1.5372 2.5329,-4.36449 2.5329,-4.36449c-1.86244,-0.57235 -4.27729,-5.26569 -4.27729,-5.26569c1.88425,-0.11086 6.27599,1.56805 6.27599,1.56805c0.03815,-1.19559 3.38689,-4.33723 3.38689,-4.33723c0.29801,1.3773 0.76772,5.41017 0.76772,5.41017c1.3773,-0.29801 5.08039,1.5299 5.08039,1.5299c-1.50357,1.57627 -4.88594,3.09259 -4.88594,3.09259c0.38068,1.46542 -0.24617,5.03586 -0.15805,4.95318z" fill="#e0c448"></path><path d="M255.38221,196.55791c-3.48777,-0.53872 -5.34477,-1.28187 -5.34477,-1.28187c-0.2144,1.36095 -3.06164,4.86054 -3.06164,4.86054c-0.98665,-1.22829 -0.86676,-4.98589 -0.86676,-4.98589c-1.73524,0.7995 -6.62848,-1.23734 -6.62848,-1.23734c1.32732,-1.41093 5.73449,-2.89455 5.73449,-2.89455c-0.73863,-0.96392 -0.24988,-5.56461 -0.24988,-5.56461c0.99755,0.88669 4.07287,3.6349 4.07287,3.6349c0.97483,-1.08023 4.94136,-2.15047 4.94136,-2.15047c0.01727,2.13771 -1.62892,5.50467 -1.62892,5.50467c1.25103,0.98026 3.03173,4.11462 3.03173,4.11462z" fill="#e0c448"></path><path d="M265.78719,173.21007c-2.6674,-2.13681 -3.89662,-3.80026 -3.89662,-3.80026c-0.88669,0.99755 -5.21119,2.56929 -5.21119,2.56929c-0.20443,-1.63077 1.86059,-4.72789 1.86059,-4.72789c-1.95602,-0.31887 -5.07041,-4.52162 -5.07041,-4.52162c1.89514,-0.45245 6.47949,0.5487 6.47949,0.5487c-0.13265,-1.20105 2.72005,-4.87144 2.72005,-4.87144c0.4688,1.38275 1.62717,5.26662 1.62717,5.26662c1.38275,-0.4688 5.27844,0.68134 5.27844,0.68134c-1.17288,1.92877 -4.31267,3.88027 -4.31267,3.88027c0.55148,1.47088 0.43702,5.05767 0.52515,4.975z" fill="#e0c448"></path><path d="M274.89695,195.81281c0.6214,-3.39964 1.53535,-5.25119 1.53535,-5.25119c-1.36095,-0.2144 -4.76696,-3.31511 -4.76696,-3.31511c1.31098,-0.89852 5.06311,-0.60782 5.06311,-0.60782c-0.6287,-1.7298 1.66162,-6.52946 1.66162,-6.52946c1.3228,1.40999 2.5475,5.89439 2.5475,5.89439c0.96392,-0.73863 5.55372,0.09172 5.55372,0.09172c-0.88669,0.99755 -3.80026,3.89662 -3.80026,3.89662c1.08023,0.97483 1.89155,5.01859 1.89155,5.01859c-2.13227,-0.15352 -5.40564,-2.0532 -5.40564,-2.0532c-1.06294,1.1629 -4.27997,2.85548 -4.27997,2.85548z" fill="#e0c448"></path><path d="M280.8293,159.92667c-2.13227,-0.15352 -5.40564,-2.0532 -5.40564,-2.0532c-1.06294,1.1629 -4.27997,2.85548 -4.27997,2.85548c0.6214,-3.39964 1.53535,-5.25119 1.53535,-5.25119c-1.27281,-0.29708 -4.76696,-3.31511 -4.76696,-3.31511c0.26438,-0.24803 0.69411,-0.31979 1.21195,-0.47425c4.63977,1.94327 8.33742,3.94197 10.93848,5.47823c0.4688,1.38275 0.76679,2.76004 0.76679,2.76004z" fill="#e0c448"></path><path d="M262.59219,206.3625c-0.71137,-1.81792 1.66162,-6.52946 1.66162,-6.52946c1.23467,1.49267 2.5475,5.89439 2.5475,5.89439c0.96392,-0.73863 5.55372,0.09172 5.55372,0.09172c-0.26438,0.24803 -0.62231,0.74952 -1.15107,1.24557l-13.15159,-0.41965c1.64167,-0.54602 4.53982,-0.28257 4.53982,-0.28257z" fill="#e0c448"></path><path d="M292.68019,206.46769c-1.16836,-0.89215 -2.92086,-2.23038 -4.65705,-4.08099c-0.90942,-0.96937 -1.90152,-2.02686 -2.80549,-3.16705c-0.90397,-1.14017 -1.89063,-2.36847 -2.70102,-3.7621c-0.8104,-1.39364 -1.53268,-2.86997 -2.33761,-4.43442c-0.71683,-1.64712 -1.35098,-3.20613 -1.80887,-4.93046c-0.54602,-1.64167 -0.745,-3.44324 -1.0321,-5.16213c-0.19898,-1.80157 -0.14447,-3.50957 -0.0073,-5.12943c0.13718,-1.61987 0.44515,-3.23429 0.74768,-4.67791c0.1926,-0.67776 0.3852,-1.3555 0.5778,-2.03325c0.1926,-0.67776 0.3852,-1.3555 0.66047,-1.94512c0.46788,-1.26737 0.9303,-2.36395 1.46994,-3.20159c0.62778,-0.92033 0.99663,-1.76342 1.4427,-2.34759c0.80947,-1.25648 1.34367,-1.92332 1.34367,-1.92332c0,0 -0.28072,0.76042 -1.00752,2.10502c-0.36339,0.6723 -0.56145,1.52085 -1.01843,2.44662c-0.18715,0.50695 -0.37429,1.0139 -0.56145,1.52085c-0.18715,0.50695 -0.37429,1.0139 -0.56691,1.69165c-0.29708,1.27281 -0.68227,2.62833 -0.89668,3.98928c-0.2144,1.36095 -0.43424,2.89269 -0.4833,4.42989c-0.04905,1.5372 -0.01542,3.16252 0.18899,4.7933c0.29255,1.5481 0.57965,3.26699 1.04301,4.82054c0.37524,1.63623 0.92669,3.1071 1.56083,4.66609c0.72226,1.47632 1.36187,2.86452 2.17226,4.25817c1.53813,2.69918 3.25794,5.06219 4.81786,7.07816c1.64805,1.93329 3.1362,3.51954 4.1283,4.57705c0.9921,1.0575 1.65895,1.5917 1.65895,1.5917c0,0 -0.58417,-0.44607 -1.92877,-1.17288z" fill="#4a3369"></path><path d="M274.32071,154.93173c-1.00845,-0.54509 -2.27582,-1.01297 -3.62586,-1.56897c-1.26737,-0.46788 -2.7001,-1.112 -4.13826,-1.58533c-1.43818,-0.47333 -2.87634,-0.94664 -4.48532,-1.42541c-1.52085,-0.56145 -3.21794,-0.95754 -4.74424,-1.3482c-1.60898,-0.47878 -3.22339,-0.78675 -4.83782,-1.09473c-1.61442,-0.30797 -3.14616,-0.52782 -4.67791,-0.74768c-1.53175,-0.21985 -3.06895,-0.26891 -4.42989,-0.4833c-1.36095,-0.2144 -2.72735,-0.258 -3.92294,-0.29615c-1.28372,0.04452 -2.39119,-0.07629 -3.416,-0.109c-1.02479,-0.0327 -1.96693,0.02273 -2.65012,0.00093c-1.45452,0.03907 -2.30852,0.01183 -2.30852,0.01183c0,0 0.85946,-0.14354 2.31943,-0.35342c0.77133,-0.06086 1.63077,-0.20443 2.66101,-0.34253c1.03024,-0.1381 2.14317,-0.18807 3.4269,-0.2326c1.28372,-0.04452 2.65557,-0.17173 4.10464,-0.04c1.3664,0.04361 2.99173,0.00998 4.52347,0.22982c0.76587,0.10991 1.61987,0.13718 2.38573,0.2471c0.85399,0.02725 1.61987,0.13718 2.46842,0.33523c1.61442,0.30797 3.31697,0.53327 4.92594,1.01205c1.60898,0.47878 3.30606,0.87488 4.82691,1.43633c1.60898,0.47878 3.04169,1.12288 4.56254,1.68435c1.52085,0.56145 2.86545,1.28824 4.21549,1.84424c1.26193,0.63867 2.52385,1.27735 3.61497,1.91056c4.45262,2.45023 6.94377,4.75237 6.94377,4.75237c0,0 -2.8491,-1.80065 -7.74234,-3.83749z" fill="#4a3369"></path><path d="M244.17307,204.9199c-1.41637,-1.15652 -3.41692,-2.75913 -5.39567,-5.04492c-1.07477,-1.14561 -2.14409,-2.46206 -3.12529,-3.86114c-0.98119,-1.3991 -2.03963,-3.05711 -2.92724,-4.70968c-0.97029,-1.7407 -1.7698,-3.47594 -2.56385,-5.38198c-0.79405,-1.90605 -1.4173,-3.80664 -1.95242,-5.78991c-0.53513,-1.98327 -0.89944,-3.9611 -1.17564,-6.02159c-0.2762,-2.06049 -0.38704,-3.94475 -0.40977,-5.91165c-0.02273,-1.96693 0.03722,-3.84571 0.26253,-5.54826c0.2253,-1.70254 0.45059,-3.4051 0.75312,-4.84872c0.39066,-1.5263 0.60506,-2.88725 0.9848,-4.07195c0.37975,-1.1847 0.58324,-2.20404 0.95211,-3.04714c0.56691,-1.69165 0.85307,-2.62288 0.85307,-2.62288c0,0 -0.2035,1.01934 -0.5996,2.71644c-0.19804,0.84855 -0.31887,1.95602 -0.52782,3.14616c-0.20896,1.19014 -0.33523,2.46842 -0.55508,4.00017c-0.0218,0.6832 -0.04905,1.5372 -0.15898,2.30307c-0.10991,0.76587 -0.13718,1.61987 -0.16443,2.47387c-0.13718,1.61987 -0.02634,3.50411 0.00185,5.30024c0.05543,0.94211 0.11086,1.88425 0.16627,2.82638c0.14354,0.85946 0.19898,1.80157 0.33708,2.83183c0.2762,2.06049 0.72865,3.95564 1.18109,5.85079c0.45245,1.89514 1.07569,3.79574 1.78709,5.61366c0.7995,1.73524 1.51087,3.55318 2.3985,5.20573c1.68711,3.38782 3.64952,6.18602 5.45202,8.63717c0.98665,1.22829 1.80795,2.28034 2.6347,3.16159c0.82675,0.88125 1.57083,1.67437 2.14955,2.29125c1.24012,1.32187 1.98964,1.9442 1.98964,1.9442c0,0 -0.83765,-0.53964 -2.34759,-1.4427z" fill="#4a3369"></path><path d="M285.79369,207.95768c-2.05505,0.1054 -4.36357,0.11723 -6.84289,0.12361c-2.47932,0.00637 -5.12399,-0.16349 -7.77411,-0.16257c-1.28372,0.04452 -2.56199,-0.08176 -3.92839,-0.12534c-1.3664,-0.04361 -2.64468,-0.16988 -3.84027,-0.20803c-2.47387,-0.16443 -4.85962,-0.41152 -6.82109,-0.5596c-4.00561,-0.38428 -6.64485,-0.72495 -6.64485,-0.72495c0,0 2.65557,-0.17173 6.67754,-0.29985c2.05505,-0.1054 4.36357,-0.11723 6.84289,-0.12361c1.19559,0.03815 2.47932,-0.00637 3.84571,0.03722c1.27827,0.12628 2.56199,0.08176 3.92839,0.12534c2.56199,0.08176 5.29478,0.16895 7.76865,0.33338c2.47387,0.16443 4.85962,0.41152 6.82109,0.5596c4.00561,0.38428 6.64485,0.72495 6.64485,0.72495c0,0 -2.5729,0.25985 -6.67754,0.29985z" fill="#4a3369"></path><path d="M287.95124,209.97305c-0.73439,-1.11443 0.43195,-3.17877 2.6051,-4.61083c2.17314,-1.43206 4.53016,-1.68955 5.26455,-0.57511c0.73439,1.11443 -0.43195,3.17877 -2.6051,4.61083c-2.17314,1.43206 -4.53016,1.68955 -5.26455,0.57511z" fill="#bdabd6"></path></g><g data-paper-data="{&quot;index&quot;:null}"><path d="M258.58341,146.91569c-2.42937,-2.35304 -7.59129,-18.18737 -9.39033,-21.44019c-1.79903,-3.25285 -2.36249,-11.66492 2.65995,0.73039c0,0 -1.16131,-11.27764 0.75301,-8.8361c1.91432,2.44152 2.10773,9.03731 2.10773,9.03731c0,0 3.07265,-11.01546 4.21437,-8.44124c1.14172,2.57421 -0.72605,10.4145 -0.72605,10.4145c0,0 3.15541,-8.06144 3.86668,-4.22602c0.39887,1.61348 -2.38096,6.14751 0.24461,12.42449" fill="#a3b339"></path><path d="M269.79626,204.15617c-7.70361,7.3586 -13.92265,-9.87721 -10.85553,-15.54892c3.09593,-5.87457 4.07026,-7.42709 5.27886,-14.16476c1.20859,-6.73769 -6.43941,-25.41001 -8.89023,-34.6852c-2.42198,-9.47805 3.07449,-12.79672 7.87191,-4.12247c4.11221,7.30786 14.766,24.27658 16.49816,36.84132c1.73216,12.56474 -2.34273,24.44495 -9.90318,31.67999z" fill="#a3b339"></path><path d="M262.03812,126.13848c0,0 -0.05763,0.40566 0.0279,0.68777c-0.20082,0.52922 -0.3161,1.34054 -0.34584,2.43399c-0.02975,1.09345 0.02605,2.46905 0.65455,3.35047c0.31425,0.44074 0.74284,0.96075 1.17145,1.48077c0.42861,0.52003 0.94275,1.3222 1.34254,2.04505c1.74231,2.7679 3.77006,6.17932 5.85452,10.07572c1.085,2.08928 2.05565,4.09925 3.14065,6.18851c0.94182,2.21279 2.0268,4.30205 2.93982,6.71768c0.91302,2.41563 1.82602,4.83129 2.59584,7.37044c0.31332,1.33133 0.65546,2.45986 0.93998,3.99404c0.14226,0.7671 0.2845,1.53419 0.3124,2.22196c0.14226,0.76708 0.19896,1.25206 0.22686,1.93984c0.22596,2.83047 -0.00553,5.34373 -0.2082,7.65417c-0.31702,2.23115 -0.74839,4.38302 -1.23648,6.04988c-1.00501,3.5366 -2.20898,5.82113 -3.06896,7.45298c-0.48716,0.77629 -0.83118,1.42902 -1.11752,1.67607c-0.31517,0.44991 -0.45835,0.57345 -0.45835,0.57345c0,0 0.48717,-0.77625 1.2328,-2.48736c0.63126,-1.79043 1.63535,-4.4364 2.38282,-7.92877c0.37373,-1.74619 0.66194,-3.77448 0.83578,-5.88212c0.17384,-2.10762 0.1478,-4.57665 -0.05026,-6.71933c-0.0279,-0.68777 -0.19896,-1.25205 -0.22686,-1.93984c-0.05671,-0.48497 -0.08462,-1.17278 -0.25569,-1.73701c-0.19898,-1.25206 -0.54112,-2.38058 -0.88327,-3.50909c-0.79865,-2.33635 -1.59729,-4.67267 -2.53911,-6.88547c-0.94182,-2.21281 -1.88365,-4.42562 -2.8543,-6.43559c-1.085,-2.08926 -2.05564,-4.09923 -3.02628,-6.1092c-1.9701,-3.8171 -3.85466,-7.35209 -5.56817,-10.32281c-0.51414,-0.80215 -0.79956,-1.44572 -1.22818,-1.96574c-0.3998,-0.72283 -0.82839,-1.24287 -1.19936,-2.16854c-0.39978,-0.72287 -0.62757,-1.77209 -0.62664,-2.66272c0.00092,-0.89063 0.08739,-1.49915 0.17385,-2.10762c0.28728,-1.1377 0.5169,-1.86972 0.71772,-2.39892c0.20082,-0.52922 0.34399,-0.65273 0.34399,-0.65273z" fill="#687a27"></path><path d="M256.07035,142.49932c0,0 1.28489,2.45069 2.93982,6.71767c0.48531,1.00499 0.94182,2.21279 1.39832,3.42063c0.42769,1.41066 0.99854,2.69774 1.42622,4.1084c0.96972,2.9006 1.91062,6.00403 2.56517,9.3545c0.39886,1.6135 0.65456,3.35049 0.76706,5.21104c-0.00093,0.89061 0.11252,1.86053 -0.00277,2.67187c-0.05764,0.40568 -0.05765,0.40568 -0.11528,0.81133l-0.08646,0.60848c-0.05763,0.40566 -0.11528,0.81131 -0.17291,1.21699c-0.37374,1.74619 -0.77537,2.8046 -1.20583,4.06582c-0.43045,1.26122 -0.83208,2.31961 -1.31924,3.09588c-1.74878,3.46648 -3.32373,4.82535 -3.32373,4.82535c0,0 0.344,-0.65273 0.74563,-1.71113c0.51599,-0.97909 1.11843,-2.56666 1.77852,-4.55994c0.25846,-0.93484 0.66009,-1.99324 0.94737,-3.13094c0.28728,-1.13768 0.60339,-2.4782 0.7763,-3.69521c0.34492,-1.54333 0.37465,-2.63678 0.20451,-4.09168c-0.0558,-1.3756 -0.3403,-2.90979 -0.6248,-4.44397c-0.56901,-3.06837 -1.36674,-6.29534 -2.10774,-9.03733c-0.85536,-2.8213 -1.59637,-5.56329 -2.28066,-7.82033c-1.36857,-4.51404 -2.30947,-7.61749 -2.30947,-7.61749z" fill="#687a27"></path><path d="M247.99744,119.74449c0,0 -0.08553,-0.28213 0.08646,-0.60848c0.14317,-0.12357 0.42952,-0.37062 0.80141,-0.33557c0.3719,0.03506 0.71496,0.27296 1.0292,0.71368c0.34306,0.2379 0.65731,0.6786 0.94275,1.32216c0.48531,1.00499 0.79866,2.33635 0.91209,3.30626c0.22779,1.04922 0.1125,1.86053 0.1125,1.86053c0,0 -0.45742,-0.31719 -0.88603,-0.83719c-0.57179,-0.39649 -1.08592,-1.19866 -1.45688,-2.12433c-0.37097,-0.92569 -0.74195,-1.8514 -0.91301,-2.41563c-0.1999,-0.36143 -0.28544,-0.64356 -0.39979,-0.72287c-0.11436,-0.07929 -0.2287,-0.15859 -0.2287,-0.15859z" fill="#687a27"></path><path d="M252.60603,117.36985c0,0 0.37189,0.03504 0.88602,0.83719c0.54295,0.59931 1.14265,1.6836 1.45597,3.01495c0.17107,0.56426 0.31332,1.33135 0.34122,2.01912c0.0279,0.68781 -0.02975,1.09349 -0.11621,1.70196c-0.05764,0.40564 -0.14409,1.01413 -0.28728,1.13766c-0.14318,0.12353 -0.172,0.32636 -0.172,0.32636c0,0 -0.11435,-0.07929 -0.19989,-0.36141c-0.08554,-0.28215 -0.14225,-0.76711 -0.34214,-1.12855c-0.37096,-0.92569 -0.62758,-1.77205 -0.85536,-2.82128c-0.22779,-1.04922 -0.45559,-2.09845 -0.56901,-3.06837c-0.14225,-0.76706 -0.14132,-1.65769 -0.14132,-1.65769z" fill="#687a27"></path><path d="M258.95698,117.76297c0,0 0.11436,0.07932 0.28544,0.64356c0.19989,0.36143 0.39979,0.72287 0.57085,1.2871c0.17108,0.56426 0.31333,1.33137 0.34122,2.01914c0.0279,0.68781 0.02698,1.57844 -0.05949,2.18691c-0.20175,1.41983 -0.48903,2.55751 -0.97619,3.3338c-0.45835,0.57345 -0.88788,0.94403 -0.88788,0.94403c0,0 -0.14226,-0.76708 -0.11251,-1.86053c-0.0279,-0.68777 0.02975,-1.09345 0.00184,-1.78124c0.05765,-0.40566 0.02975,-1.09349 0.1162,-1.70196c0.05856,-1.29629 0.31702,-2.23112 0.46112,-3.2453c0.05763,-0.40566 0.11528,-0.81134 0.17291,-1.21701c0.05765,-0.40564 0.08646,-0.60847 0.08646,-0.60847z" fill="#687a27"></path></g></g></g></svg>