<svg version="1.1" xmlns="http://www.w3.org/2000/svg" xmlns:xlink="http://www.w3.org/1999/xlink" width="62.55218" height="76.99434" viewBox="0,0,62.55218,76.99434"><g transform="translate(-208.99982,-141.99966)"><g data-paper-data="{&quot;isPaintingLayer&quot;:true}" fill-rule="nonzero" stroke="none" stroke-width="1" stroke-linecap="butt" stroke-linejoin="miter" stroke-miterlimit="10" stroke-dasharray="" stroke-dashoffset="0" style="mix-blend-mode: normal"><path d="M271.552,205.144c0,5.14 -2.75,9.66 -7.35,12.09c-2.23,1.18 -4.83,1.76 -7.95,1.76c-1.31,0 -2.73,-0.1 -4.34,-0.3c-0.12,-0.01 -0.24,-0.03 -0.36,-0.05c-2.49,-0.39 -3.64,-0.43 -4.02,-0.43h-0.12c-0.16,0.02 -0.32,0.03 -0.48,0.03c-0.25,0.02 -0.61,0.06 -1.1,0.11c-1.3,0.17 -2.44,0.25 -3.49,0.25c-0.57,0 -1.76,0.03 -4.14,0.16h-0.12c-0.65,0.03 -1.22,0.04 -1.73,0.04c-1.35,0 -2.48,-0.09 -3.51,-0.28c-3.38,-0.58 -6.38,-2.33 -8.48,-4.98c-2.52,-3.16 -3.05,-6.32 -3.05,-8.42c0,-2.73 0.85,-5.33 2.39,-7.52c-1,-0.08 -1.98,-0.2 -2.94,-0.38c-5.91,-1.06 -8.98,-6.08 -10.14,-7.98c-1.49,-2.43 -1.98,-5.35 -1.36,-8.13c0.2,-0.92 0.52,-1.93 1.02,-3.24c0.59,-2.37 1.94,-4.44 3.78,-5.93c2.51,-3.43 6.46,-9.03 11.76,-16.69c1.28,-1.84 1.99,-2.98 2.37,-3.63c0.98,-1.77 2.36,-3.4 4.32,-5.13c2,-1.77 3.77,-2.92 5.58,-3.64c0.34,-0.14 0.69,-0.26 1.05,-0.36c2.54,-0.73 5.28,-0.65 7.91,0.23c0.24,0.07 0.47,0.16 0.7,0.25c0.42,0.07 0.85,0.16 1.26,0.27c2.76,0.75 5.16,2.24 6.94,4.31c2.6,3.04 3.15,6.67 3.35,10.14c0.02,0.33 0.03,0.67 0.02,1c-0.04,1.09 -0.05,3.24 0.08,7.32c0.02,0.37 0.04,0.78 0.06,1.22c7.03,1.48 10.68,7.32 10.68,13.1c0,1.27 -0.16,2.54 -0.5,3.9c-0.4,1.57 -1.13,3.04 -2.16,4.3c-1.14,1.39 -2.47,2.55 -3.95,3.47c4.36,1.91 8.02,6.25 8.02,13.14z" fill="#00cccc"></path><path d="M259.055,207.514c-0.998,0.528 -2.933,0.616 -5.805,0.264c-2.991,-0.468 -5.221,-0.645 -6.686,-0.527c-0.235,0 -0.91,0.06 -2.023,0.176c-0.88,0.118 -1.613,0.176 -2.199,0.176c-1.055,0 -2.639,0.06 -4.749,0.176c-1.351,0.06 -2.287,0.032 -2.815,-0.082c-0.763,-0.11 -1.363,-0.442 -1.803,-0.995c-0.44,-0.553 -0.66,-1.076 -0.66,-1.573c0,-0.884 0.498,-1.616 1.495,-2.197c0.997,-0.579 2.023,-0.869 3.079,-0.869c0.469,0 0.88,0 1.231,0h5.365c0.353,0 0.85,-0.088 1.496,-0.267c0.116,-2.132 -0.119,-6.13 -0.704,-11.993c0,-0.948 -0.016,-1.94 -0.044,-2.978c-0.03,-1.036 -0.279,-1.88 -0.748,-2.531c-3.284,0.294 -6.948,0.792 -10.995,1.495c-3.226,0.587 -5.513,0.88 -6.86,0.88c-0.998,0 -1.966,-0.088 -2.903,-0.264c-0.703,-0.117 -1.613,-1.085 -2.727,-2.903c0.117,-0.527 0.44,-1.436 0.968,-2.727c0,-0.116 0,-0.204 0,-0.264c0.176,0 0.409,-0.117 0.704,-0.352c2.463,-3.283 6.86,-9.5 13.193,-18.647c1.231,-1.76 2.199,-3.255 2.903,-4.486c0.352,-0.645 1.025,-1.407 2.022,-2.287c0.997,-0.88 1.788,-1.437 2.375,-1.671c0.41,-0.117 0.88,-0.088 1.407,0.088c0.353,0.176 0.704,0.322 1.056,0.439c0.938,0.176 1.437,0.264 1.495,0.264c0.646,0.176 1.144,0.471 1.496,0.88c0.352,0.411 0.585,1.613 0.703,3.606c-0.059,1.818 -0.03,4.517 0.088,8.093c0.117,2.639 0.353,6.627 0.704,11.962c0.645,0.06 1.729,0 3.255,-0.176c1.759,-0.233 2.932,-0.352 3.519,-0.352c2.168,0 3.254,0.821 3.254,2.463c0,0.352 -0.059,0.763 -0.176,1.231c-1.056,1.29 -2.551,1.935 -4.485,1.935c-0.295,0 -0.748,0 -1.364,0c-0.615,0 -1.07,0 -1.363,0c-0.703,0 -1.319,0.089 -1.847,0.265c0,2.053 0.116,5.132 0.352,9.235c0.352,4.75 0.704,7.683 1.056,8.796c1.583,-0.058 3.928,-0.028 7.037,0.088c1.465,0.118 2.198,1.203 2.198,3.255c0,1.055 -0.498,1.847 -1.495,2.374zM243.398,178.928c-0.527,-4.867 -0.851,-10.145 -0.968,-15.833c-0.118,0 -0.206,-0.029 -0.264,-0.088c0.176,-0.176 0.264,-0.322 0.264,-0.44c0,-0.058 -0.088,-0.233 -0.264,-0.527c-0.118,-0.233 -0.118,-0.439 0,-0.616c0.176,-0.233 0.264,-0.527 0.264,-0.879c-0.821,0.821 -1.642,1.906 -2.463,3.254c-1.35,2.171 -2.141,3.431 -2.374,3.783c-2.229,2.933 -5.045,7.066 -8.444,12.402c-0.06,0.234 0,0.439 0.176,0.615c1.759,0 4.104,-0.205 7.037,-0.615c3.752,-0.587 6.098,-0.938 7.036,-1.056z" fill="#ffffff"></path></g></g></svg>