<svg version="1.1" xmlns="http://www.w3.org/2000/svg" xmlns:xlink="http://www.w3.org/1999/xlink" width="60.21772" height="75.92" viewBox="0,0,60.21772,75.92"><g transform="translate(-210,-143)"><g data-paper-data="{&quot;isPaintingLayer&quot;:true}" fill-rule="nonzero" stroke="none" stroke-width="1" stroke-linecap="butt" stroke-linejoin="miter" stroke-miterlimit="10" stroke-dasharray="" stroke-dashoffset="0" style="mix-blend-mode: normal"><path d="M267.36,204.07c-1.64,4.61 -5.25,8.32 -11.05,11.38c-0.05,0.02 -0.1,0.05 -0.14,0.07c-4.43,2.26 -9.07,3.4 -13.79,3.4c-6.53,0 -12.76,-2.2 -18.5,-6.53c-0.04,-0.03 -0.08,-0.06 -0.12,-0.09c-1.36,-1.06 -2.62,-2.39 -6.08,-7.11c-0.32,-0.42 -0.6,-0.87 -0.85,-1.34l-0.97,-1.84c-0.67,-0.88 -1.3,-1.9 -1.94,-3.1c-0.34,-0.64 -0.61,-1.3 -0.81,-1.99c-0.6,-1.98 -1.34,-4.82 -2.27,-8.67c-0.05,-0.2 -0.09,-0.41 -0.13,-0.61c-0.48,-2.61 -0.71,-5.62 -0.71,-9.19c0,-4.9 0.07,-5.88 0.2,-6.83c0.04,-0.23 0.08,-0.47 0.13,-0.7c0.29,-1.39 0.87,-3.44 3.16,-8.92c0.27,-0.66 0.61,-1.29 1.01,-1.89c0.29,-0.43 0.69,-1.04 1.2,-1.83c2.56,-4.55 6.36,-8.29 11.28,-11.1c4.26,-2.4 8.68,-3.78 13.2,-4.14c0.29,-0.03 0.59,-0.04 0.88,-0.04c0.62,0 1.13,0.02 5.17,0.4c0.38,0.04 0.75,0.09 1.12,0.17c0.46,0.09 1.05,0.23 4.44,1.09c0.04,0.01 0.08,0.02 0.12,0.03c3.01,0.81 5.71,2.55 8.01,5.18c3.32,3.77 4.01,7.53 4.01,10.02c0,3.02 -1.04,5.95 -2.94,8.29c2.53,2.4 4.56,5.1 6.03,8.04c0.44,0.77 0.94,1.74 1.56,3.04c0.23,0.49 0.43,1 0.59,1.52c0.52,1.71 0.81,3.62 0.91,6.01v0.13c0.04,1.3 0.07,2.24 0.08,2.82c0.3,3.58 -0.56,7.93 -2.8,14.33z" fill="#00cccc"></path><path d="M259.178,190.417c0.234,1.818 -0.498,5.16 -2.198,10.027c-0.646,1.818 -2.581,3.576 -5.806,5.277c-2.874,1.465 -5.806,2.199 -8.796,2.199c-4.105,0 -8.064,-1.438 -11.875,-4.311c-0.528,-0.41 -1.848,-2.051 -3.958,-4.926l-1.496,-2.814c-0.41,-0.41 -0.879,-1.113 -1.407,-2.111c-0.527,-1.759 -1.231,-4.455 -2.11,-8.092c-0.353,-1.936 -0.528,-4.34 -0.528,-7.213c0,-3.107 0.029,-4.867 0.088,-5.277c0.233,-1.113 1.085,-3.432 2.551,-6.949c0.353,-0.527 0.85,-1.289 1.495,-2.287c1.584,-2.932 4.017,-5.336 7.301,-7.213c2.815,-1.584 5.688,-2.492 8.62,-2.727c0.293,0 1.672,0.118 4.135,0.352c0.293,0.059 1.583,0.383 3.87,0.968c0.88,0.235 1.744,0.835 2.595,1.804c0.85,0.967 1.275,1.891 1.275,2.77c0,0.528 -0.176,0.998 -0.527,1.408c-0.527,0.586 -1.291,0.91 -2.287,0.967c-0.938,0.119 -1.672,0 -2.199,-0.352c-0.294,-0.645 -1.086,-1.465 -2.375,-2.463c-1.467,-0.586 -2.902,-0.879 -4.31,-0.879c-4.165,0 -7.8,2.346 -10.907,7.037c-2.757,4.221 -3.93,8.092 -3.519,11.609c3.928,-3.811 8.884,-5.717 14.865,-5.717c0.938,0 1.905,0.059 2.902,0.176c0.058,0 0.234,0.088 0.528,0.264c2.228,0 4.603,1.057 7.125,3.167c2.287,1.878 3.987,3.988 5.102,6.333c0.293,0.471 0.732,1.319 1.319,2.551c0.233,0.764 0.381,1.848 0.439,3.255c0.057,1.935 0.088,2.991 0.088,3.167zM253.812,190.464c0.176,-3.882 -0.675,-6.971 -2.551,-9.266c-2.815,-3.588 -6.363,-5.383 -10.644,-5.383c-3.988,0 -8.151,2.501 -12.49,7.501c-0.235,0.118 -0.558,0.294 -0.968,0.529c1.231,6.767 3.107,11.59 5.63,14.472c2.814,3.178 5.951,4.678 9.411,4.502c1.349,0.176 2.888,-0.016 4.618,-0.574c1.729,-0.557 3.005,-1.338 3.827,-2.338c1.936,-2.295 2.992,-5.441 3.167,-9.443z" fill="#ffffff"></path></g></g></svg>