<svg version="1.1" xmlns="http://www.w3.org/2000/svg" xmlns:xlink="http://www.w3.org/1999/xlink" width="115.53928" height="127.16284" viewBox="0,0,115.53928,127.16284"><g transform="translate(-182.82448,-116.63935)"><g data-paper-data="{&quot;isPaintingLayer&quot;:true}" fill-rule="evenodd" stroke-miterlimit="10" stroke-dasharray="" stroke-dashoffset="0" style="mix-blend-mode: normal"><path d="M228.32459,129.69003c2.61842,-0.87333 5.38904,-1.53078 8.69788,-1.79186c5.53019,-0.59669 11.09114,0.59336 11.09114,0.59336l12.75275,-11.36145c0.43237,-0.30419 1.06985,-0.04223 1.0235,0.44248l0.7026,21.27113c-0.84261,-0.82811 14.6508,13.07298 8.3611,27.63786c-6.28972,14.56488 -23.04378,23.18696 -45.67605,22.18766c-22.63226,-0.99932 -29.68166,-12.83225 -29.28426,-19.69959c0.39742,-6.86734 8.32774,-10.57347 8.32774,-10.57347c0,0 -0.67693,-5.27188 2.09401,-12.25898c1.63919,-4.18871 8.29246,-10.80698 8.29246,-10.80698l1.15211,-12.95267c0.04635,-0.48472 0.61327,-0.68979 0.99929,-0.50926z" data-paper-data="{&quot;index&quot;:null}" fill="#ffab19" stroke="#001026" stroke-width="1.2" stroke-linecap="butt" stroke-linejoin="miter"></path><path d="M204.74233,158.81023c9.60238,-3.7199 11.64907,3.49474 20.15498,2.80672c9.92649,-0.78321 21.76607,-13.43983 31.48682,-2.12992c9.70311,11.19316 -1.20151,30.03809 -30.37639,28.47475c-22.38081,-0.91785 -29.80964,-12.09635 -29.41224,-18.96369c0.39739,-6.86734 8.14682,-10.18785 8.14682,-10.18785z" data-paper-data="{&quot;index&quot;:null}" fill="#ffffff" stroke="none" stroke-width="1" stroke-linecap="butt" stroke-linejoin="miter"></path><path d="M243.45734,165.73943c1.21517,5.66829 1.29199,13.29996 -9.17063,16.075c-12.16997,2.55531 -17.93573,-5.53052 -19.46425,-8.52408c-0.32202,-0.54848 0.05741,-1.20295 0.65962,-1.1745c1.80661,0.08532 5.60072,-0.12965 11.86107,-1.43379c6.94419,-1.52688 12.97521,-4.34892 15.07305,-5.50186c0.45001,-0.18742 0.97057,0.09221 1.04114,0.55925z" data-paper-data="{&quot;index&quot;:null}" fill="#ffffff" stroke="#001026" stroke-width="1.2" stroke-linecap="round" stroke-linejoin="round"></path><path d="M198.02506,165.79644c0,0 -8.43533,1.15505 -14.60058,-2.45164" data-paper-data="{&quot;index&quot;:null}" fill="none" stroke="#001026" stroke-width="1.2" stroke-linecap="round" stroke-linejoin="round"></path><path d="M198.59824,172.75598c0,0 -4.22441,2.90736 -11.6781,3.4364" data-paper-data="{&quot;index&quot;:null}" fill="none" stroke="#001026" stroke-width="1.2" stroke-linecap="round" stroke-linejoin="round"></path><path d="M224.90627,158.5105c2.33828,-0.35327 5.51254,-0.71344 5.60732,0.70535c0.28226,1.86816 -4.18703,5.52907 -6.32674,5.61351c-1.88824,0.16586 -4.13588,-2.83847 -4.26594,-4.49079c-0.00658,-0.83499 2.5302,-1.45712 4.98537,-1.82806z" data-paper-data="{&quot;index&quot;:null}" fill="#001026" stroke="#001026" stroke-width="1.2" stroke-linecap="round" stroke-linejoin="round"></path><path d="M264.14669,157.8365c3.54506,-4.23783 13.10557,-9.02625 13.10557,-9.02625" data-paper-data="{&quot;index&quot;:null}" fill="none" stroke="#001026" stroke-width="1.2" stroke-linecap="round" stroke-linejoin="round"></path><path d="M278.19798,160.60998c0,0 -8.45746,2.59152 -13.78459,1.36614" data-paper-data="{&quot;index&quot;:null}" fill="none" stroke="#001026" stroke-width="1.2" stroke-linecap="round" stroke-linejoin="round"></path><g data-paper-data="{&quot;index&quot;:null}"><path d="M220.35871,139.49225c3.59109,1.60712 4.37388,7.57957 1.77726,13.34606c-2.71354,5.78416 -7.72103,9.04868 -11.31213,7.44159c-3.59109,-1.60712 -4.37388,-7.57957 -1.77726,-13.34606c2.59661,-5.7665 7.7034,-9.16544 11.31213,-7.44159z" fill="#ffffff" stroke="#001026" stroke-width="1.2" stroke-linecap="round" stroke-linejoin="round"></path><path d="M210.51976,153.51856c-0.19405,-1.28436 0.58248,-2.47652 1.7516,-2.65316c1.16914,-0.17664 2.2632,0.73288 2.45725,2.01725c0.19405,1.28436 -0.58248,2.47652 -1.7516,2.65316c-1.16914,0.17664 -2.2632,-0.73288 -2.45725,-2.01725" fill="#001026" stroke="none" stroke-width="1" stroke-linecap="butt" stroke-linejoin="miter"></path></g><g data-paper-data="{&quot;index&quot;:null}"><path d="M238.53482,145.82244c2.73118,-5.66738 7.80267,-9.29987 11.8327,-7.16195c4.01241,2.02117 4.78412,8.71186 1.93604,14.39692c-2.73117,5.66738 -7.62834,8.07926 -11.82164,6.44372c-3.49182,-1.74151 -4.67826,-8.01128 -1.9471,-13.67867z" fill="#ffffff" stroke="#001026" stroke-width="1.2" stroke-linecap="round" stroke-linejoin="round"></path><path d="M240.25949,152.4886c-0.19405,-1.28436 0.60012,-2.35974 1.7516,-2.65316c1.16914,-0.17664 2.2632,0.73288 2.45725,2.01725c0.19405,1.28436 -0.58248,2.47652 -1.7516,2.65316c-1.16914,0.17664 -2.2632,-0.73288 -2.45725,-2.01725" fill="#001026" stroke="none" stroke-width="1" stroke-linecap="butt" stroke-linejoin="miter"></path></g><path d="M261.60108,201.20592c0.95528,-0.8005 9.29121,2.9267 13.14992,1.55633c2.70899,-1.06544 5.94437,-2.6041 8.32382,-5.85061c5.48035,-7.25817 5.89772,-17.95068 10.74747,-15.92764c4.96665,2.00538 7.38912,18.83021 -6.09884,26.11719c-4.63894,2.53807 -9.08162,3.20931 -12.72529,3.6286c-0.93528,0.14131 -9.13793,0.46205 -12.60291,-3.47618c-3.46498,-3.93823 -1.65192,-5.39318 -0.79416,-6.04771z" data-paper-data="{&quot;index&quot;:null}" fill="#ffab19" stroke="#001026" stroke-width="1.2" stroke-linecap="round" stroke-linejoin="round"></path><path d="M289.02522,186.43302c1.42476,-3.23351 1.71856,-5.24633 4.13435,-5.0864c2.45456,0.41652 4.43782,5.62841 3.94716,10.29553c-0.49066,4.66711 -2.01234,7.25913 -3.28021,9.15664c0.09814,-0.93342 0.13932,-3.82667 -2.10019,-5.19426c-2.78469,-1.81012 -6.93599,-0.00187 -6.93599,-0.00187c0,0 2.88767,-5.42298 4.2349,-9.16966z" data-paper-data="{&quot;index&quot;:null}" fill="#ffffff" stroke="none" stroke-width="1" stroke-linecap="butt" stroke-linejoin="miter"></path><path d="M257.77147,215.43218c-2.22013,-1.23929 -4.9061,-4.77033 -1.68827,-8.79963c3.70545,-4.75914 9.80066,-0.82462 12.42968,0.74658c2.62901,1.57119 3.9726,2.54924 9.42629,4.61226c2.16198,0.8544 4.88912,1.49216 6.36961,1.79341c0.60394,0.03999 1.1885,-0.04832 1.73429,-0.39325c0.97467,-0.67217 2.82649,-1.87056 5.3192,-0.40998c5.62756,4.00517 -3.21357,23.84408 -9.73947,22.59919c-6.75973,-1.20955 -4.06589,-7.91548 -2.54361,-11.29495c0.15629,-0.54852 -0.17445,-1.15469 -0.66148,-1.21233l-0.48703,-0.05764c-9.7207,-1.81202 -17.82219,-6.362 -20.15923,-7.58363z" data-paper-data="{&quot;index&quot;:null}" fill="#ffab19" stroke="#001026" stroke-width="1.2" stroke-linecap="round" stroke-linejoin="round"></path><path d="M235.92376,193.91873c0.11733,-3.33887 3.52392,-5.95213 6.00685,-2.97576c2.2289,2.85615 2.81011,7.91111 3.19123,10.86246c0.38111,2.95133 0.81656,15.00321 -7.53654,18.46173c-3.67968,1.23704 -14.09345,1.8498 -13.95085,-5.35643c0.14259,-7.20626 6.38136,-5.98508 10.16272,-6.06567c3.194,-0.01221 2.05681,-13.98956 2.12662,-14.92635z" data-paper-data="{&quot;index&quot;:null}" fill="#ffab19" stroke="#001026" stroke-width="1.2" stroke-linecap="round" stroke-linejoin="round"></path><path d="M246.90339,210.77524c-1.57739,-0.94272 -3.27111,-2.65522 -5.58756,-5.32348c-1.88816,-2.20803 -4.24216,-6.70781 -4.24216,-6.70781c-1.53681,-3.04851 -3.16875,-9.10086 0.70875,-9.55548c2.59144,-0.26032 4.87156,-0.99852 8.74965,-2.24057c6.78215,-2.59942 7.9131,-3.82012 11.63068,0.99853c4.08711,5.68142 12.83251,8.95306 4.50386,21.10332c0,0 -4.99209,5.74095 -10.76563,14.22443c-3.9205,5.71023 -10.20046,14.00781 -12.40423,16.83409c-0.50702,0.60152 -1.16974,0.96412 -1.85182,1.19839c-11.16605,2.86809 -19.77759,2.85693 -20.61112,-2.65993c-1.39568,-9.2375 15.80742,-8.55601 15.80742,-8.55601c0,0 4.62199,-5.81618 6.70885,-8.6248z" data-paper-data="{&quot;index&quot;:null}" fill="#ffab19" stroke="#001026" stroke-width="1.2" stroke-linecap="round" stroke-linejoin="round"></path><path d="M247.93628,210.48805c0,0 -4.03137,-2.14672 -7.47574,-7.53155c0,0 -2.70595,-2.87188 1.79791,-7.09549c4.6989,-4.51557 7.30671,-0.7103 9.87637,2.05093c2.93915,3.62399 0.89168,5.90174 -1.09765,8.56442c-1.57985,2.2071 -3.10091,4.01165 -3.10091,4.01165z" data-paper-data="{&quot;index&quot;:null}" fill="#ffffff" stroke="none" stroke-width="1" stroke-linecap="butt" stroke-linejoin="miter"></path><path d="M256.83234,190.06665c-5.87039,11.5874 -30.02657,20.76599 -44.0379,16.01575c-10.87063,-3.62489 -20.51512,-10.18811 -11.24391,-15.33279c9.45176,-5.26015 16.42149,3.99254 22.06468,4.88869c5.9749,0.87991 21.44374,-8.61931 25.86939,-10.86157c4.60618,-2.35771 9.23319,1.14667 7.34776,5.2899z" data-paper-data="{&quot;index&quot;:null}" fill="#ffab19" stroke="#001026" stroke-width="1.2" stroke-linecap="round" stroke-linejoin="round"></path></g></g></svg>