<svg version="1.1" xmlns="http://www.w3.org/2000/svg" xmlns:xlink="http://www.w3.org/1999/xlink" width="11.96245" height="54.10002" viewBox="0,0,11.96245,54.10002"><g transform="translate(-234.08839,-152.94999)"><g data-paper-data="{&quot;isPaintingLayer&quot;:true}" fill="none" fill-rule="nonzero" stroke-linejoin="miter" stroke-miterlimit="10" stroke-dasharray="" stroke-dashoffset="0" style="mix-blend-mode: normal"><path d="M243.95338,199.88885c-0.98454,3.90419 -2.25977,6.25963 -3.65286,6.25963c-1.38998,0 -2.66263,-2.34492 -3.64627,-6.23348" data-paper-data="{&quot;index&quot;:null}" stroke="#7f7f7f" stroke-width="1" stroke-linecap="butt"></path><path d="M236.52098,160.22719c1.00063,-4.21265 2.32591,-6.7772 3.77953,-6.7772c1.45333,0 2.77838,2.56353 3.77893,6.77468" data-paper-data="{&quot;index&quot;:null}" stroke="#7f7f7f" stroke-width="1" stroke-linecap="butt"></path><path d="M243.73416,199.87047c-0.99785,4.15459 -2.31385,6.67954 -3.7562,6.67954c-1.43877,0 -2.75181,-2.5124 -3.74876,-6.64857" data-paper-data="{&quot;index&quot;:null}" stroke="#bfbfbf" stroke-width="1" stroke-linecap="butt"></path><path d="M236.29167,160.24458c0.98902,-3.98389 2.27737,-6.39306 3.68626,-6.39306c1.41047,0 2.70013,2.41457 3.68958,6.40648" data-paper-data="{&quot;index&quot;:null}" stroke="#bfbfbf" stroke-width="1" stroke-linecap="butt"></path><g data-paper-data="{&quot;index&quot;:null}" stroke="#bfbfbf" stroke-width="0.5" stroke-linecap="round"><path d="M240.35882,154.36579l-0.30132,50.92486"></path><path d="M245.6633,173.65358l0.00029,-0.09923"></path><path d="M245.66064,174.55825l-0.00912,3.081"></path><path d="M245.64935,178.36692l-0.00533,1.80239"></path><path d="M245.63191,184.26411l0.00417,-1.40913"></path><path d="M245.62389,186.97485l-0.00001,0.00245"></path><path d="M234.95179,171.17579l-0.02951,9.93551"></path><path d="M234.91403,183.89227l0.00543,-1.82886"></path><path d="M237.53931,202.56107l0.13718,-46.3663"></path><path d="M243.02434,156.8256l-0.27467,46.24284"></path><path d="M237.48833,156.38876h5.38234"></path><path d="M243.80753,159.51265h-7.26275"></path><path d="M235.84325,162.63653h8.79112"></path><path d="M244.77677,165.76042h-9.18398"></path><path d="M245.38911,168.88431h-10.28724"></path><path d="M245.33255,172.0082h-10.38878"></path><path d="M234.63935,175.13208h11.1615"></path><path d="M234.64295,178.25597h10.99591"></path><path d="M245.3317,181.37986h-10.3882"></path><path d="M235.0584,184.50375h10.47427"></path><path d="M245.36569,187.62763h-10.41504"></path><path d="M245.42839,190.75152h-10.13451"></path><path d="M235.57195,194.22251h9.63335"></path><path d="M236.13291,197.69349h8.3862"></path><path d="M236.97525,201.16448h6.58285"></path><path d="M241.79226,204.63547h-3.54274"></path></g><g data-paper-data="{&quot;index&quot;:null}" stroke="#7f7f7f" stroke-width="0.5" stroke-linecap="round"><path d="M239.75656,205.68037l0.30132,-50.92485"></path><path d="M245.36237,174.04331l0.00029,-0.09923"></path><path d="M245.35969,174.94798l-0.00912,3.081"></path><path d="M245.34842,178.75665l-0.00534,1.80238"></path><path d="M245.33515,183.24471l-0.00417,1.40913"></path><path d="M245.32296,187.36457l-0.00001,0.00245"></path><path d="M234.65086,171.56551l-0.02951,9.93551"></path><path d="M234.6131,184.282l0.00543,-1.82886"></path><path d="M237.37556,156.5845l-0.13718,46.3663"></path><path d="M242.72342,157.21533l-0.27467,46.24284"></path><path d="M237.1874,156.77848h5.38234"></path><path d="M243.5066,159.90237h-7.26276"></path><path d="M235.54231,163.02626h8.79113"></path><path d="M244.47585,166.15015h-9.18398"></path><path d="M234.80094,169.27403h10.28724"></path><path d="M245.03162,172.39792h-10.38878"></path><path d="M234.3384,175.52181h11.1615"></path><path d="M234.34203,178.6457h10.99591"></path><path d="M245.03077,181.76958h-10.3882"></path><path d="M245.23174,184.89347h-10.47427"></path><path d="M234.64972,188.01736h10.41504"></path><path d="M245.12747,191.14125h-10.13452"></path><path d="M235.27102,194.61223h9.63335"></path><path d="M244.21818,198.08322h-8.3862"></path><path d="M236.67432,201.55421h6.58285"></path><path d="M237.9486,205.02519h3.54274"></path></g></g></g></svg>