<svg version="1.1" xmlns="http://www.w3.org/2000/svg" xmlns:xlink="http://www.w3.org/1999/xlink" width="132.5896" height="134.03814" viewBox="0,0,132.5896,134.03814"><g transform="translate(-176.09229,-117.02372)"><g data-paper-data="{&quot;isPaintingLayer&quot;:true}" fill-rule="nonzero" stroke="none" stroke-width="1" stroke-linecap="butt" stroke-linejoin="miter" stroke-miterlimit="10" stroke-dasharray="" stroke-dashoffset="0" style="mix-blend-mode: normal"><path d="M254.71427,195.86412c-7.07366,12.29193 -35.36829,30.38195 -35.36829,30.38195c-3.71077,-3.13096 -13.79943,-21.68482 -13.79943,-21.68482c-0.11596,0.11596 -7.76943,-6.26193 -7.76943,-6.26193c0,0 21.10502,-31.77348 39.54291,-32.58522c0,0 3.13096,8.00135 -0.34788,11.94405z" data-paper-data="{&quot;index&quot;:null}" fill="#4a3369"></path><g data-paper-data="{&quot;index&quot;:null}"><g fill="#a3b339"><path d="M273.9639,207.6922c4.75443,0.34788 5.56616,18.32194 1.97135,26.43925c-3.59481,8.11731 -12.87174,0.23192 -11.71212,-7.30558c1.15962,-7.53751 3.82673,-19.59751 9.74078,-19.13367z"></path><path d="M276.9789,228.5653c0.81173,2.20327 -1.04365,15.30693 -4.05866,16.35059c-3.015,1.04365 0.23192,-6.03 -1.62346,-6.37789c-1.85539,-0.34788 -6.03,7.07366 -8.34924,6.60981c-2.31923,-0.46385 4.29058,-6.72577 4.29058,-6.72577c0,0 -9.04501,6.72577 -10.55251,4.75443c-1.5075,-1.97135 7.76943,-6.26193 7.76943,-6.26193c0,0 -8.4652,2.66712 -9.9727,0.69577c-1.5075,-1.97135 4.29058,-2.89904 6.84174,-2.66712c2.55116,0.23192 3.24693,-4.5225 3.015,-8.11731"></path></g><path d="M253.20677,212.09874c10.08866,-8.4652 25.85944,-11.24828 23.07636,3.13096c-2.78308,14.37924 -28.52656,20.29328 -32.58522,18.09001c-7.07366,-3.71077 -0.57981,-12.63982 9.50885,-21.22098z" fill="#a3b339"></path><path d="M264.10716,199.11104c3.24693,7.76943 -8.23328,36.29599 -20.40925,34.32464c-12.17597,-1.97135 -10.20462,-20.64117 -4.17462,-32.9331c9.50885,-19.24963 21.33694,-9.16097 24.58386,-1.39154z" fill="#a3b339"></path><path d="M238.5956,202.47393c0,0 -0.11596,0.23192 -0.23192,0.69577c-0.11596,0.46385 -0.34788,1.15962 -0.57981,1.97135c-0.46385,1.73942 -1.15962,4.17462 -1.62346,7.18962c-0.46385,3.015 -0.92769,6.49385 -0.69577,10.20462c0.23192,1.85539 0.57981,3.71077 1.5075,5.33423c0.92769,1.62346 2.31923,2.78308 4.05866,3.47885l1.39154,0.46385l1.39154,0.34788l1.39154,0.34788l1.39154,0.23192c1.97135,0.23192 3.82673,0.11596 5.68212,-0.11596c3.71077,-0.46385 6.9577,-1.85539 9.62481,-3.36289c2.66712,-1.5075 4.75443,-3.015 6.03,-4.17462c1.39154,-1.15962 2.08731,-1.85539 2.08731,-1.85539c0,0 -0.57981,0.81173 -1.85539,2.08731c-0.57981,0.69577 -1.39154,1.39154 -2.43519,2.20327c-0.92769,0.81173 -2.08731,1.73942 -3.36289,2.55116c-2.55116,1.73942 -6.03,3.24693 -9.85674,4.05866c-1.97135,0.34788 -4.05866,0.46385 -6.14597,0.34788l-1.39154,-0.23192l-1.5075,-0.34788l-1.5075,-0.46385l-1.5075,-0.46385c-2.20327,-0.69577 -4.05866,-2.31923 -4.98635,-4.29058c-1.04365,-1.97135 -1.5075,-4.05866 -1.62346,-6.03c-0.11596,-1.97135 0,-3.9427 0.23192,-5.68212c0.23192,-1.73942 0.57981,-3.47885 0.92769,-4.87039c0.81173,-3.015 1.73942,-5.4502 2.43519,-7.07366c0.34788,-0.81173 0.69577,-1.5075 0.92769,-1.85539c0.11596,-0.46385 0.23192,-0.69577 0.23192,-0.69577z" fill="#687a27"></path><path d="M268.5137,205.02509c0,0 0.11596,0 0.34788,-0.11596c0.23192,0 0.57981,-0.11596 1.04365,-0.23192c0.46385,0 1.04365,0 1.73942,0c0.69577,0.11596 1.39154,0.23192 2.20327,0.69577c0.34788,0.11596 0.69577,0.46385 1.15962,0.69577c0.34788,0.34788 0.69577,0.57981 1.04365,0.92769c0.34788,0.34788 0.69577,0.69577 0.92769,1.15962c0.34788,0.46385 0.57981,0.92769 0.69577,1.39154c0.23192,0.46385 0.34788,0.92769 0.57981,1.5075c0.23192,0.46385 0.34788,1.04365 0.46385,1.5075c0.23192,1.04365 0.34788,2.08731 0.46385,3.13096c0.11596,1.04365 0.11596,2.08731 0.11596,3.13096c0,1.04365 -0.11596,2.08731 -0.11596,3.015c-0.11596,1.97135 -0.46385,3.82673 -0.69577,5.33423c-0.34788,1.5075 -0.69577,2.78308 -1.04365,3.71077c-0.11596,0.46385 -0.34788,0.81173 -0.46385,1.04365c-0.11596,0.11596 -0.11596,0.23192 -0.23192,0.23192c-0.11596,0 0,-0.11596 -0.11596,-0.11596c0,0 0,0 0.11596,0c0,0 0.11596,-0.11596 0.11596,-0.23192c0.11596,-0.23192 0.11596,-0.57981 0.11596,-1.04365c0.11596,-0.92769 0.23192,-2.20327 0.34788,-3.71077c0.11596,-1.5075 0.11596,-3.36289 0.11596,-5.33423c0,-0.92769 0,-1.97135 0,-3.015c0,-1.04365 -0.11596,-2.08731 -0.23192,-3.015c-0.11596,-1.04365 -0.23192,-1.97135 -0.34788,-3.015c-0.23192,-0.92769 -0.34788,-1.85539 -0.69577,-2.78308c-0.11596,-0.46385 -0.34788,-0.81173 -0.57981,-1.15962c-0.23192,-0.34788 -0.46385,-0.69577 -0.69577,-1.04365c-0.23192,-0.34788 -0.57981,-0.57981 -0.81173,-0.92769c-0.34788,-0.23192 -0.57981,-0.46385 -0.92769,-0.69577c-0.57981,-0.46385 -1.27558,-0.69577 -1.85539,-0.92769c-0.57981,-0.11596 -1.15962,-0.34788 -1.5075,-0.34788c-0.81173,0.23192 -1.27558,0.23192 -1.27558,0.23192z" fill="#687a27"></path><path d="M271.18082,238.53799c0,0 -0.11596,0.11596 -0.34788,0.34788c-0.23192,0.23192 -0.46385,0.57981 -0.69577,0.92769c-0.23192,0.46385 -0.57981,0.92769 -0.92769,1.39154c-0.34788,0.46385 -0.81173,1.04365 -1.27558,1.62346c-0.92769,1.04365 -2.08731,1.97135 -3.13096,2.43519c-0.57981,0.23192 -1.04365,0.23192 -1.39154,0.23192c-0.34788,-0.11596 -0.46385,-0.23192 -0.46385,-0.23192c0,0 0,0 0.11596,0c0.11596,0 0.23192,0 0.34788,-0.11596c0.23192,-0.11596 0.57981,-0.34788 0.81173,-0.69577c0.69577,-0.69577 1.39154,-1.73942 2.31923,-2.78308c0.46385,-0.46385 0.92769,-0.92769 1.39154,-1.39154c0.46385,-0.46385 1.04365,-0.81173 1.5075,-1.04365c0.46385,-0.23192 0.92769,-0.46385 1.27558,-0.46385c0.34788,-0.34788 0.46385,-0.23192 0.46385,-0.23192z" fill="#687a27"></path><path d="M267.23812,238.42203c0,0 -0.34788,0.69577 -1.15962,1.62346c-0.34788,0.46385 -0.81173,0.92769 -1.39154,1.39154c-0.57981,0.46385 -1.15962,0.92769 -1.85539,1.27558c-0.69577,0.34788 -1.39154,0.69577 -2.08731,0.92769c-0.34788,0.11596 -0.69577,0.23192 -1.04365,0.23192c-0.34788,0 -0.69577,0.11596 -1.04365,0.11596c-0.34788,0 -0.57981,0 -0.81173,-0.11596c-0.23192,-0.11596 -0.46385,-0.11596 -0.57981,-0.23192c-0.34788,-0.23192 -0.46385,-0.34788 -0.46385,-0.34788c0,0 0.23192,0 0.57981,0c0.11596,0 0.34788,-0.11596 0.57981,-0.11596c0.23192,0 0.46385,-0.11596 0.69577,-0.23192c0.23192,-0.11596 0.46385,-0.23192 0.81173,-0.34788c0.23192,-0.11596 0.57981,-0.34788 0.81173,-0.46385c0.57981,-0.34788 1.15962,-0.69577 1.85539,-1.04365c1.27558,-0.69577 2.55116,-1.39154 3.59481,-1.85539c0.69577,-0.57981 1.5075,-0.81173 1.5075,-0.81173z" fill="#687a27"></path><path d="M254.48234,237.6103c0,0 0.11596,0.11596 0.46385,0.11596c0.23192,0 0.69577,0 1.04365,-0.11596c0.46385,-0.11596 0.92769,-0.11596 1.5075,-0.23192c0.57981,-0.11596 1.15962,-0.23192 1.73942,-0.34788c1.27558,-0.23192 2.43519,-0.23192 3.47885,-0.23192c0.92769,0 1.62346,0.11596 1.62346,0.11596c0,0 -0.57981,0.46385 -1.39154,0.92769c-0.92769,0.46385 -2.08731,0.92769 -3.47885,1.04365c-0.69577,0.11596 -1.27558,0.11596 -1.97135,0.11596c-0.57981,0 -1.27558,-0.11596 -1.73942,-0.34788c-0.46385,-0.11596 -0.92769,-0.46385 -1.15962,-0.69577c-0.11596,-0.11596 -0.11596,-0.34788 -0.11596,-0.34788z" fill="#687a27"></path><path d="M264.10716,228.21741c0,0 0.34788,0.46385 0.57981,1.15962c0.23192,0.69577 0.34788,1.62346 0.11596,2.55116c-0.11596,0.46385 -0.23192,0.92769 -0.46385,1.39154c-0.23192,0.46385 -0.57981,0.81173 -0.81173,1.04365c-0.11596,0.11596 -0.34788,0.23192 -0.46385,0.23192c-0.11596,0.11596 -0.23192,0.11596 -0.46385,0.11596c-0.23192,0 -0.34788,0 -0.34788,0c0,0 0,-0.11596 0.11596,-0.34788c0,-0.11596 0.11596,-0.23192 0.11596,-0.34788c0,-0.11596 0.11596,-0.23192 0.11596,-0.34788c0.11596,-0.57981 0.23192,-1.27558 0.34788,-2.08731c0.11596,-0.81173 0.34788,-1.62346 0.57981,-2.20327c0.34788,-0.69577 0.57981,-1.15962 0.57981,-1.15962z" fill="#687a27"></path></g><g data-paper-data="{&quot;index&quot;:null}"><path d="M183.62979,157.94466c0,-5.05946 4.1015,-9.16097 9.16097,-9.16097c5.05946,0 9.16097,4.1015 9.16097,9.16097c0,5.05946 -4.1015,9.16097 -9.16097,9.16097c-5.05946,0 -9.16097,-4.1015 -9.16097,-9.16097z" fill="#a3b339"></path><path d="M184.55749,153.88601c0,0 0.11596,-0.34788 0.34788,-0.92769c0.23192,-0.57981 0.69577,-1.5075 1.5075,-2.31923c0.34788,-0.46385 0.92769,-0.92769 1.5075,-1.27558c0.57981,-0.34788 1.27558,-0.69577 1.97135,-0.92769c0.69577,-0.23192 1.5075,-0.34788 2.31923,-0.46385c0.81173,0 1.5075,0 2.43519,0.11596c0.34788,0.11596 0.69577,0.11596 1.04365,0.23192c0.46385,0.11596 0.81173,0.23192 1.15962,0.46385c0.34788,0.23192 0.69577,0.34788 1.04365,0.57981c0.34788,0.23192 0.69577,0.46385 0.92769,0.69577c1.15962,1.04365 1.85539,2.20327 2.31923,3.36289c0.46385,1.04365 0.69577,2.08731 0.69577,2.66712c0.11596,0.69577 0,1.04365 0,1.04365c0,0 -0.11596,-0.34788 -0.46385,-0.92769c-0.23192,-0.57981 -0.69577,-1.39154 -1.27558,-2.31923c-0.34788,-0.46385 -0.69577,-0.92769 -1.04365,-1.27558c-0.34788,-0.46385 -0.92769,-0.81173 -1.39154,-1.15962c-0.23192,-0.23192 -0.57981,-0.34788 -0.81173,-0.46385c-0.23192,-0.11596 -0.57981,-0.23192 -0.92769,-0.46385l-0.92769,-0.34788c-0.34788,-0.11596 -0.69577,-0.11596 -1.04365,-0.23192c-0.57981,-0.11596 -1.39154,-0.11596 -1.97135,-0.11596c-0.69577,0 -1.27558,0.11596 -1.97135,0.23192c-0.57981,0.11596 -1.15962,0.34788 -1.73942,0.57981c-0.57981,0.23192 -1.04365,0.57981 -1.39154,0.81173c-0.81173,0.57981 -1.5075,1.27558 -1.85539,1.73942c-0.23192,0.46385 -0.46385,0.69577 -0.46385,0.69577z" fill="#687a27"></path></g><path d="M180.03498,164.09062c0,0 0.11596,-0.11596 0.34788,-0.46385c0.23192,-0.34788 0.57981,-0.69577 1.04365,-1.27558c0.46385,-0.57981 1.04365,-1.15962 1.73942,-1.85539c0.69577,-0.69577 1.62346,-1.39154 2.66712,-2.08731c1.04365,-0.69577 2.20327,-1.39154 3.47885,-1.85539c1.27558,-0.57981 2.66712,-1.04365 4.17462,-1.39154c1.5075,-0.34788 3.015,-0.57981 4.63846,-0.69577c1.62346,-0.11596 3.24693,0 4.87039,0c3.13096,0.11596 6.37789,0.23192 9.39289,0.57981c1.5075,0.11596 3.015,0.46385 4.29058,0.81173c1.39154,0.34788 2.66712,0.81173 3.71077,1.39154c0.57981,0.34788 1.04365,0.57981 1.5075,0.92769c0.46385,0.34788 0.92769,0.57981 1.27558,0.92769c0.34788,0.34788 0.69577,0.57981 1.04365,0.92769c0.34788,0.34788 0.57981,0.57981 0.81173,0.81173c0.46385,0.46385 0.81173,0.92769 1.04365,1.27558c0.23192,0.34788 0.34788,0.46385 0.34788,0.46385c0,0 -0.11596,-0.11596 -0.46385,-0.34788c-0.34788,-0.23192 -0.69577,-0.57981 -1.27558,-1.04365c-0.23192,-0.23192 -0.57981,-0.46385 -0.92769,-0.69577c-0.34788,-0.23192 -0.69577,-0.46385 -1.15962,-0.69577c-0.81173,-0.46385 -1.73942,-0.92769 -2.89904,-1.39154c-1.04365,-0.34788 -2.31923,-0.81173 -3.59481,-1.04365c-1.27558,-0.23192 -2.66712,-0.46385 -4.17462,-0.57981c-1.5075,-0.11596 -3.015,-0.11596 -4.5225,-0.23192c-1.62346,0 -3.13096,-0.11596 -4.75443,-0.11596c-1.62346,-0.11596 -3.13096,-0.11596 -4.63846,0c-1.5075,0 -3.015,0.23192 -4.40654,0.46385c-1.39154,0.34788 -2.78308,0.69577 -4.05866,1.15962c-1.27558,0.46385 -2.43519,1.04365 -3.47885,1.5075c-1.04365,0.57981 -1.97135,1.15962 -2.78308,1.73942c-0.81173,0.57981 -1.39154,1.04365 -1.97135,1.5075c-0.69577,0.69577 -1.27558,1.27558 -1.27558,1.27558z" data-paper-data="{&quot;index&quot;:null}" fill="#687a27"></path><g data-paper-data="{&quot;index&quot;:null}"><path d="M176.09229,173.2516c0,-4.87039 6.9577,-17.04636 20.40925,-17.62617c13.45155,-0.57981 24.81579,-0.23192 32.23733,9.39289c7.53751,9.74078 35.83214,13.33559 47.66023,18.20597c11.82809,4.87039 17.5102,31.19368 12.06001,44.06542c-5.4502,12.87174 -48.70388,16.11867 -66.44601,-7.07366c-17.74213,-23.19232 -17.39424,-22.38059 -25.16367,-25.9754c-16.23463,-7.65347 -20.75713,-17.04636 -20.75713,-20.98905z" fill="#a3b339"></path><path d="M177.2519,178.46987c0,0 2.31923,0.23192 5.68212,0.92769c1.73942,0.34788 3.71077,0.81173 5.79808,1.5075c1.04365,0.34788 2.08731,0.69577 3.24693,1.04365c1.04365,0.34788 2.20327,0.81173 3.24693,1.15962c1.04365,0.46385 2.20327,0.92769 3.24693,1.39154c1.04365,0.46385 2.08731,0.92769 3.015,1.27558c0.92769,0.46385 1.97135,0.81173 2.89904,1.04365c0.92769,0.34788 1.85539,0.57981 2.66712,0.81173c1.62346,0.46385 3.015,0.69577 4.05866,0.69577c1.04365,0.11596 1.62346,0 1.62346,0c0,0 -0.57981,0.23192 -1.62346,0.34788c-1.04365,0.11596 -2.55116,0.11596 -4.29058,-0.11596c-1.73942,-0.23192 -3.71077,-0.69577 -5.79808,-1.39154c-1.04365,-0.34788 -2.08731,-0.81173 -3.13096,-1.15962c-1.04365,-0.34788 -2.08731,-0.81173 -3.13096,-1.27558c-4.29058,-1.62346 -8.58116,-3.13096 -11.82809,-4.29058c-3.47885,-1.04365 -5.68212,-1.97135 -5.68212,-1.97135z" fill="#687a27"></path><path d="M188.50018,170.35256c0,0 0,-0.11596 0,-0.23192c0,-0.11596 0.11596,-0.46385 0.23192,-0.81173c0.11596,-0.34788 0.46385,-0.57981 0.69577,-0.81173c0.34788,-0.23192 0.69577,-0.46385 1.04365,-0.69577c0.34788,-0.11596 0.81173,-0.23192 1.15962,-0.34788c0.23192,0 0.46385,0 0.57981,0c0.23192,0 0.34788,0.11596 0.57981,0.11596c0.11596,0 0.23192,0.11596 0.23192,0.11596c0.11596,0.11596 0.11596,0.23192 0.11596,0.23192c0,0.11596 0,0.34788 0,0.46385c-0.11596,0.23192 -0.23192,0.23192 -0.23192,0.23192c0,0 0,-0.11596 0,-0.23192c0,-0.11596 -0.11596,-0.11596 -0.11596,-0.11596h-0.11596h-0.11596c-0.46385,0 -1.15962,0.34788 -1.73942,0.57981c-0.69577,0.23192 -1.27558,0.57981 -1.73942,0.81173c-0.11596,0.11596 -0.23192,0.11596 -0.34788,0.23192c-0.11596,0.11596 -0.23192,0.11596 -0.23192,0.23192c0.11596,0.11596 0,0.23192 0,0.23192z" fill="#687a27"></path><path d="M181.42652,183.80411c0,0 0.23192,0.34788 0.92769,0.81173c0.57981,0.46385 1.5075,1.15962 2.66712,1.97135c1.15962,0.81173 2.66712,1.73942 4.29058,2.78308c1.73942,1.04365 3.59481,2.20327 5.79808,3.24693c2.20327,0.92769 4.75443,1.97135 7.18962,3.36289c2.43519,1.5075 4.75443,3.47885 6.84174,5.79808c2.08731,2.31923 4.05866,4.87039 5.79808,7.53751c1.85539,2.66712 3.71077,5.33423 5.79808,7.76943c2.08731,2.55116 4.17462,4.87039 6.60981,6.9577c2.31923,2.08731 4.87039,3.9427 7.42154,5.56616c5.21827,3.13096 10.55251,4.98635 15.30693,6.03c2.43519,0.46385 4.5225,0.81173 6.49385,1.04365c0.92769,0.11596 1.85539,0.23192 2.78308,0.23192c0.81173,0.11596 1.62346,0.11596 2.31923,0.11596c1.39154,0.11596 2.55116,0.11596 3.36289,0.11596c0.81173,0 1.15962,0 1.15962,0c0,0 -0.46385,0 -1.15962,0.11596c-0.81173,0 -1.85539,0.11596 -3.36289,0.11596c-0.69577,0 -1.5075,0 -2.31923,0c-0.81173,0 -1.85539,0 -2.78308,-0.11596c-1.97135,-0.11596 -4.29058,-0.34788 -6.72577,-0.69577c-4.87039,-0.81173 -10.55251,-2.55116 -15.88674,-5.56616c-2.66712,-1.5075 -5.33423,-3.36289 -7.76943,-5.56616c-2.43519,-2.20327 -4.75443,-4.63846 -6.84174,-7.18962c-2.08731,-2.55116 -3.9427,-5.21827 -5.79808,-7.88539c-1.85539,-2.66712 -3.59481,-5.21827 -5.56616,-7.42154c-1.97135,-2.20327 -4.05866,-4.29058 -6.37789,-5.79808c-2.31923,-1.5075 -4.75443,-2.55116 -6.9577,-3.59481c-2.20327,-1.15962 -4.05866,-2.43519 -5.68212,-3.59481c-1.62346,-1.15962 -3.015,-2.20327 -4.17462,-3.13096c-1.15962,-0.92769 -1.97135,-1.62346 -2.55116,-2.20327c-0.57981,-0.46385 -0.81173,-0.81173 -0.81173,-0.81173z" fill="#687a27"></path></g><g data-paper-data="{&quot;index&quot;:null}"><g fill="#a3b339"><path d="M300.63507,212.09874c4.63846,-0.46385 8.92904,16.9304 6.9577,25.51156c-1.97135,8.58116 -12.52386,2.66712 -12.87174,-4.98635c-0.34788,-7.65347 -0.11596,-19.82944 5.91404,-20.52521z"></path><path d="M307.36084,232.16011c1.15962,2.08731 1.85539,15.19097 -0.92769,16.81444c-2.78308,1.62346 -0.92769,-6.03 -2.78308,-6.03c-1.85539,0 -4.63846,8.11731 -6.9577,8.11731c-2.31923,0 3.015,-7.42154 3.015,-7.42154c0,0 -7.65347,8.34924 -9.50885,6.72577c-1.85539,-1.62346 6.49385,-7.65347 6.49385,-7.65347c0,0 -7.88539,4.17462 -9.74078,2.55116c-1.85539,-1.62346 3.71077,-3.71077 6.26193,-3.9427c2.55116,-0.23192 2.31923,-5.10231 1.39154,-8.58116"></path></g><path d="M281.03755,220.33202c8.23328,-10.20462 23.19232,-15.88674 23.19232,-1.27558c0,14.61116 -24.12002,25.27963 -28.52656,23.88809c-7.65347,-2.31923 -2.89904,-12.40789 5.33423,-22.61252z" fill="#a3b339"></path><path d="M289.27083,205.37297c4.63846,7.07366 -1.27558,37.22368 -13.56751,37.57157c-12.29193,0.34788 -13.91539,-18.32194 -10.32058,-31.54156c5.68212,-20.52521 19.24963,-12.87174 23.88809,-6.03z" fill="#a3b339"></path><path d="M264.91889,213.60625c0,0 -0.11596,0.23192 -0.11596,0.69577c-0.11596,0.46385 -0.11596,1.15962 -0.23192,2.08731c-0.23192,1.73942 -0.34788,4.29058 -0.23192,7.42154c0.11596,3.015 0.23192,6.60981 1.27558,10.20462c0.57981,1.73942 1.27558,3.47885 2.43519,4.87039c1.15962,1.39154 2.78308,2.31923 4.63846,2.66712l1.5075,0.23192l1.39154,0.11596h1.5075l1.5075,-0.11596c1.97135,-0.11596 3.82673,-0.57981 5.56616,-1.15962c3.47885,-1.15962 6.49385,-3.13096 8.81308,-5.10231c2.31923,-1.97135 4.05866,-3.82673 5.21827,-5.21827c1.15962,-1.39154 1.73942,-2.20327 1.73942,-2.20327c0,0 -0.46385,0.92769 -1.39154,2.43519c-0.46385,0.69577 -1.15962,1.62346 -1.97135,2.66712c-0.81173,0.92769 -1.73942,2.08731 -2.89904,3.13096c-2.20327,2.20327 -5.21827,4.40654 -8.92904,5.79808c-1.85539,0.69577 -3.82673,1.27558 -5.91404,1.39154l-1.62346,0.11596h-1.62346l-1.62346,-0.11596l-1.5075,-0.23192c-2.20327,-0.23192 -4.40654,-1.5075 -5.79808,-3.24693c-1.39154,-1.73942 -2.20327,-3.71077 -2.66712,-5.68212c-0.46385,-1.97135 -0.69577,-3.82673 -0.81173,-5.56616c-0.11596,-1.73942 -0.11596,-3.47885 0,-4.98635c0.23192,-3.13096 0.69577,-5.68212 1.04365,-7.42154c0.23192,-0.92769 0.34788,-1.5075 0.46385,-1.97135c0.11596,-0.57981 0.23192,-0.81173 0.23192,-0.81173z" fill="#687a27"></path><path d="M294.60506,210.59124c0,0 0.11596,-0.11596 0.34788,-0.11596c0.23192,-0.11596 0.57981,-0.23192 1.04365,-0.34788c0.46385,-0.11596 1.04365,-0.23192 1.73942,-0.34788c0.69577,0 1.39154,0 2.20327,0.23192c0.46385,0.11596 0.81173,0.23192 1.27558,0.46385c0.34788,0.23192 0.81173,0.46385 1.27558,0.69577c0.34788,0.23192 0.81173,0.57981 1.15962,0.92769c0.34788,0.34788 0.69577,0.81173 1.04365,1.15962c0.34788,0.46385 0.57981,0.92769 0.81173,1.39154c0.23192,0.46385 0.46385,0.92769 0.69577,1.39154c0.34788,1.04365 0.69577,1.97135 1.04365,3.015c0.23192,1.04365 0.46385,2.08731 0.69577,3.13096c0.23192,1.04365 0.34788,2.08731 0.46385,3.015c0.23192,1.97135 0.34788,3.82673 0.23192,5.4502c0,1.62346 -0.11596,2.89904 -0.23192,3.82673c-0.11596,0.46385 -0.11596,0.81173 -0.23192,1.04365c0,0.11596 -0.11596,0.23192 -0.11596,0.23192c-0.11596,0 -0.11596,-0.11596 -0.11596,-0.11596c0,0 0,0 0.11596,0c0,0 0.11596,-0.11596 0.11596,-0.23192c0,-0.23192 0,-0.57981 0,-1.04365c-0.11596,-0.92769 -0.23192,-2.20327 -0.46385,-3.71077c-0.23192,-1.5075 -0.46385,-3.36289 -0.81173,-5.21827c-0.11596,-0.92769 -0.34788,-1.97135 -0.57981,-2.89904c-0.23192,-1.04365 -0.46385,-1.97135 -0.69577,-3.015c-0.23192,-0.92769 -0.57981,-1.97135 -0.92769,-2.89904c-0.34788,-0.92769 -0.69577,-1.85539 -1.27558,-2.55116c-0.23192,-0.34788 -0.46385,-0.81173 -0.81173,-1.04365c-0.23192,-0.34788 -0.57981,-0.69577 -0.81173,-0.92769c-0.23192,-0.34788 -0.69577,-0.46385 -0.92769,-0.69577c-0.34788,-0.11596 -0.69577,-0.34788 -1.04365,-0.46385c-0.69577,-0.34788 -1.39154,-0.46385 -1.97135,-0.46385c-0.57981,0 -1.15962,-0.11596 -1.62346,0c-1.04365,-0.11596 -1.62346,0.11596 -1.62346,0.11596z" fill="#687a27"></path><path d="M303.65007,242.82857c0,0 -0.11596,0.11596 -0.23192,0.34788c-0.11596,0.23192 -0.34788,0.69577 -0.57981,1.04365c-0.23192,0.46385 -0.46385,0.92769 -0.69577,1.5075c-0.23192,0.57981 -0.57981,1.15962 -0.92769,1.73942c-0.69577,1.15962 -1.62346,2.31923 -2.66712,2.89904c-0.46385,0.34788 -1.04365,0.46385 -1.39154,0.46385c-0.34788,0 -0.46385,-0.23192 -0.46385,-0.11596c0,0 0,0 0.11596,0c0.11596,0 0.23192,-0.11596 0.34788,-0.11596c0.23192,-0.11596 0.46385,-0.46385 0.69577,-0.92769c0.46385,-0.81173 1.04365,-1.97135 1.73942,-3.13096c0.34788,-0.57981 0.69577,-1.15962 1.15962,-1.62346c0.46385,-0.57981 0.81173,-1.04365 1.27558,-1.39154c0.46385,-0.34788 0.81173,-0.57981 1.15962,-0.69577c0.23192,0 0.46385,0 0.46385,0z" fill="#687a27"></path><path d="M299.70738,243.52434c0,0 -0.23192,0.81173 -0.81173,1.73942c-0.23192,0.46385 -0.69577,1.04365 -1.15962,1.62346c-0.46385,0.57981 -1.04365,1.15962 -1.62346,1.62346c-0.57981,0.46385 -1.27558,0.92769 -1.97135,1.27558c-0.34788,0.11596 -0.69577,0.34788 -1.04365,0.46385c-0.34788,0.11596 -0.69577,0.23192 -0.92769,0.23192c-0.34788,0.11596 -0.57981,0.11596 -0.81173,0c-0.23192,0 -0.46385,0 -0.69577,-0.11596c-0.34788,-0.11596 -0.46385,-0.23192 -0.46385,-0.23192c0,0 0.23192,-0.11596 0.46385,-0.11596c0.11596,0 0.34788,-0.11596 0.57981,-0.23192c0.23192,-0.11596 0.34788,-0.23192 0.57981,-0.34788c0.23192,-0.11596 0.46385,-0.34788 0.69577,-0.46385c0.23192,-0.11596 0.46385,-0.34788 0.69577,-0.57981c0.46385,-0.46385 1.04365,-0.92769 1.62346,-1.39154c1.04365,-0.92769 2.20327,-1.85539 3.13096,-2.55116c1.04365,-0.57981 1.73942,-0.92769 1.73942,-0.92769z" fill="#687a27"></path><path d="M287.06756,245.14781c0,0 0.11596,0.11596 0.46385,0c0.23192,0 0.57981,-0.11596 1.04365,-0.34788c0.46385,-0.11596 0.92769,-0.34788 1.5075,-0.57981c0.57981,-0.23192 1.15962,-0.46385 1.73942,-0.57981c1.15962,-0.34788 2.43519,-0.69577 3.36289,-0.92769c0.92769,-0.23192 1.62346,-0.11596 1.62346,-0.11596c0,0 -0.46385,0.57981 -1.27558,1.15962c-0.81173,0.57981 -1.97135,1.27558 -3.24693,1.73942c-0.57981,0.23192 -1.27558,0.34788 -1.85539,0.46385c-0.57981,0.11596 -1.27558,0.11596 -1.73942,0c-0.57981,-0.11596 -0.92769,-0.23192 -1.27558,-0.46385c-0.34788,-0.11596 -0.34788,-0.34788 -0.34788,-0.34788z" fill="#687a27"></path><path d="M294.72103,234.13145c0,0 0.46385,0.34788 0.69577,1.04365c0.34788,0.57981 0.57981,1.5075 0.57981,2.55116c0,0.46385 -0.11596,0.92769 -0.23192,1.39154c-0.11596,0.46385 -0.34788,0.81173 -0.69577,1.15962c-0.11596,0.11596 -0.23192,0.23192 -0.46385,0.34788c-0.11596,0.11596 -0.23192,0.11596 -0.34788,0.23192c-0.23192,0.11596 -0.34788,0.11596 -0.34788,0.11596c0,0 0,-0.11596 0.11596,-0.34788c0,-0.11596 0,-0.23192 0.11596,-0.34788c0,-0.11596 0,-0.23192 0,-0.46385c0,-0.57981 0,-1.39154 0,-2.20327c0,-0.81173 0.11596,-1.62346 0.23192,-2.31923c0.23192,-0.69577 0.34788,-1.15962 0.34788,-1.15962z" fill="#687a27"></path><path d="M267.58601,180.44122c0,0 1.04365,0 2.89904,0.34788c0.92769,0.23192 1.97135,0.46385 3.24693,0.81173c1.27558,0.46385 2.66712,0.92769 4.05866,1.73942c1.39154,0.81173 2.89904,1.85539 4.17462,3.13096c1.27558,1.39154 2.55116,3.015 3.47885,4.87039c1.73942,3.59481 3.47885,7.53751 4.63846,11.71212c0.57981,2.08731 1.04365,4.17462 1.27558,6.37789c0.23192,2.08731 0.34788,4.17462 0.23192,6.26193c-0.23192,4.05866 -1.27558,7.76943 -2.43519,10.78443c-0.57981,1.5075 -1.27558,2.78308 -1.85539,3.9427c-0.57981,1.15962 -1.27558,2.08731 -1.73942,2.89904c-0.46385,0.81173 -0.92769,1.39154 -1.27558,1.73942c-0.34788,0.34788 -0.46385,0.57981 -0.46385,0.57981c0,0 0.46385,-0.92769 1.39154,-2.55116c0.46385,-0.81173 0.92769,-1.85539 1.39154,-3.015c0.46385,-1.15962 1.04365,-2.55116 1.5075,-4.05866c0.46385,-1.5075 0.92769,-3.13096 1.27558,-4.87039c0.34788,-1.73942 0.57981,-3.59481 0.57981,-5.56616c0,-1.97135 0,-3.9427 -0.34788,-5.91404c-0.23192,-1.97135 -0.69577,-4.05866 -1.27558,-6.03c-1.15962,-4.05866 -2.66712,-7.88539 -4.29058,-11.4802c-0.81173,-1.73942 -1.85539,-3.24693 -3.015,-4.63846c-1.15962,-1.27558 -2.43519,-2.31923 -3.82673,-3.24693c-2.55116,-1.73942 -5.10231,-2.66712 -6.84174,-3.13096c-1.62346,-0.57981 -2.78308,-0.69577 -2.78308,-0.69577z" fill="#687a27"></path></g><g data-paper-data="{&quot;index&quot;:null}" fill="#969330"><path d="M284.63237,203.98143c-3.13096,2.31923 -4.75443,-4.05866 -1.27558,-6.9577c3.015,-2.66712 4.29058,4.63846 1.27558,6.9577z"></path><path d="M272.57236,209.08374c-4.98635,1.27558 -6.9577,-6.84174 -1.5075,-9.39289c5.68212,-2.66712 6.49385,8.11731 1.5075,9.39289z"></path><path d="M273.9639,195.63219c-3.82673,-2.78308 -2.31923,-10.32058 3.13096,-7.76943c5.4502,2.66712 6.72577,14.84309 -3.13096,7.76943z"></path></g><path d="M205.54654,204.56124c0,0 0.81173,-0.11596 2.20327,-0.46385c1.39154,-0.23192 3.36289,-0.81173 5.68212,-1.5075c2.31923,-0.69577 4.98635,-1.73942 7.65347,-3.13096c1.39154,-0.69577 2.66712,-1.5075 4.05866,-2.31923c1.27558,-0.92769 2.55116,-1.73942 3.82673,-2.89904c1.27558,-1.04365 2.31923,-2.20327 3.36289,-3.36289c0.92769,-1.15962 1.97135,-2.43519 2.66712,-3.71077c0.81173,-1.27558 1.39154,-2.55116 1.97135,-3.82673c0.57981,-1.27558 0.92769,-2.55116 1.39154,-3.59481c0.11596,-0.57981 0.34788,-1.15962 0.46385,-1.62346c0.11596,-0.57981 0.34788,-1.04365 0.34788,-1.5075c0.23192,-0.92769 0.34788,-1.85539 0.46385,-2.55116c0.23192,-1.39154 0.34788,-2.20327 0.34788,-2.20327c0,0 0,0.81173 0,2.20327c0,0.69577 -0.11596,1.62346 -0.11596,2.55116c0,1.04365 -0.23192,2.08731 -0.46385,3.36289c-0.11596,0.57981 -0.34788,1.27558 -0.46385,1.85539c-0.11596,0.69577 -0.46385,1.27558 -0.69577,1.97135c-0.46385,1.39154 -1.04365,2.78308 -1.85539,4.17462c-0.81173,1.39154 -1.62346,2.78308 -2.66712,4.05866c-1.04365,1.27558 -2.20327,2.55116 -3.47885,3.59481c-1.27558,1.15962 -2.66712,2.08731 -4.05866,3.015c-1.39154,0.81173 -2.78308,1.62346 -4.29058,2.20327c-1.39154,0.69577 -2.89904,1.15962 -4.17462,1.62346c-1.39154,0.46385 -2.66712,0.81173 -3.82673,1.04365c-2.55116,0.57981 -4.63846,0.81173 -6.03,0.92769c-1.39154,0.11596 -2.31923,0.11596 -2.31923,0.11596z" data-paper-data="{&quot;index&quot;:null}" fill="#4a3369"></path><path d="M241.6106,172.09199c0,0 3.24693,-0.46385 8.00135,-0.11596c1.15962,0 2.55116,0.23192 3.9427,0.34788c1.39154,0.23192 2.78308,0.34788 4.29058,0.69577c1.5075,0.34788 3.015,0.57981 4.5225,1.15962c1.5075,0.46385 3.015,0.92769 4.63846,1.5075c1.5075,0.46385 3.015,1.15962 4.5225,1.85539c0.69577,0.23192 1.39154,0.69577 2.08731,1.04365c0.69577,0.34788 1.39154,0.69577 2.08731,1.04365c1.39154,0.69577 2.55116,1.5075 3.71077,2.20327c1.15962,0.69577 2.20327,1.5075 3.24693,2.20327c0.92769,0.69577 1.85539,1.39154 2.66712,1.97135c0.69577,0.69577 1.39154,1.15962 1.85539,1.62346c1.04365,0.92769 1.62346,1.5075 1.62346,1.5075c0,0 -0.69577,-0.46385 -1.85539,-1.15962c-0.57981,-0.34788 -1.27558,-0.81173 -2.08731,-1.39154c-0.81173,-0.57981 -1.73942,-1.04365 -2.78308,-1.62346c-1.04365,-0.57981 -2.08731,-1.27558 -3.36289,-1.85539c-1.27558,-0.57981 -2.43519,-1.39154 -3.82673,-1.97135c-1.39154,-0.57981 -2.66712,-1.27558 -4.17462,-1.85539c-1.39154,-0.57981 -2.89904,-1.27558 -4.40654,-1.73942c-1.5075,-0.57981 -3.015,-1.04365 -4.5225,-1.5075c-1.5075,-0.46385 -3.015,-0.81173 -4.40654,-1.27558c-1.39154,-0.34788 -2.78308,-0.69577 -4.17462,-0.92769c-1.39154,-0.23192 -2.55116,-0.57981 -3.82673,-0.69577c-4.5225,-0.92769 -7.76943,-1.04365 -7.76943,-1.04365z" data-paper-data="{&quot;index&quot;:null}" fill="#4a3369"></path><path d="M244.85753,229.02914c0,0 0.92769,-0.11596 2.66712,-0.46385c0.81173,-0.11596 1.85539,-0.34788 2.89904,-0.69577c1.15962,-0.34788 2.43519,-0.69577 3.71077,-1.15962c2.66712,-0.92769 5.79808,-2.20327 8.92904,-4.05866c1.62346,-0.81173 3.13096,-1.85539 4.63846,-2.89904c1.5075,-1.04365 3.015,-2.20327 4.40654,-3.59481c1.39154,-1.27558 2.78308,-2.55116 4.05866,-3.9427c0.57981,-0.69577 1.15962,-1.39154 1.85539,-2.08731c0.57981,-0.69577 1.15962,-1.39154 1.62346,-2.20327c1.04365,-1.5075 1.97135,-2.89904 2.89904,-4.29058c0.46385,-0.69577 0.81173,-1.39154 1.15962,-2.08731c0.34788,-0.69577 0.81173,-1.27558 1.04365,-1.97135c0.57981,-1.27558 1.27558,-2.43519 1.73942,-3.59481c0.46385,-1.04365 0.92769,-1.97135 1.15962,-2.78308c0.57981,-1.62346 1.04365,-2.43519 1.04365,-2.43519c0,0 -0.23192,0.92769 -0.69577,2.55116c-0.23192,0.81173 -0.57981,1.85539 -0.92769,2.89904c-0.34788,1.15962 -0.81173,2.43519 -1.39154,3.71077c-0.57981,1.39154 -1.15962,2.78308 -1.97135,4.29058c-0.81173,1.5075 -1.73942,3.015 -2.66712,4.5225c-1.04365,1.5075 -2.20327,3.015 -3.47885,4.5225c-1.27558,1.39154 -2.66712,2.89904 -4.17462,4.17462c-1.5075,1.27558 -3.015,2.55116 -4.63846,3.59481c-1.62346,1.04365 -3.24693,2.08731 -4.87039,2.89904c-1.62346,0.81173 -3.24693,1.5075 -4.87039,2.20327c-1.62346,0.57981 -3.13096,1.04365 -4.5225,1.39154c-2.78308,0.69577 -5.21827,1.04365 -6.9577,1.15962c-1.73942,0.46385 -2.66712,0.34788 -2.66712,0.34788z" data-paper-data="{&quot;index&quot;:null}" fill="#4a3369"></path><path d="M207.28596,205.72086c0,0 2.31923,1.04365 5.68212,2.89904c1.73942,0.92769 3.59481,1.97135 5.68212,3.24693c2.08731,1.15962 4.29058,2.55116 6.37789,3.82673c1.04365,0.69577 2.20327,1.39154 3.24693,2.08731c1.04365,0.69577 2.08731,1.39154 3.13096,1.97135c1.97135,1.27558 3.82673,2.55116 5.4502,3.71077c3.13096,2.20327 5.10231,3.82673 5.10231,3.82673c0,0 -2.31923,-1.04365 -5.68212,-2.89904c-1.73942,-0.92769 -3.59481,-1.97135 -5.68212,-3.24693c-1.04365,-0.57981 -2.08731,-1.15962 -3.13096,-1.85539c-1.04365,-0.69577 -2.20327,-1.27558 -3.24693,-1.97135c-2.20327,-1.39154 -4.29058,-2.66712 -6.26193,-4.05866c-1.97135,-1.27558 -3.82673,-2.55116 -5.4502,-3.71077c-3.13096,-2.20327 -5.21827,-3.82673 -5.21827,-3.82673z" data-paper-data="{&quot;index&quot;:null}" fill="#4a3369"></path><g data-paper-data="{&quot;index&quot;:null}"><path d="M222.4608,136.57883c2.62557,-6.27698 -0.15426,-10.81101 0.24461,-12.42449c0.71127,-3.83542 3.86668,4.22602 3.86668,4.22602c0,0 -1.86777,-7.84029 -0.72605,-10.4145c1.14172,-2.57422 4.21437,8.44124 4.21437,8.44124c0,0 0.19341,-6.59579 2.10773,-9.03731c1.91432,-2.44154 0.75301,8.8361 0.75301,8.8361c5.02244,-12.39531 4.45898,-3.98324 2.65995,-0.73039c-1.79904,3.25282 -6.96096,19.08715 -9.39033,21.44019" fill="#a3b339"></path><path d="M214.97793,204.15613c-7.56045,-7.23504 -11.63534,-19.11525 -9.90318,-31.67999c1.73216,-12.56474 12.38595,-29.53346 16.49816,-36.84132c4.79742,-8.67425 10.29389,-5.35558 7.87191,4.12247c-2.45082,9.27519 -10.09882,27.94751 -8.89023,34.6852c1.2086,6.73767 2.18293,8.29019 5.27886,14.16476c3.06712,5.67171 -3.15192,22.90752 -10.85553,15.54892z" fill="#a3b339"></path><path d="M222.73606,126.13841c0,0 0.14317,0.12351 0.34399,0.65273c0.20082,0.5292 0.43044,1.26122 0.71772,2.39892c0.08646,0.60847 0.17293,1.21699 0.17385,2.10762c0.00093,0.89063 -0.22686,1.93985 -0.62664,2.66272c-0.37097,0.92567 -0.79956,1.44571 -1.19936,2.16854c-0.42862,0.52002 -0.71404,1.16359 -1.22818,1.96574c-1.71351,2.97072 -3.59807,6.50571 -5.56817,10.32281c-0.97064,2.00997 -1.94128,4.01994 -3.02628,6.1092c-0.97065,2.00997 -1.91248,4.22278 -2.8543,6.43559c-0.94182,2.2128 -1.74046,4.54912 -2.53911,6.88547c-0.34215,1.12851 -0.68429,2.25703 -0.88327,3.50909c-0.17107,0.56423 -0.19898,1.25204 -0.25569,1.73701c-0.0279,0.68779 -0.19896,1.25207 -0.22686,1.93984c-0.19806,2.14268 -0.2241,4.61171 -0.05026,6.71933c0.17384,2.10764 0.46205,4.13593 0.83578,5.88212c0.74747,3.49237 1.75156,6.13834 2.38282,7.92877c0.74563,1.71111 1.2328,2.48736 1.2328,2.48736c0,0 -0.14318,-0.12354 -0.45835,-0.57345c-0.28634,-0.24705 -0.63036,-0.89978 -1.11752,-1.67607c-0.85998,-1.63185 -2.06395,-3.91638 -3.06896,-7.45298c-0.48809,-1.66686 -0.91946,-3.81873 -1.23648,-6.04988c-0.20267,-2.31044 -0.43416,-4.8237 -0.2082,-7.65417c0.0279,-0.68778 0.0846,-1.17276 0.22686,-1.93984c0.0279,-0.68777 0.17014,-1.45486 0.3124,-2.22196c0.28452,-1.53418 0.62666,-2.66271 0.93998,-3.99404c0.76982,-2.53915 1.68282,-4.95481 2.59584,-7.37044c0.91302,-2.41563 1.998,-4.50489 2.93982,-6.71768c1.085,-2.08926 2.05565,-4.09923 3.14065,-6.18851c2.08446,-3.8964 4.11221,-7.30782 5.85452,-10.07572c0.39979,-0.72285 0.91393,-1.52502 1.34254,-2.04505c0.42861,-0.52002 0.8572,-1.04003 1.17145,-1.48077c0.6285,-0.88142 0.6843,-2.25702 0.65455,-3.35047c-0.02974,-1.09345 -0.14502,-1.90477 -0.34584,-2.43399c0.08553,-0.28211 0.0279,-0.68777 0.0279,-0.68777z" fill="#687a27"></path><path d="M228.7038,142.49926c0,0 -0.9409,3.10345 -2.30947,7.61749c-0.68429,2.25704 -1.4253,4.99903 -2.28066,7.82033c-0.741,2.74199 -1.53873,5.96896 -2.10774,9.03733c-0.2845,1.53418 -0.569,3.06837 -0.6248,4.44397c-0.17014,1.4549 -0.14041,2.54835 0.20451,4.09168c0.17291,1.21701 0.48902,2.55753 0.7763,3.69521c0.28728,1.1377 0.68891,2.1961 0.94737,3.13094c0.66009,1.99328 1.26253,3.58085 1.77852,4.55994c0.40163,1.0584 0.74563,1.71113 0.74563,1.71113c0,0 -1.57495,-1.35887 -3.32373,-4.82535c-0.48716,-0.77627 -0.88879,-1.83466 -1.31924,-3.09588c-0.43046,-1.26122 -0.83209,-2.31963 -1.20583,-4.06582c-0.05763,-0.40568 -0.11528,-0.81133 -0.17291,-1.21699l-0.08646,-0.60848c-0.05763,-0.40565 -0.05764,-0.40565 -0.11528,-0.81133c-0.11529,-0.81134 -0.00184,-1.78126 -0.00277,-2.67187c0.1125,-1.86055 0.3682,-3.59754 0.76706,-5.21104c0.65455,-3.35047 1.59545,-6.4539 2.56517,-9.3545c0.42768,-1.41066 0.99853,-2.69774 1.42622,-4.1084c0.4565,-1.20784 0.91301,-2.41564 1.39832,-3.42063c1.65493,-4.26698 2.93982,-6.71767 2.93982,-6.71767z" fill="#687a27"></path><path d="M236.77674,119.74446c0,0 -0.11434,0.0793 -0.2287,0.15859c-0.11435,0.07931 -0.19989,0.36144 -0.39979,0.72287c-0.17106,0.56423 -0.54204,1.48994 -0.91301,2.41563c-0.37096,0.92567 -0.88509,1.72784 -1.45688,2.12433c-0.42861,0.52 -0.88603,0.83719 -0.88603,0.83719c0,0 -0.11529,-0.81131 0.1125,-1.86053c0.11343,-0.96991 0.42678,-2.30127 0.91209,-3.30626c0.28544,-0.64356 0.59969,-1.08426 0.94275,-1.32216c0.31424,-0.44072 0.6573,-0.67862 1.0292,-0.71368c0.37189,-0.03505 0.65824,0.212 0.80141,0.33557c0.17199,0.32635 0.08646,0.60848 0.08646,0.60848z" fill="#687a27"></path><path d="M232.16815,117.36979c0,0 0.00093,0.89063 -0.14132,1.65769c-0.11342,0.96992 -0.34122,2.01915 -0.56901,3.06837c-0.22778,1.04923 -0.4844,1.89559 -0.85536,2.82128c-0.19989,0.36144 -0.2566,0.8464 -0.34214,1.12855c-0.08554,0.28212 -0.19989,0.36141 -0.19989,0.36141c0,0 -0.02882,-0.20283 -0.172,-0.32636c-0.14319,-0.12353 -0.22964,-0.73202 -0.28728,-1.13766c-0.08646,-0.60847 -0.14411,-1.01415 -0.11621,-1.70196c0.0279,-0.68777 0.17015,-1.45486 0.34122,-2.01912c0.31332,-1.33135 0.91302,-2.41564 1.45597,-3.01495c0.51413,-0.80215 0.88602,-0.83719 0.88602,-0.83719z" fill="#687a27"></path><path d="M225.81723,117.763c0,0 0.02881,0.20283 0.08646,0.60847c0.05763,0.40567 0.11528,0.81135 0.17291,1.21701c0.1441,1.01418 0.40256,1.94901 0.46112,3.2453c0.08645,0.60847 0.05855,1.2963 0.1162,1.70196c-0.02791,0.68779 0.02974,1.09347 0.00184,1.78124c0.02975,1.09345 -0.11251,1.86053 -0.11251,1.86053c0,0 -0.42953,-0.37058 -0.88788,-0.94403c-0.48716,-0.77629 -0.77444,-1.91397 -0.97619,-3.3338c-0.08647,-0.60847 -0.08739,-1.4991 -0.05949,-2.18691c0.02789,-0.68777 0.17014,-1.45488 0.34122,-2.01914c0.17106,-0.56423 0.37096,-0.92567 0.57085,-1.2871c0.17108,-0.56424 0.28544,-0.64356 0.28544,-0.64356z" fill="#687a27"></path></g><g data-paper-data="{&quot;index&quot;:null}"><path d="M196.50153,155.50947c0,0 13.33559,-21.80078 29.33829,-35.9481c0,0 2.43519,37.22368 0.92769,43.71753c0,0 -11.59616,-10.43655 -30.26598,-7.76943z" fill="#6d4b9b"></path><path d="M226.76752,163.2789c0,0 -0.23192,-2.55116 -0.46385,-6.49385c-0.11596,-1.97135 -0.23192,-4.17462 -0.34788,-6.60981c0,-1.15962 -0.11596,-2.43519 -0.11596,-3.71077c0,-1.27558 -0.11596,-2.55116 -0.11596,-3.82673c0,-1.27558 0,-2.55116 0,-3.82673c0,-1.27558 0,-2.55116 0,-3.71077c0,-2.43519 0,-4.63846 0,-6.60981c0,-1.97135 0.11596,-3.59481 0.11596,-4.75443c0,-1.15962 0.11596,-1.73942 0.11596,-1.73942c0,0 0.46385,2.55116 0.92769,6.49385c0.23192,1.97135 0.34788,4.17462 0.57981,6.60981c0.11596,2.43519 0.23192,4.98635 0.34788,7.65347c0,2.55116 0,5.21827 0,7.65347c0,2.43519 -0.11596,4.75443 -0.23192,6.60981c-0.46385,3.59481 -0.81173,6.26193 -0.81173,6.26193z" fill="#4a3369"></path><path d="M203.69115,146.69636c0,0 1.73942,-3.9427 3.13096,-5.33423c0,0 0,-0.11596 -0.23192,-0.46385c1.04365,-1.39154 2.20327,-2.78308 3.36289,-4.29058c0.11596,0 0.23192,0.11596 0.34788,0.23192c0,0 3.13096,-3.59481 4.40654,-4.87039c0,0 1.27558,5.4502 0.46385,6.72577c0,0 5.56616,1.15962 7.42154,2.66712c0,0 -5.56616,3.13096 -7.76943,2.43519c0,0 0.57981,4.5225 -0.34788,6.14597c0,0 -3.9427,-3.9427 -4.40654,-5.4502c0,0 -2.08731,1.27558 -6.37789,2.20327z" fill="#e0c448"></path><path d="M196.50153,155.50947c0,0 1.39154,-2.55116 3.71077,-6.26193c1.15962,-1.85539 2.55116,-3.9427 4.05866,-6.26193c0.81173,-1.15962 1.62346,-2.31923 2.43519,-3.47885c0.81173,-1.15962 1.73942,-2.31923 2.66712,-3.47885c1.85539,-2.31923 3.59481,-4.5225 5.4502,-6.60981c0.92769,-1.04365 1.85539,-1.97135 2.66712,-2.89904c0.81173,-0.92769 1.73942,-1.73942 2.55116,-2.43519c0.81173,-0.81173 1.5075,-1.39154 2.31923,-1.97135c0.69577,-0.57981 1.27558,-1.04365 1.85539,-1.39154c1.04365,-0.69577 1.62346,-1.15962 1.62346,-1.15962c0,0 -0.57981,0.46385 -1.39154,1.39154c-0.46385,0.46385 -0.92769,1.04365 -1.62346,1.62346c-0.57981,0.57981 -1.27558,1.39154 -1.97135,2.20327c-1.39154,1.62346 -3.015,3.59481 -4.75443,5.68212c-0.81173,1.04365 -1.73942,2.20327 -2.55116,3.24693c-0.92769,1.15962 -1.73942,2.31923 -2.66712,3.36289c-1.73942,2.31923 -3.59481,4.63846 -5.21827,6.72577c-1.62346,2.20327 -3.24693,4.17462 -4.5225,5.91404c-2.78308,3.59481 -4.63846,5.79808 -4.63846,5.79808z" fill="#4a3369"></path></g><g data-paper-data="{&quot;index&quot;:null}"><path d="M204.18151,198.0182c0,0 2.94722,-5.0227 0.91364,-10.08461c0,0 17.95071,-15.74961 12.19178,-38.34358l4.75052,4.59735c0,0 24.94053,-12.67351 51.6609,-4.51764c0,0 8.35822,37.07179 -23.56945,54.558z" fill="#6d4b9b"></path><path d="M262.20352,162.2466c0,0 -3.03822,-1.93536 -4.10931,-3.74186c0,0 3.83153,-1.09565 5.05898,-0.63242c0,0 1.13059,-3.69251 1.65172,-5.0734c0,0 2.61262,3.52759 2.51415,4.71742c0,0 4.29182,-0.92193 6.24881,-0.53395c0,0 -3.01234,4.03406 -4.89408,4.37563c0,0 2.00904,3.03688 1.79477,4.53357c0,0 -4.14266,-1.5634 -4.93731,-2.47679c0,0 -1.20289,1.56181 -3.82725,3.63888c0.04777,0.10566 0.02614,-3.32053 0.49951,-4.80709z" fill="#e0c448"></path><path d="M242.97284,193.46398c0.15342,0.05791 2.38553,-2.6054 3.66368,-3.43767c0,0 -1.05801,-3.46676 -0.82347,-5.48165c0,0 3.62447,1.54312 4.3033,2.76337c0,0 3.24821,-2.10456 4.46846,-2.78339c0,0 -0.27803,4.45247 -1.08575,5.19934c0,0 3.91105,2.17712 5.09794,3.67676c0,0 -4.92583,1.20852 -6.54554,0.15904c0,0 -0.44882,3.5116 -1.58368,4.66087c0,0 -2.13204,-3.87208 -2.18702,-5.11982c0,0 -1.93964,0.49499 -5.30794,0.36317z" fill="#e0c448"></path><path d="M238.21426,165.20027c0,0 -2.71107,-2.33777 -3.46516,-4.28754c0,0 3.96467,-0.51953 5.13422,0.09713c0,0 1.69655,-3.56656 2.31322,-4.73612c0,0 2.13203,3.87208 1.77447,5.05177c0,0 4.47274,-0.24016 6.20826,0.50244c0,0 -3.61593,3.54334 -5.53529,3.52013c0,0 1.4807,3.2757 1.00733,4.76226c0,0 -3.80538,-2.22489 -4.54212,-3.29171c0,0 -1.40411,1.39823 -4.32518,3.10039c0.15343,0.0579 0.60225,-3.45369 1.43025,-4.71877z" fill="#e0c448"></path><path d="M224.80408,189.58714c-0.01014,0.2591 -2.88479,-1.87746 -3.61139,-3.20338c0,0 -3.37123,1.26936 -5.38613,1.0348c0,0 1.3897,-3.68237 2.56218,-4.46687c0,0 -2.31588,-3.15269 -3.10039,-4.32517c0,0 4.46261,0.01894 5.31515,0.77889c0,0 1.87026,-4.02685 3.36988,-5.21375c0,0 1.41985,4.83029 0.52382,6.50791c0,0 3.56949,0.29539 4.671,1.32458c0,0 -3.67089,2.29562 -5.0243,2.39835c0,0 0.60066,1.89189 0.68018,5.16465z" fill="#e0c448"></path><path d="M224.65592,154.91259c0,0 0.56889,-1.27521 1.18556,-2.44477c2.63156,-0.93501 6.47323,-2.28974 11.18771,-3.40273c0.41252,0.06804 0.76717,0.28951 1.01612,0.55875c0,0 -3.77655,2.34338 -5.02429,2.39835c0,0 0.55289,1.78622 0.68018,5.16465c0,0 -2.82687,-2.03089 -3.65915,-3.30904c0,0 -3.37122,1.26936 -5.38612,1.0348z" fill="#e0c448"></path><path d="M239.02816,202.75532l-12.49176,-1.73443c-0.39225,-0.58625 -0.73674,-1.06682 -0.88003,-1.38382c0,0 4.46261,0.01895 5.31515,0.7789c0,0 1.87027,-4.02686 3.36989,-5.21376c0,0 1.41985,4.83029 0.52381,6.50791c0,0 2.74443,0.1593 4.16295,1.0452z" fill="#e0c448"></path><path d="M204.1815,198.0182c0,0 0.69191,-0.44002 1.81663,-1.3302c1.17249,-0.7845 2.73002,-2.12483 4.55679,-3.71412c1.82677,-1.58929 3.82725,-3.63887 5.68444,-6.00546c0.98143,-1.20718 1.80943,-2.47226 2.7431,-3.78511c0.78024,-1.37075 1.60824,-2.63582 2.29293,-4.21791c0.73247,-1.47641 1.20584,-2.96297 1.67921,-4.44953c0.3677,-1.43879 0.79331,-3.031 0.90191,-4.47994c0.21426,-1.4967 0.2172,-2.89787 0.22014,-4.29903c0.00294,-1.40117 -0.20547,-2.7068 -0.21267,-3.84887c-0.13316,-0.5761 -0.16065,-1.19996 -0.24603,-1.6704c-0.13315,-0.5761 -0.11287,-1.0943 -0.30393,-1.51697c-0.17077,-0.94086 -0.44722,-1.83398 -0.62813,-2.51575c-0.36184,-1.36354 -0.59052,-2.15098 -0.59052,-2.15098c0,0 0.33434,0.73968 0.90751,2.00769c0.28658,0.63401 0.56304,1.52711 0.94515,2.37246c0.42988,0.95101 0.64842,1.99755 0.96249,3.25543c0.13315,0.5761 0.2084,1.30563 0.34155,1.88174c0.18092,0.68177 0.10274,1.35341 0.17799,2.08294c0.15049,1.45907 0.19533,2.96591 0.02882,4.56827c-0.1665,1.60236 -0.333,3.20472 -0.75861,4.79695c-0.4256,1.59222 -0.95688,3.2322 -1.68935,4.70862c-0.6847,1.58209 -1.5706,3.0006 -2.4565,4.41911c-0.93367,1.31285 -1.86733,2.62569 -3.00219,3.77496c-0.98143,1.20718 -2.16406,2.25079 -3.13535,3.19886c-1.07695,0.99585 -2.09602,1.83825 -3.05716,2.52722c-2.08588,1.57915 -3.89236,2.65024 -5.11261,3.32907c-1.22025,0.67883 -2.06559,1.06095 -2.06559,1.06095z" fill="#4a3369"></path><path d="M223.67022,153.57655c0,0 2.76764,-1.76007 7.24331,-3.40139c1.05668,-0.47764 2.42022,-0.83948 3.736,-1.30698c1.36354,-0.36184 2.67932,-0.82934 4.1963,-1.13326c1.51697,-0.30394 2.98618,-0.71353 4.59868,-0.80612c1.56475,-0.19826 3.12948,-0.39654 4.84765,-0.53689c1.56474,-0.19826 3.225,-0.18518 4.88527,-0.17211c0.72954,-0.07525 1.5546,0.06083 2.3319,0.09125c0.7773,0.03042 1.5546,0.06083 2.3319,0.09125c1.55459,0.06083 2.94563,0.32286 4.28888,0.47923c1.34326,0.15636 2.62862,0.46616 3.86622,0.67029c1.13192,0.25189 2.26385,0.50379 3.24235,0.69778c0.9206,0.34742 1.74566,0.48351 2.35939,0.71512c1.33312,0.41546 2.10028,0.70498 2.10028,0.70498c0,0 -0.82506,-0.1361 -2.16833,-0.29246c-0.67163,-0.07817 -1.49669,-0.21426 -2.47519,-0.40825c-0.97849,-0.19399 -2.01489,-0.23455 -3.20472,-0.33301c-1.18983,-0.09846 -2.42743,-0.30258 -3.8286,-0.30552c-1.40117,-0.00294 -2.7922,-0.26497 -4.29903,-0.22014c-1.50684,0.04483 -2.95577,-0.06377 -4.56827,0.02882c-1.50684,0.04483 -3.1671,0.03176 -4.73184,0.23003c-1.6125,0.0926 -3.17723,0.29086 -4.74197,0.48912c-1.56474,0.19826 -3.08171,0.50219 -4.54078,0.65269c-1.41131,0.25617 -2.82262,0.51233 -4.18616,0.87417c-1.36354,0.36184 -2.56352,0.52247 -3.77362,0.94221c-4.50315,1.01746 -7.50961,2.24919 -7.50961,2.24919z" fill="#4a3369"></path><path d="M250.08112,204.12204c0,0 0.79759,-0.48777 2.23931,-1.52125c0.69191,-0.44001 1.5474,-1.08123 2.35511,-1.82811c0.91339,-0.79464 1.93244,-1.63705 2.90373,-2.58513c2.04824,-1.94392 4.37586,-4.3959 6.46466,-7.37622c1.145,-1.40837 2.08881,-2.98032 3.03261,-4.55226c0.9438,-1.57194 1.83984,-3.24956 2.53468,-5.09074c0.7426,-1.73552 1.48521,-3.47103 2.07439,-5.26445c0.24175,-0.87283 0.48351,-1.74566 0.83093,-2.66625c0.24176,-0.87283 0.48352,-1.74567 0.57183,-2.67639c0.33007,-1.80355 0.60225,-3.45368 0.87442,-5.10381c0.13609,-0.82506 0.16649,-1.60236 0.19692,-2.37966c0.03042,-0.7773 0.21427,-1.4967 0.13902,-2.22623c0.00294,-1.40118 0.15931,-2.74443 0.10433,-3.99217c-0.0072,-1.14206 0.03335,-2.17846 -0.08966,-3.01367c-0.14035,-1.71817 -0.05204,-2.64889 -0.05204,-2.64889c0,0 0.17078,0.94087 0.41681,2.61128c0.12301,0.8352 0.23588,1.92951 0.34876,3.0238c0.16064,1.19997 0.26338,2.55337 0.26044,3.95454c0.04483,1.50683 0.08966,3.01367 -0.02908,4.7217c-0.11874,1.70803 -0.34315,3.46382 -0.56756,5.21962c-0.33007,1.80356 -0.76581,3.65488 -1.30723,5.55397c-0.58918,1.79342 -1.23625,3.74027 -2.08453,5.52355c-0.84827,1.78328 -1.69655,3.56656 -2.74602,5.18627c-1.04947,1.6197 -2.09894,3.23942 -3.24394,4.64779c-1.145,1.40837 -2.33777,2.71107 -3.53053,4.01378c-1.24053,1.19704 -2.42315,2.24063 -3.54787,3.13081c-2.24944,1.78035 -4.32518,3.1004 -5.86243,3.92254c-1.39396,1.13913 -2.28707,1.41557 -2.28707,1.41557z" fill="#4a3369"></path><path d="M206.24418,198.35841c0,0 2.54323,-0.00427 6.37183,0.30125c1.96712,0.12889 4.08769,0.31567 6.51512,0.61826c2.37967,0.19693 4.96052,0.55743 7.38795,0.86001c1.23759,0.20413 2.58086,0.36049 3.81846,0.56462c1.2376,0.20413 2.47519,0.40826 3.66502,0.50673c2.32176,0.35036 4.53784,0.74848 6.49484,1.13645c3.76054,0.71805 6.22559,1.38541 6.22559,1.38541c0,0 -2.54323,0.00427 -6.37183,-0.30125c-1.96713,-0.12888 -4.08769,-0.31567 -6.51512,-0.61826c-1.18983,-0.09847 -2.37966,-0.19693 -3.61725,-0.40106c-1.23759,-0.20413 -2.5331,-0.25483 -3.7707,-0.45896c-2.58086,-0.3605 -5.00828,-0.66309 -7.37781,-1.11911c-2.32176,-0.35036 -4.53784,-0.74848 -6.49484,-1.13645c-3.76055,-0.71805 -6.33127,-1.33765 -6.33127,-1.33765z" fill="#4a3369"></path><path d="M210.25139,201.24214c-0.86821,0.94178 -3.06077,0.33279 -4.89724,-1.3602c-1.83648,-1.69299 -2.6214,-3.82889 -1.7532,-4.77067c0.86821,-0.94178 3.06077,-0.33279 4.89724,1.3602c1.83648,1.69299 2.6214,3.8289 1.7532,4.77068z" fill="#bdabd6"></path></g><g data-paper-data="{&quot;index&quot;:null}"><g><path d="M201.37192,161.19159c0,-5.31563 4.30918,-9.62481 9.62481,-9.62481c5.31563,0 9.62481,4.30918 9.62481,9.62481c0,5.31563 -4.30918,9.62481 -9.62481,9.62481c-5.31563,0 -9.62481,-4.30918 -9.62481,-9.62481z" fill="#a3b339"></path><path d="M203.69115,161.19159c0,-4.03476 3.27083,-7.30558 7.30558,-7.30558c4.03476,0 7.30558,3.27083 7.30558,7.30558c0,4.03476 -3.27083,7.30558 -7.30558,7.30558c-4.03476,0 -7.30558,-3.27083 -7.30558,-7.30558z" fill="#e7ffbd"></path><path d="M217.02674,161.65544c-1.27558,3.24693 -11.4802,3.015 -11.4802,-0.34788c0,-4.75443 12.75578,-2.78308 11.4802,0.34788z" fill="#2b3021"></path><path d="M201.48788,159.56813c0,0 0.11596,-0.46385 0.34788,-1.27558c0.23192,-0.81173 0.69577,-1.97135 1.5075,-3.13096c0.46385,-0.57981 0.92769,-1.15962 1.62346,-1.73942c0.69577,-0.57981 1.39154,-1.15962 2.31923,-1.39154c0.46385,-0.23192 0.92769,-0.34788 1.39154,-0.46385c0.46385,-0.11596 0.92769,-0.23192 1.5075,-0.23192c0.46385,0 1.04365,-0.11596 1.5075,0h0.69577l0.69577,0.11596c1.04365,0.11596 1.97135,0.46385 2.78308,0.92769c0.92769,0.46385 1.62346,1.04365 2.31923,1.73942c0.57981,0.69577 1.15962,1.39154 1.5075,2.20327c0.34788,0.81173 0.69577,1.5075 0.81173,2.20327c0.23192,0.69577 0.34788,1.39154 0.34788,1.97135c0.11596,0.57981 0,1.15962 0,1.5075c0,0.81173 -0.11596,1.27558 -0.11596,1.27558c0,0 0,-0.46385 -0.11596,-1.27558c-0.11596,-0.46385 -0.11596,-0.92769 -0.23192,-1.5075c-0.11596,-0.57981 -0.23192,-1.15962 -0.46385,-1.85539c-0.23192,-0.69577 -0.57981,-1.39154 -0.92769,-2.08731c-0.34788,-0.69577 -0.92769,-1.27558 -1.5075,-1.97135c-0.57981,-0.57981 -1.27558,-1.15962 -2.20327,-1.5075c-0.81173,-0.34788 -1.73942,-0.69577 -2.55116,-0.81173l-0.69577,-0.11596h-0.69577c-0.46385,-0.11596 -0.92769,0 -1.39154,0c-0.46385,0 -0.92769,0.11596 -1.27558,0.11596c-0.46385,0.11596 -0.81173,0.23192 -1.27558,0.34788c-1.62346,0.57981 -2.89904,1.73942 -3.71077,2.78308c-0.92769,1.04365 -1.5075,2.08731 -1.85539,2.89904c-0.23192,0.81173 -0.34788,1.27558 -0.34788,1.27558z" fill="#687a27"></path></g><path d="M203.57519,162.5831c0,0 0,-0.34788 0,-1.15962c0,-0.69577 0.11596,-1.73942 0.46385,-2.89904c0.34788,-1.15962 1.04365,-2.55116 2.31923,-3.71077c0.57981,-0.57981 1.39154,-0.92769 2.20327,-1.15962c0.81173,-0.23192 1.62346,-0.34788 2.55116,-0.34788c0.81173,0 1.73942,0.11596 2.43519,0.34788c0.81173,0.23192 1.62346,0.57981 2.20327,1.04365c1.27558,0.92769 2.08731,2.31923 2.43519,3.59481c0.34788,1.15962 0.34788,2.31923 0.34788,3.015c-0.11596,0.69577 -0.23192,1.15962 -0.23192,1.15962c0,0 0.11596,-0.34788 0,-1.15962c0,-0.69577 -0.23192,-1.73942 -0.57981,-2.78308c-0.46385,-1.04365 -1.27558,-2.20327 -2.43519,-3.015c-0.57981,-0.34788 -1.27558,-0.69577 -1.97135,-0.92769c-0.69577,-0.23192 -1.5075,-0.34788 -2.31923,-0.34788c-0.69577,0 -1.5075,0 -2.20327,0.23192c-0.69577,0.23192 -1.39154,0.46385 -1.97135,0.92769c-1.15962,0.81173 -1.85539,2.08731 -2.31923,3.13096c-0.46385,1.15962 -0.69577,2.08731 -0.81173,2.78308c0,0.92769 -0.11596,1.27558 -0.11596,1.27558z" fill="#687a27"></path></g><g data-paper-data="{&quot;index&quot;:null}"><path d="M230.65251,143.40808c4.31906,-7.40569 6.57097,-16.39792 8.90951,-18.35527c2.33854,-1.95735 -2.32944,10.0048 -2.32944,10.0048c0,0 10.51145,-10.69339 12.01933,-7.92799c1.65553,2.87874 -6.0208,7.17161 -7.95761,10.68804c0,0 7.60869,-6.13159 6.81434,-1.20227c-0.49163,3.01752 -4.66964,1.7763 -7.75634,6.01826c0,0 4.33309,-0.78386 2.95059,2.97934c-0.85951,2.37779 -4.40073,-1.05483 -6.53138,4.99295" fill="#a3b339"></path><path d="M226.59251,214.80027c-7.82316,-6.71912 -12.33444,-18.57943 -11.06744,-31.72246c1.26701,-13.14304 11.28761,-31.71756 15.12744,-39.66973c4.47414,-9.43077 10.08994,-6.54999 8.01949,3.47493c-2.10673,9.8184 -9.06046,29.85341 -7.60372,36.68917c1.45674,6.83575 2.48784,8.34185 5.79891,14.09934c3.31107,5.75749 -2.30387,23.96122 -10.27469,17.1288z" fill="#a3b339"></path><path d="M237.25486,128.64232c0,0 -0.41163,1.29218 -1.27114,3.66998c-0.85951,2.37779 -2.09189,5.54152 -3.7334,9.28459c-0.37285,0.7859 -0.82075,1.87153 -1.41631,2.84383c-0.48421,0.8791 -0.96842,1.75822 -1.41632,2.84384c-0.93213,1.96477 -1.93929,4.22923 -2.98277,6.2872c-1.00717,2.26449 -2.01435,4.52898 -3.09659,7.09318c-0.97088,2.47103 -2.08942,4.82872 -2.91264,7.41305c-0.97088,2.47103 -1.79411,5.05536 -2.61734,7.63971c-0.71187,2.49114 -1.38745,5.18883 -1.69265,7.8134c-0.00247,0.71279 -0.11629,1.51883 -0.15508,2.0251c-0.00246,0.71279 -0.04123,1.21909 -0.04371,1.93188c-0.04125,1.21908 0.06516,2.55151 0.13527,3.6774c0.17653,2.45829 0.53949,4.52363 0.90244,6.58897c0.91232,3.73773 1.93847,6.66945 2.78316,8.56846c0.4042,0.84625 0.8084,1.69252 0.99234,2.01236c0.22024,0.5264 0.3679,0.63973 0.3679,0.63973c0,0 -0.14765,-0.11332 -0.47925,-0.54653c-0.3316,-0.4332 -0.77456,-0.77319 -1.32641,-1.73275c-1.03111,-1.50609 -2.39132,-4.15818 -3.59895,-8.12257c-0.58566,-1.87892 -1.02121,-4.35734 -1.34539,-6.92896c-0.10641,-1.3324 -0.21282,-2.66482 -0.31924,-3.99724c0.00247,-0.71279 0.00494,-1.42561 -0.02888,-2.34497c0.00247,-0.71279 0.11631,-1.51882 0.11879,-2.23163c0.30768,-3.33738 0.94694,-6.24161 1.73388,-9.03248c0.78694,-2.79086 1.72151,-5.46844 2.76746,-8.23919c0.93459,-2.67757 2.05313,-5.03526 3.13537,-7.59948c1.08225,-2.56422 2.12572,-4.62219 3.24426,-6.97988c1.00718,-2.26449 2.1983,-4.20912 3.13041,-6.17385c0.48421,-0.87911 1.07977,-1.85144 1.56399,-2.73054c0.5205,-0.67255 0.9684,-1.7582 1.37754,-2.33755c1.7141,-3.32999 3.13041,-6.17385 4.17389,-8.23182c1.56149,-2.0177 2.0094,-3.10337 2.0094,-3.10337z" fill="#687a27"></path><path d="M237.61862,151.79217c0,0 -0.75063,2.99744 -1.95166,7.79329c-0.60051,2.39794 -1.27607,5.0956 -1.91536,7.99979c-0.63927,2.90421 -1.24227,6.01495 -1.73389,9.03249c-0.22767,1.61205 -0.34398,3.13086 -0.34892,4.55648c-0.00248,0.71279 -0.00496,1.42562 0.06764,1.83868l0.18148,1.03268l0.14519,0.82614c0.21776,1.2392 0.54691,2.3852 0.98738,3.43798c0.32913,1.146 0.73332,1.99227 1.06246,3.13825c0.69702,1.78571 1.35776,3.36489 1.79824,4.41769c0.44048,1.05278 0.80838,1.69252 0.80838,1.69252c0,0 -1.51284,-1.3398 -3.46367,-4.44521c-0.51554,-0.75305 -0.95605,-1.80585 -1.39652,-2.85863c-0.44048,-1.05278 -0.91727,-2.31211 -1.28269,-3.66464l-0.32913,-1.146l-0.18147,-1.03268c-0.18147,-1.03266 -0.2153,-1.95199 -0.24912,-2.87134c-0.06764,-1.83869 0.12373,-3.65725 0.3151,-5.47584c0.53039,-3.5238 1.24473,-6.72775 1.99537,-9.72518c0.75063,-2.99744 1.68522,-5.67497 2.46969,-7.75305c1.82792,-4.13605 3.02153,-6.79346 3.02153,-6.79346z" fill="#687a27"></path><path d="M237.23259,135.0576c0,0 0.55927,-1.17882 1.56397,-2.73051c1.00471,-1.55166 2.49114,-3.26965 3.9751,-4.27482c0.77951,-0.65246 1.59532,-1.09837 2.29976,-1.45108c0.70445,-0.35271 1.44518,-0.49891 2.11087,-0.34534c0.259,0.02012 0.62938,-0.05294 0.81333,0.26691c0.259,0.02011 0.40666,0.13344 0.59062,0.4533c0.33159,0.4332 0.47925,0.54653 0.47925,0.54653c0,0 -0.25902,-0.02013 -0.5931,0.2595c-0.11136,0.09322 -0.33406,0.27962 -0.59309,0.25951c-0.22271,0.18641 -0.44544,0.37282 -0.8158,0.44592c-0.22273,0.18642 -0.5568,0.46604 -0.89087,0.74565c-0.33407,0.27963 -0.66815,0.55926 -1.00223,0.83888c-0.66815,0.55923 -1.44766,1.21169 -2.11582,1.77095c-1.44766,1.21169 -2.93161,2.21684 -4.11779,2.73588c-0.85211,0.2394 -1.70421,0.47875 -1.70421,0.47875z" fill="#687a27"></path><path d="M248.14742,136.1091c-0.03629,-0.20653 -0.14765,-0.11331 -0.29531,-0.22664c-0.11136,0.09323 -0.259,-0.02012 -0.37036,0.07309c-0.11136,0.09323 -0.22272,0.18643 -0.48174,0.16631c-0.11136,0.09322 -0.33406,0.27962 -0.59309,0.25951c-0.33408,0.27962 -0.81581,0.44592 -1.29755,0.61223c-0.22271,0.18642 -0.48172,0.16632 -0.70444,0.35271c-0.22272,0.18643 -0.48173,0.1663 -0.70444,0.35271c-0.48173,0.16628 -0.8521,0.23939 -1.22248,0.31248c-0.74074,0.14619 -1.29506,-0.1006 -1.29506,-0.1006c0,0 0.37286,-0.78589 0.96841,-1.75822c0.29778,-0.48615 0.74322,-0.85898 1.15236,-1.43835c0.44543,-0.37283 0.89087,-0.74568 1.3726,-0.91197c0.48173,-0.16628 1.07482,-0.42579 1.48149,-0.29233c0.25901,0.02012 0.51802,0.04023 0.77703,0.06034c0.259,0.02011 0.44295,0.33998 0.59062,0.4533c0.18394,0.31985 0.36788,0.63972 0.44048,1.05278c0.07259,0.41307 0.14518,0.82614 0.07012,1.12589c0.2953,0.22665 0.07259,0.41307 0.22024,0.52637c0,0 -0.03629,-0.20653 -0.10888,-0.61961z" fill="#687a27"></path><path d="M243.45055,145.72631c0,0 -0.0363,-0.20654 -0.07259,-0.41307c-0.03628,-0.20654 -0.10889,-0.61958 -0.25654,-0.73292c0,0 -0.14764,-0.11333 -0.11135,0.0932l-0.11135,0.0932c-0.11136,0.09323 -0.11136,0.0932 -0.25901,-0.02011l-0.25901,-0.02011c-0.40667,-0.13344 -0.84964,-0.47342 -1.2926,-0.8134c-0.44296,-0.33998 -0.66321,-0.86639 -0.66321,-0.86639c0,0 0.26148,-0.69268 0.70692,-1.0655c0.44544,-0.37282 1.11359,-0.93209 1.81557,-0.57198c0.14764,0.11332 0.29529,0.22665 0.55432,0.24676c0.14765,0.11331 0.3316,0.43318 0.47925,0.54652c0.18396,0.31984 0.25654,0.73293 0.32913,1.146c0.07257,0.41306 0.03382,0.91934 -0.04124,1.21909c-0.11383,0.806 -0.33656,0.99244 -0.55928,1.17883c-0.14765,-0.11332 -0.25901,-0.02011 -0.25901,-0.02011z" fill="#687a27"></path></g></g></g></svg>