<svg version="1.1" xmlns="http://www.w3.org/2000/svg" xmlns:xlink="http://www.w3.org/1999/xlink" width="132.5896" height="131.5005" viewBox="0,0,132.5896,131.5005"><g transform="translate(-176.09229,-119.56135)"><g data-paper-data="{&quot;isPaintingLayer&quot;:true}" fill-rule="nonzero" stroke="none" stroke-width="1" stroke-linecap="butt" stroke-linejoin="miter" stroke-miterlimit="10" stroke-dasharray="" stroke-dashoffset="0" style="mix-blend-mode: normal"><path d="M254.71427,195.86411c-7.07366,12.29193 -35.36829,30.38195 -35.36829,30.38195c-3.71077,-3.13096 -13.79943,-21.68482 -13.79943,-21.68482c-0.11596,0.11596 -7.76943,-6.26193 -7.76943,-6.26193c0,0 21.10502,-31.77348 39.54291,-32.58522c0,0 3.13096,8.00135 -0.34788,11.94405z" data-paper-data="{&quot;index&quot;:null}" fill="#4a3369"></path><g data-paper-data="{&quot;index&quot;:null}"><g fill="#a3b339"><path d="M273.9639,207.69219c4.75443,0.34788 5.56616,18.32194 1.97135,26.43925c-3.59481,8.11731 -12.87174,0.23192 -11.71212,-7.30558c1.15962,-7.53751 3.82673,-19.59751 9.74078,-19.13367z"></path><path d="M276.9789,228.56529c0.81173,2.20327 -1.04365,15.30693 -4.05866,16.35059c-3.015,1.04365 0.23192,-6.03 -1.62346,-6.37789c-1.85539,-0.34788 -6.03,7.07366 -8.34924,6.60981c-2.31923,-0.46385 4.29058,-6.72577 4.29058,-6.72577c0,0 -9.04501,6.72577 -10.55251,4.75443c-1.5075,-1.97135 7.76943,-6.26193 7.76943,-6.26193c0,0 -8.4652,2.66712 -9.9727,0.69577c-1.5075,-1.97135 4.29058,-2.89904 6.84174,-2.66712c2.55116,0.23192 3.24693,-4.5225 3.015,-8.11731"></path></g><path d="M253.20677,212.09873c10.08866,-8.4652 25.85944,-11.24828 23.07636,3.13096c-2.78308,14.37924 -28.52656,20.29328 -32.58522,18.09001c-7.07366,-3.71077 -0.57981,-12.63982 9.50885,-21.22098z" fill="#a3b339"></path><path d="M264.10716,199.11103c3.24693,7.76943 -8.23328,36.29599 -20.40925,34.32464c-12.17597,-1.97135 -10.20462,-20.64117 -4.17462,-32.9331c9.50885,-19.24963 21.33694,-9.16097 24.58386,-1.39154z" fill="#a3b339"></path><path d="M238.5956,202.47392c0,0 -0.11596,0.23192 -0.23192,0.69577c-0.11596,0.46385 -0.34788,1.15962 -0.57981,1.97135c-0.46385,1.73942 -1.15962,4.17462 -1.62346,7.18962c-0.46385,3.015 -0.92769,6.49385 -0.69577,10.20462c0.23192,1.85539 0.57981,3.71077 1.5075,5.33423c0.92769,1.62346 2.31923,2.78308 4.05866,3.47885l1.39154,0.46385l1.39154,0.34788l1.39154,0.34788l1.39154,0.23192c1.97135,0.23192 3.82673,0.11596 5.68212,-0.11596c3.71077,-0.46385 6.9577,-1.85539 9.62481,-3.36289c2.66712,-1.5075 4.75443,-3.015 6.03,-4.17462c1.39154,-1.15962 2.08731,-1.85539 2.08731,-1.85539c0,0 -0.57981,0.81173 -1.85539,2.08731c-0.57981,0.69577 -1.39154,1.39154 -2.43519,2.20327c-0.92769,0.81173 -2.08731,1.73942 -3.36289,2.55116c-2.55116,1.73942 -6.03,3.24693 -9.85674,4.05866c-1.97135,0.34788 -4.05866,0.46385 -6.14597,0.34788l-1.39154,-0.23192l-1.5075,-0.34788l-1.5075,-0.46385l-1.5075,-0.46385c-2.20327,-0.69577 -4.05866,-2.31923 -4.98635,-4.29058c-1.04365,-1.97135 -1.5075,-4.05866 -1.62346,-6.03c-0.11596,-1.97135 0,-3.9427 0.23192,-5.68212c0.23192,-1.73942 0.57981,-3.47885 0.92769,-4.87039c0.81173,-3.015 1.73942,-5.4502 2.43519,-7.07366c0.34788,-0.81173 0.69577,-1.5075 0.92769,-1.85539c0.11596,-0.46385 0.23192,-0.69577 0.23192,-0.69577z" fill="#687a27"></path><path d="M268.5137,205.02508c0,0 0.11596,0 0.34788,-0.11596c0.23192,0 0.57981,-0.11596 1.04365,-0.23192c0.46385,0 1.04365,0 1.73942,0c0.69577,0.11596 1.39154,0.23192 2.20327,0.69577c0.34788,0.11596 0.69577,0.46385 1.15962,0.69577c0.34788,0.34788 0.69577,0.57981 1.04365,0.92769c0.34788,0.34788 0.69577,0.69577 0.92769,1.15962c0.34788,0.46385 0.57981,0.92769 0.69577,1.39154c0.23192,0.46385 0.34788,0.92769 0.57981,1.5075c0.23192,0.46385 0.34788,1.04365 0.46385,1.5075c0.23192,1.04365 0.34788,2.08731 0.46385,3.13096c0.11596,1.04365 0.11596,2.08731 0.11596,3.13096c0,1.04365 -0.11596,2.08731 -0.11596,3.015c-0.11596,1.97135 -0.46385,3.82673 -0.69577,5.33423c-0.34788,1.5075 -0.69577,2.78308 -1.04365,3.71077c-0.11596,0.46385 -0.34788,0.81173 -0.46385,1.04365c-0.11596,0.11596 -0.11596,0.23192 -0.23192,0.23192c-0.11596,0 0,-0.11596 -0.11596,-0.11596c0,0 0,0 0.11596,0c0,0 0.11596,-0.11596 0.11596,-0.23192c0.11596,-0.23192 0.11596,-0.57981 0.11596,-1.04365c0.11596,-0.92769 0.23192,-2.20327 0.34788,-3.71077c0.11596,-1.5075 0.11596,-3.36289 0.11596,-5.33423c0,-0.92769 0,-1.97135 0,-3.015c0,-1.04365 -0.11596,-2.08731 -0.23192,-3.015c-0.11596,-1.04365 -0.23192,-1.97135 -0.34788,-3.015c-0.23192,-0.92769 -0.34788,-1.85539 -0.69577,-2.78308c-0.11596,-0.46385 -0.34788,-0.81173 -0.57981,-1.15962c-0.23192,-0.34788 -0.46385,-0.69577 -0.69577,-1.04365c-0.23192,-0.34788 -0.57981,-0.57981 -0.81173,-0.92769c-0.34788,-0.23192 -0.57981,-0.46385 -0.92769,-0.69577c-0.57981,-0.46385 -1.27558,-0.69577 -1.85539,-0.92769c-0.57981,-0.11596 -1.15962,-0.34788 -1.5075,-0.34788c-0.81173,0.23192 -1.27558,0.23192 -1.27558,0.23192z" fill="#687a27"></path><path d="M271.18082,238.53798c0,0 -0.11596,0.11596 -0.34788,0.34788c-0.23192,0.23192 -0.46385,0.57981 -0.69577,0.92769c-0.23192,0.46385 -0.57981,0.92769 -0.92769,1.39154c-0.34788,0.46385 -0.81173,1.04365 -1.27558,1.62346c-0.92769,1.04365 -2.08731,1.97135 -3.13096,2.43519c-0.57981,0.23192 -1.04365,0.23192 -1.39154,0.23192c-0.34788,-0.11596 -0.46385,-0.23192 -0.46385,-0.23192c0,0 0,0 0.11596,0c0.11596,0 0.23192,0 0.34788,-0.11596c0.23192,-0.11596 0.57981,-0.34788 0.81173,-0.69577c0.69577,-0.69577 1.39154,-1.73942 2.31923,-2.78308c0.46385,-0.46385 0.92769,-0.92769 1.39154,-1.39154c0.46385,-0.46385 1.04365,-0.81173 1.5075,-1.04365c0.46385,-0.23192 0.92769,-0.46385 1.27558,-0.46385c0.34788,-0.34788 0.46385,-0.23192 0.46385,-0.23192z" fill="#687a27"></path><path d="M267.23812,238.42202c0,0 -0.34788,0.69577 -1.15962,1.62346c-0.34788,0.46385 -0.81173,0.92769 -1.39154,1.39154c-0.57981,0.46385 -1.15962,0.92769 -1.85539,1.27558c-0.69577,0.34788 -1.39154,0.69577 -2.08731,0.92769c-0.34788,0.11596 -0.69577,0.23192 -1.04365,0.23192c-0.34788,0 -0.69577,0.11596 -1.04365,0.11596c-0.34788,0 -0.57981,0 -0.81173,-0.11596c-0.23192,-0.11596 -0.46385,-0.11596 -0.57981,-0.23192c-0.34788,-0.23192 -0.46385,-0.34788 -0.46385,-0.34788c0,0 0.23192,0 0.57981,0c0.11596,0 0.34788,-0.11596 0.57981,-0.11596c0.23192,0 0.46385,-0.11596 0.69577,-0.23192c0.23192,-0.11596 0.46385,-0.23192 0.81173,-0.34788c0.23192,-0.11596 0.57981,-0.34788 0.81173,-0.46385c0.57981,-0.34788 1.15962,-0.69577 1.85539,-1.04365c1.27558,-0.69577 2.55116,-1.39154 3.59481,-1.85539c0.69577,-0.57981 1.5075,-0.81173 1.5075,-0.81173z" fill="#687a27"></path><path d="M254.48234,237.61029c0,0 0.11596,0.11596 0.46385,0.11596c0.23192,0 0.69577,0 1.04365,-0.11596c0.46385,-0.11596 0.92769,-0.11596 1.5075,-0.23192c0.57981,-0.11596 1.15962,-0.23192 1.73942,-0.34788c1.27558,-0.23192 2.43519,-0.23192 3.47885,-0.23192c0.92769,0 1.62346,0.11596 1.62346,0.11596c0,0 -0.57981,0.46385 -1.39154,0.92769c-0.92769,0.46385 -2.08731,0.92769 -3.47885,1.04365c-0.69577,0.11596 -1.27558,0.11596 -1.97135,0.11596c-0.57981,0 -1.27558,-0.11596 -1.73942,-0.34788c-0.46385,-0.11596 -0.92769,-0.46385 -1.15962,-0.69577c-0.11596,-0.11596 -0.11596,-0.34788 -0.11596,-0.34788z" fill="#687a27"></path><path d="M264.10716,228.2174c0,0 0.34788,0.46385 0.57981,1.15962c0.23192,0.69577 0.34788,1.62346 0.11596,2.55116c-0.11596,0.46385 -0.23192,0.92769 -0.46385,1.39154c-0.23192,0.46385 -0.57981,0.81173 -0.81173,1.04365c-0.11596,0.11596 -0.34788,0.23192 -0.46385,0.23192c-0.11596,0.11596 -0.23192,0.11596 -0.46385,0.11596c-0.23192,0 -0.34788,0 -0.34788,0c0,0 0,-0.11596 0.11596,-0.34788c0,-0.11596 0.11596,-0.23192 0.11596,-0.34788c0,-0.11596 0.11596,-0.23192 0.11596,-0.34788c0.11596,-0.57981 0.23192,-1.27558 0.34788,-2.08731c0.11596,-0.81173 0.34788,-1.62346 0.57981,-2.20327c0.34788,-0.69577 0.57981,-1.15962 0.57981,-1.15962z" fill="#687a27"></path></g><g data-paper-data="{&quot;index&quot;:null}"><path d="M218.60908,229.95724c-2.20538,3.32531 0.83633,5.76317 0.54301,6.62005c-0.46247,2.03873 -4.09941,-2.28204 -4.09941,-2.28204c0,0 2.34678,4.19301 1.37796,5.55623c-0.96882,1.36323 -4.71048,-4.53131 -4.71048,-4.53131c0,0 0.22527,3.5139 -1.51766,4.80047c-1.74292,1.28658 -1.3049,-4.7152 -1.3049,-4.7152c-4.19413,6.56783 -4.16746,2.08874 -2.59009,0.36887c1.57738,-1.71987 5.69234,-10.11951 7.95132,-11.35497" fill="#a3b339"></path><path d="M221.75325,193.99777c7.9505,3.91413 12.74015,10.27725 11.81772,16.96064c-0.92243,6.68338 -10.40863,15.64548 -14.02224,19.5088c-4.20634,4.58632 -9.86368,2.77536 -8.06243,-2.2576c1.84263,-4.92462 8.24213,-14.81776 6.61836,-18.41805c-1.62377,-3.60029 -2.68757,-4.43522 -6.12731,-7.58997c-3.39836,-3.04643 1.67569,-12.18491 9.7759,-8.20383z" fill="#a3b339"></path><path d="M218.99629,235.51959c0,0 -0.1497,-0.06693 -0.3822,-0.35053c-0.23248,-0.28359 -0.50634,-0.6755 -0.86299,-1.28408c-0.12416,-0.32497 -0.24832,-0.64995 -0.30554,-1.12464c-0.05722,-0.47469 0.10221,-1.03214 0.45273,-1.41434c0.30915,-0.49051 0.70105,-0.76439 1.05159,-1.14657c0.39192,-0.27387 0.63412,-0.61467 1.09297,-1.03826c1.51045,-1.57016 3.15476,-3.43974 4.86601,-5.45904c0.83494,-1.06381 1.66987,-2.12761 2.61312,-3.23281c0.83494,-1.06381 1.62849,-2.23594 2.42204,-3.40808c0.79355,-1.17213 1.43739,-2.4112 2.08122,-3.65028c0.26776,-0.59884 0.53551,-1.19768 0.65357,-1.86347c0.13388,-0.29941 0.11804,-0.66578 0.1436,-0.92382c-0.01583,-0.36635 0.11804,-0.66578 0.10221,-1.03214c0.06083,-1.14047 -0.06944,-2.4562 -0.37497,-3.58084c-0.30553,-1.12465 -0.7194,-2.20788 -1.20019,-3.14143c-0.96159,-1.86709 -2.12401,-3.28502 -2.86284,-4.24412c-0.84716,-0.91771 -1.37906,-1.33516 -1.37906,-1.33516c0,0 0.14971,0.06694 0.49051,0.30915c0.29941,0.13388 0.68163,0.4844 1.21353,0.90188c0.95548,0.87632 2.29316,2.10317 3.51279,3.9958c0.58912,0.89215 1.15268,2.04235 1.60793,3.23392c0.34693,1.23296 0.73523,2.57425 0.69023,4.08108c0.01583,0.36635 -0.00971,0.6244 -0.10221,1.03214c0.01583,0.36635 -0.07665,0.7741 -0.16915,1.18185c-0.18499,0.81549 -0.45274,1.41434 -0.67911,2.1215c-0.60245,1.34739 -1.35461,2.62786 -2.10679,3.90832c-0.75217,1.28046 -1.69542,2.38566 -2.48897,3.55779c-0.94327,1.10519 -1.77819,2.169 -2.72146,3.2742c-1.81958,2.06068 -3.61361,3.86331 -5.16543,5.32515c-0.35053,0.38219 -0.80938,0.80578 -1.2013,1.07964c-0.39192,0.27387 -0.78383,0.54773 -1.06742,0.78022c-0.56718,0.46496 -0.53551,1.19768 -0.4369,1.78069c0.09861,0.58301 0.26414,1.01631 0.49663,1.29991c-0.06693,0.1497 0.01583,0.36635 0.01583,0.36635z" fill="#687a27"></path><path d="M212.04736,226.75389c0,0 0.73633,-1.64683 1.80736,-4.04219c0.53551,-1.19768 1.09658,-2.65341 1.76597,-4.15052c0.56106,-1.45572 1.14769,-3.16948 1.51766,-4.80047c0.18499,-0.81549 0.36996,-1.63099 0.3383,-2.36372c0.07665,-0.77411 -0.02194,-1.35712 -0.46135,-2.18233c-0.24831,-0.64995 -0.64635,-1.36684 -1.00299,-1.9754c-0.35664,-0.60857 -0.8216,-1.17575 -1.13686,-1.67598c-0.78021,-1.06743 -1.47766,-1.91819 -2.05095,-2.44398c-0.46496,-0.56718 -0.84716,-0.91771 -0.84716,-0.91771c0,0 1.64682,0.73633 3.59917,2.5973c0.5319,0.41747 0.99687,0.98465 1.50321,1.66015c0.50634,0.6755 0.97131,1.24269 1.45211,2.17623c0.08276,0.21665 0.16555,0.43329 0.24831,0.64994l0.12416,0.32497c0.08276,0.21665 0.08277,0.21665 0.16555,0.4333c0.16555,0.4333 0.11444,0.94937 0.17165,1.42406c0.00612,0.99076 -0.13749,1.91457 -0.4308,2.77146c-0.43691,1.7807 -1.17323,3.42752 -1.95095,4.96601c-0.3347,0.74856 -0.81911,1.43016 -1.15381,2.17872c-0.37609,0.64024 -0.75216,1.28046 -1.16963,1.81237c-1.37046,2.26149 -2.48897,3.55778 -2.48897,3.55778z" fill="#687a27"></path><path d="M205.48482,238.81963c0,0 0.10832,-0.04139 0.21665,-0.08277c0.10832,-0.04139 0.17526,-0.19109 0.35053,-0.3822c0.13388,-0.29941 0.44303,-0.78995 0.75217,-1.28046c0.30915,-0.49051 0.76798,-0.9141 1.30961,-1.12103c0.39192,-0.27387 0.82522,-0.4394 0.82522,-0.4394c0,0 0.16555,0.43329 0.00612,0.99075c-0.0511,0.51607 -0.27748,1.22323 -0.69495,1.75514c-0.2422,0.34081 -0.52579,0.57329 -0.85077,0.69745c-0.28358,0.23248 -0.60856,0.35664 -0.97492,0.37247c-0.36636,0.01583 -0.66578,-0.11804 -0.81549,-0.18499c-0.19109,-0.17526 -0.12416,-0.32497 -0.12416,-0.32497z" fill="#687a27"></path><path d="M210.20252,240.12064c0,0 -0.05722,-0.47469 0.03527,-0.88242c0.0511,-0.51607 0.21054,-1.07353 0.36997,-1.63099c0.15942,-0.55746 0.36026,-1.00658 0.66939,-1.49711c0.17526,-0.19109 0.20082,-0.44913 0.26776,-0.59885c0.06693,-0.1497 0.17526,-0.19109 0.17526,-0.19109c0,0 0.04139,0.10833 0.19109,0.17526c0.14972,0.06694 0.27387,0.39191 0.35664,0.60856c0.12416,0.32497 0.20693,0.54162 0.22277,0.90799c0.01583,0.36635 -0.07666,0.7741 -0.21054,1.07352c-0.22637,0.70717 -0.75217,1.28046 -1.2524,1.59571c-0.45885,0.42358 -0.82522,0.4394 -0.82522,0.4394z" fill="#687a27"></path><path d="M216.47203,239.95981c0,0 -0.04139,-0.10832 -0.12416,-0.32497c-0.08276,-0.21665 -0.16555,-0.4333 -0.24831,-0.64995c-0.20693,-0.54163 -0.52218,-1.04186 -0.66217,-1.7332c-0.12416,-0.32497 -0.13999,-0.69134 -0.22277,-0.90799c-0.01583,-0.36635 -0.09861,-0.58301 -0.11444,-0.94936c-0.09861,-0.58301 -0.00611,-0.99075 -0.00611,-0.99075c0,0 0.44913,0.20082 0.93965,0.50996c0.5319,0.41747 0.88854,1.02603 1.17825,1.78431c0.12416,0.32497 0.18138,0.79966 0.19721,1.16602c0.01583,0.36635 -0.07665,0.77411 -0.21054,1.07353c-0.13388,0.29941 -0.30915,0.49051 -0.48441,0.68162c-0.13388,0.29941 -0.2422,0.34081 -0.2422,0.34081z" fill="#687a27"></path></g><g data-paper-data="{&quot;index&quot;:null}"><path d="M183.62979,157.94466c0,-5.05946 4.1015,-9.16097 9.16097,-9.16097c5.05946,0 9.16097,4.1015 9.16097,9.16097c0,5.05946 -4.1015,9.16097 -9.16097,9.16097c-5.05946,0 -9.16097,-4.1015 -9.16097,-9.16097z" fill="#a3b339"></path><path d="M184.55749,153.886c0,0 0.11596,-0.34788 0.34788,-0.92769c0.23192,-0.57981 0.69577,-1.5075 1.5075,-2.31923c0.34788,-0.46385 0.92769,-0.92769 1.5075,-1.27558c0.57981,-0.34788 1.27558,-0.69577 1.97135,-0.92769c0.69577,-0.23192 1.5075,-0.34788 2.31923,-0.46385c0.81173,0 1.5075,0 2.43519,0.11596c0.34788,0.11596 0.69577,0.11596 1.04365,0.23192c0.46385,0.11596 0.81173,0.23192 1.15962,0.46385c0.34788,0.23192 0.69577,0.34788 1.04365,0.57981c0.34788,0.23192 0.69577,0.46385 0.92769,0.69577c1.15962,1.04365 1.85539,2.20327 2.31923,3.36289c0.46385,1.04365 0.69577,2.08731 0.69577,2.66712c0.11596,0.69577 0,1.04365 0,1.04365c0,0 -0.11596,-0.34788 -0.46385,-0.92769c-0.23192,-0.57981 -0.69577,-1.39154 -1.27558,-2.31923c-0.34788,-0.46385 -0.69577,-0.92769 -1.04365,-1.27558c-0.34788,-0.46385 -0.92769,-0.81173 -1.39154,-1.15962c-0.23192,-0.23192 -0.57981,-0.34788 -0.81173,-0.46385c-0.23192,-0.11596 -0.57981,-0.23192 -0.92769,-0.46385l-0.92769,-0.34788c-0.34788,-0.11596 -0.69577,-0.11596 -1.04365,-0.23192c-0.57981,-0.11596 -1.39154,-0.11596 -1.97135,-0.11596c-0.69577,0 -1.27558,0.11596 -1.97135,0.23192c-0.57981,0.11596 -1.15962,0.34788 -1.73942,0.57981c-0.57981,0.23192 -1.04365,0.57981 -1.39154,0.81173c-0.81173,0.57981 -1.5075,1.27558 -1.85539,1.73942c-0.23192,0.46385 -0.46385,0.69577 -0.46385,0.69577z" fill="#687a27"></path></g><path d="M180.03498,164.09062c0,0 0.11596,-0.11596 0.34788,-0.46385c0.23192,-0.34788 0.57981,-0.69577 1.04365,-1.27558c0.46385,-0.57981 1.04365,-1.15962 1.73942,-1.85539c0.69577,-0.69577 1.62346,-1.39154 2.66712,-2.08731c1.04365,-0.69577 2.20327,-1.39154 3.47885,-1.85539c1.27558,-0.57981 2.66712,-1.04365 4.17462,-1.39154c1.5075,-0.34788 3.015,-0.57981 4.63846,-0.69577c1.62346,-0.11596 3.24693,0 4.87039,0c3.13096,0.11596 6.37789,0.23192 9.39289,0.57981c1.5075,0.11596 3.015,0.46385 4.29058,0.81173c1.39154,0.34788 2.66712,0.81173 3.71077,1.39154c0.57981,0.34788 1.04365,0.57981 1.5075,0.92769c0.46385,0.34788 0.92769,0.57981 1.27558,0.92769c0.34788,0.34788 0.69577,0.57981 1.04365,0.92769c0.34788,0.34788 0.57981,0.57981 0.81173,0.81173c0.46385,0.46385 0.81173,0.92769 1.04365,1.27558c0.23192,0.34788 0.34788,0.46385 0.34788,0.46385c0,0 -0.11596,-0.11596 -0.46385,-0.34788c-0.34788,-0.23192 -0.69577,-0.57981 -1.27558,-1.04365c-0.23192,-0.23192 -0.57981,-0.46385 -0.92769,-0.69577c-0.34788,-0.23192 -0.69577,-0.46385 -1.15962,-0.69577c-0.81173,-0.46385 -1.73942,-0.92769 -2.89904,-1.39154c-1.04365,-0.34788 -2.31923,-0.81173 -3.59481,-1.04365c-1.27558,-0.23192 -2.66712,-0.46385 -4.17462,-0.57981c-1.5075,-0.11596 -3.015,-0.11596 -4.5225,-0.23192c-1.62346,0 -3.13096,-0.11596 -4.75443,-0.11596c-1.62346,-0.11596 -3.13096,-0.11596 -4.63846,0c-1.5075,0 -3.015,0.23192 -4.40654,0.46385c-1.39154,0.34788 -2.78308,0.69577 -4.05866,1.15962c-1.27558,0.46385 -2.43519,1.04365 -3.47885,1.5075c-1.04365,0.57981 -1.97135,1.15962 -2.78308,1.73942c-0.81173,0.57981 -1.39154,1.04365 -1.97135,1.5075c-0.69577,0.69577 -1.27558,1.27558 -1.27558,1.27558z" data-paper-data="{&quot;index&quot;:null}" fill="#687a27"></path><g data-paper-data="{&quot;index&quot;:null}"><path d="M176.09229,173.25159c0,-4.87039 6.9577,-17.04636 20.40925,-17.62617c13.45155,-0.57981 24.81579,-0.23192 32.23733,9.39289c7.53751,9.74078 35.83214,13.33559 47.66023,18.20597c11.82809,4.87039 17.5102,31.19368 12.06001,44.06542c-5.4502,12.87174 -48.70388,16.11867 -66.44601,-7.07366c-17.74213,-23.19232 -17.39424,-22.38059 -25.16367,-25.9754c-16.23463,-7.65347 -20.75713,-17.04636 -20.75713,-20.98905z" fill="#a3b339"></path><path d="M177.2519,178.46986c0,0 2.31923,0.23192 5.68212,0.92769c1.73942,0.34788 3.71077,0.81173 5.79808,1.5075c1.04365,0.34788 2.08731,0.69577 3.24693,1.04365c1.04365,0.34788 2.20327,0.81173 3.24693,1.15962c1.04365,0.46385 2.20327,0.92769 3.24693,1.39154c1.04365,0.46385 2.08731,0.92769 3.015,1.27558c0.92769,0.46385 1.97135,0.81173 2.89904,1.04365c0.92769,0.34788 1.85539,0.57981 2.66712,0.81173c1.62346,0.46385 3.015,0.69577 4.05866,0.69577c1.04365,0.11596 1.62346,0 1.62346,0c0,0 -0.57981,0.23192 -1.62346,0.34788c-1.04365,0.11596 -2.55116,0.11596 -4.29058,-0.11596c-1.73942,-0.23192 -3.71077,-0.69577 -5.79808,-1.39154c-1.04365,-0.34788 -2.08731,-0.81173 -3.13096,-1.15962c-1.04365,-0.34788 -2.08731,-0.81173 -3.13096,-1.27558c-4.29058,-1.62346 -8.58116,-3.13096 -11.82809,-4.29058c-3.47885,-1.04365 -5.68212,-1.97135 -5.68212,-1.97135z" fill="#687a27"></path><path d="M188.50018,170.35255c0,0 0,-0.11596 0,-0.23192c0,-0.11596 0.11596,-0.46385 0.23192,-0.81173c0.11596,-0.34788 0.46385,-0.57981 0.69577,-0.81173c0.34788,-0.23192 0.69577,-0.46385 1.04365,-0.69577c0.34788,-0.11596 0.81173,-0.23192 1.15962,-0.34788c0.23192,0 0.46385,0 0.57981,0c0.23192,0 0.34788,0.11596 0.57981,0.11596c0.11596,0 0.23192,0.11596 0.23192,0.11596c0.11596,0.11596 0.11596,0.23192 0.11596,0.23192c0,0.11596 0,0.34788 0,0.46385c-0.11596,0.23192 -0.23192,0.23192 -0.23192,0.23192c0,0 0,-0.11596 0,-0.23192c0,-0.11596 -0.11596,-0.11596 -0.11596,-0.11596h-0.11596h-0.11596c-0.46385,0 -1.15962,0.34788 -1.73942,0.57981c-0.69577,0.23192 -1.27558,0.57981 -1.73942,0.81173c-0.11596,0.11596 -0.23192,0.11596 -0.34788,0.23192c-0.11596,0.11596 -0.23192,0.11596 -0.23192,0.23192c0.11596,0.11596 0,0.23192 0,0.23192z" fill="#687a27"></path><path d="M181.42652,183.8041c0,0 0.23192,0.34788 0.92769,0.81173c0.57981,0.46385 1.5075,1.15962 2.66712,1.97135c1.15962,0.81173 2.66712,1.73942 4.29058,2.78308c1.73942,1.04365 3.59481,2.20327 5.79808,3.24693c2.20327,0.92769 4.75443,1.97135 7.18962,3.36289c2.43519,1.5075 4.75443,3.47885 6.84174,5.79808c2.08731,2.31923 4.05866,4.87039 5.79808,7.53751c1.85539,2.66712 3.71077,5.33423 5.79808,7.76943c2.08731,2.55116 4.17462,4.87039 6.60981,6.9577c2.31923,2.08731 4.87039,3.9427 7.42154,5.56616c5.21827,3.13096 10.55251,4.98635 15.30693,6.03c2.43519,0.46385 4.5225,0.81173 6.49385,1.04365c0.92769,0.11596 1.85539,0.23192 2.78308,0.23192c0.81173,0.11596 1.62346,0.11596 2.31923,0.11596c1.39154,0.11596 2.55116,0.11596 3.36289,0.11596c0.81173,0 1.15962,0 1.15962,0c0,0 -0.46385,0 -1.15962,0.11596c-0.81173,0 -1.85539,0.11596 -3.36289,0.11596c-0.69577,0 -1.5075,0 -2.31923,0c-0.81173,0 -1.85539,0 -2.78308,-0.11596c-1.97135,-0.11596 -4.29058,-0.34788 -6.72577,-0.69577c-4.87039,-0.81173 -10.55251,-2.55116 -15.88674,-5.56616c-2.66712,-1.5075 -5.33423,-3.36289 -7.76943,-5.56616c-2.43519,-2.20327 -4.75443,-4.63846 -6.84174,-7.18962c-2.08731,-2.55116 -3.9427,-5.21827 -5.79808,-7.88539c-1.85539,-2.66712 -3.59481,-5.21827 -5.56616,-7.42154c-1.97135,-2.20327 -4.05866,-4.29058 -6.37789,-5.79808c-2.31923,-1.5075 -4.75443,-2.55116 -6.9577,-3.59481c-2.20327,-1.15962 -4.05866,-2.43519 -5.68212,-3.59481c-1.62346,-1.15962 -3.015,-2.20327 -4.17462,-3.13096c-1.15962,-0.92769 -1.97135,-1.62346 -2.55116,-2.20327c-0.57981,-0.46385 -0.81173,-0.81173 -0.81173,-0.81173z" fill="#687a27"></path></g><g data-paper-data="{&quot;index&quot;:null}"><path d="M229.86315,241.16988c-4.4981,3.04025 -7.02674,7.26053 -9.38886,7.8526c-2.36212,0.59207 2.64082,-4.7266 2.64082,-4.7266c0,0 -10.6852,3.63467 -12.06435,1.94804c-1.51983,-1.77093 6.15772,-2.61939 8.18181,-4.08313c0,0 -7.67697,1.80472 -6.7222,-0.58648c0.58972,-1.46285 4.64054,-0.08724 7.81764,-1.72043c0,0 -4.2752,-0.36299 -2.78562,-2.0514c0.92746,-1.06931 4.27578,1.31923 6.58033,-1.41029" fill="#a3b339"></path><path d="M236.39412,205.22233c7.42792,4.8329 11.42589,11.72103 9.71429,18.24704c-1.7116,6.52601 -12.19737,14.29491 -16.24526,17.7005c-4.72248,4.05288 -10.12397,1.58122 -7.73629,-3.20147c2.41586,-4.67022 9.94774,-13.73103 8.76418,-17.49904c-1.18356,-3.768 -2.14039,-4.72366 -5.18005,-8.26552c-3.03966,-3.54186 3.11453,-11.89871 10.68314,-6.98153z" fill="#a3b339"></path><path d="M222.86401,247.58665c0,0 0.44964,-0.5909 1.37709,-1.66021c0.92746,-1.06931 2.24846,-2.47637 3.9912,-4.10868c0.39354,-0.33774 0.87136,-0.81616 1.48986,-1.21028c0.50602,-0.36593 1.01205,-0.73187 1.48987,-1.21028c0.98386,-0.84436 2.05198,-1.82938 3.14832,-2.70193c1.06814,-0.98503 2.13628,-1.97006 3.2887,-3.09575c1.03994,-1.09751 2.22056,-2.11073 3.11982,-3.29252c1.03994,-1.09751 1.93921,-2.2793 2.83848,-3.4611c0.78678,-1.1536 1.54538,-2.41969 1.93833,-3.71367c0.0279,-0.36563 0.16827,-0.75948 0.22438,-1.01263c0.0279,-0.36563 0.08399,-0.6188 0.11189,-0.98443c0.08399,-0.6188 0.02731,-1.32189 -0.00117,-1.9125c-0.08517,-1.29369 -0.36712,-2.41851 -0.64906,-3.54333c-0.76065,-2.08077 -1.66168,-3.76771 -2.42175,-4.89222c-0.36593,-0.50602 -0.73187,-1.01205 -0.90074,-1.20881c-0.19706,-0.30925 -0.33774,-0.39354 -0.33774,-0.39354c0,0 0.14067,0.08428 0.45022,0.36535c0.30954,0.28106 0.73157,0.53393 1.23818,1.12423c0.95684,0.95566 2.19531,2.55801 3.23731,4.80736c0.5069,1.06843 0.84523,2.41822 1.07108,3.7962c0.05668,0.70308 0.11337,1.40617 0.17005,2.10926c-0.0279,0.36563 -0.05579,0.73128 -0.0555,1.20941c-0.0279,0.36563 -0.16828,0.75947 -0.19619,1.12511c-0.42085,1.65962 -1.15125,3.0382 -2.02232,4.33247c-0.87108,1.29427 -1.88282,2.50427 -3.00705,3.74245c-1.01175,1.20999 -2.19237,2.22321 -3.3448,3.34891c-1.15242,1.1257 -2.24876,1.99825 -3.42938,3.01147c-1.06814,0.98503 -2.30514,1.77329 -3.28899,2.61763c-0.50602,0.36593 -1.12453,0.76007 -1.63056,1.126c-0.53422,0.25345 -1.01204,0.73187 -1.43377,0.95712c-1.79913,1.40734 -3.28899,2.61763 -4.38533,3.49018c-1.60264,0.76035 -2.08047,1.23878 -2.08047,1.23878z" fill="#687a27"></path><path d="M223.33479,235.63331c0,0 0.84288,-1.40677 2.19149,-3.65758c0.6743,-1.12541 1.43289,-2.39149 2.16329,-3.77005c0.73039,-1.37857 1.4326,-2.86961 2.02232,-4.33247c0.28077,-0.78767 0.44905,-1.54714 0.50484,-2.27842c0.0279,-0.36563 0.0558,-0.73128 -0.00059,-0.95624l-0.14097,-0.56241l-0.11278,-0.44993c-0.16916,-0.67489 -0.45081,-1.32159 -0.84493,-1.94009c-0.28164,-0.6467 -0.64758,-1.15273 -0.92923,-1.79942c-0.61938,-1.04024 -1.21058,-1.96799 -1.6047,-2.5865c-0.39413,-0.6185 -0.73187,-1.01205 -0.73187,-1.01205c0,0 1.43496,0.95536 3.23613,2.89487c0.47841,0.47783 0.87255,1.09634 1.26667,1.71484c0.39413,0.6185 0.81645,1.34949 1.12629,2.10867l0.28164,0.6467l0.14097,0.56241c0.14097,0.56241 0.14127,1.04053 0.14156,1.51865c0.00059,0.95624 -0.25198,1.85639 -0.50455,2.75655c-0.64581,1.71601 -1.4605,3.23525 -2.30338,4.64202c-0.84288,1.40677 -1.85463,2.61675 -2.69781,3.54539c-1.9395,1.80119 -3.20441,2.95508 -3.20441,2.95508z" fill="#687a27"></path><path d="M223.11512,244.29589c0,0 -0.59031,0.5066 -1.63055,1.12599c-1.04024,0.61938 -2.5586,1.23907 -4.04906,1.49311c-0.78737,0.19736 -1.60294,0.28224 -2.30602,0.33892c-0.70308,0.05668 -1.43436,0.00089 -2.08136,-0.19559c-0.25315,-0.05609 -0.6188,-0.084 -0.78767,-0.28077c-0.25315,-0.05609 -0.39383,-0.14038 -0.56271,-0.33715c-0.30954,-0.28106 -0.45022,-0.36535 -0.45022,-0.36535c0,0 0.25316,0.0561 0.59061,-0.02849c0.11248,-0.0282 0.33744,-0.08458 0.59061,-0.02849c0.22496,-0.05639 0.44993,-0.11277 0.81556,-0.08488c0.22496,-0.05639 0.56241,-0.14097 0.89985,-0.22555c0.33744,-0.08458 0.67489,-0.16917 1.01234,-0.25375c0.67489,-0.16916 1.46227,-0.36652 2.13716,-0.53569c1.46227,-0.36652 2.95272,-0.62056 4.13393,-0.67755c0.84376,0.0276 1.68752,0.05522 1.68752,0.05522z" fill="#687a27"></path><path d="M212.3697,241.49002c0,0 0.02819,0.11248 0.08458,0.33745c0.02819,0.11248 0.14067,0.08428 0.28135,0.16857c0.11248,-0.0282 0.25315,0.0561 0.36563,0.0279c0.11248,-0.0282 0.22496,-0.05639 0.47812,-0.0003c0.11248,-0.0282 0.33744,-0.08458 0.59061,-0.02849c0.33744,-0.08458 0.81556,-0.08488 1.29369,-0.08518c0.22496,-0.05639 0.47812,-0.0003 0.70308,-0.05668c0.22496,-0.05639 0.47812,-0.00029 0.70308,-0.05668c0.47812,-0.00029 0.84376,0.0276 1.20941,0.0555c0.73128,0.05579 1.26579,0.28047 1.26579,0.28047c0,0 -0.39355,0.33773 -1.01204,0.73187c-0.30925,0.19706 -0.75918,0.30984 -1.18092,0.5351c-0.44993,0.11277 -0.89986,0.22556 -1.37798,0.22585c-0.47812,0.00029 -1.06872,0.02878 -1.46256,-0.11161c-0.25315,-0.05609 -0.50632,-0.11218 -0.75947,-0.16827c-0.25315,-0.05609 -0.42202,-0.25286 -0.56271,-0.33715c-0.16887,-0.19676 -0.33774,-0.39354 -0.39413,-0.6185c-0.05638,-0.22496 -0.11278,-0.44993 -0.02849,-0.59061c-0.28135,-0.16858 -0.05638,-0.22496 -0.19706,-0.30924z" fill="#687a27"></path><path d="M217.40173,237.7182c0,0 0.02819,0.11248 0.05638,0.22496c0.02819,0.11248 0.08459,0.33744 0.22526,0.42173c0,0 0.14067,0.08429 0.11248,-0.02819l0.11248,-0.02819c0.11248,-0.0282 0.11248,-0.02819 0.25315,0.05609l0.25315,0.05609c0.39383,0.14038 0.81587,0.39325 1.23789,0.64611c0.42202,0.25286 0.6191,0.56212 0.6191,0.56212c0,0 -0.28106,0.30954 -0.73099,0.42231c-0.44993,0.11277 -1.12482,0.28195 -1.80001,-0.02702c-0.14067,-0.08428 -0.28134,-0.16857 -0.53451,-0.22466c-0.14067,-0.08428 -0.30955,-0.28106 -0.45022,-0.36535c-0.16887,-0.19676 -0.22526,-0.42174 -0.28164,-0.6467c-0.05638,-0.22496 -0.0003,-0.47812 0.08399,-0.6188c0.14038,-0.39383 0.36536,-0.45022 0.59032,-0.5066c0.14067,0.08428 0.25315,0.05609 0.25315,0.05609z" fill="#687a27"></path></g><g data-paper-data="{&quot;index&quot;:null}"><g fill="#a3b339"><path d="M300.63507,212.09873c4.63846,-0.46385 8.92904,16.9304 6.9577,25.51156c-1.97135,8.58116 -12.52386,2.66712 -12.87174,-4.98635c-0.34788,-7.65347 -0.11596,-19.82944 5.91404,-20.52521z"></path><path d="M307.36084,232.1601c1.15962,2.08731 1.85539,15.19097 -0.92769,16.81444c-2.78308,1.62346 -0.92769,-6.03 -2.78308,-6.03c-1.85539,0 -4.63846,8.11731 -6.9577,8.11731c-2.31923,0 3.015,-7.42154 3.015,-7.42154c0,0 -7.65347,8.34924 -9.50885,6.72577c-1.85539,-1.62346 6.49385,-7.65347 6.49385,-7.65347c0,0 -7.88539,4.17462 -9.74078,2.55116c-1.85539,-1.62346 3.71077,-3.71077 6.26193,-3.9427c2.55116,-0.23192 2.31923,-5.10231 1.39154,-8.58116"></path></g><path d="M281.03755,220.33201c8.23328,-10.20462 23.19232,-15.88674 23.19232,-1.27558c0,14.61116 -24.12002,25.27963 -28.52656,23.88809c-7.65347,-2.31923 -2.89904,-12.40789 5.33423,-22.61252z" fill="#a3b339"></path><path d="M289.27083,205.37296c4.63846,7.07366 -1.27558,37.22368 -13.56751,37.57157c-12.29193,0.34788 -13.91539,-18.32194 -10.32058,-31.54156c5.68212,-20.52521 19.24963,-12.87174 23.88809,-6.03z" fill="#a3b339"></path><path d="M264.91889,213.60624c0,0 -0.11596,0.23192 -0.11596,0.69577c-0.11596,0.46385 -0.11596,1.15962 -0.23192,2.08731c-0.23192,1.73942 -0.34788,4.29058 -0.23192,7.42154c0.11596,3.015 0.23192,6.60981 1.27558,10.20462c0.57981,1.73942 1.27558,3.47885 2.43519,4.87039c1.15962,1.39154 2.78308,2.31923 4.63846,2.66712l1.5075,0.23192l1.39154,0.11596h1.5075l1.5075,-0.11596c1.97135,-0.11596 3.82673,-0.57981 5.56616,-1.15962c3.47885,-1.15962 6.49385,-3.13096 8.81308,-5.10231c2.31923,-1.97135 4.05866,-3.82673 5.21827,-5.21827c1.15962,-1.39154 1.73942,-2.20327 1.73942,-2.20327c0,0 -0.46385,0.92769 -1.39154,2.43519c-0.46385,0.69577 -1.15962,1.62346 -1.97135,2.66712c-0.81173,0.92769 -1.73942,2.08731 -2.89904,3.13096c-2.20327,2.20327 -5.21827,4.40654 -8.92904,5.79808c-1.85539,0.69577 -3.82673,1.27558 -5.91404,1.39154l-1.62346,0.11596h-1.62346l-1.62346,-0.11596l-1.5075,-0.23192c-2.20327,-0.23192 -4.40654,-1.5075 -5.79808,-3.24693c-1.39154,-1.73942 -2.20327,-3.71077 -2.66712,-5.68212c-0.46385,-1.97135 -0.69577,-3.82673 -0.81173,-5.56616c-0.11596,-1.73942 -0.11596,-3.47885 0,-4.98635c0.23192,-3.13096 0.69577,-5.68212 1.04365,-7.42154c0.23192,-0.92769 0.34788,-1.5075 0.46385,-1.97135c0.11596,-0.57981 0.23192,-0.81173 0.23192,-0.81173z" fill="#687a27"></path><path d="M294.60506,210.59123c0,0 0.11596,-0.11596 0.34788,-0.11596c0.23192,-0.11596 0.57981,-0.23192 1.04365,-0.34788c0.46385,-0.11596 1.04365,-0.23192 1.73942,-0.34788c0.69577,0 1.39154,0 2.20327,0.23192c0.46385,0.11596 0.81173,0.23192 1.27558,0.46385c0.34788,0.23192 0.81173,0.46385 1.27558,0.69577c0.34788,0.23192 0.81173,0.57981 1.15962,0.92769c0.34788,0.34788 0.69577,0.81173 1.04365,1.15962c0.34788,0.46385 0.57981,0.92769 0.81173,1.39154c0.23192,0.46385 0.46385,0.92769 0.69577,1.39154c0.34788,1.04365 0.69577,1.97135 1.04365,3.015c0.23192,1.04365 0.46385,2.08731 0.69577,3.13096c0.23192,1.04365 0.34788,2.08731 0.46385,3.015c0.23192,1.97135 0.34788,3.82673 0.23192,5.4502c0,1.62346 -0.11596,2.89904 -0.23192,3.82673c-0.11596,0.46385 -0.11596,0.81173 -0.23192,1.04365c0,0.11596 -0.11596,0.23192 -0.11596,0.23192c-0.11596,0 -0.11596,-0.11596 -0.11596,-0.11596c0,0 0,0 0.11596,0c0,0 0.11596,-0.11596 0.11596,-0.23192c0,-0.23192 0,-0.57981 0,-1.04365c-0.11596,-0.92769 -0.23192,-2.20327 -0.46385,-3.71077c-0.23192,-1.5075 -0.46385,-3.36289 -0.81173,-5.21827c-0.11596,-0.92769 -0.34788,-1.97135 -0.57981,-2.89904c-0.23192,-1.04365 -0.46385,-1.97135 -0.69577,-3.015c-0.23192,-0.92769 -0.57981,-1.97135 -0.92769,-2.89904c-0.34788,-0.92769 -0.69577,-1.85539 -1.27558,-2.55116c-0.23192,-0.34788 -0.46385,-0.81173 -0.81173,-1.04365c-0.23192,-0.34788 -0.57981,-0.69577 -0.81173,-0.92769c-0.23192,-0.34788 -0.69577,-0.46385 -0.92769,-0.69577c-0.34788,-0.11596 -0.69577,-0.34788 -1.04365,-0.46385c-0.69577,-0.34788 -1.39154,-0.46385 -1.97135,-0.46385c-0.57981,0 -1.15962,-0.11596 -1.62346,0c-1.04365,-0.11596 -1.62346,0.11596 -1.62346,0.11596z" fill="#687a27"></path><path d="M303.65007,242.82856c0,0 -0.11596,0.11596 -0.23192,0.34788c-0.11596,0.23192 -0.34788,0.69577 -0.57981,1.04365c-0.23192,0.46385 -0.46385,0.92769 -0.69577,1.5075c-0.23192,0.57981 -0.57981,1.15962 -0.92769,1.73942c-0.69577,1.15962 -1.62346,2.31923 -2.66712,2.89904c-0.46385,0.34788 -1.04365,0.46385 -1.39154,0.46385c-0.34788,0 -0.46385,-0.23192 -0.46385,-0.11596c0,0 0,0 0.11596,0c0.11596,0 0.23192,-0.11596 0.34788,-0.11596c0.23192,-0.11596 0.46385,-0.46385 0.69577,-0.92769c0.46385,-0.81173 1.04365,-1.97135 1.73942,-3.13096c0.34788,-0.57981 0.69577,-1.15962 1.15962,-1.62346c0.46385,-0.57981 0.81173,-1.04365 1.27558,-1.39154c0.46385,-0.34788 0.81173,-0.57981 1.15962,-0.69577c0.23192,0 0.46385,0 0.46385,0z" fill="#687a27"></path><path d="M299.70738,243.52433c0,0 -0.23192,0.81173 -0.81173,1.73942c-0.23192,0.46385 -0.69577,1.04365 -1.15962,1.62346c-0.46385,0.57981 -1.04365,1.15962 -1.62346,1.62346c-0.57981,0.46385 -1.27558,0.92769 -1.97135,1.27558c-0.34788,0.11596 -0.69577,0.34788 -1.04365,0.46385c-0.34788,0.11596 -0.69577,0.23192 -0.92769,0.23192c-0.34788,0.11596 -0.57981,0.11596 -0.81173,0c-0.23192,0 -0.46385,0 -0.69577,-0.11596c-0.34788,-0.11596 -0.46385,-0.23192 -0.46385,-0.23192c0,0 0.23192,-0.11596 0.46385,-0.11596c0.11596,0 0.34788,-0.11596 0.57981,-0.23192c0.23192,-0.11596 0.34788,-0.23192 0.57981,-0.34788c0.23192,-0.11596 0.46385,-0.34788 0.69577,-0.46385c0.23192,-0.11596 0.46385,-0.34788 0.69577,-0.57981c0.46385,-0.46385 1.04365,-0.92769 1.62346,-1.39154c1.04365,-0.92769 2.20327,-1.85539 3.13096,-2.55116c1.04365,-0.57981 1.73942,-0.92769 1.73942,-0.92769z" fill="#687a27"></path><path d="M287.06756,245.1478c0,0 0.11596,0.11596 0.46385,0c0.23192,0 0.57981,-0.11596 1.04365,-0.34788c0.46385,-0.11596 0.92769,-0.34788 1.5075,-0.57981c0.57981,-0.23192 1.15962,-0.46385 1.73942,-0.57981c1.15962,-0.34788 2.43519,-0.69577 3.36289,-0.92769c0.92769,-0.23192 1.62346,-0.11596 1.62346,-0.11596c0,0 -0.46385,0.57981 -1.27558,1.15962c-0.81173,0.57981 -1.97135,1.27558 -3.24693,1.73942c-0.57981,0.23192 -1.27558,0.34788 -1.85539,0.46385c-0.57981,0.11596 -1.27558,0.11596 -1.73942,0c-0.57981,-0.11596 -0.92769,-0.23192 -1.27558,-0.46385c-0.34788,-0.11596 -0.34788,-0.34788 -0.34788,-0.34788z" fill="#687a27"></path><path d="M294.72103,234.13144c0,0 0.46385,0.34788 0.69577,1.04365c0.34788,0.57981 0.57981,1.5075 0.57981,2.55116c0,0.46385 -0.11596,0.92769 -0.23192,1.39154c-0.11596,0.46385 -0.34788,0.81173 -0.69577,1.15962c-0.11596,0.11596 -0.23192,0.23192 -0.46385,0.34788c-0.11596,0.11596 -0.23192,0.11596 -0.34788,0.23192c-0.23192,0.11596 -0.34788,0.11596 -0.34788,0.11596c0,0 0,-0.11596 0.11596,-0.34788c0,-0.11596 0,-0.23192 0.11596,-0.34788c0,-0.11596 0,-0.23192 0,-0.46385c0,-0.57981 0,-1.39154 0,-2.20327c0,-0.81173 0.11596,-1.62346 0.23192,-2.31923c0.23192,-0.69577 0.34788,-1.15962 0.34788,-1.15962z" fill="#687a27"></path><path d="M267.58601,180.44121c0,0 1.04365,0 2.89904,0.34788c0.92769,0.23192 1.97135,0.46385 3.24693,0.81173c1.27558,0.46385 2.66712,0.92769 4.05866,1.73942c1.39154,0.81173 2.89904,1.85539 4.17462,3.13096c1.27558,1.39154 2.55116,3.015 3.47885,4.87039c1.73942,3.59481 3.47885,7.53751 4.63846,11.71212c0.57981,2.08731 1.04365,4.17462 1.27558,6.37789c0.23192,2.08731 0.34788,4.17462 0.23192,6.26193c-0.23192,4.05866 -1.27558,7.76943 -2.43519,10.78443c-0.57981,1.5075 -1.27558,2.78308 -1.85539,3.9427c-0.57981,1.15962 -1.27558,2.08731 -1.73942,2.89904c-0.46385,0.81173 -0.92769,1.39154 -1.27558,1.73942c-0.34788,0.34788 -0.46385,0.57981 -0.46385,0.57981c0,0 0.46385,-0.92769 1.39154,-2.55116c0.46385,-0.81173 0.92769,-1.85539 1.39154,-3.015c0.46385,-1.15962 1.04365,-2.55116 1.5075,-4.05866c0.46385,-1.5075 0.92769,-3.13096 1.27558,-4.87039c0.34788,-1.73942 0.57981,-3.59481 0.57981,-5.56616c0,-1.97135 0,-3.9427 -0.34788,-5.91404c-0.23192,-1.97135 -0.69577,-4.05866 -1.27558,-6.03c-1.15962,-4.05866 -2.66712,-7.88539 -4.29058,-11.4802c-0.81173,-1.73942 -1.85539,-3.24693 -3.015,-4.63846c-1.15962,-1.27558 -2.43519,-2.31923 -3.82673,-3.24693c-2.55116,-1.73942 -5.10231,-2.66712 -6.84174,-3.13096c-1.62346,-0.57981 -2.78308,-0.69577 -2.78308,-0.69577z" fill="#687a27"></path></g><g data-paper-data="{&quot;index&quot;:null}" fill="#969330"><path d="M284.63237,203.98142c-3.13096,2.31923 -4.75443,-4.05866 -1.27558,-6.9577c3.015,-2.66712 4.29058,4.63846 1.27558,6.9577z"></path><path d="M272.57236,209.08373c-4.98635,1.27558 -6.9577,-6.84174 -1.5075,-9.39289c5.68212,-2.66712 6.49385,8.11731 1.5075,9.39289z"></path><path d="M273.9639,195.63218c-3.82673,-2.78308 -2.31923,-10.32058 3.13096,-7.76943c5.4502,2.66712 6.72577,14.84309 -3.13096,7.76943z"></path></g><path d="M205.54654,204.56123c0,0 0.81173,-0.11596 2.20327,-0.46385c1.39154,-0.23192 3.36289,-0.81173 5.68212,-1.5075c2.31923,-0.69577 4.98635,-1.73942 7.65347,-3.13096c1.39154,-0.69577 2.66712,-1.5075 4.05866,-2.31923c1.27558,-0.92769 2.55116,-1.73942 3.82673,-2.89904c1.27558,-1.04365 2.31923,-2.20327 3.36289,-3.36289c0.92769,-1.15962 1.97135,-2.43519 2.66712,-3.71077c0.81173,-1.27558 1.39154,-2.55116 1.97135,-3.82673c0.57981,-1.27558 0.92769,-2.55116 1.39154,-3.59481c0.11596,-0.57981 0.34788,-1.15962 0.46385,-1.62346c0.11596,-0.57981 0.34788,-1.04365 0.34788,-1.5075c0.23192,-0.92769 0.34788,-1.85539 0.46385,-2.55116c0.23192,-1.39154 0.34788,-2.20327 0.34788,-2.20327c0,0 0,0.81173 0,2.20327c0,0.69577 -0.11596,1.62346 -0.11596,2.55116c0,1.04365 -0.23192,2.08731 -0.46385,3.36289c-0.11596,0.57981 -0.34788,1.27558 -0.46385,1.85539c-0.11596,0.69577 -0.46385,1.27558 -0.69577,1.97135c-0.46385,1.39154 -1.04365,2.78308 -1.85539,4.17462c-0.81173,1.39154 -1.62346,2.78308 -2.66712,4.05866c-1.04365,1.27558 -2.20327,2.55116 -3.47885,3.59481c-1.27558,1.15962 -2.66712,2.08731 -4.05866,3.015c-1.39154,0.81173 -2.78308,1.62346 -4.29058,2.20327c-1.39154,0.69577 -2.89904,1.15962 -4.17462,1.62346c-1.39154,0.46385 -2.66712,0.81173 -3.82673,1.04365c-2.55116,0.57981 -4.63846,0.81173 -6.03,0.92769c-1.39154,0.11596 -2.31923,0.11596 -2.31923,0.11596z" data-paper-data="{&quot;index&quot;:null}" fill="#4a3369"></path><path d="M241.6106,172.09198c0,0 3.24693,-0.46385 8.00135,-0.11596c1.15962,0 2.55116,0.23192 3.9427,0.34788c1.39154,0.23192 2.78308,0.34788 4.29058,0.69577c1.5075,0.34788 3.015,0.57981 4.5225,1.15962c1.5075,0.46385 3.015,0.92769 4.63846,1.5075c1.5075,0.46385 3.015,1.15962 4.5225,1.85539c0.69577,0.23192 1.39154,0.69577 2.08731,1.04365c0.69577,0.34788 1.39154,0.69577 2.08731,1.04365c1.39154,0.69577 2.55116,1.5075 3.71077,2.20327c1.15962,0.69577 2.20327,1.5075 3.24693,2.20327c0.92769,0.69577 1.85539,1.39154 2.66712,1.97135c0.69577,0.69577 1.39154,1.15962 1.85539,1.62346c1.04365,0.92769 1.62346,1.5075 1.62346,1.5075c0,0 -0.69577,-0.46385 -1.85539,-1.15962c-0.57981,-0.34788 -1.27558,-0.81173 -2.08731,-1.39154c-0.81173,-0.57981 -1.73942,-1.04365 -2.78308,-1.62346c-1.04365,-0.57981 -2.08731,-1.27558 -3.36289,-1.85539c-1.27558,-0.57981 -2.43519,-1.39154 -3.82673,-1.97135c-1.39154,-0.57981 -2.66712,-1.27558 -4.17462,-1.85539c-1.39154,-0.57981 -2.89904,-1.27558 -4.40654,-1.73942c-1.5075,-0.57981 -3.015,-1.04365 -4.5225,-1.5075c-1.5075,-0.46385 -3.015,-0.81173 -4.40654,-1.27558c-1.39154,-0.34788 -2.78308,-0.69577 -4.17462,-0.92769c-1.39154,-0.23192 -2.55116,-0.57981 -3.82673,-0.69577c-4.5225,-0.92769 -7.76943,-1.04365 -7.76943,-1.04365z" data-paper-data="{&quot;index&quot;:null}" fill="#4a3369"></path><path d="M244.85753,229.02913c0,0 0.92769,-0.11596 2.66712,-0.46385c0.81173,-0.11596 1.85539,-0.34788 2.89904,-0.69577c1.15962,-0.34788 2.43519,-0.69577 3.71077,-1.15962c2.66712,-0.92769 5.79808,-2.20327 8.92904,-4.05866c1.62346,-0.81173 3.13096,-1.85539 4.63846,-2.89904c1.5075,-1.04365 3.015,-2.20327 4.40654,-3.59481c1.39154,-1.27558 2.78308,-2.55116 4.05866,-3.9427c0.57981,-0.69577 1.15962,-1.39154 1.85539,-2.08731c0.57981,-0.69577 1.15962,-1.39154 1.62346,-2.20327c1.04365,-1.5075 1.97135,-2.89904 2.89904,-4.29058c0.46385,-0.69577 0.81173,-1.39154 1.15962,-2.08731c0.34788,-0.69577 0.81173,-1.27558 1.04365,-1.97135c0.57981,-1.27558 1.27558,-2.43519 1.73942,-3.59481c0.46385,-1.04365 0.92769,-1.97135 1.15962,-2.78308c0.57981,-1.62346 1.04365,-2.43519 1.04365,-2.43519c0,0 -0.23192,0.92769 -0.69577,2.55116c-0.23192,0.81173 -0.57981,1.85539 -0.92769,2.89904c-0.34788,1.15962 -0.81173,2.43519 -1.39154,3.71077c-0.57981,1.39154 -1.15962,2.78308 -1.97135,4.29058c-0.81173,1.5075 -1.73942,3.015 -2.66712,4.5225c-1.04365,1.5075 -2.20327,3.015 -3.47885,4.5225c-1.27558,1.39154 -2.66712,2.89904 -4.17462,4.17462c-1.5075,1.27558 -3.015,2.55116 -4.63846,3.59481c-1.62346,1.04365 -3.24693,2.08731 -4.87039,2.89904c-1.62346,0.81173 -3.24693,1.5075 -4.87039,2.20327c-1.62346,0.57981 -3.13096,1.04365 -4.5225,1.39154c-2.78308,0.69577 -5.21827,1.04365 -6.9577,1.15962c-1.73942,0.46385 -2.66712,0.34788 -2.66712,0.34788z" data-paper-data="{&quot;index&quot;:null}" fill="#4a3369"></path><path d="M207.28596,205.72085c0,0 2.31923,1.04365 5.68212,2.89904c1.73942,0.92769 3.59481,1.97135 5.68212,3.24693c2.08731,1.15962 4.29058,2.55116 6.37789,3.82673c1.04365,0.69577 2.20327,1.39154 3.24693,2.08731c1.04365,0.69577 2.08731,1.39154 3.13096,1.97135c1.97135,1.27558 3.82673,2.55116 5.4502,3.71077c3.13096,2.20327 5.10231,3.82673 5.10231,3.82673c0,0 -2.31923,-1.04365 -5.68212,-2.89904c-1.73942,-0.92769 -3.59481,-1.97135 -5.68212,-3.24693c-1.04365,-0.57981 -2.08731,-1.15962 -3.13096,-1.85539c-1.04365,-0.69577 -2.20327,-1.27558 -3.24693,-1.97135c-2.20327,-1.39154 -4.29058,-2.66712 -6.26193,-4.05866c-1.97135,-1.27558 -3.82673,-2.55116 -5.4502,-3.71077c-3.13096,-2.20327 -5.21827,-3.82673 -5.21827,-3.82673z" data-paper-data="{&quot;index&quot;:null}" fill="#4a3369"></path><g data-paper-data="{&quot;index&quot;:null}"><path d="M196.50153,155.50946c0,0 13.33559,-21.80078 29.33829,-35.9481c0,0 2.43519,37.22368 0.92769,43.71753c0,0 -11.59616,-10.43655 -30.26598,-7.76943z" fill="#6d4b9b"></path><path d="M226.76752,163.27889c0,0 -0.23192,-2.55116 -0.46385,-6.49385c-0.11596,-1.97135 -0.23192,-4.17462 -0.34788,-6.60981c0,-1.15962 -0.11596,-2.43519 -0.11596,-3.71077c0,-1.27558 -0.11596,-2.55116 -0.11596,-3.82673c0,-1.27558 0,-2.55116 0,-3.82673c0,-1.27558 0,-2.55116 0,-3.71077c0,-2.43519 0,-4.63846 0,-6.60981c0,-1.97135 0.11596,-3.59481 0.11596,-4.75443c0,-1.15962 0.11596,-1.73942 0.11596,-1.73942c0,0 0.46385,2.55116 0.92769,6.49385c0.23192,1.97135 0.34788,4.17462 0.57981,6.60981c0.11596,2.43519 0.23192,4.98635 0.34788,7.65347c0,2.55116 0,5.21827 0,7.65347c0,2.43519 -0.11596,4.75443 -0.23192,6.60981c-0.46385,3.59481 -0.81173,6.26193 -0.81173,6.26193z" fill="#4a3369"></path><path d="M203.69115,146.69638c0,0 1.73942,-3.9427 3.13096,-5.33423c0,0 0,-0.11596 -0.23192,-0.46385c1.04365,-1.39154 2.20327,-2.78308 3.36289,-4.29058c0.11596,0 0.23192,0.11596 0.34788,0.23192c0,0 3.13096,-3.59481 4.40654,-4.87039c0,0 1.27558,5.4502 0.46385,6.72577c0,0 5.56616,1.15962 7.42154,2.66712c0,0 -5.56616,3.13096 -7.76943,2.43519c0,0 0.57981,4.5225 -0.34788,6.14597c0,0 -3.9427,-3.9427 -4.40654,-5.4502c0,0 -2.08731,1.27558 -6.37789,2.20327z" fill="#e0c448"></path><path d="M196.50153,155.50946c0,0 1.39154,-2.55116 3.71077,-6.26193c1.15962,-1.85539 2.55116,-3.9427 4.05866,-6.26193c0.81173,-1.15962 1.62346,-2.31923 2.43519,-3.47885c0.81173,-1.15962 1.73942,-2.31923 2.66712,-3.47885c1.85539,-2.31923 3.59481,-4.5225 5.4502,-6.60981c0.92769,-1.04365 1.85539,-1.97135 2.66712,-2.89904c0.81173,-0.92769 1.73942,-1.73942 2.55116,-2.43519c0.81173,-0.81173 1.5075,-1.39154 2.31923,-1.97135c0.69577,-0.57981 1.27558,-1.04365 1.85539,-1.39154c1.04365,-0.69577 1.62346,-1.15962 1.62346,-1.15962c0,0 -0.57981,0.46385 -1.39154,1.39154c-0.46385,0.46385 -0.92769,1.04365 -1.62346,1.62346c-0.57981,0.57981 -1.27558,1.39154 -1.97135,2.20327c-1.39154,1.62346 -3.015,3.59481 -4.75443,5.68212c-0.81173,1.04365 -1.73942,2.20327 -2.55116,3.24693c-0.92769,1.15962 -1.73942,2.31923 -2.66712,3.36289c-1.73942,2.31923 -3.59481,4.63846 -5.21827,6.72577c-1.62346,2.20327 -3.24693,4.17462 -4.5225,5.91404c-2.78308,3.59481 -4.63846,5.79808 -4.63846,5.79808z" fill="#4a3369"></path></g><g data-paper-data="{&quot;index&quot;:null}"><path d="M205.54654,204.56123c0,0 4.75443,-3.36289 4.98635,-8.81308c0,0 22.84444,-6.9577 26.9031,-29.9181l2.43519,6.14597c0,0 27.94675,-1.27558 48.9358,17.16232c0,0 -7.65347,37.22368 -43.94945,40.00676z" fill="#6d4b9b"></path><path d="M273.15216,195.86411c0,0 -1.97135,-3.015 -2.20327,-5.10231c0,0 3.9427,0.57981 4.87039,1.5075c0,0 2.55116,-2.89904 3.59481,-3.9427c0,0 0.92769,4.29058 0.34788,5.33423c0,0 4.29058,0.92769 5.91404,2.08731c0,0 -4.40654,2.43519 -6.26193,1.97135c0,0 0.57981,3.59481 -0.23192,4.87039c0,0 -3.13096,-3.13096 -3.47885,-4.29058c0,0 -1.73942,0.92769 -4.98635,1.73942c0,0.11596 1.39154,-3.015 2.43519,-4.17462z" fill="#e0c448"></path><path d="M247.52465,214.76585c0,0 0.46385,-3.59481 1.5075,-5.33423c0,0 2.66712,2.89904 2.78308,4.29058c0,0 3.82673,-0.57981 5.21827,-0.69577c0,0 -2.08731,3.9427 -3.13096,4.29058c0,0 2.66712,3.59481 3.13096,5.4502c0,0 -4.98635,-0.92769 -6.03,-2.55116c0,0 -1.85539,3.015 -3.36289,3.59481c0,0 -0.34788,-4.40654 0.11596,-5.56616c0,0 -1.97135,-0.34788 -4.98635,-1.85539c0.11596,0.11596 3.24693,-1.39154 4.75443,-1.62346z" fill="#e0c448"></path><path d="M250.0758,188.67449c0,0 -1.5075,-3.24693 -1.39154,-5.33423c0,0 3.82673,1.15962 4.63846,2.20327c0,0 3.015,-2.55116 4.05866,-3.36289c0,0 0.34788,4.40654 -0.46385,5.33423c0,0 4.17462,1.62346 5.4502,3.015c0,0 -4.75443,1.73942 -6.49385,0.92769c0,0 0,3.59481 -1.04365,4.75443c0,0 -2.55116,-3.59481 -2.78308,-4.87039c0,0 -1.85539,0.69577 -5.21827,1.04365c0.11596,0.11596 1.97135,-2.89904 3.24693,-3.71077z" fill="#e0c448"></path><path d="M225.83982,200.96642c0,0 -3.59481,-0.23192 -5.33423,-1.27558c0,0 2.78308,-2.78308 4.17462,-3.015c0,0 -0.81173,-3.82673 -1.04365,-5.21827c0,0 4.05866,1.85539 4.5225,2.89904c0,0 3.36289,-2.89904 5.21827,-3.36289c0,0 -0.69577,4.98635 -2.20327,6.14597c0,0 3.13096,1.73942 3.71077,3.13096c0,0 -4.29058,0.57981 -5.56616,0.11596c0,0 -0.23192,1.97135 -1.5075,4.98635c-0.11596,0.23192 -1.85539,-2.89904 -1.97135,-4.40654z" fill="#e0c448"></path><path d="M244.0458,171.97601c2.78308,0.23192 6.84174,0.57981 11.59616,1.5075c0.34788,0.23192 0.57981,0.57981 0.69577,0.92769c0,0 -4.40654,0.57981 -5.56616,0.11596c0,0 -0.23192,1.85539 -1.5075,4.98635c0,0 -1.73942,-3.015 -1.97135,-4.5225c0,0 -3.59481,-0.23192 -5.33423,-1.27558c0,0 1.04365,-0.92769 2.08731,-1.73942z" fill="#e0c448"></path><path d="M235.34868,223.23105l-10.66847,-6.72577c-0.11596,-0.69577 -0.23192,-1.27558 -0.23192,-1.62346c0,0 4.05866,1.85539 4.5225,2.89904c0,0 3.36289,-2.89904 5.21827,-3.36289c0,0 -0.69577,4.98635 -2.20327,6.14597c0,0 2.43519,1.27558 3.36289,2.66712z" fill="#e0c448"></path><path d="M205.54654,204.56123c0,0 0.81173,-0.11596 2.20327,-0.46385c1.39154,-0.23192 3.36289,-0.81173 5.68212,-1.5075c2.31923,-0.69577 4.98635,-1.73942 7.65347,-3.13096c1.39154,-0.69577 2.66712,-1.5075 4.05866,-2.31923c1.27558,-0.92769 2.55116,-1.73942 3.82673,-2.89904c1.27558,-1.04365 2.31923,-2.20327 3.36289,-3.36289c0.92769,-1.15962 1.97135,-2.43519 2.66712,-3.71077c0.81173,-1.27558 1.39154,-2.55116 1.97135,-3.82673c0.57981,-1.27558 0.92769,-2.55116 1.39154,-3.59481c0.11596,-0.57981 0.34788,-1.15962 0.46385,-1.62346c0.11596,-0.57981 0.34788,-1.04365 0.34788,-1.5075c0.23192,-0.92769 0.34788,-1.85539 0.46385,-2.55116c0.23192,-1.39154 0.34788,-2.20327 0.34788,-2.20327c0,0 0,0.81173 0,2.20327c0,0.69577 -0.11596,1.62346 -0.11596,2.55116c0,1.04365 -0.23192,2.08731 -0.46385,3.36289c-0.11596,0.57981 -0.34788,1.27558 -0.46385,1.85539c-0.11596,0.69577 -0.46385,1.27558 -0.69577,1.97135c-0.46385,1.39154 -1.04365,2.78308 -1.85539,4.17462c-0.81173,1.39154 -1.62346,2.78308 -2.66712,4.05866c-1.04365,1.27558 -2.20327,2.55116 -3.47885,3.59481c-1.27558,1.15962 -2.66712,2.08731 -4.05866,3.015c-1.39154,0.81173 -2.78308,1.62346 -4.29058,2.20327c-1.39154,0.69577 -2.89904,1.15962 -4.17462,1.62346c-1.39154,0.46385 -2.66712,0.81173 -3.82673,1.04365c-2.55116,0.57981 -4.63846,0.81173 -6.03,0.92769c-1.39154,0.11596 -2.31923,0.11596 -2.31923,0.11596z" fill="#4a3369"></path><path d="M241.6106,172.09198c0,0 3.24693,-0.46385 8.00135,-0.11596c1.15962,0 2.55116,0.23192 3.9427,0.34788c1.39154,0.23192 2.78308,0.34788 4.29058,0.69577c1.5075,0.34788 3.015,0.57981 4.5225,1.15962c1.5075,0.46385 3.015,0.92769 4.63846,1.5075c1.5075,0.46385 3.015,1.15962 4.5225,1.85539c0.69577,0.23192 1.39154,0.69577 2.08731,1.04365c0.69577,0.34788 1.39154,0.69577 2.08731,1.04365c1.39154,0.69577 2.55116,1.5075 3.71077,2.20327c1.15962,0.69577 2.20327,1.5075 3.24693,2.20327c0.92769,0.69577 1.85539,1.39154 2.66712,1.97135c0.69577,0.69577 1.39154,1.15962 1.85539,1.62346c1.04365,0.92769 1.62346,1.5075 1.62346,1.5075c0,0 -0.69577,-0.46385 -1.85539,-1.15962c-0.57981,-0.34788 -1.27558,-0.81173 -2.08731,-1.39154c-0.81173,-0.57981 -1.73942,-1.04365 -2.78308,-1.62346c-1.04365,-0.57981 -2.08731,-1.27558 -3.36289,-1.85539c-1.27558,-0.57981 -2.43519,-1.39154 -3.82673,-1.97135c-1.39154,-0.57981 -2.66712,-1.27558 -4.17462,-1.85539c-1.39154,-0.57981 -2.89904,-1.27558 -4.40654,-1.73942c-1.5075,-0.57981 -3.015,-1.04365 -4.5225,-1.5075c-1.5075,-0.46385 -3.015,-0.81173 -4.40654,-1.27558c-1.39154,-0.34788 -2.78308,-0.69577 -4.17462,-0.92769c-1.39154,-0.23192 -2.55116,-0.57981 -3.82673,-0.69577c-4.5225,-0.92769 -7.76943,-1.04365 -7.76943,-1.04365z" fill="#4a3369"></path><path d="M244.85753,229.02913c0,0 0.92769,-0.11596 2.66712,-0.46385c0.81173,-0.11596 1.85539,-0.34788 2.89904,-0.69577c1.15962,-0.34788 2.43519,-0.69577 3.71077,-1.15962c2.66712,-0.92769 5.79808,-2.20327 8.92904,-4.05866c1.62346,-0.81173 3.13096,-1.85539 4.63846,-2.89904c1.5075,-1.04365 3.015,-2.20327 4.40654,-3.59481c1.39154,-1.27558 2.78308,-2.55116 4.05866,-3.9427c0.57981,-0.69577 1.15962,-1.39154 1.85539,-2.08731c0.57981,-0.69577 1.15962,-1.39154 1.62346,-2.20327c1.04365,-1.5075 1.97135,-2.89904 2.89904,-4.29058c0.46385,-0.69577 0.81173,-1.39154 1.15962,-2.08731c0.34788,-0.69577 0.81173,-1.27558 1.04365,-1.97135c0.57981,-1.27558 1.27558,-2.43519 1.73942,-3.59481c0.46385,-1.04365 0.92769,-1.97135 1.15962,-2.78308c0.57981,-1.62346 1.04365,-2.43519 1.04365,-2.43519c0,0 -0.23192,0.92769 -0.69577,2.55116c-0.23192,0.81173 -0.57981,1.85539 -0.92769,2.89904c-0.34788,1.15962 -0.81173,2.43519 -1.39154,3.71077c-0.57981,1.39154 -1.15962,2.78308 -1.97135,4.29058c-0.81173,1.5075 -1.73942,3.015 -2.66712,4.5225c-1.04365,1.5075 -2.20327,3.015 -3.47885,4.5225c-1.27558,1.39154 -2.66712,2.89904 -4.17462,4.17462c-1.5075,1.27558 -3.015,2.55116 -4.63846,3.59481c-1.62346,1.04365 -3.24693,2.08731 -4.87039,2.89904c-1.62346,0.81173 -3.24693,1.5075 -4.87039,2.20327c-1.62346,0.57981 -3.13096,1.04365 -4.5225,1.39154c-2.78308,0.69577 -5.21827,1.04365 -6.9577,1.15962c-1.73942,0.46385 -2.66712,0.34788 -2.66712,0.34788z" fill="#4a3369"></path><path d="M207.28596,205.72085c0,0 2.31923,1.04365 5.68212,2.89904c1.73942,0.92769 3.59481,1.97135 5.68212,3.24693c2.08731,1.15962 4.29058,2.55116 6.37789,3.82673c1.04365,0.69577 2.20327,1.39154 3.24693,2.08731c1.04365,0.69577 2.08731,1.39154 3.13096,1.97135c1.97135,1.27558 3.82673,2.55116 5.4502,3.71077c3.13096,2.20327 5.10231,3.82673 5.10231,3.82673c0,0 -2.31923,-1.04365 -5.68212,-2.89904c-1.73942,-0.92769 -3.59481,-1.97135 -5.68212,-3.24693c-1.04365,-0.57981 -2.08731,-1.15962 -3.13096,-1.85539c-1.04365,-0.69577 -2.20327,-1.27558 -3.24693,-1.97135c-2.20327,-1.39154 -4.29058,-2.66712 -6.26193,-4.05866c-1.97135,-1.27558 -3.82673,-2.55116 -5.4502,-3.71077c-3.13096,-2.20327 -5.21827,-3.82673 -5.21827,-3.82673z" fill="#4a3369"></path><path d="M205.8474,206.74255c-0.97611,-2.29914 -0.81159,-4.56875 0.36746,-5.06932c1.17905,-0.50057 2.92614,0.95747 3.90225,3.25661c0.97611,2.29914 0.81159,4.56875 -0.36746,5.06932c-1.17905,0.50057 -2.92614,-0.95747 -3.90225,-3.25661z" fill="#bdabd6"></path></g><g data-paper-data="{&quot;index&quot;:null}"><g><path d="M201.37192,161.19158c0,-5.31563 4.30918,-9.62481 9.62481,-9.62481c5.31563,0 9.62481,4.30918 9.62481,9.62481c0,5.31563 -4.30918,9.62481 -9.62481,9.62481c-5.31563,0 -9.62481,-4.30918 -9.62481,-9.62481z" fill="#a3b339"></path><path d="M203.69115,161.19158c0,-4.03476 3.27083,-7.30558 7.30558,-7.30558c4.03476,0 7.30558,3.27083 7.30558,7.30558c0,4.03476 -3.27083,7.30558 -7.30558,7.30558c-4.03476,0 -7.30558,-3.27083 -7.30558,-7.30558z" fill="#e7ffbd"></path><path d="M217.02674,161.65543c-1.27558,3.24693 -11.4802,3.015 -11.4802,-0.34788c0,-4.75443 12.75578,-2.78308 11.4802,0.34788z" fill="#2b3021"></path><path d="M201.48788,159.56812c0,0 0.11596,-0.46385 0.34788,-1.27558c0.23192,-0.81173 0.69577,-1.97135 1.5075,-3.13096c0.46385,-0.57981 0.92769,-1.15962 1.62346,-1.73942c0.69577,-0.57981 1.39154,-1.15962 2.31923,-1.39154c0.46385,-0.23192 0.92769,-0.34788 1.39154,-0.46385c0.46385,-0.11596 0.92769,-0.23192 1.5075,-0.23192c0.46385,0 1.04365,-0.11596 1.5075,0h0.69577l0.69577,0.11596c1.04365,0.11596 1.97135,0.46385 2.78308,0.92769c0.92769,0.46385 1.62346,1.04365 2.31923,1.73942c0.57981,0.69577 1.15962,1.39154 1.5075,2.20327c0.34788,0.81173 0.69577,1.5075 0.81173,2.20327c0.23192,0.69577 0.34788,1.39154 0.34788,1.97135c0.11596,0.57981 0,1.15962 0,1.5075c0,0.81173 -0.11596,1.27558 -0.11596,1.27558c0,0 0,-0.46385 -0.11596,-1.27558c-0.11596,-0.46385 -0.11596,-0.92769 -0.23192,-1.5075c-0.11596,-0.57981 -0.23192,-1.15962 -0.46385,-1.85539c-0.23192,-0.69577 -0.57981,-1.39154 -0.92769,-2.08731c-0.34788,-0.69577 -0.92769,-1.27558 -1.5075,-1.97135c-0.57981,-0.57981 -1.27558,-1.15962 -2.20327,-1.5075c-0.81173,-0.34788 -1.73942,-0.69577 -2.55116,-0.81173l-0.69577,-0.11596h-0.69577c-0.46385,-0.11596 -0.92769,0 -1.39154,0c-0.46385,0 -0.92769,0.11596 -1.27558,0.11596c-0.46385,0.11596 -0.81173,0.23192 -1.27558,0.34788c-1.62346,0.57981 -2.89904,1.73942 -3.71077,2.78308c-0.92769,1.04365 -1.5075,2.08731 -1.85539,2.89904c-0.23192,0.81173 -0.34788,1.27558 -0.34788,1.27558z" fill="#687a27"></path></g><path d="M203.57519,162.58312c0,0 0,-0.34788 0,-1.15962c0,-0.69577 0.11596,-1.73942 0.46385,-2.89904c0.34788,-1.15962 1.04365,-2.55116 2.31923,-3.71077c0.57981,-0.57981 1.39154,-0.92769 2.20327,-1.15962c0.81173,-0.23192 1.62346,-0.34788 2.55116,-0.34788c0.81173,0 1.73942,0.11596 2.43519,0.34788c0.81173,0.23192 1.62346,0.57981 2.20327,1.04365c1.27558,0.92769 2.08731,2.31923 2.43519,3.59481c0.34788,1.15962 0.34788,2.31923 0.34788,3.015c-0.11596,0.69577 -0.23192,1.15962 -0.23192,1.15962c0,0 0.11596,-0.34788 0,-1.15962c0,-0.69577 -0.23192,-1.73942 -0.57981,-2.78308c-0.46385,-1.04365 -1.27558,-2.20327 -2.43519,-3.015c-0.57981,-0.34788 -1.27558,-0.69577 -1.97135,-0.92769c-0.69577,-0.23192 -1.5075,-0.34788 -2.31923,-0.34788c-0.69577,0 -1.5075,0 -2.20327,0.23192c-0.69577,0.23192 -1.39154,0.46385 -1.97135,0.92769c-1.15962,0.81173 -1.85539,2.08731 -2.31923,3.13096c-0.46385,1.15962 -0.69577,2.08731 -0.81173,2.78308c0,0.92769 -0.11596,1.27558 -0.11596,1.27558z" fill="#687a27"></path></g></g></g></svg>