<svg version="1.1" xmlns="http://www.w3.org/2000/svg" xmlns:xlink="http://www.w3.org/1999/xlink" width="173.81787" height="119.50849" viewBox="0,0,173.81787,119.50849"><g transform="translate(-153.09107,-151.98195)"><g data-paper-data="{&quot;isPaintingLayer&quot;:true}" fill-rule="nonzero" stroke="#000000" stroke-width="1" stroke-linecap="butt" stroke-linejoin="miter" stroke-miterlimit="10" stroke-dasharray="" stroke-dashoffset="0" style="mix-blend-mode: normal"><g data-paper-data="{&quot;index&quot;:null}"><path d="M232.32918,185.64604c0.34671,10.9439 13.3996,30.00544 22.22037,37.94285c2.04525,1.84114 3.75154,6.08384 3.47759,14.06324c-0.12612,3.55549 -0.70225,7.28597 -2.21948,11.29061c0,0 -0.60321,3.63426 -4.38104,10.26882c-6.55753,11.51295 -28.34106,20.77579 -25.65943,-3.35323c0.80197,-7.22467 4.30751,-14.70592 6.4385,-17.82012c-1.41565,0.75648 -8.4241,5.04826 -11.39383,1.59435c-3.80064,-4.41954 9.6437,-15.23035 9.6437,-15.23035c-3.56334,1.5505 -8.41187,2.69307 -9.97469,-0.13659c-2.18872,-3.97389 4.65072,-10.27405 4.65072,-10.27405c-2.11082,-0.1068 -5.83695,0.14096 -6.59517,-1.87975c-0.75822,-2.02332 2.12663,-6.41397 3.45032,-7.64229c-3.93974,-0.30383 -5.97179,-1.97162 -6.05406,-3.68324c-0.25485,-1.81321 2.32183,-5.53942 6.40164,-8.36811c-2.53456,-4.43187 -0.14445,-9.47567 1.8911,-10.60244c1.95153,-1.08039 3.88551,-0.95603 5.82832,0.10943c0.92013,0.4929 2.20628,1.52518 2.27545,3.72089z" fill="#279afa"></path><path d="M232.32918,185.64606c0.34671,10.9439 13.3996,30.00544 22.22037,37.94285c2.04525,1.84114 3.75154,6.08384 3.47759,14.06324c-0.12612,3.55549 -0.70225,7.28597 -2.21948,11.29061c-2.21413,5.95084 -11.89993,17.53908 -18.59231,16.16272c-11.91303,-2.4523 3.26475,-32.47782 3.26475,-32.47782c-23.30162,7.67994 -2.9417,-11.84037 -2.9417,-11.84037c-21.21524,4.72338 -5.93765,-9.46422 -5.93765,-9.46422c-14.71902,0.91315 -3.23497,-9.66834 -3.23497,-9.66834c-12.51022,-0.09448 -6.02525,-9.24178 -6.02525,-9.24178c-2.53552,-4.43187 -0.14542,-9.47654 1.89013,-10.60244c1.95153,-1.07952 3.88551,-0.95613 5.82832,0.11118c0.9149,0.49639 2.20105,1.52867 2.2702,3.72437z" fill="#0043a5"></path></g><path d="M237.94466,195.15413c1.78168,-3.08266 4.10699,-4.43187 7.64938,-4.86783c1.52072,-0.17336 2.60808,-0.13048 3.8242,0.78267c1.10832,0.82565 -0.42995,3.06259 -5.40545,3.93276c5.34589,0.49649 8.18689,1.1093 8.6212,3.1948c0.32653,1.62839 -1.99888,2.49866 -3.65006,2.25789c-3.75853,-0.54102 -7.86638,-1.99703 -9.64892,1.39296c-0.45613,0.86766 -0.65316,1.71599 -1.56456,1.99791c-1.00152,0.30645 -2.21676,-0.32653 -2.34898,-1.39034c-0.21711,-1.8911 0.83088,-3.05462 0.34671,-4.8687c-0.17249,-0.65133 -7.30092,-3.39085 -10.21197,-4.56399c1.43409,-0.34671 3.32431,-1.58639 4.7357,-1.99878c0.96039,-0.28103 5.26265,2.0469 7.65277,4.13065z" data-paper-data="{&quot;index&quot;:null}" fill="#ffa600"></path><g data-paper-data="{&quot;index&quot;:null}"><path d="M244.46281,173.28737c-0.2723,1.62413 -0.16986,3.08974 0.27492,4.50628c-4.29352,12.93832 -11.67923,24.31634 -24.08876,29.10452c-7.08895,2.73769 -21.64083,-1.86567 -31.46748,-12.06271c-6.34306,5.10152 -10.63658,9.24188 -18.15897,11.94107c-8.10105,2.90494 -5.49121,-5.1804 -3.62542,-8.66409c-3.48283,0.99814 -9.20424,0.49911 -10.32402,-1.86567c-1.15218,-2.43037 1.38412,-4.39772 4.36969,-5.64177c-3.35846,-0.86853 -8.16324,-1.34746 -7.83582,-4.72426c0.35632,-3.68587 3.46614,-3.31209 8.83211,-4.22873c-2.98458,-2.23955 -6.71779,-5.90874 -5.099,-9.20512c1.7388,-3.48361 9.55968,-6.05056 31.59106,10.19974c6.71508,1.24316 31.53227,-15.54902 41.29596,-21.64345c12.74916,-7.95845 26.85003,-12.79823 38.30876,-3.2342c0.85446,0.71447 1.55486,1.42885 2.13973,2.1406c-3.5975,-1.54613 -7.94438,-1.1644 -11.87189,-0.16103c-0.88696,0.22671 -1.75364,0.48242 -2.58365,0.7555c-5.34938,1.77206 -9.20424,4.91255 -11.07079,10.19887c-0.32042,0.90966 -0.54898,1.76587 -0.68644,2.58442z" fill="#ff0600"></path><path d="M256.21916,160.5032c-5.34763,1.77206 -9.20336,4.91255 -11.06905,10.20062c-0.32129,0.90966 -0.55072,1.76587 -0.6873,2.58442c-1.64246,0.32575 -5.49819,-0.47971 -8.54846,-4.55789c-2.53194,-3.38378 0.25475,-7.77277 4.3171,-9.60082c6.44025,-2.89262 13.42773,-3.61845 18.57135,0.61815c-0.88696,0.22671 -1.75364,0.48155 -2.58365,0.7555z" fill="#0043a5"></path><path d="M272.26548,160.75184c0,0 16.31599,13.99591 4.60173,39.67543c-2.25449,-10.40191 -9.84168,-26.69597 -20.27241,-23.13438c-0.43606,3.57644 1.29041,7.01106 4.71018,8.12909c-4.10699,3.26737 -10.15328,1.16789 -13.54327,-2.65631c-1.50588,-1.69844 -2.50303,-3.30064 -3.02572,-4.9755c-0.44218,-1.41652 -0.54636,-2.88215 -0.27318,-4.5054c0.13745,-0.81768 0.36688,-1.67476 0.68644,-2.58442c1.86655,-5.28632 5.72403,-8.42681 11.07079,-10.19887c0.83001,-0.27395 1.69757,-0.52879 2.58365,-0.75638c3.93014,-1.0025 8.27703,-1.38422 11.87189,0.16191c0.54888,0.2364 1.07952,0.51395 1.58988,0.84485z" fill="#ffa600"></path></g><path d="M233.08906,208.03202c3.20965,-3.96002 6.79929,-5.34414 11.90167,-5.16555c2.18882,0.09196 4.69709,0.94468 5.11907,3.08266c0.75822,3.85573 -8.45736,1.74055 -10.32305,3.60622c6.83945,-0.87027 13.23856,3.02048 13.38562,6.06726c0.09283,2.37526 -3.38475,3.08266 -5.66806,2.37702c-5.19173,-1.60919 -10.67074,-4.58505 -13.9477,-0.19517c-0.83962,1.12677 -1.30633,2.27982 -2.65893,2.47412c-1.47959,0.20575 -3.05996,-0.9569 -3.00652,-2.49081c0.11728,-2.71936 2.47334,-4.27161 1.58203,-6.80355c-1.38151,-3.91967 -8.71919,-6.2827 -13.41366,-8.73674c2.10471,-0.1689 5.31524,-1.27732 6.93577,-2.7701c1.7388,0.62426 7.18266,5.07271 10.09372,8.55466z" data-paper-data="{&quot;index&quot;:null}" fill="#ffa600"></path><g data-paper-data="{&quot;index&quot;:null}"><path d="M253.3834,161.75694c4.12717,4.62617 -2.82705,11.48055 -8.95299,6.92967c-2.38924,-1.7773 -1.99966,-5.21629 -0.64958,-6.75282c2.20628,-2.51002 7.15201,-2.92328 9.60255,-0.17685z" fill="#ffffff"></path><path d="M251.88276,164.29248c0.54636,0 1.04188,0.19955 1.39993,0.52172c0.35894,0.32226 0.5805,0.76696 0.5805,1.25812c0,0.49116 -0.22156,0.93596 -0.5805,1.25812c-0.35806,0.32226 -0.85359,0.52181 -1.39993,0.52181c-0.54636,0 -1.04188,-0.19955 -1.39993,-0.52181c-0.35894,-0.32217 -0.5804,-0.76696 -0.5804,-1.25812c0,-0.49116 0.22147,-0.93585 0.5804,-1.25812c0.35806,-0.32217 0.85359,-0.52172 1.39993,-0.52172z" fill="#272525"></path></g><g data-paper-data="{&quot;index&quot;:null}"><path d="M226.42151,174.34266c12.48309,8.11926 43.89302,8.37499 59.60164,4.70124c3.64424,-0.852 9.70642,0.54269 18.39702,7.05472c3.86969,2.89736 7.58407,6.44336 10.86885,11.24982c0,0 3.59076,3.49961 8.05438,12.86995c7.74781,16.26622 1.14966,47.76808 -23.68778,26.02208c-7.43571,-6.51217 -13.05924,-16.23623 -14.87619,-21.03609c-0.25546,2.16831 -0.91643,13.32036 -7.07676,13.95242c-7.88189,0.80494 -9.49826,-22.59734 -9.49826,-22.59734c-1.03946,5.18071 -3.53348,11.47718 -7.90499,11.0197c-6.13311,-0.64624 -7.84968,-13.1711 -7.84968,-13.1711c-1.76038,2.27115 -4.3778,6.62261 -7.22605,5.89733c-2.84735,-0.72442 -5.50257,-7.35693 -5.84558,-9.7903c-3.39913,4.16229 -6.84296,5.13084 -8.81494,3.89055c-2.22537,-1.12735 -4.37461,-6.89921 -4.35865,-13.6459c-6.91361,-0.61839 -10.68439,-7.20462 -10.35952,-10.35345c0.30844,-3.01719 1.95154,-5.07482 4.65359,-6.41923c1.26927,-0.64239 3.4181,-1.27194 5.92291,0.3556z" fill="#279afa"></path><path d="M226.42151,174.34266c12.48309,8.11926 43.89302,8.37499 59.60164,4.70124c3.64424,-0.852 9.70642,0.54269 18.39702,7.05472c3.86969,2.89736 7.58407,6.44336 10.86885,11.24982c4.91727,7.09529 10.32141,26.90948 3.58232,33.30613c-11.99722,11.38901 -33.69381,-28.88757 -33.69381,-28.88757c-9.54375,31.96875 -15.50254,-5.9231 -15.50254,-5.9231c-11.22471,27.34554 -15.1755,-0.72837 -15.1755,-0.72837c-10.41961,17.13184 -13.30387,-3.90028 -13.30387,-3.90028c-9.83064,13.88097 -14.99036,-0.46177 -14.99036,-0.46177c-6.91452,-0.62012 -10.68351,-7.20454 -10.36039,-10.35334c0.30844,-3.01719 1.95154,-5.07482 4.65446,-6.41924c1.26853,-0.63627 3.41736,-1.2658 5.92216,0.36174z" fill="#0043a5"></path></g></g></g></svg>