<svg version="1.1" xmlns="http://www.w3.org/2000/svg" xmlns:xlink="http://www.w3.org/1999/xlink" width="119.38509" height="125.27358" viewBox="0,0,119.38509,125.27358"><g transform="translate(-180.30746,-117.47647)"><g data-paper-data="{&quot;isPaintingLayer&quot;:true}" fill-rule="evenodd" stroke-miterlimit="10" stroke-dasharray="" stroke-dashoffset="0" style="mix-blend-mode: normal"><g><path d="M220.87175,206.13131c1.00605,0.50303 3.14392,1.63483 0.12575,5.91057c-3.01816,4.27573 -11.69539,5.15604 -12.70145,5.15604c-3.89847,0.12575 -8.67723,0.12575 -13.95902,-1.63483c-15.34234,-5.03029 -15.4681,-21.50444 -10.56359,-24.14533c4.77876,-2.6409 6.91663,7.54541 13.83326,13.7075c3.01816,2.76665 6.66512,3.77271 9.68328,4.40149c4.27573,0.75455 12.44994,-4.02422 13.58175,-3.39543z" fill="#ffab19" stroke="#001026" stroke-width="1.2" stroke-linecap="round" stroke-linejoin="round"></path><path d="M189.68403,195.94501c2.01211,3.39543 5.91057,8.1742 5.91057,8.1742c0,0 -4.653,-1.13182 -7.2939,1.00605c-2.13787,1.63483 -1.63483,4.40149 -1.38333,5.28179c-1.63483,-1.63483 -3.64695,-3.89847 -4.90452,-8.29995c-1.25757,-4.40149 0,-9.68328 2.51514,-10.43783c2.51514,-0.50303 3.14392,1.38333 5.15604,4.27573z" fill="#ffffff" stroke="none" stroke-width="1" stroke-linecap="butt" stroke-linejoin="miter"></path></g><path d="M227.15959,219.21003c-2.26362,1.50908 -10.06055,7.04238 -19.99536,10.1863l-0.50303,0.12575c-0.50303,0.12575 -0.75455,0.75455 -0.50303,1.25757c2.13787,3.01816 6.03633,9.05451 -0.8803,11.19237c-6.66512,2.13787 -19.11506,-15.59385 -13.83326,-20.24687c2.38939,-1.7606 4.52725,-0.8803 5.65906,-0.37727c0.62878,0.25151 1.25757,0.25151 1.88635,0.12575c1.50908,-0.50303 4.27573,-1.50908 6.41361,-2.6409c5.40755,-2.76665 6.66512,-3.89847 9.18026,-5.78482c2.51514,-1.88635 8.29995,-6.53937 12.95296,-2.51514c4.02422,3.39543 1.7606,7.16815 -0.37727,8.67723z" fill="#ffab19" stroke="#001026" stroke-width="1.2" stroke-linecap="round" stroke-linejoin="round"></path><path d="M247.15495,193.05259c0.62878,0.50303 8.29995,9.55752 10.8151,7.2939c3.01816,-2.6409 7.16815,-7.79694 11.69539,-3.64695c4.52725,4.14998 -4.02422,11.19237 -7.67117,13.07873c-8.67723,3.89847 -15.71961,-3.5212 -17.22871,-5.5333c-1.50908,-2.01211 -4.14998,-5.40755 -4.14998,-8.67723c0.12575,-3.5212 4.40149,-4.40149 6.53937,-2.51514z" fill="#ffab19" stroke="#001026" stroke-width="1.2" stroke-linecap="round" stroke-linejoin="round"></path><g><path d="M247.28071,222.35395c2.6409,2.38939 8.42572,7.2939 8.42572,7.2939c0,0 17.98324,-3.14392 17.98324,5.91057c0,5.40755 -9.05451,6.66512 -21.25292,5.5333c-0.75455,-0.12575 -1.50908,-0.37727 -2.13787,-0.8803c-2.76665,-2.38939 -10.68934,-9.43177 -15.71961,-14.33628c-7.41965,-7.2939 -13.58175,-12.07267 -13.58175,-12.07267c-10.68934,-10.43783 -2.01211,-14.83932 1.38333,-20.87565c3.14392,-5.15604 4.52725,-4.14998 12.07267,-2.6409c4.27573,0.62878 6.79087,1.00605 9.55752,0.8803c4.14998,-0.12575 3.39543,5.91057 2.26362,9.05451c0,0 -1.7606,4.653 -3.39543,7.04238c-2.01211,2.89241 -3.5212,4.77876 -5.03029,5.91057z" fill="#ffab19" stroke="#001026" stroke-width="1.2" stroke-linecap="round" stroke-linejoin="round"></path><path d="M236.71712,213.04794c0,0 -1.88635,-1.50908 -3.89847,-3.39543c-2.51514,-2.26362 -5.03029,-4.14998 -2.51514,-8.04844c2.26362,-3.01816 4.40149,-7.04238 10.06055,-3.39543c5.40755,3.39543 3.01816,6.53937 3.01816,6.53937c-2.76665,5.65906 -6.66512,8.29995 -6.66512,8.29995z" fill="#ffffff" stroke="none" stroke-width="1" stroke-linecap="butt" stroke-linejoin="miter"></path></g><path d="M217.72782,202.73588c2.76665,3.5212 7.04238,7.92269 1.63483,11.56963c-7.41965,4.14998 -13.58175,-8.42572 -14.83932,-12.8272c-1.13182,-3.89847 2.13787,-6.41361 4.90452,-8.55147c5.40755,-3.89847 9.9348,-7.41965 14.96507,-5.5333c6.28785,2.26362 1.7606,7.2939 -1.38333,9.55752c-1.88635,1.38333 -3.77271,2.89241 -5.15604,3.77271c-0.37727,0.62878 -0.50303,1.38333 -0.12575,2.01211z" fill="#ffab19" stroke="#001026" stroke-width="1.2" stroke-linecap="round" stroke-linejoin="round"></path><g><path d="M257.34126,117.9757c0.37727,-0.25151 1.00605,-0.12575 1.13182,0.37727l3.26968,13.45599c0,0 8.04844,5.91057 10.43783,10.06055c4.02422,6.91663 4.14998,12.57569 4.14998,12.57569c0,0 8.92873,2.6409 10.43783,9.80904c1.50908,7.16815 -4.02422,20.74989 -27.66652,25.4029c-23.6423,4.653 -42.6316,-1.7606 -51.56035,-16.09689c-8.92873,-14.33628 5.15604,-31.43923 4.40149,-30.43317l-2.6409,-22.51049c-0.12575,-0.50303 0.50303,-0.8803 1.00605,-0.62878l15.21659,9.9348c0,0 5.65906,-2.13787 11.56963,-2.38939c3.5212,-0.25151 6.53937,0 9.43177,0.50303z" fill="#ffab19" stroke="#001026" stroke-width="1.2" stroke-linecap="butt" stroke-linejoin="miter"></path><path d="M275.95329,154.94824c0,0 8.67723,2.26362 10.1863,9.43177c1.50908,7.16815 -4.52725,20.12111 -27.91804,24.64836c-30.43317,6.28785 -44.89523,-11.82116 -36.46951,-25.15139c8.42572,-13.45599 22.88776,-2.01211 33.45134,-2.76665c9.05451,-0.62878 10.06055,-8.55147 20.74989,-6.16208z" fill="#ffffff" stroke="none" stroke-width="1" stroke-linecap="butt" stroke-linejoin="miter"></path><path d="M236.33985,168.40424c0,-0.50303 0.50303,-0.8803 1.00605,-0.75455c2.38939,0.8803 9.18026,2.89241 16.72567,3.39543c6.79087,0.37727 10.8151,0 12.70145,-0.37727c0.62878,-0.12575 1.13182,0.50303 0.8803,1.13182c-1.13182,3.39543 -5.91057,12.8272 -19.11506,12.07267c-11.44388,-1.25757 -12.57569,-9.30602 -12.19842,-15.4681z" fill="#ffffff" stroke="#001026" stroke-width="1.2" stroke-linecap="round" stroke-linejoin="round"></path><path d="M299.09256,156.33157c-5.91057,4.77876 -14.96507,4.90452 -14.96507,4.90452" fill="none" stroke="#001026" stroke-width="1.2" stroke-linecap="round" stroke-linejoin="round"></path><path d="M297.4577,170.41635c-7.92269,0.62878 -12.8272,-1.7606 -12.8272,-1.7606" fill="none" stroke="#001026" stroke-width="1.2" stroke-linecap="round" stroke-linejoin="round"></path><path d="M254.70036,157.84065c2.6409,0 5.40755,0.25151 5.5333,1.13182c0.12575,1.7606 -1.7606,5.28179 -3.77271,5.40755c-2.26362,0.25151 -7.54541,-2.89241 -7.54541,-4.90452c-0.12575,-1.50908 3.26968,-1.63483 5.78482,-1.63483z" fill="#001026" stroke="#001026" stroke-width="1.2" stroke-linecap="round" stroke-linejoin="round"></path><path d="M198.10974,155.9543c0,0 10.8151,3.5212 15.21659,7.41965" fill="none" stroke="#001026" stroke-width="1.2" stroke-linecap="round" stroke-linejoin="round"></path><path d="M213.7036,167.77545c-5.40755,2.13787 -14.71356,0.75455 -14.71356,0.75455" fill="none" stroke="#001026" stroke-width="1.2" stroke-linecap="round" stroke-linejoin="round"></path><g><path d="M269.53968,143.12709c3.64695,5.65906 3.77271,12.07267 0.25151,14.33628c-3.5212,2.26362 -9.30602,-0.37727 -13.07873,-6.03633c-3.64695,-5.65906 -3.77271,-12.07267 -0.25151,-14.33628c3.5212,-2.38939 9.43177,0.37727 13.07873,6.03633z" fill="#ffffff" stroke="#001026" stroke-width="1.2" stroke-linecap="round" stroke-linejoin="round"></path><path d="M269.03665,150.29524c0,1.38333 -1.00605,2.51514 -2.26362,2.51514c-1.25757,0 -2.26362,-1.13182 -2.26362,-2.51514c0,-1.38333 1.00605,-2.51514 2.26362,-2.51514c1.25757,0 2.26362,1.13182 2.26362,2.51514" fill="#001026" stroke="none" stroke-width="1" stroke-linecap="butt" stroke-linejoin="miter"></path></g><g><path d="M238.35195,146.64828c3.77271,5.5333 3.5212,12.32418 0.12575,14.71356c-4.14998,2.38939 -9.68328,0.62878 -13.45599,-4.90452c-3.89847,-5.5333 -4.14998,-12.70145 -0.25151,-15.4681c3.89847,-2.89241 9.80904,0.12575 13.58175,5.65906z" fill="#ffffff" stroke="#001026" stroke-width="1.2" stroke-linecap="round" stroke-linejoin="round"></path><path d="M237.59742,153.94218c0,1.38333 -1.00605,2.51514 -2.26362,2.51514c-1.25757,0 -2.26362,-1.13182 -2.26362,-2.51514c0,-1.38333 1.00605,-2.51514 2.26362,-2.51514c1.25757,0.12575 2.26362,1.13182 2.26362,2.51514" fill="#001026" stroke="none" stroke-width="1" stroke-linecap="butt" stroke-linejoin="miter"></path></g></g></g></g></svg>