<svg version="1.1" xmlns="http://www.w3.org/2000/svg" xmlns:xlink="http://www.w3.org/1999/xlink" width="79.38203" height="40.80341" viewBox="0,0,79.38203,40.80341"><defs><linearGradient x1="226.34715" y1="159.59829" x2="226.34715" y2="198.8339" gradientUnits="userSpaceOnUse" id="color-1"><stop offset="0" stop-color="#ffffff"></stop><stop offset="1" stop-color="#e5e5e5"></stop></linearGradient><linearGradient x1="253.24933" y1="161.47364" x2="253.24933" y2="200.40171" gradientUnits="userSpaceOnUse" id="color-2"><stop offset="0" stop-color="#ffffff"></stop><stop offset="1" stop-color="#e5e5e5"></stop></linearGradient></defs><g transform="translate(-200.30898,-159.59829)"><g data-paper-data="{&quot;isPaintingLayer&quot;:true}" fill-rule="nonzero" stroke="#ffffff" stroke-width="0" stroke-linecap="butt" stroke-linejoin="miter" stroke-miterlimit="10" stroke-dasharray="" stroke-dashoffset="0" style="mix-blend-mode: normal"><path d="M252.38533,179.2161c0,10.83461 -11.65769,19.6178 -26.03817,19.6178c-14.38048,0 -26.03817,-8.78319 -26.03817,-19.6178c0,-10.83461 11.65769,-19.6178 26.03817,-19.6178c14.38048,0 26.03817,8.78319 26.03817,19.6178z" fill="url(#color-1)"></path><path d="M253.24931,161.47364c14.60334,0 26.4417,8.71434 26.4417,19.46403c0,10.74969 -11.83835,19.46403 -26.4417,19.46403c-14.60334,0 -26.4417,-8.71434 -26.4417,-19.46403c0,-10.74969 11.83835,-19.46403 26.4417,-19.46403z" fill="url(#color-2)"></path></g></g></svg>