<svg version="1.1" xmlns="http://www.w3.org/2000/svg" xmlns:xlink="http://www.w3.org/1999/xlink" width="448.68884" height="223.40578" viewBox="0,0,448.68884,223.40578"><g transform="translate(97.38989,-50.47337)"><g data-paper-data="{&quot;isPaintingLayer&quot;:true}" fill-rule="nonzero" stroke-linejoin="miter" stroke-miterlimit="10" stroke-dasharray="" stroke-dashoffset="0" style="mix-blend-mode: normal"><text transform="translate(226.37449,268.97651) scale(0.40667,0.40667)" font-size="40" xml:space="preserve" fill="#80aeff" fill-rule="nonzero" stroke="none" stroke-width="1" stroke-linecap="butt" stroke-linejoin="miter" stroke-miterlimit="10" stroke-dasharray="" stroke-dashoffset="0" font-family="Sans Serif" font-weight="normal" text-anchor="start" style="mix-blend-mode: normal"><tspan x="0" dy="0">根性</tspan></text><text transform="translate(303.14789,232.2478) scale(0.40667,0.40667)" font-size="40" xml:space="preserve" fill="#80b5ff" fill-rule="nonzero" stroke="none" stroke-width="1" stroke-linecap="butt" stroke-linejoin="miter" stroke-miterlimit="10" stroke-dasharray="" stroke-dashoffset="0" font-family="Sans Serif" font-weight="normal" text-anchor="start" style="mix-blend-mode: normal"><tspan x="0" dy="0">読み</tspan></text><text transform="translate(264.75003,104.13317) scale(0.40667,0.44145)" font-size="40" xml:space="preserve" fill="#ff80ca" fill-rule="nonzero" stroke="none" stroke-width="1" stroke-linecap="butt" stroke-linejoin="miter" stroke-miterlimit="10" stroke-dasharray="" stroke-dashoffset="0" font-family="Sans Serif" font-weight="normal" text-anchor="start" style="mix-blend-mode: normal"><tspan x="0" dy="0">ｻｰﾌﾞ</tspan></text><text transform="translate(318.15535,164.63238) scale(0.40667,0.40667)" font-size="40" xml:space="preserve" fill="#ff80ca" fill-rule="nonzero" stroke="none" stroke-width="1" stroke-linecap="butt" stroke-linejoin="miter" stroke-miterlimit="10" stroke-dasharray="" stroke-dashoffset="0" font-family="Sans Serif" font-weight="normal" text-anchor="start" style="mix-blend-mode: normal"><tspan x="0" dy="0">ｱﾀｯｸ</tspan></text><text transform="translate(134.54152,238.06748) scale(0.40667,0.40667)" font-size="40" xml:space="preserve" fill="#80b0ff" fill-rule="nonzero" stroke="none" stroke-width="1" stroke-linecap="butt" stroke-linejoin="miter" stroke-miterlimit="10" stroke-dasharray="" stroke-dashoffset="0" font-family="Sans Serif" font-weight="normal" text-anchor="start" style="mix-blend-mode: normal"><tspan x="0" dy="0">ｽﾋﾟｰﾄﾞ</tspan></text><text transform="translate(121.18088,163.7829) scale(0.40667,0.40667)" font-size="40" xml:space="preserve" fill="#ff80ca" fill-rule="nonzero" stroke="none" stroke-width="1" stroke-linecap="butt" stroke-linejoin="miter" stroke-miterlimit="10" stroke-dasharray="" stroke-dashoffset="0" font-family="Sans Serif" font-weight="normal" text-anchor="start" style="mix-blend-mode: normal"><tspan x="0" dy="0">ｼﾞｬﾝﾌﾟ</tspan></text><text transform="translate(181.2628,102.85153) scale(0.40667,0.40667)" font-size="40" xml:space="preserve" fill="#ff80ca" fill-rule="nonzero" stroke="none" stroke-width="1" stroke-linecap="butt" stroke-linejoin="miter" stroke-miterlimit="10" stroke-dasharray="" stroke-dashoffset="0" font-family="Sans Serif" font-weight="normal" text-anchor="start" style="mix-blend-mode: normal"><tspan x="0" dy="0">飛行</tspan></text><g data-paper-data="{&quot;index&quot;:null}" fill="#80ffff" stroke="#80ffff" stroke-width="0.5" stroke-linecap="round"><path d="M240.58035,176.91038l0.56488,71.79059"></path><path d="M235.85534,201.12163h9.7367"></path><path d="M233.35162,249.52695h15.02234"></path><path d="M235.8479,189.44505h9.7367"></path><path d="M245.57715,212.82057h-9.7367"></path><path d="M235.833,224.51206h9.7367"></path><path d="M235.82556,237.03813h9.7367"></path></g><g data-paper-data="{&quot;index&quot;:null}" fill="#80ffff" stroke="#80ffff" stroke-width="0.5" stroke-linecap="round"><path d="M240.94716,177.34742l57.57805,42.88329"></path><path d="M257.39819,195.72876l5.87718,-7.76286"></path><path d="M294.47942,226.94296l9.06767,-11.97698"></path><path d="M253.96139,180.92371l-5.87718,7.76286"></path><path d="M272.59369,195.0394l-5.87718,7.76286"></path><path d="M281.91056,202.10245l-5.87719,7.76286"></path><path d="M286.01565,217.43213l5.87719,-7.76286"></path></g><g data-paper-data="{&quot;index&quot;:null}" fill="#80ffff" stroke="#80ffff" stroke-width="0.5" stroke-linecap="round"><path d="M312.60713,163.62579l-70.67836,12.60069"></path><path d="M264.9561,167.22406l1.63346,9.5987"></path><path d="M312.20868,156.36094l2.5202,14.80944"></path><path d="M253.44625,169.1903l1.63346,9.5987"></path><path d="M276.49172,165.27609l1.63346,9.59871"></path><path d="M288.01877,163.32203l1.63346,9.59871"></path><path d="M300.36855,161.22796l1.63346,9.5987"></path></g><g data-paper-data="{&quot;index&quot;:null}" fill="#80ffff" stroke="#80ffff" stroke-width="0.5" stroke-linecap="round"><path d="M272.28566,111.08983l-31.70033,64.41504"></path><path d="M246.96736,151.61823l8.70201,4.36787"></path><path d="M266.19564,107.10883l13.42597,6.739"></path><path d="M241.73591,162.05733l8.70201,4.36787"></path><path d="M260.93081,145.53705l-8.70201,-4.36787"></path><path d="M266.18226,135.09132l-8.70202,-4.36787"></path><path d="M263.10606,119.53183l8.70201,4.36787"></path></g><g data-paper-data="{&quot;index&quot;:null}" fill="#80ffff" stroke="#80ffff" stroke-width="0.5" stroke-linecap="round"><path d="M240.20575,176.03759l-34.66108,-62.87143"></path><path d="M224.27609,157.12866l8.56349,-4.63358"></path><path d="M212.00612,108.73082l-13.21223,7.14894"></path><path d="M238.40288,162.76117l-8.56348,4.63358"></path><path d="M227.2853,142.19871l-8.56349,4.63358"></path><path d="M213.16452,136.54601l8.56349,-4.63358"></path><path d="M207.21007,125.52571l8.56349,-4.63358"></path></g><g data-paper-data="{&quot;index&quot;:null}" fill="#80ffff" stroke="#80ffff" stroke-width="0.5" stroke-linecap="round"><path d="M168.45201,159.93498l69.96117,16.11342"></path><path d="M215.95981,165.83291l-2.25993,9.4708"></path><path d="M165.97078,166.77458l3.48674,-14.61209"></path><path d="M227.31925,168.53585l-2.25993,9.4708"></path><path d="M204.58382,163.10305l-2.25993,9.4708"></path><path d="M193.21334,160.38216l-2.25993,9.4708"></path><path d="M178.77114,166.93837l2.25993,-9.4708"></path></g><g data-paper-data="{&quot;index&quot;:null}" fill="#80ffff" stroke="#80ffff" stroke-width="0.5" stroke-linecap="round"><path d="M239.58642,177.14698l-56.01079,44.91102"></path><path d="M223.68315,196.07812l-6.03097,-7.644"></path><path d="M187.40471,228.24468l-9.30494,-11.7936"></path><path d="M226.81452,181.19572l6.03098,7.644"></path><path d="M214.48944,203.31282l-6.03098,-7.644"></path><path d="M199.27521,202.90476l6.03098,7.644"></path><path d="M189.43675,210.65764l6.03098,7.644"></path></g><text transform="translate(-97.13989,72.0567) scale(0.5,0.5)" font-size="40" xml:space="preserve" fill="#80b0ff" fill-rule="nonzero" stroke="none" stroke-width="1" stroke-linecap="butt" stroke-linejoin="miter" stroke-miterlimit="10" stroke-dasharray="" stroke-dashoffset="0" font-family="Sans Serif" font-weight="normal" text-anchor="start" style="mix-blend-mode: normal"><tspan x="0" dy="0"> </tspan></text></g></g></svg>