<svg version="1.1" xmlns="http://www.w3.org/2000/svg" xmlns:xlink="http://www.w3.org/1999/xlink" width="115.53927" height="127.40233" viewBox="0,0,115.53927,127.40233"><g transform="translate(-182.82449,-116.39988)"><g data-paper-data="{&quot;isPaintingLayer&quot;:true}" fill-rule="evenodd" stroke-miterlimit="10" stroke-dasharray="" stroke-dashoffset="0" style="mix-blend-mode: normal"><path d="M264.32938,121.86826c0.38602,-0.18053 0.95294,0.02454 0.99929,0.50926l1.15211,12.95267c0,0 6.65327,6.61827 8.29246,10.80698c2.77094,6.9871 2.09401,12.25898 2.09401,12.25898c0,0 7.93032,3.70613 8.32774,10.57347c0.3974,6.86734 -6.652,18.70027 -29.28426,19.69959c-22.63227,0.9993 -39.38633,-7.62278 -45.67605,-22.18766c-6.2897,-14.56488 9.20371,-28.46597 8.3611,-27.63786l0.7026,-21.27113c-0.04635,-0.48471 0.59113,-0.74667 1.0235,-0.44248l12.75275,11.36145c0,0 5.56095,-1.19005 11.09114,-0.59336c3.30884,0.26108 6.07946,0.91853 8.69788,1.79186z" fill="#ffab19" stroke="#001026" stroke-width="1.2" stroke-linecap="butt" stroke-linejoin="miter"></path><path d="M276.44592,158.81024c0,0 7.74943,3.32051 8.14682,10.18785c0.3974,6.86734 -7.03143,18.04584 -29.41224,18.96369c-29.17488,1.56334 -40.0795,-17.28159 -30.37639,-28.47475c9.72075,-11.30991 21.56033,1.34671 31.48682,2.12992c8.50591,0.68802 10.5526,-6.52662 20.15498,-2.80672z" fill="#ffffff" stroke="none" stroke-width="1" stroke-linecap="butt" stroke-linejoin="miter"></path><path d="M237.7309,165.73946c0.07057,-0.46704 0.59113,-0.74667 1.04114,-0.55925c2.09784,1.15294 8.12886,3.97498 15.07305,5.50186c6.26035,1.30414 10.05446,1.51911 11.86107,1.43379c0.60221,-0.02845 0.98164,0.62602 0.65962,1.1745c-1.52852,2.99356 -7.29428,11.07939 -19.46425,8.52408c-10.46262,-2.77504 -10.3858,-10.40671 -9.17063,-16.075z" fill="#ffffff" stroke="#001026" stroke-width="1.2" stroke-linecap="round" stroke-linejoin="round"></path><path d="M297.76376,163.3448c-6.16525,3.60669 -14.60058,2.45164 -14.60058,2.45164" fill="none" stroke="#001026" stroke-width="1.2" stroke-linecap="round" stroke-linejoin="round"></path><path d="M294.2681,176.19238c-7.45369,-0.52904 -11.6781,-3.4364 -11.6781,-3.4364" fill="none" stroke="#001026" stroke-width="1.2" stroke-linecap="round" stroke-linejoin="round"></path><path d="M256.28196,158.51051c2.45517,0.37094 4.99195,0.99307 4.98537,1.82806c-0.13006,1.65232 -2.3777,4.65665 -4.26594,4.49079c-2.13971,-0.08444 -6.609,-3.74535 -6.32674,-5.61351c0.09478,-1.41879 3.26904,-1.05862 5.60732,-0.70535z" fill="#001026" stroke="#001026" stroke-width="1.2" stroke-linecap="round" stroke-linejoin="round"></path><path d="M203.93598,148.81025c0,0 9.56051,4.78842 13.10557,9.02625" fill="none" stroke="#001026" stroke-width="1.2" stroke-linecap="round" stroke-linejoin="round"></path><path d="M216.77485,161.97612c-5.32713,1.22538 -13.78459,-1.36614 -13.78459,-1.36614" fill="none" stroke="#001026" stroke-width="1.2" stroke-linecap="round" stroke-linejoin="round"></path><g><path d="M272.14166,146.93384c2.59662,5.76649 1.81383,11.73894 -1.77726,13.34606c-3.5911,1.60709 -8.59859,-1.65743 -11.31213,-7.44159c-2.59662,-5.76649 -1.81383,-11.73894 1.77726,-13.34606c3.60873,-1.72385 8.71552,1.67509 11.31213,7.44159z" fill="#ffffff" stroke="#001026" stroke-width="1.2" stroke-linecap="round" stroke-linejoin="round"></path><path d="M270.66848,153.51856c-0.19405,1.28437 -1.28811,2.19389 -2.45725,2.01725c-1.16912,-0.17664 -1.94565,-1.3688 -1.7516,-2.65316c0.19405,-1.28437 1.28811,-2.19389 2.45725,-2.01725c1.16912,0.17664 1.94565,1.3688 1.7516,2.65316" fill="#001026" stroke="none" stroke-width="1" stroke-linecap="butt" stroke-linejoin="miter"></path></g><g><path d="M242.65342,145.82247c2.73116,5.66739 1.54472,11.93716 -1.9471,13.67867c-4.1933,1.63554 -9.09047,-0.77634 -11.82164,-6.44372c-2.84808,-5.68506 -2.07637,-12.37575 1.93604,-14.39692c4.03003,-2.13792 9.10152,1.49457 11.8327,7.16195z" fill="#ffffff" stroke="#001026" stroke-width="1.2" stroke-linecap="round" stroke-linejoin="round"></path><path d="M240.92875,152.4886c-0.19405,1.28437 -1.28811,2.19389 -2.45725,2.01725c-1.16912,-0.17664 -1.94565,-1.3688 -1.7516,-2.65316c0.19405,-1.28437 1.28811,-2.19389 2.45725,-2.01725c1.15148,0.29342 1.94565,1.3688 1.7516,2.65316" fill="#001026" stroke="none" stroke-width="1" stroke-linecap="butt" stroke-linejoin="miter"></path></g><path d="M219.58715,201.2059c0.85776,0.65453 2.67082,2.10948 -0.79416,6.04771c-3.46498,3.93823 -11.66763,3.61749 -12.60291,3.47618c-3.64367,-0.41929 -8.08635,-1.09053 -12.72529,-3.6286c-13.48796,-7.28698 -11.06549,-24.11181 -6.09884,-26.11719c4.84975,-2.02304 5.26712,8.66947 10.74747,15.92764c2.37945,3.24651 5.61483,4.78517 8.32382,5.85061c3.85871,1.37037 12.19464,-2.35683 13.14992,-1.55633z" fill="#ffab19" stroke="#001026" stroke-width="1.2" stroke-linecap="round" stroke-linejoin="round"></path><path d="M192.163,186.433c1.34723,3.74668 4.2349,9.16966 4.2349,9.16966c0,0 -4.1513,-1.80825 -6.93599,0.00187c-2.23951,1.36759 -2.19833,4.26084 -2.10019,5.19426c-1.26787,-1.89751 -2.78955,-4.48953 -3.28021,-9.15664c-0.49066,-4.66712 1.4926,-9.87901 3.94716,-10.29553c2.41579,-0.15993 2.70959,1.85289 4.13435,5.0864z" fill="#ffffff" stroke="none" stroke-width="1" stroke-linecap="butt" stroke-linejoin="miter"></path><path d="M223.41679,215.43221c-2.33704,1.22163 -10.43853,5.77161 -20.15923,7.58363l-0.48703,0.05764c-0.48703,0.05764 -0.81777,0.66381 -0.66148,1.21233c1.52228,3.37947 4.21612,10.0854 -2.54361,11.29495c-6.5259,1.24489 -15.36703,-18.59402 -9.73947,-22.59919c2.49271,-1.46058 4.34453,-0.26219 5.3192,0.40998c0.54579,0.34493 1.13035,0.43324 1.73429,0.39325c1.48049,-0.30125 4.20763,-0.93901 6.36961,-1.79341c5.45369,-2.06302 6.79728,-3.04107 9.42629,-4.61226c2.62902,-1.5712 8.72423,-5.50572 12.42968,-0.74658c3.21783,4.0293 0.53186,7.56034 -1.68827,8.79963z" fill="#ffab19" stroke="#001026" stroke-width="1.2" stroke-linecap="round" stroke-linejoin="round"></path><path d="M245.26445,193.91871c0.06981,0.93679 -1.06738,14.91414 2.12662,14.92635c3.78136,0.08059 10.02013,-1.14059 10.16272,6.06567c0.1426,7.20623 -10.27117,6.59347 -13.95085,5.35643c-8.3531,-3.45852 -7.91765,-15.5104 -7.53654,-18.46173c0.38112,-2.95135 0.96233,-8.00631 3.19123,-10.86246c2.48293,-2.97637 5.88952,-0.36311 6.00685,2.97576z" fill="#ffab19" stroke="#001026" stroke-width="1.2" stroke-linecap="round" stroke-linejoin="round"></path><path d="M241.63816,221.46592c2.08686,2.80862 6.70885,8.6248 6.70885,8.6248c0,0 17.2031,-0.68149 15.80742,8.55601c-0.83353,5.51686 -9.44507,5.52802 -20.61112,2.65993c-0.68208,-0.23427 -1.3448,-0.59687 -1.85182,-1.19839c-2.20377,-2.82628 -8.48373,-11.12386 -12.40423,-16.83409c-5.77354,-8.48348 -10.76563,-14.22443 -10.76563,-14.22443c-8.32865,-12.15026 0.41675,-15.4219 4.50386,-21.10332c3.71758,-4.81865 4.84853,-3.59795 11.63068,-0.99853c3.87809,1.24205 6.15821,1.98025 8.74965,2.24057c3.8775,0.45462 2.24556,6.50697 0.70875,9.55548c0,0 -2.354,4.49978 -4.24216,6.70781c-2.31645,2.66826 -4.01017,4.38076 -5.58756,5.32348z" fill="#ffab19" stroke="#001026" stroke-width="1.2" stroke-linecap="round" stroke-linejoin="round"></path><path d="M233.25198,210.48801c0,0 -1.52106,-1.80455 -3.10091,-4.01165c-1.98933,-2.66268 -4.0368,-4.94043 -1.09765,-8.56442c2.56966,-2.76123 5.17747,-6.5665 9.87637,-2.05093c4.50386,4.22361 1.79791,7.09549 1.79791,7.09549c-3.44437,5.38483 -7.47574,7.53155 -7.47574,7.53155z" fill="#ffffff" stroke="none" stroke-width="1" stroke-linecap="butt" stroke-linejoin="miter"></path><path d="M224.35588,190.06663c-1.88543,-4.14323 2.74158,-7.64761 7.34776,-5.2899c4.42565,2.24226 19.89449,11.74148 25.86939,10.86157c5.64319,-0.89615 12.61292,-10.14884 22.06468,-4.88869c9.27121,5.14468 -0.37328,11.7079 -11.24391,15.33279c-14.01133,4.75024 -38.16751,-4.42835 -44.0379,-16.01575z" data-paper-data="{&quot;index&quot;:null}" fill="#ffab19" stroke="#001026" stroke-width="1.2" stroke-linecap="round" stroke-linejoin="round"></path></g></g></svg>