<svg version="1.1" xmlns="http://www.w3.org/2000/svg" xmlns:xlink="http://www.w3.org/1999/xlink" width="152.97378" height="127.23987" viewBox="0,0,152.97378,127.23987"><g transform="translate(-163.51311,-108.44603)"><g data-paper-data="{&quot;isPaintingLayer&quot;:true}" fill-rule="nonzero" stroke="#000000" stroke-width="1" stroke-linecap="butt" stroke-linejoin="miter" stroke-miterlimit="10" stroke-dasharray="" stroke-dashoffset="0" style="mix-blend-mode: normal"><g data-paper-data="{&quot;index&quot;:null}"><path d="M207.91099,191.26219c0.03379,-10.56096 -11.90277,-29.37437 -20.13823,-37.32113c-1.91005,-1.84161 -3.41309,-5.99191 -2.87863,-13.67602c0.23902,-3.41897 0.92211,-6.99845 2.52061,-10.80504c0,0 0.70422,-3.48483 4.56735,-9.75033c6.70966,-10.87687 28.01833,-19.07091 24.61955,4.09786c-1.01667,6.93685 -4.64674,14.02898 -6.80762,16.95739c1.3899,-0.68228 8.2896,-4.58007 11.03641,-1.15257c3.51362,4.38585 -9.80864,14.35573 -9.80864,14.35573c3.4866,-1.3738 8.1984,-2.31199 9.60767,0.46869c1.97591,3.90366 -4.82743,9.74616 -4.82743,9.74616c2.03075,0.17476 5.63051,0.05991 6.29421,2.03503c0.66371,1.97502 -2.26559,6.11182 -3.58366,7.25088c3.78713,0.4239 5.69042,2.10178 5.71158,3.75513c0.18408,1.75805 -2.42682,5.26146 -6.45385,7.84872c2.29261,4.35714 -0.17981,9.13906 -2.18106,10.15742c-1.916,0.97613 -3.7745,0.79116 -5.61451,-0.30319c-0.86805,-0.50834 -2.07129,-1.54606 -2.06373,-3.66473z" fill="#279afa"></path><path d="M207.91098,191.26218c0.03379,-10.56096 -11.90277,-29.37437 -20.13823,-37.32113c-1.91005,-1.84161 -3.41309,-5.99191 -2.87863,-13.67602c0.23902,-3.41897 0.92211,-6.99845 2.52061,-10.80504c2.33475,-5.6609 12.06063,-16.50479 18.46551,-14.95277c11.402,2.76379 -4.2415,31.19331 -4.2415,31.19331c22.71963,-6.61846 2.43696,11.51435 2.43696,11.51435c20.6103,-3.83699 5.4051,9.32137 5.4051,9.32137c14.21725,-0.38417 2.79499,9.42785 2.79499,9.42785c12.05388,0.5134 5.49452,9.10947 5.49452,9.10947c2.29261,4.35714 -0.17981,9.13898 -2.18106,10.15734c-1.916,0.97613 -3.7745,0.79125 -5.61451,-0.3031c-0.86805,-0.50923 -2.07129,-1.54695 -2.06373,-3.66562z" fill="#0043a5"></path></g><path d="M205.63449,210.9327c2.30524,-2.01227 6.45466,-4.25501 7.37675,-3.98223c1.36287,0.39857 3.18599,1.59335 4.56913,1.92863c-2.8085,1.13151 -9.68287,3.77193 -9.85006,4.40106c-0.46611,1.74793 0.54469,2.87099 0.33528,4.69491c-0.12586,1.0268 -1.29958,1.63477 -2.2639,1.34092c-0.87988,-0.27279 -1.06903,-1.08929 -1.50892,-1.92783c-1.71842,-3.26955 -5.68038,-1.86526 -9.30538,-1.34172c-1.59255,0.23048 -3.8353,-0.60797 -3.52038,-2.17946c0.41883,-2.01218 3.1564,-2.60247 8.31493,-3.08209c-4.79881,-0.83935 -6.28239,-2.99596 -5.21337,-3.79219c1.17372,-0.88076 2.22159,-0.92299 3.68837,-0.7549c3.41647,0.41963 5.65922,1.71922 7.37754,4.69491z" data-paper-data="{&quot;index&quot;:null}" fill="#ffa600"></path><g data-paper-data="{&quot;index&quot;:null}"><path d="M199.34956,189.84111c-0.13261,-0.78867 -0.35295,-1.6154 -0.6629,-2.49269c-1.79939,-5.09853 -5.51816,-8.12746 -10.67669,-9.83655c-0.80049,-0.26515 -1.63646,-0.51082 -2.4918,-0.72957c-3.78801,-0.9677 -7.98054,-1.33585 -11.44848,0.15537c0.56406,-0.68646 1.23789,-1.37549 2.06373,-2.06453c11.05241,-9.22431 24.65244,-4.55812 36.94871,3.11924c9.41684,5.87787 33.35162,22.0745 39.82903,20.87455c21.24867,-15.67221 28.79013,-13.19721 30.46881,-9.83815c1.55958,3.17915 -2.03929,6.7181 -4.91872,8.87721c5.17453,0.88414 8.17386,0.52442 8.51758,4.07938c0.31581,3.25854 -4.3183,3.71878 -7.55745,4.55812c2.87944,1.19906 5.32565,3.09729 4.2144,5.44216c-1.07995,2.27991 -6.59819,2.75953 -9.95725,1.79948c1.79948,3.35905 4.3183,11.15631 -3.49496,8.35368c-7.25515,-2.60327 -11.39612,-6.59732 -17.5147,-11.51604c-9.47683,9.83655 -23.51258,14.27556 -30.35059,11.63594c-11.96862,-4.61891 -19.09206,-15.59195 -23.23214,-28.0706c0.42639,-1.36714 0.52692,-2.78068 0.26346,-4.34701z" fill="#ff0600"></path><path d="M188.01001,177.51105c-0.80049,-0.26515 -1.63646,-0.51091 -2.4918,-0.72957c4.96085,-4.08525 11.7018,-3.38527 17.91158,-0.59615c3.91716,1.76312 6.60576,5.99609 4.16293,9.25978c-2.94361,3.93326 -6.65989,4.71011 -8.244,4.39599c-0.13253,-0.78867 -0.35296,-1.6154 -0.66282,-2.49269c-1.7986,-5.09943 -5.51737,-8.12826 -10.6759,-9.83735z" fill="#0043a5"></path><path d="M172.5346,177.75088c0.49224,-0.31919 1.00564,-0.5869 1.53513,-0.8149c3.46794,-1.49122 7.66046,-1.12307 11.44848,-0.15537c0.85453,0.21875 1.69131,0.46442 2.4918,0.72957c5.15853,1.70909 8.8773,4.73802 10.67669,9.83655c0.30905,0.8773 0.52948,1.70402 0.6629,2.49269c0.26346,1.56633 0.16293,2.97987 -0.26265,4.34612c-0.50328,1.61451 -1.46759,3.16065 -2.91997,4.79792c-3.26954,3.68926 -9.10103,5.71246 -13.06041,2.56362c3.29906,-1.07995 4.96254,-4.39261 4.54292,-7.84197c-10.06117,-3.43505 -17.3788,12.28018 -19.554,22.31263c-11.29818,-24.76817 4.43909,-38.26687 4.43909,-38.26687z" fill="#ffa600"></path></g><path d="M210.31756,223.35223c2.8085,-3.35905 8.05903,-7.64953 9.73691,-8.24906c1.56127,1.43976 4.65775,2.5079 6.68771,2.67171c-4.52772,2.36692 -11.60474,4.64593 -12.93722,8.4255c-0.86041,2.44123 1.41274,3.93663 1.525,6.56025c0.05235,1.4794 -1.47096,2.60158 -2.89881,2.4023c-1.30465,-0.18747 -1.75468,-1.30039 -2.56451,-2.3871c-3.16057,-4.23555 -8.44487,-1.36456 -13.45221,0.18746c-2.19972,0.68229 -5.55619,-0.00089 -5.4642,-2.29261c0.14186,-2.93684 6.3128,-6.69019 12.9102,-5.85005c-1.79947,-1.79938 -10.68851,0.24071 -9.95725,-3.47895c0.4053,-2.06036 2.82538,-2.88192 4.9364,-2.97312c4.92201,-0.17226 8.38239,1.16271 11.47799,4.9837z" data-paper-data="{&quot;index&quot;:null}" fill="#ffa600"></path><g data-paper-data="{&quot;index&quot;:null}"><path d="M190.74676,178.72026c2.36096,-2.64895 7.13188,-2.25039 9.25978,0.17137c1.30208,1.48109 1.67948,4.79792 -0.62655,6.51207c-5.90748,4.39012 -12.61295,-2.2208 -8.63322,-6.68345z" fill="#ffffff"></path><path d="M193.54176,181.66891c0.34532,0.31074 0.559,0.7397 0.559,1.21337c0,0.47376 -0.21368,0.90272 -0.559,1.21346c-0.34541,0.31074 -0.82244,0.50326 -1.34936,0.50326c-0.5269,0 -1.00404,-0.19252 -1.34936,-0.50326c-0.34541,-0.31074 -0.559,-0.7397 -0.559,-1.21346c0,-0.47367 0.21359,-0.90263 0.559,-1.21337c0.34532,-0.31074 0.82244,-0.50326 1.34936,-0.50326c0.5269,0 1.00395,0.19252 1.34936,0.50326z" fill="#272525"></path></g><g data-paper-data="{&quot;index&quot;:null}"><path d="M215.57238,186.63402c12.62559,-6.84397 27.29633,-33.35161 31.41108,-48.35923c0.95418,-3.47897 4.92547,-7.97886 14.44444,-12.34782c4.23643,-1.94462 8.9524,-3.46207 14.53732,-4.03458c0,0 4.61811,-1.43212 14.61332,-0.90432c17.35258,0.91702 41.02043,21.00459 11.15631,32.05114c-8.94058,3.30759 -19.77095,3.59807 -24.67439,2.92841c1.72001,1.21426 10.86922,6.90814 8.56905,12.41955c-2.94361,7.05338 -23.5244,-2.34825 -23.5244,-2.34825c3.91298,3.26528 8.10294,8.27688 5.70233,11.77104c-3.36919,4.90263 -14.77714,0.59277 -14.77714,0.59277c1.11542,2.53741 3.59887,6.75775 1.67442,8.83758c-1.92437,2.07894 -8.77003,1.27924 -10.98993,0.45003c1.9624,4.79623 1.20154,8.16035 -0.75748,9.26235c-1.9784,1.36626 -7.86224,0.53367 -13.57301,-2.58388c-3.70606,5.57647 -11.0237,5.74109 -13.54341,4.01681c-2.41421,-1.64909 -3.40386,-3.98898 -3.29915,-6.89792c0.04221,-1.36883 0.4974,-3.47985 3.03062,-4.85366z" fill="#279afa"></path><path d="M215.57237,186.63404c12.62559,-6.84397 27.29633,-33.35161 31.41108,-48.35923c0.95418,-3.47897 4.92547,-7.97886 14.44444,-12.34782c4.23643,-1.94462 8.9524,-3.46207 14.53732,-4.03458c8.27689,-0.90432 27.5581,3.63434 29.88022,12.28951c4.13253,15.40795 -39.99115,15.26947 -39.99115,15.26947c22.70781,22.79901 -12.15272,10.41404 -12.15272,10.41404c18.01379,22.09566 -7.59967,12.52514 -7.59967,12.52514c9.72588,16.71757 -9.42866,9.4818 -9.42866,9.4818c7.24333,14.71803 -7.28893,12.49475 -7.28893,12.49475c-3.70606,5.57647 -11.0237,5.74109 -13.54341,4.01681c-2.41421,-1.64909 -3.40386,-3.98898 -3.29915,-6.89792c0.04221,-1.36714 0.4974,-3.47816 3.03062,-4.85197z" fill="#0043a5"></path></g></g></g></svg>